<?xml version="1.0" encoding="UTF-8"?>
<svg width="48px" height="42px" viewBox="0 0 48 42" version="1.1" xmlns="http://www.w3.org/2000/svg">
    <title>activity</title>
    <g stroke="none" stroke-width="1">
        <g>
            <path d="M44.22,24.9 C42.78,24.9 41.52,25.74 40.92,27 L40.86,27 L34.92,27 L31.02,16.68 C30.72,15.96 30,15.48 29.22,15.54 C28.44,15.6 27.78,16.14 27.6,16.92 L25.02,28.26 L22.62,2.22 C22.56,1.38 21.9,0.72 21,0.6 C20.16,0.54 19.38,1.02 19.08,1.86 L11.58,26.82 L1.86,26.82 C0.9,26.82 0.06,27.6 0.06,28.62 C0.06,29.58 0.84,30.42 1.86,30.42 L12.9,30.42 C13.68,30.42 14.4,29.88 14.64,29.16 L19.86,11.76 L22.44,39.84 C22.5,40.74 23.22,41.4 24.12,41.46 L24.24,41.46 C25.08,41.46 25.8,40.86 25.98,40.08 L29.7,23.52 L31.92,29.4 C32.16,30.12 32.82,30.54 33.6,30.54 L40.74,30.54 C40.86,30.54 40.92,30.48 41.04,30.48 C41.7,31.5 42.84,32.16 44.1,32.16 C46.14,32.16 47.76,30.54 47.76,28.5 C47.82,26.52 46.2,24.9 44.22,24.9 L44.22,24.9 Z"></path>
        </g>
    </g>
</svg>