<svg xmlns="http://www.w3.org/2000/svg" width="16" height="16" fill="currentColor" viewBox="0 0 16 16">
  <path fill-rule="evenodd" d="M8 15A7 7 0 1 0 8 1a7 7 0 0 0 0 14Z" fill="transparent" class="secondary" clip-rule="evenodd"/>
  <path fill-rule="evenodd" d="M8 13.75a5.75 5.75 0 1 0 0-11.5 5.75 5.75 0 0 0 0 11.5ZM8 15A7 7 0 1 0 8 1a7 7 0 0 0 0 14Z" clip-rule="evenodd"/>
  <path fill-rule="evenodd" d="M8.625 5a.625.625 0 1 0-1.25 0v2.375H5a.625.625 0 1 0 0 1.25h2.375V11a.625.625 0 1 0 1.25 0V8.625H11a.625.625 0 1 0 0-1.25H8.625V5Z" clip-rule="evenodd"/>
</svg>
