<svg xmlns="http://www.w3.org/2000/svg" width="16" height="16" fill="currentColor" viewBox="0 0 16 16">
  <path fill-rule="evenodd" d="M3.25 13V5.754L6.763 2.25H11a.75.75 0 0 1 .75.75v10a.75.75 0 0 1-.75.75H4a.75.75 0 0 1-.75-.75ZM2 13V5.65a1 1 0 0 1 .294-.708l3.66-3.65A1 1 0 0 1 6.658 1H11a2 2 0 0 1 2 2v10a2 2 0 0 1-2 2H4a2 2 0 0 1-2-2Zm5.7-3.434c-.394 0-.597-.199-.61-.596l-.095-3.293a.607.607 0 0 1 .183-.487c.13-.127.3-.19.508-.19a.71.71 0 0 1 .515.196.59.59 0 0 1 .19.481L8.28 8.97c-.008.397-.202.596-.582.596Zm0 2.249a.829.829 0 0 1-.57-.21.706.706 0 0 1-.23-.535c0-.212.077-.389.23-.529a.814.814 0 0 1 .57-.216c.216 0 .401.07.555.21.158.14.237.318.237.535a.683.683 0 0 1-.237.535.811.811 0 0 1-.556.21Z" clip-rule="evenodd"/>
</svg>
