<svg xmlns="http://www.w3.org/2000/svg" width="12" height="12" fill="currentColor" viewBox="0 0 12 12">
  <path fill-rule="evenodd" d="M3 9.75V4.332L5.51 1.75H8.5a.5.5 0 0 1 .5.5v7.5a.5.5 0 0 1-.5.5h-5a.5.5 0 0 1-.5-.5Zm-1 0V4.23a.75.75 0 0 1 .212-.522L4.867.978A.75.75 0 0 1 5.405.75H8.5a1.5 1.5 0 0 1 1.5 1.5v7.5a1.5 1.5 0 0 1-1.5 1.5h-5A1.5 1.5 0 0 1 2 9.75Zm4.005-2.365c-.302 0-.458-.153-.468-.458l-.073-2.53a.466.466 0 0 1 .14-.374.54.54 0 0 1 .39-.146c.16 0 .292.05.396.151.104.097.153.22.146.37l-.083 2.529c-.007.305-.156.458-.448.458Zm0 1.727a.637.637 0 0 1-.437-.161.542.542 0 0 1-.177-.411c0-.163.06-.299.177-.406a.625.625 0 0 1 .437-.167.61.61 0 0 1 .427.162.525.525 0 0 1 .182.41c0 .167-.06.304-.182.412a.623.623 0 0 1-.427.161Z" clip-rule="evenodd"/>
</svg>
