<svg xmlns="http://www.w3.org/2000/svg" width="20" height="20" fill="currentColor" viewBox="0 0 20 20">
  <path fill-rule="evenodd" d="M4.05 16.25V7.187L8.448 2.8h5.302a.95.95 0 0 1 .95.95v12.5a.95.95 0 0 1-.95.95H5a.95.95 0 0 1-.95-.95Zm-1.55 0V7.062c0-.332.132-.65.367-.885l4.575-4.562a1.25 1.25 0 0 1 .882-.365h5.426a2.5 2.5 0 0 1 2.5 2.5v12.5a2.5 2.5 0 0 1-2.5 2.5H5a2.5 2.5 0 0 1-2.5-2.5Zm7.124-4.293c-.49 0-.745-.248-.762-.745l-.118-4.115a.759.759 0 0 1 .228-.61.876.876 0 0 1 .635-.237c.26 0 .475.082.644.246.17.158.248.358.237.6l-.136 4.116c-.01.497-.254.745-.728.745Zm0 2.812c-.276 0-.514-.088-.711-.263a.882.882 0 0 1-.288-.669c0-.265.096-.485.288-.66a1.02 1.02 0 0 1 .711-.271c.271 0 .503.087.695.262a.854.854 0 0 1 .296.67.854.854 0 0 1-.296.668c-.198.175-.43.263-.695.263Z" clip-rule="evenodd"/>
</svg>
