<svg xmlns="http://www.w3.org/2000/svg" width="20" height="20" fill="currentColor" viewBox="0 0 20 20">
  <path fill-rule="evenodd" d="M2.087 17.473a.75.75 0 1 0 0 1.5h15.908a.75.75 0 0 0 0-1.5H2.087ZM3.74 5.5a.75.75 0 0 1 .75.75v9.229a.75.75 0 0 1-1.5 0V6.25a.75.75 0 0 1 .75-.75Zm4.03-4.197a.75.75 0 0 1 .75.75v13.38a.75.75 0 1 1-1.5 0V2.053a.75.75 0 0 1 .75-.75Zm4.759 7.07a.75.75 0 0 0-1.5 0v7.12a.75.75 0 0 0 1.5 0v-7.12Zm3.26-3.261a.75.75 0 0 1 .75.75v9.588a.75.75 0 0 1-1.5 0V5.863a.75.75 0 0 1 .75-.75Z" clip-rule="evenodd"/>
</svg>
