<svg xmlns="http://www.w3.org/2000/svg" width="16" height="16" fill="currentColor" viewBox="0 0 16 16">
  <path fill-rule="evenodd" d="M1.644 13.727a.625.625 0 1 0 0 1.25H14.37a.625.625 0 0 0 0-1.25H1.644ZM3.62 4.35c.345 0 .625.28.625.625v7.383a.625.625 0 1 1-1.25 0V4.976c0-.345.28-.625.625-.625Zm3.01-3.321c.346 0 .626.28.626.625v10.704a.625.625 0 1 1-1.25 0V1.655c0-.345.28-.625.625-.625Zm3.63 5.633a.625.625 0 0 0-1.25 0v5.696a.625.625 0 1 0 1.25 0V6.663Zm2.37-2.6c.345 0 .625.28.625.625v7.67a.625.625 0 0 1-1.25 0v-7.67c0-.345.28-.625.625-.625Z" clip-rule="evenodd"/>
</svg>
