<svg xmlns="http://www.w3.org/2000/svg" width="12" height="12" fill="currentColor" viewBox="0 0 12 12">
  <path fill-rule="evenodd" d="m5.806 4-.298-.435L4.436 2H2.169a.167.167 0 0 0-.06.05A.552.552 0 0 0 2 2.4v6.2c0 .165.056.285.11.35.03.036.05.047.06.05H7v-.5h1.05V9h1.78c.01-.003.03-.014.06-.05A.552.552 0 0 0 10 8.6V4.5a.5.5 0 0 0-.5-.5h-.4v.3H8.05V4H5.806ZM8.05 5.35H7V4.3h1.05v1.05Zm0 0H9.1V6.4H8.05V5.35Zm0 2.1V8.5H9.1V7.45H8.05Zm0 0H7V6.4h1.05v1.05ZM9.827 9h.003-.003ZM2.173 9H2.17h.003Zm0-7H2.17h.003Zm4.16 1H9.5A1.5 1.5 0 0 1 11 4.5v4.1c0 .773-.522 1.4-1.167 1.4H2.167C1.522 10 1 9.373 1 8.6V2.4C1 1.627 1.522 1 2.167 1h2.4a.75.75 0 0 1 .62.326L6.332 3Z" clip-rule="evenodd"/>
</svg>
