<svg id="Layer_1" data-name="Layer 1" xmlns="http://www.w3.org/2000/svg" viewBox="0 0 16 16"><defs><style>.cls-1{fill-rule:evenodd;}</style></defs><title>Archive</title><path class="cls-1" d="M14.85,9.14,13.7,8.37V10H12.56V9.14l-1.14-.77V10H10.28V9.14L9.14,8.37V10H8V9.14L6.85,8.37V10H5.71V9.14L4.57,8.37V10H3.43V9.14L2.28,8.37V10H1.14V9.14L0,8.37V14H16V10H14.85ZM8,4,6.51,2.53a3,3,0,0,0-2-.53H.06A.06.06,0,0,0,0,2.06V6.57H1.14V7.72l1.14.63V6.57H3.43V7.72l1.14.63V6.57H5.71V7.72l1.14.63V6.57H8V7.72l1.15.63V6.57h1.14V7.72l1.14.63V6.57h1.14V7.72l1.15.63V6.57h1.14V7.72L16,8.35V4Z"/></svg>