<svg xmlns="http://www.w3.org/2000/svg" width="20" height="20" fill="currentColor" viewBox="0 0 20 20">
  <path fill-rule="evenodd" d="m9.973 6-.44-.446L7.505 3.5H3.1a.498.498 0 0 0-.37.187.964.964 0 0 0-.23.646v10.334c0 .28.102.504.23.646.126.14.259.187.37.187h8.186v-1h1.8v1H16.9a.498.498 0 0 0 .37-.187.964.964 0 0 0 .23-.646V7a1 1 0 0 0-1-1h-1.614v1.5h-1.8V6H9.973Zm3.113 3.25h-1.8V7.5h1.8v1.75Zm0 0h1.8V11h-1.8V9.25Zm0 3.5v1.75h1.8v-1.75h-1.8Zm0 0h-1.8V11h1.8v1.75ZM10.6 4.5h5.9A2.5 2.5 0 0 1 19 7v7.667C19 15.955 18.06 17 16.9 17H3.1C1.94 17 1 15.955 1 14.667V4.333C1 3.045 1.94 2 3.1 2h4.51c.335 0 .656.134.89.372L10.6 4.5Z" clip-rule="evenodd"/>
</svg>
