<svg xmlns="http://www.w3.org/2000/svg" width="16" height="16" fill="currentColor" viewBox="0 0 16 16">
  <path fill-rule="evenodd" d="m7.934 5.25-.37-.385L6.016 3.25H2.633c-.047 0-.126.019-.214.12a.756.756 0 0 0-.169.497v8.266c0 .222.079.394.17.497.087.101.166.12.213.12H9V12h1.4v.75h2.967c.047 0 .126-.019.214-.12a.756.756 0 0 0 .169-.497V6a.75.75 0 0 0-.75-.75h-1.2V6.4h-1.4V5.25H7.934ZM10.4 7.8H9V6.4h1.4v1.4Zm0 0h1.4v1.4h-1.4V7.8Zm0 2.8V12h1.4v-1.4h-1.4Zm0 0H9V9.2h1.4v1.4ZM8.467 4H13a2 2 0 0 1 2 2v6.133C15 13.164 14.269 14 13.367 14H2.633C1.731 14 1 13.164 1 12.133V3.867C1 2.836 1.731 2 2.633 2h3.489a1 1 0 0 1 .721.308L8.467 4Z" clip-rule="evenodd"/>
</svg>
