<svg xmlns="http://www.w3.org/2000/svg" width="16" height="16" fill="currentColor" viewBox="0 0 16 16">
  <path fill-rule="evenodd" d="M3.25 6.995V13c0 .414.336.75.75.75h7a.75.75 0 0 0 .75-.75V3a.75.75 0 0 0-.75-.75H7.994v2.62A2.125 2.125 0 0 1 5.87 6.995H3.25Zm3.494-4.726L3.26 5.745h2.61a.875.875 0 0 0 .875-.875V2.269ZM2 13V5.65a1 1 0 0 1 .294-.708l3.66-3.65A1 1 0 0 1 6.658 1H11a2 2 0 0 1 2 2v10a2 2 0 0 1-2 2H4a2 2 0 0 1-2-2Zm3-3.5a.5.5 0 0 1 .5-.5h4a.5.5 0 1 1 0 1h-4a.5.5 0 0 1-.5-.5Zm.5 1.5a.5.5 0 0 0 0 1h4a.5.5 0 0 0 0-1h-4Z" clip-rule="evenodd"/>
  <path fill-rule="evenodd" d="m3.259 5.745 3.485-3.476v2.6a.875.875 0 0 1-.875.876H3.26ZM2 5.65a1 1 0 0 1 .294-.708l3.66-3.65A1 1 0 0 1 6.658 1H11a2 2 0 0 1 2 2v10a2 2 0 0 1-2 2H4a2 2 0 0 1-2-2V5.65ZM5.5 9a.5.5 0 0 0 0 1h4a.5.5 0 1 0 0-1h-4ZM3.25 6.995h2.62A2.125 2.125 0 0 0 7.993 4.87V2.25H11a.75.75 0 0 1 .75.75v10a.75.75 0 0 1-.75.75H4a.75.75 0 0 1-.75-.75V6.995ZM5 11.5a.5.5 0 0 1 .5-.5h4a.5.5 0 0 1 0 1h-4a.5.5 0 0 1-.5-.5Z" clip-rule="evenodd"/>
</svg>
