<svg xmlns="http://www.w3.org/2000/svg" width="20" height="20" fill="currentColor" viewBox="0 0 20 20">
  <path fill-rule="evenodd" d="M4.5 7.25v-.187L9.03 2.5h.221v3.625c0 .621-.504 1.125-1.125 1.125H4.5Zm0 1.5v7.75a1 1 0 0 0 1 1h9a1 1 0 0 0 1-1v-13a1 1 0 0 0-1-1h-3.75v3.625A2.625 2.625 0 0 1 8.125 8.75H4.5ZM3 16.5V6.96c0-.33.13-.647.363-.88l4.674-4.71A1.25 1.25 0 0 1 8.925 1H14.5A2.5 2.5 0 0 1 17 3.5v13a2.5 2.5 0 0 1-2.5 2.5h-9A2.5 2.5 0 0 1 3 16.5Zm4-4.75a.75.75 0 0 1 .75-.75h4.75a.75.75 0 0 1 0 1.5H7.75a.75.75 0 0 1-.75-.75ZM7.75 14a.75.75 0 0 0 0 1.5h4.75a.75.75 0 0 0 0-1.5H7.75Z" clip-rule="evenodd"/>
  <path fill-rule="evenodd" d="M9.25 2.5h-.221L4.5 7.063v.187h3.625c.621 0 1.125-.504 1.125-1.125V2.5Zm-4.75 14V8.75h3.625a2.625 2.625 0 0 0 2.625-2.625V2.5h3.75a1 1 0 0 1 1 1v13a1 1 0 0 1-1 1h-9a1 1 0 0 1-1-1ZM3 6.96v9.54A2.5 2.5 0 0 0 5.5 19h9a2.5 2.5 0 0 0 2.5-2.5v-13A2.5 2.5 0 0 0 14.5 1H8.925a1.25 1.25 0 0 0-.888.37L3.363 6.08A1.25 1.25 0 0 0 3 6.96ZM7.75 11a.75.75 0 0 0 0 1.5h4.75a.75.75 0 0 0 0-1.5H7.75ZM7 14.75a.75.75 0 0 1 .75-.75h4.75a.75.75 0 0 1 0 1.5H7.75a.75.75 0 0 1-.75-.75Z" clip-rule="evenodd"/>
</svg>
