<svg xmlns="http://www.w3.org/2000/svg" width="16" height="16" fill="currentColor" viewBox="0 0 16 16">
  <path fill-rule="evenodd" d="M13.14 9.625a.625.625 0 1 0-1.25 0v2.279H9.625a.625.625 0 1 0 0 1.25h2.265v2.125a.625.625 0 1 0 1.25 0v-2.125h2.139a.625.625 0 1 0 0-1.25h-2.14V9.625Z" clip-rule="evenodd"/>
  <path fill-rule="evenodd" d="M2.73 4.665 8 2.031l5.269 2.634L7.999 7.3 2.732 4.665ZM8.178.763a.958.958 0 0 0-.354 0 1.225 1.225 0 0 0-.324.12l-.017.009-6.428 3.214a.625.625 0 0 0 0 1.118l6.428 3.214.017.009c.063.032.186.095.324.12a.958.958 0 0 0 .354 0c.137-.025.26-.088.323-.12l.018-.009 6.428-3.214a.625.625 0 0 0 0-1.118L8.518.892 8.5.883a1.225 1.225 0 0 0-.323-.12ZM1.613 7.439a.625.625 0 1 0-.56 1.118l6.429 3.214.017.01c.063.031.186.094.324.12a.962.962 0 0 0 .298.009 1.625 1.625 0 0 1 1.504-1.008h.632l.632-.316v-.963c0-.163.025-.32.07-.47l-2.96 1.48-6.386-3.194Zm11.46.658c.432.158.78.495.95.922l.923-.462a.625.625 0 0 0-.559-1.118l-1.315.658Zm1.044 3.805a.625.625 0 0 1-.345.659l-1.883.912v-.32H9.684l3.456-1.675v.424h.979ZM13.12 9.47a.625.625 0 0 0-1.23.153v.463l1.23-.616Zm-4.603 4.246c.29.27.68.436 1.108.436h.86l-1.97.954-.015.008a1.227 1.227 0 0 1-.323.12.959.959 0 0 1-.354 0 1.227 1.227 0 0 1-.324-.12l-.017-.01-6.428-3.213a.625.625 0 0 1 .559-1.118L8 13.967l.517-.25Z" clip-rule="evenodd"/>
</svg>
