<svg xmlns="http://www.w3.org/2000/svg" width="12" height="12" fill="currentColor" viewBox="0 0 12 12">
  <path fill-rule="evenodd" d="M6 1.56 2.118 3.503 6 5.442l3.882-1.94L6 1.56ZM5.862.545a.75.75 0 0 1 .276 0c.109.02.205.07.252.093l.013.007 4.82 2.41a.5.5 0 0 1 0 .895l-4.82 2.41-.013.007a.935.935 0 0 1-.252.093.75.75 0 0 1-.276 0c-.108-.02-.205-.07-.252-.093l-.012-.006L.777 3.949a.5.5 0 0 1 0-.894L5.597.644 5.61.637c.047-.023.144-.073.252-.093ZM.552 5.778a.5.5 0 0 1 .672-.223L6 7.943l4.777-2.388a.5.5 0 1 1 .447.894l-4.821 2.41-.013.007a.935.935 0 0 1-.252.093.75.75 0 0 1-.276 0c-.108-.02-.205-.07-.252-.093l-.012-.006L.777 6.449a.5.5 0 0 1-.224-.67Zm0 2.5a.5.5 0 0 1 .672-.223L6 10.443l4.777-2.388a.5.5 0 1 1 .447.894l-4.821 2.41-.013.007a.935.935 0 0 1-.252.093.752.752 0 0 1-.276 0c-.108-.02-.205-.07-.252-.093l-.012-.006L.777 8.949a.5.5 0 0 1-.224-.67Z" clip-rule="evenodd"/>
</svg>
