<svg id="Layer_1" data-name="Layer 1" xmlns="http://www.w3.org/2000/svg" width="16" height="16" viewBox="0 0 16 16">
  <path d="M0,7.23285v1.608L7.71673,11.833a.74027.74027,0,0,0,.53891,0l7.703-2.98718v-1.608l-7.9725,3.09229Zm0,4.00977v1.608l7.71673,2.99213a.74027.74027,0,0,0,.53891,0l7.703-2.98718v-1.608l-7.9725,3.09229ZM8.22742.04688a.64422.64422,0,0,0-.48249,0L0,3.17383V4.83014L7.71673,7.82227a.74027.74027,0,0,0,.53891,0l7.703-2.98718V3.16864ZM7.98618,6.31934,1.70913,3.885,7.98618,1.35059,14.26244,3.885Z"/>
</svg>
