<svg xmlns="http://www.w3.org/2000/svg" width="12" height="12" fill="currentColor" viewBox="0 0 12 12">
  <path fill-rule="evenodd" d="M3 5v4.75a.5.5 0 0 0 .5.5h5a.5.5 0 0 0 .5-.5v-7.5a.5.5 0 0 0-.5-.5H7v1.625C7 4.272 6.272 5 5.375 5H3Zm3-3.25h-.49L3.323 4h2.052C5.72 4 6 3.72 6 3.375V1.75Zm-4 8V4.23a.75.75 0 0 1 .212-.522L4.867.978A.75.75 0 0 1 5.405.75H8.5a1.5 1.5 0 0 1 1.5 1.5v7.5a1.5 1.5 0 0 1-1.5 1.5h-5A1.5 1.5 0 0 1 2 9.75ZM4 6.5a.5.5 0 0 1 .5-.5h3a.5.5 0 0 1 0 1h-3a.5.5 0 0 1-.5-.5ZM4.5 8a.5.5 0 0 0 0 1h3a.5.5 0 0 0 0-1h-3Z" clip-rule="evenodd"/>
</svg>
