<svg width="16px" height="16px" viewBox="0 0 16 16" version="1.1" xmlns="http://www.w3.org/2000/svg">
    <path d="M13.75,9 L13.75,11.25 L16,11.25 L16,12.75 L13.75,12.75 L13.75,15 L12.25,15 L12.25,12.75 L10,12.75 L10,11.25 L12.25,11.25 L12.25,9 L13.75,9 Z M0,9.6609602 L7.005492,12.3704284 L9,11.599 L9,13.286 L7.289066,13.9476263 C7.143684,14.0034916 6.984883,14.0146646 6.834133,13.9811455 L6.722916,13.9476263 L0,11.3488911 L0,9.6609602 Z M0,6.1813485 L7.005492,8.8898192 L14,6.1863365 L14,7.8732698 L07.289066,10.4680146 C7.143684,10.524678 6.984883,10.5360107 6.834133,10.5020126 L6.722916,10.4680146 L0,7.8692794 L0,6.1813485 Z M7.134546,0.0148143 L7.218173,0.0411508 L14,2.7695733 L14,4.4585018 L7.289066,7.0532466 C7.143684,7.109112 6.984883,7.120285 6.834133,7.0867658 L6.722916,7.0532466 L0,4.4545114 L0,2.7665806 L0.010984,2.7695733 L6.793809,0.0411508 C6.902446,-0.0027434 7.021308,-0.0115222 7.134546,0.0148143 Z M7.005492,1.2721831 L1.717424,3.4309789 L7.005492,5.4750512 L12.316525,3.4200053 L7.005492,1.2721831 Z"></path>
</svg>
