<svg xmlns="http://www.w3.org/2000/svg" width="20" height="20" fill="currentColor" viewBox="0 0 20 20">
  <path fill-rule="evenodd" d="M10 2.504 3.344 5.832 10 9.16l6.656-3.328L10 2.504ZM9.785.984c.142-.026.288-.026.43 0 .168.032.317.109.396.149l.023.01 8.035 4.019a.75.75 0 0 1 0 1.341l-8.035 4.018-.023.01a1.478 1.478 0 0 1-.396.149 1.165 1.165 0 0 1-.43 0c-.168-.032-.317-.108-.396-.148l-.023-.011-8.035-4.018a.75.75 0 0 1 0-1.341l8.035-4.018a3.26 3.26 0 0 0 .023-.011c.079-.04.228-.117.396-.148Zm-8.79 8.68a.75.75 0 0 1 1.007-.336l7.998 4 7.998-4a.75.75 0 0 1 .67 1.342l-8.034 4.017-.023.012c-.079.04-.228.116-.396.148a1.165 1.165 0 0 1-.43 0 1.503 1.503 0 0 1-.396-.148l-.023-.012-8.035-4.017a.75.75 0 0 1-.335-1.006Zm0 4.166a.75.75 0 0 1 1.007-.335L10 17.494l7.998-4a.75.75 0 0 1 .67 1.342l-8.034 4.018a1.499 1.499 0 0 1-.418.159 1.165 1.165 0 0 1-.431 0 1.5 1.5 0 0 1-.396-.148l-.023-.01-8.035-4.019a.75.75 0 0 1-.335-1.006Z" clip-rule="evenodd"/>
</svg>
