<svg id="Layer_1" data-name="Layer 1" xmlns="http://www.w3.org/2000/svg" width="16" height="16" viewBox="0 0 16 16">
  <title>artifacts</title>
  <path d="M.00262,11.02635v1.93018l7.68054,2.97186a.89557.89557,0,0,0,.6474,0l7.66786-2.96661V11.0316L8.00686,14.1237Zm0-3.97949V8.977l7.68054,2.97186a.89557.89557,0,0,0,.6474,0l7.66786-2.96661V7.0521l-7.99156,3.0921ZM8.24863.02311a.64709.64709,0,0,0-.4836,0L.01481,3.1453.00262,3.1406V5.07078L7.68316,8.04264a.89557.89557,0,0,0,.6474,0L15.99842,5.076V3.14476ZM8.00686,6.238,1.9647,3.901,8.00686,1.43229l6.06777,2.4566Z"/>
</svg>
