<svg xmlns="http://www.w3.org/2000/svg" width="12" height="12" fill="currentColor" viewBox="0 0 12 12">
  <path d="M10.012 7.5a.5.5 0 0 0-1 0v1.522H7.5a.5.5 0 0 0 0 1h1.512V11.5a.5.5 0 0 0 1 0v-1.478H11.5a.5.5 0 0 0 0-1h-1.488V7.5Z"/>
  <path fill-rule="evenodd" d="M2.118 3.502 6 1.56 9.882 3.5 6 5.444 2.118 3.502ZM6.138.544a.75.75 0 0 0-.276 0c-.108.02-.205.07-.252.093l-.012.007-4.821 2.41a.5.5 0 0 0 0 .895l4.82 2.41.013.007a.948.948 0 0 0 .252.093.75.75 0 0 0 .276 0c.109-.02.205-.07.252-.093l.013-.006 4.82-2.411a.5.5 0 0 0 0-.894L6.404.644 6.39.637C6.343.614 6.247.564 6.138.544Zm-4.914 5.01a.5.5 0 1 0-.447.895l4.82 2.41.013.007a.948.948 0 0 0 .252.093.75.75 0 0 0 .276 0c.109-.02.205-.07.252-.093l.013-.006.057-.029a1.249 1.249 0 0 1 1.04-.557h.074l.689-.344v-.428c0-.335.131-.639.345-.863L6 7.943 1.224 5.555Zm8.14.706a1.249 1.249 0 0 1 1.176.53l.684-.341a.5.5 0 0 0-.447-.894l-1.412.705Zm1.576 2.764a.497.497 0 0 1-.2.18l-1.727.858v-.038H7.5a.498.498 0 0 1-.356-.15l1.71-.85h.159v-.078l1-.497v.575h.927Zm-1.088-1.89a.498.498 0 0 0-.84.368v.053l.84-.42Zm-3.394 3.081c.224.337.607.559 1.042.559h.08l-1.177.586h-.001l-.012.006a.935.935 0 0 1-.252.093.752.752 0 0 1-.276 0c-.108-.02-.205-.07-.252-.093l-.012-.006L.777 8.949a.5.5 0 0 1 .447-.894L6 10.443l.458-.228Z" clip-rule="evenodd"/>
</svg>
