<svg xmlns="http://www.w3.org/2000/svg" width="20" height="20" fill="currentColor" viewBox="0 0 20 20">
  <path fill-rule="evenodd" d="M16.822 12.75a.75.75 0 0 0-1.5 0v2.59H12.75a.75.75 0 0 0 0 1.5h2.573v2.412a.75.75 0 0 0 1.5 0V16.84h2.43a.75.75 0 0 0 0-1.5h-2.43v-2.59Z" clip-rule="evenodd"/>
  <path fill-rule="evenodd" d="M3.344 5.832 10 2.504l6.656 3.328L10 9.16 3.344 5.832ZM10.215.985a1.167 1.167 0 0 0-.43 0 1.5 1.5 0 0 0-.396.148l-.023.01-8.035 4.019a.75.75 0 0 0 0 1.341l8.035 4.018.023.01c.079.041.228.117.396.149.142.027.288.027.43 0 .168-.032.318-.108.396-.148l.023-.011 8.035-4.018a.75.75 0 0 0 0-1.341l-8.035-4.018-.023-.011c-.079-.04-.228-.117-.396-.148ZM2.002 9.328a.75.75 0 1 0-.67 1.342l8.034 4.017.023.012c.079.04.228.116.396.148.142.026.288.026.43 0 .168-.032.317-.108.396-.148l.023-.012 3.438-1.719v-.22a2 2 0 0 1 3.365-1.462l1.232-.616a.75.75 0 1 0-.671-1.342l-7.998 4-7.998-4Zm15.667 6.01a.746.746 0 0 1-.347.338l-2.443 1.161h-2.13a.75.75 0 0 1-.633-.348l2.424-1.152h.782v-.371l1.356-.644a.749.749 0 0 1 .144-.052v1.067h.847Zm-2.155-3.09a.748.748 0 0 1 .493-.247l-.494.246Zm-4.53 4.78c.274.514.766.894 1.353 1.017l-1.71.812-.016.008c-.079.04-.228.117-.396.148a1.165 1.165 0 0 1-.43 0 1.5 1.5 0 0 1-.396-.148l-.023-.01-8.035-4.019a.75.75 0 0 1 .671-1.341l7.999 4 .982-.468Z" clip-rule="evenodd"/>
</svg>
