<svg xmlns="http://www.w3.org/2000/svg" width="16" height="16" fill="currentColor" viewBox="0 0 16 16">
  <path fill-rule="evenodd" d="M8 2.03 2.73 4.666 8 7.3l5.269-2.635-5.27-2.634ZM7.823.764a.958.958 0 0 1 .354 0c.137.025.26.088.323.12l.018.009 6.428 3.214a.625.625 0 0 1 0 1.118L8.518 8.438a1.225 1.225 0 0 1-.341.13.958.958 0 0 1-.354 0 1.225 1.225 0 0 1-.341-.13L1.054 5.224a.625.625 0 0 1 0-1.118L7.482.892l.017-.009c.063-.032.186-.095.324-.12ZM.774 7.719a.625.625 0 0 1 .839-.28L8 10.633l6.387-3.194a.625.625 0 0 1 .559 1.118l-6.428 3.214-.018.01a1.227 1.227 0 0 1-.323.12.959.959 0 0 1-.354 0 1.227 1.227 0 0 1-.324-.12l-.017-.01-6.428-3.214a.625.625 0 0 1-.28-.838Zm0 3.333a.625.625 0 0 1 .839-.28L8 13.967l6.387-3.193a.625.625 0 0 1 .559 1.118l-6.428 3.214-.018.009a1.227 1.227 0 0 1-.323.12.959.959 0 0 1-.354 0 1.227 1.227 0 0 1-.324-.12l-.017-.01-6.428-3.213a.625.625 0 0 1-.28-.839Z" clip-rule="evenodd"/>
</svg>
