<svg xmlns="http://www.w3.org/2000/svg" width="12" height="12" fill="currentColor" viewBox="0 0 12 12">
  <path fill-rule="evenodd" d="M9.098 6.193a1.02 1.02 0 0 0 .827-1.676 1.022 1.022 0 0 0-1.42-.06 7.59 7.59 0 0 1-1.205.877c-.26.156-.533.285-.817.39.01-.29.047-.577.112-.86.094-.499.237-.99.43-1.46.11-.257.11-.55 0-.807-.228-.5-.81-.728-1.318-.52a1.021 1.021 0 0 0-.521 1.328c.2.469.347.958.439 1.46.061.296.099.597.112.9a5.007 5.007 0 0 1-.827-.39 7.572 7.572 0 0 1-1.205-.918 1.02 1.02 0 0 0-.767-.266 1.025 1.025 0 1 0 .174 2.043 7.039 7.039 0 0 1 1.481 0c.302.038.599.104.889.193a4.704 4.704 0 0 1-.633.635 6.61 6.61 0 0 1-1.216.867 1.023 1.023 0 0 0-.5.633 1.022 1.022 0 1 0 1.95.502c.124-.482.303-.948.532-1.39a5.06 5.06 0 0 1 .49-.767c.196.25.365.521.5.807.222.43.397.883.521 1.35.074.27.254.5.501.633a1.022 1.022 0 0 0 .96-1.768 6.548 6.548 0 0 1-1.215-.858 5.234 5.234 0 0 1-.644-.633c.29-.091.587-.156.889-.193.49-.07.988-.086 1.48-.052Z" clip-rule="evenodd"/>
</svg>
