<svg xmlns="http://www.w3.org/2000/svg" viewBox="0 0 8 8"><path d="M6.93 4.3a1 1 0 0 0 .81-1.64 1 1 0 0 0-1.39-.06 7.4 7.4 0 0 1-1.18.86 4.87 4.87 0 0 1-.8.38A4.41 4.41 0 0 1 4.48 3a7.36 7.36 0 0 1 .42-1.43 1 1 0 0 0 0-.79A1 1 0 0 0 3.61.27a1 1 0 0 0-.51 1.3A6.73 6.73 0 0 1 3.53 3a5.43 5.43 0 0 1 .11.88 5 5 0 0 1-.81-.38 7.4 7.4 0 0 1-1.18-.9 1 1 0 0 0-.75-.26 1 1 0 1 0 .17 2 7 7 0 0 1 1.45 0 5 5 0 0 1 .87.19 4.54 4.54 0 0 1-.62.62A6.5 6.5 0 0 1 1.58 6a1 1 0 0 0-.49.62A1 1 0 1 0 3 7.11a6.5 6.5 0 0 1 .52-1.36A4.75 4.75 0 0 1 4 5a4.2 4.2 0 0 1 .49.79A6.5 6.5 0 0 1 5 7.11a1 1 0 0 0 .49.62A1 1 0 0 0 6.43 6a6.5 6.5 0 0 1-1.19-.84 5.28 5.28 0 0 1-.63-.62 5 5 0 0 1 .87-.19 7 7 0 0 1 1.45-.05z"/></svg>