<svg xmlns="http://www.w3.org/2000/svg" width="10" height="10" viewBox="0 0 10 10"><g><path d="M8,5.19a1,1,0,0,0,1-1,.94.94,0,0,0-.23-.68,1,1,0,0,0-1.39-.06,7.75,7.75,0,0,1-1.18.86,4.52,4.52,0,0,1-.8.38,4.71,4.71,0,0,1,.11-.84,7.83,7.83,0,0,1,.42-1.43,1,1,0,0,0-1.29-1.3,1,1,0,0,0-.51,1.3,6.54,6.54,0,0,1,.43,1.43,5.16,5.16,0,0,1,.11.88,5,5,0,0,1-.81-.38,7.83,7.83,0,0,1-1.18-.9,1,1,0,0,0-.75-.26,1,1,0,0,0,.17,2,7,7,0,0,1,1.45,0,5,5,0,0,1,.87.19A4,4,0,0,1,3.79,6a6.28,6.28,0,0,1-1.19.85,1,1,0,0,0-.49.62,1,1,0,0,0,.51,1.32,1,1,0,0,0,1.32-.51A.89.89,0,0,0,4,8a6.58,6.58,0,0,1,.52-1.36A4.79,4.79,0,0,1,5,5.89a3.59,3.59,0,0,1,.49.79A6.22,6.22,0,0,1,6,8a1,1,0,0,0,.49.62,1,1,0,0,0,.94-1.73,7.53,7.53,0,0,1-1.19-.84,7.36,7.36,0,0,1-.63-.62,5.42,5.42,0,0,1,.87-.19A7,7,0,0,1,8,5.19Z"/></g></svg>