<svg xmlns="http://www.w3.org/2000/svg" width="16" height="16" viewBox="0 0 16 16"><g><path d="M13,9.41a10.46,10.46,0,0,1-2.53-.65A15.4,15.4,0,0,1,8.83,8a15.3,15.3,0,0,1,1.65-.76A9.61,9.61,0,0,1,13,6.6,1.45,1.45,0,0,0,14,6a1.43,1.43,0,0,0-2.34-1.66h0A9,9,0,0,1,9.85,6.24a15.24,15.24,0,0,1-1.48,1,15.65,15.65,0,0,1,.17-1.8A10.5,10.5,0,0,1,9.25,3a1.41,1.41,0,0,0,0-1.17,1.41,1.41,0,0,0-1.82-.69A1.41,1.41,0,0,0,6.78,3a9.55,9.55,0,0,1,.71,2.52,15.53,15.53,0,0,1,.11,1.8,15.24,15.24,0,0,1-1.48-1A9.82,9.82,0,0,1,4.29,4.37a1.45,1.45,0,0,0-1-.57A1.41,1.41,0,0,0,3,6.6a9.64,9.64,0,0,1,2.52.65A14.61,14.61,0,0,1,7.18,8a15.4,15.4,0,0,1-1.65.75A10.5,10.5,0,0,1,3,9.41,1.39,1.39,0,0,0,2,10a1.41,1.41,0,0,0,2.21,1.74l.06-.09A10.39,10.39,0,0,1,6.12,9.77a15.11,15.11,0,0,1,1.47-1,13.54,13.54,0,0,1-.17,1.8A10,10,0,0,1,6.78,13a1.41,1.41,0,0,0,2.58,1.12,1.45,1.45,0,0,0,0-1.12,9.27,9.27,0,0,1-.7-2.52,13.43,13.43,0,0,1-.24-1.8,15.11,15.11,0,0,1,1.47,1,10.39,10.39,0,0,1,1.83,1.86,1.48,1.48,0,0,0,1,.58,1.41,1.41,0,0,0,.3-2.8Z"/></g></svg>