<svg xmlns="http://www.w3.org/2000/svg" width="16" height="16" fill="currentColor" viewBox="0 0 16 16">
  <path fill-rule="evenodd" d="M13.005 9.41a10.249 10.249 0 0 1-2.526-.654 13.998 13.998 0 0 1-1.65-.749 16.305 16.305 0 0 1 1.65-.76 9.753 9.753 0 0 1 2.526-.643 1.49 1.49 0 0 0 1.005-.573 1.435 1.435 0 0 0-2.338-1.66 9.27 9.27 0 0 1-1.824 1.87c-.471.38-.963.73-1.474 1.053.02-.603.075-1.204.164-1.8.129-.87.368-1.719.713-2.527a1.442 1.442 0 0 0 0-1.169 1.425 1.425 0 0 0-1.824-.69 1.402 1.402 0 0 0-.643 1.86 9.62 9.62 0 0 1 .7 2.525c.076.598.115 1.2.119 1.801a15.11 15.11 0 0 1-1.486-1.053 9.595 9.595 0 0 1-1.824-1.87 1.47 1.47 0 0 0-1.017-.573 1.415 1.415 0 0 0-.281 2.806 9.688 9.688 0 0 1 2.527.643c.568.22 1.122.474 1.66.76-.533.285-1.084.535-1.65.75-.81.323-1.66.544-2.525.653a1.356 1.356 0 0 0-.982.573 1.404 1.404 0 1 0 2.268 1.65 10.197 10.197 0 0 1 1.824-1.86c.472-.379.963-.729 1.474-1.052a13.248 13.248 0 0 1-.176 1.8 9.866 9.866 0 0 1-.631 2.514 1.404 1.404 0 1 0 2.573 0 9.547 9.547 0 0 1-.702-2.514 13.31 13.31 0 0 1-.234-1.8c.51.323 1.003.673 1.474 1.052a10.166 10.166 0 0 1 1.824 1.86c.236.321.597.53.994.572a1.405 1.405 0 0 0 .292-2.795Z" clip-rule="evenodd"/>
</svg>
