<svg xmlns="http://www.w3.org/2000/svg" width="20" height="20" fill="currentColor" viewBox="0 0 20 20">
  <path fill-rule="evenodd" d="M16.256 11.763a12.813 12.813 0 0 1-3.156-.818 17.482 17.482 0 0 1-2.063-.936 20.381 20.381 0 0 1 2.063-.95 12.19 12.19 0 0 1 3.156-.804 1.86 1.86 0 0 0 1.257-.716 1.794 1.794 0 0 0-2.923-2.076 11.588 11.588 0 0 1-2.28 2.339c-.59.473-1.204.912-1.843 1.316.026-.754.094-1.505.205-2.251.161-1.087.46-2.148.891-3.158a1.802 1.802 0 0 0 0-1.461 1.782 1.782 0 0 0-2.28-.863A1.753 1.753 0 0 0 8.48 3.71a12.15 12.15 0 0 1 .876 3.158c.094.747.142 1.498.147 2.25a18.888 18.888 0 0 1-1.857-1.315 11.994 11.994 0 0 1-2.28-2.34 1.837 1.837 0 0 0-1.271-.714 1.769 1.769 0 0 0-.351 3.508 12.11 12.11 0 0 1 3.158.803c.71.275 1.403.593 2.075.95a17.56 17.56 0 0 1-2.061.936 12.837 12.837 0 0 1-3.158.818c-.495.047-.943.31-1.227.716a1.755 1.755 0 1 0 2.835 2.063 12.75 12.75 0 0 1 2.28-2.325A20.06 20.06 0 0 1 9.488 10.9a16.56 16.56 0 0 1-.22 2.25 12.33 12.33 0 0 1-.788 3.143 1.756 1.756 0 0 0 3.216 1.402 1.754 1.754 0 0 0 0-1.402 11.933 11.933 0 0 1-.878-3.143 16.654 16.654 0 0 1-.292-2.25c.639.404 1.254.842 1.842 1.316a12.707 12.707 0 0 1 2.28 2.324 1.78 1.78 0 0 0 1.243.716 1.756 1.756 0 1 0 .365-3.494Z" clip-rule="evenodd"/>
</svg>
