<svg id="Layer_1" data-name="Layer 1" xmlns="http://www.w3.org/2000/svg" viewBox="0 0 12 12"><title>star</title><path d="M10.32,7.2a8.78,8.78,0,0,1-2.16-.56A11.94,11.94,0,0,1,6.75,6a13.87,13.87,0,0,1,1.41-.65,8.35,8.35,0,0,1,2.16-.55,1.27,1.27,0,0,0,.86-.49,1.21,1.21,0,0,0-2-1.42,7.91,7.91,0,0,1-1.56,1.6,13.76,13.76,0,0,1-1.26.9,13.35,13.35,0,0,1,.14-1.54,8.76,8.76,0,0,1,.61-2.16,1.24,1.24,0,0,0,0-1A1.22,1.22,0,0,0,5.55.1,1.2,1.2,0,0,0,5,1.69a8.31,8.31,0,0,1,.6,2.16A13.37,13.37,0,0,1,5.7,5.39a12.65,12.65,0,0,1-1.27-.9,8.18,8.18,0,0,1-1.56-1.6A1.26,1.26,0,0,0,2,2.4a1.21,1.21,0,0,0-.24,2.4,8.25,8.25,0,0,1,2.16.55A12.94,12.94,0,0,1,5.34,6a11.94,11.94,0,0,1-1.41.64,8.78,8.78,0,0,1-2.16.56,1.16,1.16,0,0,0-.84.49A1.2,1.2,0,1,0,2.87,9.1,8.72,8.72,0,0,1,4.43,7.51a13.76,13.76,0,0,1,1.26-.9,11.31,11.31,0,0,1-.15,1.54A8.51,8.51,0,0,1,5,10.3a1.2,1.2,0,1,0,2.2,0,8.14,8.14,0,0,1-.6-2.15A11.31,11.31,0,0,1,6.4,6.61a13.76,13.76,0,0,1,1.26.9A8.72,8.72,0,0,1,9.22,9.1a1.22,1.22,0,0,0,.85.49,1.2,1.2,0,1,0,.25-2.39Z"/></svg>