<svg xmlns="http://www.w3.org/2000/svg" width="16" height="16" fill="currentColor" viewBox="0 0 16 16">
  <path fill-rule="evenodd" d="M2.638 4.122a1.86 1.86 0 0 0 0 2.63l5.973 5.974a2.964 2.964 0 1 0 4.193-4.192l-5.26-5.26a.625.625 0 0 1 .884-.884l5.26 5.26a4.214 4.214 0 1 1-5.96 5.96L1.753 7.637a3.11 3.11 0 0 1 4.398-4.399l5.46 5.461A1.988 1.988 0 0 1 8.8 11.511L4.054 6.764a.625.625 0 1 1 .884-.884l4.747 4.747a.738.738 0 1 0 1.044-1.044l-5.46-5.46a1.86 1.86 0 0 0-2.631 0Z" clip-rule="evenodd"/>
</svg>
