<svg xmlns="http://www.w3.org/2000/svg" width="16" height="16" viewBox="0 0 16 16"><title> attachment</title><g id="Layer_1" data-name="Layer 1"><path d="M13.62,8.07,6.48,1l-1,1,7.13,7.07a3.19,3.19,0,0,1,1,2A2.37,2.37,0,0,1,12.93,13a2.43,2.43,0,0,1-1.87.65A3.21,3.21,0,0,1,9,12.65l-1-.94h0L2.7,6.42a1,1,0,0,1,0-1.36,1,1,0,0,1,1.38,0l6.76,6.7,1-1L5,4.1a2.41,2.41,0,0,0-3.36,0,2.35,2.35,0,0,0,0,3.33L2.27,8h0L8,13.63A4.63,4.63,0,0,0,11,15h.26A3.68,3.68,0,0,0,15,11,4.54,4.54,0,0,0,13.62,8.07Z"/></g></svg>