<svg xmlns="http://www.w3.org/2000/svg" width="20" height="20" fill="currentColor" viewBox="0 0 20 20">
  <path fill-rule="evenodd" d="M3.275 5.13a2.357 2.357 0 0 0 0 3.333l7.467 7.467a3.737 3.737 0 1 0 5.285-5.285L9.452 4.07a.75.75 0 1 1 1.06-1.06l6.575 6.574a5.237 5.237 0 1 1-7.405 7.406L2.215 9.524A3.856 3.856 0 1 1 7.668 4.07l6.826 6.826a2.454 2.454 0 0 1-3.47 3.471L5.088 8.433a.75.75 0 1 1 1.061-1.06l5.934 5.933a.954.954 0 1 0 1.35-1.35L6.607 5.132a2.356 2.356 0 0 0-3.332 0Z" clip-rule="evenodd"/>
</svg>
