<svg xmlns="http://www.w3.org/2000/svg" width="16" height="16" fill="currentColor" viewBox="0 0 16 16">
  <g class="average">
    <path fill-rule="evenodd" d="M15.213 3.404a.625.625 0 0 0-.964-.796L11.624 5.78 10.02 4.44a.745.745 0 0 0-1.052.096l-2.55 3.08-1.603-1.34a.745.745 0 0 0-1.052.096L.813 9.938a.625.625 0 1 0 .964.796l2.625-3.173 1.604 1.341a.745.745 0 0 0 1.052-.097l-.481-.398.481.398 2.55-3.08 1.603 1.34a.745.745 0 0 0 1.052-.096l2.95-3.565ZM1.625 13.375a.625.625 0 1 0 0 1.25h12.727a.625.625 0 1 0 0-1.25H1.625Z" class="Union" clip-rule="evenodd"/>
  </g>
</svg>
