<svg xmlns="http://www.w3.org/2000/svg" width="16" height="16" fill="currentColor" viewBox="0 0 16 16">
  <path fill-rule="evenodd" d="M2.271 1.645a.625.625 0 1 0-1.25 0V14.37a.625.625 0 1 0 1.25 0V1.645Zm9.376 1.977c0 .345-.28.625-.625.625H3.64a.625.625 0 1 1 0-1.25h7.383c.345 0 .625.28.625.625Zm3.321 3.01c0 .346-.28.626-.625.626H3.64a.625.625 0 1 1 0-1.25h10.704c.345 0 .625.28.625.625Zm-5.633 3.63a.625.625 0 1 0 0-1.25H3.64a.625.625 0 1 0 0 1.25h5.696Zm2.6 2.37c0 .345-.28.625-.625.625H3.64a.625.625 0 1 1 0-1.25h7.67c.345 0 .625.28.625.625Z" clip-rule="evenodd"/>
</svg>
