<svg xmlns="http://www.w3.org/2000/svg" width="20" height="20" fill="currentColor" viewBox="0 0 20 20">
  <path fill-rule="evenodd" d="M2.527 2.086a.75.75 0 1 0-1.5 0v15.908a.75.75 0 1 0 1.5 0V2.086ZM14.5 3.739a.75.75 0 0 1-.75.75H4.52a.75.75 0 0 1 0-1.5h9.229a.75.75 0 0 1 .75.75Zm4.197 4.03a.75.75 0 0 1-.75.75H4.566a.75.75 0 1 1 0-1.5h13.38a.75.75 0 0 1 .75.75Zm-7.07 4.759a.75.75 0 0 0 0-1.5h-7.12a.75.75 0 1 0 0 1.5h7.12Zm3.261 3.26a.75.75 0 0 1-.75.75H4.55a.75.75 0 0 1 0-1.5h9.588a.75.75 0 0 1 .75.75Z" clip-rule="evenodd"/>
</svg>
