<svg xmlns="http://www.w3.org/2000/svg" width="16" height="16" fill="currentColor" viewBox="0 0 16 16">
  <path fill-rule="evenodd" d="M6.691 14.916A1.6 1.6 0 0 1 6.403 14h3.2a1.6 1.6 0 0 1-2.912.916ZM4.75 8c0 .194-.045.385-.132.559L3.022 11.75h9.955l-1.595-3.191A1.25 1.25 0 0 1 11.25 8V6c0-1.527-.501-2.423-1.075-2.946-.6-.549-1.406-.802-2.167-.804h-.005c-.762.002-1.57.256-2.174.805-.576.524-1.08 1.42-1.08 2.945v2ZM8 1h.01c2.033.004 4.49 1.343 4.49 5v2l1.796 3.593a.972.972 0 0 1-.87 1.407H2.574a.972.972 0 0 1-.87-1.407L3.5 8V6c0-3.657 2.467-4.996 4.5-5Z" clip-rule="evenodd"/>
</svg>
