<svg xmlns="http://www.w3.org/2000/svg" width="20" height="20" fill="currentColor" viewBox="0 0 20 20">
  <path fill-rule="evenodd" d="m18.164 1.917-16.25 16.25A.938.938 0 0 1 .588 16.84l1.462-1.462a1.2 1.2 0 0 1 .08-.884l2.246-4.491v-2.5c0-4.53 3.027-6.214 5.554-6.25h.153c1.452.021 3.063.585 4.173 1.919L16.838.59a.937.937 0 1 1 1.326 1.326Zm-12.39 8.786-.954 1.905 8.324-8.323a3.54 3.54 0 0 0-.404-.445c-.74-.686-1.732-1.01-2.678-1.023h-.109c-.947.013-1.944.338-2.687 1.025-.71.656-1.328 1.772-1.328 3.662v2.5c0 .242-.056.482-.165.699Z" clip-rule="evenodd"/>
  <path d="m15.618 7.114-1.555 1.555v1.335c0 .242.057.482.165.699l1.995 3.988H8.04l-1.563 1.563h10.306c.904 0 1.491-.95 1.087-1.76l-2.245-4.49v-2.5c0-.132-.003-.262-.008-.39Zm-7.613 10.39a2 2 0 0 0 4 0h-4Z"/>
</svg>
