<svg xmlns="http://www.w3.org/2000/svg" width="20" height="20" fill="currentColor" viewBox="0 0 20 20">
  <path fill-rule="evenodd" d="M8.364 18.645a2 2 0 0 1-.36-1.145h4a2 2 0 0 1-3.64 1.145ZM5.937 10c0 .243-.056.482-.165.699l-1.994 3.989h12.444l-1.995-3.99a1.562 1.562 0 0 1-.165-.698V7.5c0-1.91-.626-3.029-1.343-3.683-.751-.685-1.758-1.002-2.71-1.004h-.006c-.951.002-1.962.319-2.717 1.006-.72.655-1.349 1.774-1.349 3.681V10ZM10 1.25h.012c2.542.005 5.613 1.679 5.613 6.25V10l2.245 4.491a1.215 1.215 0 0 1-1.087 1.759H3.216c-.903 0-1.49-.95-1.087-1.759L4.375 10V7.5c0-4.571 3.083-6.245 5.625-6.25Z" clip-rule="evenodd"/>
</svg>
