<svg xmlns="http://www.w3.org/2000/svg" width="12" height="12" fill="currentColor" viewBox="0 0 12 12">
  <path fill-rule="evenodd" d="m10.898 1.148-9.75 9.75a.562.562 0 1 1-.795-.796l.877-.877a.72.72 0 0 1 .048-.53L2.625 6V4.5c0-2.718 1.817-3.728 3.333-3.75h.092c.87.013 1.838.351 2.504 1.151L10.103.352a.563.563 0 0 1 .795.796ZM3.464 6.419l-.572 1.144 4.995-4.995a2.125 2.125 0 0 0-.243-.266c-.444-.412-1.034-.55-1.602-.557h-.065c-.569.008-1.172.146-1.617.558-.427.394-.732 1.067-.732 2.201v1.5c0 .146-.099.285-.164.415Z" clip-rule="evenodd"/>
  <path d="m9.37 4.266-1.01.92.011.814c0 .146.034.29.1.42l1.257 2.332h-4.91l-.931.998h6.183a.73.73 0 0 0 .653-1.055L9.375 6V4.5c0-.08-.001-.157-.004-.234ZM4.803 10.5a1.2 1.2 0 0 0 2.4 0h-2.4Z"/>
</svg>
