<svg xmlns="http://www.w3.org/2000/svg" width="12" height="12" fill="currentColor" viewBox="0 0 12 12">
  <path fill-rule="evenodd" d="M5.018 11.187a1.2 1.2 0 0 1-.216-.687h2.4a1.2 1.2 0 0 1-2.184.687ZM3.635 6c0 .146-.106.29-.172.42L2.28 8.74l7.443.002L8.5 6.5a1.135 1.135 0 0 1-.124-.458l-.026-1.52c0-1.146-.289-1.84-.719-2.232-.45-.41-1.045-.539-1.615-.54h-.092c-.571.001-1.1.13-1.552.541-.433.393-.737 1.065-.737 2.209V6ZM6 .75h.007C7.532.753 9.375 1.757 9.375 4.5V6l1.347 2.695a.73.73 0 0 1-.652 1.055H1.93a.73.73 0 0 1-.652-1.055L2.625 6V4.5C2.625 1.757 4.475.753 6 .75Z" clip-rule="evenodd"/>
</svg>
