<svg xmlns="http://www.w3.org/2000/svg" width="16" height="16" fill="currentColor" viewBox="0 0 16 16">
  <path fill-rule="evenodd" d="m14.531 1.53-13 13a.75.75 0 0 1-1.06-1.06L1.64 12.3a.96.96 0 0 1 .064-.707L3.501 8V6c0-3.623 2.421-4.97 4.443-5h.123c1.16.017 2.45.468 3.338 1.535L13.47.47a.75.75 0 0 1 1.061 1.06ZM4.62 8.56l-.763 1.525 6.66-6.66a2.829 2.829 0 0 0-.324-.355c-.592-.55-1.387-.81-2.143-.82h-.086c-.758.011-1.556.27-2.15.82C5.245 3.595 4.75 4.488 4.75 6v2c0 .194-.045.385-.132.559Z" clip-rule="evenodd"/>
  <path d="M12.495 5.688 11.25 6.932V8c0 .194.045.385.132.559l1.595 3.191H6.433L5.183 13h8.245a.972.972 0 0 0 .87-1.407L12.5 8V6c0-.106-.002-.21-.006-.312ZM6.404 14a1.6 1.6 0 1 0 3.2 0h-3.2Z"/>
</svg>
