<svg xmlns="http://www.w3.org/2000/svg" width="16" height="16" fill="currentColor" viewBox="0 0 16 16">
  <g class="branches">
    <path fill-rule="evenodd" d="M3.644 1.375c.345 0 .625.28.625.625v7.45a2.63 2.63 0 0 1 1.918 1.898 5.375 5.375 0 0 0 4.804-4.805 2.626 2.626 0 1 1 1.255.013A6.625 6.625 0 0 1 6.2 12.602 2.626 2.626 0 1 1 3.019 9.45V2c0-.345.28-.625.625-.625Zm8 1.25a1.375 1.375 0 1 0 0 2.75 1.375 1.375 0 0 0 0-2.75Zm-8 8a1.375 1.375 0 1 0 0 2.75 1.375 1.375 0 0 0 0-2.75Z" class="Icon (Stroke)" clip-rule="evenodd"/>
  </g>
</svg>
