<svg xmlns="http://www.w3.org/2000/svg" width="20" height="20" fill="currentColor" viewBox="0 0 20 20">
  <g class="branches-20px">
    <path fill-rule="evenodd" d="M4.746 1.771a.75.75 0 0 1 .75.75v9.337a3.255 3.255 0 0 1 2.405 2.381 6.75 6.75 0 0 0 6.063-6.062 3.251 3.251 0 1 1 1.505.014 8.25 8.25 0 0 1-7.554 7.553 3.251 3.251 0 1 1-3.919-3.886V2.521a.75.75 0 0 1 .75-.75Zm10 1.5a1.75 1.75 0 1 0 0 3.5 1.75 1.75 0 0 0 0-3.5Zm-10 10a1.75 1.75 0 1 0 0 3.5 1.75 1.75 0 0 0 0-3.5Z" class="Icon (Stroke)" clip-rule="evenodd"/>
  </g>
</svg>
