<svg width="10" height="15" viewBox="0 0 10 15" xmlns="http://www.w3.org/2000/svg"><title>branch</title><path d="M2.57 12.43c0-.24-.082-.442-.25-.61-.165-.165-.368-.25-.606-.25s-.44.085-.607.25c-.167.168-.25.37-.25.61 0 .237.083.44.25.606.167.166.37.25.607.25.238 0 .44-.084.607-.25.168-.167.25-.37.25-.607zm0-10.287c0-.238-.082-.44-.25-.607-.165-.167-.368-.25-.606-.25s-.44.083-.607.25c-.167.166-.25.37-.25.607 0 .238.083.44.25.607.167.167.37.25.607.25.238 0 .44-.083.607-.25.168-.167.25-.37.25-.607zm5.716 1.143c0-.238-.084-.44-.25-.607-.167-.168-.37-.25-.607-.25-.24 0-.442.082-.61.25-.165.165-.25.368-.25.606s.085.44.25.607c.168.167.37.25.61.25.237 0 .44-.083.606-.25.166-.167.25-.37.25-.607zm.857 0c0 .31-.078.596-.232.86-.154.266-.362.473-.624.622-.012 1.708-.685 2.94-2.018 3.696-.405.226-1.01.468-1.813.723-.762.24-1.266.45-1.513.634-.247.186-.37.484-.37.894v.232c.26.15.47.356.624.62.155.266.233.553.233.863 0 .475-.168.88-.5 1.213-.335.333-.74.5-1.216.5s-.88-.167-1.214-.5c-.333-.333-.5-.738-.5-1.214 0-.31.077-.598.232-.863.155-.265.363-.472.625-.62V3.624c-.262-.15-.47-.356-.625-.62C.077 2.74 0 2.45 0 2.142c0-.476.167-.88.5-1.214.333-.335.738-.5 1.214-.5s.88.165 1.215.5c.332.332.5.737.5 1.213 0 .31-.08.597-.234.86-.154.266-.363.473-.625.622v4.438c.323-.155.78-.325 1.376-.51.328-.1.588-.188.782-.263.193-.074.403-.166.63-.277.225-.11.4-.227.526-.352.125-.124.245-.276.362-.455.116-.178.2-.385.25-.62.05-.235.075-.508.075-.817-.26-.15-.47-.356-.624-.62-.154-.266-.232-.553-.232-.862 0-.476.167-.88.5-1.215.334-.332.738-.5 1.215-.5.475 0 .88.168 1.213.5.333.335.5.74.5 1.216z" fill-rule="evenodd"/></svg>
