<svg xmlns="http://www.w3.org/2000/svg" width="12" height="12" fill="currentColor" viewBox="0 0 12 12">
  <path fill-rule="evenodd" d="M4.878 2.9a1.15 1.15 0 0 1 2.245 0 2.775 2.775 0 0 0-.373-.025h-1.5c-.126 0-.25.009-.372.025Zm-1.025.356a2.15 2.15 0 1 1 4.295 0c.308.183.578.423.793.707l1.484-.803a.5.5 0 0 1 .476.88l-1.51.817c.071.244.109.501.109.768v.625h1.675a.5.5 0 0 1 0 1H9.5v.25c0 .345-.05.679-.143.994l1.556.898a.5.5 0 1 1-.5.866l-1.477-.852A3.497 3.497 0 0 1 6 11a3.497 3.497 0 0 1-2.937-1.595l-1.478.853a.5.5 0 0 1-.5-.866l1.558-.9A3.5 3.5 0 0 1 2.5 7.5v-.25H.825a.5.5 0 0 1 0-1H2.5v-.625c0-.267.038-.524.109-.768L1.097 4.04a.5.5 0 1 1 .476-.88l1.486.803c.215-.284.485-.525.794-.707ZM3.5 5.625c0-.966.784-1.75 1.75-1.75h1.5c.966 0 1.75.784 1.75 1.75V7.5a2.5 2.5 0 0 1-5 0V5.625Z" clip-rule="evenodd"/>
</svg>
