<svg width="16" height="16" viewBox="0 0 16 16" fill="currentColor" xmlns="http://www.w3.org/2000/svg">
    <path fill-rule="evenodd" clip-rule="evenodd" d="M8.00078 2.625C7.2278 2.625 6.58488 3.18184 6.45127 3.91626C6.63022 3.88909 6.81346 3.875 7 3.875H9C9.18709 3.875 9.37088 3.88917 9.55034 3.91651C9.41682 3.18196 8.77385 2.625 8.00078 2.625ZM5.17578 4.2C5.17578 4.25506 5.17736 4.30976 5.18047 4.36404C4.75412 4.61195 4.38294 4.94431 4.08986 5.33821L2.07708 4.25029C1.77342 4.08616 1.3942 4.19927 1.23007 4.50293C1.06594 4.80659 1.17905 5.18581 1.48271 5.34994L3.5278 6.45532C3.42841 6.78613 3.375 7.13683 3.375 7.5V8.37512H1.09961C0.754432 8.37512 0.474609 8.65494 0.474609 9.00012C0.474609 9.3453 0.754431 9.62512 1.09961 9.62512H3.375V10C3.375 10.4671 3.44425 10.9181 3.57305 11.3432L1.46739 12.5589C1.16846 12.7315 1.06604 13.1137 1.23863 13.4126C1.41122 13.7116 1.79346 13.814 2.09239 13.6414L4.09773 12.4836C4.91888 13.7711 6.35972 14.625 8 14.625C8.17481 14.625 8.34736 14.6153 8.51713 14.5964C8.31736 14.2177 8.17004 13.807 8.08482 13.374C8.05663 13.3747 8.02835 13.375 8 13.375C6.13604 13.375 4.625 11.864 4.625 10V7.5C4.625 6.18832 5.68832 5.125 7 5.125H9C10.3117 5.125 11.375 6.18832 11.375 7.5V8.14177C11.7346 8.04922 12.1115 8 12.5 8C12.5418 8 12.5835 8.00057 12.625 8.0017V7.5C12.625 7.13674 12.5716 6.78597 12.4721 6.4551L14.5145 5.34966C14.8181 5.18536 14.931 4.80607 14.7666 4.50251C14.6023 4.19895 14.2231 4.08605 13.9195 4.25036L11.91 5.33801C11.6173 4.94466 11.2467 4.6127 10.821 4.36492C10.8242 4.31035 10.8258 4.25536 10.8258 4.2C10.8258 2.6398 9.56099 1.375 8.00078 1.375C6.44058 1.375 5.17578 2.6398 5.17578 4.2Z"/>
    <path class="secondary" fill-rule="evenodd" clip-rule="evenodd" d="M12.4922 9.5013C12.4922 9.22461 12.2663 8.99673 11.9925 9.03651C10.3 9.28236 9 10.7394 9 12.5C9 14.433 10.567 16 12.5 16C14.2622 16 15.7202 14.6977 15.9641 13.003C16.0035 12.7294 15.7758 12.5039 15.4993 12.5039C15.2234 12.5039 15.0049 12.7296 14.95 13C14.7184 14.1411 13.7095 15 12.5 15C11.1193 15 10 13.8807 10 12.5C10 11.2916 10.8573 10.2835 11.9968 10.0506C12.2669 9.99544 12.4922 9.77697 12.4922 9.5013Z"/>
</svg>
