<svg xmlns="http://www.w3.org/2000/svg" width="20" height="20" fill="currentColor" viewBox="0 0 20 20">
  <path fill-rule="evenodd" d="M8.026 4.933a2 2 0 0 1 3.95 0 4.53 4.53 0 0 0-.726-.058h-2.5c-.246 0-.488.02-.724.058Zm-1.518.54a3.5 3.5 0 1 1 6.986.001 4.524 4.524 0 0 1 1.385 1.239l2.535-1.373a.75.75 0 1 1 .714 1.32l-2.575 1.393c.128.418.197.862.197 1.322V10.5h2.875a.75.75 0 0 1 0 1.5H15.75v.5c0 .59-.089 1.16-.254 1.695l2.65 1.53a.75.75 0 0 1-.75 1.3l-2.53-1.461A5.746 5.746 0 0 1 10 18.25a5.746 5.746 0 0 1-4.867-2.688L2.6 17.026a.75.75 0 0 1-.75-1.3l2.653-1.531A5.749 5.749 0 0 1 4.25 12.5V12H1.375a.75.75 0 0 1 0-1.5H4.25V9.375c0-.46.069-.903.197-1.321L1.868 6.66a.75.75 0 0 1 .713-1.32l2.54 1.373c.37-.503.843-.927 1.387-1.24ZM5.75 9.374a3 3 0 0 1 3-3h2.5a3 3 0 0 1 3 3V12.5a4.25 4.25 0 0 1-8.5 0V9.375Z" clip-rule="evenodd"/>
</svg>
