<svg width="16" height="16" viewBox="0 0 16 16" fill="currentColor" xmlns="http://www.w3.org/2000/svg">
    <path fill-rule="evenodd" clip-rule="evenodd" d="M8.00078 2.625C7.2278 2.625 6.58488 3.18184 6.45127 3.91626C6.63022 3.88909 6.81346 3.875 7 3.875H9C9.18709 3.875 9.37088 3.88917 9.55034 3.91651C9.41682 3.18196 8.77385 2.625 8.00078 2.625ZM5.17578 4.2C5.17578 4.25506 5.17736 4.30976 5.18047 4.36404C4.75412 4.61195 4.38294 4.94431 4.08986 5.33821L2.07708 4.25029C1.77342 4.08616 1.3942 4.19927 1.23007 4.50293C1.06594 4.80659 1.17905 5.18581 1.48271 5.34994L3.5278 6.45532C3.42841 6.78613 3.375 7.13683 3.375 7.5V8.37512H1.09961C0.754432 8.37512 0.474609 8.65494 0.474609 9.00012C0.474609 9.3453 0.754431 9.62512 1.09961 9.62512H3.375V10C3.375 10.4671 3.44425 10.9181 3.57305 11.3432L1.46739 12.5589C1.16846 12.7315 1.06604 13.1137 1.23863 13.4126C1.41122 13.7116 1.79346 13.814 2.09239 13.6414L4.09773 12.4836C4.91888 13.7711 6.35972 14.625 8 14.625C8.34336 14.625 8.67798 14.5876 9 14.5166V13.2244C8.68401 13.3223 8.34816 13.375 8 13.375C6.13604 13.375 4.625 11.864 4.625 10V7.5C4.625 6.18832 5.68832 5.125 7 5.125H9C10.3117 5.125 11.375 6.18832 11.375 7.5V8H12.625V7.5C12.625 7.13674 12.5716 6.78597 12.4721 6.4551L14.5145 5.34966C14.8181 5.18536 14.931 4.80607 14.7666 4.50251C14.6023 4.19895 14.2231 4.08605 13.9195 4.25036L11.91 5.33801C11.6173 4.94466 11.2467 4.6127 10.821 4.36492C10.8242 4.31035 10.8258 4.25536 10.8258 4.2C10.8258 2.6398 9.56099 1.375 8.00078 1.375C6.44058 1.375 5.17578 2.6398 5.17578 4.2Z"/>
    <path class="secondary" fill-rule="evenodd" clip-rule="evenodd" d="M11.0032 10.1359L11.0032 10.6118L11.0032 10.6415C11.0031 10.6717 11.0031 10.6927 11.0034 10.7119L11.0035 10.7189C11.0085 10.7245 11.0145 10.731 11.0217 10.7387C11.0354 10.7535 11.0499 10.7685 11.0704 10.7897L11.0921 10.8123L11.9099 11.664C12.1164 11.8791 12.2339 12.1823 12.2339 12.5C12.2339 12.8177 12.1164 13.1209 11.9099 13.336L11.0911 14.1888L11.0709 14.2098C11.0504 14.2309 11.0354 14.2465 11.0217 14.2613C11.0145 14.269 11.0085 14.2755 11.0035 14.2811L11.0034 14.2881C11.0031 14.3073 11.0031 14.3274 11.0032 14.3576L11.0032 14.3899L11.0032 14.8641H13.9968L13.9968 14.3882L13.9968 14.3585C13.9969 14.3283 13.9969 14.3073 13.9966 14.2881L13.9965 14.2811C13.9915 14.2755 13.9855 14.269 13.9783 14.2613C13.9646 14.2465 13.9501 14.2315 13.9296 14.2103L13.9079 14.1877L13.0901 13.336C12.8836 13.1209 12.7661 12.8177 12.7661 12.5C12.7661 12.1823 12.8836 11.8791 13.0901 11.664L13.9089 10.8112L13.9291 10.7902C13.9496 10.7691 13.9646 10.7535 13.9783 10.7387C13.9855 10.731 13.9915 10.7245 13.9965 10.7189L13.9966 10.7119C13.9969 10.6927 13.9969 10.6726 13.9968 10.6424L13.9968 10.6101L13.9968 10.1359H11.0032ZM14.8429 11.3384C14.7758 11.4525 14.6856 11.5461 14.6072 11.6273L14.587 11.6483L13.7692 12.5L14.587 13.3517L14.6072 13.3727C14.6856 13.4539 14.7758 13.5475 14.8429 13.6616C14.9013 13.7609 14.9444 13.8691 14.9705 13.9823C15.0005 14.1124 15.0002 14.245 15 14.3602L14.9999 14.3899L14.9999 15.0227C14.9999 15.0948 15 15.1765 14.9944 15.2477C14.988 15.3292 14.9719 15.441 14.915 15.5572C14.8404 15.7098 14.7213 15.8339 14.5748 15.9116C14.4632 15.9708 14.3558 15.9876 14.2776 15.9942C14.2092 16 14.1308 16 14.0615 16H10.9385C10.8692 16 10.7908 16 10.7224 15.9942C10.6442 15.9876 10.5368 15.9708 10.4252 15.9116M10.4252 15.9116C10.2787 15.8339 10.1596 15.7098 10.085 15.5572C10.0281 15.441 10.012 15.3292 10.0056 15.2477C10 15.1765 10.0001 15.0948 10.0001 15.0227L10.0001 14.3899L10 14.3602C9.99981 14.245 9.99953 14.1124 10.0295 13.9824C10.0556 13.8691 10.0987 13.7609 10.1571 13.6616C10.2242 13.5475 10.3144 13.4539 10.3928 13.3727L10.413 13.3517L11.2308 12.5L10.413 11.6483L10.3928 11.6273C10.3144 11.5461 10.2242 11.4525 10.1571 11.3384C10.0987 11.2391 10.0556 11.1309 10.0295 11.0177C9.99953 10.8876 9.99981 10.755 10 10.6398L10.0001 10.6101L10.0001 9.97734C10.0001 9.90518 10 9.82354 10.0056 9.7523C10.012 9.67081 10.0281 9.559 10.085 9.44281C10.1596 9.29021 10.2787 9.16615 10.4252 9.0884C10.5368 9.0292 10.6442 9.01244 10.7224 9.00578C10.7907 8.99997 10.8692 8.99999 10.9384 9H14.0615C14.1308 8.99999 14.2093 8.99997 14.2776 9.00578C14.3558 9.01244 14.4632 9.0292 14.5748 9.0884C14.7213 9.16615 14.8404 9.29021 14.915 9.44281C14.9719 9.559 14.988 9.67081 14.9944 9.7523C15 9.82353 14.9999 9.90519 14.9999 9.97735L14.9999 10.6101L15 10.6398C15.0002 10.755 15.0005 10.8876 14.9705 11.0177C14.9444 11.1309 14.9013 11.2391 14.8429 11.3384"/>
</svg>
