<?xml version="1.0" encoding="UTF-8" standalone="no"?>
<svg width="14px" height="14px" viewBox="0 0 14 14" version="1.1" xmlns="http://www.w3.org/2000/svg" xmlns:xlink="http://www.w3.org/1999/xlink">
    <title>bug</title>
    <g stroke="none" stroke-width="1">
        <path d="M6.87675789,13.9411762 C9.37399173,13.9411762 11.3983997,11.381987 11.3983997,8.22506701 C11.3983997,6.67026661 10.907356,5.26045275 10.1106251,4.22994706 C9.28964622,3.16807871 4.5468835,3.12126842 3.73322307,4.11633658 C2.88343831,5.15558306 2.35511604,6.61232829 2.35511604,8.22506701 C2.35511604,11.381987 4.37952405,13.9411762 6.87675789,13.9411762 L6.87675789,13.9411762 Z M12.4337585,12.0911154 C12.5485314,11.8723975 12.4792466,11.5919788 12.2800924,11.4654721 L10.8433806,10.552845 C10.6437403,10.4260297 10.3896582,10.4990065 10.2740852,10.7192492 C10.1593123,10.937967 10.228597,11.2183857 10.4277512,11.3448924 L11.8644631,12.2575195 C12.0641034,12.3843349 12.3181854,12.3113581 12.4337585,12.0911154 L12.4337585,12.0911154 Z M1.43290756,12.0911154 C1.31813468,11.8723975 1.3874194,11.5919788 1.58657366,11.4654721 L3.02328546,10.552845 C3.22292578,10.4260297 3.47700784,10.4990065 3.59258089,10.7192492 C3.70735377,10.937967 3.63806905,11.2183857 3.43891479,11.3448924 L2.00220299,12.2575195 C1.80256267,12.3843349 1.54848061,12.3113581 1.43290756,12.0911154 L1.43290756,12.0911154 Z M13.933333,8.45371138 C13.933333,8.20115778 13.7128846,7.99642264 13.442422,7.99642264 L11.4912872,7.99642264 C11.2201645,7.99642264 11.0003762,8.19939701 11.0003762,8.45371138 C11.0003762,8.70626497 11.2208246,8.91100012 11.4912872,8.91100012 L13.442422,8.91100012 C13.7135447,8.91100012 13.933333,8.70802572 13.933333,8.45371138 L13.933333,8.45371138 Z M-0.0666669752,8.45371138 C-0.0666669752,8.20115778 0.153781493,7.99642264 0.424244063,7.99642264 L2.37537886,7.99642264 C2.64650154,7.99642264 2.8662899,8.19939701 2.8662899,8.45371138 C2.8662899,8.70626497 2.64584143,8.91100012 2.37537886,8.91100012 L0.424244063,8.91100012 C0.153121383,8.91100012 -0.0666669752,8.70802572 -0.0666669752,8.45371138 L-0.0666669752,8.45371138 Z M0.561655516,4.59568382 L2.44630702,5.06809437 C2.7081914,5.13373883 2.86433399,5.38301241 2.79397316,5.6286612 C2.72409944,5.87260924 2.45451877,6.01699302 2.19327199,5.95150838 L0.308620479,5.47909783 C0.0467361001,5.41345337 -0.109406483,5.16417979 -0.0390456538,4.918531 C0.0308280598,4.67458296 0.300408738,4.53019919 0.561655516,4.59568382 Z M13.9057117,4.918531 C13.835838,4.67458296 13.5662573,4.53019919 13.3050105,4.59568382 L11.420359,5.06809437 C11.1584746,5.13373883 11.0023321,5.38301241 11.0726929,5.6286612 C11.1425666,5.87260924 11.4121473,6.01699302 11.6733941,5.95150838 L13.5580456,5.47909783 C13.81993,5.41345337 13.9760725,5.16417979 13.9057117,4.918531 L13.9057117,4.918531 Z M4.95909942,2.29898655 C5.28539356,2.92748129 8.65802186,2.95744845 9.00353611,2.36315491 C9.1288865,2.14754901 9.19868208,1.90813313 9.19868208,1.65600902 C9.19868208,0.708933038 8.21383493,-0.0588237514 6.99896442,-0.0588237514 C5.78409392,-0.0588237514 4.79924677,0.708933038 4.79924677,1.65600902 C4.79924677,1.88338503 4.85601278,2.10042517 4.95909942,2.29898655 L4.95909942,2.29898655 Z"></path>
    </g>
</svg>