<svg xmlns="http://www.w3.org/2000/svg" viewBox="0 0 16 16"><path d="M14.33,12.2A.75.75,0,0,0,13.8,12H12.36A11.2,11.2,0,0,0,13,8.54l.84,0a.77.77,0,0,0,.52-.22L16,6.61,14.93,5.55,13.46,7h-.52c0-.57,0-1.17-.07-1.43A.75.75,0,0,0,12.12,5h-.86a5.39,5.39,0,0,0-.49-1.2l2.48-2.48L12.19.21,9.82,2.57A2.8,2.8,0,0,0,8,1.86a2.84,2.84,0,0,0-1.83.71L3.8.21,2.74,1.27,5.22,3.75A5.39,5.39,0,0,0,4.73,5H3.86a.74.74,0,0,0-.74.66c0,.25-.05.85-.07,1.43H2.54L1.07,5.55,0,6.61,1.69,8.3a.77.77,0,0,0,.52.22l.83,0A11.2,11.2,0,0,0,3.63,12H2.2a.75.75,0,0,0-.53.22L0,13.88l1.06,1.06,1.46-1.46H4.33A4.4,4.4,0,0,0,8,16a4.4,4.4,0,0,0,3.66-2.47h1.83L15,14.94,16,13.88ZM8,14.45c-1.88,0-3.46-2.82-3.46-6.16,0-.37,0-1.22,0-1.84h6.85c0,.62,0,1.47,0,1.84C11.46,11.63,9.87,14.45,8,14.45Z"/></svg>