<svg xmlns="http://www.w3.org/2000/svg" width="16" height="16" fill="currentColor" viewBox="0 0 16 16">
  <path fill-rule="evenodd" d="M6.451 3.916a1.575 1.575 0 0 1 3.1 0A3.652 3.652 0 0 0 9 3.876H7c-.187 0-.37.014-.549.041Zm-1.27.448a2.825 2.825 0 1 1 5.64 0c.426.249.796.58 1.089.974l2.01-1.088a.625.625 0 1 1 .595 1.1l-2.043 1.105c.1.331.153.682.153 1.045v.875H14.9a.625.625 0 1 1 0 1.25h-2.275V10c0 .468-.07.92-.198 1.345l2.102 1.214a.625.625 0 1 1-.625 1.082l-2.003-1.156A4.621 4.621 0 0 1 8 14.625a4.622 4.622 0 0 1-3.902-2.141L2.092 13.64a.625.625 0 1 1-.625-1.082l2.106-1.216A4.625 4.625 0 0 1 3.375 10v-.375H1.1a.625.625 0 1 1 0-1.25h2.275V7.5c0-.363.053-.714.153-1.045L1.483 5.35a.625.625 0 0 1 .594-1.1L4.09 5.338a3.643 3.643 0 0 1 1.09-.974ZM4.624 7.5A2.375 2.375 0 0 1 7 5.125h2A2.375 2.375 0 0 1 11.375 7.5V10a3.375 3.375 0 1 1-6.75 0V7.5Z" clip-rule="evenodd"/>
</svg>
