<svg xmlns="http://www.w3.org/2000/svg" width="16" height="16" viewBox="0 0 16 16"><g><path d="M14.5,10.8H12.65c0-.16,0-.31,0-.48V8.2H14.5a.7.7,0,0,0,.61-.36L16,6.23l-1.22-.68-.7,1.25h-1.4V5.32a.7.7,0,0,0-.7-.7H11v0a2.66,2.66,0,0,0-.18-.94l2.31-2.32-1-1L10,2.53A2.58,2.58,0,0,0,8.4,2H7.6a2.62,2.62,0,0,0-1.41.42L4.12.35l-1,1L5.27,3.47A2.58,2.58,0,0,0,5,4.6v0H4a.7.7,0,0,0-.7.7V6.8H1.91l-.7-1.25L0,6.23.88,7.84a.71.71,0,0,0,.61.36H3.3v2.12a3.71,3.71,0,0,0,.05.48H1.49a.71.71,0,0,0-.61.36L0,12.77l1.22.68.7-1.25H3.7a4.69,4.69,0,0,0,8.6,0h1.79l.7,1.25L16,12.77l-.9-1.61A.7.7,0,0,0,14.5,10.8Zm-3.21-.48a3.3,3.3,0,1,1-6.59,0V6h6.59Z"/></g></svg>