<svg xmlns="http://www.w3.org/2000/svg" width="16" height="16" fill="currentColor" viewBox="0 0 16 16">
  <path fill="none" class="secondary" fill-rule="evenodd" d="m3.437 8.564.063-.06c.307.307.732.496 1.2.496h1.6A1.7 1.7 0 0 0 8 7.3V2.68l.625-.624a1.457 1.457 0 0 1 2.059 0l4.89 4.882c.559.56.568 1.46.026 2.03a4.7 4.7 0 0 0-7.763 4.123L3.735 8.993a1.45 1.45 0 0 1-.298-.43v.001Z" clip-rule="evenodd"/>
  <path fill-rule="evenodd" d="m.407 8.975.02.02 5.22 5.213a1.46 1.46 0 0 0 2.058 0l.307-.307a4.698 4.698 0 0 1-.099-2.43L5.44 9H4.7c-.468 0-.892-.19-1.2-.496l-.063.06c.07.156.17.303.299.431l3.745 3.74-.624.624c-.1.1-.262.1-.362 0L2.13 9H.7c-.1 0-.198-.009-.293-.025ZM8 4.375V2.02l.33.33.295-.294a1.458 1.458 0 0 1 2.058 0l4.89 4.883c.56.559.569 1.46.027 2.03-.308-.27-.65-.5-1.016-.682l.14-.139a.257.257 0 0 0 0-.361L9.835 2.904c-.1-.1-.262-.1-.362 0L8 4.375Zm6.975 10.6a3.5 3.5 0 1 0-4.95-4.95 3.5 3.5 0 0 0 4.95 4.95Zm-2.829-4.829A.5.5 0 0 1 13 10.5v2a.5.5 0 0 1-1 0v-2a.5.5 0 0 1 .146-.354Zm.708 4.708a.5.5 0 1 1-.708-.708.5.5 0 0 1 .708.708Z" clip-rule="evenodd"/>
  <path class="tertiary" fill-rule="evenodd" d="M.7 0a.7.7 0 0 0-.7.7v6.6a.7.7 0 0 0 .7.7h1.6a.7.7 0 0 0 .7-.7V.7a.7.7 0 0 0-.7-.7H.7ZM1 7V1h1v6H1Zm3.7-7a.7.7 0 0 0-.7.7v6.6a.7.7 0 0 0 .7.7h1.6a.7.7 0 0 0 .7-.7V.7a.7.7 0 0 0-.7-.7H4.7ZM5 7V1h1v6H5Z" clip-rule="evenodd"/>
</svg>
