<svg xmlns="http://www.w3.org/2000/svg" width="20" height="20" fill="currentColor" viewBox="0 0 20 20">
  <path d="M2.87 9.711 9.71 2.87c.16-.16.418-.16.578 0l5.527 5.527a4.106 4.106 0 0 1 2.671.636 1.91 1.91 0 0 0-.296-.382l-6.84-6.842a1.908 1.908 0 0 0-2.698 0L1.809 8.65a1.908 1.908 0 0 0 0 2.698l6.842 6.842a1.909 1.909 0 0 0 2.224.347v-1.994l-.586.587a.408.408 0 0 1-.578 0L2.87 10.289a.408.408 0 0 1 0-.578Z"/>
  <path fill-rule="evenodd" d="M18.75 13.75V12.5a2.5 2.5 0 0 0-5 0v1.25c-.69 0-1.25.56-1.25 1.25v3.75c0 .69.56 1.25 1.25 1.25h5c.69 0 1.25-.56 1.25-1.25V15c0-.69-.56-1.25-1.25-1.25ZM15 12.5a1.25 1.25 0 1 1 2.5 0v1.25H15V12.5Zm-1.25 6.25V15h5v3.75h-5Z" clip-rule="evenodd"/>
  <path fill="none" class="secondary" d="M13.75 15h5v3.75h-5z"/>
</svg>
