<svg xmlns="http://www.w3.org/2000/svg" width="12" height="12" fill="currentColor" viewBox="0 0 12 12">
  <path fill="none" class="secondary" fill-rule="evenodd" d="m2.94 6.883 2.825 2.822a3.625 3.625 0 0 1 6-3.055 1.09 1.09 0 0 0-.085-1.446L8.013 1.542a1.093 1.093 0 0 0-1.544 0l-.219.218v3.715C6.25 6.317 5.567 7 4.725 7h-1.2c-.201 0-.4-.04-.586-.117h.001Z" clip-rule="evenodd"/>
  <path fill-rule="evenodd" d="M1.725 7c.076 0 .15-.006.223-.016v-.001l2.994 2.99a.092.092 0 0 0 .13 0l.468-.467-2.645-2.642c.198.09.413.136.63.136h.832l1.5 1.497c-.167.67-.14 1.373.079 2.027l-.156.156a1.094 1.094 0 0 1-1.546 0L.549 7h1.176Zm5.406-4.77-.881.88V1.785l.219-.219a1.094 1.094 0 0 1 1.543 0l3.668 3.662a1.09 1.09 0 0 1 .097 1.432 3.628 3.628 0 0 0-.783-.529l.023-.023a.152.152 0 0 0 0-.216l-.001-.002L7.35 2.23a.156.156 0 0 0-.219 0Zm4.683 8.149c-.136.32-.334.61-.583.852v.001A2.625 2.625 0 1 1 7.518 7.52a2.625 2.625 0 0 1 4.296 2.859ZM9.302 7.508A.375.375 0 0 0 9 7.875v1.5a.375.375 0 0 0 .75 0v-1.5a.375.375 0 0 0-.448-.367Zm.216 3.719a.376.376 0 1 0-.306-.686.376.376 0 0 0 .306.686Z" clip-rule="evenodd"/>
  <path class="tertiary" fill-rule="evenodd" d="M.525 0A.525.525 0 0 0 0 .525v4.95C0 5.765.235 6 .525 6h1.2c.29 0 .525-.235.525-.525V.525A.525.525 0 0 0 1.725 0h-1.2ZM.75 5.25V.75h.75v4.5H.75ZM3.525 0A.525.525 0 0 0 3 .525v4.95c0 .29.235.525.525.525h1.2c.29 0 .525-.235.525-.525V.525A.525.525 0 0 0 4.725 0h-1.2Zm.225 5.25V.75h.75v4.5h-.75Z" clip-rule="evenodd"/>
</svg>
