<svg xmlns="http://www.w3.org/2000/svg" width="20" height="20" fill="currentColor" viewBox="0 0 20 20">
  <path fill="none" class="secondary" d="M8.65 1.809a1.908 1.908 0 0 1 2.699 0l6.843 6.842a1.908 1.908 0 0 1 0 2.698l-.685.684c-1.17-1.19-3.238-1.022-4.154.503L10.35 17.54a2.43 2.43 0 0 0-.352 1.21 1.9 1.9 0 0 1-1.348-.557L1.808 11.35a1.908 1.908 0 0 1 0-2.698L8.65 1.809Z"/>
  <path fill-rule="evenodd" d="M14.424 13.18a1.4 1.4 0 0 1 2.401 0l3.001 5.003A1.2 1.2 0 0 1 18.798 20h-6.346a1.2 1.2 0 0 1-1.03-1.817l3.002-5.002Zm1.2 4.32a.625.625 0 1 0 .002 1.25.625.625 0 0 0-.001-1.25Zm0-3.75a.625.625 0 0 0-.624.625v1.25a.625.625 0 0 0 1.25 0v-1.25a.625.625 0 0 0-.625-.625Z" clip-rule="evenodd"/>
  <path d="M8.65 1.808a1.91 1.91 0 0 1 2.7 0l6.84 6.842a1.91 1.91 0 0 1 0 2.7l-.684.683a2.611 2.611 0 0 0-1.386-.736l1.01-1.01a.408.408 0 0 0 0-.575l-6.843-6.843a.408.408 0 0 0-.576 0L2.869 9.712a.408.408 0 0 0 0 .576l6.843 6.843a.407.407 0 0 0 .576 0l.77-.77-.707 1.179c-.234.39-.344.804-.351 1.21-.427 0-.855-.143-1.204-.428l-.146-.13-6.842-6.842a1.91 1.91 0 0 1 0-2.7L8.65 1.808Z"/>
</svg>
