<svg xmlns="http://www.w3.org/2000/svg" width="16" height="16" fill="currentColor" viewBox="0 0 16 16">
  <path fill="none" class="secondary" d="M8.625 2.056a1.457 1.457 0 0 1 2.058 0l4.89 4.883a1.452 1.452 0 0 1 0 2.055L14.4 10.166l-.082-.136c-.823-1.372-2.812-1.373-3.636 0l-2.213 3.69-4.733-4.726a1.452 1.452 0 0 1 0-2.055l4.89-4.883Z"/>
  <path fill-rule="evenodd" d="M11.54 10.545a1.12 1.12 0 0 1 1.92 0l2.4 4A.96.96 0 0 1 15.037 16H9.961a.96.96 0 0 1-.823-1.454l2.401-4.001ZM12.5 14a.5.5 0 1 0 .002 1 .5.5 0 0 0-.002-1Zm0-3a.5.5 0 0 0-.5.5v1a.5.5 0 0 0 1 0v-1a.5.5 0 0 0-.5-.5Z" clip-rule="evenodd"/>
  <path d="M5.646 1.727a1.46 1.46 0 0 1 2.06 0l.624.623-.885.883-.624-.623a.206.206 0 0 0-.29 0L1.31 7.821c-.08.08-.08.21 0 .291l5.22 5.211c.08.08.21.08.29 0l.623-.624-3.709-3.704a1.454 1.454 0 0 1-.1-1.946l.1-.112 4.89-4.88.11-.1a1.46 1.46 0 0 1 1.95.1l4.888 4.88.1.11a1.455 1.455 0 0 1 0 1.838l-.1.11-1.174 1.172-.082-.137a2.105 2.105 0 0 0-.785-.764l1.156-1.154c.08-.08.08-.21 0-.29L9.8 2.938a.207.207 0 0 0-.291 0L4.62 7.821a.206.206 0 0 0 0 .291l4.51 4.503-.662 1.106-.138-.138-.624.624-.11.1a1.46 1.46 0 0 1-1.95-.1L.426 8.996a1.455 1.455 0 0 1-.1-1.947l.1-.112 5.22-5.21Z"/>
</svg>
