<svg xmlns="http://www.w3.org/2000/svg" width="16" height="16" fill="currentColor" viewBox="0 0 16 16">
  <path fill="none" class="secondary" d="M1.35 9h.95c.468 0 .893-.19 1.2-.496.307.307.732.496 1.2.496h1.6A1.7 1.7 0 0 0 8 7.3V1c.411 0 .822.157 1.136.47l5.394 5.394a1.606 1.606 0 0 1 0 2.272L9.136 14.53a1.606 1.606 0 0 1-2.272 0L1.47 9.136A1.624 1.624 0 0 1 1.35 9Z"/>
  <path d="M1.35 9c.037.047.077.092.12.136l5.394 5.394a1.606 1.606 0 0 0 2.272 0l5.394-5.394a1.606 1.606 0 0 0 0-2.272L9.136 1.47A1.601 1.601 0 0 0 8 1v1.25c.091 0 .182.035.252.104l5.394 5.394a.357.357 0 0 1 0 .504l-5.394 5.394a.356.356 0 0 1-.504 0L2.967 8.864C2.762 8.952 2.537 9 2.3 9h-.95Z"/>
  <path class="tertiary" fill-rule="evenodd" d="M.7 0a.7.7 0 0 0-.7.7v6.6a.7.7 0 0 0 .7.7h1.6a.7.7 0 0 0 .7-.7V.7a.7.7 0 0 0-.7-.7H.7ZM1 7V1h1v6H1Zm3.7-7a.7.7 0 0 0-.7.7v6.6a.7.7 0 0 0 .7.7h1.6a.7.7 0 0 0 .7-.7V.7a.7.7 0 0 0-.7-.7H4.7ZM5 7V1h1v6H5Z" clip-rule="evenodd"/>
</svg>
