<svg xmlns="http://www.w3.org/2000/svg" width="16" height="16" fill="currentColor" viewBox="0 0 16 16">
  <path fill="none" class="secondary" d="m3.437 8.564.063-.06c.308.307.732.496 1.2.496h1.6A1.7 1.7 0 0 0 8 7.3V2.68l.625-.624a1.457 1.457 0 0 1 2.059 0l4.89 4.882a1.452 1.452 0 0 1 0 2.056l-4.89 4.883a1.457 1.457 0 0 1-2.06 0L3.736 8.994a1.45 1.45 0 0 1-.298-.43Z"/>
  <path fill-rule="evenodd" d="m8.624 13.876.001.002a1.459 1.459 0 0 0 2.06-.002l4.888-4.88a1.453 1.453 0 0 0 0-2.058l-4.889-4.882a1.459 1.459 0 0 0-2.06 0l-.293.293L8 2.02v2.427L9.508 2.94c.08-.08.211-.08.292 0l4.888 4.88.001.002a.206.206 0 0 1 0 .29l-4.89 4.88a.206.206 0 0 1-.29 0L5.508 9H4.7a1.693 1.693 0 0 1-1.2-.496 1.7 1.7 0 0 1-.063.06l.001.002c.07.156.17.301.298.43l3.71 3.704-.624.623a.206.206 0 0 1-.292 0L2.2 9H.7a1.713 1.713 0 0 1-.293-.025l.02.02 5.219 5.212h.001c.569.567 1.49.567 2.058 0h.001l.623-.622.001-.002.294.293Z" clip-rule="evenodd"/>
  <path class="tertiary" fill-rule="evenodd" d="M.7 0a.7.7 0 0 0-.7.7v6.6a.7.7 0 0 0 .7.7h1.6a.7.7 0 0 0 .7-.7V.7a.7.7 0 0 0-.7-.7H.7ZM1 7V1h1v6H1Zm3.7-7a.7.7 0 0 0-.7.7v6.6a.7.7 0 0 0 .7.7h1.6a.7.7 0 0 0 .7-.7V.7a.7.7 0 0 0-.7-.7H4.7ZM5 7V1h1v6H5Z" clip-rule="evenodd"/>
</svg>
