<svg xmlns="http://www.w3.org/2000/svg" width="16" height="16" fill="currentColor" viewBox="0 0 16 16">
  <path fill-rule="evenodd" d="M1.216 3.286a.728.728 0 0 0 .534.214h12.5a.72.72 0 0 0 .534-.219.734.734 0 0 0 .216-.535.72.72 0 0 0-.216-.532A.728.728 0 0 0 14.25 2H1.75a.72.72 0 0 0-.534.219.734.734 0 0 0-.216.535.72.72 0 0 0 .216.532Zm11.83 11.126L11.99 16 8 10h7.98L15 11.473l-1.954 2.94ZM2.5 15c-.413 0-.766-.147-1.06-.44A1.445 1.445 0 0 1 1 13.5v-7c0-.412.147-.766.44-1.06.294-.293.647-.44 1.06-.44h11c.412 0 .766.147 1.06.44.293.294.44.647.44 1.06V9h-1.5V6.5h-11v7h6.626l.998 1.5H2.5Z" clip-rule="evenodd"/>
</svg>
