<svg width="16" height="16" viewBox="0 0 16 16" fill="currentColor" xmlns="http://www.w3.org/2000/svg">
  <path fill="none" class="secondary" d="M8.62451 2.05566C9.19307 1.48794 10.1145 1.48798 10.6831 2.05566L15.5728 6.93848C16.06 7.42506 16.1278 8.16883 15.7798 8.72949C14.863 7.67066 13.51 7 11.9995 7C9.23817 7.0001 6.99951 9.23864 6.99951 12C6.99952 12.0875 7.00191 12.1744 7.00635 12.2607L3.73486 8.99414C3.16632 8.42643 3.16639 7.50623 3.73486 6.93848L8.62451 2.05566Z"/>
  <path fill-rule="evenodd" clip-rule="evenodd" d="M15.7827 8.73017C16.1044 8.21018 16.0676 7.53166 15.6725 7.0479L15.5729 6.9375L10.6845 2.05625C10.1511 1.52358 9.30668 1.49078 8.73441 1.95688L8.62384 2.05625L3.73542 6.9375L3.63522 7.04859C3.16878 7.62002 3.2021 8.46262 3.73542 8.99516L7.00673 12.2617C7.00226 12.175 7 12.0878 7 12C7 11.5386 7.06249 11.0919 7.17946 10.6677L4.61995 8.11193C4.53947 8.03156 4.53947 7.9011 4.61995 7.82073L9.50837 2.93948C9.58887 2.85936 9.71959 2.8592 9.79999 2.93948L14.5894 7.72188C15.0383 7.99417 15.4409 8.33513 15.7827 8.73017Z"/>
  <path d="M5.64551 1.72607C6.21446 1.15816 7.13711 1.15817 7.70605 1.72607L8.33008 2.3501L7.44531 3.23291L6.82129 2.60986C6.74081 2.52954 6.61075 2.52954 6.53027 2.60986L1.31152 7.8208C1.23104 7.90116 1.23104 8.03145 1.31152 8.11182L6.53027 13.3228C6.61075 13.4031 6.74081 13.4031 6.82129 13.3228L7.10742 13.0376C7.16705 13.3202 7.25129 13.5942 7.35645 13.8569C7.42064 14.0173 7.49244 14.174 7.57227 14.3257C7.00065 14.7718 6.17164 14.7317 5.64551 14.2065L0.426758 8.99561C-0.106556 8.46307 -0.140251 7.61977 0.326172 7.04834L0.426758 6.93701L5.64551 1.72607Z"/>
  <path d="M12 8C14.2091 8 16 9.79086 16 12C16 14.2091 14.2091 16 12 16C9.79086 16 8 14.2091 8 12C8 9.79086 9.79086 8 12 8ZM12 9.14258C10.422 9.14258 9.14258 10.422 9.14258 12C9.14258 13.578 10.422 14.8574 12 14.8574C13.578 14.8574 14.8574 13.578 14.8574 12C14.8574 10.422 13.578 9.14258 12 9.14258ZM12.624 10.5674C12.8472 10.3442 13.2095 10.3442 13.4326 10.5674C13.6558 10.7905 13.6558 11.1528 13.4326 11.376L12.8086 12L13.4326 12.624C13.6558 12.8472 13.6558 13.2095 13.4326 13.4326C13.2095 13.6558 12.8472 13.6558 12.624 13.4326L12 12.8086L11.376 13.4326C11.1528 13.6558 10.7905 13.6558 10.5674 13.4326C10.3442 13.2095 10.3442 12.8472 10.5674 12.624L11.1914 12L10.5674 11.376C10.3442 11.1528 10.3442 10.7905 10.5674 10.5674C10.7905 10.3442 11.1528 10.3442 11.376 10.5674L12 11.1914L12.624 10.5674Z"/>
</svg>
