<svg xmlns="http://www.w3.org/2000/svg" width="12" height="12" fill="currentColor" viewBox="0 0 12 12">
  <path fill="none" class="secondary" fill-rule="evenodd" d="m2.94 6.883 3.529 3.525a1.093 1.093 0 0 0 1.544 0l3.667-3.662a1.09 1.09 0 0 0 0-1.542L8.013 1.542a1.093 1.093 0 0 0-1.544 0l-.219.218v3.715C6.25 6.317 5.567 7 4.725 7h-1.2a1.52 1.52 0 0 1-.586-.117Z" clip-rule="evenodd"/>
  <path fill-rule="evenodd" d="M7.35 9.77a.155.155 0 0 1-.219 0L4.357 7h-.832a1.54 1.54 0 0 1-.63-.136L5.54 9.506l-.468.467a.092.092 0 0 1-.13 0l-2.994-2.99-.01.002c-.069.01-.14.015-.213.015H.549l3.685 3.68a1.094 1.094 0 0 0 1.546 0l.468-.467.22.22a1.094 1.094 0 0 0 1.545 0L11.68 6.77a1.09 1.09 0 0 0 0-1.543l-3.666-3.66v-.002a1.094 1.094 0 0 0-1.544 0l-.001.001-.218.218V3.11l.881-.88a.154.154 0 0 1 .219 0l3.666 3.66v.002a.154.154 0 0 1 0 .217L7.35 9.769Zm-2.278.203.43-.428Z" clip-rule="evenodd"/>
  <path class="tertiary" fill-rule="evenodd" d="M.525 0A.525.525 0 0 0 0 .525v4.95C0 5.765.235 6 .525 6h1.2c.29 0 .525-.235.525-.525V.525A.525.525 0 0 0 1.725 0h-1.2ZM.75 5.25V.75h.75v4.5H.75ZM3.525 0A.525.525 0 0 0 3 .525v4.95c0 .29.235.525.525.525h1.2c.29 0 .525-.235.525-.525V.525A.525.525 0 0 0 4.725 0h-1.2Zm.225 5.25V.75h.75v4.5h-.75Z" clip-rule="evenodd"/>
</svg>
