<svg xmlns="http://www.w3.org/2000/svg" width="20" height="20" fill="currentColor" viewBox="0 0 20 20">
  <path fill="none" class="secondary" d="M4.296 10.705c.027-.024.053-.05.079-.075.384.383.914.62 1.5.62h2A2.125 2.125 0 0 0 10 9.125V3.35l.78-.78a1.823 1.823 0 0 1 2.575 0l6.112 6.103c.71.71.71 1.86 0 2.57l-6.112 6.103c-.711.71-1.863.71-2.574 0l-6.112-6.103a1.812 1.812 0 0 1-.373-.538Z"/>
  <path fill-rule="evenodd" d="m10.78 17.345.001.002a1.824 1.824 0 0 0 2.573 0l.001-.002 6.11-6.101a1.817 1.817 0 0 0 0-2.572l-6.11-6.101-.001-.002a1.823 1.823 0 0 0-2.573 0l-.001.002-.367.366L10 2.524v3.033l1.886-1.882c.1-.1.263-.1.364 0l6.11 6.101.002.002a.257.257 0 0 1-.002.362l-6.11 6.101c-.1.1-.264.1-.364 0L6.887 11.25H5.875a2.116 2.116 0 0 1-1.5-.62 2.16 2.16 0 0 1-.079.075l.002.003c.088.194.212.376.371.536l4.638 4.631-.78.78c-.1.1-.263.1-.364 0L2.75 11.25H.875a2.077 2.077 0 0 1-.367-.031l.025.025 6.524 6.514.002.002a1.823 1.823 0 0 0 2.574-.002l.779-.777.001-.002.367.366Z" clip-rule="evenodd"/>
  <path class="tertiary" fill-rule="evenodd" d="M.875 0A.875.875 0 0 0 0 .875v8.25c0 .483.392.875.875.875h2a.875.875 0 0 0 .875-.875V.875A.875.875 0 0 0 2.875 0h-2Zm.375 8.75v-7.5H2.5v7.5H1.25ZM5.875 0A.875.875 0 0 0 5 .875v8.25c0 .483.392.875.875.875h2a.875.875 0 0 0 .875-.875V.875A.875.875 0 0 0 7.875 0h-2Zm.375 8.75v-7.5H7.5v7.5H6.25Z" clip-rule="evenodd"/>
</svg>
