<svg xmlns="http://www.w3.org/2000/svg" width="20" height="20" fill="currentColor" viewBox="0 0 20 20">
  <path fill="none" class="secondary" d="M1.716 11.25h1.159c.585 0 1.116-.237 1.5-.62.384.383.914.62 1.5.62h2A2.125 2.125 0 0 0 10 9.125V1.25c.488 0 .977.186 1.35.559l6.84 6.841a1.908 1.908 0 0 1 0 2.698l-6.842 6.842a1.908 1.908 0 0 1-2.698 0l-6.841-6.84a1.917 1.917 0 0 1-.093-.099Z"/>
  <path d="M1.716 11.25c.03.034.06.067.093.1l6.841 6.84a1.908 1.908 0 0 0 2.698 0l6.842-6.842a1.908 1.908 0 0 0 0-2.698l-6.84-6.841A1.902 1.902 0 0 0 10 1.25v1.5c.104 0 .209.04.289.12l6.841 6.84c.16.16.16.418 0 .578l-6.84 6.842a.408.408 0 0 1-.578 0l-6.036-6.037c-.247.1-.517.156-.8.156h-1.16Z"/>
  <path class="tertiary" fill-rule="evenodd" d="M.875 0A.875.875 0 0 0 0 .875v8.25c0 .483.392.875.875.875h2a.875.875 0 0 0 .875-.875V.875A.875.875 0 0 0 2.875 0h-2Zm.375 8.75v-7.5H2.5v7.5H1.25ZM5.875 0A.875.875 0 0 0 5 .875v8.25c0 .483.392.875.875.875h2a.875.875 0 0 0 .875-.875V.875A.875.875 0 0 0 7.875 0h-2Zm.375 8.75v-7.5H7.5v7.5H6.25Z" clip-rule="evenodd"/>
</svg>
