<svg xmlns="http://www.w3.org/2000/svg" width="12" height="12" fill="currentColor" viewBox="0 0 12 12">
  <path fill="none" class="secondary" fill-rule="evenodd" d="M2.801 5.204a1.09 1.09 0 0 0 0 1.542l2.964 2.959a3.625 3.625 0 0 1 6-3.055 1.09 1.09 0 0 0-.085-1.446L8.013 1.542a1.093 1.093 0 0 0-1.544 0L2.8 5.204Z" clip-rule="evenodd"/>
  <path fill-rule="evenodd" d="m10.994 6.13.022-.021.001-.001a.154.154 0 0 0 0-.216l-.001-.001-3.665-3.66-.001-.001a.155.155 0 0 0-.219 0l-.22.22-.005.005-.697.696-.006.006-2.738 2.734a.154.154 0 0 0 0 .217l2.392 2.39a3.633 3.633 0 0 0 .079 2.026l-.156.156a1.094 1.094 0 0 1-1.546 0L.32 6.771a1.09 1.09 0 0 1 0-1.543L4.234 1.32a1.094 1.094 0 0 1 1.546 0l.429.428.039.039.22-.22a1.094 1.094 0 0 1 1.544 0h.001l3.665 3.66.001.001a1.09 1.09 0 0 1 .098 1.432 3.633 3.633 0 0 0-.783-.53ZM5.54 9.507l-.039.039-.429.428a.092.092 0 0 1-.13 0l-2.673-2.67-.686-.685-.555-.554a.092.092 0 0 1 0-.13l.555-.554.686-.686 2.673-2.669a.092.092 0 0 1 .13 0l.43.429.038.039-.066.065-.432.432-.204.204-2.035 2.032-.001.001a1.086 1.086 0 0 0-.314.892c.027.238.131.469.314.651v.001l2.036 2.033.204.203.432.432.066.066Z" clip-rule="evenodd"/>
  <path fill-rule="evenodd" d="M9.375 12a2.625 2.625 0 1 0 0-5.25 2.625 2.625 0 0 0 0 5.25ZM9 7.875a.375.375 0 1 1 .75 0v1.5a.375.375 0 1 1-.75 0v-1.5Zm.75 3a.375.375 0 1 1-.75 0 .375.375 0 0 1 .75 0Z" clip-rule="evenodd"/>
</svg>
