<svg xmlns="http://www.w3.org/2000/svg" width="20" height="20" fill="currentColor" viewBox="0 0 20 20">
  <path fill="none" class="secondary" d="M4.669 11.243a1.815 1.815 0 0 1 0-2.57L10.78 2.57c.71-.71 1.863-.71 2.574 0l6.112 6.103c.71.71.71 1.86 0 2.57l-6.112 6.103c-.711.71-1.863.71-2.574 0l-6.112-6.103Z"/>
  <path fill-rule="evenodd" d="M11.885 16.283c.101.1.264.1.365 0l6.11-6.102.002-.001a.257.257 0 0 0 0-.36l-.002-.002-6.11-6.102a.26.26 0 0 0-.365 0l-6.11 6.102-.001.001a.257.257 0 0 0 0 .36l.001.002 6.11 6.102ZM9.633 2.199a1.823 1.823 0 0 0-2.576 0L.533 8.714a1.817 1.817 0 0 0 0 2.572L7.057 17.8c.712.71 1.865.71 2.576 0l.78-.78.367.367.001.002a1.826 1.826 0 0 0 2.573 0l.001-.002 6.11-6.101a1.817 1.817 0 0 0 0-2.572l-6.11-6.102-.001-.001a1.823 1.823 0 0 0-2.573 0l-.001.001-.367.366-.78-.779Zm-.4 13.644L4.67 11.286a1.81 1.81 0 0 1-.522-1.487 1.81 1.81 0 0 1 .522-1.085l4.565-4.558-.78-.779a.154.154 0 0 0-.217 0L1.713 9.891a.153.153 0 0 0 0 .217l6.524 6.514c.06.06.157.06.217 0l.78-.779Z" clip-rule="evenodd"/>
</svg>
