<svg xmlns="http://www.w3.org/2000/svg" width="16" height="16" fill="currentColor" viewBox="0 0 16 16">
  <path fill="none" class="secondary" d="M3.735 8.994a1.452 1.452 0 0 1 0-2.056l4.89-4.882a1.457 1.457 0 0 1 2.059 0l4.89 4.882a1.452 1.452 0 0 1 0 2.056l-4.89 4.883a1.458 1.458 0 0 1-2.06 0l-4.89-4.883Z"/>
  <path fill-rule="evenodd" d="M9.508 13.026c.08.08.211.08.292 0l4.888-4.88.001-.002a.206.206 0 0 0 0-.289l-4.89-4.882a.206.206 0 0 0-.29 0L4.62 7.854l-.001.001a.206.206 0 0 0 0 .289l.001.001 4.888 4.881ZM7.706 1.76a1.459 1.459 0 0 0-2.06 0L.426 6.971a1.453 1.453 0 0 0 0 2.057l5.22 5.212a1.458 1.458 0 0 0 2.06 0l.625-.623.293.292.001.002a1.46 1.46 0 0 0 2.058 0l.001-.002 4.889-4.88a1.453 1.453 0 0 0 0-2.058L10.684 2.09l-.001-.001a1.458 1.458 0 0 0-2.06 0l-.292.294-.625-.624Zm-.319 10.916L3.736 9.028a1.448 1.448 0 0 1-.418-1.19c.035-.316.174-.624.418-.867l3.651-3.646-.624-.623a.123.123 0 0 0-.174 0L1.37 7.913a.122.122 0 0 0 0 .173l5.22 5.212a.123.123 0 0 0 .173 0l.624-.623Z" clip-rule="evenodd"/>
</svg>
