<svg xmlns="http://www.w3.org/2000/svg" width="20" height="20" fill="currentColor" viewBox="0 0 20 20">
  <path fill="none" class="secondary" d="M1.809 11.35a1.908 1.908 0 0 1 0-2.7L8.65 1.81a1.908 1.908 0 0 1 2.698 0l6.842 6.842a1.908 1.908 0 0 1 0 2.698l-6.842 6.842a1.908 1.908 0 0 1-2.698 0L1.809 11.35Z"/>
  <path fill-rule="evenodd" d="M9.711 2.87 2.87 9.71a.408.408 0 0 0 0 .578l6.84 6.842a.41.41 0 0 0 .578 0l6.842-6.842a.408.408 0 0 0 0-.578l-6.841-6.84a.408.408 0 0 0-.578 0ZM1.81 8.65a1.908 1.908 0 0 0 0 2.7l6.84 6.84a1.908 1.908 0 0 0 2.698 0l6.842-6.842a1.908 1.908 0 0 0 0-2.698l-6.84-6.841a1.908 1.908 0 0 0-2.698 0L1.809 8.65Z" clip-rule="evenodd"/>
</svg>
