<svg xmlns="http://www.w3.org/2000/svg" width="20" height="20" fill="currentColor" viewBox="0 0 20 20">
  <path fill="none" class="secondary" fill-rule="evenodd" d="M1.809 8.65a1.908 1.908 0 0 0 0 2.7l6.841 6.84c.525.525 1.28.68 1.94.465a5.875 5.875 0 0 1 8.065-8.065c.215-.66.06-1.415-.465-1.94l-6.84-6.841a1.908 1.908 0 0 0-2.698 0L1.809 8.65Z" clip-rule="evenodd"/>
  <path fill-rule="evenodd" d="M2.87 9.711 9.71 2.87c.16-.16.418-.16.578 0l6.842 6.84a.41.41 0 0 1 .118.266c.5.144.972.352 1.407.614.215-.66.06-1.415-.465-1.94l-6.84-6.841a1.908 1.908 0 0 0-2.698 0L1.809 8.65a1.908 1.908 0 0 0 0 2.698l6.842 6.842c.525.525 1.28.68 1.94.465a5.837 5.837 0 0 1-.614-1.407.407.407 0 0 1-.266-.118L2.87 10.289a.408.408 0 0 1 0-.578Z" clip-rule="evenodd"/>
  <path fill-rule="evenodd" d="M15.625 20a4.375 4.375 0 1 0 0-8.75 4.375 4.375 0 0 0 0 8.75ZM15 13.125a.625.625 0 1 1 1.25 0v2.5a.625.625 0 1 1-1.25 0v-2.5Zm1.25 5a.625.625 0 1 1-1.25 0 .625.625 0 0 1 1.25 0Z" clip-rule="evenodd"/>
</svg>
