<svg width="16" height="16" viewBox="0 0 16 16" fill="currentColor" xmlns="http://www.w3.org/2000/svg">
  <path d="M8.73438 1.95654C9.30664 1.49057 10.1512 1.52356 10.6846 2.05615L15.5732 6.93701L15.6729 7.04834C15.9096 7.33842 16.016 7.69838 15.9951 8.05225H14.7285C14.7636 7.97616 14.751 7.88345 14.6885 7.8208L9.7998 2.93994C9.7194 2.85966 9.58929 2.85982 9.50879 2.93994L4.62012 7.8208C4.53963 7.90117 4.53964 8.03145 4.62012 8.11182L9.50879 12.9937C9.58922 13.0732 9.71953 13.0735 9.7998 12.9937L10 12.7935V14.2593C9.56764 14.3644 9.09667 14.2711 8.73438 13.9761L8.62402 13.8765L3.73535 8.99561C3.20205 8.46309 3.16838 7.61977 3.63477 7.04834L3.73535 6.93701L8.62402 2.05615L8.73438 1.95654Z"/>
  <path d="M5.64551 1.72607C6.21446 1.15819 7.13711 1.15818 7.70605 1.72607L8.33008 2.34912L7.44531 3.23291L6.82129 2.60986C6.74082 2.52955 6.61075 2.52956 6.53027 2.60986L1.31152 7.8208C1.23107 7.90117 1.23105 8.03146 1.31152 8.11182L6.53027 13.3228C6.61075 13.4031 6.74081 13.4031 6.82129 13.3228L7.44531 12.6987L8.33008 13.5825L7.70605 14.2065L7.5957 14.3071C7.0235 14.7729 6.17885 14.7389 5.64551 14.2065L0.426758 8.99561C-0.106556 8.46307 -0.140251 7.61977 0.326172 7.04834L0.426758 6.93799L5.64551 1.72607Z"/>
  <path class="secondary" fill-rule="evenodd" clip-rule="evenodd" d="M12.0032 10.1359L12.0032 10.6118L12.0032 10.6415C12.0031 10.6717 12.0031 10.6927 12.0034 10.7119L12.0035 10.7189C12.0085 10.7245 12.0145 10.731 12.0217 10.7387C12.0354 10.7535 12.0499 10.7685 12.0704 10.7897L12.0921 10.8123L12.9099 11.664C13.1164 11.8791 13.2339 12.1823 13.2339 12.5C13.2339 12.8177 13.1164 13.1209 12.9099 13.336L12.0911 14.1888L12.0709 14.2098C12.0504 14.2309 12.0354 14.2465 12.0217 14.2613C12.0145 14.269 12.0085 14.2755 12.0035 14.2811L12.0034 14.2881C12.0031 14.3073 12.0031 14.3274 12.0032 14.3576L12.0032 14.3899L12.0032 14.8641H14.9968L14.9968 14.3882L14.9968 14.3585C14.9969 14.3283 14.9969 14.3073 14.9966 14.2881L14.9965 14.2811C14.9915 14.2755 14.9855 14.269 14.9783 14.2613C14.9646 14.2465 14.9501 14.2315 14.9296 14.2103L14.9079 14.1877L14.0901 13.336C13.8836 13.1209 13.7661 12.8177 13.7661 12.5C13.7661 12.1823 13.8836 11.8791 14.0901 11.664L14.9089 10.8112L14.9291 10.7902C14.9496 10.7691 14.9646 10.7535 14.9783 10.7387C14.9855 10.731 14.9915 10.7245 14.9965 10.7189L14.9966 10.7119C14.9969 10.6927 14.9969 10.6726 14.9968 10.6424L14.9968 10.6101L14.9968 10.1359H12.0032ZM15.8429 11.3384C15.7758 11.4525 15.6856 11.5461 15.6072 11.6273L15.587 11.6483L14.7692 12.5L15.587 13.3517L15.6072 13.3727C15.6856 13.4539 15.7758 13.5475 15.8429 13.6616C15.9013 13.7609 15.9444 13.8691 15.9705 13.9823C16.0005 14.1124 16.0002 14.245 16 14.3602L15.9999 14.3899L15.9999 15.0227C15.9999 15.0948 16 15.1765 15.9944 15.2477C15.988 15.3292 15.9719 15.441 15.915 15.5572C15.8404 15.7098 15.7213 15.8339 15.5748 15.9116C15.4632 15.9708 15.3558 15.9876 15.2776 15.9942C15.2092 16 15.1308 16 15.0615 16H11.9385C11.8692 16 11.7908 16 11.7224 15.9942C11.6442 15.9876 11.5368 15.9708 11.4252 15.9116M11.4252 15.9116C11.2787 15.8339 11.1596 15.7098 11.085 15.5572C11.0281 15.441 11.012 15.3292 11.0056 15.2477C11 15.1765 11.0001 15.0948 11.0001 15.0227L11.0001 14.3899L11 14.3602C10.9998 14.245 10.9995 14.1124 11.0295 13.9824C11.0556 13.8691 11.0987 13.7609 11.1571 13.6616C11.2242 13.5475 11.3144 13.4539 11.3928 13.3727L11.413 13.3517L12.2308 12.5L11.413 11.6483L11.3928 11.6273C11.3144 11.5461 11.2242 11.4525 11.1571 11.3384C11.0987 11.2391 11.0556 11.1309 11.0295 11.0177C10.9995 10.8876 10.9998 10.755 11 10.6398L11.0001 10.6101L11.0001 9.97734C11.0001 9.90518 11 9.82354 11.0056 9.7523C11.012 9.67081 11.0281 9.559 11.085 9.44281C11.1596 9.29021 11.2787 9.16615 11.4252 9.0884C11.5368 9.0292 11.6442 9.01244 11.7224 9.00578C11.7907 8.99997 11.8692 8.99999 11.9384 9H15.0615C15.1308 8.99999 15.2093 8.99997 15.2776 9.00578C15.3558 9.01244 15.4632 9.0292 15.5748 9.0884C15.7213 9.16615 15.8404 9.29021 15.915 9.44281C15.9719 9.559 15.988 9.67081 15.9944 9.7523C16 9.82353 15.9999 9.90519 15.9999 9.97735L15.9999 10.6101L16 10.6398C16.0002 10.755 16.0005 10.8876 15.9705 11.0177C15.9444 11.1309 15.9013 11.2391 15.8429 11.3384"/>
</svg>
