<svg xmlns="http://www.w3.org/2000/svg" width="20" height="20" fill="currentColor" viewBox="0 0 20 20">
  <path fill="none" class="secondary" d="M1.716 11.25h1.159c.585 0 1.116-.237 1.5-.62.384.383.914.62 1.5.62h2A2.125 2.125 0 0 0 10 9.125V1.25c.488 0 .977.186 1.35.559l6.84 6.841c.525.525.68 1.28.465 1.94a5.875 5.875 0 0 0-8.065 8.065c-.66.215-1.415.06-1.94-.465l-6.841-6.84a1.915 1.915 0 0 1-.093-.099v-.001Z"/>
  <path fill-rule="evenodd" d="M1.809 11.35a2.16 2.16 0 0 1-.093-.1v-.001h1.158c.283 0 .553-.056.8-.156L9.71 17.13a.41.41 0 0 0 .266.118c.142.494.348.967.614 1.407-.66.215-1.415.06-1.94-.465l-6.841-6.84ZM10 1.25v1.5a.406.406 0 0 1 .29.12l6.839 6.84c.071.07.114.166.119.266a5.84 5.84 0 0 1 1.407.614c.215-.66.06-1.415-.465-1.94l-6.84-6.841A1.904 1.904 0 0 0 10 1.25Zm9.668 16.05a4.376 4.376 0 1 1-8.087-3.35 4.376 4.376 0 0 1 8.087 3.35Zm-4.165-4.79a.624.624 0 0 0-.503.615v2.5a.625.625 0 0 0 1.25 0v-2.5a.624.624 0 0 0-.747-.614Zm.361 6.193a.625.625 0 1 0-.478-1.155.625.625 0 0 0 .478 1.155Z" clip-rule="evenodd"/>
  <path class="tertiary" fill-rule="evenodd" d="M.875 0A.875.875 0 0 0 0 .875v8.25c0 .483.392.875.875.875h2a.875.875 0 0 0 .875-.875V.875A.875.875 0 0 0 2.875 0h-2Zm.375 8.75v-7.5H2.5v7.5H1.25ZM5.875 0A.875.875 0 0 0 5 .875v8.25c0 .483.392.875.875.875h2a.875.875 0 0 0 .875-.875V.875A.875.875 0 0 0 7.875 0h-2Zm.375 8.75v-7.5H7.5v7.5H6.25Z" clip-rule="evenodd"/>
</svg>
