<svg xmlns="http://www.w3.org/2000/svg" width="12" height="12" fill="currentColor" viewBox="0 0 12 12">
  <path fill="none" class="secondary" fill-rule="evenodd" d="M1.725 7c.337 0 .648-.11.9-.294.252.185.563.294.9.294h1.2c.842 0 1.525-.683 1.525-1.525V1.029c.19.045.372.142.521.29l3.91 3.91a1.09 1.09 0 0 1 0 1.542l-3.91 3.91a1.09 1.09 0 0 1-1.542 0L1.549 7h.176Z" clip-rule="evenodd"/>
  <path fill-rule="evenodd" d="M1.725 7c.337 0 .648-.11.9-.294.041.03.084.058.128.084l3.183 3.184a.09.09 0 0 0 .128 0l3.91-3.91a.09.09 0 0 0 0-.128L6.25 2.213V1.029c.19.045.372.141.521.29l3.91 3.91a1.09 1.09 0 0 1 0 1.542l-3.91 3.91a1.09 1.09 0 0 1-1.542 0L1.549 7h.176Z" clip-rule="evenodd"/>
  <path class="tertiary" fill-rule="evenodd" d="M.525 0A.525.525 0 0 0 0 .525v4.95C0 5.765.235 6 .525 6h1.2c.29 0 .525-.235.525-.525V.525A.525.525 0 0 0 1.725 0h-1.2ZM.75 5.25V.75h.75v4.5H.75ZM3.525 0A.525.525 0 0 0 3 .525v4.95c0 .29.235.525.525.525h1.2c.29 0 .525-.235.525-.525V.525A.525.525 0 0 0 4.725 0h-1.2Zm.225 5.25V.75h.75v4.5h-.75Z" clip-rule="evenodd"/>
</svg>
