<svg xmlns="http://www.w3.org/2000/svg" width="12" height="12" fill="currentColor" viewBox="0 0 12 12">
  <path d="m2.026 5.936 3.91-3.91a.09.09 0 0 1 .128 0l3.074 3.075a2.48 2.48 0 0 1 1.503.089l-3.87-3.87a1.09 1.09 0 0 0-1.542 0l-3.91 3.909a1.09 1.09 0 0 0 0 1.542l3.91 3.91a1.09 1.09 0 0 0 1.296.185V9.512l-.461.462a.09.09 0 0 1-.128 0l-3.91-3.91a.09.09 0 0 1 0-.128Z"/>
  <path fill-rule="evenodd" d="M11.25 8.25V7.5a1.5 1.5 0 0 0-3 0v.75A.75.75 0 0 0 7.5 9v2.25c0 .414.336.75.75.75h3a.75.75 0 0 0 .75-.75V9a.75.75 0 0 0-.75-.75ZM9 7.5a.75.75 0 0 1 1.5 0v.75H9V7.5Zm-.75 3.75V9h3v2.25h-3Z" clip-rule="evenodd"/>
  <path fill="none" class="secondary" d="M8.25 9h3v2.25h-3z"/>
</svg>
