<svg xmlns="http://www.w3.org/2000/svg" width="12" height="12" fill="currentColor" viewBox="0 0 12 12">
  <g class="build-arrow-12px">
    <path fill="none" d="M2.778 11c-.581 0-1.024-.148-1.328-.445C1.15 10.26 1 9.82 1 9.238v-6.47c0-.582.15-1.021.45-1.318.304-.3.747-.45 1.328-.45h6.444c.585 0 1.028.15 1.328.45.3.3.45.74.45 1.318V7.5c0 .798-1.585 3.5-2.5 3.5H2.778Z" class="secondary"/>
    <path fill-rule="evenodd" d="M2.78 11c-.583 0-1.025-.148-1.33-.445C1.15 10.26 1 9.82 1 9.238v-6.47c0-.582.15-1.021.45-1.318.304-.3.747-.45 1.33-.45h6.446c.586 0 1.029.15 1.33.45.3.3.45.74.45 1.318V6.75H9.879V2.875c0-.252-.063-.44-.19-.563-.129-.124-.31-.186-.547-.186H2.864c-.237 0-.419.062-.546.186-.124.124-.186.312-.186.563v6.256c0 .251.062.439.186.563.127.124.31.185.546.185h3.818L7.427 11H2.779Zm7.1-3.5H6L8.992 12l.767-1.152 1.247-1.876.978-1.472H9.88Z" class="Union" clip-rule="evenodd"/>
  </g>
</svg>
