<svg xmlns="http://www.w3.org/2000/svg" width="12" height="12" fill="currentColor" viewBox="0 0 12 12">
    <path d="M4.234 1.32a1.095 1.095 0 0 1 1.546 0l.467.466.22-.219a1.095 1.095 0 0 1 1.546 0l3.666 3.66.075.085c.232.284.299.658.2.994l-.615-.615a1.493 1.493 0 0 0-.958-.434L7.351 2.23a.155.155 0 0 0-.22 0L3.465 5.89a.155.155 0 0 0 0 .22l2.67 2.664-.664.664-2.67-2.666a1.09 1.09 0 0 1 0-1.543L5.54 2.494l-.468-.468a.092.092 0 0 0-.13 0L1.027 5.935a.093.093 0 0 0 0 .13l3.915 3.909a.093.093 0 0 0 .1.02l.03-.02.177-.178v1.175c-.353.08-.74-.016-1.015-.291L.32 6.772a1.09 1.09 0 0 1-.075-1.46l.075-.083 3.914-3.91Z"/>
    <path class="secondary" fill-rule="evenodd" d="M10.81 6.221a.75.75 0 0 0-1.062 0L8.735 7.235 6 9.97V12h2.03l3.749-3.748a.75.75 0 0 0 0-1.061l-.97-.97ZM10.5 8.47l.748-.749-.97-.97-.748.749.97.97ZM9 8.03l.97.97-2.25 2.25h-.97v-.97L9 8.03Z" clip-rule="evenodd"/>
</svg>
