<svg xmlns="http://www.w3.org/2000/svg" width="16" height="16" fill="currentColor" viewBox="0 0 16 16">
  <path fill="none" class="secondary" fill-rule="evenodd" d="M3.735 6.938a1.452 1.452 0 0 0 0 2.056l4.102 4.096A4.7 4.7 0 0 1 15.6 8.967c.542-.57.533-1.47-.027-2.029l-4.89-4.882a1.457 1.457 0 0 0-2.058 0l-4.89 4.882Z" clip-rule="evenodd"/>
  <path fill-rule="evenodd" d="M15.6 8.967c.542-.57.532-1.47-.027-2.03l-4.889-4.88v-.002a1.459 1.459 0 0 0-2.059 0l-.001.002-.293.292h-.002l-.623-.623v-.001a1.459 1.459 0 0 0-2.059 0l-.001.001-5.22 5.212a1.453 1.453 0 0 0 0 2.057l5.22 5.212h.001c.569.567 1.49.567 2.058 0h.001l.306-.306a4.698 4.698 0 0 1-.099-2.43L4.585 8.147l-.001-.001a.255.255 0 0 1 0-.36l4.89-4.882c.1-.1.261-.1.361 0l4.888 4.881.002.002c.098.1.098.26 0 .359l-.002.001-.139.14c.369.182.71.411 1.016.68Zm-11.864.028 3.745 3.74-.624.624c-.1.1-.262.1-.362 0l-5.22-5.212v-.001a.255.255 0 0 1 0-.36l5.22-5.212c.1-.1.262-.1.362 0l.624.623-3.745 3.74a1.448 1.448 0 0 0-.373 1.424c.066.232.19.451.373.634Z" clip-rule="evenodd"/>
  <path fill-rule="evenodd" d="M12.5 16a3.5 3.5 0 1 0 0-7 3.5 3.5 0 0 0 0 7Zm-.5-5.5a.5.5 0 0 1 1 0v2a.5.5 0 0 1-1 0v-2Zm1 4a.5.5 0 1 1-1 0 .5.5 0 0 1 1 0Z" clip-rule="evenodd"/>
</svg>
