<svg xmlns="http://www.w3.org/2000/svg" width="16" height="16" fill="currentColor" viewBox="0 0 16 16">
  <path d="m2.354 7.748 5.394-5.394a.356.356 0 0 1 .504 0l4.366 4.367a3.285 3.285 0 0 1 2.19.517 1.607 1.607 0 0 0-.278-.374L9.136 1.47a1.606 1.606 0 0 0-2.272 0L1.47 6.864a1.606 1.606 0 0 0 0 2.272l5.394 5.394c.497.496 1.238.6 1.836.31v-1.643l-.448.449a.356.356 0 0 1-.504 0L2.354 8.252a.356.356 0 0 1 0-.504Z"/>
  <path fill-rule="evenodd" d="M15 11v-1a2 2 0 1 0-4 0v1a1 1 0 0 0-1 1v3a1 1 0 0 0 1 1h4a1 1 0 0 0 1-1v-3a1 1 0 0 0-1-1Zm-3-1a1 1 0 1 1 2 0v1h-2v-1Zm-1 5v-3h4v3h-4Z" clip-rule="evenodd"/>
  <path fill="none" class="secondary" d="M11 12h4v3h-4z"/>
</svg>
