<svg xmlns="http://www.w3.org/2000/svg" width="12" height="12" fill="currentColor" viewBox="0 0 12 12">
  <g class="buildType-composite-12px">
    <path fill-rule="evenodd" d="M1.75 1a.75.75 0 0 0 0 1.5h8.5a.75.75 0 0 0 0-1.5h-8.5Zm.446 10h7.537c.347 0 .638 0 .966-.332.308-.308.305-.59.302-.918L11 9.645v-4.29c.015-.439.01-.704-.31-1.033-.342-.324-.598-.323-.93-.322H2.29c-.384-.004-.7.008-1.006.352-.291.299-.288.569-.285.894L1 5.355V9.67c0 .364 0 .69.324 1.024.331.31.564.309.872.306Zm7.73-1.055-7.852.004V5.051h7.852v4.894Z" class="Union" clip-rule="evenodd"/>
  </g>
</svg>
