<svg width="16" height="16" viewBox="0 0 16 16" fill="currentColor" xmlns="http://www.w3.org/2000/svg">
  <path class="tertiary" d="M12 8.00049C12.2817 8.00049 12.4922 8.24244 12.4922 8.52414V8.69225C12.4922 8.95061 12.2584 9.14307 12 9.14307C10.422 9.14307 9.14258 10.4225 9.14258 12.0005C9.14284 13.5782 10.4222 14.8569 12 14.8569C13.5778 14.8569 14.8572 13.5782 14.8574 12.0005C14.8574 11.7232 15.062 11.4702 15.3392 11.4702H15.4762C15.7553 11.4702 15.9964 11.6772 15.9997 11.9562C15.9999 11.971 16 11.9857 16 12.0005C15.9997 14.2094 14.209 16.0005 12 16.0005C9.79102 16.0005 8.00026 14.2094 8 12.0005C8 9.79135 9.79086 8.00049 12 8.00049Z"/>
  <path fill="none" class="secondary" d="M6.86475 1.47021C7.49187 0.843408 8.50812 0.843422 9.13525 1.47021L14.5298 6.86475C14.8428 7.17793 14.9982 7.58812 14.9985 7.99854C14.1632 7.37161 13.1252 7.00059 12.0005 7.00049C9.23906 7.00049 7.00049 9.23906 7.00049 12.0005C7.00059 13.1252 7.37161 14.1632 7.99854 14.9985C7.58813 14.9982 7.17793 14.8428 6.86475 14.5298L1.47021 9.13525C0.843422 8.50812 0.843409 7.49187 1.47021 6.86475L6.86475 1.47021Z"/>
  <path d="M6.86426 1.46973C7.49138 0.842699 8.50855 0.842814 9.13574 1.46973L14.5293 6.86426C14.8425 7.17742 14.9986 7.5876 14.999 7.99805C14.4171 7.56128 13.7365 7.24924 12.9971 7.09961L8.25195 2.35449C8.11291 2.21545 7.88709 2.21545 7.74805 2.35449L2.35449 7.74805C2.21545 7.88709 2.21545 8.11291 2.35449 8.25195L7.09961 12.9971C7.24931 13.7366 7.56211 14.4171 7.99902 14.999C7.58838 14.9987 7.17757 14.8426 6.86426 14.5293L1.4707 9.13574C0.843504 8.50854 0.843509 7.49146 1.4707 6.86426L6.86426 1.46973Z"/>
</svg>
