<svg width="16" height="16" viewBox="0 0 16 16" fill="currentColor" xmlns="http://www.w3.org/2000/svg">
  <path d="M6.86426 1.4707C7.49146 0.843502 8.50854 0.843502 9.13574 1.4707L14.5303 6.86426C14.8433 7.17734 14.9985 7.58776 14.999 7.99805C14.4171 7.56132 13.7365 7.24922 12.9971 7.09961L8.25195 2.35449C8.11291 2.21545 7.88709 2.21545 7.74805 2.35449L2.35449 7.74805C2.21545 7.88709 2.21545 8.11291 2.35449 8.25195L7.09961 12.9971C7.24927 13.7367 7.56213 14.4171 7.99902 14.999C7.58839 14.9987 7.17756 14.8426 6.86426 14.5293L1.4707 9.13574C0.843502 8.50854 0.843502 7.49146 1.4707 6.86426L6.86426 1.4707Z"/>
  <path class="secondary" d="M12 8C14.2091 8 16 9.79086 16 12C16 14.2091 14.2091 16 12 16C9.79086 16 8 14.2091 8 12C8 9.79086 9.79086 8 12 8ZM12 9C10.3431 9 9 10.3431 9 12C9 13.6569 10.3431 15 12 15C13.6569 15 15 13.6569 15 12C15 10.3431 13.6569 9 12 9ZM11.166 10.5C11.2249 10.497 11.2965 10.5416 11.4385 10.6299L13.29 11.7812C13.4075 11.8543 13.4659 11.8914 13.4863 11.9375C13.5041 11.9776 13.5041 12.0224 13.4863 12.0625C13.4659 12.1086 13.4075 12.1457 13.29 12.2188L11.4385 13.3701C11.2965 13.4584 11.2249 13.503 11.166 13.5C11.1146 13.4971 11.0672 13.4729 11.0361 13.4346C11.0005 13.3906 11 13.3109 11 13.1514V10.8486C11 10.6891 11.0005 10.6094 11.0361 10.5654C11.0672 10.5271 11.1146 10.5029 11.166 10.5Z"/>
</svg>
