<svg xmlns="http://www.w3.org/2000/svg" width="20" height="20" fill="currentColor" viewBox="0 0 20 20">
    <path d="M8.65 1.809a1.908 1.908 0 0 1 2.7 0l6.84 6.842c.17.168.297.362.39.567a2.498 2.498 0 0 0-2.268-.325L10.288 2.87a.408.408 0 0 0-.577 0L2.87 9.71a.408.408 0 0 0 0 .578l5.88 5.88v2.112c-.033-.03-.067-.058-.1-.09l-6.84-6.841a1.908 1.908 0 0 1 0-2.698l6.842-6.842Z"/>
    <path class="secondary" fill-rule="evenodd" d="M18.015 10.369a1.25 1.25 0 0 0-1.768 0l-1.689 1.689L10 16.616V20h3.384l6.247-6.248a1.25 1.25 0 0 0 0-1.767l-1.616-1.616Zm-.515 3.747 1.247-1.247-1.616-1.617-1.247 1.248 1.616 1.616Zm-2.5-.732L16.616 15l-3.75 3.75H11.25v-1.616l3.75-3.75Z" clip-rule="evenodd"/>
</svg>
