<svg xmlns="http://www.w3.org/2000/svg" width="20" height="20" fill="currentColor" viewBox="0 0 20 20">
  <path fill-rule="evenodd" d="M1.85 3a.85.85 0 0 0 0 1.7h16.3a.85.85 0 0 0 0-1.7H1.85Zm-.283 15.427c.377.382.831.573 1.362.573H17.07c.53 0 .985-.19 1.362-.573.378-.382.567-.84.567-1.377v-9.1c0-.536-.189-.995-.567-1.377A1.847 1.847 0 0 0 17.072 6H2.93c-.53 0-.985.19-1.362.573C1.189 6.955 1 7.413 1 7.95v9.1c0 .536.189.995.567 1.377Zm15.737-1.178H2.709V7.694h14.595v9.553Z" clip-rule="evenodd"/>
</svg>
