<svg xmlns="http://www.w3.org/2000/svg" width="20" height="20" fill="currentColor" viewBox="0 0 20 20">
  <path fill="none" class="secondary" d="M10.78 2.57a1.823 1.823 0 0 1 2.575 0l6.112 6.103c.71.71.71 1.86 0 2.57l-1.468 1.463-.101-.17c-1.03-1.714-3.516-1.714-4.546 0l-2.768 4.614-5.915-5.907c-.71-.71-.71-1.86 0-2.57L10.78 2.57Z"/>
  <path fill-rule="evenodd" d="M14.424 13.18a1.4 1.4 0 0 1 2.401 0l3.001 5.003A1.2 1.2 0 0 1 18.798 20h-6.346a1.2 1.2 0 0 1-1.029-1.817l3.001-5.002Zm1.201 4.32a.625.625 0 1 0 .001 1.25.625.625 0 0 0 0-1.25Zm0-3.75a.625.625 0 0 0-.625.625v1.25a.625.625 0 0 0 1.25 0v-1.25a.625.625 0 0 0-.625-.625Z" clip-rule="evenodd"/>
  <path fill-rule="evenodd" d="M7.057 2.157a1.825 1.825 0 0 1 2.576 0l.78.779.367-.367.138-.124a1.824 1.824 0 0 1 2.438.125l6.11 6.102.125.137a1.82 1.82 0 0 1 0 2.297l-.125.137-1.467 1.464-.101-.17a2.631 2.631 0 0 0-.928-.923l1.434-1.431a.32.32 0 0 0 0-.451l-6.11-6.101a.322.322 0 0 0-.453-.001l-6.11 6.1a.32.32 0 0 0 0 .454l5.648 5.64-.795 1.325-.172-.171-.779.78-.139.125c-.715.582-1.77.54-2.437-.125L.533 11.244a1.818 1.818 0 0 1-.125-2.433l.125-.139 6.524-6.515Zm1.514 1.06a.322.322 0 0 0-.453 0L1.595 9.733a.32.32 0 0 0 0 .452l6.523 6.514a.322.322 0 0 0 .453 0l.78-.78-4.68-4.675a1.817 1.817 0 0 1-.126-2.433l.125-.139 4.682-4.675-.78-.778Z" clip-rule="evenodd"/>
</svg>
