<svg xmlns="http://www.w3.org/2000/svg" width="12" height="12" fill="currentColor" viewBox="0 0 12 12">
  <path fill="none" class="secondary" fill-rule="evenodd" d="M1.32 5.23a1.09 1.09 0 0 0 0 1.541l3.909 3.91c.246.246.58.35.9.311a3.625 3.625 0 0 1 4.862-4.862 1.088 1.088 0 0 0-.31-.9L6.77 1.32a1.09 1.09 0 0 0-1.542 0l-3.91 3.91Z" clip-rule="evenodd"/>
  <path fill-rule="evenodd" d="m2.026 5.936 3.91-3.91a.09.09 0 0 1 .128 0l3.75 3.75a3.6 3.6 0 0 1 1.178.354 1.089 1.089 0 0 0-.311-.901l-3.91-3.91a1.09 1.09 0 0 0-1.542 0l-3.91 3.91a1.09 1.09 0 0 0 0 1.542l3.91 3.91c.246.246.58.35.9.311a3.6 3.6 0 0 1-.353-1.178l-3.75-3.75a.09.09 0 0 1 0-.128Z" clip-rule="evenodd"/>
  <path fill-rule="evenodd" d="M9.375 12a2.625 2.625 0 1 0 0-5.25 2.625 2.625 0 0 0 0 5.25ZM9 7.875a.375.375 0 1 1 .75 0v1.5a.375.375 0 1 1-.75 0v-1.5Zm.75 3a.375.375 0 1 1-.75 0 .375.375 0 0 1 .75 0Z" class="Exclude" clip-rule="evenodd"/>
</svg>
