<svg xmlns="http://www.w3.org/2000/svg" width="16" height="16" fill="currentColor" viewBox="0 0 16 16">
  <path fill="none" class="secondary" stroke="currentColor" stroke-width="1.25" d="m1.912 7.306 5.394-5.394a.981.981 0 0 1 1.388 0l5.394 5.394a.981.981 0 0 1 0 1.388l-5.394 5.394a.981.981 0 0 1-1.388 0L1.912 8.694a.981.981 0 0 1 0-1.388Z"/>
  <path fill-rule="evenodd" d="M7.748 2.354 2.354 7.748a.356.356 0 0 0 0 .504l5.394 5.394c.14.139.365.139.504 0l5.394-5.394a.356.356 0 0 0 0-.504L8.252 2.354a.356.356 0 0 0-.504 0ZM1.47 6.864a1.606 1.606 0 0 0 0 2.272l5.394 5.394a1.606 1.606 0 0 0 2.272 0l5.394-5.394a1.606 1.606 0 0 0 0-2.272L9.136 1.47a1.606 1.606 0 0 0-2.272 0L1.47 6.864Z" clip-rule="evenodd"/>
</svg>
