<svg xmlns="http://www.w3.org/2000/svg" width="16" height="16" fill="currentColor" viewBox="0 0 16 16">
  <path fill-rule="evenodd" d="M7.572 14.325a1.465 1.465 0 0 1-1.925-.117l-.001-.001-5.218-5.21-.001-.002a1.453 1.453 0 0 1 0-2.057l.001-.002 5.218-5.21.001-.001a1.46 1.46 0 0 1 2.058 0l.001.001.623.622.002.001-.885.884-.623-.622-.001-.002a.206.206 0 0 0-.292 0v.002L1.31 7.82l-.001.001a.206.206 0 0 0 0 .289h.001l5.084 5.077.134.134.001.001a.206.206 0 0 0 .292 0l.286-.285a4.977 4.977 0 0 0 .465 1.287ZM9.508 2.94 4.62 7.82a.208.208 0 0 0 0 .292l2.56 2.556a5.005 5.005 0 0 0-.173 1.594L3.736 8.995a1.453 1.453 0 0 1 0-2.057l4.888-4.881a1.459 1.459 0 0 1 2.06 0l4.889 4.88c.487.487.557 1.232.21 1.793a5.026 5.026 0 0 0-1.195-1.009L9.8 2.94a.206.206 0 0 0-.292 0Z" clip-rule="evenodd"/>
  <path class="secondary" d="M11.998 13a1 1 0 1 0 0-2 1 1 0 0 0 0 2Z"/>
  <path class="secondary" fill-rule="evenodd" d="M13.12 15.676a.5.5 0 0 1-.469.324h-1.307a.5.5 0 0 1-.468-.324l-.25-.666a.5.5 0 0 0-.55-.317l-.7.116a.5.5 0 0 1-.515-.243l-.654-1.132a.5.5 0 0 1 .047-.568l.451-.548a.5.5 0 0 0 0-.636l-.451-.548a.5.5 0 0 1-.047-.568l.653-1.132a.5.5 0 0 1 .516-.243l.7.116a.5.5 0 0 0 .55-.317l.25-.666A.5.5 0 0 1 11.344 8h1.307a.5.5 0 0 1 .469.324l.249.666a.5.5 0 0 0 .55.317l.701-.116a.5.5 0 0 1 .515.243l.654 1.132a.5.5 0 0 1-.047.568l-.452.548a.5.5 0 0 0 0 .636l.452.548a.5.5 0 0 1 .047.568l-.654 1.132a.5.5 0 0 1-.515.243l-.7-.116a.5.5 0 0 0-.551.317l-.25.666ZM11.69 15h.615l.128-.34a1.5 1.5 0 0 1 1.65-.954l.36.06.306-.532-.23-.281a1.5 1.5 0 0 1 0-1.906l.23-.281-.307-.532-.359.06a1.5 1.5 0 0 1-1.65-.953L12.305 9h-.614l-.128.34a1.5 1.5 0 0 1-1.65.954l-.36-.06-.307.532.232.281a1.5 1.5 0 0 1 0 1.906l-.232.281.307.532.36-.06a1.5 1.5 0 0 1 1.65.953l.128.341Z" clip-rule="evenodd"/>
  <path fill="none" class="tertiary" fill-rule="evenodd" d="M12.309 15h-.614l-.128-.34a1.5 1.5 0 0 0-1.65-.954l-.36.06-.307-.532.231-.281a1.5 1.5 0 0 0 0-1.906l-.231-.281.307-.532.36.06a1.5 1.5 0 0 0 1.65-.953L11.695 9h.614l.127.34a1.5 1.5 0 0 0 1.651.954l.36-.06.306.532-.231.281a1.5 1.5 0 0 0 0 1.906l.231.281-.307.532-.359-.06a1.5 1.5 0 0 0-1.65.953l-.128.341Zm.693-3a1 1 0 1 1-2 0 1 1 0 0 1 2 0Z" clip-rule="evenodd"/>
</svg>
