<svg xmlns="http://www.w3.org/2000/svg" width="20" height="20" fill="currentColor" viewBox="0 0 20 20">
  <path fill-rule="evenodd" d="M4.204 10.451c.082.29.237.564.465.793l4.09 4.083A6.365 6.365 0 0 1 8.75 15v-.01a6.3 6.3 0 0 1 .206-1.586l-3.225-3.22-.002-.002a.32.32 0 0 1 0-.449l.002-.001 6.11-6.102a.32.32 0 0 1 .453 0l6.11 6.102.002.001c.016.017.03.035.042.053.477.316.908.696 1.28 1.127a1.82 1.82 0 0 0-.262-2.241l-.002-.002-6.109-6.1-.001-.001a1.823 1.823 0 0 0-2.573 0l-.001.002-.367.366-.001-.002-.78-.777v-.002a1.823 1.823 0 0 0-2.575.002L.533 8.672a1.817 1.817 0 0 0 0 2.572l6.524 6.514.002.002a1.815 1.815 0 0 0 1.836.446 1.818 1.818 0 0 0 .57-.3 6.213 6.213 0 0 1-.564-1.536l-.33.328a.321.321 0 0 1-.452 0l-6.524-6.514-.002-.002a.32.32 0 0 1 0-.449l.002-.001 6.524-6.514a.32.32 0 0 1 .452 0l.78.779-4.68 4.673-.002.002a1.81 1.81 0 0 0-.465 1.78Z" clip-rule="evenodd"/>
  <path fill="none" class="tertiary" fill-rule="evenodd" d="M15.386 18.75h-.768l-.16-.426a1.875 1.875 0 0 0-2.063-1.191l-.449.074-.383-.664.289-.352a1.875 1.875 0 0 0 0-2.382l-.29-.352.384-.664.45.074a1.875 1.875 0 0 0 2.062-1.19l.16-.427h.768l.16.426a1.875 1.875 0 0 0 2.063 1.191l.449-.074.384.664-.29.352c-.57.692-.57 1.69 0 2.382l.29.352-.384.664-.45-.074a1.875 1.875 0 0 0-2.063 1.19l-.16.427Zm.866-3.75a1.25 1.25 0 1 1-2.5 0 1.25 1.25 0 0 1 2.5 0Z" clip-rule="evenodd"/>
  <path class="secondary" d="M14.997 16.25a1.25 1.25 0 1 0 0-2.5 1.25 1.25 0 0 0 0 2.5Z"/>
  <path class="secondary" fill-rule="evenodd" d="M16.4 19.595a.625.625 0 0 1-.586.405H14.18a.625.625 0 0 1-.585-.405l-.312-.832a.625.625 0 0 0-.687-.397l-.877.146a.625.625 0 0 1-.643-.305l-.817-1.414a.625.625 0 0 1 .058-.71l.565-.686a.625.625 0 0 0 0-.794l-.565-.686a.625.625 0 0 1-.058-.71l.817-1.414a.625.625 0 0 1 .643-.304l.877.145a.625.625 0 0 0 .687-.397l.312-.832A.625.625 0 0 1 14.18 10h1.634c.26 0 .494.162.585.405l.312.832c.105.28.393.446.688.397l.876-.146a.625.625 0 0 1 .644.305l.817 1.414a.625.625 0 0 1-.059.71l-.564.686a.625.625 0 0 0 0 .794l.564.686a.625.625 0 0 1 .059.71l-.817 1.414a.625.625 0 0 1-.644.305l-.876-.146a.625.625 0 0 0-.688.397l-.312.831Zm-1.786-.845h.767l.16-.426a1.875 1.875 0 0 1 2.063-1.191l.449.074.384-.664-.29-.352a1.875 1.875 0 0 1 0-2.382l.29-.352-.384-.664-.449.074a1.875 1.875 0 0 1-2.063-1.19l-.16-.427h-.767l-.16.426a1.875 1.875 0 0 1-2.064 1.191l-.448-.074-.384.664.289.352c.57.692.57 1.69 0 2.382l-.29.352.385.664.448-.074a1.875 1.875 0 0 1 2.064 1.19l.16.427Z" clip-rule="evenodd"/>
</svg>
