<svg xmlns="http://www.w3.org/2000/svg" width="12" height="12" fill="currentColor" viewBox="0 0 12 12">
  <path fill-rule="evenodd" d="M6.525 9.164 3.465 6.11v-.001a.154.154 0 0 1 0-.216V5.89l3.666-3.66c.06-.06.158-.06.219 0l2.836 2.832a2.478 2.478 0 0 1 1.756 1.287 1.09 1.09 0 0 0-.263-1.12L8.012 1.565a1.094 1.094 0 0 0-1.543 0l-.221.221-.468-.467a1.094 1.094 0 0 0-1.546 0L.32 5.228a1.09 1.09 0 0 0 0 1.543l3.914 3.909a1.094 1.094 0 0 0 1.546 0l.468-.467.22.22.057.052v-1.32Zm-.985.342-.468.467a.092.092 0 0 1-.13 0L1.028 6.065a.092.092 0 0 1 0-.13l3.914-3.909a.092.092 0 0 1 .13 0l.468.468-2.738 2.734a1.086 1.086 0 0 0-.314.892c.027.238.131.469.314.651l2.672 2.67.066.065Z" clip-rule="evenodd"/>
  <path fill-rule="evenodd" d="M11.25 8.25V7.5a1.5 1.5 0 0 0-3 0v.75A.75.75 0 0 0 7.5 9v2.25c0 .414.336.75.75.75h3a.75.75 0 0 0 .75-.75V9a.75.75 0 0 0-.75-.75ZM9 7.5a.75.75 0 0 1 1.5 0v.75H9V7.5Zm-.75 3.75V9h3v2.25h-3Z" clip-rule="evenodd"/>
  <path fill="none" class="secondary" d="M8.25 9h3v2.25h-3z"/>
</svg>
