<svg xmlns="http://www.w3.org/2000/svg" width="12" height="12" fill="currentColor" viewBox="0 0 12 12">
  <path fill-rule="evenodd" d="M5.51 10.878c.062-.033.122-.071.179-.117a3.724 3.724 0 0 1-.368-1.03l-.249.242a.092.092 0 0 1-.13 0L1.028 6.065a.092.092 0 0 1 0-.13l3.914-3.909a.092.092 0 0 1 .13 0l.468.468-2.738 2.734a1.09 1.09 0 0 0 0 1.543l2.454 2.452A3.808 3.808 0 0 1 5.38 8.02L3.465 6.11a.154.154 0 0 1 0-.218L7.131 2.23c.06-.06.159-.06.219 0l3.53 3.524c.365.213.692.485.966.804a1.09 1.09 0 0 0-.166-1.33l-3.667-3.66a1.094 1.094 0 0 0-1.545 0l-.22.219-.468-.467a1.092 1.092 0 0 0-1.546 0L.32 5.228a1.09 1.09 0 0 0 0 1.543l3.914 3.909c.346.345.864.41 1.275.198Z" clip-rule="evenodd"/>
  <path class="secondary" d="M8.998 9.75a.75.75 0 1 0 0-1.5.75.75 0 0 0 0 1.5Z"/>
  <path class="secondary" fill-rule="evenodd" d="M9.84 11.757a.375.375 0 0 1-.351.243h-.98a.375.375 0 0 1-.352-.243l-.187-.5a.375.375 0 0 0-.413-.238l-.525.088a.375.375 0 0 1-.387-.182l-.49-.85a.375.375 0 0 1 .035-.425l.339-.412a.375.375 0 0 0 0-.476L6.19 8.35a.375.375 0 0 1-.035-.426l.49-.848a.375.375 0 0 1 .387-.183l.525.088c.177.029.35-.07.413-.239l.187-.499A.375.375 0 0 1 8.508 6h.98c.157 0 .297.097.352.243l.187.5a.375.375 0 0 0 .412.238l.526-.088a.375.375 0 0 1 .386.183l.49.848a.375.375 0 0 1-.035.426l-.338.412a.375.375 0 0 0 0 .476l.338.412c.1.12.114.29.036.425l-.49.85a.375.375 0 0 1-.387.182l-.526-.088a.375.375 0 0 0-.412.239l-.187.499Zm-1.072-.507h.46l.097-.256a1.125 1.125 0 0 1 1.238-.714l.269.044.23-.398-.173-.211a1.125 1.125 0 0 1 0-1.43l.173-.21-.23-.4-.27.045a1.125 1.125 0 0 1-1.237-.714l-.096-.256h-.46l-.097.256a1.125 1.125 0 0 1-1.238.714l-.269-.044-.23.398.173.211a1.125 1.125 0 0 1 0 1.43l-.173.21.23.4.27-.045c.53-.089 1.048.21 1.237.714l.096.256Z" clip-rule="evenodd"/>
  <path fill="none" class="tertiary" fill-rule="evenodd" d="M9.231 11.25h-.46l-.096-.256a1.125 1.125 0 0 0-1.238-.714l-.27.044-.23-.398.174-.211a1.125 1.125 0 0 0 0-1.43l-.173-.21.23-.4.27.045c.53.089 1.048-.21 1.237-.714l.096-.256h.46l.096.256c.19.503.708.803 1.238.714l.27-.044.23.398-.174.211a1.125 1.125 0 0 0 0 1.43l.174.21-.23.4-.27-.045a1.125 1.125 0 0 0-1.238.714l-.096.256ZM9.751 9a.75.75 0 1 1-1.5 0 .75.75 0 0 1 1.5 0Z" clip-rule="evenodd"/>
</svg>
