<svg xmlns="http://www.w3.org/2000/svg" width="12" height="12" fill="currentColor" viewBox="0 0 12 12">
  <g class="buildType-composite-arrow-12px">
    <path fill-rule="evenodd" d="M1.75 1a.75.75 0 0 0 0 1.5h8.5a.75.75 0 0 0 0-1.5h-8.5Zm.446 10h5.231l-.7-1.053-4.653.002V5.051h7.852V6.75H11V5.355c.015-.439.01-.704-.31-1.033-.342-.324-.598-.323-.93-.322H2.29c-.384-.004-.7.008-1.006.352-.291.299-.288.569-.285.894L1 5.355V9.67c0 .364 0 .69.324 1.024.331.31.564.309.872.306ZM6 7.5h5.985L11 8.98 9.657 11l-.665 1L6 7.5Z" class="Union" clip-rule="evenodd"/>
  </g>
</svg>
