<svg xmlns="http://www.w3.org/2000/svg" width="20" height="20" fill="currentColor" viewBox="0 0 20 20">
  <path d="M19.974 12.5 14.987 20 10 12.5h9.974Z" class="Vector"/>
  <path fill-rule="evenodd" d="M1.25 3.438c0-.518.42-.938.938-.938h15.624a.937.937 0 1 1 0 1.875H2.188a.937.937 0 0 1-.937-.938ZM2.929 19c-.53 0-.985-.19-1.362-.573A1.888 1.888 0 0 1 1 17.05v-9.1c0-.536.189-.995.567-1.377A1.847 1.847 0 0 1 2.929 6H17.07c.53 0 .985.19 1.362.573.378.382.567.84.567 1.377v3.3H7.668L12.82 19H2.93Zm12.723 0h-1.33L10 12.5h9v1.465L15.652 19Z" class="Subtract" clip-rule="evenodd"/>
</svg>
