<svg width="16" height="16" viewBox="0 0 16 16" fill="currentColor" xmlns="http://www.w3.org/2000/svg">
  <path fill-rule="evenodd" clip-rule="evenodd" d="M15.7827 8.73017C16.1044 8.21018 16.0676 7.53166 15.6725 7.0479L15.5729 6.9375L10.6845 2.05625C10.1511 1.52358 9.30668 1.49078 8.73441 1.95688L8.62384 2.05625L3.73542 6.9375L3.63522 7.04859C3.16878 7.62002 3.2021 8.46262 3.73542 8.99516L7.00673 12.2617C7.00226 12.175 7 12.0878 7 12C7 11.5386 7.06249 11.0919 7.17946 10.6677L4.61995 8.11193C4.53947 8.03156 4.53947 7.9011 4.61995 7.82073L9.50837 2.93948C9.58887 2.85936 9.71959 2.8592 9.79999 2.93948L14.5894 7.72188C15.0383 7.99417 15.4409 8.33513 15.7827 8.73017Z"/>
  <path d="M5.64551 1.72607C6.21446 1.15816 7.13711 1.15817 7.70605 1.72607L8.33008 2.3501L7.44531 3.23291L6.82129 2.60986C6.74081 2.52954 6.61075 2.52954 6.53027 2.60986L1.31152 7.8208C1.23104 7.90116 1.23104 8.03145 1.31152 8.11182L6.53027 13.3228C6.61075 13.4031 6.74081 13.4031 6.82129 13.3228L7.10742 13.0376C7.16705 13.3202 7.25129 13.5942 7.35645 13.8569C7.42064 14.0173 7.49244 14.174 7.57227 14.3257C7.00065 14.7718 6.17164 14.7317 5.64551 14.2065L0.426758 8.99561C-0.106556 8.46307 -0.140251 7.61977 0.326172 7.04834L0.426758 6.93701L5.64551 1.72607Z"/>
  <path class="secondary" d="M12 8C14.2091 8 16 9.79086 16 12C16 14.2091 14.2091 16 12 16C9.79086 16 8 14.2091 8 12C8 9.79086 9.79086 8 12 8ZM12 9C10.3431 9 9 10.3431 9 12C9 13.6569 10.3431 15 12 15C13.6569 15 15 13.6569 15 12C15 10.3431 13.6569 9 12 9ZM11.166 10.5C11.2249 10.497 11.2965 10.5416 11.4385 10.6299L13.29 11.7812C13.4075 11.8543 13.4659 11.8914 13.4863 11.9375C13.5041 11.9776 13.5041 12.0224 13.4863 12.0625C13.4659 12.1086 13.4075 12.1457 13.29 12.2188L11.4385 13.3701C11.2965 13.4584 11.2249 13.503 11.166 13.5C11.1146 13.4971 11.0672 13.4729 11.0361 13.4346C11.0005 13.3906 11 13.3109 11 13.1514V10.8486C11 10.6891 11.0005 10.6094 11.0361 10.5654C11.0672 10.5271 11.1146 10.5029 11.166 10.5Z"/>
</svg>
