<svg xmlns="http://www.w3.org/2000/svg" width="16" height="16" fill="currentColor" viewBox="0 0 16 16">
    <path d="M6.865 1.47a1.607 1.607 0 0 1 2.271 0l5.394 5.394c.153.154.269.331.347.52a1.999 1.999 0 0 0-1.855-.26l-4.77-4.77a.357.357 0 0 0-.504 0L2.355 7.748a.357.357 0 0 0 0 .503L7 12.898v1.753a1.609 1.609 0 0 1-.135-.121L1.47 9.135a1.606 1.606 0 0 1-.11-2.15l.11-.121L6.865 1.47Z"/>
    <path class="secondary" fill-rule="evenodd" d="M14.412 8.295a1 1 0 0 0-1.414 0l-1.351 1.351L8 13.293V16h2.707l4.998-4.998a1 1 0 0 0 0-1.414l-1.293-1.293ZM14 11.293l.998-.998-1.293-1.293-.998.998L14 11.293Zm-2-.586L13.293 12l-3 3H9v-1.293l3-3Z" clip-rule="evenodd"/>
</svg>
