<svg xmlns="http://www.w3.org/2000/svg" width="16" height="16" fill="currentColor" viewBox="0 0 16 16">
  <path fill="none" class="secondary" d="M6.864 1.47a1.606 1.606 0 0 1 2.272 0l5.393 5.394a1.606 1.606 0 0 1 0 2.272l-.509.507c-.933-.97-2.602-.84-3.338.387l-2.4 4.002A1.943 1.943 0 0 0 8 15c-.411 0-.822-.157-1.136-.47L1.471 9.135a1.606 1.606 0 0 1 0-2.272L6.864 1.47Z"/>
  <path fill-rule="evenodd" d="M11.54 10.544a1.12 1.12 0 0 1 1.92 0l2.4 4.001A.96.96 0 0 1 15.039 16H9.96a.96.96 0 0 1-.823-1.454l2.401-4ZM12.5 14a.5.5 0 1 0 .001 1 .5.5 0 0 0 0-1Zm0-3a.5.5 0 0 0-.5.5v1a.5.5 0 1 0 1 0v-1a.5.5 0 0 0-.5-.5Z" clip-rule="evenodd"/>
  <path d="M6.865 1.47a1.607 1.607 0 0 1 2.271 0l5.394 5.394a1.607 1.607 0 0 1 0 2.271l-.51.508a2.09 2.09 0 0 0-1.155-.611l.78-.78a.357.357 0 0 0 0-.504L8.253 2.354a.357.357 0 0 0-.504 0L2.355 7.748a.357.357 0 0 0 0 .503l5.393 5.394c.14.139.365.139.504 0l.653-.653-.623 1.04c-.187.31-.275.642-.282.966-.41 0-.822-.155-1.135-.47L1.47 9.136a1.606 1.606 0 0 1-.11-2.15l.11-.121L6.865 1.47Z"/>
</svg>
