<svg xmlns="http://www.w3.org/2000/svg" width="12" height="12" fill="currentColor" viewBox="0 0 12 12">
  <path fill="none" class="secondary" d="M6.468 1.542a1.094 1.094 0 0 1 1.545 0l3.667 3.662a1.09 1.09 0 0 1 0 1.542l-.88.878-.061-.102a1.59 1.59 0 0 0-2.727 0L6.351 10.29l-3.55-3.544a1.09 1.09 0 0 1 0-1.542l3.667-3.662Z"/>
  <path fill-rule="evenodd" d="M8.654 7.908a.84.84 0 0 1 1.442 0l1.8 3.002a.72.72 0 0 1-.618 1.09H7.472a.72.72 0 0 1-.618-1.09l1.8-3.002Zm.721 2.592a.375.375 0 1 0 0 .75.375.375 0 0 0 0-.75Zm0-2.25A.375.375 0 0 0 9 8.625v.75a.375.375 0 0 0 .75 0v-.75a.375.375 0 0 0-.375-.375Z" clip-rule="evenodd"/>
  <path d="M4.317 1.244a1.095 1.095 0 0 1 1.462.075l.468.467-.707.706-.468-.467a.093.093 0 0 0-.13 0l-3.915 3.91a.093.093 0 0 0 0 .13l3.915 3.909a.093.093 0 0 0 .13 0l.468-.468L2.802 6.77a1.09 1.09 0 0 1 0-1.542l3.665-3.662a1.095 1.095 0 0 1 1.546 0l3.666 3.66.076.084c.326.4.326.978 0 1.377l-.076.083-.87.869-.07-.119a1.576 1.576 0 0 0-.575-.562l.852-.85c.06-.06.06-.16 0-.22L7.35 2.23a.156.156 0 0 0-.22 0L3.466 5.891a.154.154 0 0 0 0 .217l3.373 3.369-.497.829-.095-.094-.467.468-.083.075c-.4.326-.978.326-1.379 0l-.083-.075L.32 6.77a1.09 1.09 0 0 1 0-1.541l3.915-3.91.083-.075Z"/>
</svg>
