<svg xmlns="http://www.w3.org/2000/svg" width="12" height="12" fill="currentColor" viewBox="0 0 12 12">
  <path fill="none" class="secondary" stroke="currentColor" d="m1.673 5.583 3.91-3.91a.59.59 0 0 1 .834 0l3.91 3.91a.59.59 0 0 1 0 .834l-3.91 3.91a.59.59 0 0 1-.834 0l-3.91-3.91a.59.59 0 0 1 0-.834Z"/>
  <path fill-rule="evenodd" d="m5.936 2.026-3.91 3.91a.09.09 0 0 0 0 .128l3.91 3.91a.09.09 0 0 0 .128 0l3.91-3.91a.09.09 0 0 0 0-.128l-3.91-3.91a.09.09 0 0 0-.128 0ZM1.32 5.23a1.09 1.09 0 0 0 0 1.542l3.91 3.91a1.09 1.09 0 0 0 1.542 0l3.91-3.91a1.09 1.09 0 0 0 0-1.542l-3.91-3.91a1.09 1.09 0 0 0-1.542 0L1.32 5.23Z" class="Build (Stroke)" clip-rule="evenodd"/>
</svg>
