<svg xmlns="http://www.w3.org/2000/svg" width="20" height="20" fill="currentColor" viewBox="0 0 20 20">
  <path fill-rule="evenodd" d="M10.412 16.98h.001l.368.367c.03.03.062.06.094.087v-2.113l-5.144-5.137-.002-.002a.32.32 0 0 1 0-.449l.002-.001 6.11-6.101a.32.32 0 0 1 .453 0l4.847 4.84a4.132 4.132 0 0 1 2.754 2.095 1.817 1.817 0 0 0-.43-1.894l-6.111-6.103a1.823 1.823 0 0 0-2.573 0l-.368.368-.001-.002-.78-.779a1.823 1.823 0 0 0-2.573 0L.533 8.672a1.817 1.817 0 0 0 0 2.572L7.06 17.76c.71.708 1.862.708 2.572 0l.78-.78ZM4.67 11.245l4.682 4.675-.78.78a.32.32 0 0 1-.453 0l-6.524-6.515-.002-.002a.32.32 0 0 1 0-.449l.002-.001 6.524-6.514a.32.32 0 0 1 .453 0l.78.779L4.67 8.672a1.81 1.81 0 0 0-.466 1.78c.082.29.237.563.466.792Z" clip-rule="evenodd"/>
  <path fill-rule="evenodd" d="M18.75 13.75V12.5a2.5 2.5 0 0 0-5 0v1.25c-.69 0-1.25.56-1.25 1.25v3.75c0 .69.56 1.25 1.25 1.25h5c.69 0 1.25-.56 1.25-1.25V15c0-.69-.56-1.25-1.25-1.25ZM15 12.5a1.25 1.25 0 1 1 2.5 0v1.25H15V12.5Zm-1.25 6.25V15h5v3.75h-5Z" clip-rule="evenodd"/>
  <path fill="none" class="secondary" d="M13.75 15h5v3.75h-5z"/>
</svg>
