<svg width="16" height="16" viewBox="0 0 16 16" fill="currentColor" xmlns="http://www.w3.org/2000/svg">
  <path fill="none" class="secondary" d="M6.86475 1.47021C7.49197 0.843305 8.50913 0.843111 9.13623 1.47021L14.5298 6.86475C14.8431 7.17817 14.9994 7.58877 14.9995 7.99951C14.164 7.37211 13.1257 7.00057 12.0005 7.00049C9.23906 7.00049 7.00049 9.23906 7.00049 12.0005C7.00057 13.1257 7.37211 14.164 7.99951 14.9995C7.58877 14.9994 7.17817 14.8431 6.86475 14.5298L1.47021 9.13623C0.843111 8.50913 0.843305 7.49197 1.47021 6.86475L6.86475 1.47021Z"/>
  <path d="M6.86475 1.47021C7.49197 0.843289 8.50912 0.843105 9.13623 1.47021L14.5298 6.86475C14.8431 7.17818 14.9994 7.58876 14.9995 7.99951C14.4176 7.5625 13.7372 7.24985 12.9976 7.1001L8.25146 2.354C8.11248 2.21542 7.88748 2.21536 7.74854 2.354L2.354 7.74854C2.21539 7.88748 2.21543 8.11249 2.354 8.25146L7.1001 12.9976C7.24985 13.7372 7.5625 14.4176 7.99951 14.9995C7.58877 14.9994 7.17817 14.8431 6.86475 14.5298L1.47021 9.13525C0.843488 8.50812 0.843444 7.49185 1.47021 6.86475L6.86475 1.47021Z"/>
  <path d="M12 8C14.2091 8 16 9.79086 16 12C16 14.2091 14.2091 16 12 16C9.79086 16 8 14.2091 8 12C8 9.79086 9.79086 8 12 8ZM12 9.14258C10.422 9.14258 9.14258 10.422 9.14258 12C9.14258 13.578 10.422 14.8574 12 14.8574C13.578 14.8574 14.8574 13.578 14.8574 12C14.8574 10.422 13.578 9.14258 12 9.14258ZM12.624 10.5674C12.8472 10.3442 13.2095 10.3442 13.4326 10.5674C13.6558 10.7905 13.6558 11.1528 13.4326 11.376L12.8086 12L13.4326 12.624C13.6558 12.8472 13.6558 13.2095 13.4326 13.4326C13.2095 13.6558 12.8472 13.6558 12.624 13.4326L12 12.8086L11.376 13.4326C11.1528 13.6558 10.7905 13.6558 10.5674 13.4326C10.3442 13.2095 10.3442 12.8472 10.5674 12.624L11.1914 12L10.5674 11.376C10.3442 11.1528 10.3442 10.7905 10.5674 10.5674C10.7905 10.3442 11.1528 10.3442 11.376 10.5674L12 11.1914L12.624 10.5674Z"/>
</svg>
