<svg xmlns="http://www.w3.org/2000/svg" width="20" height="20" fill="currentColor" viewBox="0 0 20 20">
  <path fill="none" class="secondary" fill-rule="evenodd" d="M4.669 8.673a1.815 1.815 0 0 0 0 2.57l5.127 5.12a5.875 5.875 0 0 1 9.704-5.154 1.815 1.815 0 0 0-.033-2.536L13.355 2.57a1.822 1.822 0 0 0-2.574 0L4.669 8.673Z" clip-rule="evenodd"/>
  <path fill-rule="evenodd" d="M19.5 11.209a1.817 1.817 0 0 0-.034-2.537l-6.11-6.101-.002-.002a1.823 1.823 0 0 0-2.573 0l-.001.002-.367.366-.001-.002-.779-.777-.002-.002a1.823 1.823 0 0 0-2.572 0l-.002.002L.533 8.672a1.817 1.817 0 0 0 0 2.572l6.524 6.514.002.002c.71.708 1.862.708 2.572 0l.002-.002.383-.382a5.897 5.897 0 0 1-.124-3.038L5.73 10.184l-.002-.002a.32.32 0 0 1 0-.449l.002-.001 6.11-6.101a.32.32 0 0 1 .453 0l6.11 6.1.002.002a.32.32 0 0 1 0 .45l-.002.001-.174.174c.461.228.887.515 1.27.85Zm-14.83.035 4.682 4.675-.78.78a.32.32 0 0 1-.453 0l-6.524-6.515-.002-.002a.32.32 0 0 1 0-.449l.002-.001 6.524-6.514a.32.32 0 0 1 .453 0l.78.779L4.67 8.672a1.81 1.81 0 0 0-.466 1.78c.082.29.237.563.466.792Z" clip-rule="evenodd"/>
  <path fill-rule="evenodd" d="M15.625 20a4.375 4.375 0 1 0 0-8.75 4.375 4.375 0 0 0 0 8.75ZM15 13.125a.625.625 0 1 1 1.25 0v2.5a.625.625 0 1 1-1.25 0v-2.5Zm1.25 5a.625.625 0 1 1-1.25 0 .625.625 0 0 1 1.25 0Z" clip-rule="evenodd"/>
</svg>
