<svg xmlns="http://www.w3.org/2000/svg" width="20" height="20" fill="currentColor" viewBox="0 0 20 20">
  <g class="build-composite-arrow-20px">
    <path fill="none" d="M2.929 19c-.53 0-.985-.19-1.362-.573A1.888 1.888 0 0 1 1 17.05v-9.1c0-.536.189-.995.567-1.377A1.847 1.847 0 0 1 2.929 6H17.07c.53 0 .985.19 1.362.573.378.382.567.84.567 1.377v4.55c0 .686-3.509 6.5-4.5 6.5H2.929Z" class="secondary"/>
    <path fill-rule="evenodd" d="M1 3.85c0-.47.38-.85.85-.85h16.3a.85.85 0 0 1 0 1.7H1.85A.85.85 0 0 1 1 3.85ZM15.652 19l-.665 1L10 12.5h9.974L19 13.965l-1.696 2.55-.487.733L15.652 19ZM2.929 19c-.53 0-.985-.19-1.362-.573A1.888 1.888 0 0 1 1 17.05v-9.1c0-.536.189-.995.567-1.377A1.847 1.847 0 0 1 2.929 6H17.07c.53 0 .985.19 1.362.573.378.382.567.84.567 1.377v3.3h-1.696V7.695H2.709v9.553h8.947L12.822 19H2.93Z" class="Union" clip-rule="evenodd"/>
  </g>
</svg>
