<svg xmlns="http://www.w3.org/2000/svg" width="12" height="12" fill="currentColor" viewBox="0 0 12 12">
  <path fill="none" class="secondary" d="M5.229 1.32a1.09 1.09 0 0 1 1.542 0l3.91 3.909a1.09 1.09 0 0 1 0 1.542l-.322.321a1.59 1.59 0 0 0-2.347.43L6.21 10.524c-.092.153-.15.314-.182.474a1.087 1.087 0 0 1-.8-.317l-3.91-3.91a1.09 1.09 0 0 1 0-1.542l3.91-3.91Z"/>
  <path fill-rule="evenodd" d="M8.654 7.908a.84.84 0 0 1 1.442 0l1.8 3.002a.72.72 0 0 1-.618 1.09H7.472a.72.72 0 0 1-.619-1.09l1.801-3.002Zm.721 2.592a.375.375 0 1 0 0 .751.375.375 0 0 0 0-.75Zm0-2.25A.375.375 0 0 0 9 8.625v.75a.376.376 0 0 0 .75 0v-.75a.375.375 0 0 0-.375-.375Z" clip-rule="evenodd"/>
  <path d="M5.23 1.32a1.09 1.09 0 0 1 1.54 0l3.91 3.91a1.09 1.09 0 0 1 0 1.54l-.322.322a1.585 1.585 0 0 0-1.077-.337l.693-.691a.09.09 0 0 0 0-.127l-3.91-3.91a.09.09 0 0 0-.128 0l-3.91 3.91a.09.09 0 0 0 0 .127l3.91 3.91a.09.09 0 0 0 .127 0L7.256 8.78 6.21 10.524c-.092.153-.15.314-.182.474a1.087 1.087 0 0 1-.718-.242l-.082-.075-3.91-3.91a1.091 1.091 0 0 1-.075-1.46l.075-.081 3.91-3.91Z"/>
</svg>
