<svg xmlns="http://www.w3.org/2000/svg" width="16" height="16" fill="currentColor" viewBox="0 0 16 16">
  <path d="M3.49 15c-.815 0-1.434-.208-1.86-.623-.42-.415-.63-1.03-.63-1.844V3.475c0-.814.21-1.43.63-1.844C2.056 1.21 2.675 1 3.49 1h9.02c.82 0 1.44.21 1.86.63.42.421.63 1.036.63 1.845v9.058c0 .809-.21 1.421-.63 1.836-.42.42-1.04.631-1.86.631H3.49Zm.118-1.569h8.784c.331 0 .586-.086.764-.26.179-.173.268-.436.268-.788V3.625c0-.352-.089-.615-.268-.788-.178-.174-.433-.26-.764-.26H3.608c-.331 0-.586.086-.764.26-.174.173-.26.436-.26.788v8.758c0 .352.086.615.26.788.178.174.433.26.764.26Z"/>
</svg>
