<svg xmlns="http://www.w3.org/2000/svg" width="20" height="20" fill="currentColor" viewBox="0 0 20 20">
    <path d="M7.057 2.158a1.824 1.824 0 0 1 2.576 0l.779.779.368-.366.138-.125a1.824 1.824 0 0 1 2.438.125l6.11 6.1.125.14c.394.483.501 1.12.324 1.69l-1.016-1.016a2.49 2.49 0 0 0-1.554-.722L12.25 3.675c-.1-.1-.263-.1-.364 0l-6.11 6.102a.255.255 0 0 0 0 .363l4.468 4.463-1.104 1.105-4.47-4.463a1.819 1.819 0 0 1-.126-2.434l.125-.14 4.638-4.63-.78-.778c-.1-.1-.264-.1-.364 0L1.64 9.777c-.1.1-.1.263 0 .363l6.523 6.514c.1.1.263.1.364 0l.223-.222v1.814a1.824 1.824 0 0 1-1.693-.487L.534 11.245a1.819 1.819 0 0 1-.126-2.434l.126-.14 6.523-6.513Z"/>
    <path class="secondary" fill-rule="evenodd" d="M18.015 10.369a1.25 1.25 0 0 0-1.768 0l-1.689 1.689L10 16.616V20h3.384l6.247-6.248a1.25 1.25 0 0 0 0-1.767l-1.616-1.616Zm-.515 3.747 1.247-1.247-1.616-1.617-1.247 1.248 1.616 1.616Zm-2.5-.732L16.616 15l-3.75 3.75H11.25v-1.616l3.75-3.75Z" clip-rule="evenodd"/>
</svg>
