<svg xmlns="http://www.w3.org/2000/svg" width="16" height="16" fill="currentColor" viewBox="0 0 16 16">
  <path fill="none" class="secondary" fill-rule="evenodd" d="M1.47 6.864a1.606 1.606 0 0 0 0 2.272l5.394 5.394c.423.423 1.023.56 1.561.413a4.75 4.75 0 0 1 6.517-6.517 1.605 1.605 0 0 0-.412-1.562L9.136 1.47a1.606 1.606 0 0 0-2.272 0L1.47 6.864Z" clip-rule="evenodd"/>
  <path fill-rule="evenodd" d="m2.354 7.748 5.394-5.394a.356.356 0 0 1 .504 0l5.394 5.394a.354.354 0 0 1 .093.165c.428.116.833.29 1.204.512a1.605 1.605 0 0 0-.413-1.56L9.136 1.47a1.606 1.606 0 0 0-2.272 0L1.47 6.864a1.606 1.606 0 0 0 0 2.272l5.394 5.394c.423.423 1.023.56 1.561.413a4.722 4.722 0 0 1-.512-1.204.354.354 0 0 1-.165-.093L2.354 8.252a.356.356 0 0 1 0-.504Z" clip-rule="evenodd"/>
  <path fill-rule="evenodd" d="M12.5 16a3.5 3.5 0 1 0 0-7 3.5 3.5 0 0 0 0 7Zm-.5-5.5a.5.5 0 0 1 1 0v2a.5.5 0 0 1-1 0v-2Zm1 4a.5.5 0 1 1-1 0 .5.5 0 0 1 1 0Z" clip-rule="evenodd"/>
</svg>
