<svg xmlns="http://www.w3.org/2000/svg" width="20" height="20" fill="currentColor" viewBox="0 0 20 20">
  <g class="build-arrow-20px">
    <path fill="none" d="M1.81 18.2c.547.533 1.344.8 2.39.8h10.3c1.114 0 4.5-5.594 4.5-6.5V4.182c0-1.04-.27-1.83-.81-2.371C17.65 1.27 16.853 1 15.8 1H4.2c-1.046 0-1.843.27-2.39.81C1.27 2.346 1 3.136 1 4.183v11.646c0 1.047.27 1.838.81 2.371Z" class="secondary"/>
    <path fill-rule="evenodd" d="M4.2 19c-1.046 0-1.843-.267-2.39-.8-.54-.534-.81-1.325-.81-2.372V4.182c0-1.047.27-1.837.81-2.371C2.357 1.27 3.154 1 4.2 1h11.6c1.053 0 1.85.27 2.39.81.54.541.81 1.332.81 2.372v7.068h-1.701v-1.12l-.07-6.133c0-.453-.251-.784-.48-1.007-.23-.223-.676-.285-1.102-.285H10l-6.054-.039c-.425 0-.753.112-.982.335-.223.222-.334.56-.334 1.013l.056 5.991v5.63c0 .453.091 1.142.314 1.365.23.223.9.291 1.325.291l7.372.019L12.821 19h-8.62Zm13.1-6.5H10l4.987 7.5.665-1 1.305-1.962.21-.317L19 13.965l.974-1.465H17.3Z" class="Union" clip-rule="evenodd"/>
  </g>
</svg>
