<svg xmlns="http://www.w3.org/2000/svg" width="12" height="12" fill="currentColor" viewBox="0 0 12 12">
  <g class="buildType-12px">
    <path d="M2.778 11c-.581 0-1.024-.148-1.328-.445C1.15 10.26 1 9.82 1 9.238v-6.47c0-.582.15-1.021.45-1.318.304-.3.747-.45 1.328-.45h6.444c.585 0 1.028.15 1.328.45.3.3.45.74.45 1.318v6.47c0 .578-.15 1.015-.45 1.312-.3.3-.743.45-1.328.45H2.778Zm.085-1.12h6.274c.237 0 .419-.062.546-.186.128-.124.192-.312.192-.563V2.875c0-.252-.064-.44-.192-.563-.127-.124-.31-.186-.546-.186H2.863c-.237 0-.419.062-.546.186-.124.124-.186.312-.186.563v6.256c0 .251.062.439.186.563.127.124.31.185.546.185Z" class="Icon"/>
  </g>
</svg>
