<svg width="16" height="16" viewBox="0 0 16 16" fill="currentColor" xmlns="http://www.w3.org/2000/svg">
  <path fill="none" class="secondary" d="M8.62451 2.05566C9.19307 1.48794 10.1145 1.48798 10.6831 2.05566L15.5728 6.93848C16.06 7.42506 16.1278 8.16883 15.7798 8.72949C14.863 7.67066 13.51 7 11.9995 7C9.23817 7.0001 6.99951 9.23864 6.99951 12C6.99952 12.0875 7.00191 12.1744 7.00635 12.2607L3.73486 8.99414C3.16632 8.42643 3.16639 7.50623 3.73486 6.93848L8.62451 2.05566Z"/>
  <path fill-rule="evenodd" clip-rule="evenodd" d="M15.7827 8.73017C16.1044 8.21018 16.0676 7.53166 15.6725 7.0479L15.5729 6.9375L10.6845 2.05625C10.1511 1.52358 9.30668 1.49078 8.73441 1.95688L8.62384 2.05625L3.73542 6.9375L3.63522 7.04859C3.16878 7.62002 3.2021 8.46262 3.73542 8.99516L7.00673 12.2617C7.00226 12.175 7 12.0878 7 12C7 11.5386 7.06249 11.0919 7.17946 10.6677L4.61995 8.11193C4.53947 8.03156 4.53947 7.9011 4.61995 7.82073L9.50837 2.93948C9.58887 2.85936 9.71959 2.8592 9.79999 2.93948L14.5894 7.72188C15.0383 7.99417 15.4409 8.33513 15.7827 8.73017Z"/>
  <path d="M5.64551 1.72607C6.21446 1.15816 7.13711 1.15817 7.70605 1.72607L8.33008 2.3501L7.44531 3.23291L6.82129 2.60986C6.74081 2.52954 6.61075 2.52954 6.53027 2.60986L1.31152 7.8208C1.23104 7.90116 1.23104 8.03145 1.31152 8.11182L6.53027 13.3228C6.61075 13.4031 6.74081 13.4031 6.82129 13.3228L7.10742 13.0376C7.16705 13.3202 7.25129 13.5942 7.35645 13.8569C7.42064 14.0173 7.49244 14.174 7.57227 14.3257C7.00065 14.7718 6.17164 14.7317 5.64551 14.2065L0.426758 8.99561C-0.106556 8.46307 -0.140251 7.61977 0.326172 7.04834L0.426758 6.93701L5.64551 1.72607Z"/>
  <path class="tertiary" d="M12 8.00049C12.2817 8.00049 12.4922 8.24244 12.4922 8.52414V8.69225C12.4922 8.95061 12.2584 9.14307 12 9.14307C10.422 9.14307 9.14258 10.4225 9.14258 12.0005C9.14284 13.5782 10.4222 14.8569 12 14.8569C13.5778 14.8569 14.8572 13.5782 14.8574 12.0005C14.8574 11.7232 15.062 11.4702 15.3392 11.4702H15.4762C15.7553 11.4702 15.9964 11.6772 15.9997 11.9562C15.9999 11.971 16 11.9857 16 12.0005C15.9997 14.2094 14.209 16.0005 12 16.0005C9.79102 16.0005 8.00026 14.2094 8 12.0005C8 9.79135 9.79086 8.00049 12 8.00049Z"/>
</svg>
