<svg xmlns="http://www.w3.org/2000/svg" width="12" height="12" fill="currentColor" viewBox="0 0 12 12">
  <path fill="none" class="secondary" fill-rule="evenodd" d="M1.725 7c.337 0 .648-.109.9-.294.252.185.563.294.9.294h1.2c.842 0 1.525-.683 1.525-1.525V1.029c.19.045.372.142.521.29l3.91 3.91c.246.246.35.58.311.9a3.625 3.625 0 0 0-4.862 4.862 1.087 1.087 0 0 1-.9-.31L1.547 7h.178Z" clip-rule="evenodd"/>
  <path fill-rule="evenodd" d="M2.625 6.706a1.515 1.515 0 0 1-.9.294h-.176l3.68 3.681a1.088 1.088 0 0 0 .901.311 3.581 3.581 0 0 1-.354-1.178L2.753 6.79a1.342 1.342 0 0 1-.128-.084Zm7.189-.93L6.25 2.213V1.029c.197.046.378.147.521.29l3.91 3.91a1.088 1.088 0 0 1 .311.901 3.625 3.625 0 0 0-1.178-.354Zm2 4.603c-.136.32-.334.61-.583.852v.001A2.625 2.625 0 1 1 7.518 7.52a2.625 2.625 0 0 1 4.296 2.859ZM9.302 7.508A.375.375 0 0 0 9 7.875v1.5a.375.375 0 0 0 .75 0v-1.5a.375.375 0 0 0-.448-.367Zm.216 3.719a.376.376 0 1 0-.306-.686.376.376 0 0 0 .306.686Z" clip-rule="evenodd"/>
  <path class="tertiary" fill-rule="evenodd" d="M.525 0A.525.525 0 0 0 0 .525v4.95C0 5.765.235 6 .525 6h1.2c.29 0 .525-.235.525-.525V.525A.525.525 0 0 0 1.725 0h-1.2ZM.75 5.25V.75h.75v4.5H.75ZM3.525 0A.525.525 0 0 0 3 .525v4.95c0 .29.235.525.525.525h1.2c.29 0 .525-.235.525-.525V.525A.525.525 0 0 0 4.725 0h-1.2Zm.225 5.25V.75h.75v4.5h-.75Z" clip-rule="evenodd"/>
</svg>
