<svg xmlns="http://www.w3.org/2000/svg" width="20" height="20" fill="currentColor" viewBox="0 0 20 20">
  <path fill="none" class="secondary" fill-rule="evenodd" d="M4.296 10.705c.027-.024.053-.05.079-.075.384.383.915.62 1.5.62h2A2.125 2.125 0 0 0 10 9.125V3.349l.78-.78a1.825 1.825 0 0 1 2.575 0l6.112 6.104c.7.698.71 1.824.033 2.536a5.875 5.875 0 0 0-9.704 5.154l-5.127-5.12a1.813 1.813 0 0 1-.373-.538Z" clip-rule="evenodd"/>
  <path fill-rule="evenodd" d="m.509 11.219.024.025L7.06 17.76c.71.708 1.862.708 2.572 0l.384-.384a5.897 5.897 0 0 1-.124-3.038L6.8 11.25h-.924a2.117 2.117 0 0 1-1.5-.62l-.079.075c.088.195.213.378.374.539l4.682 4.675-.78.78a.32.32 0 0 1-.453 0L2.662 11.25H.875c-.125 0-.247-.01-.366-.031ZM10 5.469V2.524l.412.411.001.002.368-.368a1.823 1.823 0 0 1 2.573 0l6.112 6.103c.7.699.71 1.824.034 2.537a5.885 5.885 0 0 0-1.27-.851l.174-.174.002-.002a.32.32 0 0 0 0-.449l-.002-.001-6.11-6.101a.322.322 0 0 0-.453 0L10 5.469Zm8.719 13.25a4.376 4.376 0 1 0-6.19-6.189 4.376 4.376 0 0 0 6.19 6.189Zm-3.536-6.036a.624.624 0 0 1 1.067.442v2.5a.625.625 0 0 1-1.25 0v-2.5c0-.166.066-.325.183-.442Zm.884 5.884a.625.625 0 1 1-.884-.883.625.625 0 0 1 .884.883Z" clip-rule="evenodd"/>
  <path class="tertiary" fill-rule="evenodd" d="M.875 0A.875.875 0 0 0 0 .875v8.25c0 .483.392.875.875.875h2a.875.875 0 0 0 .875-.875V.875A.875.875 0 0 0 2.875 0h-2Zm.375 8.75v-7.5H2.5v7.5H1.25ZM5.875 0A.875.875 0 0 0 5 .875v8.25c0 .483.392.875.875.875h2a.875.875 0 0 0 .875-.875V.875A.875.875 0 0 0 7.875 0h-2Zm.375 8.75v-7.5H7.5v7.5H6.25Z" clip-rule="evenodd"/>
</svg>
