<svg xmlns="http://www.w3.org/2000/svg" width="16" height="16" fill="currentColor" viewBox="0 0 16 16">
    <path d="M5.646 1.726a1.46 1.46 0 0 1 2.06 0l.623.624.295-.293.11-.1a1.46 1.46 0 0 1 1.95.1l4.89 4.88.099.112c.315.386.4.896.259 1.351l-.813-.812a1.991 1.991 0 0 0-1.243-.577L9.8 2.94a.206.206 0 0 0-.291 0L4.62 7.82c-.08.08-.08.21 0 .291l3.575 3.57-.883.884-3.577-3.57a1.455 1.455 0 0 1-.1-1.947l.1-.112 3.71-3.704-.624-.623a.206.206 0 0 0-.29 0L1.31 7.821c-.08.08-.08.21 0 .291l5.22 5.211c.08.08.21.08.29 0l.18-.178v1.452a1.46 1.46 0 0 1-1.355-.39L.426 8.996a1.455 1.455 0 0 1-.1-1.947l.1-.112 5.22-5.21Z"/>
    <path class="secondary" fill-rule="evenodd" d="M14.412 8.295a1 1 0 0 0-1.414 0l-1.351 1.351L8 13.293V16h2.707l4.998-4.998a1 1 0 0 0 0-1.414l-1.293-1.293ZM14 11.293l.998-.998-1.293-1.293-.998.998L14 11.293Zm-2-.586L13.293 12l-3 3H9v-1.293l3-3Z" clip-rule="evenodd"/>
</svg>
