<svg xmlns="http://www.w3.org/2000/svg" width="12" height="12" fill="currentColor" viewBox="0 0 12 12">
  <path fill="none" class="secondary" d="M2.801 6.746a1.09 1.09 0 0 1 0-1.542L6.47 1.542a1.093 1.093 0 0 1 1.544 0l3.667 3.662a1.09 1.09 0 0 1 0 1.542l-3.667 3.662a1.093 1.093 0 0 1-1.544 0L2.8 6.746Z"/>
  <path fill-rule="evenodd" d="M7.131 9.77c.06.06.158.06.219 0l3.666-3.661.001-.001a.154.154 0 0 0 0-.216l-.001-.001L7.35 2.23a.155.155 0 0 0-.219 0L3.465 5.89v.002a.154.154 0 0 0 0 .216L7.131 9.77ZM5.78 1.32a1.094 1.094 0 0 0-1.546 0L.32 5.228a1.09 1.09 0 0 0 0 1.543l3.914 3.909a1.094 1.094 0 0 0 1.546 0l.468-.467.22.22a1.094 1.094 0 0 0 1.544 0h.001L11.68 6.77a1.09 1.09 0 0 0 0-1.543l-3.666-3.66v-.002a1.094 1.094 0 0 0-1.545.001l-.22.22-.468-.467Zm-.24 8.186L2.802 6.771a1.086 1.086 0 0 1-.314-.892c.027-.238.131-.468.314-.65L5.54 2.493l-.468-.468a.092.092 0 0 0-.13 0l-3.914 3.91a.092.092 0 0 0 0 .13l3.914 3.908a.092.092 0 0 0 .13 0l.468-.467Z" clip-rule="evenodd"/>
</svg>
