<svg xmlns="http://www.w3.org/2000/svg" width="12" height="12" fill="currentColor" viewBox="0 0 12 12">
  <g class="build-composite-12px">
    <path fill="none" d="M2.29 11c-.357 0-.602.037-.966-.305C.992 10.354 1 10.02 1 9.645v-4.29c0-.375-.04-.671.284-1.003.306-.344.622-.356 1.006-.352h7.42c.357 0 .62-.018.98.322.32.329.325.594.31 1.033v4.29c0 .375.04.683-.3 1.023-.337.34-.633.332-.99.332H2.29Z" class="secondary"/>
    <path fill-rule="evenodd" d="M1.75 1a.75.75 0 1 0 0 1.5h8.5a.75.75 0 0 0 0-1.5h-8.5Zm.446 10h7.537c.347 0 .638 0 .966-.332.308-.308.305-.59.302-.918L11 9.645v-4.29c.014-.439.01-.704-.31-1.033-.342-.324-.598-.323-.93-.322H2.29c-.384-.004-.7.008-1.006.352-.291.299-.288.569-.285.894V9.67c0 .364 0 .69.325 1.024.331.31.564.309.872.306Zm7.73-1.055-7.852.004V5.051h7.852v4.894Z" class="Union" clip-rule="evenodd"/>
  </g>
</svg>
