<svg xmlns="http://www.w3.org/2000/svg" width="20" height="20" fill="currentColor" viewBox="0 0 20 20">
  <path fill-rule="evenodd" d="M4.857.804a.804.804 0 1 1 1.607 0v1.374h7.068V.804a.804.804 0 1 1 1.607 0v1.374H16.5a2.5 2.5 0 0 1 2.5 2.5V16.5a2.5 2.5 0 0 1-2.5 2.5h-13A2.5 2.5 0 0 1 1 16.5V4.678a2.5 2.5 0 0 1 2.5-2.5h1.357V.804ZM3.5 3.678h13a1 1 0 0 1 1 1v2.32h-15v-2.32a1 1 0 0 1 1-1Zm-1 4.937h15V16.5a1 1 0 0 1-1 1h-13a1 1 0 0 1-1-1V8.615Zm4.286 5.21a1.935 1.935 0 0 0 1.928-1.942 1.935 1.935 0 0 0-1.928-1.94 1.935 1.935 0 0 0-1.929 1.94c0 1.072.864 1.941 1.929 1.941Z" clip-rule="evenodd"/>
</svg>
