<svg xmlns="http://www.w3.org/2000/svg" width="13" height="12" fill="currentColor" viewBox="0 0 13 12">
  <path d="M1.5 6.5A.5.5 0 0 1 2 6h2.75a.5.5 0 0 1 0 1H2a.5.5 0 0 1-.5-.5Z"/>
  <path fill-rule="evenodd" d="M9.021 4.521a.5.5 0 1 1 .708.708l-.647.646h2.543a.5.5 0 0 1 0 1H9.082l.647.646a.5.5 0 1 1-.708.708l-1.5-1.5-.353-.354.353-.354 1.5-1.5Zm-2.292 3a.5.5 0 1 0-.708.708l.647.646H4.125a.5.5 0 0 0 0 1h2.543l-.647.646a.5.5 0 1 0 .708.708l1.5-1.5.353-.354-.353-.354-1.5-1.5Z" clip-rule="evenodd"/>
  <path d="M1.5 4.25a.5.5 0 0 1 .5-.5h4.25a.5.5 0 0 1 0 1H2a.5.5 0 0 1-.5-.5ZM1.5 2a.5.5 0 0 1 .5-.5h8a.5.5 0 0 1 0 1H2a.5.5 0 0 1-.5-.5Z" class="Rectangle"/>
</svg>
