<svg xmlns="http://www.w3.org/2000/svg" width="20" height="20" fill="currentColor" viewBox="0 0 20 20">
  <path d="M3 11.75a.75.75 0 0 1 .75-.75h4.5a.75.75 0 0 1 0 1.5h-4.5a.75.75 0 0 1-.75-.75Z"/>
  <path fill-rule="evenodd" d="M14.968 8.97a.75.75 0 0 1 1.06 1.06l-.97.97h4.19a.75.75 0 1 1 0 1.5h-4.19l.97.97a.75.75 0 1 1-1.06 1.06l-2.25-2.25-.53-.53.53-.53 2.25-2.25Zm-3.727 4.95a.75.75 0 0 0-1.06 1.06l.97.97H6.96a.75.75 0 0 0 0 1.5h4.19l-.97.97a.75.75 0 0 0 1.06 1.06l2.25-2.25.53-.53-.53-.53-2.25-2.25Z" clip-rule="evenodd"/>
  <path d="M3 7.75A.75.75 0 0 1 3.75 7h7.5a.75.75 0 0 1 0 1.5h-7.5A.75.75 0 0 1 3 7.75Zm0-4A.75.75 0 0 1 3.75 3h12.5a.75.75 0 0 1 0 1.5H3.75A.75.75 0 0 1 3 3.75Z"/>
</svg>
