<svg xmlns="http://www.w3.org/2000/svg" width="16" height="16" fill="currentColor" viewBox="0 0 16 16">
  <path d="M2 8.625C2 8.28 2.28 8 2.625 8h3.75a.625.625 0 1 1 0 1.25h-3.75A.625.625 0 0 1 2 8.625Zm10.058-2.567a.625.625 0 1 1 .884.884l-.933.933h3.366a.625.625 0 1 1 0 1.25h-3.366l.933.933a.625.625 0 1 1-.884.884L9.616 8.5l2.442-2.442Zm-3.116 4a.625.625 0 1 0-.884.884l.933.933H5.5a.625.625 0 1 0 0 1.25h3.491l-.933.933a.625.625 0 0 0 .884.884l2.442-2.442-2.442-2.442ZM2 5.625C2 5.28 2.28 5 2.625 5h5.75a.625.625 0 1 1 0 1.25h-5.75A.625.625 0 0 1 2 5.625Zm0-3C2 2.28 2.28 2 2.625 2h10.75a.625.625 0 1 1 0 1.25H2.625A.625.625 0 0 1 2 2.625Z"/>
</svg>
