<?xml version="1.0" encoding="utf-8"?>
<!DOCTYPE svg PUBLIC "-//W3C//DTD SVG 1.1//EN" "http://www.w3.org/Graphics/SVG/1.1/DTD/svg11.dtd">
<svg version="1.1" xmlns="http://www.w3.org/2000/svg" xmlns:xlink="http://www.w3.org/1999/xlink" x="0px" y="0px"
	 width="16px" height="16px" viewBox="0 0 16 16" enable-background="new 0 0 16 16">
<polygon display="none" points="6,5 10,8 6,11 "/>
<g>
	<path d="M5.185,7.77L9.854,3.1C9.921,3.034,9.996,3,10.083,3c0.088,0,0.165,0.034,0.231,0.1l0.501,0.501
		c0.066,0.067,0.101,0.144,0.101,0.23c0,0.087-0.034,0.165-0.101,0.231L6.877,8l3.938,3.937c0.066,0.067,0.101,0.146,0.101,0.231
		s-0.034,0.163-0.101,0.229L10.314,12.9c-0.066,0.066-0.144,0.1-0.231,0.1c-0.087,0-0.162-0.033-0.229-0.1L5.185,8.231
		C5.117,8.164,5.084,8.087,5.084,8S5.117,7.837,5.185,7.77z"/>
</g>
</svg>
