<?xml version="1.0" encoding="utf-8"?>
<!DOCTYPE svg PUBLIC "-//W3C//DTD SVG 1.1//EN" "http://www.w3.org/Graphics/SVG/1.1/DTD/svg11.dtd">
<svg version="1.1" xmlns="http://www.w3.org/2000/svg" xmlns:xlink="http://www.w3.org/1999/xlink" x="0px" y="0px"
  	 width="688px" height="800px" viewBox="0 0 688 800" enable-background="new 0 0 688 800">
  <g>
    <path d="M618.234 364.158c-2.853 0-5.664-1.406-7.783-3.565-4.218-4.218-4.218-11.308 0-16.239l54.299-54.299c4.218-4.218 11.308-4.218 16.239 0 4.218 4.218 4.218 11.308 0 16.239l-54.299 54.299c-2.853 2.853-5.664 3.565-8.496 3.565v0z"/>
    <path d="M618.234 364.158c-2.853 0-5.664-1.406-7.783-3.565l-54.299-54.299c-4.218-4.218-4.218-11.308 0-16.239 4.218-4.218 11.308-4.218 16.239 0l54.299 54.299c4.218 4.218 4.218 11.308 0 16.239-2.853 2.853-5.664 3.565-8.496 3.565v0z"/>
    <path d="M618.234 297.064c-6.377 0-11.308-5.012-11.308-11.308 0-145.415-117.868-263.263-263.263-263.263s-263.976 117.868-263.976 263.263c0 6.377-5.012 11.308-11.308 11.308s-11.308-5.012-11.308-11.308c0-157.415 128.422-285.756 286.592-285.756s285.756 128.422 285.756 285.756c0 6.377-5.012 11.308-11.308 11.308v0z"/>
    <path d="M14.794 393.111c-2.853 0-5.664-1.406-7.783-3.565-4.218-4.218-4.218-11.308 0-16.239l54.299-54.299c4.218-4.218 11.308-4.218 16.239 0 4.218 4.218 4.218 11.308 0 16.239l-55.032 54.299c-2.119 2.119-5.012 3.565-7.783 3.565v0z"/>
    <path d="M122.801 393.111c-2.853 0-5.664-1.406-7.783-3.565l-54.299-54.299c-4.218-4.218-4.218-11.308 0-16.239 4.218-4.218 11.308-4.218 16.239 0l54.299 54.299c4.218 4.218 4.218 11.308 0 16.239-2.853 2.119-5.664 3.565-8.496 3.565v0z"/>
    <path d="M343.622 680.354c-158.088 0-286.592-128.422-286.592-285.756 0-6.377 5.012-11.308 11.308-11.308s11.308 5.012 11.308 11.308c0 145.415 118.601 263.263 263.976 263.263s263.263-117.868 263.263-263.263c0-6.377 5.012-11.308 11.308-11.308s11.308 5.012 11.308 11.308c0 157.415-128.422 285.756-285.756 285.756v0z"/>
  </g>
</svg>
