<svg xmlns="http://www.w3.org/2000/svg" width="20" height="20" fill="currentColor" viewBox="0 0 20 20">
  <path d="M4.988 15.468c-.756 0-1.414-.154-1.974-.462a3.299 3.299 0 0 1-1.302-1.239 3.422 3.422 0 0 1-.462-1.771c0-.518.1-.996.301-1.435.2-.439.483-.817.847-1.134a3.61 3.61 0 0 1 1.309-.721 5.626 5.626 0 0 1 .616-1.988 5.591 5.591 0 0 1 1.232-1.575A5.516 5.516 0 0 1 9.251 3.75c1.101 0 2.072.257 2.912.77.845.513 1.51 1.244 1.995 2.191.663 0 1.274.112 1.834.336.56.22 1.045.53 1.456.931.415.397.735.861.959 1.393.229.532.343 1.108.343 1.729a4.313 4.313 0 0 1-1.288 3.108 4.34 4.34 0 0 1-1.421.924 4.55 4.55 0 0 1-1.757.336H4.988Zm.035-1.638h9.261a2.96 2.96 0 0 0 1.449-.35 2.673 2.673 0 0 0 1.001-.959c.247-.406.371-.866.371-1.379 0-.541-.133-1.022-.399-1.442-.261-.425-.642-.756-1.141-.994-.5-.238-1.106-.357-1.82-.357-.229 0-.406-.035-.532-.105-.121-.075-.229-.205-.322-.392a5.188 5.188 0 0 0-.959-1.337 3.883 3.883 0 0 0-1.225-.84 3.668 3.668 0 0 0-1.456-.287A3.737 3.737 0 0 0 6.577 6.48c-.35.35-.637.77-.861 1.26a5.333 5.333 0 0 0-.441 1.624c-.028.233-.086.404-.175.511-.084.103-.229.18-.434.231-.579.15-1.02.39-1.323.721-.299.327-.448.728-.448 1.204 0 .369.084.688.252.959.173.266.418.474.735.623.317.145.698.217 1.141.217Z"/>
</svg>
