<svg xmlns="http://www.w3.org/2000/svg" width="16" height="16" fill="currentColor" viewBox="0 0 16 16">
  <path d="M3.99 12.374c-.604 0-1.13-.123-1.579-.37a2.64 2.64 0 0 1-1.041-.99A2.738 2.738 0 0 1 1 9.597a2.656 2.656 0 0 1 .918-2.055c.295-.258.644-.45 1.048-.577a4.5 4.5 0 0 1 1.478-2.85A4.413 4.413 0 0 1 7.401 3c.88 0 1.657.205 2.33.616.675.41 1.207.995 1.595 1.753.53 0 1.02.09 1.468.269.448.175.836.423 1.164.744.333.318.588.69.768 1.115.182.425.274.886.274 1.383a3.452 3.452 0 0 1-1.03 2.486 3.478 3.478 0 0 1-1.137.74 3.64 3.64 0 0 1-1.406.268H3.99Zm.028-1.31h7.41a2.36 2.36 0 0 0 1.158-.28c.34-.19.607-.446.801-.767.198-.325.297-.693.297-1.103a2.11 2.11 0 0 0-.32-1.154 2.098 2.098 0 0 0-.912-.795c-.4-.19-.885-.286-1.456-.286-.183 0-.325-.028-.426-.084a.747.747 0 0 1-.257-.313 4.15 4.15 0 0 0-.767-1.07 3.106 3.106 0 0 0-.98-.672A2.934 2.934 0 0 0 7.4 4.31a2.99 2.99 0 0 0-2.14.874c-.28.28-.509.616-.688 1.008-.18.388-.297.821-.353 1.3-.022.186-.07.322-.14.408-.067.082-.183.144-.347.185-.463.12-.816.312-1.059.577a1.375 1.375 0 0 0-.358.963c0 .295.067.55.202.767.138.213.334.379.588.498.253.116.558.174.912.174Z"/>
</svg>
