<svg width="16" height="16" viewBox="0 0 16 16" xmlns="http://www.w3.org/2000/svg">
<path d="m6.32 5.04c1.01 0 2.04.63 2.16 1.96.32-.4.78-.57 1.25-.57 1.2 0 2.46 1.14 1.74 2.57h.14c2.46 0 2.61 2.97-.14 3h-7c-2.69 0-2.56-3.98 0-4-.73-1.92.54-2.96 1.85-2.96m0-1.4c-1.19 0-2.28.54-2.9 1.45-.39.55-.57 1.21-.56 1.91-1.07.57-1.76 1.7-1.76 3.06.01 1.66 1.17 3.34 3.37 3.34h7c2.26-.02 3.43-1.49 3.42-2.93-.01-1.03-.64-2.11-1.83-2.6-.04-.44-.19-.86-.43-1.25-.6-.97-1.74-1.59-2.91-1.59-.17 0-.35.01-.51.04-.62-.89-1.66-1.43-2.89-1.43z"/>
</svg>