<svg xmlns="http://www.w3.org/2000/svg" width="12" height="12" fill="currentColor" viewBox="0 0 12 12">
  <path d="M2.993 9.28c-.454 0-.849-.092-1.185-.276A1.98 1.98 0 0 1 .75 7.198a1.992 1.992 0 0 1 .689-1.541c.221-.194.483-.338.785-.433a3.376 3.376 0 0 1 1.109-2.138 3.31 3.31 0 0 1 2.218-.836c.66 0 1.243.154 1.747.462a3.21 3.21 0 0 1 1.197 1.315c.397 0 .764.067 1.1.201a2.593 2.593 0 0 1 1.449 1.395c.137.319.206.665.206 1.037a2.588 2.588 0 0 1-.773 1.865 2.73 2.73 0 0 1-1.907.756H2.993Zm.02-.982H8.57c.325 0 .615-.07.87-.21.255-.143.455-.335.6-.575.149-.244.223-.52.223-.828 0-.325-.08-.613-.24-.865a1.574 1.574 0 0 0-.684-.596c-.3-.143-.664-.215-1.092-.215a.665.665 0 0 1-.32-.063.56.56 0 0 1-.192-.235 3.113 3.113 0 0 0-.576-.802 2.2 2.2 0 0 0-1.609-.676 2.242 2.242 0 0 0-1.604.655c-.21.21-.382.462-.516.756a3.2 3.2 0 0 0-.265.974.594.594 0 0 1-.105.307.477.477 0 0 1-.26.139c-.348.09-.612.233-.794.432-.18.196-.269.437-.269.723 0 .22.05.413.151.575.104.16.25.284.441.374.19.087.419.13.685.13Z"/>
</svg>
