<svg xmlns="http://www.w3.org/2000/svg" width="16" height="16" fill="currentColor" viewBox="0 0 16 16">
  <path fill-rule="evenodd" d="M9.994 2.756a.6.6 0 0 0-1.157-.32l-2.98 10.806a.6.6 0 0 0 1.156.32l2.98-10.806ZM5.582 4.83a.6.6 0 0 1-.094.843l-3.14 2.512 3.14 2.513a.6.6 0 1 1-.75.937L1.023 8.662a.61.61 0 0 1 0-.953L4.74 4.736a.6.6 0 0 1 .843.094Zm4.836 6.711a.6.6 0 0 1 .094-.843l3.14-2.513-3.14-2.512a.6.6 0 1 1 .75-.937l3.716 2.973a.61.61 0 0 1 0 .953l-3.716 2.973a.6.6 0 0 1-.844-.094Z" clip-rule="evenodd"/>
</svg>
