<svg xmlns="http://www.w3.org/2000/svg" width="12" height="12" fill="currentColor" viewBox="0 0 12 12">
  <path fill-rule="evenodd" d="M7.606 1.844a.5.5 0 1 0-.964-.266l-2.367 8.579a.5.5 0 1 0 .964.266l2.367-8.579ZM7.9 8.827a.5.5 0 0 1 .078-.703l2.47-1.976-2.47-1.976a.5.5 0 0 1 .625-.78l2.95 2.36a.507.507 0 0 1 0 .793l-2.95 2.36a.5.5 0 0 1-.703-.078ZM4.1 3.47a.5.5 0 0 1-.079.703L1.55 6.148l2.47 1.976a.5.5 0 0 1-.624.781L.445 6.545a.507.507 0 0 1 0-.793l2.95-2.36a.5.5 0 0 1 .704.077Z" clip-rule="evenodd"/>
</svg>
