<svg xmlns="http://www.w3.org/2000/svg" width="20" height="20" fill="currentColor" viewBox="0 0 20 20">
  <path fill-rule="evenodd" d="M12.595 3.051a.75.75 0 1 0-1.445-.399L7.205 16.95a.75.75 0 1 0 1.446.4l3.944-14.3Zm.639 11.609a.75.75 0 0 1 .117-1.054l4.198-3.359-4.198-3.358a.75.75 0 1 1 .937-1.172l4.918 3.935a.762.762 0 0 1 0 1.19l-4.918 3.935a.75.75 0 0 1-1.054-.117ZM6.766 5.834a.75.75 0 0 1-.117 1.055L2.45 10.247l4.199 3.359a.75.75 0 1 1-.937 1.171L.793 10.843a.763.763 0 0 1 0-1.191l4.919-3.935a.75.75 0 0 1 1.054.117Z" clip-rule="evenodd"/>
</svg>
