<svg xmlns="http://www.w3.org/2000/svg" width="16" height="16" fill="currentColor" viewBox="0 0 16 16">
  <path fill-rule="evenodd" d="M4.657 2.25h6.686c.66 0 1.08.001 1.4.027.303.025.403.066.441.086.195.1.354.258.453.453.02.038.061.138.086.442.026.318.027.738.027 1.4v6.685c0 .66-.001 1.08-.027 1.4-.025.303-.066.403-.086.441-.1.195-.258.354-.453.453-.038.02-.138.061-.442.086-.318.026-.739.027-1.4.027H4.658c-.66 0-1.08-.001-1.4-.027-.303-.025-.403-.066-.441-.086a1.036 1.036 0 0 1-.453-.453c-.02-.038-.061-.138-.086-.442-.026-.318-.027-.739-.027-1.4V4.658c0-.66.001-1.08.027-1.4.025-.303.066-.403.086-.441.1-.195.258-.354.453-.453.038-.02.138-.061.442-.086.318-.026.738-.027 1.4-.027ZM1 4.657c0-1.28 0-1.92.25-2.409.218-.43.568-.78.998-.999C2.737 1 3.377 1 4.658 1h6.685c1.28 0 1.92 0 2.409.25.43.218.78.568.999.998.249.489.249 1.129.249 2.41v6.685c0 1.28 0 1.92-.25 2.409-.218.43-.568.78-.998.999-.489.249-1.129.249-2.41.249H4.658c-1.28 0-1.92 0-2.409-.25a2.278 2.278 0 0 1-.999-.998C1 13.263 1 12.623 1 11.342V4.658Zm3.5 2.718a.625.625 0 1 0 0 1.25h7a.625.625 0 1 0 0-1.25h-7Z" clip-rule="evenodd"/>
</svg>
