<svg xmlns="http://www.w3.org/2000/svg" width="16" height="16" fill="currentColor" viewBox="0 0 16 16">
  <path fill-rule="evenodd" d="M14.442 1.558a.625.625 0 0 1 0 .884l-3.433 3.433H13.5a.625.625 0 1 1 0 1.25h-4a.625.625 0 0 1-.625-.625v-4a.625.625 0 1 1 1.25 0v2.491l3.433-3.433a.625.625 0 0 1 .884 0ZM1.875 9.5c0-.345.28-.625.625-.625h4a.625.625 0 0 1 .625.625v4a.625.625 0 1 1-1.25 0v-2.491l-3.433 3.433a.625.625 0 1 1-.884-.884l3.433-3.433H2.5a.625.625 0 0 1-.625-.625Z" clip-rule="evenodd"/>
</svg>
