<svg xmlns="http://www.w3.org/2000/svg" width="20" height="20" fill="currentColor" viewBox="0 0 20 20">
  <path fill-rule="evenodd" d="M6.571 3.5h6.858c.824 0 1.353.001 1.754.034.384.031.517.084.576.114.255.13.463.338.593.593.03.059.083.192.114.576.033.401.034.93.034 1.754v6.858c0 .824-.001 1.353-.034 1.754-.031.384-.084.517-.114.576a1.36 1.36 0 0 1-.593.593c-.059.03-.192.083-.576.114-.401.033-.93.034-1.754.034H6.57c-.824 0-1.353-.001-1.754-.034-.384-.031-.517-.084-.576-.114a1.357 1.357 0 0 1-.593-.593c-.03-.059-.083-.192-.114-.576-.033-.401-.034-.93-.034-1.754V6.57c0-.824.001-1.353.034-1.754.031-.384.084-.517.114-.576a1.36 1.36 0 0 1 .593-.593c.059-.03.192-.083.576-.114.401-.033.93-.034 1.754-.034ZM2 6.571c0-1.6 0-2.4.311-3.011A2.857 2.857 0 0 1 3.56 2.311C4.171 2 4.971 2 6.571 2h6.858c1.6 0 2.4 0 3.011.311.538.274.975.711 1.249 1.249C18 4.171 18 4.971 18 6.571v6.858c0 1.6 0 2.4-.311 3.011a2.857 2.857 0 0 1-1.249 1.249c-.611.311-1.411.311-3.011.311H6.57c-1.6 0-2.4 0-3.011-.311A2.857 2.857 0 0 1 2.31 16.44C2 15.829 2 15.029 2 13.429V6.57ZM6 9.25a.75.75 0 0 0 0 1.5h8a.75.75 0 0 0 0-1.5H6Z" clip-rule="evenodd"/>
</svg>
