<svg xmlns="http://www.w3.org/2000/svg" width="12" height="12" fill="currentColor" viewBox="0 0 12 12">
  <path fill-rule="evenodd" d="M3.743 2h4.514c.497 0 .809 0 1.045.02.224.018.29.048.308.058a.714.714 0 0 1 .312.312c.01.019.04.084.058.308.02.236.02.548.02 1.045v4.514c0 .497 0 .809-.02 1.045-.018.224-.048.29-.058.308a.714.714 0 0 1-.312.312c-.019.01-.084.04-.308.058-.236.02-.548.02-1.045.02H3.743c-.497 0-.809 0-1.045-.02-.224-.018-.29-.048-.308-.058a.714.714 0 0 1-.312-.312c-.01-.019-.04-.084-.058-.308C2 9.066 2 8.754 2 8.257V3.743c0-.497 0-.809.02-1.045.018-.224.048-.29.058-.308a.714.714 0 0 1 .312-.312c.019-.01.084-.04.308-.058C2.934 2 3.246 2 3.743 2ZM1 3.743c0-.96 0-1.44.187-1.807.164-.323.426-.585.749-.75C2.303 1 2.783 1 3.743 1h4.514c.96 0 1.44 0 1.807.187.322.164.585.426.75.749.186.367.186.847.186 1.807v4.514c0 .96 0 1.44-.187 1.807a1.716 1.716 0 0 1-.749.75C9.697 11 9.217 11 8.257 11H3.743c-.96 0-1.44 0-1.807-.187a1.715 1.715 0 0 1-.75-.749C1 9.697 1 9.217 1 8.257V3.743ZM3.5 5.5a.5.5 0 0 0 0 1h5a.5.5 0 0 0 0-1h-5Z" clip-rule="evenodd"/>
</svg>
