<?xml version="1.0" encoding="utf-8"?>
<svg version="1.1" xmlns="http://www.w3.org/2000/svg" width="13" height="13" viewBox="0 0 13 13">
  <path d="M11.92413,1A.076.076,0,0,1,12,1.07587V11.92413A.076.076,0,0,1,11.92413,12H1.07593a.076.076,0,0,1-.07587-.07587V1.07587A.076.076,0,0,1,1.07593,1H11.92413m0-1H1.07593A1.07587,1.07587,0,0,0,.00006,1.07587V11.92413A1.07587,1.07587,0,0,0,1.07593,13H11.92413A1.07587,1.07587,0,0,0,13,11.92413V1.07587A1.07587,1.07587,0,0,0,11.92413,0Z"/>
  <rect x="3.00006" y="6" width="7" height="1"/>
</svg>
