<svg xmlns="http://www.w3.org/2000/svg" width="16" height="16" fill="currentColor" viewBox="0 0 16 16">
  <path fill-rule="evenodd" d="M10.272 1.554a.625.625 0 0 1 .884 0l2.667 2.667a.625.625 0 0 1 0 .884L11.156 7.77a.625.625 0 1 1-.884-.884l1.601-1.6-9.255-.007a.625.625 0 1 1 .001-1.25l9.252.007-1.599-1.599a.625.625 0 0 1 0-.884Zm-4.545 6.66a.625.625 0 0 1 0 .883l-1.6 1.6 9.254.007a.625.625 0 0 1 0 1.25l-9.252-.006 1.598 1.599a.625.625 0 1 1-.884.883l-2.666-2.666a.625.625 0 0 1 0-.884l2.666-2.667a.625.625 0 0 1 .884 0Z" clip-rule="evenodd"/>
</svg>
