<svg xmlns="http://www.w3.org/2000/svg" width="20" height="20" fill="currentColor" viewBox="0 0 20 20">
  <path fill-rule="evenodd" d="M12.409 1.946a.75.75 0 0 1 1.06 0l3.333 3.334a.75.75 0 0 1 0 1.06L13.47 9.674a.75.75 0 0 1-1.06-1.061l2.046-2.046-10.697.04a.75.75 0 1 1-.005-1.5l10.715-.04-2.06-2.06a.75.75 0 0 1 0-1.06Zm-4.79 8.381a.75.75 0 0 1 0 1.06l-2.046 2.047 10.696-.04a.75.75 0 0 1 .006 1.5l-10.716.04 2.06 2.06a.75.75 0 0 1-1.06 1.06l-3.334-3.333a.75.75 0 0 1 0-1.06l3.333-3.334a.75.75 0 0 1 1.061 0Z" clip-rule="evenodd"/>
</svg>
