<svg width="14" height="13" viewBox="0 0 14 13" xmlns="http://www.w3.org/2000/svg"><title>compare</title><path d="M11.522 4.034c-.742.56-1.694 1.47-2.352 2.352l.756.462c.952-1.232 2.338-2.45 3.584-3.248-1.246-.798-2.632-2.016-3.584-3.248L9.17.814c.658.882 1.61 1.792 2.352 2.352H.56v.868h10.962zm1.918 5.292H2.478c.742-.56 1.694-1.47 2.352-2.352l-.756-.462C3.122 7.744 1.736 8.962.49 9.76c1.246.798 2.632 2.016 3.584 3.248l.756-.462c-.658-.882-1.61-1.792-2.352-2.352H13.44v-.868z" fill-rule="evenodd"/></svg>
