<svg xmlns="http://www.w3.org/2000/svg" width="16" height="16" fill="currentColor" viewBox="0 0 16 16"><path fill-rule="evenodd" d="M4.866 5.78s.02 1.675.02 3.125.78 2.229 2.23 2.229h1.75c1.449 0 2.258-.8 2.258-2.25l-.02-3.123-6.238.02ZM3.625 8.876a3.501 3.501 0 0 0 2.625 3.39v1.86c0 .483.392.875.875.875h1.75a.875.875 0 0 0 .875-.875v-1.86a3.501 3.501 0 0 0 2.625-3.39v-3.5A.875.875 0 0 0 11.5 4.5H11V1.625a.625.625 0 1 0-1.25 0V4.5h-3.5V1.625a.625.625 0 1 0-1.25 0V4.5h-.5a.875.875 0 0 0-.875.875v3.5Zm3.886 3.505.994-.005-.005 1.369-.994.005.005-1.369Z" clip-rule="evenodd"/></svg>