<svg xmlns="http://www.w3.org/2000/svg" width="20" height="20" fill="currentColor" viewBox="0 0 20 20"><path fill-rule="evenodd" d="M5.97 7.147s.026 2.152.026 4.016c0 1.864 1.002 2.866 2.866 2.866h2.25c1.864 0 2.904-1.027 2.904-2.891l-.025-4.017-8.02.026Zm-1.595 3.978a4.502 4.502 0 0 0 3.375 4.358v2.392c0 .621.504 1.125 1.125 1.125h2.25c.621 0 1.125-.504 1.125-1.125v-2.392a4.502 4.502 0 0 0 3.375-4.358v-4.5c0-.621-.504-1.125-1.125-1.125h-.643V1.804a.804.804 0 1 0-1.607 0V5.5h-4.5V1.804a.804.804 0 1 0-1.607 0V5.5H5.5c-.621 0-1.125.504-1.125 1.125v4.5Zm4.997 4.507 1.278-.007-.007 1.76-1.278.007.007-1.76Z" clip-rule="evenodd"/></svg>