<svg xmlns="http://www.w3.org/2000/svg" width="12" height="12" fill="currentColor" viewBox="0 0 12 12"><path fill-rule="evenodd" d="M3.762 4.415s.014 1.196.014 2.231c0 1.036.556 1.592 1.592 1.592h1.25c1.035 0 1.613-.57 1.613-1.606l-.014-2.231-4.455.014Zm-.887 2.21A2.5 2.5 0 0 0 4.75 9.046v1.329c0 .345.28.625.625.625h1.25c.345 0 .625-.28.625-.625V9.046a2.501 2.501 0 0 0 1.875-2.421v-2.5A.625.625 0 0 0 8.5 3.5h-.357V1.446a.446.446 0 0 0-.893 0V3.5h-2.5V1.446a.446.446 0 1 0-.893 0V3.5H3.5a.625.625 0 0 0-.625.625v2.5Zm2.776 2.504-.004.978.71-.004.004-.978-.71.004Z" clip-rule="evenodd"/></svg>