<svg xmlns="http://www.w3.org/2000/svg" width="20" height="20" fill="currentColor" viewBox="0 0 20 20">
  <path fill-rule="evenodd" d="M15.235 2.813h-.782a2.526 2.526 0 0 0-.282-.016h-8.06A3 3 0 0 1 8.734 1.25h6.5a3 3 0 0 1 3 3V12a3 3 0 0 1-1.564 2.635v-2.566l.002-.069V4.25c0-.794-.644-1.438-1.438-1.438ZM12 6H4.5a1 1 0 0 0-1 1v9.235a1 1 0 0 0 1 1H12a1 1 0 0 0 1-1V7a1 1 0 0 0-1-1ZM4.5 4.5A2.5 2.5 0 0 0 2 7v9.235a2.5 2.5 0 0 0 2.5 2.5H12a2.5 2.5 0 0 0 2.5-2.5V7A2.5 2.5 0 0 0 12 4.5H4.5Zm1.25 4.86c0-.345.28-.625.625-.625h3.75a.625.625 0 1 1 0 1.25h-3.75a.625.625 0 0 1-.625-.625Zm.625 1.875a.625.625 0 1 0 0 1.25h3.75a.625.625 0 1 0 0-1.25h-3.75ZM5.75 14.36c0-.345.28-.625.625-.625h3.75a.625.625 0 1 1 0 1.25h-3.75a.625.625 0 0 1-.625-.625Z" clip-rule="evenodd"/>
</svg>
