<svg xmlns="http://www.w3.org/2000/svg" width="12" height="12" fill="currentColor" viewBox="0 0 12 12">
  <path fill-rule="evenodd" d="m9.2 1.948-1.194-.01a1.516 1.516 0 0 0-.17-.01H3A1.8 1.8 0 0 1 4.575 1l4.626.01a1.8 1.8 0 0 1 1.8 1.8v4.65c0 .683-.44 1.285-1 1.59V7.512l.002-.043V2.82c0-.476-.326-.87-.802-.87ZM7.513 4.003 2.5 3.993c-.31 0-.492.196-.492.507l.016 4.939c0 .31.182.562.492.562l5.013.01c.31 0 .48-.242.48-.553l-.016-4.939c0-.31-.17-.516-.48-.516ZM2.5 3A1.5 1.5 0 0 0 1 4.5l.016 4.939a1.5 1.5 0 0 0 1.5 1.5l5.013.01a1.5 1.5 0 0 0 1.5-1.5l-.017-4.938a1.5 1.5 0 0 0-1.5-1.5L2.5 3Zm.7 2.482c0-.207.168-.375.375-.375l3.019.011a.375.375 0 0 1 0 .75l-3.019-.01a.375.375 0 0 1-.375-.376Zm.375 1.125a.375.375 0 0 0 0 .75l3.019.011a.375.375 0 0 0 0-.75l-3.019-.01ZM3.2 8.482c0-.207.168-.375.375-.375l3.019.011a.375.375 0 0 1 0 .75l-3.019-.01a.375.375 0 0 1-.375-.376Z" clip-rule="evenodd"/>
</svg>
