<svg width="16" height="17" viewBox="0 0 16 17" fill="none" xmlns="http://www.w3.org/2000/svg">
  <path fill-rule="evenodd" clip-rule="evenodd" d="M10.0576 6.05762C10.3017 5.81354 10.6983 5.81354 10.9424 6.05762C11.1865 6.30169 11.1865 6.69831 10.9424 6.94238L7.44238 10.4424C7.19831 10.6865 6.80169 10.6865 6.55762 10.4424L5.05762 8.94238C4.81354 8.69831 4.81354 8.30169 5.05762 8.05762C5.30169 7.81354 5.69831 7.81354 5.94238 8.05762L7 9.11523L10.0576 6.05762Z" fill="currentColor"/>
  <path fill-rule="evenodd" clip-rule="evenodd" d="M8.04785 0.884766L14.0479 3.38477C14.0944 3.40417 14.125 3.44954 14.125 3.5V9.17871C14.125 10.9932 13.2055 12.3157 12.0508 13.3506C11.2031 14.1102 10.1733 14.7605 9.23828 15.3506C8.92693 15.5471 8.62627 15.7371 8.34473 15.9229L8.06934 16.1045C8.02757 16.1321 7.97243 16.1321 7.93066 16.1045L7.65527 15.9229C7.37375 15.7371 7.07305 15.5471 6.76172 15.3506C5.82673 14.7605 4.79686 14.1102 3.94922 13.3506C2.79446 12.3157 1.875 10.9932 1.875 9.17871V3.5C1.875 3.44954 1.90557 3.40417 1.95215 3.38477L7.95215 0.884766L8 0.875C8.0163 0.875 8.03251 0.878394 8.04785 0.884766ZM3.125 4.25V9.17871C3.125 10.5073 3.77693 11.5181 4.7832 12.4199C5.53864 13.0969 6.47589 13.6916 7.42871 14.293L7.43359 14.2959C7.62302 14.4155 7.81344 14.5365 8 14.6562C8.18649 14.5366 8.37714 14.4154 8.56641 14.2959L8.57129 14.293C9.52411 13.6916 10.4614 13.0969 11.2168 12.4199C12.2231 11.5181 12.875 10.5073 12.875 9.17871V4.25L8 2.21777L3.125 4.25ZM10.6953 13.0117C10.6331 13.0595 10.5695 13.1062 10.5059 13.1533C10.6774 13.0264 10.8445 12.8978 11.0049 12.7656L10.6953 13.0117ZM5.30469 13.0127C5.36586 13.0596 5.42866 13.1051 5.49121 13.1514C5.41514 13.095 5.33964 13.0387 5.26562 12.9814L5.30469 13.0127Z" fill="currentColor"/>
</svg>
