<svg width="12" height="13" viewBox="0 0 12 13" fill="none" xmlns="http://www.w3.org/2000/svg">
  <path fill-rule="evenodd" clip-rule="evenodd" d="M7.52539 4.52539C7.7187 4.33208 8.0313 4.33208 8.22461 4.52539C8.41792 4.7187 8.41792 5.0313 8.22461 5.22461L5.59961 7.84961C5.4063 8.04292 5.0937 8.04292 4.90039 7.84961L3.77539 6.72461C3.58208 6.5313 3.58208 6.2187 3.77539 6.02539C3.9687 5.83208 4.2813 5.83208 4.47461 6.02539L5.24902 6.7998L7.52539 4.52539ZM3.75684 6.44727C3.77063 6.51814 3.8046 6.58585 3.85938 6.64062L3.81152 6.58105C3.78412 6.53945 3.76594 6.49454 3.75684 6.44727ZM3.85938 6.10938C3.78615 6.1826 3.75 6.2788 3.75 6.375L3.75684 6.30371C3.77052 6.23268 3.80437 6.16438 3.85938 6.10938Z" fill="currentColor"/>
  <path fill-rule="evenodd" clip-rule="evenodd" d="M6.0459 0.639648L10.5459 2.51465C10.5906 2.53328 10.6201 2.57656 10.6201 2.625V6.88379C10.6201 8.25482 9.92481 9.25329 9.05566 10.0322C8.41798 10.6037 7.64328 11.0928 6.94238 11.5352C6.70884 11.6826 6.48333 11.8247 6.27246 11.9639L6.06641 12.1006C6.02631 12.127 5.97369 12.127 5.93359 12.1006L5.72754 11.9639C5.51669 11.8247 5.29114 11.6825 5.05762 11.5352C4.35672 11.0928 3.58202 10.6037 2.94434 10.0322C2.07519 9.25329 1.37988 8.25482 1.37988 6.88379V2.625C1.37988 2.57656 1.40938 2.53328 1.4541 2.51465L5.9541 0.639648L6 0.629883C6.01567 0.629883 6.03115 0.633514 6.0459 0.639648ZM2.37012 3.2041V6.88379C2.37012 7.86983 2.85317 8.62149 3.60449 9.29492C4.16918 9.80099 4.87086 10.246 5.58594 10.6973L5.58984 10.7002C5.72683 10.7867 5.86478 10.8733 6 10.96C6.13518 10.8733 6.27329 10.7866 6.41016 10.7002L6.41406 10.6973C7.12914 10.246 7.83082 9.80099 8.39551 9.29492C9.14683 8.62149 9.62988 7.86983 9.62988 6.88379V3.2041L6 1.69141L2.37012 3.2041ZM3.97852 9.75879C4.02683 9.79587 4.07652 9.83161 4.12598 9.86816C3.9955 9.77172 3.86796 9.67466 3.74609 9.57422L3.97852 9.75879Z" fill="currentColor"/>
</svg>
