<svg width="20" height="21" viewBox="0 0 20 21" fill="none" xmlns="http://www.w3.org/2000/svg">
  <path d="M12.6016 7.60156C12.8906 7.31257 13.3594 7.31257 13.6484 7.60156C13.9374 7.89055 13.9374 8.35945 13.6484 8.64844L9.27344 13.0234C8.98445 13.3124 8.51555 13.3124 8.22656 13.0234L6.35156 11.1484C6.06257 10.8594 6.06257 10.3906 6.35156 10.1016C6.64055 9.81258 7.10945 9.81258 7.39844 10.1016L8.75 11.4531L12.6016 7.60156Z" fill="currentColor"/>
  <path fill-rule="evenodd" clip-rule="evenodd" d="M10.0439 1.14355L17.5439 4.26855C17.5868 4.28641 17.6152 4.32857 17.6152 4.375V11.4736C17.6152 13.7255 16.4746 15.3681 15.0361 16.6572C13.9796 17.6041 12.6948 18.4153 11.5254 19.1533C11.1363 19.3989 10.7596 19.6366 10.4072 19.8691L10.0635 20.0957C10.0251 20.1211 9.97495 20.1211 9.93652 20.0957L9.59277 19.8691C9.24047 19.6366 8.86369 19.3989 8.47461 19.1533C7.30523 18.4153 6.02041 17.6041 4.96387 16.6572C3.52542 15.3681 2.38485 13.7255 2.38477 11.4736V4.375C2.38477 4.32857 2.4132 4.28641 2.45605 4.26855L9.95605 1.14355L10 1.13477C10.0149 1.13477 10.0299 1.13775 10.0439 1.14355ZM3.86523 5.28418V11.4736C3.86531 13.1502 4.68848 14.4241 5.95117 15.5557C6.89865 16.4048 8.07403 17.1499 9.26465 17.9014L9.27051 17.9053C9.51467 18.0594 9.76005 18.214 10 18.3682C10.2398 18.2141 10.4855 18.0592 10.7295 17.9053L10.7354 17.9014C11.926 17.1499 13.1013 16.4048 14.0488 15.5557C15.3115 14.4241 16.1347 13.1502 16.1348 11.4736V5.28418L10 2.72754L3.86523 5.28418Z" fill="currentColor"/>
</svg>
