<svg xmlns="http://www.w3.org/2000/svg" width="20" height="20" fill="currentColor" viewBox="0 0 20 20">
  <path d="M12.602 7.487a.74.74 0 0 1 1.046 1.047l-4.375 4.375a.74.74 0 0 1-1.046 0l-1.875-1.875a.74.74 0 0 1 1.046-1.047l1.352 1.351z" />
  <path fill-rule="evenodd" d="m10.044 1.029 7.5 3.125c.043.018.071.06.071.106v7.099c0 2.252-1.14 3.894-2.579 5.184-1.056.946-2.341 1.758-3.51 2.496-.39.245-.766.483-1.119.715l-.344.227a.12.12 0 0 1-.126 0l-.344-.227c-.353-.232-.73-.47-1.118-.715-1.17-.739-2.455-1.55-3.511-2.497-1.439-1.289-2.58-2.931-2.58-5.183V4.26c0-.046.03-.088.072-.106l7.5-3.125L10 1.02q.023 0 .044.009m-6.179 4.14v6.19c0 1.676.823 2.95 2.086 4.082.948.849 2.123 1.594 3.314 2.346l.006.004q.367.231.729.462c.24-.154.486-.308.73-.462l.005-.004c1.191-.752 2.366-1.497 3.314-2.346 1.263-1.132 2.086-2.406 2.086-4.082v-6.19L10 2.613z" clip-rule="evenodd" />
</svg>
