<svg xmlns="http://www.w3.org/2000/svg" width="12" height="12" fill="currentColor" viewBox="0 0 12 12">
  <path fill-rule="evenodd" d="M2.5 1.031c.259 0 .469.21.469.469v6.4c0 .288 0 .475.012.619.011.137.03.192.046.222.05.1.132.181.232.232.03.016.085.035.222.046.144.012.331.012.619.012h6.4a.469.469 0 1 1 0 .938H8.969V11.5a.469.469 0 1 1-.938 0V9.969h-3.95c-.264 0-.49 0-.676-.015a1.497 1.497 0 0 1-.572-.145 1.469 1.469 0 0 1-.642-.642 1.497 1.497 0 0 1-.145-.572c-.015-.186-.015-.412-.015-.677v-3.95H.5a.469.469 0 0 1 0-.937h1.531V1.5c0-.259.21-.469.469-.469Zm6.019 1.95a8.52 8.52 0 0 0-.619-.012H5.5a.469.469 0 0 1 0-.938h2.418c.265 0 .491 0 .677.015.196.016.388.052.572.145.276.141.5.366.642.642.093.184.129.376.145.572.015.186.015.412.015.677V6.5a.469.469 0 0 1-.938 0V4.1c0-.288 0-.475-.012-.619a.597.597 0 0 0-.046-.222.531.531 0 0 0-.232-.232.597.597 0 0 0-.222-.046Z" clip-rule="evenodd"/>
</svg>
