<svg xmlns="http://www.w3.org/2000/svg" width="16" height="16" fill="currentColor" viewBox="0 0 16 16">
  <path fill-rule="evenodd" d="M3.667 1.043c.345 0 .625.28.625.625v8.533c0 .384 0 .634.016.825.015.184.04.257.06.297a.708.708 0 0 0 .31.31c.04.02.113.046.297.06.191.016.441.017.825.017h8.533a.625.625 0 0 1 0 1.25h-2.041V15a.625.625 0 0 1-1.25 0v-2.04H5.776c-.353 0-.655 0-.903-.02a1.996 1.996 0 0 1-.762-.194 1.958 1.958 0 0 1-.856-.856 1.995 1.995 0 0 1-.193-.762c-.02-.248-.02-.55-.02-.902V4.96H1a.625.625 0 1 1 0-1.25h2.042V1.668c0-.345.28-.625.625-.625Zm7.524 3.266c-.19-.016-.44-.016-.824-.016h-3.2a.625.625 0 1 1 0-1.25h3.224c.353 0 .654 0 .902.02.261.022.517.068.763.193.368.188.668.488.856.856.125.246.171.502.193.763.02.248.02.55.02.902V9a.625.625 0 1 1-1.25 0V5.8c0-.383 0-.634-.016-.825-.015-.183-.04-.256-.061-.296a.708.708 0 0 0-.31-.31c-.04-.02-.113-.046-.296-.061Z" clip-rule="evenodd"/>
</svg>
