<svg xmlns="http://www.w3.org/2000/svg" width="20" height="20" fill="currentColor" viewBox="0 0 20 20">
  <path fill-rule="evenodd" d="M4.667 1.25a.75.75 0 0 1 .75.75v10.667c0 .479 0 .793.02 1.033.019.232.052.328.08.383a.917.917 0 0 0 .4.4c.055.028.151.061.383.08.24.02.554.02 1.033.02H18a.75.75 0 0 1 0 1.5h-2.583v2.584a.75.75 0 0 1-1.5 0v-2.584H7.304c-.442 0-.818 0-1.126-.025-.325-.026-.64-.084-.942-.238a2.417 2.417 0 0 1-1.056-1.056c-.154-.302-.212-.617-.238-.942-.025-.308-.025-.684-.025-1.126V6.083H1.333a.75.75 0 1 1 0-1.5h2.584V2a.75.75 0 0 1 .75-.75Zm8.882 4.11c-.24-.02-.555-.02-1.034-.02h-4a.75.75 0 1 1 0-1.5h4.03c.441 0 .817 0 1.126.025.324.027.64.085.941.238.455.232.825.602 1.056 1.057.27.53.332 1.142.332 2.082v4a.75.75 0 0 1-1.5 0v-4c0-.927-.075-1.218-.168-1.402a.917.917 0 0 0-.4-.4c-.056-.028-.152-.06-.383-.08Z" clip-rule="evenodd"/>
</svg>
