<svg xmlns="http://www.w3.org/2000/svg" width="12" height="12" fill="currentColor" viewBox="0 0 12 12">
  <path fill-rule="evenodd" d="M3.897 1h4.206c.141 0 .32-.001.477.056a.924.924 0 0 1 .607.85h.673c.095 0 .188 0 .268.005a.94.94 0 0 1 .3.065.926.926 0 0 1 .502.501c.045.11.059.214.065.301.005.08.005.173.005.268v.302c0 .358 0 .629-.063.863a1.831 1.831 0 0 1-1.294 1.295 2.4 2.4 0 0 1-.59.061 3.193 3.193 0 0 1-2.58 2.23v.446h.18c1.151 0 2.084.932 2.084 2.082a.675.675 0 0 1-.675.675H3.938a.675.675 0 0 1-.675-.675c0-1.15.933-2.082 2.083-2.082h.18v-.446a3.193 3.193 0 0 1-2.58-2.23 2.422 2.422 0 0 1-.589-.061A1.831 1.831 0 0 1 1.062 4.21C1 3.976 1 3.706 1 3.348v-.302c0-.095 0-.188.005-.268a.939.939 0 0 1 .066-.3.926.926 0 0 1 .5-.502.939.939 0 0 1 .302-.065c.079-.005.172-.005.267-.005h.673a1.01 1.01 0 0 1 .054-.296.926.926 0 0 1 .553-.554C3.578 1 3.756 1 3.897 1ZM2.811 2.852h-.659c-.101 0-.16 0-.203.003a4.41 4.41 0 0 0-.002.203v.226c0 .452.004.585.03.682.082.305.32.544.625.625.05.013.107.02.209.025V2.852Zm.946-.725c0-.088 0-.14.002-.178.038-.002.09-.002.179-.002h4.124c.089 0 .141 0 .179.002l.002.178v2.515a2.243 2.243 0 0 1-4.486 0V2.127Zm5.432.725v1.764a.945.945 0 0 0 .209-.025.885.885 0 0 0 .625-.625c.026-.098.03-.23.03-.682v-.226c0-.102 0-.16-.002-.203a4.407 4.407 0 0 0-.203-.003h-.659ZM5.346 9.19c-.533 0-.981.368-1.103.864h3.514a1.137 1.137 0 0 0-1.103-.864H5.346Z" clip-rule="evenodd"/>
</svg>
