<svg xmlns="http://www.w3.org/2000/svg" width="20" height="20" fill="currentColor" viewBox="0 0 20 20">
  <path fill-rule="evenodd" d="M6.318 1.012h7.403c.251-.001.55-.002.812.093.43.157.768.495.924.925.05.134.063.274.069.343.007.09.01.188.012.278l.001.226 1.52-.008h.02c.168 0 .33 0 .467.009.15.01.323.034.503.108.38.157.68.458.838.837.074.18.098.355.108.504.01.137.01.298.01.467v.524c0 .638 0 1.103-.108 1.504a3.14 3.14 0 0 1-2.22 2.22c-.239.065-.55.09-.844.103-.16.008-.333.012-.514.015a5.537 5.537 0 0 1-4.563 3.937v.941h.401c2.066 0 3.571 1.962 3.571 3.849 0 .61-.494 1.104-1.104 1.104h-7.26c-.61 0-1.105-.495-1.105-1.104 0-1.896 1.538-3.849 3.596-3.849h.401v-.941a5.537 5.537 0 0 1-4.562-3.935c-.429-.005-.772-.024-1.079-.106a4.134 4.134 0 0 1-1.483-.751c-.44-.353-.846-.842-1.01-1.456-.108-.402-.108-.866-.108-1.504V4.82c0-.168 0-.33.01-.467.01-.149.034-.323.108-.503.157-.379.458-.68.837-.837a1.57 1.57 0 0 1 .504-.109c.137-.009.298-.009.467-.009h.018l1.52-.009.01-.264a4.76 4.76 0 0 1 .024-.277c.009-.07.026-.196.07-.315.156-.43.494-.768.924-.925.262-.095.56-.094.812-.093Zm-.343 2.62v3.984a4.031 4.031 0 0 0 8.063 0V2.992c.001-.11.002-.214 0-.316a3.082 3.082 0 0 0-.005-.154 6.487 6.487 0 0 0-.383-.01H6.39a6.492 6.492 0 0 0-.38.008.047.047 0 0 0-.009.007v.001c-.005.042-.01.102-.014.177a8.52 8.52 0 0 0-.012.484v.442Zm9.563.745v3.278l.226-.008c.293-.013.459-.035.524-.053a1.64 1.64 0 0 0 1.16-1.16c.05-.185.056-.432.056-1.222v-.398a6.558 6.558 0 0 0-.01-.427.048.048 0 0 0-.008-.009 6.474 6.474 0 0 0-.425-.01h-.002l-1.521.01Zm-11.063.01-1.51.008H2.96a6.51 6.51 0 0 0-.427.01.047.047 0 0 0-.009.008 6.52 6.52 0 0 0-.01.427v.399c0 .79.007 1.037.056 1.221.057.211.22.45.5.674.277.222.618.389.934.473.106.029.233.043.471.05v-3.27Zm4.38 11.151c-.955 0-1.873.886-2.06 1.953h6.4c-.185-1.073-1.089-1.953-2.038-1.953H8.855Z" clip-rule="evenodd"/>
</svg>
