<svg xmlns="http://www.w3.org/2000/svg" width="16" height="16" fill="currentColor" viewBox="0 0 16 16">
  <path fill-rule="evenodd" d="M5.044 1.004h5.922c.2 0 .444-.002.658.076.35.128.627.404.755.755.052.142.069.297.074.444h.987c.135 0 .264 0 .375.008.12.008.263.027.41.088.31.128.556.374.684.684.06.147.08.29.088.41.008.11.008.24.008.375v.422c0 .508 0 .883-.087 1.207a2.538 2.538 0 0 1-1.794 1.795c-.243.065-.515.081-.85.085a4.455 4.455 0 0 1-3.644 3.145v.706h.296a2.892 2.892 0 0 1 2.891 2.892.908.908 0 0 1-.908.908H5.101a.908.908 0 0 1-.909-.908 2.892 2.892 0 0 1 2.892-2.892h.296v-.706a4.455 4.455 0 0 1-3.644-3.145c-.335-.004-.607-.02-.85-.085A2.538 2.538 0 0 1 1.09 5.473c-.087-.324-.086-.699-.086-1.207v-.422c0-.134 0-.264.007-.375.009-.12.028-.263.089-.41.128-.31.374-.556.683-.684.148-.06.29-.08.41-.088.111-.008.241-.008.376-.008h.986c.006-.147.023-.302.075-.444.128-.35.404-.627.755-.755.214-.078.458-.077.658-.076ZM3.554 3.53h-.968a5.193 5.193 0 0 0-.325.006 5.193 5.193 0 0 0-.006.325v.32c0 .632.005.826.044.97.119.444.466.791.91.91.079.021.173.033.346.038V3.53Zm-1.53-.576.236.572Zm2.78-.403a5.18 5.18 0 0 1 .006-.29l.019-.002a5.18 5.18 0 0 1 .272-.004h5.808a5.177 5.177 0 0 1 .29.005l.002.019c.004.056.004.133.004.272v3.542a3.2 3.2 0 1 1-6.4 0V2.55Zm7.65.98v2.566c.174-.005.268-.017.347-.038.444-.119.791-.466.91-.91.039-.144.044-.338.044-.97v-.32a5.18 5.18 0 0 0-.006-.325 5.193 5.193 0 0 0-.325-.006h-.97Zm-5.37 8.924c-.79 0-1.449.557-1.606 1.3h5.054a1.642 1.642 0 0 0-1.606-1.3H7.084Z" clip-rule="evenodd"/>
</svg>
