<svg xmlns="http://www.w3.org/2000/svg" width="12" height="12" fill="currentColor" viewBox="0 0 12 12">
  <path fill-rule="evenodd" d="M1.071 3.143c0-.908.736-1.643 1.644-1.643a.5.5 0 0 1 0 1 .643.643 0 0 0-.643.643v2.285a.5.5 0 0 1-.147.354L1.707 6l.218.218a.5.5 0 0 1 .146.354v2.285c0 .355.288.643.643.643a.5.5 0 0 1 0 1 1.643 1.643 0 0 1-1.643-1.643V6.779l-.425-.425a.5.5 0 0 1 0-.708l.425-.425V3.143ZM8.786 2a.5.5 0 0 1 .5-.5c.908 0 1.643.735 1.643 1.643v2.078l.425.425a.5.5 0 0 1 0 .708l-.425.425v2.078c0 .908-.736 1.643-1.643 1.643a.5.5 0 0 1 0-1 .643.643 0 0 0 .643-.643V6.572a.5.5 0 0 1 .147-.354L10.293 6l-.218-.218a.5.5 0 0 1-.147-.354V3.143a.643.643 0 0 0-.643-.643.5.5 0 0 1-.5-.5ZM3 6a.75.75 0 1 1 1.5 0A.75.75 0 0 1 3 6Zm2.25 0a.75.75 0 1 1 1.5 0 .75.75 0 0 1-1.5 0ZM7.5 6A.75.75 0 1 1 9 6a.75.75 0 0 1-1.5 0Z" clip-rule="evenodd"/>
</svg>
