<svg xmlns="http://www.w3.org/2000/svg" width="16" height="16" fill="currentColor" viewBox="0 0 16 16">
  <path fill-rule="evenodd" d="M1.47 4.192c0-1.187.962-2.149 2.15-2.149a.625.625 0 0 1 0 1.25.899.899 0 0 0-.9.899v3.047a.625.625 0 0 1-.183.442l-.32.32.32.32a.625.625 0 0 1 .183.442v3.048a.9.9 0 0 0 .9.899.625.625 0 0 1 0 1.25 2.149 2.149 0 0 1-2.15-2.15V9.023l-.578-.579a.625.625 0 0 1 0-.884l.578-.579V4.192Zm10.286-1.524c0-.345.28-.625.625-.625 1.187 0 2.149.962 2.149 2.149V6.98l.579.58a.625.625 0 0 1 0 .883l-.58.58v2.788a2.149 2.149 0 0 1-2.148 2.149.625.625 0 1 1 0-1.25.899.899 0 0 0 .899-.9V8.764c0-.165.066-.324.183-.442l.32-.32-.32-.32a.625.625 0 0 1-.183-.442V4.192a.899.899 0 0 0-.9-.899.625.625 0 0 1-.624-.625ZM4.042 8.001a.958.958 0 1 1 1.916 0 .958.958 0 0 1-1.916 0Zm3 0a.958.958 0 1 1 1.916 0 .958.958 0 0 1-1.916 0Zm3 0a.958.958 0 1 1 1.917 0 .958.958 0 0 1-1.917 0Z" clip-rule="evenodd"/>
</svg>
