<svg xmlns="http://www.w3.org/2000/svg" width="20" height="20" fill="currentColor" viewBox="0 0 20 20">
  <path fill-rule="evenodd" d="M1.869 5.237a2.654 2.654 0 0 1 2.655-2.655.75.75 0 1 1 0 1.5c-.638 0-1.155.517-1.155 1.155v3.81a.75.75 0 0 1-.22.53l-.422.422.422.422c.141.14.22.331.22.53v3.81c0 .638.517 1.154 1.155 1.154a.75.75 0 0 1 0 1.5 2.655 2.655 0 0 1-2.655-2.655v-3.498l-.733-.733a.75.75 0 0 1 0-1.06l.733-.733V5.237Zm12.857-1.905a.75.75 0 0 1 .75-.75 2.655 2.655 0 0 1 2.655 2.655v3.499l.732.732a.75.75 0 0 1 0 1.061l-.732.733v3.498a2.655 2.655 0 0 1-2.655 2.655.75.75 0 0 1 0-1.5c.637 0 1.155-.517 1.155-1.155v-3.809a.75.75 0 0 1 .22-.53l.421-.422-.422-.422a.75.75 0 0 1-.22-.53v-3.81c0-.638-.516-1.155-1.154-1.155a.75.75 0 0 1-.75-.75ZM5.082 9.999a1.167 1.167 0 1 1 2.334 0 1.167 1.167 0 0 1-2.334 0Zm3.75 0a1.167 1.167 0 1 1 2.334 0 1.167 1.167 0 0 1-2.334 0Zm3.75 0a1.167 1.167 0 1 1 2.333 0 1.167 1.167 0 0 1-2.333 0Z" clip-rule="evenodd"/>
</svg>
