<svg xmlns="http://www.w3.org/2000/svg" width="12" height="12" fill="currentColor" viewBox="0 0 12 12">
  <path d="M6 6.714a.714.714 0 1 0 0-1.428.714.714 0 0 0 0 1.428Zm2.857-2.857a.714.714 0 1 1-1.428 0 .714.714 0 0 1 1.428 0Zm-5 5a.714.714 0 1 0 0-1.428.714.714 0 0 0 0 1.428Z"/>
  <path fill-rule="evenodd" d="M1 3.612c0-.914 0-1.371.178-1.72.156-.308.406-.558.713-.714C2.241 1 2.698 1 3.612 1h4.776c.914 0 1.371 0 1.72.178.308.156.557.406.714.713.178.35.178.807.178 1.721v4.776c0 .914 0 1.371-.178 1.72a1.633 1.633 0 0 1-.713.714C9.759 11 9.302 11 8.388 11H3.612c-.914 0-1.371 0-1.72-.178a1.633 1.633 0 0 1-.714-.713C1 9.759 1 9.302 1 8.388V3.612Zm2.612-1.618h4.776c.472 0 .772 0 1 .019.217.018.29.047.318.062.141.072.145.078.216.219.015.028.045.1.062.318.019.228.02.528.02 1v4.776c0 .472-.001.772-.02 1-.017.217-.047.29-.062.318-.071.141-.075.14-.216.212-.028.014-.1.044-.318.062-.228.018-.528.019-1 .019H3.612c-.472 0-.772 0-1-.02-.217-.017-.29-.047-.318-.061-.141-.072-.137-.098-.209-.239-.015-.029-.044-.1-.062-.318-.019-.228-.02-.529-.02-1V3.585c0-.472.001-.772.02-1 .018-.218.047-.29.062-.319.072-.14.068-.12.209-.19.028-.016.1-.045.318-.063.228-.019.528-.02 1-.02Z" clip-rule="evenodd"/>
</svg>
