<svg xmlns="http://www.w3.org/2000/svg" width="20" height="20" fill="currentColor" viewBox="0 0 20 20">
  <path d="M10 11.286a1.286 1.286 0 1 0 0-2.572 1.286 1.286 0 0 0 0 2.572Zm5.143-5.143a1.286 1.286 0 1 1-2.572 0 1.286 1.286 0 0 1 2.572 0Zm-9 9a1.286 1.286 0 1 0 0-2.572 1.286 1.286 0 0 0 0 2.572Z"/>
  <path fill-rule="evenodd" d="M1 5.702c0-1.646 0-2.469.32-3.097A2.939 2.939 0 0 1 2.605 1.32C3.233 1 4.056 1 5.702 1h8.596c1.646 0 2.469 0 3.097.32a2.939 2.939 0 0 1 1.285 1.285c.32.628.32 1.451.32 3.097v8.596c0 1.646 0 2.469-.32 3.097a2.939 2.939 0 0 1-1.285 1.285c-.628.32-1.451.32-3.097.32H5.702c-1.646 0-2.469 0-3.097-.32a2.939 2.939 0 0 1-1.285-1.285C1 16.767 1 15.944 1 14.298V5.702Zm4.702-3.108h8.596c.85 0 1.39.002 1.8.035.392.032.521.085.574.112.253.129.458.334.587.587.027.053.08.182.112.574.034.41.035.95.035 1.8v8.596c0 .85-.002 1.39-.035 1.8-.032.392-.085.521-.112.574a1.344 1.344 0 0 1-.587.587c-.053.027-.182.08-.574.112-.41.034-.95.035-1.8.035H5.702c-.85 0-1.39-.002-1.8-.035-.392-.032-.522-.085-.574-.112a1.344 1.344 0 0 1-.587-.587c-.027-.053-.08-.182-.112-.574-.033-.41-.035-.95-.035-1.8V5.702c0-.85.002-1.39.035-1.8.032-.392.085-.522.112-.574.129-.253.334-.458.587-.587.053-.027.182-.08.574-.112.41-.033.95-.035 1.8-.035Z" clip-rule="evenodd"/>
</svg>
