<svg xmlns="http://www.w3.org/2000/svg" width="16" height="16" fill="currentColor" viewBox="0 0 16 16">
  <path d="M8 9a1 1 0 1 0 0-2 1 1 0 0 0 0 2Zm4-4a1 1 0 1 1-2 0 1 1 0 0 1 2 0Zm-7 7a1 1 0 1 0 0-2 1 1 0 0 0 0 2Z"/>
  <path fill-rule="evenodd" d="M1 4.657c0-1.28 0-1.92.25-2.409.218-.43.568-.78.998-.999C2.737 1 3.377 1 4.658 1h6.685c1.28 0 1.92 0 2.409.25.43.218.78.568.999.998.249.489.249 1.129.249 2.41v6.685c0 1.28 0 1.92-.25 2.409-.218.43-.568.78-.998.999-.489.249-1.129.249-2.41.249H4.658c-1.28 0-1.92 0-2.409-.25a2.278 2.278 0 0 1-.999-.998C1 13.263 1 12.623 1 11.342V4.658ZM4.657 2.24h6.686c.66 0 1.081.001 1.4.027.305.025.405.066.446.087.197.1.357.26.457.457.02.04.062.141.087.446.026.319.027.74.027 1.4v6.686c0 .66-.001 1.081-.027 1.4-.025.305-.066.405-.087.446-.1.197-.26.357-.457.457-.04.02-.141.062-.446.087-.319.026-.74.027-1.4.027H4.657c-.66 0-1.081-.001-1.4-.027-.305-.025-.405-.066-.446-.087a1.04 1.04 0 0 1-.457-.457c-.02-.04-.062-.141-.087-.446-.026-.319-.027-.74-.027-1.4V4.657c0-.66.001-1.081.027-1.4.025-.305.066-.405.087-.446.1-.197.26-.357.457-.457.04-.02.141-.062.446-.087.319-.026.74-.027 1.4-.027Z" clip-rule="evenodd"/>
</svg>
