<svg xmlns="http://www.w3.org/2000/svg" width="12" height="12" fill="currentColor" viewBox="0 0 12 12"><path fill-rule="evenodd" d="M3.665 6.679c0-1.088-.015-2.343-.015-2.343l4.678-.015.012 1.84c.298-.095.614-.15.941-.16v-1.97a.656.656 0 0 0-.656-.656H8.25V1.219a.469.469 0 0 0-.938 0v2.156H4.688V1.219a.469.469 0 0 0-.937 0v2.156h-.375a.656.656 0 0 0-.656.656v2.625c0 1.223.836 2.251 1.969 2.543v1.395c0 .362.293.656.656.656h1.224a3.359 3.359 0 0 1-.437-.94l-.502.002.004-1.027.368-.002c.009-.324.063-.637.157-.933h-.822c-1.087 0-1.671-.584-1.671-1.671Z" clip-rule="evenodd"/><path fill-rule="evenodd" d="M12 9.375a2.625 2.625 0 1 1-5.25 0 2.625 2.625 0 0 1 5.25 0Zm-.75 0a1.875 1.875 0 0 1-2.909 1.564l2.598-2.598c.197.296.311.652.311 1.034Zm-3.44 1.034 2.599-2.598a1.875 1.875 0 0 0-2.598 2.598Z" clip-rule="evenodd"/></svg>