<svg xmlns="http://www.w3.org/2000/svg" width="20" height="20" fill="currentColor" viewBox="0 0 20 20"><path fill-rule="evenodd" d="M6.108 11.13c0-1.811-.025-3.904-.025-3.904l7.797-.025.02 3.069a5.611 5.611 0 0 1 1.569-.268V6.72c0-.604-.49-1.094-1.094-1.094h-.625V2.031a.781.781 0 0 0-1.563 0v3.594H7.814V2.031a.781.781 0 0 0-1.563 0v3.594h-.625c-.604 0-1.094.49-1.094 1.094v4.375a4.377 4.377 0 0 0 3.282 4.237v2.325c0 .604.49 1.094 1.093 1.094h2.041a5.6 5.6 0 0 1-.729-1.568l-.836.005.007-1.712.613-.003c.014-.54.105-1.062.262-1.555h-1.37c-1.812 0-2.786-.974-2.786-2.786Z" clip-rule="evenodd"/><path fill-rule="evenodd" d="M20 15.625a4.375 4.375 0 1 1-8.75 0 4.375 4.375 0 0 1 8.75 0Zm-1.25 0a3.125 3.125 0 0 1-4.848 2.607l4.33-4.33a3.11 3.11 0 0 1 .518 1.723Zm-5.732 1.723 4.33-4.33a3.125 3.125 0 0 0-4.33 4.33Z" clip-rule="evenodd"/></svg>