<svg xmlns="http://www.w3.org/2000/svg" width="20" height="20" fill="currentColor" viewBox="0 0 20 20">
  <path fill-rule="evenodd" d="M14.2 5.876a1.48 1.48 0 0 0-.81-.23h-.128v-2.79a.85.85 0 0 0-.236-.604.753.753 0 0 0-.569-.251.753.753 0 0 0-.569.25.85.85 0 0 0-.236.605V5.6H8.348V2.855a.85.85 0 0 0-.236-.604.753.753 0 0 0-.57-.251.753.753 0 0 0-.568.25.85.85 0 0 0-.236.605v2.792H6.61c-.442 0-.821.167-1.136.502A1.699 1.699 0 0 0 5 7.356v4.148c0 .23.041.45.123.658.082.209.199.392.35.55l.916.974 1.132-1.13L6.5 11.492l-.017-4.395h6.495L14.2 5.876Zm-5.38 8.031.68.708V16.5h1v-1.885l3-3.122-.008-2.257L15 7.727v3.777c0 .23-.041.45-.123.658a1.686 1.686 0 0 1-.35.55l-2.467 2.621v1.812a.85.85 0 0 1-.236.604.753.753 0 0 1-.569.251h-2.51a.753.753 0 0 1-.569-.25.85.85 0 0 1-.236-.605v-1.812l-.265-.28 1.145-1.146Z" clip-rule="evenodd"/>
  <path fill-rule="evenodd" d="M17.663 1.337a.938.938 0 0 1 0 1.326l-15 15a.938.938 0 0 1-1.326-1.326l15-15a.937.937 0 0 1 1.326 0Z" clip-rule="evenodd"/>
</svg>
