<svg enable-background="new 0 0 16 16" viewBox="0 0 16 16" width="16" height="16" xmlns="http://www.w3.org/2000/svg"><path class="disconnected-path" d="m10.01 7.99-2.51 2.51-2-2 2.5-2.5-1-1-2.5 2.5-.57-.57c-.24-.24-.65-.21-.93.07s-.31.69-.07.93l.07.07-2 2c-.48.48-.48 1.52 0 2l1 1-2 2v1h1l2-2 1 1c.48.48 1.52.48 2 0l2-2 .07.07c.24.24.65.21.93-.07s.31-.69.07-.93l-.57-.57 2.51-2.51zm5.99-7.99h-1l-2 2-1-1c-.48-.48-1.52-.48-2 0l-.99.99-.08-.07c-.23-.23-.65-.2-.92.07-.28.28-.31.7-.08.93l.07.07-.01.02 5.01 4.99.01-.01.07.07c.24.24.65.2.93-.07.28-.28.31-.69.07-.93l-.07-.07.99-.99c.48-.48.48-1.52 0-2l-1-1 2-2z"/></svg>
