<svg xmlns="http://www.w3.org/2000/svg" width="12" height="12" fill="currentColor" viewBox="0 0 12 12">
  <path fill-rule="evenodd" d="M6.27 9.932h-.54V8.885l-.465-.514-.72.72.219.242v1.133a.54.54 0 0 0 .142.377.444.444 0 0 0 .34.157h1.507a.444.444 0 0 0 .341-.157.543.543 0 0 0 .142-.377V9.333l1.48-1.638A1.133 1.133 0 0 0 9 6.941V4.636l-.966.965v1.331L6.27 8.885v1.047ZM4.51 7.535l-.544-.602V4.319h3.76l.854-.854a.863.863 0 0 0-.546-.186h-.077V1.534a.543.543 0 0 0-.142-.377.444.444 0 0 0-.34-.157.444.444 0 0 0-.342.157.543.543 0 0 0-.142.377v1.717H5.01V1.534a.543.543 0 0 0-.142-.377A.444.444 0 0 0 4.526 1a.444.444 0 0 0-.341.157.543.543 0 0 0-.142.377V3.28h-.077a.888.888 0 0 0-.682.314c-.19.21-.284.46-.284.755V6.94c0 .144.025.281.074.411.05.13.119.245.21.344l.506.56.72-.72Z" clip-rule="evenodd"/>
  <path fill-rule="evenodd" d="M10.648.852c.22.22.22.576 0 .796l-9 9a.562.562 0 1 1-.796-.796l9-9c.22-.22.576-.22.796 0Z" clip-rule="evenodd"/>
</svg>
