<svg xmlns="http://www.w3.org/2000/svg" width="16" height="16" fill="currentColor" viewBox="0 0 16 16">
  <path fill-rule="evenodd" d="M11.224 4.837a1.27 1.27 0 0 0-.512-.102h-.103V2.641a.616.616 0 0 0-.188-.453A.621.621 0 0 0 9.966 2a.621.621 0 0 0-.455.188.616.616 0 0 0-.19.453v2.06H6.679V2.64a.616.616 0 0 0-.189-.453A.621.621 0 0 0 6.034 2a.621.621 0 0 0-.455.188.616.616 0 0 0-.188.453v2.094h-.103c-.355 0-.658.126-.91.377A1.232 1.232 0 0 0 4 6.017v3.111a1.261 1.261 0 0 0 .378.906l.826.823.912-.912-.828-.825V5.983h4.79l1.146-1.146Zm-4.045 6.166.46.458v1.257h.722V11.46l2.351-2.341V7.47L12 6.181v2.946a1.261 1.261 0 0 1-.378.906L9.648 12v1.359a.616.616 0 0 1-.189.453.622.622 0 0 1-.455.188H6.996a.622.622 0 0 1-.455-.188.616.616 0 0 1-.19-.453V12l-.084-.085.912-.912Z" clip-rule="evenodd"/>
  <path fill-rule="evenodd" d="M13.53 1.47a.75.75 0 0 1 0 1.06l-11 11a.75.75 0 0 1-1.06-1.06l11-11a.75.75 0 0 1 1.06 0Z" clip-rule="evenodd"/>
</svg>
