<svg xmlns="http://www.w3.org/2000/svg" width="16" height="16" fill="currentColor" viewBox="0 0 16 16"><path fill-rule="evenodd" d="M4.886 8.905c0-1.45-.02-3.124-.02-3.124l6.238-.02.016 2.455a4.492 4.492 0 0 1 1.255-.214V5.375A.875.875 0 0 0 11.5 4.5H11V1.625a.625.625 0 1 0-1.25 0V4.5h-3.5V1.625a.625.625 0 1 0-1.25 0V4.5h-.5a.875.875 0 0 0-.875.875v3.5a3.501 3.501 0 0 0 2.625 3.39v1.86c0 .483.392.875.875.875h1.633a4.48 4.48 0 0 1-.583-1.254l-.669.003.005-1.369.49-.002a4.49 4.49 0 0 1 .21-1.244H7.115c-1.45 0-2.229-.78-2.229-2.23Z" clip-rule="evenodd"/><path fill-rule="evenodd" d="M16 12.5a3.5 3.5 0 1 1-7 0 3.5 3.5 0 0 1 7 0Zm-1 0a2.5 2.5 0 0 1-3.879 2.086l3.465-3.465c.262.396.414.87.414 1.379Zm-4.586 1.379 3.465-3.465a2.5 2.5 0 0 0-3.465 3.465Z" clip-rule="evenodd"/></svg>