<?xml version="1.0" encoding="UTF-8" standalone="no"?>
<svg width="16px" height="16px" viewBox="0 0 16 16" version="1.1" xmlns="http://www.w3.org/2000/svg" xmlns:xlink="http://www.w3.org/1999/xlink">
    <title>approve</title>
    <g stroke="none" stroke-width="1">
        <path d="M0,5.92592593 L0,14.2222222 L3.07692308,14.2222222 L3.07692308,5.92592593 L0,5.92592593 Z M4.31771389,5.99410145 C4.31771389,5.99410145 5.8018923,4.61350553 8.10262634,3.37268496 C10.4033605,2.13186475 11.4690076,6.93719721e-08 12.2331384,0 C12.9972692,0 12.9449601,1.54044421 12.9449601,1.76151405 C12.9449601,1.9825839 13.0707801,3.41394686 10.8816736,5.46502104 C10.8816736,5.46502104 15.7418097,6.31961127 15.9814982,6.76180758 C16.2660994,7.28686245 13.1875634,16 12.2331384,16 C11.2787135,16 4.30769231,14.2012496 4.30769231,14.2012496 L4.31771389,5.99410145 Z" transform="translate(8.000000, 8.000000) scale(-1, -1) translate(-8.000000, -8.000000) "></path>
    </g>
</svg>