<svg width="20" height="20" viewBox="0 0 20 20" xmlns="http://www.w3.org/2000/svg">
<path d="M7.25 6.5C7.66421 6.5 8 6.83579 8 7.25C8 7.66421 7.66421 8 7.25 8C6.83579 8 6.5 7.66421 6.5 7.25C6.5 6.83579 6.83579 6.5 7.25 6.5Z" stroke="#6C707E"/>
<path d="M12.75 6.5C13.1642 6.5 13.5 6.83579 13.5 7.25C13.5 7.66421 13.1642 8 12.75 8C12.3358 8 12 7.66421 12 7.25C12 6.83579 12.3358 6.5 12.75 6.5Z" stroke="#6C707E"/>
<path d="M13.5 13.75C13.5 13.75 12.5 11.75 10 11.75C7.5 11.75 6.5 13.75 6.5 13.75" stroke="#6C707E" stroke-width="1.5" stroke-linecap="round" stroke-linejoin="round"/>
<path d="M10 1.75C14.5563 1.75 18.25 5.44365 18.25 10C18.25 14.5563 14.5563 18.25 10 18.25C5.44365 18.25 1.75 14.5563 1.75 10C1.75 5.44365 5.44365 1.75 10 1.75Z" stroke="#6C707E" stroke-width="1.5"/>
</svg>
