<svg width="16" height="16" viewBox="0 0 16 16" xmlns="http://www.w3.org/2000/svg">
<path d="M5.80005 6.125C6.00716 6.125 6.17505 6.29289 6.17505 6.5C6.17505 6.70711 6.00716 6.875 5.80005 6.875C5.59294 6.875 5.42505 6.70711 5.42505 6.5C5.42505 6.29289 5.59294 6.125 5.80005 6.125Z" stroke="#6C707E" stroke-width="1.25"/>
<path d="M10.2 6.125C10.4071 6.125 10.575 6.29289 10.575 6.5C10.575 6.70711 10.4071 6.875 10.2 6.875C9.99284 6.875 9.82495 6.70711 9.82495 6.5C9.82495 6.29289 9.99284 6.125 10.2 6.125Z" stroke="#6C707E" stroke-width="1.25"/>
<path d="M10.7 11C10.7 11 9.92862 9.40002 8.00005 9.40002C6.07148 9.40002 5.30005 11 5.30005 11" stroke="#6C707E" stroke-width="1.25" stroke-linecap="round" stroke-linejoin="round"/>
<path d="M8 1.625C11.5208 1.625 14.375 4.47918 14.375 8C14.375 11.5208 11.5208 14.375 8 14.375C4.47918 14.375 1.625 11.5208 1.625 8C1.625 4.47918 4.47918 1.625 8 1.625Z" stroke="#6C707E" stroke-width="1.25"/>
</svg>
