<svg xmlns="http://www.w3.org/2000/svg" width="16" height="16" viewBox="0 0 16 16">
<path d="M7.3,2.68 L7.3,7 L8.7,7 L8.7,2.68 L9.63,3.61 L10.63,2.61 L8,0 L5.38,2.62 L6.38,3.62 L7.3,2.68 Z M8.7,13.31 L8.7,9 L7.3,9 L7.3,13.3 L6.37,12.38 L5.37,13.38 L8,16 L10.62,13.39 L9.62,12.39 L8.7,13.31 Z M13.38,5.38 L12.38,6.38 L13.31,7.31 L9,7.31 L9,8.7 L13.3,8.7 L12.38,9.62 L13.38,10.62 L16,8 L13.38,5.38 Z M7,8.7 L7,7.3 L2.68,7.3 L3.61,6.37 L2.61,5.37 L0,8 L2.61,10.61 L3.61,9.61 L2.69,8.7 L7,8.7 Z"/>
</svg>
