<svg xmlns="http://www.w3.org/2000/svg" width="16" height="16" viewBox="0 0 16 16">
<path d="M8,11.09a1.41,1.41,0,0,0-.2-.71,1.74,1.74,0,0,1-.16-.23l-.26-.38c-.08-.12-.16-.27-.26-.45a4,4,0,0,1-.21-.52.2.2,0,0,0-.21-.16.2.2,0,0,0-.22.16,4,4,0,0,1-.21.52A5,5,0,0,1,6,9.77l-.26.38c-.09.15-.15.23-.15.23a1.33,1.33,0,0,0-.21.71,1.28,1.28,0,0,0,.38.92,1.3,1.3,0,0,0,.93.38A1.3,1.3,0,0,0,8,11.09Zm5.22-1.31a5,5,0,0,1-1.53,3.69A5,5,0,0,1,8,15a5,5,0,0,1-3.69-1.53A5,5,0,0,1,2.78,9.78,5.22,5.22,0,0,1,3.61,7l.63-.92C4.63,5.5,5,5,5.27,4.52a20.27,20.27,0,0,0,1-1.82A12.7,12.7,0,0,0,7.13.65.89.89,0,0,1,7.48.17a.88.88,0,0,1,1,0,.84.84,0,0,1,.35.48,13.16,13.16,0,0,0,.84,2.06,18.94,18.94,0,0,0,1,1.81c.3.47.64,1,1,1.54l.63.92a5.12,5.12,0,0,1,.83,2.8Z"/>
</svg>