<svg xmlns="http://www.w3.org/2000/svg" width="16" height="16" fill="currentColor" viewBox="0 0 16 16">
  <path fill-rule="evenodd" d="M11.6 2.25h-.626a2.022 2.022 0 0 0-.225-.013h-6.45A2.4 2.4 0 0 1 6.4 1h5.2A2.4 2.4 0 0 1 14 3.4v6.2a2.4 2.4 0 0 1-1.251 2.108V9.655l.001-.055V3.4a1.15 1.15 0 0 0-1.15-1.15ZM9.247 5.013H3.012a.75.75 0 0 0-.75.75v7.225c0 .414.336.75.75.75h6.235a.75.75 0 0 0 .75-.75V5.763a.75.75 0 0 0-.75-.75Zm-6.235-1.25a2 2 0 0 0-2 2v7.225a2 2 0 0 0 2 2h6.235a2 2 0 0 0 2-2V5.763a2 2 0 0 0-2-2H3.012Z" clip-rule="evenodd"/>
  <path d="M4 9.5a.5.5 0 0 1 .5-.5h3a.5.5 0 0 1 0 1h-3a.5.5 0 0 1-.5-.5Z"/>
  <path d="M6 11.5a.5.5 0 0 1-.5-.5V8a.5.5 0 0 1 1 0v3a.5.5 0 0 1-.5.5Z"/>
</svg>
