<svg xmlns="http://www.w3.org/2000/svg" width="16" height="16" fill="currentColor" viewBox="0 0 16 16">
  <path fill-rule="evenodd" d="M2.305 6.646a5.869 5.869 0 0 0 0 2.708h2.666a10.407 10.407 0 0 1-.115-1.366c.01-.452.048-.9.115-1.342H2.305Zm.403-1.148h2.504a10.407 10.407 0 0 1 1.484-3.205 5.864 5.864 0 0 0-3.988 3.205ZM8 2.458a9.258 9.258 0 0 0-1.594 3.04h3.188A9.258 9.258 0 0 0 8 2.458Zm1.867 4.188H6.133c-.076.445-.12.898-.13 1.354.01.456.054.909.13 1.354h3.734c.076-.445.12-.898.13-1.354a9.257 9.257 0 0 0-.13-1.354Zm1.162 2.708a10.407 10.407 0 0 0 .115-1.366c-.01-.452-.048-.9-.115-1.342h2.666a5.866 5.866 0 0 1 0 2.708h-2.666Zm-1.435 1.148H6.406A9.259 9.259 0 0 0 8 13.542a9.259 9.259 0 0 0 1.594-3.04Zm-2.898 3.205a10.407 10.407 0 0 1-1.484-3.205H2.708a5.864 5.864 0 0 0 3.988 3.205Zm2.608 0a10.406 10.406 0 0 0 1.484-3.205h2.504a5.864 5.864 0 0 1-3.988 3.205Zm3.988-8.209h-2.504a10.406 10.406 0 0 0-1.484-3.205 5.864 5.864 0 0 1 3.988 3.205ZM1 8a7 7 0 1 1 14 0A7 7 0 0 1 1 8Z" clip-rule="evenodd"/>
</svg>
