<svg xmlns="http://www.w3.org/2000/svg" width="12" height="12" fill="currentColor" viewBox="0 0 12 12">
  <path fill-rule="evenodd" d="M1.932 5.033a4.192 4.192 0 0 0 0 1.934h1.904a7.434 7.434 0 0 1-.082-.976c.007-.322.035-.642.082-.958H1.932Zm.288-.82h1.788c.22-.816.578-1.59 1.06-2.29a4.189 4.189 0 0 0-2.848 2.29ZM6 2.042a6.613 6.613 0 0 0-1.139 2.171H7.14A6.613 6.613 0 0 0 6 2.042Zm1.333 2.99H4.667A6.613 6.613 0 0 0 4.574 6c.007.326.038.65.093.967h2.666A6.49 6.49 0 0 0 7.426 6a6.613 6.613 0 0 0-.093-.967Zm.83 1.935a7.432 7.432 0 0 0 .083-.976 7.432 7.432 0 0 0-.082-.958h1.904a4.194 4.194 0 0 1 0 1.934H8.164Zm-1.024.82H4.86c.24.785.625 1.522 1.139 2.171a6.613 6.613 0 0 0 1.139-2.171Zm-2.07 2.29a7.433 7.433 0 0 1-1.06-2.29h-1.79a4.188 4.188 0 0 0 2.85 2.29Zm1.863 0a7.433 7.433 0 0 0 1.06-2.29H9.78a4.188 4.188 0 0 1-2.848 2.29ZM9.78 4.212H7.992a7.434 7.434 0 0 0-1.06-2.29 4.189 4.189 0 0 1 2.848 2.29ZM1 6a5 5 0 1 1 10 0A5 5 0 0 1 1 6Z" clip-rule="evenodd"/>
</svg>
