<svg xmlns="http://www.w3.org/2000/svg" width="16" height="16" fill="currentColor" viewBox="0 0 16 16">
  <g class="emoji-round-plus">
    <path d="M7.5 6.53a1 1 0 1 1-2 0 1 1 0 0 1 2 0Zm3.01 0a1 1 0 1 1-2 0 1 1 0 0 1 2 0ZM6.167 9.378a.625.625 0 1 0-.883.883l.883-.883Zm4.55.883a.625.625 0 0 0-.885-.883l.884.883ZM13.124 1a.625.625 0 1 0-1.25 0h1.25Zm-1.25 5a.625.625 0 1 0 1.25 0h-1.25ZM15 4.125a.625.625 0 1 0 0-1.25v1.25Zm-5-1.25a.625.625 0 1 0 0 1.25v-1.25ZM14.993 8a.625.625 0 1 0-1.25 0h1.25ZM8 2.257a.625.625 0 1 0 0-1.25v1.25ZM5.726 9.82a89.472 89.472 0 0 0-.442.442l.001.001.002.002.005.004.013.013a2.347 2.347 0 0 0 .194.168c.127.102.31.235.542.367A3.96 3.96 0 0 0 8 11.354v-1.25a2.71 2.71 0 0 1-1.339-.372 2.996 2.996 0 0 1-.494-.355l-.002-.002.001.001.001.001-.441.443ZM8 11.354a3.96 3.96 0 0 0 1.96-.537 4.257 4.257 0 0 0 .692-.495l.043-.04.013-.013.005-.004.002-.002.001-.001-.442-.442c-.442-.442-.441-.443-.441-.443l.001-.001.001-.001-.002.002a2.996 2.996 0 0 1-.494.355A2.71 2.71 0 0 1 8 10.104v1.25ZM11.875 1v5h1.25V1h-1.25ZM15 2.875h-5v1.25h5v-1.25ZM13.743 8A5.743 5.743 0 0 1 8 13.743v1.25A6.993 6.993 0 0 0 14.993 8h-1.25ZM8 13.743A5.743 5.743 0 0 1 2.257 8h-1.25A6.993 6.993 0 0 0 8 14.993v-1.25ZM2.257 8A5.743 5.743 0 0 1 8 2.257v-1.25A6.993 6.993 0 0 0 1.007 8h1.25Z" class="Vector"/>
  </g>
</svg>
