<svg xmlns="http://www.w3.org/2000/svg" width="16" height="16" viewBox="0 0 16 16" fill="currentColor">
  <path fill-rule="evenodd" d="M10.7745,8.9769 C10.6325,9.3809 10.4105,9.7639 10.0875,10.0859 C9.5295,10.6439 8.7895,10.9519 8.0005,10.9519 C7.2115,10.9519 6.4705,10.6439 5.9135,10.0859 C5.5905,9.7639 5.3685,9.3809 5.2265,8.9769 L3.9565,8.9769 C4.1295,9.6999 4.4855,10.3869 5.0495,10.9519 C5.8645,11.7649 6.9325,12.1729 8.0005,12.1729 C9.0685,12.1729 10.1365,11.7649 10.9515,10.9519 C11.5155,10.3869 11.8705,9.6999 12.0445,8.9769 L10.7745,8.9769 Z M11.9605,11.9599 C10.9025,13.0179 9.4965,13.5999 8.0005,13.5999 C6.5045,13.5999 5.0985,13.0179 4.0405,11.9599 C1.8575,9.7759 1.8575,6.2239 4.0405,4.0399 C5.0985,2.9819 6.5045,2.3999 8.0005,2.3999 C9.4965,2.3999 10.9025,2.9819 11.9605,4.0399 C14.1435,6.2239 14.1435,9.7759 11.9605,11.9599 L11.9605,11.9599 Z M12.9505,3.0499 C11.5835,1.6839 9.7925,0.9999 8.0005,0.9999 C6.2095,0.9999 4.4175,1.6839 3.0505,3.0499 C0.3165,5.7839 0.3165,10.2159 3.0505,12.9499 C4.4175,14.3159 6.2095,14.9999 8.0005,14.9999 C9.7925,14.9999 11.5835,14.3159 12.9505,12.9499 C15.6845,10.2159 15.6845,5.7839 12.9505,3.0499 L12.9505,3.0499 Z M6.2925,6.9769 C6.8445,6.9769 7.2925,6.5299 7.2925,5.9769 C7.2925,5.4239 6.8445,4.9769 6.2925,4.9769 C5.7395,4.9769 5.2925,5.4239 5.2925,5.9769 C5.2925,6.5299 5.7395,6.9769 6.2925,6.9769 L6.2925,6.9769 Z M9.7095,6.9769 C10.2615,6.9769 10.7095,6.5299 10.7095,5.9769 C10.7095,5.4239 10.2615,4.9769 9.7095,4.9769 C9.1565,4.9769 8.7095,5.4239 8.7095,5.9769 C8.7095,6.5299 9.1565,6.9769 9.7095,6.9769 L9.7095,6.9769 Z"/>
</svg>
