<svg xmlns="http://www.w3.org/2000/svg" viewBox="0 0 16 16"><path d="M11.3,1.2H4.7A3.56,3.56,0,0,0,1.14,4.76v6.59A3.57,3.57,0,0,0,4.7,14.92h6.6a3.57,3.57,0,0,0,3.56-3.57V4.76A3.56,3.56,0,0,0,11.3,1.2Zm2.26,10.15a2.27,2.27,0,0,1-2.26,2.27H4.7a2.27,2.27,0,0,1-2.26-2.27V4.76A2.26,2.26,0,0,1,4.7,2.5h6.6a2.26,2.26,0,0,1,2.26,2.26ZM6.09,7a1,1,0,1,0-1-1A1,1,0,0,0,6.09,7ZM9.93,7a1,1,0,1,0-1-1A1,1,0,0,0,9.93,7ZM8,10.37A1.49,1.49,0,0,1,6.47,9H5a3,3,0,0,0,3,2.91,3,3,0,0,0,3-2.91H9.55A1.49,1.49,0,0,1,8,10.37Z"/></svg>