<svg xmlns="http://www.w3.org/2000/svg" width="16" height="16" fill="currentColor" viewBox="0 0 16 16">
  <g class="emoji-circle">
    <path fill-rule="evenodd" d="M13.75 8a5.75 5.75 0 1 1-11.5 0 5.75 5.75 0 0 1 11.5 0ZM8 15A7 7 0 1 0 8 1a7 7 0 0 0 0 14ZM5.058 9.558a.625.625 0 0 1 .882-.002l.003.003.022.02.105.09c.097.076.242.182.428.288.374.214.892.418 1.502.418s1.128-.204 1.502-.418a3.355 3.355 0 0 0 .555-.398l.003-.003a.625.625 0 0 1 .882.886L10.5 10l.442.442-.002.001-.001.002-.005.005-.015.014a3.51 3.51 0 0 1-.209.18c-.137.11-.336.255-.587.399A4.294 4.294 0 0 1 8 11.625c-.89 0-1.622-.296-2.123-.582a4.606 4.606 0 0 1-.75-.536 2.264 2.264 0 0 1-.046-.043l-.015-.014-.005-.005-.001-.002h-.001L5.5 10l-.442.442a.625.625 0 0 1 0-.884Zm2.46-3.04a1 1 0 1 1-2 0 1 1 0 0 1 2 0Zm2 1a1 1 0 1 0 0-2 1 1 0 0 0 0 2Z" class="Union" clip-rule="evenodd"/>
  </g>
</svg>
