<svg xmlns="http://www.w3.org/2000/svg" viewBox="0 0 16 16">
	<g>
		<path d="M12.60986,1.25H3.29932A2.05231,2.05231,0,0,0,1.25,3.31934v9.36426A2.14351,2.14351,0,0,0,3.39014,14.75h9.31055A2.05144,2.05144,0,0,0,14.75,12.68359V3.31348A2.14236,2.14236,0,0,0,12.60986,1.25ZM13.25,12.68945a.55734.55734,0,0,1-.16162.39941.54526.54526,0,0,1-.3877.16113H3.39014A.64758.64758,0,0,1,2.75,12.67773V3.31348a.56294.56294,0,0,1,.16211-.40234A.54414.54414,0,0,1,3.29932,2.75h9.31055a.64591.64591,0,0,1,.64014.56934Z"/>
		<path d="m9.84082 8.21094a1.84076 1.84076 0 1 1 -3.68158 .00037h-1.5a3.34082 3.34082 0 1 0 6.68164 0"/>
		<circle cx="6" cy="6" r=".997" transform="matrix(.97781-.2095.2095.97781-1.124 1.391)"/>
		<circle cx="9.997" cy="5.997" r=".997" transform="matrix(.97781-.2095.2095.97781-1.035 2.228)"/>
	</g>
</svg>