<svg xmlns="http://www.w3.org/2000/svg" width="16" height="16" viewBox="0 0 16 16"><g><path d="M12.36,1H3.64A2.64,2.64,0,0,0,1,3.64v8.72A2.64,2.64,0,0,0,3.64,15h8.72A2.64,2.64,0,0,0,15,12.36V3.64A2.64,2.64,0,0,0,12.36,1ZM13.6,12.36a1.25,1.25,0,0,1-1.24,1.24H3.64A1.25,1.25,0,0,1,2.4,12.36V3.64A1.25,1.25,0,0,1,3.64,2.4h8.72A1.25,1.25,0,0,1,13.6,3.64ZM8,10.3A2.3,2.3,0,0,1,5.7,8H4.3a3.7,3.7,0,0,0,7.4,0H10.3A2.3,2.3,0,0,1,8,10.3ZM6,5A1,1,0,1,0,5,6,1,1,0,0,0,6,5Zm5-1a1,1,0,1,0,1,1A1,1,0,0,0,11,4Z"/></g></svg>