<?xml version="1.0" encoding="utf-8"?>
<!DOCTYPE svg PUBLIC "-//W3C//DTD SVG 1.1//EN" "http://www.w3.org/Graphics/SVG/1.1/DTD/svg11.dtd">
<svg version="1.1" xmlns="http://www.w3.org/2000/svg" xmlns:xlink="http://www.w3.org/1999/xlink" width="16" height="16" viewBox="0 0 16 16">
	<path d="M8.005.04177a8,8,0,1,0,8,8A8,8,0,0,0,8.005.04177Zm.02084,13.17834a1.16988,1.16988,0,1,1,1.16986-1.16989A1.16988,1.16988,0,0,1,8.02587,13.22012ZM9.2084,4.12429l-.3125,4.499a.893.893,0,0,1-1.78174,0l-.3125-4.499A1.20627,1.20627,0,1,1,9.2084,3.95712,1.32275,1.32275,0,0,1,9.2084,4.12429Z"/>
</svg>
