<svg xmlns="http://www.w3.org/2000/svg" width="12" height="12" fill="currentColor" viewBox="0 0 12 12">
  <path fill-rule="evenodd" d="M6 11.25A5.25 5.25 0 1 0 6 .75a5.25 5.25 0 0 0 0 10.5Zm1.125-7.987c.352 0 .637.285.637.637v2.25a.638.638 0 0 1-1.275 0V3.9c0-.352.286-.637.638-.637ZM6.487 8.25c0-.352.286-.637.638-.637h.005a.638.638 0 0 1 0 1.275h-.005a.637.637 0 0 1-.638-.638ZM5.513 3.9a.638.638 0 0 0-1.275 0v2.25a.637.637 0 1 0 1.275 0V3.9Zm-.638 3.713a.638.638 0 0 0 0 1.275h.005a.637.637 0 1 0 0-1.275h-.005Z" clip-rule="evenodd"/>
</svg>
