<svg xmlns="http://www.w3.org/2000/svg" width="20" height="20" fill="currentColor" viewBox="0 0 20 20">
  <path fill-rule="evenodd" d="M10 18.75a8.75 8.75 0 1 0 0-17.5 8.75 8.75 0 0 0 0 17.5Zm1.875-13.315c.587 0 1.062.476 1.062 1.063v3.75a1.062 1.062 0 1 1-2.125 0v-3.75c0-.587.476-1.063 1.063-1.063Zm-1.063 8.313c0-.587.476-1.063 1.063-1.063h.008a1.063 1.063 0 0 1 0 2.125h-.008a1.063 1.063 0 0 1-1.063-1.062Zm-1.624-7.25a1.063 1.063 0 1 0-2.125 0v3.75a1.063 1.063 0 0 0 2.125 0v-3.75Zm-1.063 6.187a1.063 1.063 0 0 0 0 2.125h.009a1.062 1.062 0 1 0 0-2.125h-.009Z" clip-rule="evenodd"/>
</svg>
