<svg xmlns="http://www.w3.org/2000/svg" width="12" height="12" fill="currentColor" viewBox="0 0 12 12">
  <path fill-rule="evenodd" d="M10 6a4 4 0 1 1-8 0 4 4 0 0 1 8 0Zm-4 5A5 5 0 1 0 6 1a5 5 0 0 0 0 10Zm.005-4.093c-.302 0-.458-.153-.468-.458L5.464 3.92a.466.466 0 0 1 .14-.374.54.54 0 0 1 .39-.146c.16 0 .292.05.396.15a.455.455 0 0 1 .146.37l-.083 2.53c-.007.304-.156.457-.448.457Zm0 1.728a.637.637 0 0 1-.437-.162.542.542 0 0 1-.177-.41c0-.164.06-.3.177-.407a.625.625 0 0 1 .437-.166c.167 0 .309.054.427.161a.525.525 0 0 1 .182.411c0 .167-.06.304-.182.411a.623.623 0 0 1-.427.162Z" clip-rule="evenodd"/>
</svg>
