<svg xmlns="http://www.w3.org/2000/svg" width="20" height="20" fill="currentColor" viewBox="0 0 20 20">
  <path d="M19 3.617v12.766A2.618 2.618 0 0 1 16.383 19h-5.59a.793.793 0 1 1 0-1.586h5.59a1.031 1.031 0 0 0 1.031-1.031V3.617a1.031 1.031 0 0 0-1.031-1.031h-5.59a.793.793 0 1 1 0-1.586h5.59A2.618 2.618 0 0 1 19 3.617ZM6.914 15.121a.794.794 0 0 1-1.122 0l-4.56-4.56a.793.793 0 0 1 0-1.122l4.56-4.56a.794.794 0 0 1 1.122 1.122L3.708 9.207h8.5a.793.793 0 1 1 0 1.586h-8.5l3.206 3.206c.31.31.31.812 0 1.122Z"/>
</svg>
