<svg xmlns="http://www.w3.org/2000/svg" width="20" height="20" fill="currentColor" viewBox="0 0 20 20">
  <path fill-rule="evenodd" d="M13.429 3.5H6.57c-.824 0-1.353.001-1.754.034-.384.031-.517.084-.576.114a1.36 1.36 0 0 0-.593.593c-.03.059-.083.192-.114.576-.033.401-.034.93-.034 1.754v6.858c0 .824.001 1.353.034 1.754.031.384.084.517.114.576.13.255.338.463.593.593.059.03.192.083.576.114.401.033.93.034 1.754.034h6.858c.824 0 1.353-.001 1.754-.034.384-.031.517-.084.576-.114a1.36 1.36 0 0 0 .593-.593c.03-.059.083-.192.114-.576.033-.401.034-.93.034-1.754V6.57c0-.824-.001-1.353-.034-1.754-.031-.384-.084-.517-.114-.576a1.357 1.357 0 0 0-.593-.593c-.059-.03-.192-.083-.576-.114-.401-.033-.93-.034-1.754-.034ZM2.31 3.56C2 4.171 2 4.971 2 6.571v6.858c0 1.6 0 2.4.311 3.011.274.538.711.975 1.249 1.249C4.171 18 4.971 18 6.571 18h6.858c1.6 0 2.4 0 3.011-.311a2.857 2.857 0 0 0 1.249-1.249c.311-.611.311-1.411.311-3.011V6.57c0-1.6 0-2.4-.311-3.011A2.857 2.857 0 0 0 16.44 2.31C15.829 2 15.029 2 13.429 2H6.57c-1.6 0-2.4 0-3.011.311A2.857 2.857 0 0 0 2.311 3.56ZM5.25 10A.75.75 0 0 1 6 9.25h3.25V6a.75.75 0 0 1 1.5 0v3.25H14a.75.75 0 0 1 0 1.5h-3.25V14a.75.75 0 0 1-1.5 0v-3.25H6a.75.75 0 0 1-.75-.75Z" clip-rule="evenodd"/>
</svg>
