<svg xmlns="http://www.w3.org/2000/svg" width="16" height="16" fill="currentColor" viewBox="0 0 16 16">
  <path fill-rule="evenodd" d="M9.066 2.637c0-.345.28-.625.625-.625h3.692c.345 0 .625.28.625.625v3.692a.625.625 0 1 1-1.25 0V4.146L9.942 6.96a.625.625 0 1 1-.884-.883l2.816-2.816H9.691a.625.625 0 0 1-.625-.625ZM7.01 9.03a.625.625 0 0 1-.006.884l-2.867 2.834h2.176a.625.625 0 0 1 0 1.25H2.62a.625.625 0 0 1-.625-.625V9.682a.625.625 0 1 1 1.25 0v2.19l2.88-2.846a.625.625 0 0 1 .884.005Z" clip-rule="evenodd"/>
</svg>
