<svg xmlns="http://www.w3.org/2000/svg" width="16" height="16" fill="currentColor" viewBox="0 0 16 16">
  <g class="experiment">
    <path fill-rule="evenodd" d="M9.694 1.243a.625.625 0 0 0-.883.884l.385.386-3.34 3.34a1 1 0 0 1-.513.274L.838 7.02a1 1 0 0 0-.513 1.688l5.972 5.973a1 1 0 0 0 1.688-.511l.9-4.5a1 1 0 0 1 .273-.512L12.5 5.816l.363.363a.625.625 0 1 0 .884-.884L9.694 1.243ZM1.54 8.153l5.311 5.312.808-4.042 1.177.236-1.177-.236a2.25 2.25 0 0 1 .616-1.15l.93-.93H5.638a2.225 2.225 0 0 1-.051.01l-4.046.8Zm10.04-3.185-1.13 1.131a.63.63 0 0 0-.088-.006H7.384l2.662-2.662 1.535 1.536Zm1.928 4.55a.721.721 0 0 0-1.14 0c-.169.217-.58.76-.951 1.357a7.974 7.974 0 0 0-.508.933c-.132.295-.256.648-.256.984a2.286 2.286 0 0 0 4.57 0c0-.336-.124-.69-.256-.984a7.958 7.958 0 0 0-.508-.933 17.073 17.073 0 0 0-.95-1.357Zm-1.03 2.018c.153-.246.314-.483.46-.689.146.206.307.443.46.688.17.273.32.543.428.783.114.256.147.41.147.474a1.036 1.036 0 0 1-2.07 0c0-.063.033-.218.147-.474.107-.24.258-.51.428-.783Z" class="Union" clip-rule="evenodd"/>
  </g>
</svg>
