<svg xmlns="http://www.w3.org/2000/svg" width="20" height="20" fill="currentColor" viewBox="0 0 20 20">
  <g class="Experiment">
    <path fill-rule="evenodd" d="M12.53 1.47a.75.75 0 0 0-1.06 1.06l.661.662L8.121 7.2a1 1 0 0 1-.512.274L1.837 8.617a1 1 0 0 0-.513 1.688l7.617 7.616a1 1 0 0 0 1.687-.51l1.153-5.765a1 1 0 0 1 .274-.511l4.01-4.01.47.47a.75.75 0 1 0 1.06-1.06L12.53 1.47ZM3.047 9.907 9.341 16.2l.97-4.848a2.5 2.5 0 0 1 .683-1.278l1.157-1.157h-4.06c-.018 0-.035 0-.053-.002a2.493 2.493 0 0 1-.138.031l-4.853.96Zm11.916-3.802-1.312 1.312h-3.623l3.123-3.124 1.813 1.812Zm1.868 5.968a.845.845 0 0 0-1.335 0c-.194.248-.711.927-1.184 1.681-.236.377-.47.787-.648 1.181-.168.373-.326.818-.326 1.237a2.826 2.826 0 0 0 5.65 0c0-.419-.157-.864-.325-1.237a10.144 10.144 0 0 0-.648-1.18 21.476 21.476 0 0 0-1.184-1.682Zm-1.248 2.478c.194-.31.398-.608.58-.864.183.256.387.554.58.864.218.346.413.692.552 1 .148.33.193.533.193.62a1.326 1.326 0 0 1-2.65 0c0-.087.046-.29.194-.62.139-.308.334-.654.551-1Z" class="Union" clip-rule="evenodd"/>
  </g>
</svg>
