<svg xmlns="http://www.w3.org/2000/svg" width="12" height="12" fill="currentColor" viewBox="0 0 12 12">
  <path fill-rule="evenodd" d="M9.18 2.865c-.952-.62-2.066-.99-3.18-.99-2.46 0-4.922 1.804-5.625 4.124.39 1.29 1.325 2.42 2.501 3.169l.727-.727c-.975-.568-1.78-1.443-2.17-2.442C2.118 4.246 4.075 2.875 6 2.875c.849 0 1.704.267 2.454.715l.725-.725Zm-1.83 1.83a1.875 1.875 0 1 0-2.651 2.651l.706-.707a.875.875 0 1 1 1.237-1.237l.707-.707ZM5.774 7.86l2.088-2.088A1.875 1.875 0 0 1 5.775 7.86ZM4.71 8.925A4.46 4.46 0 0 0 6 9.122c1.925 0 3.882-1.37 4.567-3.123a4.75 4.75 0 0 0-1.204-1.727l.708-.708c.72.677 1.275 1.515 1.554 2.435-.703 2.319-3.164 4.123-5.625 4.123-.705 0-1.41-.148-2.073-.414l.783-.783Z" clip-rule="evenodd"/>
  <path fill-rule="evenodd" d="M10.898.352c.22.22.22.576 0 .796l-9.75 9.75a.562.562 0 1 1-.796-.796l9.75-9.75c.22-.22.576-.22.796 0Z" clip-rule="evenodd"/>
</svg>
