<svg xmlns="http://www.w3.org/2000/svg" width="20" height="20" fill="currentColor" viewBox="0 0 20 20">
  <path fill-rule="evenodd" d="M10 15.374c-3.298 0-6.644-2.358-7.79-5.373C3.355 6.988 6.701 4.63 10 4.63s6.644 2.358 7.79 5.373c-1.146 3.014-4.492 5.372-7.79 5.372Zm0 1.5c4.102 0 8.203-3.007 9.375-6.872C18.203 6.136 14.102 3.128 10 3.128S1.797 6.136.625 10.002c1.172 3.865 5.273 6.872 9.375 6.872Zm1.627-6.872a1.625 1.625 0 1 1-3.25 0 1.625 1.625 0 0 1 3.25 0Zm1.5 0a3.125 3.125 0 1 1-6.25 0 3.125 3.125 0 0 1 6.25 0Z" clip-rule="evenodd"/>
</svg>
