<svg xmlns="http://www.w3.org/2000/svg" width="16" height="16" fill="currentColor" viewBox="0 0 16 16">
  <path fill-rule="evenodd" d="M12.24 3.82C10.97 2.993 9.485 2.5 8 2.5 4.719 2.5 1.437 4.905.5 7.998c.521 1.72 1.767 3.227 3.335 4.226l.909-.909c-1.319-.772-2.402-1.96-2.923-3.317C2.737 5.614 5.389 3.75 8 3.75c1.154 0 2.316.364 3.332.976l.907-.906ZM9.798 6.26a2.5 2.5 0 1 0-3.535 3.535l1.06-1.061A1 1 0 1 1 8.738 7.32L9.8 6.26ZM7.7 10.48l2.784-2.784A2.5 2.5 0 0 1 7.7 10.48Zm-1.487 1.487c.584.18 1.186.28 1.787.28 2.611 0 5.263-1.865 6.18-4.249-.34-.88-.914-1.69-1.637-2.361l.885-.885c.961.903 1.7 2.02 2.072 3.246-.938 3.093-4.219 5.498-7.5 5.498a7.46 7.46 0 0 1-2.764-.552l.977-.977Z" clip-rule="evenodd"/>
  <path fill-rule="evenodd" d="M14.53.47a.75.75 0 0 1 0 1.06l-13 13a.75.75 0 0 1-1.06-1.06l13-13a.75.75 0 0 1 1.06 0Z" clip-rule="evenodd"/>
</svg>
