<svg xmlns="http://www.w3.org/2000/svg" width="12" height="12" fill="currentColor" viewBox="0 0 12 12">
  <path fill-rule="evenodd" d="M6 9.122c-1.925 0-3.882-1.37-4.567-3.123C2.118 4.246 4.075 2.875 6 2.875c1.925 0 3.882 1.371 4.567 3.124C9.882 7.75 7.925 9.122 6 9.122Zm0 1c2.46 0 4.922-1.804 5.625-4.123C10.922 3.679 8.461 1.875 6 1.875c-2.46 0-4.922 1.804-5.625 4.124.703 2.319 3.164 4.123 5.625 4.123Zm.876-4.124a.875.875 0 1 1-1.75 0 .875.875 0 0 1 1.75 0Zm1 0a1.875 1.875 0 1 1-3.75 0 1.875 1.875 0 0 1 3.75 0Z" clip-rule="evenodd"/>
</svg>
