<svg xmlns="http://www.w3.org/2000/svg" width="20" height="20" fill="currentColor" viewBox="0 0 20 20">
  <path fill-rule="evenodd" d="M15.299 4.778c-1.585-1.033-3.442-1.65-5.299-1.65-4.102 0-8.203 3.008-9.375 6.873.652 2.15 2.209 4.034 4.168 5.283l1.137-1.136c-1.648-.966-3.002-2.451-3.654-4.146 1.145-2.98 4.46-5.31 7.724-5.31 1.443 0 2.895.455 4.165 1.22L15.3 4.778Zm-3.05 3.05a3.125 3.125 0 1 0-4.419 4.419l1.326-1.326a1.25 1.25 0 1 1 1.766-1.766l1.326-1.326Zm-2.624 5.276 3.48-3.48a3.125 3.125 0 0 1-3.48 3.48Zm-1.858 1.858c.729.226 1.482.35 2.233.35 3.264 0 6.579-2.331 7.724-5.31-.423-1.101-1.142-2.113-2.045-2.952l1.105-1.106c1.202 1.129 2.127 2.526 2.591 4.058-1.172 3.865-5.273 6.872-9.375 6.872a9.328 9.328 0 0 1-3.456-.69l1.223-1.222Z" clip-rule="evenodd"/>
  <path fill-rule="evenodd" d="M18.163.587a.938.938 0 0 1 0 1.326l-16.25 16.25a.938.938 0 0 1-1.326-1.326L16.837.587a.937.937 0 0 1 1.326 0Z" clip-rule="evenodd"/>
</svg>
