<svg xmlns="http://www.w3.org/2000/svg" width="16" height="16" fill="currentColor" viewBox="0 0 16 16">
  <path fill-rule="evenodd" d="M8 12.246c-2.611 0-5.263-1.864-6.18-4.248C2.738 5.614 5.39 3.75 8 3.75c2.611 0 5.263 1.864 6.18 4.248-.917 2.384-3.569 4.248-6.18 4.248Zm0 1.25c3.281 0 6.563-2.405 7.5-5.498C14.562 4.905 11.281 2.5 8 2.5 4.719 2.5 1.437 4.905.5 7.998c.938 3.093 4.219 5.498 7.5 5.498Zm1.252-5.498a1.25 1.25 0 1 1-2.5 0 1.25 1.25 0 0 1 2.5 0Zm1.25 0a2.5 2.5 0 1 1-5 0 2.5 2.5 0 0 1 5 0Z" clip-rule="evenodd"/>
</svg>
