<svg width="20" height="20" viewBox="0 0 20 20" fill="none" xmlns="http://www.w3.org/2000/svg">
<path d="M12.5996 1C13.9251 1.00002 15 2.03316 15 3.30762V13.6924C15 14.9668 13.9251 16 12.5996 16H8.87402C8.95629 15.6804 9 15.3453 9 15V14.5576H12.5996C13.0966 14.5576 13.5 14.1703 13.5 13.6924V3.30762C13.5 2.82972 13.0966 2.4424 12.5996 2.44238H9.60742V4.90137C9.60721 6.25532 8.46479 7.35249 7.05664 7.35254H4.5V10.0312C3.95887 10.0987 3.45171 10.2748 3 10.5361V6.00879C3.00009 5.70671 3.12374 5.41681 3.34375 5.20117L7.2793 1.3457C7.50474 1.12488 7.81297 1.00022 8.13477 1H12.5996ZM4.7207 5.91016H7.05664C7.63636 5.9101 8.10721 5.45876 8.10742 4.90137V2.5918L4.7207 5.91016Z" fill="#6C707E"/>
<rect x="1.25" y="11" width="7" height="7" rx="3.5" fill="#F2B181"/>
<path fill-rule="evenodd" clip-rule="evenodd" d="M3.72009 15.4627C3.9494 15.7129 4.16283 15.875 4.61183 15.875C5.13818 15.875 5.325 15.4627 5.325 15.1726V11.875H6.325V15.4627C6.325 16.1946 5.65171 16.875 4.775 16.875C3.954 16.875 3.475 16.6376 3.125 16.1946L3.72009 15.4627Z" fill="#231F20" fill-opacity="0.7"/>
</svg>
