<svg width="20" height="20" viewBox="0 0 20 20" fill="none" xmlns="http://www.w3.org/2000/svg">
  <path d="M12.5996 1C13.9251 1.00002 15 2.03316 15 3.30762V11H13.5V3.30762C13.5 2.82972 13.0966 2.4424 12.5996 2.44238H9.60742V4.90137C9.60721 6.25532 8.46479 7.35248 7.05664 7.35254H4.5V11H3V6.00879C3.00009 5.70671 3.12374 5.41681 3.34375 5.20117L7.2793 1.3457C7.50474 1.12488 7.81297 1.00022 8.13477 1H12.5996ZM4.7207 5.91016H7.05664C7.63636 5.9101 8.10721 5.45876 8.10742 4.90137V2.5918L4.7207 5.91016Z" fill="#6C707E"/>
  <path d="M1 13C1 12.4477 1.44772 12 2 12H18C18.5523 12 19 12.4477 19 13V18C19 18.5523 18.5523 19 18 19H2C1.44772 19 1 18.5523 1 18V13Z" fill="#F2B181"/>
  <path fill-rule="evenodd" clip-rule="evenodd" d="M3.9 15.5C4.564 15.5 5 15.3844 5 14.75C5 14.1156 4.557 14 3.9 14H3V15.5H3.9ZM2 13H3.971C5.142 13 6 13.642 6 14.65C6 16.2858 4.971 16.5 3.872 16.5H3V18H2V13Z" fill="#231F20" fill-opacity="0.7"/>
  <path fill-rule="evenodd" clip-rule="evenodd" d="M7.99571 18V16.0286L6 13H7.05L8.49571 15.2071L9.95 13H11L9 16.0071V18H7.99571Z" fill="#231F20" fill-opacity="0.7"/>
</svg>
