<svg width="12" height="12" viewBox="0 0 12 12" fill="none" xmlns="http://www.w3.org/2000/svg">
    <path d="M8.40039 1C9.28373 1.00021 9.99979 1.68872 10 2.53809V6H9V2.53809C8.99979 2.21976 8.73144 1.96213 8.40039 1.96191H6.4043V3.60059C6.4043 4.50321 5.64375 5.23511 4.70508 5.23535H3V6H2V4.33887C2.00012 4.13771 2.08211 3.94445 2.22852 3.80078L4.85352 1.23047C5.00385 1.08336 5.20934 1.00008 5.42383 1H8.40039ZM3.14648 4.27344H4.70508C5.09147 4.2732 5.4043 3.97217 5.4043 3.60059V2.06152L3.14648 4.27344Z" fill="#6C707E"/>
    <rect x="1" y="7" width="10" height="4" rx="0.5" fill="#F2B181"/>
    <g opacity="0.7">
        <path fill-rule="evenodd" clip-rule="evenodd" d="M3.89002 9.3L3.49769 8.34L3.11002 9.3H3.89002ZM3.2654 7.5H3.734L5 10.5H4.34L4.04 9.9H2.96L2.66 10.5H2L3.2654 7.5Z" fill="#27282E"/>
        <path fill-rule="evenodd" clip-rule="evenodd" d="M5.55587 8.40092C5.55587 8.17983 5.73371 8.1 6.05429 8.1C6.05886 8.1 6.71429 8.1 6.71429 8.1V7.5C6.71429 7.5 6.08229 7.5 6.06286 7.5C5.44457 7.5 5 7.7755 5 8.37C5 8.88872 5.23975 9.11429 5.84072 9.24965C6.28091 9.34879 6.42637 9.43718 6.42637 9.6288C6.42637 9.82042 6.22196 9.9 5.84072 9.9C5.83157 9.9 5.17143 9.9 5.17143 9.9V10.5C5.17143 10.5 5.83614 10.5 5.84072 10.5C7 10.5 7 9.9 7 9.6288C7 9.24965 6.72587 8.95243 6.23354 8.78811C5.74121 8.62379 5.55587 8.622 5.55587 8.40092Z" fill="#27282E"/>
    </g>
</svg>
