<svg width="20" height="20" viewBox="0 0 20 20" fill="none" xmlns="http://www.w3.org/2000/svg">
<path d="M12.5996 1C13.9251 1.00002 15 2.01758 15 3.27246V11H13.5V3.27246C13.5 2.80189 13.0967 2.41994 12.5996 2.41992H9.60742V4.84082C9.60742 6.17411 8.46492 7.25483 7.05664 7.25488H4.5V11H3V5.93164C3.00009 5.6342 3.12372 5.34807 3.34375 5.13574L7.2793 1.34082C7.50474 1.1234 7.81297 1.00022 8.13477 1H12.5996ZM4.7207 5.83496H7.05664C7.63649 5.83491 8.10742 5.3898 8.10742 4.84082V2.56738L4.7207 5.83496Z" fill="#6C707E"/>
<path d="M1 13C1 12.4477 1.44772 12 2 12H18C18.5523 12 19 12.4477 19 13V18C19 18.5523 18.5523 19 18 19H2C1.44772 19 1 18.5523 1 18V13Z" fill="#A0BDF8"/>
<g opacity="0.7">
<path fill-rule="evenodd" clip-rule="evenodd" d="M4 14C3.292 14 3 14.54 3 15.5C3 16.46 3.285 17 4 17C4.715 17 5 16.446 5 15.5C5 14.554 4.708 14 4 14ZM4 12.9997C5.207 12.9997 6 14.1177 6 15.4997C6 16.8817 5.206 17.9997 4 17.9997C2.794 17.9997 2 16.881 2 15.5C2 13.9588 2.793 12.9997 4 12.9997Z" fill="#27282E"/>
<path fill-rule="evenodd" clip-rule="evenodd" d="M8.1 13L7 13.4427L7.15686 14.2247L8 14V18H9.0001V13H8.1Z" fill="#27282E"/>
</g>
</svg>
