<svg width="20" height="20" viewBox="0 0 20 20" fill="none" xmlns="http://www.w3.org/2000/svg">
    <path d="M12.5996 1C13.9251 1.00002 15 2.03316 15 3.30762V11H13.5V3.30762C13.5 2.82972 13.0966 2.4424 12.5996 2.44238H9.60742V4.90137C9.60721 6.25532 8.46479 7.35248 7.05664 7.35254H4.5V11H3V6.00879C3.00009 5.70671 3.12374 5.41681 3.34375 5.20117L7.2793 1.3457C7.50474 1.12488 7.81297 1.00022 8.13477 1H12.5996ZM4.7207 5.91016H7.05664C7.63636 5.9101 8.10721 5.45876 8.10742 4.90137V2.5918L4.7207 5.91016Z" fill="#6C707E"/>
    <path d="M1 13C1 12.4477 1.44772 12 2 12H18C18.5523 12 19 12.4477 19 13V18C19 18.5523 18.5523 19 18 19H2C1.44772 19 1 18.5523 1 18V13Z" fill="#A0BDF8"/>
    <g opacity="0.7">
        <path fill-rule="evenodd" clip-rule="evenodd" d="M3.20001 14H1.70001V13H5.70001V14H4.20001V18H3.20001V14Z" fill="#27282E"/>
    </g>
    <g opacity="0.7">
        <path fill-rule="evenodd" clip-rule="evenodd" d="M6.77276 14.5015C6.77276 14.1331 7.08399 14 7.64499 14C7.65299 14 8.79999 14 8.79999 14V13C8.79999 13 7.69399 13 7.65999 13C6.57799 13 5.79999 13.4592 5.79999 14.45C5.79999 15.3145 6.21954 15.6905 7.27124 15.9161C8.04158 16.0813 8.29614 16.2286 8.29614 16.548C8.29614 16.8674 7.93842 17 7.27124 17C7.25524 17 6.09999 17 6.09999 17V18C6.09999 18 7.26324 18 7.27124 18C9.29999 18 9.29999 17 9.29999 16.548C9.29999 15.9161 8.82025 15.4207 7.95868 15.1469C7.09711 14.873 6.77276 14.87 6.77276 14.5015Z" fill="#27282E"/>
    </g>
    <g opacity="0.7">
        <path fill-rule="evenodd" clip-rule="evenodd" d="M13.9 13L12.3 15.45L13.9 18H12.7L11.65 16.093L10.6 18H9.39999L11 15.45L9.39999 13H10.6L11.65 14.814L12.7 13H13.9Z" fill="#27282E"/>
    </g>
</svg>
