<svg xmlns="http://www.w3.org/2000/svg" width="12" height="12" viewBox="0 0 12 12">
  <path fill-rule="evenodd" d="M8.5 1A1.5 1.5 0 0 1 10 2.5v2.523a1.741 1.741 0 0 0-.959.49L9 5.553V2.5a.5.5 0 0 0-.5-.5H6.374v1.729c0 .88-.714 1.593-1.594 1.593H3v4.224a.5.5 0 0 0 .5.5H5v1H3.5l-.153-.008A1.5 1.5 0 0 1 2.007 9.7L2 9.546V4.353c0-.201.08-.394.224-.535l2.645-2.602a.75.75 0 0 1 .381-.201L5.396 1H8.5ZM3.074 4.385H4.78a.657.657 0 0 0 .657-.656v-1.67L3.074 4.386ZM10.81 6.22a.75.75 0 0 0-1.062 0L8.735 7.233 6 9.968v2.03h2.03l3.75-3.748a.75.75 0 0 0 0-1.06l-.97-.97Zm-.31 2.248.748-.748-.97-.97-.748.748.97.97ZM9 8.028l.97.97-2.25 2.25h-.97v-.97L9 8.029Z" clip-rule="evenodd"/>
</svg>
