<svg width="20" height="20" viewBox="0 0 20 20" fill="none" xmlns="http://www.w3.org/2000/svg">
<path d="M12.5996 1C13.9251 1.00002 15 2.03316 15 3.30762V11H13.5V3.30762C13.5 2.82972 13.0966 2.4424 12.5996 2.44238H9.60742V4.90137C9.60721 6.25532 8.46479 7.35249 7.05664 7.35254H4.5V11H3V6.00879C3.00009 5.70671 3.12374 5.41681 3.34375 5.20117L7.2793 1.3457C7.50474 1.12488 7.81297 1.00022 8.13477 1H12.5996ZM4.7207 5.91016H7.05664C7.63636 5.9101 8.10721 5.45876 8.10742 4.90137V2.5918L4.7207 5.91016Z" fill="#6C707E"/>
<rect x="1" y="12" width="18" height="7" rx="1" fill="#F2B6BB"/>
<g opacity="0.7">
<path fill-rule="evenodd" clip-rule="evenodd" d="M2 15.501C2 14 2.931 13 4.256 13C5.20239 13 5.55 13.311 5.969 13.753L5.4267 14.4271C5.0767 14.0681 4.75 14 4.25 14C3.418 14 3 14.7379 3 15.487C3 16.2361 3.412 17 4.25 17C4.787 17 5.0517 16.8934 5.4267 16.5064L6 17.144C5.544 17.669 5.19733 18 4.225 18C2.949 18 2 17.002 2 15.501Z" fill="#27282E"/>
<path fill-rule="evenodd" clip-rule="evenodd" d="M7.47277 14.5015C7.47277 14.1331 7.784 14 8.345 14C8.353 14 9.5 14 9.5 14V13C9.5 13 8.394 13 8.36 13C7.278 13 6.5 13.4592 6.5 14.45C6.5 15.3145 6.91956 15.6905 7.97125 15.9161C8.74159 16.0813 8.99616 16.2286 8.99616 16.548C8.99616 16.8674 8.63843 17 7.97125 17C7.95525 17 6.8 17 6.8 17V18C6.8 18 7.96325 18 7.97125 18C10 18 10 17 10 16.548C10 15.9161 9.52026 15.4207 8.65869 15.1469C7.79712 14.873 7.47277 14.87 7.47277 14.5015Z" fill="#27282E"/>
<path fill-rule="evenodd" clip-rule="evenodd" d="M11.4728 14.5015C11.4728 14.1331 11.784 14 12.345 14C12.353 14 13.5 14 13.5 14V13C13.5 13 12.394 13 12.36 13C11.278 13 10.5 13.4592 10.5 14.45C10.5 15.3145 10.9196 15.6905 11.9713 15.9161C12.7416 16.0813 12.9962 16.2286 12.9962 16.548C12.9962 16.8674 12.6384 17 11.9713 17C11.9553 17 10.8 17 10.8 17V18C10.8 18 11.9633 18 11.9713 18C14 18 14 17 14 16.548C14 15.9161 13.5203 15.4207 12.6587 15.1469C11.7971 14.873 11.4728 14.87 11.4728 14.5015Z" fill="#27282E"/>
</g>
</svg>
