<svg width="12" height="12" viewBox="0 0 12 12" fill="none" xmlns="http://www.w3.org/2000/svg">
<path d="M8.40039 1C9.28373 1.00021 9.99979 1.68872 10 2.53809V6H9V2.53809C8.99979 2.21976 8.73144 1.96213 8.40039 1.96191H6.4043V3.60059C6.4043 4.50321 5.64375 5.23511 4.70508 5.23535H3V6H2V4.33887C2.00012 4.13771 2.08211 3.94445 2.22852 3.80078L4.85352 1.23047C5.00385 1.08336 5.20934 1.00008 5.42383 1H8.40039ZM3.14648 4.27344H4.70508C5.09147 4.2732 5.4043 3.97217 5.4043 3.60059V2.06152L3.14648 4.27344Z" fill="#6C707E"/>
<rect x="1" y="7" width="10" height="4" rx="0.5" fill="#F2B181"/>
<path fill-rule="evenodd" clip-rule="evenodd" d="M1.99999 9.30006L1.79502 9.1683C1.67256 9.08958 1.67256 8.91056 1.79502 8.83183L1.99999 8.70006L3.6971 7.6819C3.8304 7.60192 3.99999 7.69795 3.99999 7.8534V7.98814C3.99999 8.05768 3.96386 8.12223 3.90459 8.1586L2.53332 9.00006L3.90459 9.84152C3.96386 9.8779 3.99999 9.94245 3.99999 10.012V10.1469C3.99999 10.3024 3.83039 10.3984 3.69708 10.3184L1.99999 9.30006Z" fill="#231F20" fill-opacity="0.7"/>
<path fill-rule="evenodd" clip-rule="evenodd" d="M5 10.012C5 9.94245 5.03612 9.8779 5.0954 9.84152L6.46667 9.00006L5.0954 8.1586C5.03612 8.12223 5 8.05768 5 7.98814V7.85335C5 7.69789 5.16959 7.60187 5.30289 7.68185L7 8.70005L7.20497 8.83182C7.32744 8.91054 7.32744 9.08956 7.20498 9.16829L7 9.30006L5.3029 10.3184C5.1696 10.3984 5 10.3023 5 10.1469V10.012Z" fill="#231F20" fill-opacity="0.7"/>
</svg>
