<svg width="12" height="12" viewBox="0 0 12 12" fill="none" xmlns="http://www.w3.org/2000/svg">
<path d="M8.40039 1C9.28373 1.00021 9.99979 1.68872 10 2.53809V5.83691C9.71667 5.658 9.37422 5.53883 9 5.50781V2.53809C8.99979 2.21976 8.73144 1.96213 8.40039 1.96191H6.4043V3.60059C6.4043 4.50321 5.64375 5.23511 4.70508 5.23535H3V9.46191C3.00021 9.78024 3.26856 10.0379 3.59961 10.0381H5.53809C5.51309 10.1587 5.5 10.2827 5.5 10.4092C5.50002 10.6273 5.57852 10.8296 5.71191 11H3.59961C2.77127 10.9998 2.09059 10.3939 2.00879 9.61816L2 9.46191V4.33887C2.00012 4.13771 2.08211 3.94445 2.22852 3.80078L4.85352 1.23047C5.00385 1.08336 5.20934 1.00008 5.42383 1H8.40039ZM3.14648 4.27344H4.70508C5.09147 4.2732 5.4043 3.97217 5.4043 3.60059V2.06152L3.14648 4.27344Z" fill="#6C707E"/>
<path fill-rule="evenodd" clip-rule="evenodd" d="M9.80001 7.17647C9.80001 7.82622 9.26275 8.35294 8.60001 8.35294C7.93727 8.35294 7.40001 7.82622 7.40001 7.17647C7.40001 6.52672 7.93727 6 8.60001 6C9.26275 6 9.80001 6.52672 9.80001 7.17647ZM9.20001 7.17647C9.20001 7.50134 8.93138 7.76471 8.60001 7.76471C8.26864 7.76471 8.00001 7.50134 8.00001 7.17647C8.00001 6.8516 8.26864 6.58824 8.60001 6.58824C8.93138 6.58824 9.20001 6.8516 9.20001 7.17647Z" fill="#3574F0"/>
<path fill-rule="evenodd" clip-rule="evenodd" d="M9.20001 8.64706H8.00001C7.0059 8.64706 6.20001 9.43714 6.20001 10.4118C6.20001 10.7366 6.46864 11 6.80001 11H10.4C10.7314 11 11 10.7366 11 10.4118C11 9.43714 10.1941 8.64706 9.20001 8.64706ZM6.80001 10.4118C6.80001 9.76202 7.33727 9.23529 8.00001 9.23529H9.20001C9.86275 9.23529 10.4 9.76202 10.4 10.4118H6.80001Z" fill="#3574F0"/>
<path d="M8.60002 7.76471C8.93139 7.76471 9.20002 7.50135 9.20002 7.17648C9.20002 6.8516 8.93139 6.58824 8.60002 6.58824C8.26865 6.58824 8.00002 6.8516 8.00002 7.17648C8.00002 7.50135 8.26865 7.76471 8.60002 7.76471Z" fill="#EDF3FF"/>
<path d="M8.00002 9.2353C7.33728 9.2353 6.80002 9.76202 6.80002 10.4118H10.4C10.4 9.76202 9.86276 9.2353 9.20002 9.2353H8.00002Z" fill="#EDF3FF"/>
</svg>
