<svg width="16" height="16" viewBox="0 0 16 16" fill="none" xmlns="http://www.w3.org/2000/svg">
    <path d="M10 1C11.1046 1.00001 12 1.89544 12 3V7H10.75V3C10.75 2.5858 10.4142 2.25001 10 2.25H7.50586V4.38086C7.50586 5.55444 6.55442 6.50581 5.38086 6.50586H3.25V7H2V5.34082C2.00007 5.07901 2.10278 4.82751 2.28613 4.64062L5.56641 1.2998C5.75435 1.10835 6.01102 1.00011 6.2793 1H10ZM3.43359 5.25586H5.38086C5.86407 5.25581 6.25586 4.86408 6.25586 4.38086V2.37988L3.43359 5.25586Z" fill="#6C707E"/>
    <path d="M1 9C1 8.44772 1.44772 8 2 8H14C14.5523 8 15 8.44772 15 9V14C15 14.5523 14.5523 15 14 15H2C1.44772 15 1 14.5523 1 14V9Z" fill="#BFA1F8"/>
    <path fill-rule="evenodd" clip-rule="evenodd" d="M2 14H3V9H2V14Z" fill="#231F20" fill-opacity="0.7"/>
    <path fill-rule="evenodd" clip-rule="evenodd" d="M5 10V13H5.649C6.578 13 7 12.493 7 11.515V11.5C7 10.522 6.578 10 5.649 10H5ZM4 9H5.649C7.04 9 8 10.093 8 11.5C8 12.921 7.04 14 5.649 14H4V9Z" fill="#231F20" fill-opacity="0.7"/>
    <path fill-rule="evenodd" clip-rule="evenodd" d="M9 9H10V13H12.5V14H9V9Z" fill="#231F20" fill-opacity="0.7"/>
</svg>
