<svg width="16" height="16" viewBox="0 0 16 16" fill="none" xmlns="http://www.w3.org/2000/svg">
    <path d="M10 1C11.1046 1.00001 12 1.89544 12 3V7H10.75V3C10.75 2.5858 10.4142 2.25001 10 2.25H7.50586V4.38086C7.50586 5.55444 6.55442 6.50581 5.38086 6.50586H3.25V7H2V5.34082C2.00007 5.07901 2.10278 4.82751 2.28613 4.64062L5.56641 1.2998C5.75435 1.10835 6.01102 1.00011 6.2793 1H10ZM3.43359 5.25586H5.38086C5.86407 5.25581 6.25586 4.86408 6.25586 4.38086V2.37988L3.43359 5.25586Z" fill="#6C707E"/>
    <path d="M1 9C1 8.44772 1.44772 8 2 8H14C14.5523 8 15 8.44772 15 9V14C15 14.5523 14.5523 15 14 15H2C1.44772 15 1 14.5523 1 14V9Z" fill="#A0BDF8"/>
    <g opacity="0.7">
        <path fill-rule="evenodd" clip-rule="evenodd" d="M3.39508 12.5877C3.62439 12.8379 3.83782 13 4.28682 13C4.81317 13 4.99999 12.5877 4.99999 12.2976V9H5.99999V12.5877C5.99999 13.3196 5.3267 14 4.44999 14C3.62899 14 3.14999 13.7626 2.79999 13.3196L3.39508 12.5877Z" fill="#27282E"/>
    </g>
</svg>
