<svg width="12" height="12" viewBox="0 0 12 12" fill="none" xmlns="http://www.w3.org/2000/svg">
<path d="M8.40039 1C9.28373 1.00021 9.99979 1.68872 10 2.53809V6H9V2.53809C8.99979 2.21976 8.73144 1.96213 8.40039 1.96191H6.4043V3.60059C6.4043 4.50321 5.64375 5.23511 4.70508 5.23535H3V6H2V4.33887C2.00012 4.13771 2.08211 3.94445 2.22852 3.80078L4.85352 1.23047C5.00385 1.08336 5.20934 1.00008 5.42383 1H8.40039ZM3.14648 4.27344H4.70508C5.09147 4.2732 5.4043 3.97217 5.4043 3.60059V2.06152L3.14648 4.27344Z" fill="#6C707E"/>
<rect x="1" y="7" width="10" height="4" rx="0.5" fill="#BFA1F8"/>
<g opacity="0.7">
<path fill-rule="evenodd" clip-rule="evenodd" d="M2 7.5H2.5616L3.5 8.7L4.3874 7.5H5V10.5H4.4V8.52L3.5 9.6L2.6 8.52V10.5H2V7.5Z" fill="#27282E"/>
<path fill-rule="evenodd" clip-rule="evenodd" d="M6.7 8.1006H8.1V7.5H6V10.5H6.7V9.3H7.96V8.7H6.7V8.1006Z" fill="#27282E"/>
</g>
</svg>
