<svg width="20" height="20" viewBox="0 0 20 20" fill="none" xmlns="http://www.w3.org/2000/svg">
<path d="M12.5996 1C13.9251 1.00002 15 2.10245 15 3.46191V7.59375C14.7883 7.53397 14.5654 7.50006 14.334 7.5C14.0027 7.5 13.7097 7.63845 13.5 7.85742V3.46191C13.5 2.95212 13.0967 2.5381 12.5996 2.53809H9.60742V5.16113C9.60738 6.6055 8.46489 7.77631 7.05664 7.77637H4.5V14.5381C4.5 15.0479 4.90335 15.4619 5.40039 15.4619H9.16699V16.9375C9.16699 16.9584 9.16943 16.9792 9.16992 17H5.40039C4.15774 17 3.13557 16.0313 3.0127 14.79L3 14.5381V6.34277C3.00009 6.02054 3.12372 5.71049 3.34375 5.48047L7.2793 1.36914C7.50474 1.1336 7.81297 1.00024 8.13477 1H12.5996ZM4.7207 6.23828H7.05664C7.63647 6.23822 8.10738 5.75583 8.10742 5.16113V2.69824L4.7207 6.23828Z" fill="#6C707E"/>
<path d="M11.6667 19C12.0348 19 12.3333 18.6922 12.3333 18.3125C12.3333 17.9328 12.0348 17.625 11.6667 17.625C11.2985 17.625 11 17.3172 11 16.9375L11 14.683C11 14.1904 10.7456 13.7438 10.3464 13.5C10.7456 13.2562 11 12.8096 11 12.317V10.0625C11 9.6828 11.2985 9.375 11.6667 9.375C12.0348 9.375 12.3333 9.0672 12.3333 8.6875C12.3333 8.3078 12.0348 8 11.6667 8C10.5621 8 9.66666 8.92341 9.66666 10.0625L9.66666 12.317L8.1225 12.8478C7.85028 12.9414 7.66666 13.2041 7.66666 13.5C7.66666 13.7959 7.85028 14.0586 8.1225 14.1522L9.66666 14.683L9.66666 16.9375C9.66666 18.0766 10.5621 19 11.6667 19Z" fill="#6C707E"/>
<path d="M14.3333 8C13.9651 8 13.6667 8.3078 13.6667 8.6875C13.6667 9.0672 13.9651 9.375 14.3333 9.375C14.7015 9.375 15 9.6828 15 10.0625V12.317C15 12.8096 15.2544 13.2562 15.6536 13.5C15.2544 13.7438 15 14.1904 15 14.683V16.9375C15 17.3172 14.7015 17.625 14.3333 17.625C13.9651 17.625 13.6667 17.9328 13.6667 18.3125C13.6667 18.6922 13.9651 19 14.3333 19C15.4379 19 16.3333 18.0766 16.3333 16.9375V14.683L17.8775 14.1522C18.1497 14.0586 18.3333 13.7959 18.3333 13.5C18.3333 13.2041 18.1497 12.9414 17.8775 12.8478L16.3333 12.317V10.0625C16.3333 8.92341 15.4379 8 14.3333 8Z" fill="#6C707E"/>
</svg>
