<svg width="12" height="12" viewBox="0 0 12 12" fill="none" xmlns="http://www.w3.org/2000/svg">
<path d="M8.40039 1C9.28373 1.00021 9.99979 1.68872 10 2.53809V6H9V2.53809C8.99979 2.21976 8.73144 1.96213 8.40039 1.96191H6.4043V3.60059C6.4043 4.50321 5.64375 5.23511 4.70508 5.23535H3V6H2V4.33887C2.00012 4.13771 2.08211 3.94445 2.22852 3.80078L4.85352 1.23047C5.00385 1.08336 5.20934 1.00008 5.42383 1H8.40039ZM3.14648 4.27344H4.70508C5.09147 4.2732 5.4043 3.97217 5.4043 3.60059V2.06152L3.14648 4.27344Z" fill="#6C707E"/>
<rect x="1" y="7" width="10" height="4" rx="0.5" fill="#F2B181"/>
<g opacity="0.7">
<path fill-rule="evenodd" clip-rule="evenodd" d="M2.37193 9.65262C2.51525 9.80273 2.64864 9.9 2.92927 9.9C3.25824 9.9 3.375 9.65262 3.375 9.47856V7.5H4V9.65262C4 10.0918 3.57919 10.5 3.03125 10.5C2.51812 10.5 2.21875 10.3576 2 10.0918L2.37193 9.65262Z" fill="#27282E"/>
<path fill-rule="evenodd" clip-rule="evenodd" d="M5.1323 8.40092C5.1323 8.17983 5.3346 8.1 5.69925 8.1C5.70445 8.1 6.45 8.1 6.45 8.1V7.5C6.45 7.5 5.7311 7.5 5.709 7.5C5.0057 7.5 4.5 7.7755 4.5 8.37C4.5 8.88872 4.77271 9.11429 5.45631 9.24965C5.95703 9.34879 6.1225 9.43718 6.1225 9.6288C6.1225 9.82042 5.88998 9.9 5.45631 9.9C5.44591 9.9 4.695 9.9 4.695 9.9V10.5C4.695 10.5 5.45111 10.5 5.45631 10.5C6.775 10.5 6.775 9.9 6.775 9.6288C6.775 9.24965 6.46317 8.95243 5.90315 8.78811C5.34313 8.62379 5.1323 8.622 5.1323 8.40092Z" fill="#27282E"/>
</g>
</svg>
