<svg width="16" height="16" viewBox="0 0 16 16" fill="none" xmlns="http://www.w3.org/2000/svg">
    <path d="M10 1C11.1046 1.00001 12 1.89544 12 3V7H10.75V3C10.75 2.5858 10.4142 2.25001 10 2.25H7.50586V4.38086C7.50586 5.55444 6.55442 6.50581 5.38086 6.50586H3.25V7H2V5.34082C2.00007 5.07901 2.10278 4.82751 2.28613 4.64062L5.56641 1.2998C5.75435 1.10835 6.01102 1.00011 6.2793 1H10ZM3.43359 5.25586H5.38086C5.86407 5.25581 6.25586 4.86408 6.25586 4.38086V2.37988L3.43359 5.25586Z" fill="#6C707E"/>
    <path d="M1 9C1 8.44772 1.44772 8 2 8H14C14.5523 8 15 8.44772 15 9V14C15 14.5523 14.5523 15 14 15H2C1.44772 15 1 14.5523 1 14V9Z" fill="#F2B6BB"/>
    <g opacity="0.7">
        <path fill-rule="evenodd" clip-rule="evenodd" d="M3.40622 13.7V11.9651L1.64999 9.29999H2.57399L3.84622 11.2423L5.12599 9.29999H6.04999L4.28999 11.9463V13.7H3.40622Z" fill="#27282E"/>
        <path fill-rule="evenodd" clip-rule="evenodd" d="M6.35001 9.29999H7.17369L8.55001 11.06L9.85153 9.29999H10.75V13.7H9.87001V10.796L8.55001 12.38L7.23001 10.796V13.7H6.35001V9.29999Z" fill="#27282E"/>
        <path fill-rule="evenodd" clip-rule="evenodd" d="M11.35 9.29999H12.23V12.82H14.43V13.7H11.35V9.29999Z" fill="#27282E"/>
    </g>
</svg>
