<svg width="20" height="20" viewBox="0 0 20 20" fill="none" xmlns="http://www.w3.org/2000/svg">
    <path d="M12.5996 1C13.9251 1.00002 15 2.03316 15 3.30762V11H13.5V3.30762C13.5 2.82972 13.0966 2.4424 12.5996 2.44238H9.60742V4.90137C9.60721 6.25532 8.46479 7.35248 7.05664 7.35254H4.5V11H3V6.00879C3.00009 5.70671 3.12374 5.41681 3.34375 5.20117L7.2793 1.3457C7.50474 1.12488 7.81297 1.00022 8.13477 1H12.5996ZM4.7207 5.91016H7.05664C7.63636 5.9101 8.10721 5.45876 8.10742 4.90137V2.5918L4.7207 5.91016Z" fill="#6C707E"/>
    <path d="M1 13C1 12.4477 1.44772 12 2 12H18C18.5523 12 19 12.4477 19 13V18C19 18.5523 18.5523 19 18 19H2C1.44772 19 1 18.5523 1 18V13Z" fill="#A0BDF8"/>
    <g opacity="0.7">
        <path fill-rule="evenodd" clip-rule="evenodd" d="M4 14H2.5V13H6.5V14H5V18H4V14Z" fill="#27282E"/>
    </g>
    <g opacity="0.7">
        <path fill-rule="evenodd" clip-rule="evenodd" d="M7.57277 14.5015C7.57277 14.1331 7.88401 14 8.44501 14C8.45301 14 9.60001 14 9.60001 14V13C9.60001 13 8.49401 13 8.46001 13C7.37801 13 6.60001 13.4592 6.60001 14.45C6.60001 15.3145 7.01956 15.6905 8.07126 15.9161C8.84159 16.0813 9.09616 16.2286 9.09616 16.548C9.09616 16.8674 8.73843 17 8.07126 17C8.05526 17 6.90001 17 6.90001 17V18C6.90001 18 8.06326 18 8.07126 18C10.1 18 10.1 17 10.1 16.548C10.1 15.9161 9.62027 15.4207 8.7587 15.1469C7.89713 14.873 7.57277 14.87 7.57277 14.5015Z" fill="#27282E"/>
    </g>
</svg>
