<svg width="16" height="16" viewBox="0 0 16 16" fill="none" xmlns="http://www.w3.org/2000/svg">
    <path d="M10 1C11.1046 1.00001 12 1.89544 12 3V7H10.75V3C10.75 2.5858 10.4142 2.25001 10 2.25H7.50586V4.38086C7.50586 5.55444 6.55442 6.50581 5.38086 6.50586H3.25V7H2V5.34082C2.00007 5.07901 2.10278 4.82751 2.28613 4.64062L5.56641 1.2998C5.75435 1.10835 6.01102 1.00011 6.2793 1H10ZM3.43359 5.25586H5.38086C5.86407 5.25581 6.25586 4.86408 6.25586 4.38086V2.37988L3.43359 5.25586Z" fill="#6C707E"/>
    <path d="M1 9C1 8.44772 1.44772 8 2 8H14C14.5523 8 15 8.44772 15 9V14C15 14.5523 14.5523 15 14 15H2C1.44772 15 1 14.5523 1 14V9Z" fill="#F2B181"/>
    <g opacity="0.7">
        <path fill-rule="evenodd" clip-rule="evenodd" d="M2.79507 12.5877C3.02438 12.8379 3.23781 13 3.68681 13C4.21317 13 4.39998 12.5877 4.39998 12.2976V9H5.39998V12.5877C5.39998 13.3196 4.72669 14 3.84998 14C3.02898 14 2.54998 13.7626 2.19998 13.3196L2.79507 12.5877Z" fill="#27282E"/>
        <path fill-rule="evenodd" clip-rule="evenodd" d="M6.77276 10.5015C6.77276 10.1331 7.08399 10 7.64499 10C7.65299 10 8.79999 10 8.79999 10V9C8.79999 9 7.69399 9 7.65999 9C6.57799 9 5.79999 9.45917 5.79999 10.45C5.79999 11.3145 6.21954 11.6905 7.27124 11.9161C8.04158 12.0813 8.29614 12.2286 8.29614 12.548C8.29614 12.8674 7.93842 13 7.27124 13C7.25524 13 6.09999 13 6.09999 13V14C6.09999 14 7.26324 14 7.27124 14C9.29999 14 9.29999 13 9.29999 12.548C9.29999 11.9161 8.82025 11.4207 7.95868 11.1469C7.09711 10.873 6.77276 10.87 6.77276 10.5015Z" fill="#27282E"/>
    </g>
    <g opacity="0.7">
        <path fill-rule="evenodd" clip-rule="evenodd" d="M13.9 9L12.3 11.45L13.9 14H12.7L11.65 12.093L10.6 14H9.39999L11 11.45L9.39999 9H10.6L11.65 10.814L12.7 9H13.9Z" fill="#27282E"/>
    </g>
</svg>
