<svg width="20" height="20" viewBox="0 0 20 20" fill="none" xmlns="http://www.w3.org/2000/svg">
    <path d="M12.5996 1C13.9251 1.00002 15 2.03316 15 3.30762V11H13.5V3.30762C13.5 2.82972 13.0966 2.4424 12.5996 2.44238H9.60742V4.90137C9.60721 6.25532 8.46479 7.35248 7.05664 7.35254H4.5V11H3V6.00879C3.00009 5.70671 3.12374 5.41681 3.34375 5.20117L7.2793 1.3457C7.50474 1.12488 7.81297 1.00022 8.13477 1H12.5996ZM4.7207 5.91016H7.05664C7.63636 5.9101 8.10721 5.45876 8.10742 4.90137V2.5918L4.7207 5.91016Z" fill="#6C707E"/>
    <path d="M1 13C1 12.4477 1.44772 12 2 12H18C18.5523 12 19 12.4477 19 13V18C19 18.5523 18.5523 19 18 19H2C1.44772 19 1 18.5523 1 18V13Z" fill="#A0BDF8"/>
    <path fill-rule="evenodd" clip-rule="evenodd" d="M4.51991 18.016C3.00748 18.016 2.013 16.9386 2.013 15.5298V15.516C2.013 14.1624 3.04891 13.016 4.50609 13.016C5.34864 13.016 5.86659 13.2508 6.36383 13.6721L5.82516 14.3143C5.45223 14.0036 5.08621 13.8033 4.47156 13.8033C3.58068 13.8033 2.90388 14.5768 2.90388 15.5022V15.516C2.90388 16.5105 3.55996 17.2425 4.54753 17.2425C5.00333 17.2425 5.4177 17.0975 5.71466 16.8765V15.9787H4.47847V15.2328H6.53648V17.2632C6.05996 17.6707 5.37626 18.016 4.51991 18.016Z" fill="#231F20" fill-opacity="0.7"/>
    <path fill-rule="evenodd" clip-rule="evenodd" d="M9.49317 18C8.02459 18 7 16.8743 7 15.5138V15.5C7 14.1395 8.03825 13 9.50683 13C10.9754 13 12 14.1257 12 15.4862V15.5C12 16.8605 10.9617 18 9.49317 18ZM9.50633 17.05C10.3861 17.05 11 16.3625 11 15.5125V15.5C11 14.65 10.3734 13.95 9.49367 13.95C8.61392 13.95 8 14.6375 8 15.4875V15.5C8 16.35 8.62658 17.05 9.50633 17.05Z" fill="#231F20" fill-opacity="0.7"/>
</svg>
