<svg width="12" height="12" viewBox="0 0 12 12" fill="none" xmlns="http://www.w3.org/2000/svg">
<path d="M8.40039 1C9.28373 1.00021 9.99979 1.68872 10 2.53809V6H9V2.53809C8.99979 2.21976 8.73144 1.96213 8.40039 1.96191H6.4043V3.60059C6.4043 4.50321 5.64375 5.23511 4.70508 5.23535H3V6H2V4.33887C2.00012 4.13771 2.08211 3.94445 2.22852 3.80078L4.85352 1.23047C5.00385 1.08336 5.20934 1.00008 5.42383 1H8.40039ZM3.14648 4.27344H4.70508C5.09147 4.2732 5.4043 3.97217 5.4043 3.60059V2.06152L3.14648 4.27344Z" fill="#6C707E"/>
<rect x="1" y="7" width="10" height="4" rx="0.5" fill="#A0BDF8"/>
<g opacity="0.7">
<path fill-rule="evenodd" clip-rule="evenodd" d="M3.25 8.09999C2.8075 8.09999 2.625 8.42399 2.625 8.99999C2.625 9.57599 2.80313 9.89999 3.25 9.89999C3.69687 9.89999 3.875 9.56759 3.875 8.99999C3.875 8.43239 3.6925 8.09999 3.25 8.09999ZM3.25 7.49969C4.00437 7.49969 4.5 8.17049 4.5 8.99969C4.5 9.82889 4.00375 10.4997 3.25 10.4997C2.49625 10.4997 2 9.82847 2 8.99987C2 8.07516 2.49562 7.49969 3.25 7.49969Z" fill="#27282E"/>
<path fill-rule="evenodd" clip-rule="evenodd" d="M5.715 7.5L5 7.76565L5.10196 8.23484L5.65 8.1V10.5H6.30006V7.5H5.715Z" fill="#27282E"/>
</g>
</svg>
