<svg width="12" height="12" viewBox="0 0 12 12" fill="none" xmlns="http://www.w3.org/2000/svg">
<path d="M8.40039 1C9.28373 1.00021 9.99979 1.68872 10 2.53809V6H9V2.53809C8.99979 2.21976 8.73144 1.96213 8.40039 1.96191H6.4043V3.60059C6.4043 4.50321 5.64375 5.23511 4.70508 5.23535H3V6H2V4.33887C2.00012 4.13771 2.08211 3.94445 2.22852 3.80078L4.85352 1.23047C5.00385 1.08336 5.20934 1.00008 5.42383 1H8.40039ZM3.14648 4.27344H4.70508C5.09147 4.2732 5.4043 3.97217 5.4043 3.60059V2.06152L3.14648 4.27344Z" fill="#6C707E"/>
<rect x="1" y="7" width="10" height="4" rx="0.5" fill="#F2B6BB"/>
<g opacity="0.7">
<path fill-rule="evenodd" clip-rule="evenodd" d="M2.94743 10.5V9.31714L1.75 7.5H2.38L3.24743 8.82429L4.12 7.5H4.75L3.55 9.30429V10.5H2.94743Z" fill="#27282E"/>
<path fill-rule="evenodd" clip-rule="evenodd" d="M5.04999 7.5H5.55543L6.39999 8.7L7.19865 7.5H7.74999V10.5H7.20999V8.52L6.39999 9.6L5.58999 8.52V10.5H5.04999V7.5Z" fill="#27282E"/>
<path fill-rule="evenodd" clip-rule="evenodd" d="M8.25 7.5H8.82143V9.9H10.25V10.5H8.25V7.5Z" fill="#27282E"/>
</g>
</svg>
