<svg width="12" height="12" viewBox="0 0 12 12" fill="none" xmlns="http://www.w3.org/2000/svg">
  <path d="M8.40039 1C9.28373 1.00021 9.99979 1.68872 10 2.53809V4H9V2.53809C8.99979 2.21976 8.73144 1.96213 8.40039 1.96191H6.4043V3.60059C6.4043 4.50321 5.64375 5.23511 4.70508 5.23535H3V9.46191C3.00021 9.78024 3.26856 10.0379 3.59961 10.0381H7V11H3.59961C2.77127 10.9998 2.09059 10.3939 2.00879 9.61816L2 9.46191V4.33887C2.00012 4.13771 2.08211 3.94445 2.22852 3.80078L4.85352 1.23047C5.00385 1.08336 5.20934 1.00008 5.42383 1H8.40039ZM3.14648 4.27344H4.70508C5.09147 4.2732 5.4043 3.97217 5.4043 3.60059V2.06152L3.14648 4.27344Z" fill="#6C707E"/>
  <path d="M9.5 8.33333V7H11V8.33333H9.5ZM9.5 9.66667H8V8.33333H9.5V9.66667ZM9.5 11V9.66667H11V11H9.5Z" fill="#6C707E"/>
  <path d="M8 5.66667V7L9.5 7L9.5 5.66667H8Z" fill="#6C707E"/>
</svg>
