<svg width="16" height="16" viewBox="0 0 16 16" fill="none" xmlns="http://www.w3.org/2000/svg">
    <path d="M10 1C11.1046 1.00001 12 1.89544 12 3V7H10.75V3C10.75 2.5858 10.4142 2.25001 10 2.25H7.50586V4.38086C7.50586 5.55444 6.55442 6.50581 5.38086 6.50586H3.25V7H2V5.34082C2.00007 5.07901 2.10278 4.82751 2.28613 4.64062L5.56641 1.2998C5.75435 1.10835 6.01102 1.00011 6.2793 1H10ZM3.43359 5.25586H5.38086C5.86407 5.25581 6.25586 4.86408 6.25586 4.38086V2.37988L3.43359 5.25586Z" fill="#6C707E"/>
    <path d="M1 9C1 8.44772 1.44772 8 2 8H14C14.5523 8 15 8.44772 15 9V14C15 14.5523 14.5523 15 14 15H2C1.44772 15 1 14.5523 1 14V9Z" fill="#F2B181"/>
    <path fill-rule="evenodd" clip-rule="evenodd" d="M2.25001 12L1.77786 11.6627C1.66619 11.583 1.66619 11.417 1.77786 11.3373L2.25001 11L4.93908 9.20745C5.07199 9.11885 5.25001 9.21413 5.25001 9.37387V9.89428C5.25001 9.96042 5.21732 10.0223 5.16268 10.0595L3.05001 11.5L5.16268 12.9404C5.21732 12.9777 5.25001 13.0396 5.25001 13.1057V13.6265C5.25001 13.7862 5.07197 13.8815 4.93906 13.7929L2.25001 12Z" fill="#231F20" fill-opacity="0.7"/>
    <path fill-rule="evenodd" clip-rule="evenodd" d="M6.75 13.1057C6.75 13.0396 6.78269 12.9777 6.83733 12.9405L8.95 11.5L6.83733 10.0596C6.78269 10.0223 6.75 9.96045 6.75 9.89432V9.37381C6.75 9.21408 6.92802 9.1188 7.06094 9.2074L9.75 11L10.2222 11.3373C10.3338 11.417 10.3338 11.583 10.2222 11.6627L9.75 12L7.06094 13.7928C6.92803 13.8814 6.75 13.7861 6.75 13.6264V13.1057Z" fill="#231F20" fill-opacity="0.7"/>
</svg>
