<svg width="12" height="12" viewBox="0 0 12 12" fill="none" xmlns="http://www.w3.org/2000/svg">
<path d="M8.40039 1C9.28373 1.00021 9.99979 1.68872 10 2.53809V9.46191C9.99979 10.3113 9.28373 10.9998 8.40039 11H6.33301C6.49618 10.7036 6.61639 10.3803 6.68457 10.0381H8.40039C8.73144 10.0379 8.99979 9.78024 9 9.46191V2.53809C8.99979 2.21976 8.73144 1.96213 8.40039 1.96191H6.4043V3.60059C6.4043 4.50321 5.64375 5.23511 4.70508 5.23535H3V6.02051C2.64729 6.0595 2.31138 6.15384 2 6.29297V4.33887C2.00012 4.13771 2.08211 3.94445 2.22852 3.80078L4.85352 1.23047C5.00385 1.08336 5.20934 1.00008 5.42383 1H8.40039ZM3.14648 4.27344H4.70508C5.09147 4.2732 5.4043 3.97217 5.4043 3.60059V2.06152L3.14648 4.27344Z" fill="#6C707E"/>
<rect x="0.75" y="6.75" width="5.25" height="5.25" rx="2.625" fill="#F2B181"/>
<g opacity="0.7">
<path fill-rule="evenodd" clip-rule="evenodd" d="M2.72656 10.1582C2.88708 10.3383 3.03648 10.455 3.35078 10.455C3.71923 10.455 3.85 10.1582 3.85 9.94929V7.57501H4.55V10.1582C4.55 10.6852 4.07869 11.175 3.465 11.175C2.8903 11.175 2.555 11.0041 2.31 10.6852L2.72656 10.1582Z" fill="#27282E"/>
</g>
</svg>
