<svg width="20" height="20" viewBox="0 0 20 20" fill="none" xmlns="http://www.w3.org/2000/svg">
<path d="M12.5996 1C13.9251 1.00002 15 2.03316 15 3.30762V8.55078C14.5592 8.28255 14.0493 8.10163 13.5 8.03223V3.30762C13.5 2.82972 13.0966 2.4424 12.5996 2.44238H9.60742V4.90137C9.60721 6.25532 8.46479 7.35249 7.05664 7.35254H4.5V13.6924C4.50004 14.1703 4.90337 14.5576 5.40039 14.5576H8.61523C8.12041 14.9572 7.71614 15.4465 7.43652 16H5.40039C4.15762 16 3.13541 15.0916 3.0127 13.9277L3 13.6924V6.00879C3.00009 5.70671 3.12374 5.41681 3.34375 5.20117L7.2793 1.3457C7.50474 1.12488 7.81297 1.00022 8.13477 1H12.5996ZM4.7207 5.91016H7.05664C7.63636 5.9101 8.10721 5.45876 8.10742 4.90137V2.5918L4.7207 5.91016Z" fill="#6C707E"/>
<path fill-rule="evenodd" clip-rule="evenodd" d="M15.5 11.4706C15.5 12.8351 14.3807 13.9412 13 13.9412C11.6193 13.9412 10.5 12.8351 10.5 11.4706C10.5 10.1061 11.6193 9 13 9C14.3807 9 15.5 10.1061 15.5 11.4706ZM14.25 11.4706C14.25 12.1528 13.6904 12.7059 13 12.7059C12.3096 12.7059 11.75 12.1528 11.75 11.4706C11.75 10.7884 12.3096 10.2353 13 10.2353C13.6904 10.2353 14.25 10.7884 14.25 11.4706Z" fill="#3574F0"/>
<path fill-rule="evenodd" clip-rule="evenodd" d="M14.25 14.5588H11.75C9.67893 14.5588 8 16.218 8 18.2647C8 18.9469 8.55964 19.5 9.25 19.5H16.75C17.4404 19.5 18 18.9469 18 18.2647C18 16.218 16.3211 14.5588 14.25 14.5588ZM9.25 18.2647C9.25 16.9002 10.3693 15.7941 11.75 15.7941H14.25C15.6307 15.7941 16.75 16.9002 16.75 18.2647H9.25Z" fill="#3574F0"/>
<path d="M13 12.7059C13.6904 12.7059 14.25 12.1528 14.25 11.4706C14.25 10.7884 13.6904 10.2353 13 10.2353C12.3096 10.2353 11.75 10.7884 11.75 11.4706C11.75 12.1528 12.3096 12.7059 13 12.7059Z" fill="#EDF3FF"/>
<path d="M11.75 15.7941C10.3693 15.7941 9.25 16.9002 9.25 18.2647H16.75C16.75 16.9002 15.6307 15.7941 14.25 15.7941H11.75Z" fill="#EDF3FF"/>
</svg>
