<svg width="20" height="20" viewBox="0 0 20 20" fill="none" xmlns="http://www.w3.org/2000/svg">
<path d="M12.5996 1C13.9251 1.00002 15 2.03316 15 3.30762V11H13.5V3.30762C13.5 2.82972 13.0966 2.4424 12.5996 2.44238H9.60742V4.90137C9.60721 6.25532 8.46479 7.35249 7.05664 7.35254H4.5V11H3V6.00879C3.00009 5.70671 3.12374 5.41681 3.34375 5.20117L7.2793 1.3457C7.50474 1.12488 7.81297 1.00022 8.13477 1H12.5996ZM4.7207 5.91016H7.05664C7.63636 5.9101 8.10721 5.45876 8.10742 4.90137V2.5918L4.7207 5.91016Z" fill="#6C707E"/>
<path d="M1 13C1 12.4477 1.44772 12 2 12H18C18.5523 12 19 12.4477 19 13V18C19 18.5523 18.5523 19 18 19H2C1.44772 19 1 18.5523 1 18V13Z" fill="#F2B6BB"/>
<g opacity="0.7">
<path fill-rule="evenodd" clip-rule="evenodd" d="M4.34572 18V16.0286L2.35001 13H3.40001L4.84572 15.2071L6.30001 13H7.35001L5.35001 16.0071V18H4.34572Z" fill="#27282E"/>
<path fill-rule="evenodd" clip-rule="evenodd" d="M7.64999 13H8.58599L10.15 15L11.629 13H12.65V18H11.65V14.7L10.15 16.5L8.64999 14.7V18H7.64999V13Z" fill="#27282E"/>
<path fill-rule="evenodd" clip-rule="evenodd" d="M13.25 13H14.25V17H16.75V18H13.25V13Z" fill="#27282E"/>
</g>
</svg>
