<svg width="12" height="12" viewBox="0 0 12 12" fill="none" xmlns="http://www.w3.org/2000/svg">
    <path d="M8.40039 1C9.28386 1.00021 10 1.68953 10 2.53906V6H9V2.53906C9 2.22057 8.73157 1.96213 8.40039 1.96191H6.4043V3.60156C6.40403 4.50397 5.64359 5.23511 4.70508 5.23535H3V6H2V4.33984C2.00006 4.13851 2.08192 3.94453 2.22852 3.80078L4.85352 1.23145C5.00387 1.08417 5.2092 1.00008 5.42383 1H8.40039ZM3.14648 4.27441H4.70508C5.0913 4.27418 5.40403 3.97293 5.4043 3.60156V2.06152L3.14648 4.27441Z" fill="#6C707E"/>
    <path d="M1 7.5C1 7.22386 1.22386 7 1.5 7H10.5C10.7761 7 11 7.22386 11 7.5V10.5C11 10.7761 10.7761 11 10.5 11H1.5C1.22386 11 1 10.7761 1 10.5V7.5Z" fill="#A0BDF8"/>
    <path fill-rule="evenodd" clip-rule="evenodd" d="M3.51196 10.5096C2.6045 10.5096 2.00781 9.86317 2.00781 9.01787V9.00958C2.00781 8.19743 2.62936 7.50958 3.50367 7.50958C4.00919 7.50958 4.31997 7.65047 4.61831 7.90323L4.29511 8.28859C4.07135 8.10212 3.85174 7.98196 3.48295 7.98196C2.94842 7.98196 2.54234 8.44605 2.54234 9.0013V9.00958C2.54234 9.60627 2.93599 10.0455 3.52853 10.0455C3.80201 10.0455 4.05063 9.95848 4.22881 9.82588V9.28721H3.48709V8.83969H4.7219V10.0579C4.43599 10.3024 4.02577 10.5096 3.51196 10.5096Z" fill="#231F20" fill-opacity="0.7"/>
    <path fill-rule="evenodd" clip-rule="evenodd" d="M6.4959 10.5C5.61475 10.5 5 9.82459 5 9.00829V9C5 8.1837 5.62295 7.5 6.5041 7.5C7.38525 7.5 8 8.17541 8 8.99171V9C8 9.8163 7.37705 10.5 6.4959 10.5ZM6.5038 9.93C7.03165 9.93 7.4 9.5175 7.4 9.0075V9C7.4 8.49 7.02405 8.07 6.4962 8.07C5.96835 8.07 5.6 8.4825 5.6 8.9925V9C5.6 9.51 5.97595 9.93 6.5038 9.93Z" fill="#231F20" fill-opacity="0.7"/>
</svg>
