<svg width="20" height="20" viewBox="0 0 20 20" fill="none" xmlns="http://www.w3.org/2000/svg">
<path d="M12.5996 1C13.9251 1.00002 15 2.03316 15 3.30762V10.2568C14.5308 10.091 14.026 10 13.5 10V3.30762C13.5 2.82972 13.0966 2.4424 12.5996 2.44238H9.60742V4.90137C9.60721 6.25532 8.46479 7.35249 7.05664 7.35254H4.5V13.6924C4.50004 14.1703 4.90337 14.5576 5.40039 14.5576H9.00098C9.00732 15.063 9.09793 15.5478 9.25781 16H5.40039C4.15762 16 3.13541 15.0916 3.0127 13.9277L3 13.6924V6.00879C3.00009 5.70671 3.12374 5.41681 3.34375 5.20117L7.2793 1.3457C7.50474 1.12488 7.81297 1.00022 8.13477 1H12.5996ZM4.7207 5.91016H7.05664C7.63636 5.9101 8.10721 5.45876 8.10742 4.90137V2.5918L4.7207 5.91016Z" fill="#6C707E"/>
<path d="M14.2246 13.2871L16.2754 12.1436L17 13.3564L14.9502 14.499L17 15.6436L16.2754 16.8564L14.2246 15.7119V18H12.7754V15.7119L10.7246 16.8564L10 15.6436L12.0498 14.499L10 13.3564L10.7246 12.1436L12.7754 13.2871V11H14.2246V13.2871Z" fill="#3369D6"/>
</svg>
