<svg width="20" height="20" viewBox="0 0 20 20" fill="none" xmlns="http://www.w3.org/2000/svg">
<path d="M12.5996 1C13.9251 1.00002 15 2.03316 15 3.30762V10H13.5V3.30762C13.5 2.82972 13.0966 2.4424 12.5996 2.44238H9.60742V4.90137C9.60721 6.25532 8.46479 7.35248 7.05664 7.35254H4.5V13.6924C4.50004 14.1703 4.90337 14.5576 5.40039 14.5576H6V16H5.40039C4.15762 16 3.13541 15.0916 3.0127 13.9277L3 13.6924V6.00879C3.00009 5.70671 3.12374 5.41681 3.34375 5.20117L7.2793 1.3457C7.50474 1.12488 7.81297 1.00022 8.13477 1H12.5996ZM4.7207 5.91016H7.05664C7.63636 5.9101 8.10721 5.45876 8.10742 4.90137V2.5918L4.7207 5.91016Z" fill="#6C707E"/>
<g clip-path="url(#clip0_5634_3069)">
<path d="M9.14286 12.5463C9.4979 12.5463 9.78571 12.8016 9.78571 13.1164L9.78571 19.4298C9.78571 19.7447 9.4979 19.9999 9.14286 19.9999C8.78782 19.9999 8.5 19.7447 8.5 19.4298L8.5 13.1164C8.5 12.8016 8.78782 12.5463 9.14286 12.5463Z" fill="#6C707E"/>
<path d="M11.7143 10C12.0693 10 12.3571 10.2552 12.3571 10.5701L12.3571 19.4299C12.3571 19.7448 12.0693 20 11.7143 20C11.3592 20 11.0714 19.7448 11.0714 19.4299L11.0714 10.5701C11.0714 10.2552 11.3592 10 11.7143 10Z" fill="#6C707E"/>
<path d="M14.9286 14.5589C14.9286 14.2441 14.6408 13.9888 14.2858 13.9888C13.9307 13.9888 13.6429 14.2441 13.6429 14.5589V19.4299C13.6429 19.7447 13.9307 20 14.2858 20C14.6408 20 14.9286 19.7447 14.9286 19.4299V14.5589Z" fill="#6C707E"/>
<path d="M16.8571 12.3004C17.2122 12.3004 17.5 12.5556 17.5 12.8705V19.4299C17.5 19.7447 17.2122 20 16.8571 20C16.5021 20 16.2143 19.7447 16.2143 19.4299L16.2143 12.8705C16.2143 12.5556 16.5021 12.3004 16.8571 12.3004Z" fill="#6C707E"/>
</g>
<defs>
<clipPath id="clip0_5634_3069">
<rect width="14" height="14" fill="white" transform="translate(4.5 5)"/>
</clipPath>
</defs>
</svg>
