<svg width="17" height="16" viewBox="0 0 17 16" fill="none" xmlns="http://www.w3.org/2000/svg">
    <path d="M10 1C11.1046 1.00001 12 1.89544 12 3V7H10.75V3C10.75 2.5858 10.4142 2.25001 10 2.25H7.50586V4.38086C7.50586 5.55444 6.55442 6.50581 5.38086 6.50586H3.25V7H2V5.34082C2.00007 5.07901 2.10278 4.82751 2.28613 4.64062L5.56641 1.2998C5.75435 1.10835 6.01102 1.00011 6.2793 1H10ZM3.43359 5.25586H5.38086C5.86407 5.25581 6.25586 4.86408 6.25586 4.38086V2.37988L3.43359 5.25586Z" fill="#6C707E"/>
    <path d="M1 9C1 8.44772 1.44772 8 2 8H14C14.5523 8 15 8.44772 15 9V14C15 14.5523 14.5523 15 14 15H2C1.44772 15 1 14.5523 1 14V9Z" fill="#F2B181"/>
    <g opacity="0.7">
        <path fill-rule="evenodd" clip-rule="evenodd" d="M3 10V13H3.649C4.578 13 5 12.493 5 11.515V11.5C5 10.522 4.578 10 3.649 10H3ZM2 9H3.649C5.04 9 6 10.093 6 11.5C6 12.921 5.04 14 3.649 14H2V9Z" fill="#27282E"/>
    </g>
    <g opacity="0.7">
        <path fill-rule="evenodd" clip-rule="evenodd" d="M7.29999 10H5.79999V9H9.79999V10H8.29999V14H7.29999V10Z" fill="#27282E"/>
    </g>
    <g opacity="0.7">
        <path fill-rule="evenodd" clip-rule="evenodd" d="M11.3 10V13H11.949C12.878 13 13.3 12.493 13.3 11.515V11.5C13.3 10.522 12.878 10 11.949 10H11.3ZM10.3 9H11.949C13.34 9 14.3 10.093 14.3 11.5C14.3 12.921 13.34 14 11.949 14H10.3V9Z" fill="#27282E"/>
    </g>
</svg>
