<svg width="12" height="12" viewBox="0 0 12 12" fill="none" xmlns="http://www.w3.org/2000/svg">
<path d="M8.40039 1C9.28373 1.00021 9.99979 1.68872 10 2.53809V6H9V2.53809C8.99979 2.21976 8.73144 1.96213 8.40039 1.96191H6.4043V3.60059C6.4043 4.50321 5.64375 5.23511 4.70508 5.23535H3V9.46191C3.00021 9.78024 3.26856 10.0379 3.59961 10.0381H5V11H3.59961C2.77127 10.9998 2.09059 10.3939 2.00879 9.61816L2 9.46191V4.33887C2.00012 4.13771 2.08211 3.94445 2.22852 3.80078L4.85352 1.23047C5.00385 1.08336 5.20934 1.00008 5.42383 1H8.40039ZM3.14648 4.27344H4.70508C5.09147 4.2732 5.4043 3.97217 5.4043 3.60059V2.06152L3.14648 4.27344Z" fill="#6C707E"/>
<g clip-path="url(#clip0_5634_3522)">
<path d="M6.5 6C6.77614 6 7 6.17867 7 6.39906L7 11.6009C7 11.8213 6.77614 12 6.5 12C6.22386 12 6 11.8213 6 11.6009L6 6.39906C6 6.17867 6.22386 6 6.5 6Z" fill="#6C707E"/>
<path d="M9.00003 8.19125C9.00003 7.97085 8.77618 7.79218 8.50003 7.79218C8.22389 7.79218 8.00003 7.97085 8.00003 8.19125V11.6009C8.00003 11.8213 8.22389 12 8.50003 12C8.77618 12 9.00003 11.8213 9.00003 11.6009V8.19125Z" fill="#6C707E"/>
<path d="M10.5 6.61029C10.7761 6.61029 11 6.78895 11 7.00935V11.6009C11 11.8213 10.7761 12 10.5 12C10.2239 12 10 11.8213 10 11.6009L10 7.00935C10 6.78895 10.2239 6.61029 10.5 6.61029Z" fill="#6C707E"/>
</g>
<defs>
<clipPath id="clip0_5634_3522">
<rect width="5" height="6" fill="white" transform="translate(6 5)"/>
</clipPath>
</defs>
</svg>
