<svg width="12" height="12" viewBox="0 0 12 12" fill="none" xmlns="http://www.w3.org/2000/svg">
<path d="M8.40039 1C9.28373 1.00021 9.99979 1.68872 10 2.53809V6H9V2.53809C8.99979 2.21976 8.73144 1.96213 8.40039 1.96191H6.4043V3.60059C6.4043 4.50321 5.64375 5.23511 4.70508 5.23535H3V6H2V4.33887C2.00012 4.13771 2.08211 3.94445 2.22852 3.80078L4.85352 1.23047C5.00385 1.08336 5.20934 1.00008 5.42383 1H8.40039ZM3.14648 4.27344H4.70508C5.09147 4.2732 5.4043 3.97217 5.4043 3.60059V2.06152L3.14648 4.27344Z" fill="#6C707E"/>
<rect x="1" y="7" width="10" height="4" rx="0.5" fill="#F2B181"/>
<g opacity="0.7">
<path fill-rule="evenodd" clip-rule="evenodd" d="M2.38681 9.65262C2.53586 9.80273 2.67459 9.9 2.96644 9.9C3.30857 9.9 3.43 9.65262 3.43 9.47856V7.5H4.08V9.65262C4.08 10.0918 3.64236 10.5 3.0725 10.5C2.53885 10.5 2.2275 10.3576 2 10.0918L2.38681 9.65262Z" fill="#27282E"/>
<path fill-rule="evenodd" clip-rule="evenodd" d="M5.23231 8.40092C5.23231 8.17983 5.43461 8.1 5.79926 8.1C5.80446 8.1 6.55001 8.1 6.55001 8.1V7.5C6.55001 7.5 5.83111 7.5 5.80901 7.5C5.10571 7.5 4.60001 7.7755 4.60001 8.37C4.60001 8.88872 4.87272 9.11429 5.55632 9.24965C6.05704 9.34879 6.22251 9.43718 6.22251 9.6288C6.22251 9.82042 5.98998 9.9 5.55632 9.9C5.54592 9.9 4.79501 9.9 4.79501 9.9V10.5C4.79501 10.5 5.55112 10.5 5.55632 10.5C6.87501 10.5 6.87501 9.9 6.87501 9.6288C6.87501 9.24965 6.56318 8.95243 6.00316 8.78811C5.44313 8.62379 5.23231 8.622 5.23231 8.40092Z" fill="#27282E"/>
<path fill-rule="evenodd" clip-rule="evenodd" d="M8.34001 9C8.73841 9 9.00001 8.93064 9.00001 8.55C9.00001 8.16936 8.73421 8.1 8.34001 8.1H7.80001V9H8.34001ZM7.20001 7.5H8.38261C9.08521 7.5 9.60001 7.8852 9.60001 8.49C9.60001 9.4715 8.98261 9.6 8.32321 9.6H7.80001V10.5H7.20001V7.5Z" fill="#27282E"/>
</g>
</svg>
