<svg width="12" height="12" viewBox="0 0 12 12" fill="none" xmlns="http://www.w3.org/2000/svg">
    <path d="M8.40039 1C9.28386 1.00021 10 1.68953 10 2.53906V6H9V2.53906C9 2.22057 8.73157 1.96213 8.40039 1.96191H6.4043V3.60059C6.4043 4.50321 5.64375 5.23511 4.70508 5.23535H3V6H2V4.33984C2.00006 4.13852 2.08194 3.94453 2.22852 3.80078L4.85352 1.23145C5.00387 1.08417 5.2092 1.00008 5.42383 1H8.40039ZM3.14648 4.27441H4.70508C5.09147 4.27418 5.4043 3.97217 5.4043 3.60059V2.06152L3.14648 4.27441Z" fill="#6C707E"/>
    <path d="M1 7.5C1 7.22386 1.22386 7 1.5 7H10.5C10.7761 7 11 7.22386 11 7.5V10.5C11 10.7761 10.7761 11 10.5 11H1.5C1.22386 11 1 10.7761 1 10.5V7.5Z" fill="#A0BDF8"/>
    <path fill-rule="evenodd" clip-rule="evenodd" d="M2.84998 8.1H1.94998V7.5H4.34998V8.1H3.44998V10.5H2.84998V8.1Z" fill="#231F20" fill-opacity="0.7"/>
    <path fill-rule="evenodd" clip-rule="evenodd" d="M5.37957 8.40092C5.37957 8.17983 5.61299 8.1 6.03374 8.1C6.03974 8.1 6.89999 8.1 6.89999 8.1V7.5C6.89999 7.5 6.07049 7.5 6.04499 7.5C5.23349 7.5 4.64999 7.7755 4.64999 8.37C4.64999 8.88872 4.96466 9.11429 5.75343 9.24965C6.33119 9.34879 6.52211 9.43718 6.52211 9.6288C6.52211 9.82042 6.25381 9.9 5.75343 9.9C5.74143 9.9 4.87499 9.9 4.87499 9.9V10.5C4.87499 10.5 5.74743 10.5 5.75343 10.5C7.27499 10.5 7.27499 9.9 7.27499 9.6288C7.27499 9.24965 6.91519 8.95243 6.26901 8.78811C5.62283 8.62379 5.37957 8.622 5.37957 8.40092Z" fill="#231F20" fill-opacity="0.7"/>
    <path fill-rule="evenodd" clip-rule="evenodd" d="M10.05 7.5L9.09001 8.97L10.05 10.5H9.33001L8.70001 9.3558L8.07001 10.5H7.35001L8.31001 8.97L7.35001 7.5H8.07001L8.70001 8.5884L9.33001 7.5H10.05Z" fill="#231F20" fill-opacity="0.7"/>
</svg>
