<svg xmlns="http://www.w3.org/2000/svg" width="20" height="20" fill="currentColor" viewBox="0 0 20 20">
  <path fill-rule="evenodd" d="M3.75 7.47c0-.324.127-.637.354-.87l4.103-4.221A1.25 1.25 0 0 1 9.103 2h4.647a2.5 2.5 0 0 1 2.5 2.5v11.41a2.5 2.5 0 0 1-2.5 2.5h-7.5a2.5 2.5 0 0 1-2.5-2.5V7.47Zm1.5 1.605v6.834a1 1 0 0 0 1 1h7.5a1 1 0 0 0 1-1V4.5a1 1 0 0 0-1-1h-3.117v2.919a2.656 2.656 0 0 1-2.657 2.656H5.25Zm3.82-5.432-3.762 3.87h2.668c.604 0 1.094-.49 1.094-1.094V3.643Z" clip-rule="evenodd"/>
</svg>
