<svg width="16" height="16" viewBox="0 0 16 16" fill="none" xmlns="http://www.w3.org/2000/svg">
  <path d="M10 1C11.1043 1.00023 11.9999 1.89566 12 3V7H10.75V3C10.7499 2.58601 10.414 2.25023 10 2.25H7.50586V4.38086C7.50586 5.5543 6.55424 6.5056 5.38086 6.50586H3.25V7H2V5.34082C2.00012 5.07907 2.10282 4.82747 2.28613 4.64062L5.56641 1.2998C5.75433 1.10853 6.01115 1.00011 6.2793 1H10ZM3.43359 5.25586H5.38086C5.86389 5.2556 6.25586 4.86395 6.25586 4.38086V2.37988L3.43359 5.25586Z" fill="#6C707E"/>
  <path d="M1 9C1 8.44772 1.44772 8 2 8H14C14.5523 8 15 8.44772 15 9V14C15 14.5523 14.5523 15 14 15H2C1.44772 15 1 14.5523 1 14V9Z" fill="#F2B181"/>
  <path fill-rule="evenodd" clip-rule="evenodd" d="M3.9 11.5C4.564 11.5 5 11.3844 5 10.75C5 10.1156 4.557 10 3.9 10H3V11.5H3.9ZM2 9H3.971C5.142 9 6 9.642 6 10.65C6 12.2858 4.971 12.5 3.872 12.5H3V14H2V9Z" fill="#231F20" fill-opacity="0.7"/>
  <path fill-rule="evenodd" clip-rule="evenodd" d="M7.99571 14V12.0286L6 9H7.05L8.49571 11.2071L9.95 9H11L9 12.0071V14H7.99571Z" fill="#231F20" fill-opacity="0.7"/>
</svg>
