<svg width="16" height="16" viewBox="0 0 16 16" fill="none" xmlns="http://www.w3.org/2000/svg">
    <path d="M10 1C11.1046 1.00001 12 1.89544 12 3V6.89844C11.6479 6.61147 11.2221 6.39964 10.75 6.28906V3C10.75 2.5858 10.4142 2.25001 10 2.25H7.50586V4.38086C7.50586 5.55444 6.55442 6.50581 5.38086 6.50586H3.25V12C3.25 12.4142 3.5858 12.75 4 12.75H5.42773C5.21546 13.1332 5.07565 13.554 5.02441 14H4C2.96436 14 2.113 13.2128 2.01074 12.2041L2 12V5.34082C2.00007 5.07901 2.10278 4.82751 2.28613 4.64062L5.56641 1.2998C5.75435 1.10835 6.01102 1.00011 6.2793 1H10ZM3.43359 5.25586H5.38086C5.86407 5.25581 6.25586 4.86408 6.25586 4.38086V2.37988L3.43359 5.25586Z" fill="#6C707E"/>
    <path fill-rule="evenodd" clip-rule="evenodd" d="M12 8.88235C12 9.92195 11.1046 10.7647 10 10.7647C8.89543 10.7647 8 9.92195 8 8.88235C8 7.84276 8.89543 7 10 7C11.1046 7 12 7.84276 12 8.88235ZM11 8.88235C11 9.40215 10.5523 9.82353 10 9.82353C9.44772 9.82353 9 9.40215 9 8.88235C9 8.36256 9.44772 7.94118 10 7.94118C10.5523 7.94118 11 8.36256 11 8.88235Z" fill="#3574F0"/>
    <path fill-rule="evenodd" clip-rule="evenodd" d="M11 11.2353H9C7.34315 11.2353 6 12.4994 6 14.0588C6 14.5786 6.44772 15 7 15H13C13.5523 15 14 14.5786 14 14.0588C14 12.4994 12.6569 11.2353 11 11.2353ZM7 14.0588C7 13.0192 7.89543 12.1765 9 12.1765H11C12.1046 12.1765 13 13.0192 13 14.0588H7Z" fill="#3574F0"/>
    <path d="M10 9.82353C10.5523 9.82353 11 9.40215 11 8.88235C11 8.36256 10.5523 7.94118 10 7.94118C9.44772 7.94118 9 8.36256 9 8.88235C9 9.40215 9.44772 9.82353 10 9.82353Z" fill="#EDF3FF"/>
    <path d="M9 12.1765C7.89543 12.1765 7 13.0192 7 14.0588H13C13 13.0192 12.1046 12.1765 11 12.1765H9Z" fill="#EDF3FF"/>
</svg>
