<svg width="16" height="16" viewBox="0 0 16 16" fill="none" xmlns="http://www.w3.org/2000/svg">
    <path d="M10 1C11.1043 1.00023 11.9999 1.89566 12 3V7H10.75V3C10.7499 2.58601 10.414 2.25023 10 2.25H7.50586V4.38086C7.50586 5.5543 6.55424 6.5056 5.38086 6.50586H3.25V7H2V5.34082C2.00012 5.07907 2.10282 4.82747 2.28613 4.64062L5.56641 1.2998C5.75433 1.10853 6.01115 1.00011 6.2793 1H10ZM3.43359 5.25586H5.38086C5.86389 5.2556 6.25586 4.86395 6.25586 4.38086V2.37988L3.43359 5.25586Z" fill="#6C707E"/>
    <path d="M1 9C1 8.44772 1.44772 8 2 8H14C14.5523 8 15 8.44772 15 9V14C15 14.5523 14.5523 15 14 15H2C1.44772 15 1 14.5523 1 14V9Z" fill="#A0BDF8"/>
    <path fill-rule="evenodd" clip-rule="evenodd" d="M4.51991 14.016C3.00748 14.016 2.013 12.9386 2.013 11.5298V11.516C2.013 10.1624 3.04891 9.01599 4.50609 9.01599C5.34864 9.01599 5.86659 9.2508 6.36383 9.67207L5.82516 10.3143C5.45223 10.0036 5.08621 9.80328 4.47156 9.80328C3.58068 9.80328 2.90388 10.5768 2.90388 11.5022V11.516C2.90388 12.5105 3.55996 13.2425 4.54753 13.2425C5.00333 13.2425 5.4177 13.0975 5.71466 12.8765V11.9787H4.47847V11.2328H6.53648V13.2632C6.05996 13.6707 5.37626 14.016 4.51991 14.016Z" fill="#231F20" fill-opacity="0.7"/>
    <path fill-rule="evenodd" clip-rule="evenodd" d="M9.49317 14C8.02459 14 7 12.8743 7 11.5138V11.5C7 10.1395 8.03825 9 9.50683 9C10.9754 9 12 10.1257 12 11.4862V11.5C12 12.8605 10.9617 14 9.49317 14ZM9.50633 13.05C10.3861 13.05 11 12.3625 11 11.5125V11.5C11 10.65 10.3734 9.95 9.49367 9.95C8.61392 9.95 8 10.6375 8 11.4875V11.5C8 12.35 8.62658 13.05 9.50633 13.05Z" fill="#231F20" fill-opacity="0.7"/>
</svg>
