<svg width="20" height="20" viewBox="0 0 20 20" fill="none" xmlns="http://www.w3.org/2000/svg">
    <path d="M12.5996 1C13.9251 1.00002 15 2.03316 15 3.30762V11H13.5V3.30762C13.5 2.82972 13.0966 2.4424 12.5996 2.44238H9.60742V4.90137C9.60721 6.25532 8.46479 7.35248 7.05664 7.35254H4.5V11H3V6.00879C3.00009 5.70671 3.12374 5.41681 3.34375 5.20117L7.2793 1.3457C7.50474 1.12488 7.81297 1.00022 8.13477 1H12.5996ZM4.7207 5.91016H7.05664C7.63636 5.9101 8.10721 5.45876 8.10742 4.90137V2.5918L4.7207 5.91016Z" fill="#6C707E"/>
    <rect x="1" y="12" width="18" height="7" rx="1" fill="#F2B181"/>
    <g opacity="0.7">
        <path fill-rule="evenodd" clip-rule="evenodd" d="M5.15 16L4.49612 14.4L3.85 16H5.15ZM4.109 13H4.89L7 18H5.9L5.4 17H3.6L3.1 18H2L4.109 13Z" fill="#27282E"/>
        <path fill-rule="evenodd" clip-rule="evenodd" d="M8.97277 14.5015C8.97277 14.1331 9.284 14 9.845 14C9.853 14 11 14 11 14V13C11 13 9.894 13 9.86 13C8.778 13 8 13.4592 8 14.45C8 15.3145 8.41956 15.6905 9.47125 15.9161C10.2416 16.0813 10.4962 16.2286 10.4962 16.548C10.4962 16.8674 10.1384 17 9.47125 17C9.45525 17 8.3 17 8.3 17V18C8.3 18 9.46325 18 9.47125 18C11.5 18 11.5 17 11.5 16.548C11.5 15.9161 11.0203 15.4207 10.1587 15.1469C9.29712 14.873 8.97277 14.87 8.97277 14.5015Z" fill="#27282E"/>
    </g>
</svg>
