<svg width="12" height="12" viewBox="0 0 12 12" fill="none" xmlns="http://www.w3.org/2000/svg">
<path d="M8.40039 1C9.28373 1.00021 9.99979 1.68872 10 2.53809V6H9V2.53809C8.99979 2.21976 8.73144 1.96213 8.40039 1.96191H6.4043V3.60059C6.4043 4.50321 5.64375 5.23511 4.70508 5.23535H3V6H2V4.33887C2.00012 4.13771 2.08211 3.94445 2.22852 3.80078L4.85352 1.23047C5.00385 1.08336 5.20934 1.00008 5.42383 1H8.40039ZM3.14648 4.27344H4.70508C5.09147 4.2732 5.4043 3.97217 5.4043 3.60059V2.06152L3.14648 4.27344Z" fill="#6C707E"/>
<rect x="1" y="7" width="10" height="4" rx="0.5" fill="#F2B6BB"/>
<g opacity="0.7">
<path fill-rule="evenodd" clip-rule="evenodd" d="M2 9.0006C2 8.1 2.61213 7.5 3.48332 7.5C4.10557 7.5 4.33413 7.6866 4.60962 7.9518L4.25305 8.35627C4.02293 8.14087 3.80813 8.1 3.47938 8.1C2.93234 8.1 2.6575 8.54275 2.6575 8.9922C2.6575 9.44165 2.92839 9.9 3.47938 9.9C3.83245 9.9 4.00649 9.83605 4.25305 9.60385L4.63 9.9864C4.33018 10.3014 4.10224 10.5 3.46294 10.5C2.62397 10.5 2 9.9012 2 9.0006Z" fill="#27282E"/>
<path fill-rule="evenodd" clip-rule="evenodd" d="M5.56959 8.40092C5.56959 8.17983 5.77422 8.1 6.14308 8.1C6.14834 8.1 6.90249 8.1 6.90249 8.1V7.5C6.90249 7.5 6.1753 7.5 6.15294 7.5C5.44153 7.5 4.92999 7.7755 4.92999 8.37C4.92999 8.88872 5.20585 9.11429 5.89734 9.24965C6.40384 9.34879 6.57121 9.43718 6.57121 9.6288C6.57121 9.82042 6.33601 9.9 5.89734 9.9C5.88682 9.9 5.12724 9.9 5.12724 9.9V10.5C5.12724 10.5 5.89208 10.5 5.89734 10.5C7.23124 10.5 7.23124 9.9 7.23124 9.6288C7.23124 9.24965 6.91582 8.95243 6.34933 8.78811C5.78285 8.62379 5.56959 8.622 5.56959 8.40092Z" fill="#27282E"/>
<path fill-rule="evenodd" clip-rule="evenodd" d="M8.19959 8.40092C8.19959 8.17983 8.40423 8.1 8.77308 8.1C8.77834 8.1 9.5325 8.1 9.5325 8.1V7.5C9.5325 7.5 8.8053 7.5 8.78295 7.5C8.07153 7.5 7.56 7.7755 7.56 8.37C7.56 8.88872 7.83586 9.11429 8.52735 9.24965C9.03384 9.34879 9.20122 9.43718 9.20122 9.6288C9.20122 9.82042 8.96601 9.9 8.52735 9.9C8.51683 9.9 7.75725 9.9 7.75725 9.9V10.5C7.75725 10.5 8.52209 10.5 8.52735 10.5C9.86125 10.5 9.86125 9.9 9.86125 9.6288C9.86125 9.24965 9.54582 8.95243 8.97934 8.78811C8.41285 8.62379 8.19959 8.622 8.19959 8.40092Z" fill="#27282E"/>
</g>
</svg>
