<svg width="16" height="16" viewBox="0 0 16 16" fill="none" xmlns="http://www.w3.org/2000/svg">
    <path d="M10 1C11.1046 1.00001 12 1.89544 12 3V7H10.75V3C10.75 2.5858 10.4142 2.25001 10 2.25H7.50586V4.38086C7.50586 5.55444 6.55442 6.50581 5.38086 6.50586H3.25V7H2V5.34082C2.00007 5.07901 2.10278 4.82751 2.28613 4.64062L5.56641 1.2998C5.75435 1.10835 6.01102 1.00011 6.2793 1H10ZM3.43359 5.25586H5.38086C5.86407 5.25581 6.25586 4.86408 6.25586 4.38086V2.37988L3.43359 5.25586Z" fill="#6C707E"/>
    <path d="M1 9C1 8.44772 1.44772 8 2 8H14C14.5523 8 15 8.44772 15 9V14C15 14.5523 14.5523 15 14 15H2C1.44772 15 1 14.5523 1 14V9Z" fill="#F2B181"/>
    <g opacity="0.7">
        <path fill-rule="evenodd" clip-rule="evenodd" d="M3.39508 12.5877C3.62439 12.8379 3.83782 13 4.28682 13C4.81317 13 4.99999 12.5877 4.99999 12.2976V9H5.99999V12.5877C5.99999 13.3196 5.3267 14 4.44999 14C3.62899 14 3.14999 13.7626 2.79999 13.3196L3.39508 12.5877Z" fill="#27282E"/>
        <path fill-rule="evenodd" clip-rule="evenodd" d="M7.97277 10.5015C7.97277 10.1331 8.284 10 8.845 10C8.853 10 10 10 10 10V9C10 9 8.894 9 8.86 9C7.778 9 7 9.45917 7 10.45C7 11.3145 7.41956 11.6905 8.47125 11.9161C9.24159 12.0813 9.49616 12.2286 9.49616 12.548C9.49616 12.8674 9.13843 13 8.47125 13C8.45525 13 7.3 13 7.3 13V14C7.3 14 8.46325 14 8.47125 14C10.5 14 10.5 13 10.5 12.548C10.5 11.9161 10.0203 11.4207 9.15869 11.1469C8.29712 10.873 7.97277 10.87 7.97277 10.5015Z" fill="#27282E"/>
    </g>
</svg>
