<svg width="12" height="12" viewBox="0 0 12 12" fill="none" xmlns="http://www.w3.org/2000/svg">
  <path d="M8.39941 1C9.28291 1.00001 9.99979 1.6886 10 2.53809V6H9V2.53809C8.99979 2.21964 8.73064 1.96192 8.39941 1.96191H6.4043V3.60059C6.4043 4.50319 5.64369 5.23507 4.70508 5.23535H3V6H2V4.33887C2.00012 4.13771 2.08211 3.94445 2.22852 3.80078L4.85352 1.23047C5.00384 1.08339 5.20936 1.00008 5.42383 1H8.39941ZM3.14648 4.27344H4.70508C5.09142 4.27316 5.4043 3.97214 5.4043 3.60059V2.06152L3.14648 4.27344Z" fill="#6C707E"/>
  <path d="M1 7.5C1 7.22386 1.22386 7 1.5 7H10.5C10.7761 7 11 7.22386 11 7.5V10.5C11 10.7761 10.7761 11 10.5 11H1.5C1.22386 11 1 10.7761 1 10.5V7.5Z" fill="#F2B181"/>
  <path fill-rule="evenodd" clip-rule="evenodd" d="M3.235 9C3.6666 9 3.95 8.93064 3.95 8.55C3.95 8.16936 3.66205 8.1 3.235 8.1H2.65V9H3.235ZM2 7.5H3.28115C4.0423 7.5 4.6 7.8852 4.6 8.49C4.6 9.4715 3.93115 9.6 3.2168 9.6H2.65V10.5H2V7.5Z" fill="#231F20" fill-opacity="0.7"/>
  <path fill-rule="evenodd" clip-rule="evenodd" d="M5.79743 10.5V9.31714L4.60001 7.5H5.23001L6.09743 8.82429L6.97001 7.5H7.60001L6.40001 9.30429V10.5H5.79743Z" fill="#231F20" fill-opacity="0.7"/>
</svg>
