<svg width="16" height="16" viewBox="0 0 16 16" fill="none" xmlns="http://www.w3.org/2000/svg">
    <path d="M10 1C11.1046 1.00001 12 1.89544 12 3V7H10.75V3C10.75 2.5858 10.4142 2.25001 10 2.25H7.50586V4.38086C7.50586 5.55444 6.55442 6.50581 5.38086 6.50586H3.25V7H2V5.34082C2.00007 5.07901 2.10278 4.82751 2.28613 4.64062L5.56641 1.2998C5.75435 1.10835 6.01102 1.00011 6.2793 1H10ZM3.43359 5.25586H5.38086C5.86407 5.25581 6.25586 4.86408 6.25586 4.38086V2.37988L3.43359 5.25586Z" fill="#6C707E"/>
    <rect x="1" y="8" width="14" height="7" rx="1" fill="#F2B181"/>
    <g opacity="0.7">
        <path fill-rule="evenodd" clip-rule="evenodd" d="M5.15 12L4.49612 10.4L3.85 12H5.15ZM4.109 9H4.89L7 14H5.9L5.4 13H3.6L3.1 14H2L4.109 9Z" fill="#27282E"/>
        <path fill-rule="evenodd" clip-rule="evenodd" d="M8.39508 12.5877C8.62439 12.8379 8.83782 13 9.28682 13C9.81317 13 9.99999 12.5877 9.99999 12.2976V9H11V12.5877C11 13.3196 10.3267 14 9.44999 14C8.62899 14 8.14999 13.7626 7.79999 13.3196L8.39508 12.5877Z" fill="#27282E"/>
    </g>
</svg>
