<svg xmlns="http://www.w3.org/2000/svg" width="16" height="16" viewBox="0 0 16 16">
  <path fill-rule="evenodd" d="M14.412 8.293a1 1 0 0 0-1.414 0l-1.351 1.351L8 13.291v2.707h2.707L15.705 11a1 1 0 0 0 0-1.414l-1.293-1.293ZM14 11.29l.998-.998L13.705 9l-.998.998L14 11.291Zm-2-.586 1.293 1.293-3 3H9v-1.293l3-3ZM11 1a2 2 0 0 1 2 2v4.13a1.991 1.991 0 0 0-.709.456l-.541.541V3a.75.75 0 0 0-.75-.75H8.506v2.13A2.125 2.125 0 0 1 6.38 6.507H4.25V12c0 .414.336.75.75.75h2.127L7 12.877V14H5a2 2 0 0 1-1.99-1.796L3 12V5.34a1 1 0 0 1 .286-.7l3.28-3.34A1 1 0 0 1 7.28 1H11ZM4.434 5.256H6.38a.875.875 0 0 0 .875-.875V2.38L4.434 5.256Z" clip-rule="evenodd"/>
</svg>
