<svg width="16" height="16" viewBox="0 0 16 16" fill="none" xmlns="http://www.w3.org/2000/svg">
    <path d="M10 1C11.1046 1.00001 12 1.89544 12 3V12C12 13.1046 11.1046 14 10 14H8.74219C8.88168 13.6055 8.96927 13.1863 8.99316 12.75H10C10.4142 12.75 10.75 12.4142 10.75 12V3C10.75 2.5858 10.4142 2.25001 10 2.25H7.50586V4.38086C7.50586 5.55444 6.55442 6.50581 5.38086 6.50586H3.25V8.17676C2.80051 8.30649 2.37973 8.50363 2 8.75781V5.34082C2.00007 5.07901 2.10278 4.82751 2.28613 4.64062L5.56641 1.2998C5.75435 1.10835 6.01102 1.00011 6.2793 1H10ZM3.43359 5.25586H5.38086C5.86407 5.25581 6.25586 4.86408 6.25586 4.38086V2.37988L3.43359 5.25586Z" fill="#6C707E"/>
    <rect x="1" y="9" width="7" height="7" rx="3.5" fill="#F2B181"/>
    <g opacity="0.7">
        <path fill-rule="evenodd" clip-rule="evenodd" d="M3.39508 13.5877C3.62439 13.8379 3.83782 14 4.28682 14C4.81317 14 4.99999 13.5877 4.99999 13.2976V10H5.99999V13.5877C5.99999 14.3196 5.3267 15 4.44999 15C3.62899 15 3.14999 14.7626 2.79999 14.3196L3.39508 13.5877Z" fill="#27282E"/>
    </g>
</svg>
