<svg width="16" height="16" viewBox="0 0 16 16" fill="none" xmlns="http://www.w3.org/2000/svg">
    <path d="M10 1C11.1046 1.00001 12 1.89544 12 3V7H10.75V3C10.75 2.5858 10.4142 2.25001 10 2.25H7.50586V4.38086C7.50586 5.55444 6.55442 6.50581 5.38086 6.50586H3.25V12C3.25 12.4142 3.5858 12.75 4 12.75H5V14H4C2.96436 14 2.113 13.2128 2.01074 12.2041L2 12V5.34082C2.00007 5.07901 2.10278 4.82751 2.28613 4.64062L5.56641 1.2998C5.75435 1.10835 6.01102 1.00011 6.2793 1H10ZM3.43359 5.25586H5.38086C5.86407 5.25581 6.25586 4.86408 6.25586 4.38086V2.37988L3.43359 5.25586Z" fill="#6C707E"/>
    <g clip-path="url(#clip0_5614_356)">
        <path d="M7.6 10.2917C7.93136 10.2917 8.19999 10.5214 8.19999 10.8048L8.19999 16.4868C8.19999 16.7702 7.93136 16.9999 7.6 16.9999C7.26863 16.9999 7 16.7702 7 16.4868L7 10.8048C7 10.5214 7.26863 10.2917 7.6 10.2917Z" fill="#6C707E"/>
        <path d="M9.99998 8C10.3313 8 10.6 8.22972 10.6 8.51308L10.6 16.4869C10.6 16.7703 10.3313 17 9.99998 17C9.66861 17 9.39998 16.7703 9.39998 16.4869L9.39998 8.51308C9.39998 8.22972 9.66861 8 9.99998 8Z" fill="#6C707E"/>
        <path d="M13 12.103C13 11.8197 12.7314 11.59 12.4 11.59C12.0686 11.59 11.8 11.8197 11.8 12.103V16.4869C11.8 16.7703 12.0686 17 12.4 17C12.7314 17 13 16.7703 13 16.4869V12.103Z" fill="#6C707E"/>
    </g>
    <defs>
        <clipPath id="clip0_5614_356">
            <rect width="10" height="9" fill="white" transform="translate(3 6)"/>
        </clipPath>
    </defs>
</svg>
