<svg xmlns="http://www.w3.org/2000/svg" width="20" height="20" viewBox="0 0 20 20">
  <path fill-rule="evenodd" d="M13.75 2a2.5 2.5 0 0 1 2.5 2.5v4.683c-.258.11-.5.269-.71.48l-.79.79V4.5a1 1 0 0 0-1-1h-3.117v2.918a2.657 2.657 0 0 1-2.656 2.656H5.25v6.835a1 1 0 0 0 1 1H9v1.5H6.25l-.256-.012a2.501 2.501 0 0 1-2.231-2.232l-.013-.256V7.471c0-.326.127-.638.354-.871l4.103-4.221a1.25 1.25 0 0 1 .77-.373L9.105 2h4.646ZM5.309 7.512h2.668c.603 0 1.093-.49 1.093-1.094V3.642l-3.76 3.87Z" clip-rule="evenodd"/>
  <path fill-rule="evenodd" d="M18.015 10.369a1.25 1.25 0 0 0-1.768 0l-1.689 1.689L10 16.616V20h3.384l6.247-6.248a1.25 1.25 0 0 0 0-1.767l-1.616-1.616Zm-.515 3.747 1.247-1.247-1.616-1.617-1.247 1.248 1.616 1.616Zm-2.5-.732L16.616 15l-3.75 3.75H11.25v-1.616l3.75-3.75Z" clip-rule="evenodd"/>
</svg>
