<svg width="20" height="20" viewBox="0 0 20 20" fill="none" xmlns="http://www.w3.org/2000/svg">
<path d="M12.5996 1C13.9251 1.00002 15 1.99231 15 3.21582V11H13.5V3.21582C13.5 2.75701 13.0967 2.38478 12.5996 2.38477H9.60742V4.74512C9.60733 6.045 8.46486 7.09858 7.05664 7.09863H4.5V11H3V5.80859C3.00009 5.51858 3.12372 5.23924 3.34375 5.03223L7.2793 1.33203C7.50474 1.12005 7.81297 1.00021 8.13477 1H12.5996ZM4.7207 5.71387H7.05664C7.63643 5.71382 8.10733 5.2803 8.10742 4.74512V2.52832L4.7207 5.71387Z" fill="#6C707E"/>
<path d="M1 13C1 12.4477 1.44772 12 2 12H18C18.5523 12 19 12.4477 19 13V18C19 18.5523 18.5523 19 18 19H2C1.44772 19 1 18.5523 1 18V13Z" fill="#A0BDF8"/>
<path fill-rule="evenodd" clip-rule="evenodd" d="M2.59509 16.5877C2.8244 16.8379 3.03783 17 3.48683 17C4.01318 17 4.2 16.5877 4.2 16.2976V13H5.2V16.5877C5.2 17.3196 4.52671 18 3.65 18C2.829 18 2.35 17.7626 2 17.3196L2.59509 16.5877Z" fill="#231F20" fill-opacity="0.7"/>
</svg>
