<svg width="16" height="16" viewBox="0 0 16 16" fill="none" xmlns="http://www.w3.org/2000/svg">
  <path d="M10 1C11.1046 1.00001 12 1.89544 12 3H10.75C10.75 2.5858 10.4142 2.25001 10 2.25H7.50586V4.38086C7.50586 5.55444 6.55442 6.50581 5.38086 6.50586H3.25V12C3.25 12.4142 3.5858 12.75 4 12.75H9V14H4C2.96436 14 2.113 13.2128 2.01074 12.2041L2 12V5.34082C2.00007 5.07901 2.10278 4.82751 2.28613 4.64062L5.56641 1.2998C5.75435 1.10835 6.01102 1.00011 6.2793 1H10ZM3.43359 5.25586H5.38086C5.86407 5.25581 6.25586 4.86408 6.25586 4.38086V2.37988L3.43359 5.25586Z" fill="#6C707E"/>
  <path d="M12 8L12 9.75L10.2 9.75L10.2 8L12 8ZM12 6.25L13.8 6.25L13.8 8L12 8L12 6.25ZM12 4.5L12 6.25L10.2 6.25L10.2 4.5L12 4.5Z" fill="#6C707E"/>
  <path d="M12 11.5V9.75H13.8V11.5H12ZM12 13.25H10.2V11.5H12V13.25ZM12 15V13.25H13.8V15H12Z" fill="#6C707E"/>
</svg>
