<svg width="16" height="16" viewBox="0 0 16 16" fill="none" xmlns="http://www.w3.org/2000/svg">
    <path d="M10 1.00018C11.1046 1.0002 12 1.89562 12 3.00018V6.23065C11.7063 6.0841 11.3758 6.00025 11.0254 6.00018C10.93 6.00018 10.8379 6.01374 10.75 6.03729V3.00018C10.75 2.58598 10.4142 2.2502 10 2.25018H7.50586V4.38104C7.50576 5.55453 6.55436 6.506 5.38086 6.50604H3.25V12.0002C3.2501 12.4143 3.58586 12.7502 4 12.7502H6.58789V13.8127C6.5879 13.8759 6.5924 13.9383 6.59766 14.0002H4C2.96442 14.0002 2.11309 13.2129 2.01074 12.2043L2 12.0002V5.341C2.00007 5.07923 2.10284 4.82769 2.28613 4.64081L5.56641 1.29999C5.75435 1.10853 6.01102 1.00029 6.2793 1.00018H10ZM3.43359 5.25604H5.38086C5.86401 5.256 6.25576 4.86418 6.25586 4.38104V2.38007L3.43359 5.25604Z" fill="#6C707E"/>
    <path d="M9 15C9.27614 15 9.5 14.7761 9.5 14.5C9.5 14.2239 9.27614 14 9 14C8.72386 14 8.5 13.7761 8.5 13.5L8.5 11.8604C8.5 11.5021 8.3092 11.1773 8.00978 11C8.3092 10.8227 8.5 10.4979 8.5 10.1396V8.5C8.5 8.22386 8.72386 8 9 8C9.27614 8 9.5 7.77614 9.5 7.5C9.5 7.22386 9.27614 7 9 7C8.17157 7 7.5 7.67157 7.5 8.5L7.5 10.1396L6.34189 10.5257C6.13772 10.5937 6 10.7848 6 11C6 11.2152 6.13772 11.4063 6.34189 11.4743L7.5 11.8604L7.5 13.5C7.5 14.3284 8.17157 15 9 15Z" fill="#6C707E"/>
    <path d="M11 7C10.7239 7 10.5 7.22386 10.5 7.5C10.5 7.77614 10.7239 8 11 8C11.2761 8 11.5 8.22386 11.5 8.5V10.1396C11.5 10.4979 11.6908 10.8227 11.9902 11C11.6908 11.1773 11.5 11.5021 11.5 11.8604V13.5C11.5 13.7761 11.2761 14 11 14C10.7239 14 10.5 14.2239 10.5 14.5C10.5 14.7761 10.7239 15 11 15C11.8284 15 12.5 14.3284 12.5 13.5V11.8604L13.6581 11.4743C13.8623 11.4063 14 11.2152 14 11C14 10.7848 13.8623 10.5937 13.6581 10.5257L12.5 10.1396V8.5C12.5 7.67157 11.8284 7 11 7Z" fill="#6C707E"/>
</svg>
