<svg width="16" height="16" viewBox="0 0 16 16" fill="none" xmlns="http://www.w3.org/2000/svg">
    <path d="M10 1C11.1043 1.00023 11.9999 1.89566 12 3V7H10.75V3C10.7499 2.58601 10.414 2.25023 10 2.25H7.50586V4.38086C7.50586 5.5543 6.55424 6.5056 5.38086 6.50586H3.25V7H2V5.34082C2.00012 5.07907 2.10282 4.82747 2.28613 4.64062L5.56641 1.2998C5.75433 1.10853 6.01115 1.00011 6.2793 1H10ZM3.43359 5.25586H5.38086C5.86389 5.2556 6.25586 4.86395 6.25586 4.38086V2.37988L3.43359 5.25586Z" fill="#6C707E"/>
    <path d="M1 9C1 8.44772 1.44772 8 2 8H14C14.5523 8 15 8.44772 15 9V14C15 14.5523 14.5523 15 14 15H2C1.44772 15 1 14.5523 1 14V9Z" fill="#A0BDF8"/>
    <g opacity="0.7">
        <path fill-rule="evenodd" clip-rule="evenodd" d="M4 10H2.5V9H6.5V10H5V14H4V10Z" fill="#27282E"/>
    </g>
    <g opacity="0.7">
        <path fill-rule="evenodd" clip-rule="evenodd" d="M7.57277 10.5015C7.57277 10.1331 7.88401 10 8.44501 10C8.45301 10 9.60001 10 9.60001 10V9C9.60001 9 8.49401 9 8.46001 9C7.37801 9 6.60001 9.45917 6.60001 10.45C6.60001 11.3145 7.01956 11.6905 8.07126 11.9161C8.84159 12.0813 9.09616 12.2286 9.09616 12.548C9.09616 12.8674 8.73843 13 8.07126 13C8.05526 13 6.90001 13 6.90001 13V14C6.90001 14 8.06326 14 8.07126 14C10.1 14 10.1 13 10.1 12.548C10.1 11.9161 9.62027 11.4207 8.7587 11.1469C7.89713 10.873 7.57277 10.87 7.57277 10.5015Z" fill="#27282E"/>
    </g>
</svg>
