<svg width="12" height="12" viewBox="0 0 12 12" fill="none" xmlns="http://www.w3.org/2000/svg">
<path d="M8.40039 1C9.28373 1.00021 9.99979 1.68872 10 2.53809V5.89941C9.70042 5.67441 9.36322 5.49712 9 5.37695V2.53809C8.99979 2.21976 8.73144 1.96213 8.40039 1.96191H6.4043V3.60059C6.4043 4.50321 5.64375 5.23511 4.70508 5.23535H3V9.46191C3.00021 9.78024 3.26856 10.0379 3.59961 10.0381H4.66504C4.81152 10.3918 5.01474 10.7159 5.2627 11H3.59961C2.77127 10.9998 2.09059 10.3939 2.00879 9.61816L2 9.46191V4.33887C2.00012 4.13771 2.08211 3.94445 2.22852 3.80078L4.85352 1.23047C5.00385 1.08336 5.20934 1.00008 5.42383 1H8.40039ZM3.14648 4.27344H4.70508C5.09147 4.2732 5.4043 3.97217 5.4043 3.60059V2.06152L3.14648 4.27344Z" fill="#6C707E"/>
<path d="M8.41895 7.71484L9.95703 6.85742L10.5 7.76758L8.96289 8.62402L10.5 9.48242L9.95703 10.3926L8.41895 9.53418V11.25H7.33203V9.53418L5.79395 10.3926L5.25 9.48242L6.78809 8.62402L5.25 7.76758L5.79395 6.85742L7.33203 7.71484V6H8.41895V7.71484Z" fill="#3369D6"/>
</svg>
