<svg width="20" height="20" viewBox="0 0 20 20" fill="none" xmlns="http://www.w3.org/2000/svg">
    <path d="M12.5996 1C13.9251 1.00002 15 2.03316 15 3.30762V11H13.5V3.30762C13.5 2.82972 13.0966 2.4424 12.5996 2.44238H9.60742V4.90137C9.60721 6.25532 8.46479 7.35248 7.05664 7.35254H4.5V11H3V6.00879C3.00009 5.70671 3.12374 5.41681 3.34375 5.20117L7.2793 1.3457C7.50474 1.12488 7.81297 1.00022 8.13477 1H12.5996ZM4.7207 5.91016H7.05664C7.63636 5.9101 8.10721 5.45876 8.10742 4.90137V2.5918L4.7207 5.91016Z" fill="#6C707E"/>
    <rect x="1" y="12" width="18" height="7" rx="1" fill="#F2B181"/>
    <g opacity="0.7">
        <path fill-rule="evenodd" clip-rule="evenodd" d="M5.15 16L4.49612 14.4L3.85 16H5.15ZM4.109 13H4.89L7 18H5.9L5.4 17H3.6L3.1 18H2L4.109 13Z" fill="#27282E"/>
        <path fill-rule="evenodd" clip-rule="evenodd" d="M8.39508 16.5877C8.62439 16.8379 8.83782 17 9.28682 17C9.81317 17 9.99999 16.5877 9.99999 16.2976V13H11V16.5877C11 17.3196 10.3267 18 9.44999 18C8.62899 18 8.14999 17.7626 7.79999 17.3196L8.39508 16.5877Z" fill="#27282E"/>
    </g>
</svg>
