<svg width="12" height="12" viewBox="0 0 12 12" fill="none" xmlns="http://www.w3.org/2000/svg">
<path d="M8.40039 1C9.28373 1.00021 9.99979 1.68872 10 2.53809V6H9V2.53809C8.99979 2.21976 8.73144 1.96213 8.40039 1.96191H6.4043V3.60059C6.4043 4.50321 5.64375 5.23511 4.70508 5.23535H3V6H2V4.33887C2.00012 4.13771 2.08211 3.94445 2.22852 3.80078L4.85352 1.23047C5.00385 1.08336 5.20934 1.00008 5.42383 1H8.40039ZM3.14648 4.27344H4.70508C5.09147 4.2732 5.4043 3.97217 5.4043 3.60059V2.06152L3.14648 4.27344Z" fill="#6C707E"/>
<rect x="1" y="7" width="10" height="4" rx="0.5" fill="#F2B181"/>
<g opacity="0.7">
<path fill-rule="evenodd" clip-rule="evenodd" d="M2.625 8.1V9.9H3.03062C3.61125 9.9 3.875 9.5958 3.875 9.009V9C3.875 8.4132 3.61125 8.1 3.03062 8.1H2.625ZM2 7.5H3.03062C3.9 7.5 4.5 8.1558 4.5 9C4.5 9.8526 3.9 10.5 3.03062 10.5H2V7.5Z" fill="#27282E"/>
</g>
<g opacity="0.7">
<path fill-rule="evenodd" clip-rule="evenodd" d="M5.4375 8.1H4.5V7.5H7V8.1H6.0625V10.5H5.4375V8.1Z" fill="#27282E"/>
</g>
<g opacity="0.7">
<path fill-rule="evenodd" clip-rule="evenodd" d="M7.82501 8.1V9.9H8.23064C8.81126 9.9 9.07501 9.5958 9.07501 9.009V9C9.07501 8.4132 8.81126 8.1 8.23064 8.1H7.82501ZM7.20001 7.5H8.23064C9.10001 7.5 9.70001 8.1558 9.70001 9C9.70001 9.8526 9.10001 10.5 8.23064 10.5H7.20001V7.5Z" fill="#27282E"/>
</g>
</svg>
