<svg width="16" height="16" viewBox="0 0 16 16" fill="none" xmlns="http://www.w3.org/2000/svg">
    <path d="M10 1C11.1046 1.00001 12 1.89544 12 3V7.09961C11.6769 7.03403 11.3424 7 11 7C10.9162 7 10.8328 7.00178 10.75 7.00586V3C10.75 2.5858 10.4142 2.25001 10 2.25H7.50586V4.38086C7.50586 5.55444 6.55442 6.50581 5.38086 6.50586H3.25V12C3.25 12.4142 3.5858 12.75 4 12.75H6.05566C6.12154 13.188 6.24524 13.607 6.41699 14H4C2.96436 14 2.113 13.2128 2.01074 12.2041L2 12V5.34082C2.00007 5.07901 2.10278 4.82751 2.28613 4.64062L5.56641 1.2998C5.75435 1.10835 6.01102 1.00011 6.2793 1H10ZM3.43359 5.25586H5.38086C5.86407 5.25581 6.25586 4.86408 6.25586 4.38086V2.37988L3.43359 5.25586Z" fill="#6C707E"/>
    <path d="M11.2246 10.2871L13.2754 9.14355L14 10.3564L11.9502 11.499L14 12.6436L13.2754 13.8564L11.2246 12.7119V15H9.77539V12.7119L7.72461 13.8564L7 12.6436L9.0498 11.499L7 10.3564L7.72461 9.14355L9.77539 10.2871V8H11.2246V10.2871Z" fill="#3369D6"/>
</svg>
