<svg width="12" height="12" viewBox="0 0 12 12" fill="none" xmlns="http://www.w3.org/2000/svg">
<path d="M8.40039 1C9.28373 1.00021 9.99979 1.68872 10 2.53809V6H9V2.53809C8.99979 2.21976 8.73144 1.96213 8.40039 1.96191H6.4043V3.60059C6.4043 4.50321 5.64375 5.23511 4.70508 5.23535H3V6H2V4.33887C2.00012 4.13771 2.08211 3.94445 2.22852 3.80078L4.85352 1.23047C5.00385 1.08336 5.20934 1.00008 5.42383 1H8.40039ZM3.14648 4.27344H4.70508C5.09147 4.2732 5.4043 3.97217 5.4043 3.60059V2.06152L3.14648 4.27344Z" fill="#6C707E"/>
<rect x="1" y="7" width="10" height="4" rx="0.5" fill="#BFA1F8"/>
<path fill-rule="evenodd" clip-rule="evenodd" d="M2 10.45H2.8V7.55H2V10.45Z" fill="#231F20" fill-opacity="0.7"/>
<path fill-rule="evenodd" clip-rule="evenodd" d="M3.82501 8.13V9.87H4.23064C4.81126 9.87 5.07501 9.57594 5.07501 9.0087V9C5.07501 8.43276 4.81126 8.13 4.23064 8.13H3.82501ZM3.20001 7.55H4.23064C5.10001 7.55 5.70001 8.18394 5.70001 9C5.70001 9.82418 5.10001 10.45 4.23064 10.45H3.20001V7.55Z" fill="#231F20" fill-opacity="0.7"/>
<path fill-rule="evenodd" clip-rule="evenodd" d="M6.10001 7.55H6.75001V9.87H8.37501V10.45H6.10001V7.55Z" fill="#231F20" fill-opacity="0.7"/>
</svg>
