<svg width="20" height="20" viewBox="0 0 20 20" fill="none" xmlns="http://www.w3.org/2000/svg">
<path d="M12.5996 1C13.9251 1.00002 15 2.03316 15 3.30762V11H13.5V3.30762C13.5 2.82972 13.0966 2.4424 12.5996 2.44238H9.60742V4.90137C9.60721 6.25532 8.46479 7.35249 7.05664 7.35254H4.5V11H3V6.00879C3.00009 5.70671 3.12374 5.41681 3.34375 5.20117L7.2793 1.3457C7.50474 1.12488 7.81297 1.00022 8.13477 1H12.5996ZM4.7207 5.91016H7.05664C7.63636 5.9101 8.10721 5.45876 8.10742 4.90137V2.5918L4.7207 5.91016Z" fill="#6C707E"/>
<path d="M1 13C1 12.4477 1.44772 12 2 12H18C18.5523 12 19 12.4477 19 13V18C19 18.5523 18.5523 19 18 19H2C1.44772 19 1 18.5523 1 18V13Z" fill="#F2B181"/>
<g opacity="0.7">
<path fill-rule="evenodd" clip-rule="evenodd" d="M3.39508 16.5877C3.62439 16.8379 3.83782 17 4.28682 17C4.81317 17 4.99999 16.5877 4.99999 16.2976V13H5.99999V16.5877C5.99999 17.3196 5.3267 18 4.44999 18C3.62899 18 3.14999 17.7626 2.79999 17.3196L3.39508 16.5877Z" fill="#27282E"/>
<path fill-rule="evenodd" clip-rule="evenodd" d="M7.97277 14.5015C7.97277 14.1331 8.284 14 8.845 14C8.853 14 10 14 10 14V13C10 13 8.894 13 8.86 13C7.778 13 7 13.4592 7 14.45C7 15.3145 7.41956 15.6905 8.47125 15.9161C9.24159 16.0813 9.49616 16.2286 9.49616 16.548C9.49616 16.8674 9.13843 17 8.47125 17C8.45525 17 7.3 17 7.3 17V18C7.3 18 8.46325 18 8.47125 18C10.5 18 10.5 17 10.5 16.548C10.5 15.9161 10.0203 15.4207 9.15869 15.1469C8.29712 14.873 7.97277 14.87 7.97277 14.5015Z" fill="#27282E"/>
</g>
</svg>
