<svg xmlns="http://www.w3.org/2000/svg" width="16" height="16" fill="currentColor" viewBox="0 0 16 16">
  <path fill="#9AA7B0" fill-opacity=".8" d="M7 1 3 5h4V1Z"/>
  <path fill="#9AA7B0" fill-opacity=".8" d="M8 15v-.703s-.95-.146-1.45-.923-.615-1.938-.352-2.886a2.49 2.49 0 0 1 2.384-1.97v-.214a2.081 2.081 0 0 1 .54-1.549c.384-.42.887-.743 1.457-.755.437-.074.916-.033 1.36-.033a6.474 6.474 0 0 1 1.061.11V1H8v5H3v9h5Z"/>
  <path fill="#40A0CF" fill-opacity=".9" d="M10.444 6.967a6.329 6.329 0 0 1 1.047-.089c.383-.002.765.028 1.143.089a1.217 1.217 0 0 1 1.096 1.127v2.066a1.098 1.098 0 0 1-1.096 1.102h-2.19a1.386 1.386 0 0 0-1.37 1.347v.99H8.32A1.221 1.221 0 0 1 7.154 12.5a4.011 4.011 0 0 1 0-2.204c.13-.65.707-1.114 1.37-1.1h3.016v-.275H9.347v-.827c0-.626.169-.965 1.097-1.127Zm.244.83a.413.413 0 1 0-.762.32.413.413 0 0 0 .762-.32Z"/>
  <path fill="#FFC900" fill-opacity=".9" d="M14.004 10.16v-.964h.717c.591.037.93.5 1.096 1.1a3.683 3.683 0 0 1 0 2.204c-.221.66-.459 1.1-1.096 1.1H11.54v.275h2.19v.827a1.251 1.251 0 0 1-1.096 1.102c-.714.22-1.477.22-2.19 0a1.27 1.27 0 0 1-1.097-1.102v-2.065a1.112 1.112 0 0 1 1.097-1.102h2.19a1.399 1.399 0 0 0 1.37-1.376Zm-.849 4.52a.413.413 0 1 0-.763.319.413.413 0 0 0 .763-.319Z"/>
</svg>
