<svg width="16" height="16" viewBox="0 0 16 16" fill="none" xmlns="http://www.w3.org/2000/svg">
    <path d="M10 1C11.1046 1.00001 12 1.89544 12 3V7H10.75V3C10.75 2.5858 10.4142 2.25001 10 2.25H7.50586V4.38086C7.50586 5.55444 6.55442 6.50581 5.38086 6.50586H3.25V7H2V5.34082C2.00007 5.07901 2.10278 4.82751 2.28613 4.64062L5.56641 1.2998C5.75435 1.10835 6.01102 1.00011 6.2793 1H10ZM3.43359 5.25586H5.38086C5.86407 5.25581 6.25586 4.86408 6.25586 4.38086V2.37988L3.43359 5.25586Z" fill="#6C707E"/>
    <path d="M1 9C1 8.44772 1.44772 8 2 8H14C14.5523 8 15 8.44772 15 9V14C15 14.5523 14.5523 15 14 15H2C1.44772 15 1 14.5523 1 14V9Z" fill="#F2B181"/>
    <g opacity="0.7">
        <path fill-rule="evenodd" clip-rule="evenodd" d="M2.89508 12.5877C3.12439 12.8379 3.33782 13 3.78682 13C4.31317 13 4.49999 12.5877 4.49999 12.2976V9H5.49999V12.5877C5.49999 13.3196 4.8267 14 3.94999 14C3.12899 14 2.64999 13.7626 2.29999 13.3196L2.89508 12.5877Z" fill="#27282E"/>
        <path fill-rule="evenodd" clip-rule="evenodd" d="M6.97277 10.5015C6.97277 10.1331 7.284 10 7.845 10C7.853 10 9 10 9 10V9C9 9 7.894 9 7.86 9C6.778 9 6 9.45917 6 10.45C6 11.3145 6.41956 11.6905 7.47125 11.9161C8.24159 12.0813 8.49616 12.2286 8.49616 12.548C8.49616 12.8674 8.13843 13 7.47125 13C7.45525 13 6.3 13 6.3 13V14C6.3 14 7.46325 14 7.47125 14C9.5 14 9.5 13 9.5 12.548C9.5 11.9161 9.02026 11.4207 8.15869 11.1469C7.29712 10.873 6.97277 10.87 6.97277 10.5015Z" fill="#27282E"/>
        <path fill-rule="evenodd" clip-rule="evenodd" d="M11.9 11.5C12.564 11.5 13 11.3844 13 10.75C13 10.1156 12.557 10 11.9 10H11V11.5H11.9ZM10 9H11.971C13.142 9 14 9.642 14 10.65C14 12.2858 12.971 12.5 11.872 12.5H11V14H10V9Z" fill="#27282E"/>
    </g>
</svg>
