<svg width="12" height="12" viewBox="0 0 12 12" fill="none" xmlns="http://www.w3.org/2000/svg">
<path d="M8.40039 1.00012C9.28377 1.00034 9.99986 1.68879 10 2.53821V5.42883C9.74804 5.28343 9.455 5.20039 9.15039 5.20032C9.09988 5.20032 9.04962 5.20537 9 5.21399V2.53821C8.99986 2.21983 8.73149 1.96127 8.40039 1.96106H6.4043V3.60071C6.40427 4.50331 5.64373 5.23523 4.70508 5.23547H3V9.46106C3 9.77955 3.26843 10.038 3.59961 10.0382H6.02539V10.1691C6.02546 10.4825 6.12362 10.7648 6.28613 11.0001H3.59961C2.77127 10.9999 2.09059 10.3941 2.00879 9.61829L2 9.46106V4.33899C2.00009 4.13782 2.08211 3.9446 2.22852 3.8009L4.85352 1.23059C5.00385 1.08345 5.20931 1.0002 5.42383 1.00012H8.40039ZM3.14648 4.27356H4.70508C5.09145 4.27332 5.40427 3.97227 5.4043 3.60071V2.06165L3.14648 4.27356Z" fill="#6C707E"/>
<path d="M7.875 11C8.04759 11 8.1875 10.8601 8.1875 10.6875C8.1875 10.5149 8.04759 10.375 7.875 10.375C7.70241 10.375 7.5625 10.2351 7.5625 10.0625L7.5625 9.03774C7.5625 8.81383 7.44325 8.61084 7.25611 8.5C7.44325 8.38916 7.5625 8.18617 7.5625 7.96226V6.9375C7.5625 6.76491 7.70241 6.625 7.875 6.625C8.04759 6.625 8.1875 6.48509 8.1875 6.3125C8.1875 6.13991 8.04759 6 7.875 6C7.35723 6 6.9375 6.41973 6.9375 6.9375L6.9375 7.96226L6.21368 8.20354C6.08607 8.24607 6 8.36549 6 8.5C6 8.63451 6.08607 8.75393 6.21368 8.79646L6.9375 9.03774L6.9375 10.0625C6.9375 10.5803 7.35723 11 7.875 11Z" fill="#6C707E"/>
<path d="M9.125 6C8.95241 6 8.8125 6.13991 8.8125 6.3125C8.8125 6.48509 8.95241 6.625 9.125 6.625C9.29759 6.625 9.4375 6.76491 9.4375 6.9375V7.96226C9.4375 8.18617 9.55675 8.38916 9.74389 8.5C9.55675 8.61084 9.4375 8.81383 9.4375 9.03774V10.0625C9.4375 10.2351 9.29759 10.375 9.125 10.375C8.95241 10.375 8.8125 10.5149 8.8125 10.6875C8.8125 10.8601 8.95241 11 9.125 11C9.64277 11 10.0625 10.5803 10.0625 10.0625V9.03774L10.7863 8.79646C10.9139 8.75393 11 8.63451 11 8.5C11 8.36549 10.9139 8.24607 10.7863 8.20354L10.0625 7.96226V6.9375C10.0625 6.41973 9.64277 6 9.125 6Z" fill="#6C707E"/>
</svg>
