<svg width="16" height="16" viewBox="0 0 16 16" fill="none" xmlns="http://www.w3.org/2000/svg">
    <path d="M10 1C11.1046 1.00001 12 1.89544 12 3V7H10.75V3C10.75 2.5858 10.4142 2.25001 10 2.25H7.50586V4.38086C7.50586 5.55444 6.55442 6.50581 5.38086 6.50586H3.25V7H2V5.34082C2.00007 5.07901 2.10278 4.82751 2.28613 4.64062L5.56641 1.2998C5.75435 1.10835 6.01102 1.00011 6.2793 1H10ZM3.43359 5.25586H5.38086C5.86407 5.25581 6.25586 4.86408 6.25586 4.38086V2.37988L3.43359 5.25586Z" fill="#6C707E"/>
    <rect x="1" y="8" width="14" height="7" rx="1" fill="#F2B181"/>
    <g opacity="0.7">
        <path fill-rule="evenodd" clip-rule="evenodd" d="M5.15 12L4.49612 10.4L3.85 12H5.15ZM4.109 9H4.89L7 14H5.9L5.4 13H3.6L3.1 14H2L4.109 9Z" fill="#27282E"/>
        <path fill-rule="evenodd" clip-rule="evenodd" d="M8.97277 10.5015C8.97277 10.1331 9.284 10 9.845 10C9.853 10 11 10 11 10V9C11 9 9.894 9 9.86 9C8.778 9 8 9.45917 8 10.45C8 11.3145 8.41956 11.6905 9.47125 11.9161C10.2416 12.0813 10.4962 12.2286 10.4962 12.548C10.4962 12.8674 10.1384 13 9.47125 13C9.45525 13 8.3 13 8.3 13V14C8.3 14 9.46325 14 9.47125 14C11.5 14 11.5 13 11.5 12.548C11.5 11.9161 11.0203 11.4207 10.1587 11.1469C9.29712 10.873 8.97277 10.87 8.97277 10.5015Z" fill="#27282E"/>
    </g>
</svg>
