<svg width="20" height="20" viewBox="0 0 20 20" fill="none" xmlns="http://www.w3.org/2000/svg">
<path d="M12.5996 1C13.9251 1.00002 15 2.03316 15 3.30762V11H13.5V3.30762C13.5 2.82972 13.0966 2.4424 12.5996 2.44238H9.60742V4.90137C9.60721 6.25532 8.46479 7.35249 7.05664 7.35254H4.5V11H3V6.00879C3.00009 5.70671 3.12374 5.41681 3.34375 5.20117L7.2793 1.3457C7.50474 1.12488 7.81297 1.00022 8.13477 1H12.5996ZM4.7207 5.91016H7.05664C7.63636 5.9101 8.10721 5.45876 8.10742 4.90137V2.5918L4.7207 5.91016Z" fill="#6C707E"/>
<path d="M1 13C1 12.4477 1.44772 12 2 12H18C18.5523 12 19 12.4477 19 13V18C19 18.5523 18.5523 19 18 19H2C1.44772 19 1 18.5523 1 18V13Z" fill="#F2B181"/>
<path fill-rule="evenodd" clip-rule="evenodd" d="M3.00001 16L2.52786 15.6627C2.41619 15.583 2.41619 15.417 2.52786 15.3373L3.00001 15L5.68908 13.2075C5.82199 13.1189 6.00001 13.2141 6.00001 13.3739V13.8943C6.00001 13.9604 5.96732 14.0223 5.91268 14.0595L3.80001 15.5L5.91268 16.9404C5.96732 16.9777 6.00001 17.0396 6.00001 17.1057V17.6265C6.00001 17.7862 5.82197 17.8815 5.68906 17.7929L3.00001 16Z" fill="#231F20" fill-opacity="0.7"/>
<path fill-rule="evenodd" clip-rule="evenodd" d="M7.5 17.1057C7.5 17.0396 7.53269 16.9777 7.58733 16.9405L9.7 15.5L7.58733 14.0596C7.53269 14.0223 7.5 13.9605 7.5 13.8943V13.3738C7.5 13.2141 7.67802 13.1188 7.81094 13.2074L10.5 15L10.9722 15.3373C11.0838 15.417 11.0838 15.583 10.9722 15.6627L10.5 16L7.81094 17.7928C7.67803 17.8814 7.5 17.7861 7.5 17.6264V17.1057Z" fill="#231F20" fill-opacity="0.7"/>
</svg>
