<svg width="20" height="20" viewBox="0 0 20 20" fill="none" xmlns="http://www.w3.org/2000/svg">
  <path d="M12.5 1.25C13.8807 1.25002 15 2.3693 15 3.75V5H13.4375V3.75C13.4375 3.23224 13.0178 2.81252 12.5 2.8125H9.38281V5.47656C9.38255 6.94315 8.19313 8.13249 6.72656 8.13281H4.0625V15C4.0625 15.5178 4.48225 15.9375 5 15.9375H12V17.5H5C3.70545 17.5 2.6415 16.5157 2.51367 15.2549L2.5 15V6.67578C2.50015 6.34866 2.62836 6.03432 2.85742 5.80078L6.95801 1.625C7.19294 1.38568 7.51426 1.25013 7.84961 1.25H12.5ZM4.29199 6.57031H6.72656C7.33019 6.56999 7.82005 6.0802 7.82031 5.47656V2.97461L4.29199 6.57031Z" fill="#6C707E"/>
  <path d="M15.8 11L15.8 13L13.8 13L13.8 11L15.8 11ZM15.8 9L17.8 9L17.8 11L15.8 11L15.8 9ZM15.8 7L15.8 9L13.8 9L13.8 7L15.8 7Z" fill="#6C707E"/>
  <path d="M15.8 15V13H17.8V15H15.8ZM15.8 17H13.8V15H15.8V17ZM15.8 19V17H17.8V19H15.8Z" fill="#6C707E"/>
</svg>
