<svg width="12" height="12" viewBox="0 0 12 12" fill="none" xmlns="http://www.w3.org/2000/svg">
    <path d="M8.40039 1C9.28386 1.00021 10 1.68953 10 2.53906V6H9V2.53906C9 2.22057 8.73157 1.96213 8.40039 1.96191H6.4043V3.60156C6.40403 4.50397 5.64359 5.23511 4.70508 5.23535H3V6H2V4.33984C2.00006 4.13851 2.08192 3.94453 2.22852 3.80078L4.85352 1.23145C5.00387 1.08417 5.2092 1.00008 5.42383 1H8.40039ZM3.14648 4.27441H4.70508C5.0913 4.27418 5.40403 3.97293 5.4043 3.60156V2.06152L3.14648 4.27441Z" fill="#6C707E"/>
    <path d="M1 7.5C1 7.22386 1.22386 7 1.5 7H10.5C10.7761 7 11 7.22386 11 7.5V10.5C11 10.7761 10.7761 11 10.5 11H1.5C1.22386 11 1 10.7761 1 10.5V7.5Z" fill="#A0BDF8"/>
    <path fill-rule="evenodd" clip-rule="evenodd" d="M3.19999 8.1H2.29999V7.5H4.69999V8.1H3.79999V10.5H3.19999V8.1Z" fill="#231F20" fill-opacity="0.7"/>
    <path fill-rule="evenodd" clip-rule="evenodd" d="M5.72958 8.40092C5.72958 8.17983 5.963 8.1 6.38375 8.1C6.38975 8.1 7.25 8.1 7.25 8.1V7.5C7.25 7.5 6.4205 7.5 6.395 7.5C5.5835 7.5 5 7.7755 5 8.37C5 8.88872 5.31467 9.11429 6.10344 9.24965C6.68119 9.34879 6.87212 9.43718 6.87212 9.6288C6.87212 9.82042 6.60382 9.9 6.10344 9.9C6.09144 9.9 5.225 9.9 5.225 9.9V10.5C5.225 10.5 6.09744 10.5 6.10344 10.5C7.625 10.5 7.625 9.9 7.625 9.6288C7.625 9.24965 7.2652 8.95243 6.61902 8.78811C5.97284 8.62379 5.72958 8.622 5.72958 8.40092Z" fill="#231F20" fill-opacity="0.7"/>
</svg>
