<svg width="16" height="16" viewBox="0 0 16 16" fill="none" xmlns="http://www.w3.org/2000/svg">
    <path d="M10 1C11.1046 1.00001 12 1.89544 12 3V7H10.75V3C10.75 2.5858 10.4142 2.25001 10 2.25H7.50586V4.38086C7.50586 5.55444 6.55442 6.50581 5.38086 6.50586H3.25V7H2V5.34082C2.00007 5.07901 2.10278 4.82751 2.28613 4.64062L5.56641 1.2998C5.75435 1.10835 6.01102 1.00011 6.2793 1H10ZM3.43359 5.25586H5.38086C5.86407 5.25581 6.25586 4.86408 6.25586 4.38086V2.37988L3.43359 5.25586Z" fill="#6C707E"/>
    <rect x="1" y="8" width="14" height="7" rx="1" fill="#F2B6BB"/>
    <g opacity="0.7">
        <path fill-rule="evenodd" clip-rule="evenodd" d="M2 11.501C2 10 2.931 9 4.256 9C5.20239 9 5.55 9.311 5.969 9.753L5.4267 10.4271C5.0767 10.0681 4.75 10 4.25 10C3.418 10 3 10.7379 3 11.487C3 12.2361 3.412 13 4.25 13C4.787 13 5.0517 12.8934 5.4267 12.5064L6 13.144C5.544 13.669 5.19733 14 4.225 14C2.949 14 2 13.002 2 11.501Z" fill="#27282E"/>
        <path fill-rule="evenodd" clip-rule="evenodd" d="M7.47277 10.5015C7.47277 10.1331 7.784 10 8.345 10C8.353 10 9.5 10 9.5 10V9C9.5 9 8.394 9 8.36 9C7.278 9 6.5 9.45917 6.5 10.45C6.5 11.3145 6.91956 11.6905 7.97125 11.9161C8.74159 12.0813 8.99616 12.2286 8.99616 12.548C8.99616 12.8674 8.63843 13 7.97125 13C7.95525 13 6.8 13 6.8 13V14C6.8 14 7.96325 14 7.97125 14C10 14 10 13 10 12.548C10 11.9161 9.52026 11.4207 8.65869 11.1469C7.79712 10.873 7.47277 10.87 7.47277 10.5015Z" fill="#27282E"/>
        <path fill-rule="evenodd" clip-rule="evenodd" d="M11.4728 10.5015C11.4728 10.1331 11.784 10 12.345 10C12.353 10 13.5 10 13.5 10V9C13.5 9 12.394 9 12.36 9C11.278 9 10.5 9.45917 10.5 10.45C10.5 11.3145 10.9196 11.6905 11.9713 11.9161C12.7416 12.0813 12.9962 12.2286 12.9962 12.548C12.9962 12.8674 12.6384 13 11.9713 13C11.9553 13 10.8 13 10.8 13V14C10.8 14 11.9633 14 11.9713 14C14 14 14 13 14 12.548C14 11.9161 13.5203 11.4207 12.6587 11.1469C11.7971 10.873 11.4728 10.87 11.4728 10.5015Z" fill="#27282E"/>
    </g>
</svg>
