<svg xmlns="http://www.w3.org/2000/svg" width="16" height="16" viewBox="0 0 16 16"><title>filters</title><g id="Layer_1" data-name="Layer 1"><path d="M0 3.7L11 3.7 11 2.3 0 2.3 0 3.7zM13 0C12.4477153 0 12 .44771525 12 1L12 5C12 5.55228475 12.4477153 6 13 6 13.5522847 6 14 5.55228475 14 5L14 1C14 .44771525 13.5522847 0 13 0zM7 8.3L7 7C7 6.44771525 6.55228475 6 6 6 5.44771525 6 5 6.44771525 5 7L5 11C5 11.5522847 5.44771525 12 6 12 6.55228475 12 7 11.5522847 7 11L7 9.7 14 9.7 14 8.3 7 8.3zM0 9.7L4 9.7 4 8.3 0 8.3 0 9.7z" transform="translate(1 2)"/></g></svg>
