<svg xmlns="http://www.w3.org/2000/svg" width="12" height="12" fill="currentColor" viewBox="0 0 12 12">
  <path fill-rule="evenodd" d="M1.752 1.286C2.13 1.135 2.694 1 3.5 1c.847 0 1.548.28 2.158.525l.028.01C6.32 1.79 6.86 2 7.5 2c.694 0 1.13-.115 1.377-.214a1.341 1.341 0 0 0 .28-.15A.5.5 0 0 1 10 2v6a.5.5 0 0 1-.146.354L9.5 8l.354.354h-.002v.002l-.003.002-.005.005-.014.013c-.01.009-.022.02-.037.031a1.271 1.271 0 0 1-.117.087 2.33 2.33 0 0 1-.428.22C8.87 8.865 8.306 9 7.5 9c-.847 0-1.548-.28-2.158-.525l-.028-.01C4.68 8.21 4.14 8 3.5 8c-.694 0-1.13.115-1.377.214A1.688 1.688 0 0 0 2 8.27v3.23a.5.5 0 0 1-1 0V2a.5.5 0 0 1 .146-.354L1.5 2l-.354-.354h.002v-.002l.003-.002.005-.005.014-.013c.01-.009.022-.02.037-.031.029-.025.068-.054.117-.087a2.33 2.33 0 0 1 .428-.22ZM2 2.269v4.93C2.364 7.085 2.854 7 3.5 7c.847 0 1.548.28 2.158.525l.028.01C6.32 7.79 6.86 8 7.5 8c.694 0 1.13-.115 1.377-.214A2.79 2.79 0 0 0 9 7.731v-4.93C8.636 2.915 8.146 3 7.5 3c-.847 0-1.548-.28-2.158-.525l-.028-.01C4.68 2.21 4.14 2 3.5 2c-.694 0-1.13.115-1.377.214A1.688 1.688 0 0 0 2 2.27Z" clip-rule="evenodd"/>
</svg>
