<svg xmlns="http://www.w3.org/2000/svg" width="16" height="16" fill="currentColor" viewBox="0 0 16 16">
  <path fill-rule="evenodd" d="M3.018 1.085c.498-.2 1.245-.378 2.315-.378 1.121 0 2.05.372 2.864.697l.035.014c.845.338 1.572.622 2.435.622.93 0 1.516-.154 1.851-.288a1.83 1.83 0 0 0 .333-.17.633.633 0 0 0 .052-.037h.002a.625.625 0 0 1 1.053.454v8a.625.625 0 0 1-.183.442l-.442-.442.442.442-.001.001-.001.001-.003.003-.007.007-.017.016a1.883 1.883 0 0 1-.201.154 3.06 3.06 0 0 1-.563.29c-.498.199-1.245.377-2.315.377-1.121 0-2.05-.371-2.864-.697l-.035-.014c-.845-.338-1.572-.622-2.435-.622-.93 0-1.516.155-1.85.289-.076.03-.14.06-.191.086v4.333a.625.625 0 0 1-1.25 0V1.998c0-.165.066-.324.183-.441l.442.442a40.898 40.898 0 0 1-.442-.443h.001l.002-.002.003-.003.006-.006.017-.016.048-.041c.038-.032.089-.07.153-.113.13-.087.314-.19.563-.29Zm.274 1.247v6.655c.486-.157 1.152-.28 2.041-.28 1.121 0 2.05.372 2.864.697l.035.014c.845.338 1.572.622 2.435.622.93 0 1.516-.154 1.851-.288.075-.03.138-.06.19-.086V3.01c-.485.156-1.151.28-2.041.28-1.121 0-2.05-.372-2.864-.698l-.035-.014c-.845-.338-1.572-.622-2.435-.622-.93 0-1.516.155-1.85.289-.076.03-.14.06-.191.086Z" clip-rule="evenodd"/>
</svg>
