<svg xmlns="http://www.w3.org/2000/svg" width="20" height="20" fill="currentColor" viewBox="0 0 20 20">
  <path fill-rule="evenodd" d="M3.545 1.368c.732-.228 1.788-.45 3.122-.45 1.414 0 2.483.49 3.41.915l.036.017c.948.435 1.753.795 2.82.795 1.166 0 1.904-.194 2.326-.363a2.32 2.32 0 0 0 .423-.214.873.873 0 0 0 .07-.051.75.75 0 0 1 1.265.545v10a.75.75 0 0 1-.22.53l-.53-.53.53.531h-.001l-.002.002-.003.004-.009.008a.954.954 0 0 1-.079.07 2.34 2.34 0 0 1-.19.14 3.87 3.87 0 0 1-.697.358c-.619.247-1.548.47-2.882.47-1.414 0-2.483-.49-3.41-.915l-.036-.017c-.949-.434-1.754-.795-2.821-.795-1.166 0-1.903.194-2.326.363a2.32 2.32 0 0 0-.422.214.863.863 0 0 0-.07.051.746.746 0 0 1-.354.188V18.5a.75.75 0 1 1-1.5 0v-16a.75.75 0 0 1 .37-.648l.38.648-.38-.648h.002l.004-.002.007-.004.02-.012.066-.035a3.85 3.85 0 0 1 .233-.113c.198-.09.482-.205.848-.319Zm-.05 1.609A6.37 6.37 0 0 1 3.99 2.8a9.032 9.032 0 0 1 2.676-.382c1.067 0 1.872.36 2.82.795l.037.017c.927.425 1.996.915 3.41.915 1.134 0 1.976-.16 2.583-.361v8.38a2.837 2.837 0 0 1-.258.118c-.422.17-1.16.363-2.325.363-1.068 0-1.873-.36-2.821-.795l-.036-.017c-.927-.425-1.996-.915-3.41-.915-1.335 0-2.264.223-2.883.47a4.439 4.439 0 0 0-.29.128V2.977Z" clip-rule="evenodd"/>
</svg>
