<?xml version="1.0" encoding="utf-8"?>
<!DOCTYPE svg PUBLIC "-//W3C//DTD SVG 1.1//EN" "http://www.w3.org/Graphics/SVG/1.1/DTD/svg11.dtd">
<svg version="1.1" xmlns="http://www.w3.org/2000/svg" xmlns:xlink="http://www.w3.org/1999/xlink" x="0px" y="0px"
	 width="32px" height="32px" viewBox="0 0 32 32" enable-background="new 0 0 32 32">
<g>
	<path d="M25.703,1.855c-1.855,0-2.918-0.262-4.602-1.059C19.863,0.178,19.07,0,17.699,0s-2.211,0.178-3.448,0.797
		c-1.373,0.707-2.921,1.061-4.468,1.061C7.705,1.857,5.671,1.195,3.988,0H0l0.043,32h3.945L3.945,18.75
		c1.814,1.15,3.582,2.652,5.749,2.652c1.815,0,2.92-0.219,4.557-1.016c1.06-0.531,2.255-0.797,3.448-0.797s2.344,0.266,3.402,0.797
		c1.531,0.723,2.547,0.973,4.115,1.012c0.156,0.004,0.318,0.004,0.486,0.004c1.945,0,3.316-0.352,5.043-1.281l0.043-19.635
		C29.062,1.459,27.648,1.855,25.703,1.855z M29.727,7.562c-1.281,0.531-2.699,0.84-4.066,0.84c-0.541,0-1.012-0.035-1.461-0.09
		v6.477c0.482,0.07,0.969,0.115,1.461,0.115c1.367,0,2.785-0.268,4.066-0.842v5.439c-1.461,0.709-2.432,0.93-4.066,0.93
		c-0.488,0-0.977-0.045-1.461-0.088v-5.555c-1.076-0.15-2.119-0.459-3.098-0.949c-1.238-0.572-2.031-0.793-3.402-0.793v5.57
		c-1.371,0-2.654,0.266-3.848,0.885c-1.326,0.619-1.547,0.709-3.007,0.885v-5.531c-0.356,0.031-0.729,0.049-1.15,0.049
		c-2.124,0-3.849-0.531-5.66-1.682L3.988,6.676c1.726,1.107,3.717,1.727,5.706,1.727c0.387,0,0.77-0.023,1.15-0.064V2.785
		c1.325-0.133,2.652-0.484,3.848-1.061c1.105-0.529,1.813-0.707,3.007-0.707v5.527c1.371,0,2.164,0.221,3.402,0.797
		c1.148,0.557,2.045,0.844,3.098,0.971V2.785c0.484,0,0.973,0.047,1.461,0.09c1.812,0,2.387-0.133,4.066-0.75V7.562z"/>
	<path d="M14.293,7.342c-1.104,0.537-2.261,0.865-3.448,0.996v6.518c1.21-0.105,2.141-0.398,3.405-1.016
		c1.238-0.572,2.078-0.793,3.449-0.793V6.545C16.328,6.545,15.488,6.766,14.293,7.342z"/>
</g>
</svg>
