<svg xmlns="http://www.w3.org/2000/svg" width="12" height="12" fill="currentColor" viewBox="0 0 12 12">
  <path d="M7 5.498a.5.5 0 0 0-.5-.5h-4a.5.5 0 0 0-.5.5v4a.5.5 0 0 0 .5.5h4a.5.5 0 0 0 .5-.5v-4Zm-3.495 2.5a.5.5 0 1 1 0 1H3.5a.5.5 0 0 1 0-1h.005Zm2-2a.5.5 0 0 1 0 1H5.5a.5.5 0 0 1 0-1h.005ZM8 9.498a1.5 1.5 0 0 1-1.5 1.5h-4a1.5 1.5 0 0 1-1.5-1.5v-4a1.5 1.5 0 0 1 1.5-1.5h4a1.5 1.5 0 0 1 1.5 1.5v4Z" />
  <path d="M10.852 4.252a.62.62 0 0 0-.155-.409L8.224 1.41a.62.62 0 0 0-.823.002L5.708 3.106A.5.5 0 0 1 5 2.398L6.71.688A1.62 1.62 0 0 1 8.783.576l.116.096.016.015 2.5 2.46.02.021a1.62 1.62 0 0 1 0 2.17l-.018.019-1.75 1.75A.5.5 0 1 1 8.96 6.4l1.736-1.737a.619.619 0 0 0 .156-.41Zm-1.493-.5a.5.5 0 0 1 0 1h-.005a.5.5 0 0 1 0-1h.005Zm-1.5-1.5a.5.5 0 0 1 0 1h-.005a.5.5 0 0 1 0-1h.005Z" class="secondary" />
</svg>
