<svg xmlns="http://www.w3.org/2000/svg" width="16" height="16" fill="currentColor" viewBox="0 0 16 16">
  <g class="frown">
    <path fill-rule="evenodd" d="M5.058 11.442a.625.625 0 0 1 0-.884L5.5 11l-.442-.442.002-.002.001-.001.005-.005.015-.014a2.611 2.611 0 0 1 .208-.18c.138-.11.337-.255.588-.399A4.29 4.29 0 0 1 8 9.375c.89 0 1.622.296 2.123.582a4.603 4.603 0 0 1 .75.536l.046.043.015.014.005.005.002.002s.001.001-.441.443l.442-.442a.625.625 0 0 1-.882.886l-4.118-.002h4.117v.002-.001l-.002-.002a3.363 3.363 0 0 0-.555-.399A3.042 3.042 0 0 0 8 10.626a3.04 3.04 0 0 0-1.502.418 3.357 3.357 0 0 0-.555.398l-.001.001-.002.002a.625.625 0 0 1-.882-.002ZM8 13.75a5.75 5.75 0 1 0 0-11.5 5.75 5.75 0 0 0 0 11.5ZM15 8A7 7 0 1 1 1 8a7 7 0 0 1 14 0ZM7.508 6.529a1 1 0 1 1-2 0 1 1 0 0 1 2 0Zm2.004 1a1 1 0 1 0 0-2 1 1 0 0 0 0 2Z" class="Union" clip-rule="evenodd"/>
  </g>
</svg>
