<?xml version="1.0" encoding="utf-8"?>
<!DOCTYPE svg PUBLIC "-//W3C//DTD SVG 1.1//EN" "http://www.w3.org/Graphics/SVG/1.1/DTD/svg11.dtd">
<svg version="1.1" xmlns="http://www.w3.org/2000/svg" xmlns:xlink="http://www.w3.org/1999/xlink" width="16" height="16" viewBox="0 0 16 16">
	<path d="M8.04254-.00388a8,8,0,1,0,8,8A8,8,0,0,0,8.04254-.00388Zm-4.76,7.3136L5.67,4.92227A1.92989,1.92989,0,1,1,3.2825,7.30972Zm7.07571,5.50537a.49982.49982,0,0,1-.707,0,2.27807,2.27807,0,0,0-3.21729,0,.49995.49995,0,0,1-.707-.707,3.27859,3.27859,0,0,1,4.63135,0A.49982.49982,0,0,1,10.35822,12.81509Zm.59451-4.108a1.92989,1.92989,0,0,1-.53763-3.78485l2.38745,2.38745A1.92891,1.92891,0,0,1,10.95273,8.70712Z"/>
</svg>
