<svg width="16" height="16" viewBox="0 0 16 16" fill="none" xmlns="http://www.w3.org/2000/svg">
<path fill-rule="evenodd" clip-rule="evenodd" d="M7.24999 3.69995C5.31019 3.69995 3.62593 4.25727 2.54076 5.17449L1.96797 5.65864L0.999664 4.51305L1.57246 4.0289C2.99467 2.82679 5.05341 2.19995 7.24999 2.19995C11.1918 2.19995 14.3081 4.45874 14.3081 7.59673C14.3081 9.76307 12.753 11.4159 10.4522 11.7407L10.4487 11.7412L10.4026 11.7475L10.3992 11.7479C10.1375 11.7824 9.86696 11.8 9.5887 11.8C6.8354 11.8 4.72419 9.91565 4.72419 7.35479L4.72419 7.33954C4.72418 7.24651 4.72417 7.14423 4.72715 7.0404C4.45485 7.16663 4.2208 7.32227 4.02564 7.49755C3.51368 7.95738 3.20806 8.60548 3.20806 9.40318C3.20806 11.3449 5.23445 13.3 8.74999 13.3C10.6898 13.3 12.3741 12.7426 13.4592 11.8254L14.032 11.3413L15.0003 12.4869L14.4275 12.971C13.0053 14.1731 10.9466 14.8 8.74999 14.8C4.8066 14.8 1.70806 12.5238 1.70806 9.40318C1.70806 8.19127 2.18612 7.13355 3.02332 6.3816C3.64628 5.82208 4.4614 5.43829 5.40824 5.28068L5.41551 5.27947L5.51869 5.26338C5.80513 5.22145 6.10309 5.19995 6.41128 5.19995C9.18005 5.19995 11.2919 7.08364 11.2919 9.64511C11.2919 9.75234 11.2905 9.85406 11.2867 9.95437C12.2751 9.49193 12.8081 8.61274 12.8081 7.59673C12.8081 5.64403 10.7723 3.69995 7.24999 3.69995ZM9.75442 10.2972C9.69988 10.299 9.64463 10.3 9.5887 10.3C7.52996 10.3 6.22419 8.95941 6.22419 7.35479C6.22419 7.09707 6.22766 6.96554 6.24012 6.89078L6.2716 6.70188C6.31765 6.7006 6.36421 6.69995 6.41128 6.69995C8.48901 6.69995 9.79193 8.04308 9.79193 9.64511C9.79193 9.89195 9.7832 10.0789 9.75442 10.2972Z" fill="currentColor"/>
</svg>
