<svg xmlns="http://www.w3.org/2000/svg" width="16" height="16" fill="currentColor" viewBox="0 0 16 16">
    <path class="secondary" d="M13.75 9a.75.75 0 0 0-.75-.75H9a.75.75 0 0 0-.75.75v2c0 .414.336.75.75.75V13a2 2 0 0 1-2-2V9a2 2 0 0 1 2-2h4a2 2 0 0 1 2 2v6l-3-2H9v-1.25h3.379l1.371.914V9Z"/>
    <path d="M6.002 11.957C3.592 11.375 2 9.849 2 7.904 2 6.03 3.68 4.616 5.922 4.616c1.671 0 2.868.65 3.056 1.48h1.014c-.16-1.453-1.833-2.433-4.119-2.433C3.05 3.663 1 5.438 1 7.904 1 10.398 3.006 12.351 6.002 13v-1.043Z"/>
    <path d="M6.002 10.23c-1.23-.44-2-1.281-2-2.358 0-1.447 1.468-2.187 3.275-1.546l-.142.435a3.042 3.042 0 0 0-.323.304c-1.07-.278-1.81.042-1.81.807 0 .526.37.994 1 1.312v1.046ZM13 6.096C12.852 3.14 9.85.999 5.76.999c-1.081 0-2.404.23-3.179.576-.387.164-.58.361-.58.641 0 .362.354.592.903.362.775-.346 1.969-.56 2.856-.56 3.503 0 6.081 1.699 6.238 4.078H13Z"/>
</svg>
