<svg xmlns="http://www.w3.org/2000/svg" width="20" height="20" fill="currentColor" viewBox="0 0 20 20">
    <path class="secondary" d="M17.5 11.286c0-.592-.48-1.072-1.071-1.072h-5.144c-.591 0-1.071.48-1.071 1.072v2.57c0 .592.48 1.073 1.071 1.073v1.5l-.262-.014a2.572 2.572 0 0 1-2.31-2.558v-2.571a2.572 2.572 0 0 1 2.572-2.572h5.144l.262.014A2.572 2.572 0 0 1 19 11.286V19l-3.857-2.57h-3.858v-1.5h4.312l1.903 1.268v-4.912Z"/>
    <path d="M7.431 15.088c-3.098-.748-5.145-2.71-5.145-5.21 0-2.41 2.157-4.228 5.041-4.228 2.15 0 3.69.835 3.93 1.903h1.303c-.205-1.868-2.356-3.129-5.295-3.129C3.635 4.424 1 6.707 1 9.878c0 3.206 2.58 5.716 6.432 6.55v-1.34Z"/>
    <path d="M7.431 12.868c-1.58-.565-2.573-1.648-2.573-3.032 0-1.86 1.888-2.812 4.212-1.987l-.183.559a3.91 3.91 0 0 0-.415.39c-1.374-.357-2.327.055-2.327 1.038 0 .676.476 1.278 1.286 1.687v1.345Zm8.997-5.315C16.238 3.752 12.378 1 7.12 1c-1.39 0-3.092.296-4.087.74-.498.21-.747.465-.747.824 0 .465.456.76 1.162.465.995-.444 2.53-.719 3.672-.719 4.504 0 7.819 2.184 8.02 5.243h1.288Z"/>
</svg>
