<svg width="16" height="16" viewBox="0 0 16 16" fill="none" xmlns="http://www.w3.org/2000/svg">
<path fill-rule="evenodd" clip-rule="evenodd" d="M3.61837 3.11437C4.27481 2.82717 5.5543 2.59351 6.63466 2.59351C8.74222 2.59351 10.475 3.15002 11.6475 3.99721C12.8044 4.83317 13.4065 5.93321 13.4065 7.14885C13.4065 8.98432 11.8679 10.5339 9.24123 10.5339C8.07846 10.5339 7.18192 10.2739 6.61757 9.91629C6.08079 9.57618 5.8946 9.19573 5.89168 8.82455C5.90028 8.54004 5.97668 8.35973 6.06413 8.24109C6.15454 8.11842 6.29029 8.01654 6.48264 7.94546C6.88708 7.79601 7.47426 7.81287 8.0293 8.0183L8.54996 6.61156C7.74867 6.31499 6.78274 6.23543 5.96272 6.53845C5.54283 6.69361 5.1485 6.95519 4.85668 7.35111C4.56287 7.74973 4.4056 8.24043 4.39187 8.79715L4.39164 8.80639V8.81564C4.39164 9.81272 4.94062 10.6295 5.81475 11.1834C6.68194 11.7328 7.87889 12.0339 9.24123 12.0339C12.4711 12.0339 14.9065 10.0214 14.9065 7.14885C14.9065 5.37582 14.0074 3.8518 12.526 2.78139C11.0489 1.71409 8.99135 1.09351 6.63466 1.09351C5.41855 1.09351 3.91903 1.34555 3.01714 1.74013L3.61837 3.11437ZM2.59353 8.85114C2.59353 7.01568 4.13206 5.46609 6.75878 5.46609C7.92123 5.46609 8.82001 5.72603 9.3864 6.08178C9.92569 6.42051 10.1038 6.79178 10.1083 7.13543C10.0842 7.66276 9.86908 7.88956 9.59951 8.01102C9.26102 8.16354 8.71413 8.19477 8.0298 8.01954L7.6577 9.47265C8.51853 9.69308 9.44843 9.72432 10.2157 9.37862C11.0493 9.00302 11.5673 8.23657 11.6078 7.17754L11.6084 7.16322V7.14889C11.6084 6.16731 11.0571 5.35979 10.1842 4.81155C9.31757 4.2672 8.1212 3.96609 6.75878 3.96609C3.52891 3.96609 1.09353 5.97864 1.09353 8.85114C1.09353 10.6242 1.99262 12.1482 3.47401 13.2186C4.9511 14.2859 7.00866 14.9065 9.36535 14.9065C10.5815 14.9065 12.081 14.6544 12.9829 14.2599L12.3816 12.8856C11.7252 13.1728 10.4457 13.4065 9.36535 13.4065C7.25779 13.4065 5.52499 12.85 4.35252 12.0028C3.1956 11.1668 2.59353 10.0668 2.59353 8.85114Z" fill="currentColor"/>
</svg>
