<svg xmlns="http://www.w3.org/2000/svg" width="12" height="12" fill="currentColor" viewBox="0 0 12 12">
    <path class="secondary" d="M10 6.714a.428.428 0 0 0-.428-.428H6.714a.429.429 0 0 0-.428.428v1.43a.43.43 0 0 0 .428.428v1l-.146-.008A1.429 1.429 0 0 1 5.293 8.29l-.007-.146v-1.43c0-.74.562-1.347 1.282-1.42l.146-.008h2.858l.145.008c.72.073 1.282.68 1.282 1.42V11L8.857 9.572H6.714v-1H9.16l.84.56V6.713Z"/>
    <path d="M4.573 8.827C2.853 8.41 1.715 7.32 1.715 5.932c0-1.339 1.198-2.349 2.8-2.349 1.195 0 2.05.464 2.184 1.057h.724c-.114-1.037-1.31-1.738-2.942-1.738C2.464 2.902 1 4.171 1 5.932c0 1.781 1.433 3.176 3.573 3.64v-.745Z"/>
    <path d="M4.573 7.593c-.878-.314-1.43-.915-1.43-1.684 0-1.034 1.05-1.562 2.34-1.104l-.1.31c-.083.067-.16.14-.232.218-.763-.2-1.292.03-1.292.576 0 .375.264.71.714.937v.747ZM9.571 4.64C9.466 2.53 7.321 1 4.401 1c-.773 0-1.718.164-2.271.411-.277.117-.415.258-.415.458 0 .258.253.423.645.258.553-.246 1.406-.399 2.04-.399 2.502 0 4.344 1.213 4.456 2.912h.715Z"/>
</svg>
