<?xml version="1.0" encoding="utf-8"?>
<!DOCTYPE svg PUBLIC "-//W3C//DTD SVG 1.1//EN" "http://www.w3.org/Graphics/SVG/1.1/DTD/svg11.dtd">
<svg version="1.1" xmlns="http://www.w3.org/2000/svg" xmlns:xlink="http://www.w3.org/1999/xlink" x="0px" y="0px"
	 width="14.1px" height="14.1px" viewBox="1.95 0.15 14.1 14.1" enable-background="new 1.95 0.15 14.1 14.1">
<g>
	<path d="M7.02,9.36C7.17,8.52,7.86,7.83,8.7,7.74l1.56-4.44l0.6,0.21L9.36,7.8c0.781,0.18,1.38,0.81,1.5,1.59h4.861
		C15.93,8.7,16.05,7.98,16.05,7.23C16.05,3.3,12.9,0.15,9,0.15c-3.9,0-7.05,3.15-7.05,7.05c0,0.75,0.12,1.5,0.33,2.16H7.02z
		 M13.92,6.9h0.96v0.6h-0.96V6.9z M12.93,2.85l0.45,0.45l-0.659,0.66L12.27,3.51L12.93,2.85z M8.7,1.35h0.6v0.96H8.7V1.35z
		 M5.07,2.85l0.66,0.66L5.28,3.96L4.62,3.3L5.07,2.85z M4.08,6.9v0.6H3.15V6.9H4.08z"/>
	<path d="M7.65,9.36h2.55c-0.15-0.57-0.66-1.02-1.29-1.02C8.31,8.37,7.77,8.79,7.65,9.36z"/>
	<path d="M10.891,9.99h-3.9H2.52C3.6,12.51,6.09,14.25,9,14.25s5.4-1.74,6.48-4.26H10.891z"/>
</g>
</svg>
