<svg xmlns="http://www.w3.org/2000/svg" width="16" height="16" fill="currentColor" viewBox="0 0 16 16">
  <path fill-rule="evenodd" d="M5.765 2.297a.608.608 0 0 0-.434.184.654.654 0 0 0-.185.458c0 .174.068.338.185.458a.608.608 0 0 0 .434.184h1.388a3.893 3.893 0 0 0-.165-.345c-.308-.57-.705-.94-1.223-.94ZM7.38 4.83v1.917H2.684a5.192 5.192 0 0 1-.381-.008L2.3 6.725a5.19 5.19 0 0 1-.006-.365V5.22a5.192 5.192 0 0 1 .008-.381l.015-.002a5.19 5.19 0 0 1 .366-.006H7.38ZM4.007 3.58a1.912 1.912 0 0 1 .432-1.976 1.86 1.86 0 0 1 1.326-.558c1.14 0 1.844.778 2.24 1.447.395-.669 1.1-1.447 2.24-1.447.5 0 .976.202 1.326.558a1.904 1.904 0 0 1 .432 1.976h1.343c.16 0 .316 0 .447.01.145.012.314.04.485.127.237.12.43.313.55.55.087.17.114.34.126.485.011.131.01.286.01.446v1.18c0 .16.001.316-.01.448-.012.144-.04.314-.126.484a1.25 1.25 0 0 1-.55.55c-.17.087-.34.115-.485.127l-.095.006v4.345c0 .334 0 .622-.02.859-.02.25-.065.497-.186.736a1.9 1.9 0 0 1-.827.827 1.927 1.927 0 0 1-.736.187c-.237.019-.525.019-.86.019H4.94c-.334 0-.622 0-.859-.02a1.927 1.927 0 0 1-.736-.186 1.892 1.892 0 0 1-.827-.827 1.926 1.926 0 0 1-.187-.736c-.02-.237-.02-.525-.02-.86V7.995a2.596 2.596 0 0 1-.094-.006 1.272 1.272 0 0 1-.485-.127 1.259 1.259 0 0 1-.55-.55 1.272 1.272 0 0 1-.126-.484 5.813 5.813 0 0 1-.011-.447V5.2c0-.16 0-.316.01-.447.012-.145.04-.314.127-.485.12-.237.313-.43.55-.55.17-.087.34-.115.485-.126.131-.011.286-.011.446-.011h1.344Zm-.445 4.417v4.317c0 .365 0 .601.015.78.014.174.038.239.055.271.061.121.16.22.28.28.033.018.098.042.27.056.18.014.417.015.782.015H7.38V7.998H3.562Zm5.068 0v5.719h2.416c.365 0 .601 0 .781-.015.173-.014.238-.038.27-.055a.643.643 0 0 0 .281-.28c.017-.033.04-.098.055-.271.014-.18.015-.416.015-.781V7.998H8.63Zm4.696-1.25a5.193 5.193 0 0 0 .381-.008l.001-.015a5.15 5.15 0 0 0 .007-.365V5.22c0-.188 0-.291-.007-.366l-.001-.015-.016-.002a5.193 5.193 0 0 0-.365-.006H8.63v1.917h4.696ZM10.245 3.58a.61.61 0 0 0 .434-.184.654.654 0 0 0 0-.916.608.608 0 0 0-.434-.184c-.518 0-.915.368-1.224.939a3.892 3.892 0 0 0-.164.345h1.388Z" clip-rule="evenodd"/>
</svg>
