<?xml version="1.0" encoding="utf-8"?>
<!-- Generator: Adobe Illustrator 22.0.1, SVG Export Plug-In . SVG Version: 6.00 Build 0)  -->
<svg version="1.1" id="Layer_1" xmlns="http://www.w3.org/2000/svg" xmlns:xlink="http://www.w3.org/1999/xlink" x="0px" y="0px"
	 viewBox="0 0 16 16" style="enable-background:new 0 0 16 16;" xml:space="preserve">
<title>gift_full</title>
<path d="M12.1,4C13,3.1,13,1.6,12,0.6c-0.9-0.9-2.4-0.9-3.4,0.1C8.3,1.1,8.1,1.6,8,2c-0.1-0.5-0.3-1-0.7-1.3C6.4-0.2,4.9-0.3,4,0.6
	S3,3.1,3.9,4H0v3h7V4h2v3h7V4H12.1z M4.9,3.2c-0.4-0.4-0.4-1.1,0-1.5c0.2-0.2,0.5-0.3,0.8-0.3c0.3,0,0.6,0.1,0.8,0.3
	C6.8,2.3,7,3,7,3.8C6.3,3.7,5.5,3.5,4.9,3.2z M11.1,3.2C10.5,3.5,9.7,3.7,9,3.8C9,3,9.3,2.3,9.6,1.6c0.2-0.2,0.5-0.3,0.8-0.3
	c0.6,0,1.1,0.5,1.1,1.1C11.4,2.7,11.3,2.9,11.1,3.2L11.1,3.2z M1,16h6V8H1V16z M9,16h6V8H9V16z"/>
</svg>
