<svg xmlns="http://www.w3.org/2000/svg" width="20" height="20" fill="currentColor" viewBox="0 0 20 20">
  <path fill-rule="evenodd" d="M7.206 2.836a.791.791 0 0 0-.564.24.848.848 0 0 0-.241.594.85.85 0 0 0 .24.594c.153.155.356.24.565.24h1.781a4.952 4.952 0 0 0-.224-.478c-.387-.716-.892-1.19-1.557-1.19Zm2.05 3.167v2.46H3.354a6.504 6.504 0 0 1-.503-.013 6.512 6.512 0 0 1-.013-.504V6.52a6.512 6.512 0 0 1 .013-.503 6.504 6.504 0 0 1 .504-.013h5.901Zm-4.203-1.5a2.36 2.36 0 0 1 .518-2.479 2.292 2.292 0 0 1 1.635-.688c1.434 0 2.313.998 2.8 1.84.487-.842 1.366-1.84 2.8-1.84.616 0 1.204.25 1.635.688a2.349 2.349 0 0 1 .518 2.48h1.723c.2 0 .394 0 .557.013.178.014.386.048.594.154.29.148.526.384.674.674.106.208.14.416.155.594.013.163.013.356.013.557V7.97c0 .2 0 .394-.013.557a1.56 1.56 0 0 1-.155.594c-.148.29-.384.526-.674.674-.208.106-.415.14-.594.155a3.417 3.417 0 0 1-.148.008v5.46c0 .42 0 .778-.024 1.073-.025.31-.081.615-.23.908-.224.44-.581.796-1.02 1.02-.293.15-.598.205-.909.23-.294.024-.653.024-1.072.024H6.175c-.418 0-.776 0-1.071-.024-.31-.025-.616-.08-.909-.23a2.334 2.334 0 0 1-1.02-1.02c-.149-.293-.204-.598-.23-.908a14.159 14.159 0 0 1-.024-1.072V9.958a3.414 3.414 0 0 1-.148-.008 1.56 1.56 0 0 1-.594-.155 1.542 1.542 0 0 1-.674-.674 1.56 1.56 0 0 1-.154-.594c-.014-.163-.014-.356-.014-.557V6.496c0-.2 0-.394.014-.557a1.56 1.56 0 0 1 .154-.594c.148-.29.384-.526.674-.674a1.56 1.56 0 0 1 .594-.154 7.24 7.24 0 0 1 .557-.014h1.723Zm-.632 5.46v5.426c0 .456 0 .753.02.98.017.217.048.303.071.35.08.156.208.284.364.364.046.023.132.054.35.071.226.019.523.02.98.02h3.05V9.962H4.421Zm6.335 0v7.21h3.051c.456 0 .753 0 .98-.019.217-.017.303-.048.349-.071a.834.834 0 0 0 .364-.365c.024-.046.054-.132.072-.35.019-.226.02-.523.02-.979V9.963h-4.836Zm5.902-1.5a6.503 6.503 0 0 0 .504-.013 6.517 6.517 0 0 0 .013-.504V6.52a6.517 6.517 0 0 0-.013-.503 6.503 6.503 0 0 0-.504-.013h-5.902v2.459h5.902Zm-3.852-3.96a.79.79 0 0 0 .565-.239.848.848 0 0 0 .24-.594.848.848 0 0 0-.24-.595.791.791 0 0 0-.565-.24c-.665 0-1.17.475-1.557 1.191-.086.16-.16.323-.224.477h1.781Z" clip-rule="evenodd"/>
</svg>
