<svg xmlns="http://www.w3.org/2000/svg" width="12" height="12" fill="currentColor" viewBox="0 0 12 12">
  <path fill-rule="evenodd" d="M4.324 1.754a.425.425 0 0 0-.303.129.46.46 0 0 0 0 .643.425.425 0 0 0 .303.128h.993a2.834 2.834 0 0 0-.103-.212c-.23-.425-.52-.688-.89-.688Zm1.18 1.9V5.03H2.013c-.13 0-.204 0-.257-.004a4.623 4.623 0 0 1-.004-.256v-.855c0-.13 0-.204.004-.257.053-.003.128-.004.257-.004h3.49Zm-2.543-1a1.466 1.466 0 0 1 .346-1.472A1.425 1.425 0 0 1 4.324.754c.845 0 1.376.56 1.68 1.056.304-.495.834-1.056 1.68-1.056.383 0 .748.155 1.016.428a1.46 1.46 0 0 1 .346 1.472h.964c.12 0 .238 0 .338.009.11.009.241.03.374.098a.975.975 0 0 1 .427.426.981.981 0 0 1 .098.375c.008.1.008.217.008.337v.886c0 .12 0 .238-.008.338a.985.985 0 0 1-.098.375.975.975 0 0 1-.426.426.985.985 0 0 1-.418.1v3.231c0 .25 0 .467-.015.646-.015.19-.05.38-.143.564a1.45 1.45 0 0 1-.634.633 1.476 1.476 0 0 1-.564.144c-.179.014-.396.014-.646.014H3.704c-.25 0-.467 0-.646-.014a1.47 1.47 0 0 1-.563-.144 1.45 1.45 0 0 1-.634-.633 1.476 1.476 0 0 1-.144-.564 8.516 8.516 0 0 1-.014-.646v-3.23l-.043-.003a.985.985 0 0 1-.375-.098.975.975 0 0 1-.426-.426.985.985 0 0 1-.098-.375 4.376 4.376 0 0 1-.009-.338V3.9c0-.12 0-.237.009-.337a.985.985 0 0 1 .098-.375.975.975 0 0 1 .426-.426.985.985 0 0 1 .375-.098c.1-.009.218-.009.337-.009h.964ZM2.703 6.03v3.206c0 .274 0 .45.011.583.01.128.028.172.038.192a.45.45 0 0 0 .197.196.52.52 0 0 0 .19.038c.134.011.31.011.584.011h1.78V6.03h-2.8Zm3.8 0v4.226h1.781c.275 0 .45 0 .584-.01a.52.52 0 0 0 .19-.039.45.45 0 0 0 .198-.196.522.522 0 0 0 .037-.192 7.89 7.89 0 0 0 .012-.583V6.03H6.504Zm3.492-1c.129 0 .203 0 .256-.004.004-.053.004-.127.004-.256v-.855c0-.13 0-.204-.004-.257a4.626 4.626 0 0 0-.256-.004H6.504V5.03h3.49ZM7.684 2.654a.425.425 0 0 0 .303-.128.46.46 0 0 0 0-.643.425.425 0 0 0-.303-.13c-.371 0-.66.264-.89.689a2.834 2.834 0 0 0-.104.212h.994Z" clip-rule="evenodd"/>
</svg>
