<svg id="Layer_1" data-name="Layer 1" xmlns="http://www.w3.org/2000/svg" viewBox="0 0 16 16"><title>Git</title><path d="M15,5.6,10.4,1A3.39,3.39,0,0,0,5.78.86L7.66,2.74A1.16,1.16,0,0,1,8,2.67,1.3,1.3,0,0,1,9.33,4a1.23,1.23,0,0,1-.08.38L11.7,6.78a1.17,1.17,0,0,1,.37-.08A1.3,1.3,0,1,1,10.77,8a1.17,1.17,0,0,1,.08-.37L8.6,5.38v5.23a1.28,1.28,0,0,1,.73,1.15,1.3,1.3,0,0,1-2.6,0,1.27,1.27,0,0,1,.67-1.11V5.07A1.28,1.28,0,0,1,6.73,4a1.17,1.17,0,0,1,.08-.37l-1.9-1.9L1,5.6a3.39,3.39,0,0,0,0,4.8L5.6,15a3.39,3.39,0,0,0,4.8,0L15,10.4A3.39,3.39,0,0,0,15,5.6Z"/></svg>