<svg xmlns="http://www.w3.org/2000/svg" width="16" height="16" viewBox="0 0 16 16"><title>git</title><g id="Layer_1" data-name="Layer 1"><path d="M15,5.6,10.4,1A3.4,3.4,0,0,0,5.78.86L7.66,2.74a1.25,1.25,0,0,1,1.67,1.2V4a1.23,1.23,0,0,1-.08.38l2.45,2.4a1.17,1.17,0,0,1,.37-.08A1.3,1.3,0,1,1,10.77,8h0a1.17,1.17,0,0,1,.08-.37L8.6,5.38v5.23a1.28,1.28,0,0,1,.73,1.15,1.3,1.3,0,0,1-2.6,0,1.27,1.27,0,0,1,.67-1.11V5.07A1.27,1.27,0,0,1,6.73,4a1.17,1.17,0,0,1,.08-.37l-1.9-1.9L1,5.6a3.38,3.38,0,0,0,0,4.79H1L5.6,15a3.38,3.38,0,0,0,4.79,0h0L15,10.4a3.38,3.38,0,0,0,0-4.79Z"/></g></svg>
