<svg xmlns="http://www.w3.org/2000/svg" width="16" height="16" fill="currentColor" viewBox="0 0 16 16">
  <g class="git">
    <path fill-rule="evenodd" d="m14.128 5.89-4.027-4.03a2.966 2.966 0 0 0-4.045-.123l1.646 1.647A1.02 1.02 0 0 1 8 3.323a1.139 1.139 0 0 1 1.164 1.112v.053a1.087 1.087 0 0 1-.07.333l2.145 2.103c.104-.04.213-.064.324-.07a1.139 1.139 0 1 1-1.138 1.14c.005-.112.03-.221.07-.325l-1.97-1.971v4.582c.389.185.638.577.64 1.008a1.139 1.139 0 1 1-2.277 0c.003-.407.228-.78.587-.973V5.426a1.122 1.122 0 0 1-.587-.938c.005-.11.03-.22.07-.324L5.295 2.5 1.872 5.89a2.973 2.973 0 0 0-.006 4.201l.006.005 4.027 4.031a2.967 2.967 0 0 0 4.198.005l.004-.005 4.027-4.03a2.973 2.973 0 0 0 .006-4.201l-.006-.006Z" class="Fill 1" clip-rule="evenodd"/>
  </g>
</svg>
