<svg id="Layer_1" data-name="Layer 1" xmlns="http://www.w3.org/2000/svg" viewBox="0 0 16 16"><defs><style>.cls-1{fill:#181616;fill-rule:evenodd;}</style></defs><title>GitHub</title><path class="cls-1" d="M8,0A8,8,0,0,0,5.47,15.59c.4.07.55-.17.55-.38s0-.7,0-1.37c-2.23.49-2.7-1.07-2.7-1.07a2.12,2.12,0,0,0-.89-1.17c-.72-.49.06-.48.06-.48a1.65,1.65,0,0,1,1.22.82A1.72,1.72,0,0,0,6,12.61a1.68,1.68,0,0,1,.51-1.07c-1.78-.21-3.64-.89-3.64-4a3.07,3.07,0,0,1,.82-2.14A2.88,2.88,0,0,1,3.8,3.32s.67-.22,2.2.82a7.54,7.54,0,0,1,4,0c1.53-1,2.2-.82,2.2-.82a2.88,2.88,0,0,1,.08,2.12,3.07,3.07,0,0,1,.82,2.14c0,3.08-1.87,3.75-3.65,3.95A1.89,1.89,0,0,1,10,13c0,1.07,0,1.93,0,2.2s.15.46.55.38A8,8,0,0,0,8,0Z"/></svg>