<svg xmlns="http://www.w3.org/2000/svg" width="20" height="20" fill="currentColor" viewBox="0 0 20 20">
  <path fill-rule="evenodd" d="M7.474 6.784a1.714 1.714 0 1 0 0-3.429 1.714 1.714 0 0 0 0 3.429ZM6.326 9.643a8.598 8.598 0 0 1 1.144-.074h.004c.406 0 .788.026 1.145.074 3.666.495 4.865 3.342 5.256 5.053.16.704-.408 1.301-1.131 1.301H2.204c-.722 0-1.29-.595-1.131-1.3.388-1.71 1.583-4.562 5.253-5.054Zm.127-1.525c.32.107.662.165 1.017.166h.004a3.21 3.21 0 0 0 3.214-3.214 3.214 3.214 0 1 0-4.235 3.048Zm4.676 4.333c-.683-.732-1.775-1.382-3.659-1.382s-2.975.65-3.656 1.382c-.571.614-.923 1.364-1.136 2.046h9.59c-.213-.682-.566-1.431-1.14-2.046Zm4.047 3.546h2.693c.724 0 1.292-.597 1.131-1.301-.39-1.71-1.59-4.558-5.255-5.053A8.59 8.59 0 0 0 12.6 9.57h-.004c-.068 0-.134 0-.2.002a7.143 7.143 0 0 1 1.573 1.632c1.076.227 1.789.715 2.286 1.248.573.614.926 1.364 1.14 2.046h-2.03a2.44 2.44 0 0 1-.19 1.5Zm-3.98-8.035a3.186 3.186 0 0 0 1.4.322h.004a3.211 3.211 0 0 0 3.214-3.214 3.214 3.214 0 0 0-4.617-2.893c.307.394.552.839.722 1.319a1.714 1.714 0 1 1 0 3.147c-.17.48-.415.925-.722 1.319Z" clip-rule="evenodd"/>
</svg>
