<svg xmlns="http://www.w3.org/2000/svg" width="12" height="12" fill="currentColor" viewBox="0 0 12 12">
  <path fill-rule="evenodd" d="M4.56 4.637a.805.805 0 1 0 0-1.61.805.805 0 0 0 0 1.61ZM3.579 6.46a4.54 4.54 0 0 1 .98-.1h.003c.36 0 .687.036.981.101 1.796.398 2.406 1.871 2.613 2.778.09.395-.229.73-.635.73h-5.92c-.405 0-.725-.334-.635-.73.205-.906.814-2.382 2.612-2.779Zm.125-1.039c.255.138.546.216.855.216h.003a1.805 1.805 0 1 0-.858-.216Zm2.795 2.664c-.353-.378-.924-.726-1.94-.726s-1.586.348-1.937.726a2.704 2.704 0 0 0-.532.884h4.943a2.71 2.71 0 0 0-.534-.884ZM9.06 9.97h1.339c.406 0 .725-.336.635-.731-.207-.907-.818-2.38-2.614-2.778a4.434 4.434 0 0 0-.836-.1c.425.355.742.77.978 1.182.362.137.621.335.814.542.247.264.417.578.534.884h-.79l.01.047c.08.354.045.677-.07.953ZM6.8 5.52a1.8 1.8 0 0 0 .637.116h.002A1.805 1.805 0 1 0 6.8 2.143c.203.269.358.575.455.906a.808.808 0 0 1 .99.783.805.805 0 0 1-.99.784 2.796 2.796 0 0 1-.455.905Z" clip-rule="evenodd"/>
</svg>
