<svg xmlns="http://www.w3.org/2000/svg" width="16" height="16" fill="currentColor" viewBox="0 0 16 16">
  <path fill-rule="evenodd" d="M6.006 6.25a1.25 1.25 0 1 0 0-2.5 1.25 1.25 0 0 0 0 2.5ZM4.912 8.588A6.512 6.512 0 0 1 6.003 8.5h.003c.394 0 .757.031 1.093.088 2.694.46 3.59 2.6 3.886 3.9.125.548-.317 1.012-.88 1.012H1.907c-.561 0-1.004-.463-.88-1.01.295-1.3 1.188-3.444 3.885-3.902Zm.128-1.281c.297.124.622.193.963.193h.003a2.5 2.5 0 1 0-.966-.194Zm3.748 3.491c-.515-.552-1.342-1.048-2.785-1.048s-2.269.496-2.782 1.048c-.405.435-.665.96-.83 1.452h7.23c-.166-.492-.428-1.017-.833-1.452Zm3.021 2.702h2.283c.563 0 1.005-.464.88-1.012-.297-1.3-1.193-3.44-3.887-3.9A6.51 6.51 0 0 0 9.993 8.5H9.99c-.146 0-.288.004-.426.013.326.224.615.477.87.751.169.181.32.369.457.56.906.157 1.488.549 1.884.974.405.435.667.96.833 1.452h-1.652l.004.015a1.75 1.75 0 0 1-.151 1.235ZM8.752 7.17a2.492 2.492 0 0 0 1.238.33h.003a2.5 2.5 0 1 0-1.241-4.67c.258.325.46.698.589 1.104a1.25 1.25 0 1 1 0 2.133c-.13.405-.331.778-.59 1.104Z" clip-rule="evenodd"/>
</svg>
