<svg xmlns="http://www.w3.org/2000/svg" width="16" height="16" viewBox="0 0 16 16"><title>group</title><g id="Layer_1" data-name="Layer 1"><path d="M12.74,9H3.26A3.16,3.16,0,0,0,2,9.26a3.28,3.28,0,0,0-2,3V16H16V12.26A3.27,3.27,0,0,0,12.74,9Zm1.86,5.6H5.4V12.26A1.87,1.87,0,0,1,7.26,10.4h5.48a1.87,1.87,0,0,1,1.86,1.86ZM5.67,8A3.46,3.46,0,0,0,8,7.09,3.46,3.46,0,0,0,10.33,8a3.5,3.5,0,0,0,0-7A3.46,3.46,0,0,0,8,1.91,3.46,3.46,0,0,0,5.67,1a3.5,3.5,0,0,0,0,7Zm4.66-5.6a2.1,2.1,0,1,1-2.1,2.1A2.1,2.1,0,0,1,10.33,2.4Z"/></g></svg>
