<svg xmlns="http://www.w3.org/2000/svg" width="16" height="16" fill="currentColor" viewBox="0 0 16 16">
  <path fill-rule="evenodd" d="M13.75 8a5.75 5.75 0 1 1-11.5 0 5.75 5.75 0 0 1 11.5 0ZM8 15A7 7 0 1 0 8 1a7 7 0 0 0 0 14Zm.067-9.867c.277 0 .519.09.725.267.205.178.308.4.308.667 0 .244-.075.46-.225.65a4.17 4.17 0 0 1-.508.533 4.403 4.403 0 0 0-.675.733 1.49 1.49 0 0 0-.292.9c0 .156.058.286.175.392a.59.59 0 0 0 .408.158.594.594 0 0 0 .425-.166.768.768 0 0 0 .225-.417c.045-.233.145-.442.3-.625.156-.183.322-.358.5-.525.256-.245.475-.511.659-.8a1.77 1.77 0 0 0 .275-.967c0-.566-.231-1.03-.692-1.391A2.534 2.534 0 0 0 8.067 4c-.423 0-.825.089-1.209.267-.383.177-.675.45-.875.816a.601.601 0 0 0-.075.425c.028.15.103.264.225.342a.664.664 0 0 0 .9-.2 1.287 1.287 0 0 1 1.034-.517ZM7.967 12a.8.8 0 0 0 .591-.242.805.805 0 0 0 .242-.591.801.801 0 0 0-.242-.592.805.805 0 0 0-.591-.242.801.801 0 0 0-.592.242.805.805 0 0 0-.242.591c0 .234.08.431.242.592a.805.805 0 0 0 .592.242Z" clip-rule="evenodd"/>
</svg>
