<svg xmlns="http://www.w3.org/2000/svg" width="20" height="20" fill="currentColor" viewBox="0 0 20 20">
  <path fill-rule="evenodd" d="M17.5 10a7.5 7.5 0 1 1-15 0 7.5 7.5 0 0 1 15 0ZM10 19a9 9 0 1 0 0-18 9 9 0 0 0 0 18Zm.086-12.686c.357 0 .668.114.932.343.264.229.396.514.396.857 0 .314-.096.593-.289.836a5.36 5.36 0 0 1-.653.686c-.329.285-.618.6-.868.942-.25.343-.375.729-.375 1.158 0 .2.075.367.225.503.15.136.325.204.525.204a.763.763 0 0 0 .546-.215.987.987 0 0 0 .29-.535c.057-.3.185-.568.385-.804.2-.236.415-.46.643-.675.329-.314.61-.657.847-1.028a2.28 2.28 0 0 0 .353-1.243c0-.729-.296-1.325-.89-1.79-.592-.464-1.281-.696-2.067-.696a3.65 3.65 0 0 0-1.554.343 2.396 2.396 0 0 0-1.125 1.05.773.773 0 0 0-.096.546c.036.193.132.34.29.44.2.114.406.15.62.107a.853.853 0 0 0 .536-.365 1.662 1.662 0 0 1 1.329-.664Zm-.129 8.829c.3 0 .554-.104.761-.311.207-.207.31-.46.31-.76s-.103-.554-.31-.761a1.034 1.034 0 0 0-.76-.311c-.3 0-.554.103-.761.31-.207.208-.311.461-.311.761s.104.554.31.761c.208.207.461.31.761.31Z" clip-rule="evenodd"/>
</svg>
