<svg xmlns="http://www.w3.org/2000/svg" width="12" height="12" fill="currentColor" viewBox="0 0 12 12">
  <path fill-rule="evenodd" d="M10 6a4 4 0 1 1-8 0 4 4 0 0 1 8 0Zm-4 5A5 5 0 1 0 6 1a5 5 0 0 0 0 10Zm.048-7.048c.198 0 .37.064.518.19.146.128.22.286.22.477 0 .175-.054.33-.16.464a2.979 2.979 0 0 1-.364.381 3.16 3.16 0 0 0-.482.524c-.14.19-.209.405-.209.643 0 .111.042.204.125.28a.425.425 0 0 0 .292.113c.12 0 .22-.04.304-.12a.549.549 0 0 0 .16-.297.956.956 0 0 1 .215-.446c.11-.131.23-.256.357-.375.182-.175.34-.365.47-.572a1.26 1.26 0 0 0 .197-.69c0-.405-.165-.736-.495-.994a1.81 1.81 0 0 0-1.148-.387c-.302 0-.59.063-.863.19a1.331 1.331 0 0 0-.625.584.43.43 0 0 0-.054.303c.02.107.073.189.16.244a.474.474 0 0 0 .643-.143.873.873 0 0 1 .328-.273.93.93 0 0 1 .41-.096Zm-.072 4.905a.575.575 0 0 0 .423-.173.575.575 0 0 0 .172-.422.575.575 0 0 0-.172-.423.575.575 0 0 0-.423-.172.575.575 0 0 0-.422.172.575.575 0 0 0-.173.423c0 .166.058.307.173.422a.575.575 0 0 0 .422.173Z" clip-rule="evenodd"/>
</svg>
