<?xml version="1.0" encoding="UTF-8"?>
<svg width="47px" height="47px" viewBox="0 0 47 47" version="1.1" xmlns="http://www.w3.org/2000/svg">
    <title>history</title>
    <g stroke="none" stroke-width="1">
        <g transform="translate(-1.000000, -1.000000)">
            <g>
                <g>
                    <path d="M40.0083377,12.1447713 L38.0765126,13.7657661 C36.6299571,14.9795702 36.9735771,16.1807141 38.8486869,16.4446704 L45.1876663,17.3369983 C46.1233543,17.4687137 46.8990103,16.8128364 46.9315954,15.8736677 L47.1535766,9.47604017 C47.2193691,7.57983754 46.098108,7.03484811 44.6494577,8.25040971 L42.5861383,9.98173989 C34.3703829,0.190583314 19.7728971,-1.08653126 9.98173989,7.12922451 C0.190583314,15.3449805 -1.08653126,29.9424669 7.12922451,39.7336234 C15.3449805,49.52478 29.9424669,50.8018954 39.7336234,42.5861383 C43.1424583,39.7257857 45.6244851,35.9975554 46.9415949,31.7870194 C47.2190177,30.9001577 46.7249674,29.9563183 45.8381057,29.6788954 C44.9512423,29.4014726 44.0074029,29.8955229 43.72998,30.7823863 C42.6046183,34.3799417 40.4860097,37.5620126 37.5705926,40.0083377 C29.203116,47.0294846 16.7281714,45.9380691 9.70702491,37.5705926 C2.6858784,29.203116 3.77729451,16.7281714 12.1447713,9.70702491 C20.512248,2.6858784 32.9871926,3.77729451 40.0083377,12.1447713 L40.0083377,12.1447713 Z M14.6697391,18.6370011 L13.4689128,19.8378274 C13.1310417,20.1756994 13.1330997,20.7255549 13.4749313,21.0673869 L24.3611846,31.9536394 C24.7023806,32.2948354 25.2587417,32.2916606 25.5855926,31.964808 L34.0698171,23.4805834 C34.4048451,23.1455571 34.4169874,22.6145143 34.0646674,22.2621943 L32.8638411,21.061368 C32.5259709,20.723496 31.9758394,20.7258309 31.6568829,21.0447857 L24.9789737,27.7226966 L15.8881286,18.6318514 C15.5531023,18.2968251 15.0220593,18.2846811 14.6697391,18.6370011 L14.6697391,18.6370011 Z"></path>
                </g>
            </g>
        </g>
    </g>
</svg>