<svg xmlns="http://www.w3.org/2000/svg" width="12" height="12" fill="none" viewBox="0 0 12 12">
  <path stroke="currentColor" stroke-linecap="round" stroke-linejoin="round" d="M4.554 8.925h2.892M3.396 1.5h5.208c.27 0 .405 0 .508.05a.46.46 0 0 1 .21.196c.053.096.053.222.053.474v.934c0 .22 0 .33-.027.433a.868.868 0 0 1-.115.26c-.06.091-.143.17-.31.325L7.51 5.49c-.191.178-.287.267-.322.37a.422.422 0 0 0 0 .278c.035.103.13.192.322.37l1.413 1.32c.167.155.25.233.31.324a.84.84 0 0 1 .115.26c.027.103.027.213.027.433v.934c0 .252 0 .378-.053.474a.468.468 0 0 1-.21.197c-.103.049-.238.049-.508.049H3.396c-.27 0-.405 0-.508-.049a.468.468 0 0 1-.21-.197c-.053-.096-.053-.222-.053-.474v-.934c0-.22 0-.33.027-.433a.868.868 0 0 1 .115-.26c.06-.091.143-.17.31-.325L4.49 6.51c.191-.178.287-.267.322-.37a.422.422 0 0 0 0-.278c-.035-.103-.13-.192-.322-.37L3.077 4.17c-.167-.155-.25-.233-.31-.324a.868.868 0 0 1-.115-.26c-.027-.103-.027-.213-.027-.433V2.22c0-.252 0-.378.053-.474a.467.467 0 0 1 .21-.197c.103-.049.238-.049.508-.049Z"/>
</svg>
