<svg xmlns="http://www.w3.org/2000/svg" width="20" height="20" fill="currentColor" viewBox="0 0 20 20">
  <path fill-rule="evenodd" d="M5.906 1h8.188c.19 0 .375 0 .532.014.171.015.372.051.572.163.28.155.504.401.643.7.1.214.133.427.146.611.013.169.013.369.013.577v1.798c0 .337 0 .625-.061.904a2.54 2.54 0 0 1-.264.697c-.139.246-.327.451-.545.689l-.043.047-2.21 2.411a6.49 6.49 0 0 0-.303.344.734.734 0 0 0-.03.04v.01a.743.743 0 0 0 .03.04c.058.075.145.172.303.344l2.21 2.41.043.048c.218.238.406.443.544.69.122.215.211.45.265.696.061.279.061.567.061.904v1.798c0 .208 0 .408-.013.577a1.721 1.721 0 0 1-.146.61c-.14.3-.363.546-.643.701-.2.112-.4.148-.572.163-.157.014-.341.014-.532.014H5.906c-.19 0-.375 0-.531-.014a1.406 1.406 0 0 1-.573-.163 1.544 1.544 0 0 1-.644-.7 1.72 1.72 0 0 1-.145-.611C4 17.343 4 17.143 4 16.935v-1.798c0-.337 0-.625.061-.904.054-.246.143-.48.265-.697.138-.246.326-.451.544-.689l.043-.047 2.21-2.411c.158-.172.245-.268.303-.344a.75.75 0 0 0 .03-.04v-.01a.74.74 0 0 0-.03-.04 6.535 6.535 0 0 0-.303-.344l-2.21-2.41a53.649 53.649 0 0 0-.043-.048c-.218-.238-.406-.443-.544-.689a2.537 2.537 0 0 1-.265-.697C4 5.488 4 5.2 4 4.863V3.065c0-.208 0-.408.013-.577.013-.184.046-.397.145-.61.14-.3.364-.546.644-.701.2-.112.4-.148.573-.163C5.53 1 5.715 1 5.906 1Zm5.261 8.51c.068-.227.184-.404.294-.546.101-.13.231-.271.366-.419l2.226-2.429c.285-.31.342-.38.38-.45a.925.925 0 0 0 .097-.254c.018-.081.023-.177.023-.615V3.09c0-.243 0-.379-.008-.478a.926.926 0 0 0-.005-.051 5.669 5.669 0 0 0-.47-.012H5.93a5.668 5.668 0 0 0-.47.012 7.397 7.397 0 0 0-.013.53v1.706c0 .438.005.534.023.615.02.09.052.176.096.255.04.07.096.139.38.45l2.227 2.428c.135.148.265.29.366.42.11.141.226.318.294.546.095.318.095.66 0 .978a1.649 1.649 0 0 1-.294.547c-.101.13-.231.271-.366.419l-2.226 2.429c-.285.31-.342.38-.38.45a.925.925 0 0 0-.097.254c-.018.081-.023.177-.023.615v1.707a7.397 7.397 0 0 0 .013.53l.035.003c.088.008.211.009.435.009h8.14a5.674 5.674 0 0 0 .47-.013.937.937 0 0 0 .005-.05c.007-.1.008-.236.008-.48v-1.706c0-.438-.005-.534-.023-.615a.925.925 0 0 0-.096-.254c-.04-.07-.096-.14-.38-.45l-2.227-2.43a7.321 7.321 0 0 1-.366-.418 1.648 1.648 0 0 1-.294-.547 1.72 1.72 0 0 1 0-.978ZM4.806 2.224l.636.34Zm2.21 13.124c0-.428.323-.774.723-.774h4.522c.4 0 .724.346.724.774 0 .427-.324.774-.724.774H7.74c-.4 0-.724-.347-.724-.774Z" clip-rule="evenodd"/>
</svg>
