<?xml version="1.0" encoding="utf-8"?>
<!-- Generator: Adobe Illustrator 22.0.1, SVG Export Plug-In . SVG Version: 6.00 Build 0)  -->
<svg version="1.1" id="Layer_1" xmlns="http://www.w3.org/2000/svg" xmlns:xlink="http://www.w3.org/1999/xlink" x="0px" y="0px"
	 viewBox="0 0 16 14" style="enable-background:new 0 0 16 14;" xml:space="preserve">
<title>hourglass</title>
<path d="M12.2,4.2V1.7H13V0H3v1.7h0.8v2.5c0,0.9,0.6,1.7,1.4,2.1L6.7,7L5.2,7.7C4.4,8.1,3.8,8.9,3.8,9.8v2.5H3V14h10v-1.7h-0.8V9.8
	c0-0.9-0.6-1.7-1.4-2.1L9.4,7l1.4-0.7C11.6,5.9,12.2,5.1,12.2,4.2z M10.7,1.7V3H5.3V1.7L10.7,1.7z M10,8.9c0.5,0.2,0.8,0.5,0.8,1
	v2.5H5.3V9.8c0-0.5,0.3-0.7,0.8-1L8,8L10,8.9z"/>
</svg>
