<svg xmlns="http://www.w3.org/2000/svg" width="20" height="20" viewBox="0 0 20 20"><g><path d="M3,17v2H17V17A7,7,0,0,0,3,17Zm7-5.4A5.4,5.4,0,0,1,15.4,17v.4H4.6V17A5.4,5.4,0,0,1,10,11.6Zm1.24-1.72a7.48,7.48,0,0,0,1-.24l.16-.06a8.64,8.64,0,0,0,.88-.38l0,0a6.79,6.79,0,0,0,.85-.54l.13-.1A6.59,6.59,0,0,0,15,7.87l.06-.06A6.91,6.91,0,0,0,15.71,7l0,0a8.16,8.16,0,0,0,.53-.9L16.32,6a6.42,6.42,0,0,0,.38-1h0A7,7,0,0,0,17,3V1H3V3a7,7,0,0,0,.3,2h0a6.42,6.42,0,0,0,.38,1l0,.11a8.16,8.16,0,0,0,.53.9l0,0a6.91,6.91,0,0,0,.64.79L5,7.87a6.59,6.59,0,0,0,.74.66l.13.1a6.79,6.79,0,0,0,.85.54l0,0a8.64,8.64,0,0,0,.88.38l.16.06a7.48,7.48,0,0,0,1,.24l.2,0A7.18,7.18,0,0,0,10,10a7.18,7.18,0,0,0,1-.09ZM5,5A5.32,5.32,0,0,1,4.6,3V2.6H15.4V3A5.32,5.32,0,0,1,15,5Z"/></g></svg>