<svg id="Layer_1" data-name="Layer 1" xmlns="http://www.w3.org/2000/svg" width="16" height="16" viewBox="0 0 16 16">
  <title>hourglass</title>
  <path d="M12.246,5.158v-2.47H13V1H3.04964V2.68794h.75411V5.16087a2.43919,2.43919,0,0,0,1.44218,2.1047l1.41584.73954-1.41584.73954a2.43938,2.43938,0,0,0-1.44218,2.1047v2.473H3.04964V15H13V13.32235h-.754v-2.473a2.43932,2.43932,0,0,0-1.44226-2.1047L9.38786,8.0051l1.41584-.73954A2.4385,2.4385,0,0,0,12.246,5.158Zm-1.50823-2.47V4.04889H5.312V2.68794ZM9.97041,9.875c.47958.24889.76782.52177.76732.97288v2.47447H5.312v-2.473c-.00049-.451.28775-.724.76724-.97288L8,8.992Z"/>
</svg>
