<svg xmlns="http://www.w3.org/2000/svg" width="16" height="16" fill="none" viewBox="0 0 16 16">
  <path stroke="currentColor" stroke-linecap="round" stroke-linejoin="round" stroke-width="1.25" d="M6.13 12.148h3.75M4.63 1.628h6.75c.35 0 .525 0 .659.07a.632.632 0 0 1 .273.279c.068.136.068.315.068.672V3.97c0 .312 0 .468-.035.615a1.29 1.29 0 0 1-.15.368c-.077.13-.185.24-.4.46l-1.834 1.87c-.248.252-.371.378-.418.524a.65.65 0 0 0 0 .394c.047.145.17.272.418.524l1.832 1.869c.216.22.324.33.402.46.068.113.119.238.15.368.034.147.034.303.034.614v1.323c0 .357 0 .536-.068.672a.632.632 0 0 1-.273.278c-.134.07-.31.07-.66.07H4.63c-.35 0-.524 0-.658-.07a.631.631 0 0 1-.273-.278c-.068-.136-.068-.315-.068-.672v-1.323c0-.311 0-.467.034-.614a1.32 1.32 0 0 1 .15-.369c.077-.128.185-.239.402-.46l1.832-1.868c.247-.252.371-.379.417-.524a.65.65 0 0 0 0-.394c-.046-.146-.17-.272-.417-.524l-1.832-1.87c-.217-.22-.325-.33-.402-.459a1.29 1.29 0 0 1-.15-.368c-.034-.147-.034-.303-.034-.615V2.65c0-.357 0-.536.068-.672a.631.631 0 0 1 .273-.279c.134-.07.309-.07.659-.07Z"/>
</svg>
