<svg xmlns="http://www.w3.org/2000/svg" width="16" height="16" fill="currentColor" viewBox="0 0 16 16">
  <path fill-rule="evenodd" d="M11.343 2.24H4.657c-.66 0-1.081.001-1.4.027-.305.025-.405.066-.446.087-.197.1-.357.26-.457.457-.02.04-.062.141-.087.446-.026.319-.027.74-.027 1.4V8l.894-.886a1.857 1.857 0 0 1 2.558-.053l7.287 6.644a.71.71 0 0 0 .21-.059c.197-.1.357-.26.457-.457.02-.04.062-.141.087-.446.026-.319.027-.74.027-1.4V4.657c0-.66-.001-1.081-.027-1.4-.025-.305-.066-.405-.087-.446a1.04 1.04 0 0 0-.457-.457c-.04-.02-.141-.062-.446-.087-.319-.026-.74-.027-1.4-.027ZM2.24 11.343V10.01l1.9-1.882a.429.429 0 0 1 .59-.012l6.189 5.643H4.657c-.66 0-1.081-.001-1.4-.027-.305-.025-.405-.066-.446-.087a1.04 1.04 0 0 1-.457-.457c-.02-.04-.062-.141-.087-.446-.026-.319-.027-.74-.027-1.4Zm-.99-9.095C1 2.737 1 3.377 1 4.658v6.685c0 1.28 0 1.92.25 2.409.218.43.568.78.998.999.489.249 1.129.249 2.41.249h6.685c1.28 0 1.92 0 2.409-.25.43-.218.78-.568.999-.998.249-.489.249-1.129.249-2.41V4.658c0-1.28 0-1.92-.25-2.409a2.278 2.278 0 0 0-.998-.999C13.263 1 12.623 1 11.342 1H4.658c-1.28 0-1.92 0-2.409.25-.43.218-.78.568-.999.998Zm8.036 3.466a1 1 0 1 1 2 0 1 1 0 0 1-2 0Zm1-2.428a2.429 2.429 0 1 0 0 4.857 2.429 2.429 0 0 0 0-4.857Z" clip-rule="evenodd"/>
</svg>
