<?xml version="1.0" encoding="utf-8"?>
<!DOCTYPE svg PUBLIC "-//W3C//DTD SVG 1.1//EN" "http://www.w3.org/Graphics/SVG/1.1/DTD/svg11.dtd">
<svg version="1.1" xmlns="http://www.w3.org/2000/svg" xmlns:xlink="http://www.w3.org/1999/xlink" x="0px" y="0px"
	   width="72px" height="32px" viewBox="0 0 72 32" enable-background="new 0 0 72 32">
  <g>
	  <path d="M15.36,0.805 C11.46,0.805 7.5,2.305 4.5,5.245 C-1.5,11.184 -1.5,20.845 4.5,26.784 C10.5,32.665 20.28,32.665 26.28,26.784 L33.54,19.585 C34.32,18.805 33.18,17.665 32.4,18.444 L25.139,25.644 C19.74,30.924 11.039,30.924 5.639,25.644 C0.24,20.304 0.24,11.724 5.639,6.384 C10.979,1.044 19.74,1.044 25.139,6.384 L35.459,16.584 L45.719,26.783 C51.719,32.664 61.499,32.664 67.499,26.783 C73.499,20.844 73.499,11.183 67.499,5.244 C64.499,2.304 60.539,0.804 56.639,0.804 C52.679,0.804 48.719,2.304 45.719,5.244 L36,14.905 L26.28,5.245 C23.28,2.305 19.32,0.805 15.36,0.805 L15.36,0.805 L15.36,0.805 Z M56.64,2.425 C60.18,2.425 63.661,3.745 66.36,6.385 C71.76,11.725 71.76,20.305 66.36,25.645 C60.961,30.925 52.26,30.925 46.86,25.645 L37.14,15.985 L46.86,6.385 C49.56,3.745 53.1,2.425 56.64,2.425 L56.64,2.425 L56.64,2.425 Z"></path>
  </g>
</svg>