<svg xmlns="http://www.w3.org/2000/svg" width="20" height="20" fill="currentColor" viewBox="0 0 20 20">
  <path fill-rule="evenodd" d="M10 17.25a7.25 7.25 0 1 0 0-14.5 7.25 7.25 0 0 0 0 14.5ZM18.75 10a8.75 8.75 0 1 1-17.5 0 8.75 8.75 0 0 1 17.5 0Z" clip-rule="evenodd"/>
  <path d="M8.032 14.812a.707.707 0 0 0 .496.188h3.204a.69.69 0 0 0 .496-.188.657.657 0 0 0 .205-.496.638.638 0 0 0-.205-.478.672.672 0 0 0-.496-.197h-.76v-4.12c0-.273-.066-.49-.197-.649-.13-.16-.322-.24-.572-.24H8.682a.7.7 0 0 0-.505.197.647.647 0 0 0-.205.487c0 .2.069.365.205.496a.718.718 0 0 0 .505.188h.743v3.641h-.897a.69.69 0 0 0-.496.197.638.638 0 0 0-.205.478c0 .2.069.365.205.496Zm1.077-7.64c.228.222.498.333.812.333.319 0 .59-.111.811-.333.223-.228.334-.496.334-.804 0-.324-.111-.598-.334-.82a1.105 1.105 0 0 0-.811-.333c-.314 0-.584.11-.812.333a1.115 1.115 0 0 0-.333.82c0 .308.11.576.333.804Z"/>
</svg>
