<svg xmlns="http://www.w3.org/2000/svg" width="20" height="20" fill="currentColor" viewBox="0 0 20 20">
  <path fill-rule="evenodd" d="M18.75 10a8.75 8.75 0 1 1-17.5 0 8.75 8.75 0 0 1 17.5 0ZM9.92 7.505c-.313 0-.583-.111-.811-.333a1.113 1.113 0 0 1-.333-.804c0-.324.11-.598.333-.82.228-.222.498-.333.812-.333.319 0 .59.11.812.333.222.222.333.496.333.82 0 .308-.111.576-.334.804a1.104 1.104 0 0 1-.811.333ZM8.529 15a.707.707 0 0 1-.496-.188.657.657 0 0 1-.205-.496.64.64 0 0 1 .205-.478.69.69 0 0 1 .496-.197h.897V10h-.743a.718.718 0 0 1-.504-.188.657.657 0 0 1-.205-.496c0-.193.068-.356.205-.487a.7.7 0 0 1 .504-.196h1.52c.251 0 .442.08.573.239.131.16.197.376.197.65v4.12h.76c.2 0 .365.065.496.196.137.13.205.29.205.478 0 .2-.068.365-.205.496a.688.688 0 0 1-.496.188H8.528Z" clip-rule="evenodd"/>
</svg>
