<svg xmlns="http://www.w3.org/2000/svg" width="16" height="16" fill="currentColor" viewBox="0 0 16 16">
  <path fill-rule="evenodd" d="M15 8A7 7 0 1 1 1 8a7 7 0 0 1 14 0ZM7.937 6.004a.899.899 0 0 1-.65-.267.89.89 0 0 1-.266-.642c0-.26.088-.479.266-.657a.899.899 0 0 1 .65-.266.89.89 0 0 1 .65.266.892.892 0 0 1 .266.657.89.89 0 0 1-.267.642.884.884 0 0 1-.65.267ZM6.822 12a.566.566 0 0 1-.396-.15.526.526 0 0 1-.164-.397.51.51 0 0 1 .164-.383.552.552 0 0 1 .396-.157h.718V8h-.595a.575.575 0 0 1-.403-.15.526.526 0 0 1-.164-.397.52.52 0 0 1 .164-.39.56.56 0 0 1 .403-.157h1.217c.2 0 .353.064.458.192.105.127.157.3.157.52v3.295h.609c.16 0 .292.052.396.157a.51.51 0 0 1 .164.383c0 .16-.054.292-.164.397a.55.55 0 0 1-.396.15H6.822Z" clip-rule="evenodd"/>
</svg>
