<svg xmlns="http://www.w3.org/2000/svg" width="16" height="16" fill="currentColor" viewBox="0 0 16 16">
  <path fill-rule="evenodd" d="M8 13.75a5.75 5.75 0 1 0 0-11.5 5.75 5.75 0 0 0 0 11.5ZM15 8A7 7 0 1 1 1 8a7 7 0 0 1 14 0Z" clip-rule="evenodd"/>
  <path d="M6.426 11.85c.11.1.241.15.396.15h2.564a.55.55 0 0 0 .396-.15.526.526 0 0 0 .164-.397.51.51 0 0 0-.164-.383.538.538 0 0 0-.396-.157h-.609V7.617c0-.219-.052-.392-.157-.52-.105-.127-.257-.19-.458-.19H6.945a.56.56 0 0 0-.403.156.518.518 0 0 0-.164.39c0 .16.055.292.164.397.11.1.244.15.403.15h.595v2.913h-.718a.552.552 0 0 0-.396.157.51.51 0 0 0-.164.383c0 .16.054.292.164.397Zm.861-6.113a.899.899 0 0 0 .65.267.884.884 0 0 0 .649-.267.89.89 0 0 0 .267-.642.892.892 0 0 0-.267-.657.884.884 0 0 0-.65-.266.899.899 0 0 0-.649.266.892.892 0 0 0-.266.657c0 .246.088.46.266.642Z"/>
</svg>
