<svg xmlns="http://www.w3.org/2000/svg" width="12" height="12" fill="currentColor" viewBox="0 0 12 12">
  <path fill-rule="evenodd" d="M11 6A5 5 0 1 1 1 6a5 5 0 0 1 10 0ZM5.952 4.503a.674.674 0 0 1-.487-.2.668.668 0 0 1-.2-.482c0-.195.067-.359.2-.492.137-.133.3-.2.487-.2.192 0 .354.067.487.2.134.133.2.297.2.492a.668.668 0 0 1-.2.482.663.663 0 0 1-.487.2ZM5.117 9a.424.424 0 0 1-.298-.113.394.394 0 0 1-.123-.297.414.414 0 0 1 .42-.405h.539V6h-.446a.431.431 0 0 1-.303-.113.394.394 0 0 1-.123-.297c0-.116.041-.214.123-.292a.42.42 0 0 1 .303-.118h.913c.15 0 .264.048.343.143a.596.596 0 0 1 .118.39v2.472h.456c.12 0 .22.04.298.118a.383.383 0 0 1 .123.287c0 .12-.041.219-.123.297A.413.413 0 0 1 7.039 9H5.117Z" clip-rule="evenodd"/>
</svg>
