<svg xmlns="http://www.w3.org/2000/svg" width="12" height="12" fill="currentColor" viewBox="0 0 12 12">
  <path fill-rule="evenodd" d="M6 10.25a4.25 4.25 0 1 0 0-8.5 4.25 4.25 0 0 0 0 8.5ZM11.25 6A5.25 5.25 0 1 1 .75 6a5.25 5.25 0 0 1 10.5 0Z" clip-rule="evenodd"/>
  <path d="M4.82 8.887A.424.424 0 0 0 5.116 9h1.922c.12 0 .22-.038.298-.113a.394.394 0 0 0 .123-.297.383.383 0 0 0-.123-.287.403.403 0 0 0-.298-.118h-.456V5.713a.596.596 0 0 0-.118-.39c-.079-.095-.193-.143-.343-.143h-.913a.42.42 0 0 0-.303.118.388.388 0 0 0-.123.292c0 .12.041.219.123.297A.431.431 0 0 0 5.21 6h.446v2.185h-.538a.414.414 0 0 0-.42.405c0 .12.04.219.122.297Zm.645-4.584c.137.133.3.2.487.2a.663.663 0 0 0 .487-.2.668.668 0 0 0 .2-.482.669.669 0 0 0-.2-.492.663.663 0 0 0-.487-.2.674.674 0 0 0-.487.2.669.669 0 0 0-.2.492.67.67 0 0 0 .2.482Z"/>
</svg>
