<svg xmlns="http://www.w3.org/2000/svg" width="16" height="16" fill="currentColor" viewBox="0 0 16 16">
  <path d="M7.89 3.2a.8.8 0 1 0 0 1.6.8.8 0 0 0 0-1.6Z"/>
  <path fill-rule="evenodd" d="M8.088.846a.613.613 0 0 0-.464 0L2.272 3.034a.613.613 0 0 0-.29.888l1.633 2.665h.395a1.533 1.533 0 0 1-.005.036v.008a.468.468 0 0 0-.007.065 3.857 3.857 0 0 0 2.905 3.731c.625.16 1.384.139 1.923 0a3.857 3.857 0 0 0 2.906-3.731c0-.02-.002-.04-.006-.069l-.002-.007-.005-.042.386-.002 1.627-2.654a.613.613 0 0 0-.29-.888L8.087.846ZM5.186 6.919c0-.043.014-.08.036-.11a1381.943 1381.943 0 0 0 5.333-.009l.002.006s-.002.002-.002.065c0 1.611-1.053 2.462-2.664 2.462-1.612 0-2.705-.804-2.705-2.414Zm2.615-4.79-.026.01-4.133 1.59c-.22.09-.306.213-.182.414l.982 1.447.497.003c.41.002.987.006 1.706.005.93-.001 1.931.002 2.824.006.648.002 1.239.004 1.704.004l1.062-1.44c.124-.201.026-.372-.194-.46L8.055 2.092c-.085-.035-.17 0-.254.035ZM8 11.2c-3.616 0-4.549 2.202-4.79 3.339-.076.362.28.661.729.661h8.122c.449 0 .805-.299.729-.661C12.549 13.402 11.616 11.2 8 11.2Zm2.826 2.105c.223.216.389.457.512.695H4.662c.123-.238.289-.479.512-.695.46-.444 1.282-.905 2.826-.905s2.367.46 2.826.905Z" clip-rule="evenodd"/>
</svg>
