<svg xmlns="http://www.w3.org/2000/svg" width="12" height="12" fill="currentColor" viewBox="0 0 12 12">
  <path fill-rule="evenodd" d="M6.066.526a.46.46 0 0 0-.348 0L1.704 2.167a.46.46 0 0 0-.218.666l1.225 1.999h.297l-.004.027v.006a.35.35 0 0 0-.005.049c0 1.35.927 2.476 2.179 2.798.468.12 1.037.104 1.442 0A2.893 2.893 0 0 0 8.8 4.914a.36.36 0 0 0-.006-.052v-.006l-.005-.03.29-.002 1.22-1.99a.46.46 0 0 0-.218-.667L6.066.526ZM3.89 5.08c0-.032.01-.06.026-.082 1.69 0 2.63-.003 3.576-.006l.424-.001.002.004s-.002.002-.002.05c0 1.207-.79 1.845-1.998 1.845-1.209 0-2.028-.602-2.028-1.81Zm1.96-3.593-.019.008-3.1 1.193c-.164.066-.229.16-.136.31l.737 1.085.373.002c.307.002.74.005 1.28.004.697 0 1.447.002 2.117.004.485.002.929.004 1.278.004l.797-1.08c.093-.151.019-.279-.146-.346l-2.99-1.21c-.063-.027-.127 0-.19.026Zm.068.804a.6.6 0 1 0 0 1.2.6.6 0 0 0 0-1.2ZM8.12 9.579c.168.162.292.342.384.521H3.497a1.97 1.97 0 0 1 .384-.521C4.225 9.245 4.84 8.9 6 8.9c1.158 0 1.775.345 2.12.679ZM6 8c-2.712 0-3.412 1.652-3.592 2.504-.058.272.21.496.546.496h6.092c.336 0 .604-.224.546-.496C9.412 9.652 8.712 8 6 8Z" clip-rule="evenodd"/>
</svg>
