<svg xmlns="http://www.w3.org/2000/svg" width="16" height="16" viewBox="0 0 16 16"><g><path d="M9.68,11.31h-.5a4.75,4.75,0,0,0,3.58-4.6c0-.07,0-.13,0-.2L15,2.86,8,0,1,2.86,3.25,6.52a1.37,1.37,0,0,0,0,.19,4.75,4.75,0,0,0,3.58,4.6H6.29A4.08,4.08,0,0,0,2,15.11V16H14v-.87A4.08,4.08,0,0,0,9.68,11.31ZM8,3.4a.6.6,0,1,1-.6.6A.6.6,0,0,1,8,3.4ZM7.1,14.58H3.47a2.89,2.89,0,0,1,2.82-1.87H7.1ZM4.63,6.71a.28.28,0,0,1,0-.09h6.71s0,.06,0,.09a3.37,3.37,0,1,1-6.73,0ZM8.9,14.58V12.71h.78a2.89,2.89,0,0,1,2.82,1.87Z"/></g></svg>