<svg xmlns="http://www.w3.org/2000/svg" width="20" height="20" fill="currentColor" viewBox="0 0 20 20">
  <path fill-rule="evenodd" d="M10.11 1.057a.767.767 0 0 0-.58 0L2.84 3.792a.767.767 0 0 0-.363 1.11l2.042 3.331h.494a1.927 1.927 0 0 1-.006.046l-.002.01a.585.585 0 0 0-.007.08c0 2.252 1.546 4.128 3.631 4.665.782.2 1.73.173 2.404 0 2.085-.537 3.632-2.413 3.632-4.664a.61.61 0 0 0-.008-.086l-.002-.01-.007-.051.483-.002 2.034-3.318a.767.767 0 0 0-.364-1.11l-6.69-2.736ZM6.484 8.648c0-.053.017-.1.044-.136a1728.94 1728.94 0 0 0 6.666-.012c.008.023 0-.03 0 .09 0 2.013-1.316 3.076-3.33 3.076-2.014 0-3.38-1.004-3.38-3.018ZM9.752 2.66l-.033.014-5.166 1.988c-.274.11-.383.266-.228.517l1.228 1.809.621.003c.512.003 1.233.007 2.132.006 1.164-.001 2.415.003 3.53.008.81.003 1.548.005 2.13.005l1.328-1.8c.155-.252.032-.465-.242-.576l-4.983-2.018c-.106-.043-.212 0-.318.044ZM9.864 4a1 1 0 1 0 0 2 1 1 0 0 0 0-2Zm3.668 12.632c.28.27.487.57.64.868H5.828a3.32 3.32 0 0 1 .64-.868C7.042 16.076 8.07 15.5 10 15.5s2.958.576 3.532 1.132ZM10 14c-4.52 0-5.686 2.753-5.987 4.173-.096.454.35.827.91.827h10.153c.561 0 1.007-.373.91-.827C15.687 16.753 14.52 14 10 14Z" clip-rule="evenodd"/>
</svg>
