<svg xmlns="http://www.w3.org/2000/svg" width="12" height="12" fill="currentColor" viewBox="0 0 12 12">
  <g class="investigation-12px">
    <path fill-rule="evenodd" d="M6.675 10.935v-1.4h.586c1.012 0 1.889.61 2.113 1.4h-2.7ZM3.47 5.034c0-.024.006-.047.007-.07h5.038c0 .023.006.046.006.07A2.528 2.528 0 0 1 5.996 7.56 2.528 2.528 0 0 1 3.47 5.034Zm1.855 5.9h-2.72c.225-.79 1.101-1.4 2.114-1.4h.606v1.4ZM6 2.55a.45.45 0 1 1 0 .9.45.45 0 0 1 0-.9Zm1.26 5.935h-.375a3.568 3.568 0 0 0 2.687-3.451c0-.052-.013-.1-.016-.152l1.68-2.739L5.992 0 .75 2.143l1.684 2.748c-.002.048-.014.093-.014.143a3.567 3.567 0 0 0 2.687 3.45h-.388c-1.77 0-3.22 1.28-3.22 2.846v.655h8.98v-.655c0-1.565-1.448-2.845-3.218-2.845Z" class="Fill 1" clip-rule="evenodd"/>
  </g>
</svg>
