<svg xmlns="http://www.w3.org/2000/svg" width="16" height="16" viewBox="0 0 16 16" fill="currentColor">
  <path fill-rule="evenodd" d="M3,1 C3,0.44772 3.44772,0 4,0 L6,0 C6.55228,0 7,0.44772 7,1 L7,2 C7,2.55228 6.55228,3 6,3 L4,3 C3.44772,3 3,2.55228 3,2 L3,1 Z M2,1 L0,1 L0,14 L10,14 L10,1 L8,1 L8,2.4 L8.6,2.4 L8.6,12.6 L1.4,12.6 L1.4,2.4 L2,2.4 L2,1 Z M4.57808,10.0212 L7.9899,6.6094 L6.99996,5.61945 L4.57808,8.04132 L3.36715,6.83038 L2.3772,7.82033 L4.57808,10.0212 Z" transform="translate(3 1)"/>
</svg>
