<svg xmlns="http://www.w3.org/2000/svg" width="16" height="16" fill="currentColor" viewBox="0 0 16 16">
  <path fill-rule="evenodd" d="M4.447.375h7.106l4.072 4.072v7.106l-4.072 4.072H4.447L.375 11.553V4.447L4.447.375Zm.518 1.25-3.34 3.34v6.07l3.34 3.34h6.07l3.34-3.34v-6.07l-3.34-3.34h-6.07Zm5.598 3.812a.625.625 0 0 1 0 .884L8.883 8l1.68 1.68a.625.625 0 1 1-.884.883L8 8.883l-1.68 1.68a.625.625 0 1 1-.883-.884L7.117 8l-1.68-1.68a.625.625 0 1 1 .884-.883L8 7.117l1.68-1.68a.625.625 0 0 1 .883 0Z" clip-rule="evenodd"/>
</svg>
