<svg xmlns="http://www.w3.org/2000/svg" width="20" height="20" fill="currentColor" viewBox="0 0 20 20">
  <path fill-rule="evenodd" d="M5.572.5h8.856L19.5 5.572v8.856L14.428 19.5H5.572L.5 14.428V5.572L5.572.5ZM6.193 2 2 6.193v7.614L6.193 18h7.614L18 13.807V6.193L13.807 2H6.193Zm7.065 4.742a.75.75 0 0 1 0 1.06L11.06 10l2.197 2.197a.75.75 0 0 1-1.06 1.06L10 11.062l-2.197 2.197a.75.75 0 1 1-1.06-1.061L8.938 10 6.742 7.803a.75.75 0 0 1 1.061-1.06L10 8.938l2.197-2.197a.75.75 0 0 1 1.06 0Z" clip-rule="evenodd"/>
</svg>
