<svg xmlns="http://www.w3.org/2000/svg" width="16" height="16" viewBox="0 0 16 16">
<path d="M13,5A5,5,0,0,0,8,0,5.74,5.74,0,0,0,6.92.11,5,5,0,0,0,4.6,8.64,3.5,3.5,0,0,1,5.7,10.8h0A.7.7,0,0,0,5.21,12a.7.7,0,0,0,0,1,.7.7,0,0,0,.49,1.2H6a2,2,0,0,0,4,0h.32a.7.7,0,0,0,.49-1.2.7.7,0,0,0,0-1,.7.7,0,0,0-.49-1.2h0a3.5,3.5,0,0,1,1.1-2.16A5,5,0,0,0,13,5ZM8.9,10.8H7.1A4.9,4.9,0,0,0,5.55,7.61a3.54,3.54,0,0,1-1.09-3.3A3.58,3.58,0,0,1,7.2,1.48,4.43,4.43,0,0,1,8,1.4,3.6,3.6,0,0,1,11.6,5a3.51,3.51,0,0,1-1.15,2.61A4.9,4.9,0,0,0,8.9,10.8ZM8,2.5v1A1.5,1.5,0,0,1,9.5,5h1A2.5,2.5,0,0,0,8,2.5Z"/>
</svg>