<svg xmlns="http://www.w3.org/2000/svg" width="12" height="12" fill="currentColor" viewBox="0 0 12 12">
  <path fill-rule="evenodd" d="m7.605 6.082-.296.213-.074.357-.123.59H4.888l-.123-.59-.074-.357-.297-.214c-.651-.468-1.057-1.202-1.057-2.015 0-1.362 1.158-2.527 2.663-2.527s2.662 1.165 2.662 2.527c0 .813-.405 1.547-1.057 2.016ZM4.125 8.18h3.75l.278-1.337C9.03 6.21 9.6 5.203 9.6 4.066 9.6 2.153 7.988.602 6 .602s-3.6 1.55-3.6 3.464c0 1.136.569 2.145 1.447 2.777l.278 1.337Zm.15.505h3.45v.902h-3.45v-.902Zm.225 1.414h3v.153a.75.75 0 0 1-.75.75h-1.5a.75.75 0 0 1-.75-.75v-.153Z" clip-rule="evenodd"/>
</svg>
