<svg xmlns="http://www.w3.org/2000/svg" width="16" height="16" fill="currentColor" viewBox="0 0 16 16">
  <path fill-rule="evenodd" d="M8.303 2.456a.623.623 0 0 0-.606 0L1.321 5.999a.623.623 0 0 0 0 1.09l2.412 1.34v2.998c0 .236.133.452.345.558l3.643 1.822a.624.624 0 0 0 .558 0l3.644-1.822a.624.624 0 0 0 .344-.558V8.43l1.486-.826v2.483a.623.623 0 0 0 1.247 0V6.544a.623.623 0 0 0-.32-.545L8.302 2.456Zm2.717 6.665-2.717 1.51a.623.623 0 0 1-.606 0L4.98 9.121v1.92L8 12.553l3.02-1.51v-1.92ZM8 9.373l5.093-2.83L8 3.715l-5.093 2.83L8 9.373Z" clip-rule="evenodd"/>
</svg>
