<svg xmlns="http://www.w3.org/2000/svg" width="12" height="12" fill="currentColor" viewBox="0 0 12 12">
  <path fill-rule="evenodd" d="M6.243 1.988a.5.5 0 0 0-.486 0L1.192 4.524a.5.5 0 0 0 0 .875l1.7.944v2.115a.5.5 0 0 0 .276.447l2.608 1.305a.5.5 0 0 0 .448 0l2.608-1.305a.5.5 0 0 0 .277-.447V6.343l.956-.532v1.687a.5.5 0 0 0 1 0V4.962a.5.5 0 0 0-.257-.438L6.243 1.988Zm1.866 4.91L6.243 7.935a.5.5 0 0 1-.486 0L3.891 6.898v1.25L6 9.204 8.109 8.15V6.9ZM6 6.926l3.536-1.964L6 2.997 2.464 4.962 6 6.926Z" clip-rule="evenodd"/>
</svg>
