<svg xmlns="http://www.w3.org/2000/svg" width="20" height="20" fill="currentColor" viewBox="0 0 20 20">
  <path fill-rule="evenodd" d="M10.364 2.623a.75.75 0 0 0-.729 0l-8.25 4.583a.75.75 0 0 0 0 1.313l2.906 1.614v3.965c0 .275.15.527.391.659l4.959 2.704a.75.75 0 0 0 .718 0l4.959-2.704a.75.75 0 0 0 .39-.659v-3.965l1.79-.994v3.306a.75.75 0 0 0 1.502 0V7.863a.75.75 0 0 0-.387-.657l-8.249-4.583Zm3.845 8.343-3.845 2.136a.75.75 0 0 1-.729 0l-3.844-2.136v2.687L10 15.95l4.209-2.296v-2.687Zm-4.21.62 6.704-3.723L10 4.139 3.296 7.863 10 11.587Z" clip-rule="evenodd"/>
</svg>
