<svg xmlns="http://www.w3.org/2000/svg" width="16" height="16" viewBox="0 0 16 16"><g><path d="M13.83,8.29,11.34,5.8a3.74,3.74,0,0,0-.62-.51,4,4,0,0,0-3.63-.35A4,4,0,0,0,4.94,7.09L6.09,8.23A2.45,2.45,0,0,1,8.23,6.09a1.86,1.86,0,0,1,.34,0,2.49,2.49,0,0,1,1.11.27,2.39,2.39,0,0,1,.67.47l1,1,1.52,1.52a2.52,2.52,0,1,1-3.56,3.56l-.65-.65a4.74,4.74,0,0,1-1.19.16,4.05,4.05,0,0,1-.7-.07l1.55,1.55a3.92,3.92,0,0,0,5.54-5.54Zm-6.07,3a3.89,3.89,0,0,0,1.16-.25,4,4,0,0,0,1.29-.86h0a4,4,0,0,0,.86-1.29L9.92,7.77A2.44,2.44,0,0,1,7.77,9.92l-.33,0a2.53,2.53,0,0,1-1.12-.27,2.31,2.31,0,0,1-.66-.46l-2.5-2.5a2.49,2.49,0,0,1-.73-1.78A2.52,2.52,0,0,1,6.34,2.85a1.91,1.91,0,0,1,.38.31l.66.66h0a4.68,4.68,0,0,1,1.19-.17,5.38,5.38,0,0,1,.69.07L7.71,2.17A3.92,3.92,0,0,0,2.17,7.71l2.5,2.5a3.61,3.61,0,0,0,.61.5h0a4.76,4.76,0,0,0,.67.35,4,4,0,0,0,1.48.28C7.55,11.35,7.65,11.33,7.76,11.32Z"/></g></svg>