<svg xmlns="http://www.w3.org/2000/svg" width="20" height="20" fill="currentColor" viewBox="0 0 20 20">
  <path fill-rule="evenodd" d="M16.073 3.928a3.916 3.916 0 0 0-5.538 0L8.85 5.615a.75.75 0 1 1-1.06-1.061l1.686-1.687a5.416 5.416 0 0 1 7.659 7.66l-1.687 1.686a.75.75 0 0 1-1.06-1.061l1.686-1.687a3.916 3.916 0 0 0 0-5.537ZM3.927 16.074a3.915 3.915 0 0 1 0-5.537l1.686-1.686a.75.75 0 0 0-1.06-1.061L2.865 9.476a5.416 5.416 0 0 0 7.659 7.66l1.686-1.687a.75.75 0 1 0-1.06-1.061l-1.687 1.686a3.916 3.916 0 0 1-5.537 0Zm10.152-9.091a.75.75 0 0 0-1.06-1.06l-7.102 7.1a.75.75 0 1 0 1.06 1.06l7.102-7.1Z" clip-rule="evenodd"/>
</svg>
