<svg xmlns="http://www.w3.org/2000/svg" width="12" height="12" fill="currentColor" viewBox="0 0 12 12">
  <path fill-rule="evenodd" d="M9.608 2.392a2.3 2.3 0 0 0-3.251 0L5.345 3.404a.5.5 0 0 1-.707-.707l1.011-1.012a3.3 3.3 0 1 1 4.666 4.666L9.303 7.363a.5.5 0 0 1-.707-.707l1.012-1.012a2.3 2.3 0 0 0 0-3.252ZM2.391 9.61a2.3 2.3 0 0 1 0-3.251l1.012-1.012a.5.5 0 0 0-.707-.707L1.684 5.65a3.3 3.3 0 1 0 4.666 4.666l1.012-1.011a.5.5 0 1 0-.707-.708L5.643 9.61a2.3 2.3 0 0 1-3.252 0Zm6.092-5.384a.5.5 0 0 0-.707-.707l-4.261 4.26a.5.5 0 1 0 .707.708l4.26-4.261Z" clip-rule="evenodd"/>
</svg>
