<svg xmlns="http://www.w3.org/2000/svg" viewBox="0 0 16 16"><path d="M11.494 2.108H9.35a4.452 4.452 0 0 0-3.316 1.521l-.389.438h2.168l.063-.038a2.82 2.82 0 0 1 1.475-.43h2.144A3.064 3.064 0 0 1 14.5 6.712a3.064 3.064 0 0 1-3.005 3.112H9.351a3 3 0 0 1-2.757-1.91l-.066-.164H4.963l.106.341a4.556 4.556 0 0 0 4.12 3.221l-.002.006h1.458l.187-.003h.662A4.556 4.556 0 0 0 15.99 6.71a4.556 4.556 0 0 0-4.496-4.603zm-3.34 10.184a2.847 2.847 0 0 1-1.48.426H4.528a3.115 3.115 0 0 1-.016-6.226l-.002.002 2.163-.002a2.986 2.986 0 0 1 2.749 1.916l.066.164h1.557l-.103-.34a4.474 4.474 0 0 0-4.27-3.23H4.53a4.605 4.605 0 0 0 0 9.206h2.144a4.452 4.452 0 0 0 3.324-1.516l.387-.438H8.218z"/></svg>