<svg xmlns="http://www.w3.org/2000/svg" width="16" height="16" fill="currentColor" viewBox="0 0 16 16">
  <path fill-rule="evenodd" d="M12.84 3.16a3.107 3.107 0 0 0-4.394 0l-1.35 1.35a.625.625 0 0 1-.883-.885l1.35-1.349a4.357 4.357 0 0 1 6.161 6.163l-1.349 1.349a.625.625 0 0 1-.884-.884l1.35-1.35a3.107 3.107 0 0 0 0-4.394Zm-9.68 9.682a3.107 3.107 0 0 1 0-4.395l1.35-1.349a.625.625 0 1 0-.885-.884l-1.349 1.35a4.357 4.357 0 0 0 6.162 6.162l1.35-1.35a.625.625 0 0 0-.884-.883l-1.35 1.349a3.107 3.107 0 0 1-4.394 0Zm8.122-7.238a.625.625 0 1 0-.884-.884L4.716 10.4a.625.625 0 0 0 .884.885l5.68-5.681Z" clip-rule="evenodd"/>
</svg>
