<svg id="Layer_1" data-name="Layer 1" xmlns="http://www.w3.org/2000/svg" width="16" height="16" viewBox="0 0 16 16">
  <title>Link</title>
  <path d="M11.49445,2.108H9.35A4.45171,4.45171,0,0,0,6.03369,3.62927L5.64545,4.067H7.813l.06311-.0379a2.82057,2.82057,0,0,1,1.47455-.43054H11.495a3.06392,3.06392,0,0,1,3.00507,3.113A3.06387,3.06387,0,0,1,11.495,9.82446H9.35065A2.99989,2.99989,0,0,1,6.59424,7.91321L6.528,7.75012H4.96338l.10516.34094A4.5562,4.5562,0,0,0,9.189,11.31238l-.00208.00525H10.6452l.18634-.00287h.6629a4.55575,4.55575,0,0,0,4.496-4.60339A4.5557,4.5557,0,0,0,11.49445,2.108ZM8.15485,12.29218a2.8466,2.8466,0,0,1-1.48169.426H4.52881a3.11518,3.11518,0,0,1-.01544-6.22589l-.00208.00214,2.16223-.00214A2.98561,2.98561,0,0,1,9.42267,8.40759l.06628.16412H11.0462l-.10309-.33984a4.4742,4.4742,0,0,0-4.27-3.23059H4.52881a4.60465,4.60465,0,0,0,0,9.20673H6.67316l.00055.00067A4.45238,4.45238,0,0,0,9.99725,12.692l.38721-.43768H8.218Z"/>
</svg>
