<svg xmlns="http://www.w3.org/2000/svg" width="16" height="16" viewBox="0 0 16 16">
    <path d="M8.36133 1.00879C12.0603 1.19645 15.0018 4.25536 15.002 8.00098C15.0018 11.8635 11.8738 14.9945 8.0127 15.001C8.00879 15.001 8.0049 15.0029 8.00098 15.0029C7.99673 15.0029 7.99251 15.0011 7.98828 15.001C4.12753 14.9941 1.00012 11.8633 1 8.00098C1.00011 4.13449 4.13449 1.00011 8.00098 1L8.36133 1.00879ZM8.62598 5.05859C8.62571 5.40355 8.34599 5.68359 8.00098 5.68359C7.65596 5.68359 7.37624 5.40355 7.37598 5.05859V2.2832C4.69896 2.57248 2.57352 4.69897 2.28418 7.37598H5.05859C5.40355 7.37624 5.68359 7.65596 5.68359 8.00098C5.68359 8.34615 5.4028 8.62598 5.05762 8.62598H2.28418C2.57361 11.3028 4.69911 13.4275 7.37598 13.7168V10.9443C7.37598 10.5992 7.6558 10.3193 8.00098 10.3193C8.34615 10.3193 8.62598 10.5992 8.62598 10.9443V13.7168C11.3027 13.4274 13.4274 11.3027 13.7168 8.62598H10.9434C10.5984 8.6257 10.3184 8.34598 10.3184 8.00098C10.3184 7.65597 10.5984 7.37625 10.9434 7.37598H13.7168C13.4275 4.69909 11.3028 2.5726 8.62598 2.2832V5.05859Z"/>
</svg>
