<svg xmlns="http://www.w3.org/2000/svg" width="12" height="12" viewBox="0 0 12 12">
    <path d="M5.99805 1.125C8.6895 1.12521 10.8721 3.3085 10.8721 6C10.8715 8.68689 8.69617 10.8643 6.01074 10.8711C6.00665 10.8712 6.00216 10.873 5.99805 10.873C5.99346 10.873 5.98894 10.8712 5.98438 10.8711C3.29936 10.8635 1.12424 8.68577 1.12402 5.99902C1.12416 3.30765 3.3067 1.12523 5.99805 1.125ZM6.49805 3.98047C6.49781 4.25641 6.27404 4.48047 5.99805 4.48047C5.72225 4.48024 5.49828 4.25627 5.49805 3.98047V2.1582C3.75857 2.38266 2.38117 3.76036 2.15723 5.5H3.97949C4.2556 5.50004 4.47949 5.72388 4.47949 6C4.47936 6.27601 4.25552 6.49996 3.97949 6.5H2.1582C2.38293 8.23862 3.75925 9.61454 5.49805 9.83887V8.01758C5.49818 7.74169 5.72219 7.51781 5.99805 7.51758C6.27411 7.51758 6.49791 7.74155 6.49805 8.01758V9.83887C8.23699 9.61471 9.61322 8.23878 9.83789 6.5H8.0166C7.74074 6.49976 7.51673 6.27588 7.5166 6C7.5166 5.724 7.74066 5.50024 8.0166 5.5H9.83887C9.61498 3.7602 8.23767 2.38249 6.49805 2.1582V3.98047Z"/>
</svg>
