<svg xmlns="http://www.w3.org/2000/svg" width="20" height="20" fill="currentColor" viewBox="0 0 20 20">
  <path fill-rule="evenodd" d="M10 2.447a5.885 5.885 0 0 0-5.886 5.886c0 1.593.72 3.092 1.922 4.654 1.014 1.318 2.314 2.606 3.705 3.986l.259.257.259-.257c1.391-1.38 2.69-2.668 3.705-3.986 1.203-1.562 1.921-3.061 1.921-4.654A5.885 5.885 0 0 0 10 2.447ZM2.552 8.333a7.448 7.448 0 0 1 14.896 0c0 2.088-.948 3.922-2.246 5.607-1.084 1.408-2.473 2.785-3.862 4.162-.264.261-.527.522-.788.783a.781.781 0 0 1-1.105 0c-.26-.261-.524-.522-.787-.783-1.39-1.377-2.778-2.754-3.862-4.162-1.298-1.685-2.246-3.519-2.246-5.607ZM10 6.613a1.719 1.719 0 1 0 0 3.438 1.719 1.719 0 0 0 0-3.437Zm-3.281 1.72a3.281 3.281 0 1 1 6.562 0 3.281 3.281 0 0 1-6.562 0Z" clip-rule="evenodd"/>
</svg>
