<svg xmlns="http://www.w3.org/2000/svg" width="20" height="20" viewBox="0 0 20 20">
    <path d="M10.3379 0.886719C15.093 1.12786 18.874 5.05997 18.874 9.875C18.8736 14.845 14.845 18.8738 9.875 18.874C4.90483 18.874 0.875389 14.8451 0.875 9.875C0.875 4.90459 4.90459 0.875 9.875 0.875L10.3379 0.886719ZM10.625 6.06738C10.6246 6.48116 10.2888 6.81717 9.875 6.81738C9.46101 6.81738 9.12536 6.48129 9.125 6.06738V2.41113C5.58196 2.76288 2.76519 5.58109 2.41309 9.12402H6.06738C6.48131 9.12421 6.81717 9.4601 6.81738 9.87402C6.81738 10.2881 6.48144 10.6238 6.06738 10.624H2.41309C2.76486 14.1672 5.58175 16.9842 9.125 17.3359V13.6816C9.12511 13.2675 9.46085 12.9316 9.875 12.9316C10.289 12.9319 10.6249 13.2676 10.625 13.6816V17.3359C14.168 16.984 16.9843 14.1671 17.3359 10.624H13.6816L13.6055 10.6201C13.2273 10.5817 12.9316 10.2623 12.9316 9.87402C12.9318 9.48587 13.2274 9.16631 13.6055 9.12793L13.6816 9.12402H17.3359C16.9839 5.58124 14.1678 2.76308 10.625 2.41113V6.06738Z"/>
</svg>
