<svg xmlns="http://www.w3.org/2000/svg" width="16" height="16" fill="currentColor" viewBox="0 0 16 16">
  <path fill-rule="evenodd" d="M8 1.959a4.708 4.708 0 0 0-4.708 4.708c0 1.275.575 2.474 1.537 3.723.812 1.055 1.85 2.086 2.964 3.19l.207.205.207-.205c1.113-1.104 2.153-2.135 2.965-3.19.961-1.249 1.536-2.448 1.536-3.723 0-2.6-2.108-4.708-4.708-4.708ZM2.042 6.667a5.958 5.958 0 1 1 11.916 0c0 1.671-.758 3.138-1.796 4.486-.868 1.127-1.978 2.228-3.09 3.33l-.63.626a.625.625 0 0 1-.884 0l-.63-.626c-1.112-1.102-2.222-2.203-3.09-3.33C2.8 9.805 2.042 8.338 2.042 6.667ZM8 5.292a1.375 1.375 0 1 0 0 2.75 1.375 1.375 0 0 0 0-2.75ZM5.375 6.667a2.625 2.625 0 1 1 5.25 0 2.625 2.625 0 0 1-5.25 0Z" clip-rule="evenodd"/>
</svg>
