<svg xmlns="http://www.w3.org/2000/svg" width="20" height="20" fill="currentColor" viewBox="0 0 20 20">
  <path d="M13.007 1c.413 0 .747.335.747.747V3.06a.748.748 0 0 1-1.495 0V1.747c0-.412.335-.747.748-.747Z"/>
  <path fill-rule="evenodd" d="M13.151 6.08a2.059 2.059 0 0 0-2.911 0l-8.637 8.637a2.059 2.059 0 0 0 0 2.912l.768.768a2.059 2.059 0 0 0 2.912 0L13.92 9.76a2.059 2.059 0 0 0 0-2.911l-.769-.769Zm-1.854 1.058c.22-.22.577-.22.797 0l.769.768c.22.22.22.577 0 .797l-1.189 1.189-1.566-1.566 1.189-1.188ZM9.094 9.34 2.66 15.774a.564.564 0 0 0 0 .798l.768.768c.22.22.578.22.798 0l6.434-6.434L9.094 9.34Z" clip-rule="evenodd"/>
  <path d="M6.978 3.842a.747.747 0 1 0-1.057 1.057L7.233 6.21A.747.747 0 0 0 8.29 5.153L6.978 3.842Zm9.963 2.404a.748.748 0 0 0 0 1.495h1.312a.748.748 0 0 0 0-1.495H16.94Zm-2.094 5.464a.748.748 0 0 0-1.057 1.057l1.31 1.313a.748.748 0 0 0 1.057-1.057l-1.311-1.312Z"/>
</svg>
