<svg xmlns="http://www.w3.org/2000/svg" width="21" height="21" fill="currentColor" viewBox="0 0 21 21">
  <path fill-rule="evenodd" d="M13.571.934c.432 0 .782.35.782.78v1.43a.781.781 0 0 1-1.563 0v-1.43c0-.43.35-.78.781-.78Zm.134 5.524a2.21 2.21 0 0 0-3.125 0L8.738 8.3l-.005.005-.005.005-7.556 7.557a2.21 2.21 0 0 0 0 3.125l.837.837a2.21 2.21 0 0 0 3.125 0l9.408-9.409a2.21 2.21 0 0 0 0-3.125l-.837-.837Zm-4.42 3.505L2.278 16.97a.647.647 0 0 0 0 .916l.837.837a.647.647 0 0 0 .915 0l7.009-7.01-1.752-1.751Zm2.858.647 1.294-1.295a.647.647 0 0 0 0-.915l-.836-.837a.647.647 0 0 0-.916 0L10.39 8.858l1.753 1.752ZM6.98 4.02a.781.781 0 0 0-1.105 1.104l1.429 1.429a.781.781 0 0 0 1.104-1.105L6.981 4.02Zm10.876 2.628a.781.781 0 1 0 0 1.562h1.429a.781.781 0 1 0 0-1.562h-1.429Zm-2.305 5.943a.781.781 0 0 0-1.105 1.105l1.429 1.428a.781.781 0 0 0 1.105-1.104l-1.429-1.429Z" clip-rule="evenodd"/>
</svg>
