<svg xmlns="http://www.w3.org/2000/svg" width="17" height="17" fill="currentColor" viewBox="0 0 17 17">
  <path fill-rule="evenodd" d="M10.857.947c.345 0 .625.28.625.625v1.143a.625.625 0 1 1-1.25 0V1.572c0-.345.28-.625.625-.625Zm.107 4.42c-.69-.69-1.81-.69-2.5 0L6.991 6.841l-.004.004-.004.004-6.045 6.045c-.69.69-.69 1.81 0 2.5l.67.67c.69.69 1.809.69 2.5 0l7.526-7.527c.69-.69.69-1.81 0-2.5l-.67-.67ZM7.43 8.17l-5.607 5.607a.518.518 0 0 0 0 .733l.67.67c.201.202.53.202.731 0L8.83 9.571 7.43 8.17Zm2.285.518 1.036-1.035a.518.518 0 0 0 0-.733l-.67-.67a.518.518 0 0 0-.732 0L8.313 7.288l1.401 1.401Zm-4.13-5.272a.625.625 0 0 0-.883.884l1.143 1.143a.625.625 0 0 0 .884-.884L5.585 3.416Zm8.702 2.103a.625.625 0 1 0 0 1.25h1.143a.625.625 0 0 0 0-1.25h-1.143Zm-1.844 4.754a.625.625 0 1 0-.884.884l1.143 1.143a.625.625 0 1 0 .884-.884l-1.143-1.143Z" clip-rule="evenodd"/>
</svg>
