<svg xmlns="http://www.w3.org/2000/svg" width="12" height="12" fill="currentColor" viewBox="0 0 12 12">
  <path fill-rule="evenodd" d="M7.637 1c.272 0 .492.22.492.492v.718a.492.492 0 0 1-.985 0v-.718c0-.272.22-.492.493-.492Zm.169 2.837a1.255 1.255 0 0 0-1.774 0l-.893.892-.004.004-.004.004-3.763 3.764c-.49.49-.49 1.284 0 1.774l.357.357c.49.49 1.284.49 1.774 0L8.163 5.97c.49-.49.49-1.285 0-1.775l-.357-.357Zm-2.323 1.94-3.42 3.42a.27.27 0 0 0 0 .382l.358.357a.27.27 0 0 0 .382 0l3.42-3.42-.74-.738Zm1.436.043.548-.548a.27.27 0 0 0 0-.382l-.357-.357a.27.27 0 0 0-.382 0l-.548.548.739.74ZM4.396 2.58a.492.492 0 0 0-.697.696l.718.718a.492.492 0 1 0 .697-.697l-.718-.717ZM9.79 3.87a.492.492 0 1 0 0 .985h.718a.492.492 0 0 0 0-.985H9.79ZM8.702 6.886a.492.492 0 0 0-.696.697l.718.717a.492.492 0 1 0 .696-.696l-.718-.718Z" clip-rule="evenodd"/>
</svg>
