<svg xmlns="http://www.w3.org/2000/svg" width="16" height="16" fill="currentColor" viewBox="0 0 16 16">
  <path fill-rule="evenodd" d="M10.944 1.62a.62.62 0 1 0-1.238 0v1.013a.62.62 0 1 0 1.238 0V1.62ZM5.693 3.21a.62.62 0 0 0-.876.875l1.014 1.014a.62.62 0 0 0 .876-.876L5.693 3.21Zm4.773 1.73a1.633 1.633 0 0 0-2.31 0l-6.678 6.678.429.429-.429-.429a1.633 1.633 0 0 0 0 2.31l.43-.43-.43.43.594.594a1.633 1.633 0 0 0 2.31 0l6.678-6.678a1.633 1.633 0 0 0 0-2.31l-.594-.594Zm-1.434.876a.395.395 0 0 1 .558 0l.594.594a.395.395 0 0 1 0 .558l-.919.919-1.152-1.152.919-.919ZM7.329 7.519l-4.975 4.975a.395.395 0 0 0 0 .558l.594.594-.438.438.438-.438a.395.395 0 0 0 .558 0l4.975-4.975L7.329 7.52Zm6.038-2.463a.62.62 0 1 0 0 1.238h1.014a.62.62 0 1 0 0-1.238h-1.014Zm-1.59 4.237a.62.62 0 1 0-.876.876l1.014 1.014a.62.62 0 0 0 .876-.876l-1.014-1.014Z" clip-rule="evenodd"/>
</svg>
