<svg xmlns="http://www.w3.org/2000/svg" width="13" height="13" fill="currentColor" viewBox="0 0 13 13">
  <path fill-rule="evenodd" d="M8.37.932c.26 0 .47.21.47.468v.807a.469.469 0 0 1-.938 0V1.4c0-.258.21-.468.469-.468Zm.131 3.164a1.326 1.326 0 0 0-1.875 0L5.622 5.1l-.004.004-.004.004-4.232 4.233a1.326 1.326 0 0 0 0 1.875l.402.402a1.326 1.326 0 0 0 1.875 0l5.244-5.245a1.326 1.326 0 0 0 0-1.875l-.402-.402ZM5.95 6.1l-3.904 3.904a.388.388 0 0 0 0 .55l.402.402a.388.388 0 0 0 .549 0L6.9 7.05l-.952-.951Zm1.615.288.676-.677a.388.388 0 0 0 0-.549l-.402-.402a.388.388 0 0 0-.549 0l-.677.677.952.95ZM4.667 2.683a.469.469 0 1 0-.663.663l.807.807a.469.469 0 1 0 .663-.663l-.807-.807Zm6.125 1.477a.469.469 0 1 0 0 .937h.807a.469.469 0 1 0 0-.937h-.807ZM9.509 7.525a.469.469 0 0 0-.663.663l.807.807a.469.469 0 0 0 .663-.663l-.807-.807Z" clip-rule="evenodd"/>
</svg>
