<svg xmlns="http://www.w3.org/2000/svg" width="20" height="20" fill="currentColor" viewBox="0 0 20 20">
  <path fill-rule="evenodd" d="M6.579 6.056A.777.777 0 1 0 6.58 4.5a.777.777 0 0 0-.001 1.555Z" clip-rule="evenodd"/>
  <path fill-rule="evenodd" d="M13.12 3.902h2.89c1.097 0 1.99.892 1.99 1.99v9.125a1.25 1.25 0 0 1-2.5 0v-.636c0-.363.237-.683.584-.789a.825.825 0 0 0 .583-.789V5.891a.658.658 0 0 0-.657-.657h-2.695c-.128 1.538-1.44 2.755-3.053 2.755a.665.665 0 0 1 0-1.332c.963 0 1.746-.746 1.746-1.663 0-.916-.783-1.662-1.746-1.662H6.62c-.962 0-1.625.746-1.625 1.662v6.824a.665.665 0 1 1-1.331 0V4.994C3.663 3.343 4.923 2 6.619 2h3.643c1.3 0 2.409.791 2.859 1.902Zm-2.822 12.365a.666.666 0 0 1-.666-.665V14.08a.666.666 0 0 1 1.331 0v1.52a.666.666 0 0 1-.665.666Zm3.37-.665a.666.666 0 0 0 1.332 0V14.08a.666.666 0 0 0-1.332 0v1.52Zm-7.67-7.556V13.2c0 .314-.04.58-.12.799-.08.218-.191.385-.333.5a.778.778 0 0 1-.494.167.936.936 0 0 1-.495-.132.904.904 0 0 1-.333-.431 1.256 1.256 0 0 1-.034-.095c-.115-.37-.4-.693-.788-.693-.387 0-.712.317-.642.698.05.27.132.508.245.716.204.372.481.65.834.833.356.18.76.27 1.213.27.448 0 .848-.103 1.2-.31.353-.207.631-.506.834-.896.203-.395.305-.87.305-1.426V8.046a.695.695 0 1 0-1.391 0Z" clip-rule="evenodd"/>
</svg>
