<svg xmlns="http://www.w3.org/2000/svg" width="12" height="12" fill="currentColor" viewBox="0 0 12 12">
  <path fill-rule="evenodd" d="M10.623 2.333H8.626A2.127 2.127 0 0 0 6.648 1h-2.52C2.954 1 2 1.941 2 3.099V7.88c0 .258.285.467.54.467.254 0 .46-.209.46-.467V3.1c0-.642.462-1.166 1.128-1.166h2.52c.666 0 1.207.524 1.207 1.166 0 .642-.541 1.165-1.207 1.165-.255 0-.46.21-.46.467 0 .258.205.467.46.467a2.112 2.112 0 0 0 2.111-1.931h1.864c.251 0 .377.206.377.46V8.72a.452.452 0 0 1-.25.405.452.452 0 0 0-.25.405v.72a.75.75 0 1 0 1.5 0V3.727c0-.768-.618-1.394-1.377-1.394ZM6 10.5a.5.5 0 0 0 1 0v-1a.5.5 0 1 0-1 0v1Zm3.5.5a.5.5 0 0 1-.5-.5v-1a.5.5 0 0 1 1 0v1a.5.5 0 0 1-.5.5ZM4.47 3.905a.466.466 0 1 0 0-.932.466.466 0 0 0 0 .932Zm-.437 1.082v3.614c0 .22-.028.407-.085.56a.79.79 0 0 1-.233.35.545.545 0 0 1-.347.117.656.656 0 0 1-.346-.093.633.633 0 0 1-.234-.302.873.873 0 0 1-.023-.066c-.082-.259-.282-.486-.553-.486-.271 0-.5.223-.45.49.035.189.093.356.172.501.142.26.337.456.584.585.25.126.533.189.85.189.314 0 .595-.073.842-.218.247-.145.442-.354.584-.628.143-.277.214-.61.214-1V4.988a.487.487 0 1 0-.975 0Z" clip-rule="evenodd"/>
</svg>
