<svg id="Layer_1" data-name="Layer 1" xmlns="http://www.w3.org/2000/svg" viewBox="0 0 18 16"><title>Back to Main</title><path d="M5.2,11.5a1.7,1.7,0,0,1-3.4,0H0a3.5,3.5,0,0,0,7,0v-5H5.2Z"/><path d="M5.7,4a.7.7,0,1,0-.7-.7A.7.7,0,0,0,5.7,4Z"/><rect x="9" y="12" width="1.4" height="3"/><path d="M15.91,2h-3a3.23,3.23,0,0,0-3-2H6A3.19,3.19,0,0,0,2.8,3.15v7.17a.7.7,0,0,0,1.4,0V3.15A1.79,1.79,0,0,1,6,1.4H9.87A1.79,1.79,0,0,1,11.7,3.15,1.8,1.8,0,0,1,9.87,4.9a.7.7,0,0,0,0,1.4,3.19,3.19,0,0,0,3.2-2.9h2.84a.69.69,0,0,1,.69.69V12h-2v3H18V4.09A2.1,2.1,0,0,0,15.91,2Z"/></svg>