<svg xmlns="http://www.w3.org/2000/svg" width="16" height="16" fill="currentColor" viewBox="0 0 16 16">
  <path fill-rule="evenodd" d="M5.49 5.233a.622.622 0 1 0 0-1.244.622.622 0 0 0 0 1.244Z" clip-rule="evenodd"/>
  <path fill-rule="evenodd" d="M11.44 2.778h2.7c1.025 0 1.86.834 1.86 1.858v8.697a1 1 0 0 1-1 1h-.19a1 1 0 0 1-1-1v-.832c0-.3.19-.568.472-.668a.708.708 0 0 0 .473-.667v-6.53a.615.615 0 0 0-.615-.614h-2.519c-.119 1.437-1.346 2.575-2.852 2.575a.622.622 0 0 1 0-1.245c.9 0 1.63-.697 1.63-1.554 0-.856-.73-1.554-1.63-1.554H5.364c-.9 0-1.63.698-1.63 1.554v6.377a.622.622 0 1 1-1.245 0V3.798C2.489 2.255 3.779 1 5.364 1H8.77c1.215 0 2.25.74 2.67 1.778ZM8.622 14.333A.622.622 0 0 1 8 13.711v-1.422a.622.622 0 0 1 1.244 0v1.422a.622.622 0 0 1-.622.622ZM12 13.711a.622.622 0 1 0 1.245 0v-1.422a.622.622 0 0 0-1.245 0v1.422ZM5.019 6.65v4.818c0 .293-.038.542-.113.746-.075.204-.18.36-.312.468a.727.727 0 0 1-.462.155.875.875 0 0 1-.462-.123.845.845 0 0 1-.311-.403 1.165 1.165 0 0 1-.031-.088c-.109-.345-.375-.648-.737-.648s-.666.296-.6.652c.047.252.123.475.23.67.189.347.449.606.778.778.333.169.71.253 1.133.253.42 0 .793-.097 1.123-.29a2.03 2.03 0 0 0 .779-.838c.19-.369.284-.813.284-1.332V6.65a.65.65 0 0 0-1.3 0Z" clip-rule="evenodd"/>
</svg>
