<svg xmlns="http://www.w3.org/2000/svg" width="16" height="16" fill="currentColor" viewBox="0 0 16 16">
  <path fill-rule="evenodd" d="M1.53 5.837a.75.75 0 0 1 1.06 0l1.062 1.06A.754.754 0 0 1 3.738 7h8.706a.763.763 0 0 1 .086-.102l1.06-1.061a.75.75 0 0 1 1.062 1.06l-.105.106A.5.5 0 0 1 15 7.5V8a.5.5 0 0 1-.402.49l.101.101a.75.75 0 0 1-1.06 1.061l-1.061-1.06A.747.747 0 0 1 12.5 8.5H3.777a.756.756 0 0 1-.078.091l-1.06 1.061a.75.75 0 0 1-1.061-1.06l.09-.092H1.5A.5.5 0 0 1 1 8v-.5a.5.5 0 0 1 .5-.5h.133l-.103-.102a.75.75 0 0 1 0-1.061Z" clip-rule="evenodd"/>
  <path fill-rule="evenodd" d="M9.583 14.303a.75.75 0 0 1-.53-.919l.388-1.449a.751.751 0 0 1 .046-.126L5.134 4.27a.755.755 0 0 1-.132-.023l-1.45-.388a.75.75 0 0 1 .389-1.449l.143.038a.5.5 0 0 1 .205-.641l.433-.25a.5.5 0 0 1 .625.102l.037-.137a.75.75 0 1 1 1.449.388l-.388 1.449a.754.754 0 0 1-.04.113l4.362 7.554a.962.962 0 0 1 .117.022l1.449.388a.75.75 0 1 1-.388 1.45l-.125-.034.085.146a.5.5 0 0 1-.183.683l-.433.25a.5.5 0 0 1-.683-.183l-.067-.115-.037.14a.75.75 0 0 1-.919.53Z" clip-rule="evenodd"/>
  <path fill-rule="evenodd" d="M3.113 12.397a.75.75 0 0 1 .53-.919l1.45-.388a.747.747 0 0 1 .132-.023l4.353-7.54a.755.755 0 0 1-.046-.126l-.389-1.449a.75.75 0 1 1 1.45-.388l.038.143a.5.5 0 0 1 .658-.143l.433.25a.5.5 0 0 1 .224.593l.137-.037a.75.75 0 0 1 .388 1.449l-1.449.388a.756.756 0 0 1-.117.022l-4.362 7.554a.72.72 0 0 1 .04.113l.388 1.449a.75.75 0 1 1-1.449.388l-.033-.124-.084.146a.5.5 0 0 1-.683.183l-.433-.25a.5.5 0 0 1-.183-.683l.066-.115-.14.037a.75.75 0 0 1-.919-.53Z" clip-rule="evenodd"/>
</svg>
