<svg xmlns="http://www.w3.org/2000/svg" width="20" height="20" fill="currentColor" viewBox="0 0 20 20">
  <path fill-rule="evenodd" d="M1.913 7.294a.937.937 0 0 1 1.326 0L4.564 8.62a.88.88 0 0 1 .108.129h10.883a.95.95 0 0 1 .108-.13l1.326-1.325a.938.938 0 0 1 1.325 1.326l-.13.131c.317.03.566.297.566.623v.625a.625.625 0 0 1-.502.612l.126.126a.937.937 0 0 1-1.326 1.326l-1.326-1.326a.932.932 0 0 1-.097-.113H4.721a.945.945 0 0 1-.097.113l-1.326 1.326a.937.937 0 1 1-1.326-1.326l.114-.113h-.211a.625.625 0 0 1-.625-.625v-.625c0-.346.28-.625.625-.625h.166l-.128-.13a.937.937 0 0 1 0-1.325Z" clip-rule="evenodd"/>
  <path fill-rule="evenodd" d="M11.979 17.875a.938.938 0 0 1-.663-1.148l.485-1.81a.925.925 0 0 1 .058-.158L6.417 5.334a.944.944 0 0 1-.165-.03L4.44 4.82a.938.938 0 0 1 .485-1.81l.18.047a.625.625 0 0 1 .255-.802l.541-.312a.625.625 0 0 1 .782.128l.046-.172a.937.937 0 1 1 1.811.486l-.485 1.81a.942.942 0 0 1-.05.142l5.452 9.443a.94.94 0 0 1 .147.027l1.811.485a.937.937 0 1 1-.485 1.811l-.156-.041.106.182a.625.625 0 0 1-.229.854l-.541.313a.625.625 0 0 1-.854-.23l-.083-.143-.047.175a.938.938 0 0 1-1.148.663Z" clip-rule="evenodd"/>
  <path fill-rule="evenodd" d="M3.891 15.49a.938.938 0 0 1 .663-1.148l1.811-.485a.93.93 0 0 1 .165-.029l5.442-9.425a.934.934 0 0 1-.058-.158l-.485-1.81a.938.938 0 0 1 1.811-.486l.048.18a.625.625 0 0 1 .823-.18l.54.312a.625.625 0 0 1 .28.741l.173-.046a.938.938 0 0 1 .485 1.811l-1.811.486a.944.944 0 0 1-.147.027l-5.453 9.443c.02.045.037.092.05.141l.486 1.811a.938.938 0 1 1-1.811.485l-.042-.155-.105.183a.625.625 0 0 1-.854.229l-.541-.313a.625.625 0 0 1-.23-.854l.084-.144-.176.047a.938.938 0 0 1-1.148-.663Z" clip-rule="evenodd"/>
</svg>
