<svg xmlns="http://www.w3.org/2000/svg" width="20" height="20" fill="currentColor" viewBox="0 0 20 20">
  <path fill-rule="evenodd" d="M8.75.5a.75.75 0 0 1 .75.75v1.03a7.884 7.884 0 0 1 1.963-.088v-.934a.75.75 0 0 1 1.5 0V2.46a7.818 7.818 0 0 1 2.94 1.568.75.75 0 0 1-.972 1.143 6.324 6.324 0 0 0-1.968-1.138v11.934a6.324 6.324 0 0 0 1.968-1.138.75.75 0 0 1 .971 1.143 7.816 7.816 0 0 1-2.94 1.568v1.218a.75.75 0 0 1-1.5 0v-.95A7.94 7.94 0 0 1 9.5 17.72v1.03a.75.75 0 0 1-1.5 0v-1.445a7.836 7.836 0 0 1 0-14.61V1.25A.75.75 0 0 1 8.75.5ZM8 4.334A6.333 6.333 0 0 0 4.5 10 6.333 6.333 0 0 0 8 15.666V4.334Zm1.5 11.859a6.359 6.359 0 0 0 1.963.11V3.696a6.414 6.414 0 0 0-1.963.11v12.386Z" clip-rule="evenodd"/>
</svg>
