<svg xmlns="http://www.w3.org/2000/svg" width="16" height="16" fill="currentColor" viewBox="0 0 16 16">
  <path class="secondary" fill-rule="evenodd" d="m13.46 10.544 2.401 4.002A.96.96 0 0 1 15.038 16H9.961a.96.96 0 0 1-.823-1.454l2.401-4.002a1.12 1.12 0 0 1 1.921 0ZM12.5 11a.5.5 0 0 1 .5.5v1a.5.5 0 0 1-1 0v-1a.5.5 0 0 1 .5-.5Zm.5 3.5a.5.5 0 1 1-1 0 .5.5 0 0 1 1 0Z" clip-rule="evenodd"/>
  <path fill-rule="evenodd" d="M7.277 1.03a.625.625 0 0 0-1.25 0v1.14a6.294 6.294 0 0 0 0 11.722v1.139a.625.625 0 0 0 1.25 0v-.794c.196.032.396.056.598.07a2.27 2.27 0 0 1 .191-.404l.502-.837a5.161 5.161 0 0 1-1.29-.101V3.097a5.063 5.063 0 0 1 1.46-.09v9.777l1.25-2.083V3.27a5.034 5.034 0 0 1 1.593.915.625.625 0 1 0 .81-.952 6.278 6.278 0 0 0-2.403-1.271V1.03a.625.625 0 0 0-1.25 0v.722a6.378 6.378 0 0 0-1.46.072V1.03Zm-4 7a5.041 5.041 0 0 1 2.75-4.491v8.984a5.041 5.041 0 0 1-2.75-4.492Z" clip-rule="evenodd"/>
</svg>
