<svg xmlns="http://www.w3.org/2000/svg" width="20" height="20" fill="currentColor" viewBox="0 0 20 20">
  <path fill-rule="evenodd" d="M9.5 1.25a.75.75 0 0 0-1.5 0v1.445a7.836 7.836 0 0 0 0 14.61v1.445a.75.75 0 0 0 1.5 0v-1.03c.148.026.298.047.449.064.052-.126.114-.25.188-.373l.646-1.078a6.35 6.35 0 0 1-1.283-.14V3.807a6.358 6.358 0 0 1 1.962-.11v11.504l1.5-2.5V4.033c.727.26 1.392.648 1.969 1.138a.75.75 0 1 0 .971-1.143 7.818 7.818 0 0 0-2.94-1.568V1.258a.75.75 0 0 0-1.5 0v.934A7.93 7.93 0 0 0 9.5 2.28V1.25ZM4.5 10A6.333 6.333 0 0 1 8 4.334v11.332A6.333 6.333 0 0 1 4.5 10Z" clip-rule="evenodd"/>
  <path class="secondary" fill-rule="evenodd" d="m16.825 13.18 3.002 5.002A1.2 1.2 0 0 1 18.796 20h-6.345a1.2 1.2 0 0 1-1.03-1.818l3.002-5.002a1.4 1.4 0 0 1 2.401 0Zm-1.2.57c.345 0 .625.28.625.625v1.25a.625.625 0 0 1-1.25 0v-1.25c0-.345.28-.625.625-.625Zm.625 4.375a.625.625 0 1 1-1.25 0 .625.625 0 0 1 1.25 0Z" clip-rule="evenodd"/>
</svg>
