<svg xmlns="http://www.w3.org/2000/svg" width="12" height="12" fill="currentColor" viewBox="0 0 12 12">
  <path fill-rule="evenodd" d="M6 .75a.5.5 0 0 0-1 0v.833a4.752 4.752 0 0 0 0 8.834v.833a.5.5 0 0 0 .791.406 1.695 1.695 0 0 1 .205-1.26l.397-.663A3.746 3.746 0 0 1 6 9.675v-7.35a3.767 3.767 0 0 1 1-.067v6.464l.797-1.328c.06-.101.129-.194.203-.278V2.463c.434.154.832.385 1.176.678a.5.5 0 0 0 .648-.763A4.74 4.74 0 0 0 8 1.416V.75a.5.5 0 0 0-1 0v.506a4.816 4.816 0 0 0-1 .053V.75ZM3 6a3.75 3.75 0 0 1 2-3.317v6.634A3.75 3.75 0 0 1 3 6Z" clip-rule="evenodd"/>
  <path class="secondary" fill-rule="evenodd" d="m10.095 7.908 1.8 3.002a.72.72 0 0 1-.617 1.09H7.471a.72.72 0 0 1-.617-1.09l1.8-3.002a.84.84 0 0 1 1.441 0Zm-.72.342c.207 0 .375.168.375.375v.75a.375.375 0 0 1-.75 0v-.75c0-.207.168-.375.375-.375Zm.375 2.625a.375.375 0 1 1-.75 0 .375.375 0 0 1 .75 0Z" clip-rule="evenodd"/>
</svg>
