<svg xmlns="http://www.w3.org/2000/svg" width="12" height="12" fill="currentColor" viewBox="0 0 12 12">
  <path fill-rule="evenodd" d="M5.5.25a.5.5 0 0 1 .5.5v.559a4.785 4.785 0 0 1 1-.053V.75a.5.5 0 0 1 1 0v.666a4.74 4.74 0 0 1 1.824.962.5.5 0 0 1-.648.763A3.744 3.744 0 0 0 8 2.463v7.074a3.744 3.744 0 0 0 1.176-.678.5.5 0 0 1 .648.763A4.74 4.74 0 0 1 8 10.584v.666a.5.5 0 0 1-1 0v-.507a4.815 4.815 0 0 1-1-.052v.559a.5.5 0 0 1-1 0v-.833a4.752 4.752 0 0 1 0-8.834V.75a.5.5 0 0 1 .5-.5ZM5 2.683a3.75 3.75 0 0 0 0 6.634V2.683Zm1 6.992a3.767 3.767 0 0 0 1 .067V2.258a3.808 3.808 0 0 0-1 .067v7.35Z" clip-rule="evenodd"/>
</svg>
