<svg xmlns="http://www.w3.org/2000/svg" width="12" height="12" fill="currentColor" viewBox="0 0 12 12">
  <path d="M1.973 6.532c0-.607.225-1.324.62-1.76.397-.437.89-.681 1.482-.733l-.425.437a.494.494 0 0 0-.138.36c0 .145.046.265.138.359a.468.468 0 0 0 .35.141.467.467 0 0 0 .35-.141l1.3-1.336a.5.5 0 0 0 .15-.36.5.5 0 0 0-.15-.359l-1.3-1.335A.467.467 0 0 0 4 1.664a.468.468 0 0 0-.35.14.494.494 0 0 0-.138.36c0 .146.046.266.138.36l.45.462a3.158 3.158 0 0 0-2.206 1.04c-.596.642-.92 1.603-.92 2.494 0 .933.34 1.864.97 2.51.629.647 1.398.97 2.306.97H5.5c.142 0 .26-.05.356-.148A.504.504 0 0 0 6 9.486a.504.504 0 0 0-.144-.366.477.477 0 0 0-.356-.147H4.25a2.151 2.151 0 0 1-1.594-.668c-.437-.445-.683-1.13-.683-1.773ZM7.5 4.027h3c.142 0 .26-.049.356-.147A.504.504 0 0 0 11 3.514a.504.504 0 0 0-.144-.366A.477.477 0 0 0 10.5 3h-3c-.142 0-.26.05-.356.148A.504.504 0 0 0 7 3.514c0 .145.048.267.144.366a.477.477 0 0 0 .356.147Zm0 2.992h3c.142 0 .26-.049.356-.147A.504.504 0 0 0 11 6.506a.504.504 0 0 0-.144-.366.477.477 0 0 0-.356-.148h-3c-.142 0-.26.05-.356.148A.504.504 0 0 0 7 6.506c0 .145.048.267.144.366a.477.477 0 0 0 .356.147ZM7.5 10h3c.142 0 .26-.05.356-.148A.504.504 0 0 0 11 9.486a.504.504 0 0 0-.144-.366.477.477 0 0 0-.356-.147h-3a.478.478 0 0 0-.356.147.504.504 0 0 0-.144.366c0 .146.048.268.144.366A.477.477 0 0 0 7.5 10Z"/>
</svg>
