<svg xmlns="http://www.w3.org/2000/svg" width="20" height="20" fill="currentColor" viewBox="0 0 20 20">
  <path d="M3.623 10.527c0-.95.373-2.292 1.033-2.974.66-.683 1.483-1.064 2.469-1.144L6.07 7.536a.746.746 0 0 0-.23.562c0 .227.077.415.23.562.153.147.347.22.583.22s.43-.073.584-.22L9.75 6.128a.757.757 0 0 0 0-1.124L7 2.334a.807.807 0 0 0-.584-.22.807.807 0 0 0-.583.22.746.746 0 0 0-.23.562c0 .228.077.415.23.562l1.333 1.306c-1.458.08-2.684.622-3.677 1.625-.993 1.003-1.532 2.727-1.532 4.118 0 1.458.567 2.96 1.616 3.97 1.048 1.01 2.33 1.515 3.843 1.515H9.5a.822.822 0 0 0 .594-.23.762.762 0 0 0 .24-.572.762.762 0 0 0-.24-.572.822.822 0 0 0-.594-.23H7.416c-1.041 0-1.927-.349-2.656-1.044-.729-.696-1.137-1.814-1.137-2.817Zm9.21-3.921h5a.823.823 0 0 0 .594-.231.762.762 0 0 0 .24-.572.762.762 0 0 0-.24-.572.823.823 0 0 0-.594-.23h-5a.822.822 0 0 0-.594.23.762.762 0 0 0-.24.572c0 .227.08.418.24.572.16.154.358.23.594.23Zm0 4.972h5a.823.823 0 0 0 .594-.23.762.762 0 0 0 .24-.573.762.762 0 0 0-.24-.571.822.822 0 0 0-.594-.231h-5a.822.822 0 0 0-.594.23.762.762 0 0 0-.24.572c0 .228.08.418.24.572.16.154.358.231.594.231Zm0 4.414h5a.822.822 0 0 0 .594-.23.762.762 0 0 0 .24-.572.762.762 0 0 0-.24-.572.823.823 0 0 0-.594-.23h-5a.823.823 0 0 0-.594.23.762.762 0 0 0-.24.572c0 .227.08.418.24.571.16.154.358.231.594.231Z"/>
</svg>
