<svg xmlns="http://www.w3.org/2000/svg" width="16" height="16" fill="currentColor" viewBox="0 0 16 16">
  <path d="M2.333 8.843c0-.76.264-1.413.792-1.959.528-.545 1.186-.85 1.975-.915l-.92.884a.597.597 0 0 0-.183.45.6.6 0 0 0 .183.449.645.645 0 0 0 .467.176.645.645 0 0 0 .467-.176L7.2 5.745a.605.605 0 0 0 0-.9L5.1 2.963a.645.645 0 0 0-.467-.177.645.645 0 0 0-.467.177.597.597 0 0 0-.183.45c0 .181.06.33.183.449l.967.792c-1.166.065-2.147.498-2.941 1.3C1.397 6.756 1 7.713 1 8.827c0 1.166.42 2.153 1.258 2.961.84.808 1.864 1.212 3.075 1.212H7a.658.658 0 0 0 .475-.185.61.61 0 0 0 .192-.457.61.61 0 0 0-.192-.458.658.658 0 0 0-.475-.184H5.333c-.833 0-1.541-.278-2.125-.835a2.71 2.71 0 0 1-.875-2.038Zm7.334-2.906h4a.658.658 0 0 0 .475-.184.61.61 0 0 0 .191-.458.61.61 0 0 0-.191-.457.658.658 0 0 0-.475-.185h-4a.658.658 0 0 0-.475.185.61.61 0 0 0-.192.457.61.61 0 0 0 .192.458.658.658 0 0 0 .475.184Zm0 3.532h4a.658.658 0 0 0 .475-.185.61.61 0 0 0 .191-.457.61.61 0 0 0-.191-.458.658.658 0 0 0-.475-.184h-4a.658.658 0 0 0-.475.184.61.61 0 0 0-.192.458.61.61 0 0 0 .192.457.658.658 0 0 0 .475.185Zm0 3.531h4a.658.658 0 0 0 .475-.185.61.61 0 0 0 .191-.457.61.61 0 0 0-.191-.458.658.658 0 0 0-.475-.184h-4a.658.658 0 0 0-.475.184.61.61 0 0 0-.192.458.61.61 0 0 0 .192.457.658.658 0 0 0 .475.185Z"/>
</svg>
