<svg xmlns="http://www.w3.org/2000/svg" width="20" height="20" fill="currentColor" viewBox="0 0 20 20">
  <path fill-rule="evenodd" d="M8.51 4.217v11.566l-2.59-2.59-.029-.03c-.113-.112-.246-.247-.409-.346a1.581 1.581 0 0 0-.458-.19c-.185-.045-.375-.044-.535-.044H3l-.279-.001a1.75 1.75 0 0 1-.149-.008.086.086 0 0 1-.03-.024.706.706 0 0 1-.007-.064 6.876 6.876 0 0 1-.01-.486V8c0-.246.001-.385.01-.486a.706.706 0 0 1 .007-.064.083.083 0 0 1 .03-.024l.011-.002a1.76 1.76 0 0 1 .138-.006L3 7.417h1.489c.16 0 .35 0 .535-.044.162-.039.316-.103.458-.19.163-.1.296-.234.41-.347l.029-.03 2.59-2.59Zm-5.946 3.21ZM9.247 2.45c.135.057.333.162.484.34.215.25.25.554.264.712.016.174.016.392.016.62V15.96c0 .228 0 .446-.016.62-.014.157-.05.462-.264.713-.22.258-.521.323-.645.345a1.75 1.75 0 0 1-.428.02c-.329-.027-.57-.217-.69-.318a7.606 7.606 0 0 1-.45-.427L4.86 14.254a5.055 5.055 0 0 0-.166-.161.077.077 0 0 0-.015-.006 5.228 5.228 0 0 0-.232-.004h-1.54c-.367.002-.673.003-1.017-.172a1.583 1.583 0 0 1-.692-.692 1.602 1.602 0 0 1-.158-.61c-.014-.17-.014-.372-.014-.584v-4.05c0-.212 0-.413.014-.583.015-.186.05-.398.158-.61.152-.299.394-.54.692-.693.344-.175.65-.174 1.017-.172h1.541a5.195 5.195 0 0 0 .231-.004.084.084 0 0 0 .015-.006 5.2 5.2 0 0 0 .166-.161l2.638-2.638.02-.02c.161-.161.316-.316.45-.428.12-.101.361-.291.69-.317.237-.019.454.05.589.107Zm3.556 4.52a.75.75 0 0 1 1.06 0l1.97 1.97 1.97-1.97a.75.75 0 1 1 1.06 1.06L16.894 10l1.97 1.97a.75.75 0 1 1-1.06 1.06l-1.97-1.97-1.97 1.97a.75.75 0 0 1-1.06-1.06l1.97-1.97-1.97-1.97a.75.75 0 0 1 0-1.06Z" clip-rule="evenodd"/>
</svg>
