<svg xmlns="http://www.w3.org/2000/svg" width="12" height="12" fill="currentColor" viewBox="0 0 12 12">
  <path fill-rule="evenodd" d="M5 2.707 3.588 4.12l-.018.018a1.397 1.397 0 0 1-.255.216 1 1 0 0 1-.289.12 1.397 1.397 0 0 1-.332.027H2.3a4.096 4.096 0 0 0-.294.006v.006C2 4.571 2 4.652 2 4.8v2.4a4.096 4.096 0 0 0 .006.294h.006c.059.006.14.006.288.006h.394c.095 0 .215 0 .332.028a1 1 0 0 1 .29.12c.103.063.187.147.254.215l.018.018L5 9.293V2.707Zm.191-1.351a.75.75 0 0 1 .63.26c.139.164.161.36.17.456.009.107.009.24.009.375v7.106c0 .135 0 .268-.01.375a.793.793 0 0 1-.17.455.75.75 0 0 1-.629.261.793.793 0 0 1-.442-.202 4.576 4.576 0 0 1-.272-.258L2.88 8.588a3.08 3.08 0 0 0-.087-.086H2.79a3.106 3.106 0 0 0-.122-.002h-.385c-.126 0-.249 0-.353-.009a1.01 1.01 0 0 1-.385-.1 1 1 0 0 1-.437-.437 1.01 1.01 0 0 1-.1-.385C1 7.465 1 7.342 1 7.216V4.784c0-.126 0-.25.008-.353.01-.114.032-.25.101-.385a1 1 0 0 1 .437-.437.987.987 0 0 1 .385-.1c.104-.01.227-.009.353-.009h.385l.122-.001h.001l.002-.002.087-.085L4.464 1.83l.013-.013c.095-.096.19-.19.272-.258a.793.793 0 0 1 .442-.202Zm2.455 2.79a.5.5 0 0 1 .708 0L9.5 5.293l1.146-1.147a.5.5 0 0 1 .708.708L10.207 6l1.147 1.146a.5.5 0 0 1-.708.708L9.5 6.707 8.354 7.854a.5.5 0 1 1-.708-.708L8.793 6 7.646 4.854a.5.5 0 0 1 0-.708Z" clip-rule="evenodd"/>
</svg>
