<svg xmlns="http://www.w3.org/2000/svg" width="16" height="16" fill="currentColor" viewBox="0 0 16 16">
  <path fill-rule="evenodd" d="M6.809 3.373v9.253l-2.072-2.072a3.802 3.802 0 0 1-.024-.024c-.09-.09-.197-.198-.327-.277a1.267 1.267 0 0 0-.366-.152 1.801 1.801 0 0 0-.428-.035H2.4l-.223-.001a1.431 1.431 0 0 1-.11-.005l-.01-.001a.07.07 0 0 1-.023-.02.565.565 0 0 1-.006-.05 5.5 5.5 0 0 1-.007-.39V6.4c0-.196 0-.308.007-.389a.563.563 0 0 1 .006-.05.067.067 0 0 1 .023-.02l.01-.001c.02-.002.052-.004.11-.005l.223-.001h1.192c.128 0 .279 0 .428-.035a1.29 1.29 0 0 0 .366-.152c.13-.08.237-.187.327-.278l.024-.024 2.072-2.071ZM2.05 5.94Zm5.346-3.982c.109.046.267.13.388.271.172.201.2.445.211.57.013.14.013.315.013.496v9.471c0 .182 0 .357-.013.496-.01.126-.04.37-.211.57a.869.869 0 0 1-.516.277 1.402 1.402 0 0 1-.342.015c-.263-.02-.456-.173-.553-.254-.107-.09-.23-.213-.359-.342l-2.127-2.126a4.077 4.077 0 0 0-.133-.13.078.078 0 0 0-.011-.004l-.02-.002a4.277 4.277 0 0 0-.166-.001H2.326c-.294.001-.539.002-.814-.138a1.267 1.267 0 0 1-.553-.554 1.282 1.282 0 0 1-.127-.488 6.082 6.082 0 0 1-.011-.467v-3.24c0-.17 0-.33.01-.466.013-.149.041-.319.128-.489.121-.238.315-.432.553-.553.275-.14.52-.14.814-.139h1.232a4.142 4.142 0 0 0 .186-.002.067.067 0 0 0 .011-.005 4.17 4.17 0 0 0 .133-.129l2.11-2.11.017-.017c.129-.128.252-.252.36-.342.096-.08.289-.233.552-.253.189-.015.363.04.47.085Zm2.845 3.616a.6.6 0 0 1 .849 0l1.576 1.576 1.575-1.576a.6.6 0 1 1 .849.849l-1.576 1.575 1.576 1.576a.6.6 0 0 1-.848.849l-1.576-1.576-1.576 1.575a.6.6 0 1 1-.848-.848l1.575-1.576-1.575-1.575a.6.6 0 0 1 0-.849Z" clip-rule="evenodd"/>
</svg>
