<svg xmlns="http://www.w3.org/2000/svg" width="12" height="12" fill="currentColor" viewBox="0 0 12 12">
  <path fill-rule="evenodd" d="M6.91 1.5a.5.5 0 0 1 .5-.5h3a.5.5 0 0 1 .5.5v3a.5.5 0 0 1-1 0V2.707L6.765 5.854a.5.5 0 1 1-.707-.708L9.204 2H7.41a.5.5 0 0 1-.5-.5Zm-3.03.41H5a.5.5 0 1 1 0 1H3.9c-.428 0-.72.001-.944.02-.22.017-.332.05-.41.09a1 1 0 0 0-.437.437c-.04.078-.072.19-.09.41C2 4.09 2 4.381 2 4.81v3.2c0 .428 0 .72.019.944.018.22.05.331.09.41a1 1 0 0 0 .437.437c.078.04.19.072.41.09.225.018.516.019.944.019h3.2c.428 0 .72 0 .944-.02.22-.017.332-.05.41-.09a1 1 0 0 0 .437-.436c.04-.079.072-.19.09-.41C9 8.73 9 8.44 9 8.011v-1.1a.5.5 0 1 1 1 0v1.12c0 .403 0 .735-.022 1.006-.023.28-.072.539-.196.782a2 2 0 0 1-.874.874 2.059 2.059 0 0 1-.782.196c-.27.022-.603.022-1.005.022H3.879c-.402 0-.734 0-1.005-.022-.281-.023-.54-.073-.782-.196a2 2 0 0 1-.874-.874c-.124-.243-.173-.501-.196-.782C1 8.766 1 8.434 1 8.03V4.79c0-.402 0-.735.022-1.005.023-.281.072-.54.196-.782a2 2 0 0 1 .874-.874c.243-.124.501-.173.782-.196.27-.022.603-.022 1.005-.022Z" clip-rule="evenodd"/>
</svg>
