<svg xmlns="http://www.w3.org/2000/svg" width="20" height="20" fill="currentColor" viewBox="0 0 20 20">
  <path fill-rule="evenodd" d="M11.242 2.78c0-.43.35-.78.78-.78h5.198c.43 0 .78.35.78.78v5.198a.78.78 0 0 1-1.56 0V4.662l-5.6 5.6A.78.78 0 1 1 9.738 9.16l5.6-5.6h-3.316a.78.78 0 0 1-.78-.78Zm-5.336.798h1.939a.78.78 0 1 1 0 1.56H5.938c-.74 0-1.249 0-1.643.032-.385.032-.592.09-.742.166a1.82 1.82 0 0 0-.795.795c-.076.15-.134.357-.166.742-.032.394-.032.903-.032 1.644v5.545c0 .74 0 1.249.032 1.643.032.385.09.592.166.742.174.342.453.62.795.795.15.076.357.134.742.166.394.032.903.032 1.643.032h5.545c.741 0 1.25 0 1.644-.032.385-.032.592-.09.742-.166a1.82 1.82 0 0 0 .795-.795c.076-.15.134-.357.166-.742.032-.394.032-.903.032-1.643v-1.907a.78.78 0 0 1 1.56 0v1.94c0 .7 0 1.272-.038 1.737-.04.482-.123.917-.33 1.323a3.38 3.38 0 0 1-1.477 1.477c-.406.207-.841.29-1.323.33-.465.038-1.038.038-1.738.038h-5.61c-.7 0-1.273 0-1.738-.038-.482-.04-.917-.123-1.323-.33a3.379 3.379 0 0 1-1.477-1.477c-.207-.406-.29-.841-.33-1.323C1 15.367 1 14.794 1 14.094v-5.61c0-.7 0-1.273.038-1.738.04-.482.123-.917.33-1.323a3.379 3.379 0 0 1 1.477-1.477c.406-.207.841-.29 1.323-.33.465-.038 1.038-.038 1.738-.038Z" clip-rule="evenodd"/>
</svg>
