<svg xmlns="http://www.w3.org/2000/svg" width="16" height="16" fill="currentColor" viewBox="0 0 16 16">
  <path fill-rule="evenodd" d="M8.875 2.5c0-.345.28-.625.625-.625h4c.345 0 .625.28.625.625v4a.625.625 0 0 1-1.25 0V4.009L8.61 8.275a.625.625 0 0 1-.884-.884l4.266-4.266h-2.49a.625.625 0 0 1-.626-.625Zm-4.082.59h1.493a.625.625 0 1 1 0 1.25H4.819c-.57 0-.96 0-1.263.024-.294.025-.45.069-.561.125a1.37 1.37 0 0 0-.601.601c-.057.111-.1.267-.125.562-.024.302-.025.692-.025 1.262v4.267c0 .57 0 .96.025 1.263.024.294.068.45.125.561.132.259.342.47.6.601.112.057.268.1.562.125.303.024.693.025 1.263.025h4.267c.57 0 .96 0 1.262-.025.295-.024.45-.068.562-.125.259-.132.47-.342.6-.6.058-.112.101-.268.126-.562.024-.303.025-.693.025-1.263V9.714a.625.625 0 1 1 1.25 0v1.493c0 .538 0 .98-.03 1.338-.03.373-.095.711-.256 1.028a2.624 2.624 0 0 1-1.148 1.147c-.316.161-.655.226-1.027.257-.359.029-.8.029-1.338.029H4.793c-.538 0-.98 0-1.338-.03-.373-.03-.71-.095-1.028-.256a2.625 2.625 0 0 1-1.147-1.147c-.161-.317-.226-.655-.257-1.028-.029-.359-.029-.8-.029-1.338V6.888c0-.538 0-.98.03-1.338.03-.372.095-.71.256-1.027a2.625 2.625 0 0 1 1.147-1.148c.317-.161.655-.226 1.028-.256.359-.03.8-.03 1.338-.03Z" clip-rule="evenodd"/>
</svg>
