<svg xmlns="http://www.w3.org/2000/svg" width="16" height="16" fill="currentColor" viewBox="0 0 16 16">
  <path fill-rule="evenodd" d="m2.731 4.665 5.27-2.634 5.268 2.634L8 7.3 2.731 4.665ZM8.177.763a.958.958 0 0 0-.353 0 1.225 1.225 0 0 0-.324.12l-.018.009-6.428 3.214a.625.625 0 0 0 0 1.118l6.428 3.214.018.009c.063.032.186.095.324.12a.958.958 0 0 0 .353 0c.138-.025.261-.088.324-.12l.017-.009 2.206-1.103 3.56-3.56L8.518.892 8.501.883c-.063-.032-.186-.095-.324-.12Zm7.038 4.202-.248.248a.625.625 0 0 0 .248-.248Zm-7.597 5.477L1.613 7.439a.625.625 0 1 0-.559 1.118l5.632 2.816.932-.931Zm.701 1.42 2.776-2.776 3.292-1.647a.625.625 0 0 1 .56 1.118l-6.429 3.214-.017.01c-.04.02-.105.053-.182.08Zm-2.924.802-3.782-1.891a.625.625 0 0 0-.559 1.118l3.41 1.704.931-.931Zm.483 1.639.932-.932 1.19.595 6.387-3.193a.625.625 0 0 1 .56 1.118l-6.429 3.214-.017.009a1.227 1.227 0 0 1-.324.12.959.959 0 0 1-.353 0 1.227 1.227 0 0 1-.324-.12l-.018-.01-1.604-.801Z" clip-rule="evenodd"/>
  <path fill-rule="evenodd" d="M15.53 1.47a.75.75 0 0 1 0 1.06l-13 13a.75.75 0 0 1-1.06-1.06l13-13a.75.75 0 0 1 1.06 0Z" clip-rule="evenodd"/>
</svg>
