<svg xmlns="http://www.w3.org/2000/svg" width="20" height="20" fill="currentColor" viewBox="0 0 20 20">
  <path fill-rule="evenodd" d="M3.344 5.832 10 2.504l6.656 3.328L10 9.16 3.344 5.832ZM10.215.985a1.167 1.167 0 0 0-.43 0c-.168.031-.317.108-.396.148l-.023.01-8.035 4.019a.75.75 0 0 0 0 1.341l8.035 4.018.023.01c.079.041.228.117.396.149.142.027.288.027.43 0 .168-.032.318-.108.396-.148l.023-.011 2.84-1.42 4.358-4.358-7.198-3.6-.023-.01c-.079-.04-.228-.117-.396-.148Zm8.657 5.37-.017.016a.698.698 0 0 0 .017-.016Zm-9.374 6.721L2.002 9.328a.75.75 0 1 0-.67 1.342l7.048 3.524 1.118-1.118Zm.955 1.697 3.345-3.345 4.2-2.1a.75.75 0 0 1 .67 1.342l-8.034 4.017-.023.012c-.038.019-.093.047-.158.074Zm-3.732 1.081-4.719-2.36a.75.75 0 0 0-.67 1.342l4.27 2.136 1.119-1.118Zm.65 2.002 1.117-1.118 1.512.756 7.998-4a.75.75 0 0 1 .67 1.342l-8.034 4.018-.023.011c-.079.04-.228.117-.396.148a1.165 1.165 0 0 1-.43 0 1.5 1.5 0 0 1-.396-.148l-.023-.01-1.996-.999Z" clip-rule="evenodd"/>
  <path fill-rule="evenodd" d="M19.413 1.837a.938.938 0 0 1 0 1.326l-16.25 16.25a.938.938 0 0 1-1.326-1.326l16.25-16.25a.937.937 0 0 1 1.326 0Z" clip-rule="evenodd"/>
</svg>
