<svg xmlns="http://www.w3.org/2000/svg" viewBox="0 0 16 16"><path d="M7.791 8.064L4.687 4.957l-2.738-1.06 1.196-.485L2.05 2.32l-2.05.825H0v1.93l7.675 2.968a.894.894 0 0 0 .116.021zM8 12.01a.903.903 0 0 0 .324-.06l2.417-.934-1.392-1.392L8 10.144 0 7.052v1.93l7.675 2.967a.903.903 0 0 0 .324.06zm5.956-2.237l2.042-.79v-1.93L12.563 8.38l-1.425-1.425 4.86-1.879V3.145L8.24.023a.648.648 0 0 0-.484 0l-2.532 1.02L4.178-.006h-2.35L16 14.179v-2.362zM6.304 2.12l1.693-.69 6.075 2.458-4.326 1.674zm1.695 12.003L0 11.03v1.93l7.675 2.967a.897.897 0 0 0 .648 0l5.285-2.043-1.391-1.392z"/></svg>