<svg xmlns="http://www.w3.org/2000/svg" width="12" height="12" fill="currentColor" viewBox="0 0 12 12">
  <path fill-rule="evenodd" d="M2.118 3.502 6 1.56 9.882 3.5 6 5.444 2.118 3.502ZM6.138.544a.75.75 0 0 0-.276 0c-.108.02-.205.07-.252.093l-.012.007-4.821 2.41a.5.5 0 0 0 0 .895l4.82 2.41.013.007a.948.948 0 0 0 .252.093.75.75 0 0 0 .276 0c.109-.02.205-.07.252-.093l.013-.006 1.57-.786 2.763-2.763L6.403.644 6.39.637C6.343.614 6.247.564 6.138.544Zm5.335 3.122-.318.317.069-.034a.5.5 0 0 0 .248-.283ZM5.736 7.81 1.224 5.555a.5.5 0 1 0-.447.894L4.99 8.556l.745-.745Zm.455 1.136 2.2-2.2 2.386-1.192a.5.5 0 1 1 .447.894l-4.821 2.41-.013.007c-.04.02-.113.057-.199.081Zm-2.121.53-2.846-1.42a.5.5 0 1 0-.447.894l2.547 1.274.746-.745Zm.315 1.276.745-.745.87.435 4.777-2.388a.5.5 0 1 1 .447.894l-4.821 2.41-.013.007a.935.935 0 0 1-.252.093.752.752 0 0 1-.276 0c-.108-.02-.205-.07-.252-.093l-.012-.006-1.213-.607Z" clip-rule="evenodd"/>
  <path fill-rule="evenodd" d="M11.648 1.102c.22.22.22.576 0 .796l-9.75 9.75a.562.562 0 1 1-.796-.796l9.75-9.75c.22-.22.576-.22.796 0Z" clip-rule="evenodd"/>
</svg>
