<svg id="Layer_1" data-name="Layer 1" xmlns="http://www.w3.org/2000/svg" width="16" height="16" viewBox="0 0 16 16">
  <path d="M15.95868,12.49065v-.01316l-.85754-.86028-.00946.00367L13.361,9.88463l2.59772-1.01054V7.26092L12.20251,8.72248l-1.73157-1.7371,5.48773-2.13485V3.17876L8.22742.047a.64231.64231,0,0,0-.48248,0l-2.985,1.20905L3.52344.01567H1.68555L3.45062,1.78639,3.43671,1.792l.99817,1.00136.01392-.00563L7.9884,6.33867l-.0022.00086-.02692-.01047,1.17328,1.177.0141-.00545L10.8783,9.2378l-.0141.00545,1.15839,1.16209.0141-.00545,1.73077,1.7363-.0141.00545,1.15857,1.16227.0141-.00545L16,14.37586V12.5321ZM5.75806,2.25743,7.98621,1.3549l6.27625,2.54252-4.94977,1.926ZM4.49451,4.98107,1.70917,3.89742l1.21472-.492L1.92566,2.404,0,3.184v1.6616L7.1203,7.61526Zm3.4917,6.94068a.73129.73129,0,0,0,.26947-.05094l2.23853-.87088-1.15833-1.162-1.34967.52517L0,7.256V8.86913l7.71674,3.00169A.73129.73129,0,0,0,7.98621,11.92176Zm0,2.4639L0,11.27854v1.61317l7.71674,3.00169a.73817.73817,0,0,0,.53894,0l5.12787-1.99488L12.225,12.7363Z"/>
</svg>
