<svg width="20" height="20" viewBox="0 0 20 20" fill="none" xmlns="http://www.w3.org/2000/svg">
  <path d="M16.8748 10.5C16.8748 10.2566 16.8747 10.1115 16.866 10.0039C16.8578 9.90396 16.8455 9.89185 16.8523 9.90528C16.8323 9.86619 16.8006 9.83441 16.7615 9.81446C16.7749 9.82126 16.7628 9.80895 16.6628 9.80078C16.5553 9.79202 16.4101 9.792 16.1667 9.792H14.3748V16.875H16.8748V10.5ZM10.8337 11.875C11.1788 11.8752 11.4587 12.1549 11.4587 12.5C11.4587 12.8451 11.1788 13.1248 10.8337 13.125H9.16675C8.82157 13.125 8.54175 12.8452 8.54175 12.5C8.54175 12.1548 8.82157 11.875 9.16675 11.875H10.8337ZM10.8337 8.542C11.1788 8.54217 11.4587 8.82193 11.4587 9.167C11.4586 9.51192 11.1787 9.79182 10.8337 9.792H9.16675C8.82168 9.792 8.54192 9.51202 8.54175 9.167C8.54175 8.82182 8.82157 8.542 9.16675 8.542H10.8337ZM10.8337 5.20801C11.1787 5.20819 11.4586 5.48809 11.4587 5.83301C11.4587 6.17808 11.1788 6.45784 10.8337 6.45801H9.16675C8.82157 6.45801 8.54175 6.17819 8.54175 5.83301C8.54192 5.48798 8.82168 5.20801 9.16675 5.20801H10.8337ZM3.12476 16.875H5.62476V9.792H3.83374C3.59007 9.792 3.44428 9.79199 3.33667 9.80078C3.23663 9.80898 3.22536 9.82141 3.23901 9.81446C3.19991 9.83438 3.16818 9.86621 3.14819 9.90528C3.14538 9.9154 3.13941 9.94403 3.13452 10.0039C3.12576 10.1115 3.12476 10.2566 3.12476 10.5V16.875ZM13.1248 5.167C13.1248 4.69006 13.1244 4.3696 13.1042 4.12305C13.0847 3.88378 13.0499 3.76883 13.0115 3.69336C12.9116 3.49752 12.7523 3.33809 12.5564 3.23828C12.4809 3.19984 12.3659 3.16506 12.1267 3.14551C11.8803 3.12541 11.5603 3.125 11.0837 3.125H8.91675C8.43972 3.125 8.11937 3.12537 7.8728 3.14551C7.63396 3.16504 7.51955 3.1999 7.44409 3.23828C7.24825 3.33807 7.0889 3.49758 6.98901 3.69336C6.95056 3.76883 6.91481 3.88378 6.89526 4.12305C6.87513 4.36959 6.87476 4.69009 6.87476 5.167V16.875H13.1248V5.167ZM14.3748 8.542H16.1667C16.3898 8.542 16.5951 8.54078 16.7654 8.55469C16.9428 8.56921 17.1371 8.60253 17.3289 8.7002C17.6033 8.84001 17.8267 9.06349 17.9666 9.33789C18.0642 9.52964 18.0975 9.7239 18.1121 9.90137C18.126 10.0717 18.1248 10.277 18.1248 10.5V16.875H18.3337C18.6788 16.8752 18.9587 17.1549 18.9587 17.5C18.9587 17.8451 18.6788 18.1248 18.3337 18.125H1.66675C1.32157 18.125 1.04175 17.8452 1.04175 17.5C1.04175 17.1548 1.32157 16.875 1.66675 16.875H1.87476V10.5C1.87476 10.277 1.87451 10.0717 1.88843 9.90137C1.90296 9.72387 1.93622 9.52967 2.03394 9.33789C2.17375 9.06349 2.39723 8.84001 2.67163 8.7002C2.86341 8.60257 3.05763 8.56919 3.23511 8.55469C3.40542 8.54078 3.6107 8.542 3.83374 8.542H5.62476V5.167C5.62476 4.71077 5.62491 4.3307 5.65015 4.02149C5.67601 3.70492 5.73155 3.40703 5.87476 3.12598C6.09447 2.69486 6.44557 2.34468 6.87671 2.125C7.1577 1.98187 7.45474 1.92528 7.77124 1.89942C8.0805 1.87416 8.46039 1.875 8.91675 1.875H11.0837C11.54 1.875 11.92 1.87415 12.2292 1.89942C12.5457 1.92529 12.8428 1.98184 13.1238 2.125C13.5549 2.34471 13.906 2.69483 14.1257 3.12598C14.2689 3.40703 14.3245 3.70492 14.3503 4.02149C14.3756 4.33069 14.3748 4.71078 14.3748 5.167V8.542Z" fill="currentColor"/>
</svg>
