<svg width="16" height="16" viewBox="0 0 16 16" fill="none" xmlns="http://www.w3.org/2000/svg">
  <path d="M13.4926 8.00293C13.4887 7.95618 13.4841 7.9334 13.4818 7.92481C13.4658 7.89345 13.4399 7.86754 13.4086 7.85157C13.4 7.84924 13.3772 7.84464 13.3304 7.84082C13.2444 7.8338 13.1279 7.83301 12.933 7.83301H11.5004V13.5H13.5004V8.40039C13.5004 8.20551 13.4996 8.08901 13.4926 8.00293ZM8.66638 9.5C8.94252 9.5 9.16638 9.72386 9.16638 10C9.16638 10.2761 8.94252 10.5 8.66638 10.5H7.33337C7.05723 10.5 6.83337 10.2761 6.83337 10C6.83337 9.72386 7.05723 9.5 7.33337 9.5H8.66638ZM8.66638 6.83301C8.94242 6.83301 9.16621 7.05702 9.16638 7.33301C9.16638 7.60915 8.94252 7.83301 8.66638 7.83301H7.33337C7.05723 7.83301 6.83337 7.60915 6.83337 7.33301C6.83355 7.05702 7.05734 6.83301 7.33337 6.83301H8.66638ZM8.66638 4.167C8.94252 4.167 9.16638 4.39085 9.16638 4.667C9.16621 4.94299 8.94242 5.167 8.66638 5.167H7.33337C7.05734 5.167 6.83355 4.94299 6.83337 4.667C6.83337 4.39085 7.05723 4.167 7.33337 4.167H8.66638ZM2.50037 13.5H4.50037V7.83301H3.06677C2.87184 7.83301 2.7554 7.83379 2.66931 7.84082C2.5893 7.84738 2.58027 7.85713 2.59119 7.85157C2.55983 7.86754 2.53392 7.89345 2.51794 7.92481C2.52351 7.91388 2.51376 7.92268 2.5072 8.00293C2.50018 8.08901 2.50037 8.20553 2.50037 8.40039V13.5ZM10.5004 4.13379C10.5004 3.75217 10.4999 3.49511 10.4838 3.29785C10.4681 3.10694 10.4402 3.01541 10.4095 2.95508C10.3297 2.79835 10.202 2.67072 10.0453 2.59082C9.98491 2.56006 9.89295 2.53224 9.70154 2.5166C9.50431 2.5005 9.24808 2.5 8.86658 2.5H7.13318C6.75167 2.5 6.49544 2.50049 6.29822 2.5166C6.10724 2.53222 6.01581 2.56013 5.95544 2.59082C5.79867 2.67071 5.67108 2.79831 5.59119 2.95508C5.56045 3.0154 5.53261 3.10678 5.51697 3.29785C5.50085 3.49511 5.50037 3.75217 5.50037 4.13379V13.5H10.5004V4.13379ZM11.5004 6.83301H12.933C13.1112 6.83301 13.2753 6.83266 13.4115 6.84375C13.5536 6.85536 13.7092 6.88275 13.8627 6.96094C14.0822 7.07279 14.2606 7.25118 14.3724 7.47071C14.4506 7.62421 14.478 7.77982 14.4896 7.92188C14.5007 8.05803 14.5004 8.22217 14.5004 8.40039V13.5H14.6664C14.9425 13.5 15.1664 13.7239 15.1664 14C15.1664 14.2761 14.9425 14.5 14.6664 14.5H1.33337C1.05723 14.5 0.833374 14.2761 0.833374 14C0.833374 13.7239 1.05723 13.5 1.33337 13.5H1.50037V8.40039C1.50037 8.22215 1.50001 8.05804 1.51111 7.92188C1.52271 7.77986 1.54918 7.62417 1.62732 7.47071C1.73915 7.25123 1.91763 7.0728 2.13708 6.96094C2.29062 6.88271 2.44617 6.85536 2.58826 6.84375C2.72448 6.83263 2.88841 6.83301 3.06677 6.83301H4.50037V4.13379C4.50037 3.76867 4.49968 3.46422 4.5199 3.2168C4.54059 2.96361 4.58507 2.72577 4.69958 2.50098C4.87535 2.15602 5.15638 1.87597 5.50134 1.7002C5.72616 1.58566 5.96393 1.54022 6.21716 1.51953C6.46449 1.49934 6.76827 1.5 7.13318 1.5H8.86658C9.2317 1.5 9.53615 1.49932 9.78357 1.51953C10.0367 1.54024 10.2747 1.58569 10.4994 1.7002C10.8441 1.87597 11.1245 2.15619 11.3002 2.50098C11.4147 2.72579 11.4592 2.96359 11.4799 3.2168C11.5001 3.46422 11.5004 3.76867 11.5004 4.13379V6.83301Z" fill="currentColor"/>
</svg>
