<svg width="12" height="12" viewBox="0 0 12 12" fill="none" xmlns="http://www.w3.org/2000/svg">
  <path d="M10.1191 6.00195C10.1142 5.94196 10.1072 5.93517 10.1113 5.94336C10.0993 5.91984 10.0802 5.90066 10.0566 5.88867C10.0648 5.89285 10.058 5.88578 9.99805 5.88086C9.93351 5.87559 9.84628 5.875 9.7002 5.875H8.625V10.125H10.125V6.29981C10.125 6.15372 10.1244 6.06649 10.1191 6.00195ZM6.5 7.125C6.70711 7.125 6.875 7.29289 6.875 7.5C6.875 7.70711 6.70711 7.875 6.5 7.875H5.5C5.29289 7.875 5.125 7.70711 5.125 7.5C5.125 7.29289 5.29289 7.125 5.5 7.125H6.5ZM6.5 5.125C6.70711 5.125 6.875 5.29289 6.875 5.5C6.875 5.70711 6.70711 5.875 6.5 5.875H5.5C5.29289 5.875 5.125 5.70711 5.125 5.5C5.125 5.29289 5.29289 5.125 5.5 5.125H6.5ZM6.5 3.125C6.70711 3.125 6.875 3.29289 6.875 3.5C6.875 3.70711 6.70711 3.875 6.5 3.875H5.5C5.29289 3.875 5.125 3.70711 5.125 3.5C5.125 3.29289 5.29289 3.125 5.5 3.125H6.5ZM1.875 10.125H3.375V5.875H2.2998C2.15372 5.875 2.06649 5.87559 2.00195 5.88086C1.94196 5.88578 1.93517 5.89285 1.94336 5.88867C1.91984 5.90066 1.90066 5.91984 1.88867 5.94336C1.89284 5.93517 1.88578 5.94196 1.88086 6.00195C1.87559 6.06649 1.875 6.15372 1.875 6.29981V10.125ZM7.875 3.09961C7.875 2.81361 7.87439 2.62151 7.8623 2.47363C7.85057 2.33016 7.82971 2.26109 7.80664 2.21582C7.74678 2.09857 7.65143 2.00322 7.53418 1.94336C7.48891 1.9203 7.41984 1.89943 7.27637 1.8877C7.1285 1.87562 6.93639 1.875 6.65039 1.875H5.34961C5.06361 1.875 4.8715 1.87562 4.72363 1.8877C4.58016 1.89943 4.51109 1.9203 4.46582 1.94336C4.34857 2.00322 4.25322 2.09857 4.19336 2.21582C4.17029 2.26109 4.14943 2.33016 4.1377 2.47363C4.12561 2.62151 4.125 2.81361 4.125 3.09961V10.125H7.875V3.09961ZM8.625 5.125H9.7002C9.83379 5.125 9.95653 5.1245 10.0586 5.13281C10.1652 5.14152 10.2823 5.16203 10.3975 5.2207C10.5619 5.30455 10.6955 5.43814 10.7793 5.60254C10.838 5.71769 10.8585 5.83484 10.8672 5.94141C10.8755 6.04348 10.875 6.16621 10.875 6.29981V10.125H11C11.2071 10.125 11.375 10.2929 11.375 10.5C11.375 10.7071 11.2071 10.875 11 10.875H1C0.792893 10.875 0.625 10.7071 0.625 10.5C0.625 10.2929 0.792893 10.125 1 10.125H1.125V6.29981C1.125 6.16621 1.1245 6.04348 1.13281 5.94141C1.14152 5.83484 1.16203 5.71769 1.2207 5.60254C1.30455 5.43814 1.43814 5.30455 1.60254 5.2207C1.71769 5.16203 1.83484 5.14152 1.94141 5.13281C2.04347 5.1245 2.16621 5.125 2.2998 5.125H3.375V3.09961C3.375 2.82616 3.37453 2.59848 3.38965 2.41309C3.40516 2.22328 3.43862 2.04451 3.52441 1.87598C3.65624 1.61726 3.86725 1.40624 4.12598 1.27442C4.2945 1.18863 4.47328 1.15516 4.66309 1.13965C4.84848 1.12453 5.07616 1.125 5.34961 1.125H6.65039C6.92384 1.125 7.15152 1.12453 7.33691 1.13965C7.52672 1.15516 7.7055 1.18863 7.87402 1.27442C8.13275 1.40624 8.34376 1.61726 8.47559 1.87598C8.56138 2.04451 8.59484 2.22328 8.61035 2.41309C8.62547 2.59848 8.625 2.82616 8.625 3.09961V5.125Z" fill="currentColor"/>
</svg>
