<svg xmlns="http://www.w3.org/2000/svg" width="20" height="20" fill="currentColor" viewBox="0 0 20 20">
  <g class="overtime-20px">
    <path fill-rule="evenodd" d="M10 3.25a6.75 6.75 0 1 0 5.25 10.993.75.75 0 0 1 1.166.943 8.25 8.25 0 1 1 1.777-6.154l.397-.396a.75.75 0 0 1 1.06 1.06l-1.665 1.668a.75.75 0 0 1-1.061 0l-1.667-1.667a.75.75 0 0 1 1.06-1.06l.359.357A6.752 6.752 0 0 0 10 3.25Zm0 1.833a.75.75 0 0 1 .75.75V9.6l2.166 1.444a.75.75 0 1 1-.832 1.248l-2.5-1.667A.75.75 0 0 1 9.25 10V5.833a.75.75 0 0 1 .75-.75Z" class="Icon (Stroke)" clip-rule="evenodd"/>
  </g>
</svg>
