<svg xmlns="http://www.w3.org/2000/svg" width="12" height="12" fill="currentColor" viewBox="0 0 12 12">
  <g class="overtime-12px">
    <path fill-rule="evenodd" d="M6 2a4 4 0 1 0 3.111 6.514.5.5 0 0 1 .778.63 5 5 0 1 1 1.064-3.831l.166-.167a.5.5 0 1 1 .707.708l-1 1a.5.5 0 0 1-.707 0l-1-1a.5.5 0 0 1 .707-.708l.104.105A4.001 4.001 0 0 0 6 2Zm0 1a.5.5 0 0 1 .5.5v2.232l1.277.852a.5.5 0 0 1-.554.832l-1.5-1A.5.5 0 0 1 5.5 6V3.5A.5.5 0 0 1 6 3Z" class="Icon (Stroke)" clip-rule="evenodd"/>
  </g>
</svg>
