<svg xmlns="http://www.w3.org/2000/svg" width="16" height="16" fill="currentColor" viewBox="0 0 16 16">
  <g class="overtime">
    <path fill-rule="evenodd" d="M8 2.625a5.375 5.375 0 1 0 4.18 8.753.625.625 0 0 1 .973.787 6.625 6.625 0 1 1 1.421-4.993l.28-.28a.625.625 0 1 1 .884.883L14.405 9.11a.625.625 0 0 1-.883 0l-1.334-1.334a.625.625 0 0 1 .883-.884l.233.233A5.376 5.376 0 0 0 8 2.625Zm0 1.417c.345 0 .625.28.625.625v2.999l1.722 1.147a.625.625 0 1 1-.694 1.04l-2-1.333A.625.625 0 0 1 7.375 8V4.667c0-.346.28-.625.625-.625Z" class="Icon (Stroke)" clip-rule="evenodd"/>
  </g>
</svg>
