<svg xmlns="http://www.w3.org/2000/svg" viewBox="0 0 16 16"><path d="M11.176 3.056a.188.188 0 0 1-.078-.076V1.537l-.129-.012c-.993-.161-4.402-.352-6.647 1.797a6.74 6.74 0 0 0-1.926 3.17 8.447 8.447 0 0 0 .06 4.28 5.93 5.93 0 0 0 1.78 2.745A6.08 6.08 0 0 0 8.212 15a5.986 5.986 0 0 0 5.98-5.98 6.978 6.978 0 0 0-3.015-5.964zM8.21 13.584a4.563 4.563 0 1 1 4.563-4.563 4.568 4.568 0 0 1-4.563 4.563z"/><path stroke="currentColor" fill="none" stroke-linecap="round" stroke-linejoin="round" stroke-width="1.3" d="M8.242 6.833v2.688l-1.168 1.168"/></svg>