<svg id="Layer_1" data-name="Layer 1" xmlns="http://www.w3.org/2000/svg" width="16" height="16" viewBox="0 0 16 16">
  <title>Overtime</title>
  <path d="M11.17567,3.05638a.18808.18808,0,0,1-.07808-.07612v-1.443l-.12845-.01233c-.99269-.161-4.402-.35154-6.64672,1.797A6.7403,6.7403,0,0,0,2.39613,6.49227a8.44723,8.44723,0,0,0,.05962,4.27888,5.9309,5.9309,0,0,0,1.78106,2.74619A6.08036,6.08036,0,0,0,8.21143,15a5.98577,5.98577,0,0,0,5.97919-5.97919A6.978,6.978,0,0,0,11.17567,3.05638ZM8.21143,13.5838a4.56253,4.56253,0,1,1,4.563-4.563A4.56783,4.56783,0,0,1,8.21143,13.5838Z"/>
  <polyline points="8.242 6.833 8.242 9.521 7.074 10.689" stroke="currentColor" fill="none" stroke-linecap="round" stroke-linejoin="round" stroke-width="1.3"/>
</svg>
