<?xml version="1.0" encoding="utf-8"?>
<!-- Generated by IcoMoon.io -->
<!DOCTYPE svg PUBLIC "-//W3C//DTD SVG 1.1//EN" "http://www.w3.org/Graphics/SVG/1.1/DTD/svg11.dtd">
<svg version="1.1" xmlns="http://www.w3.org/2000/svg" xmlns:xlink="http://www.w3.org/1999/xlink" width="16" height="16" viewBox="0 0 16 16">
	<path d="M10.75732 14.99023a4.97772 4.97772 0 0 1 -3.53027 -1.46l-6-6A3.57835 3.57835 0 0 1 6.2876 2.46973l6 6a2.16413 2.16413 0 0 1 -3.06055 3.06055l-6-6L4.288 4.47l6 6a.66429 .66429 0 1 0 .93945 -.93945l-6-6a2.12855 2.12855 0 0 0 -2.93945 0 2.08061 2.08061 0 0 0 0 2.93945l6 6a3.49272 3.49272 0 1 0 4.93945 -4.93945l-6-6L8.288.47l6 6a4.99024 4.99024 0 0 1 -3.53027 8.52051"/>
</svg>
