<svg xmlns="http://www.w3.org/2000/svg" width="12" height="12" fill="currentColor" viewBox="0 0 12 12">
  <path fill-rule="evenodd" d="M6 10.25a4.25 4.25 0 1 0 0-8.5 4.25 4.25 0 0 0 0 8.5Zm0 1A5.25 5.25 0 1 0 6 .75a5.25 5.25 0 0 0 0 10.5Z" clip-rule="evenodd"/>
  <path d="M6.428 3.75c-.633 0-1.13.278-1.416.749v-.657h-.737V9h.752V7.14c.288.455.78.724 1.4.724 1.095 0 1.858-.837 1.858-2.057S7.522 3.75 6.428 3.75ZM6.27 7.189c-.733 0-1.244-.565-1.244-1.382s.51-1.382 1.244-1.382c.729 0 1.231.565 1.231 1.382S7 7.189 6.271 7.189Z"/>
</svg>
