<svg xmlns="http://www.w3.org/2000/svg" width="16" height="16" fill="currentColor" viewBox="0 0 16 16">
  <path fill-rule="evenodd" d="M8 13.75a5.75 5.75 0 1 0 0-11.5 5.75 5.75 0 0 0 0 11.5ZM8 15A7 7 0 1 0 8 1a7 7 0 0 0 0 14Z" clip-rule="evenodd"/>
  <path d="M8.57 5c-.843 0-1.507.371-1.887.998v-.875H5.7V12h1.003V9.52c.384.607 1.039.965 1.868.965 1.458 0 2.476-1.115 2.476-2.742C11.047 6.115 10.03 5 8.571 5Zm-.209 4.585c-.977 0-1.658-.752-1.658-1.842S7.383 5.9 8.361 5.9c.972 0 1.643.752 1.643 1.842s-.67 1.842-1.643 1.842Z"/>
</svg>
