<svg xmlns="http://www.w3.org/2000/svg" width="20" height="20" fill="currentColor" viewBox="0 0 20 20">
  <path fill-rule="evenodd" d="M10 17.25a7.25 7.25 0 1 0 0-14.5 7.25 7.25 0 0 0 0 14.5Zm0 1.5a8.75 8.75 0 1 0 0-17.5 8.75 8.75 0 0 0 0 17.5Z" clip-rule="evenodd"/>
  <path d="M10.713 6.25c-1.054 0-1.884.464-2.36 1.248V6.404H7.125V15h1.254v-3.1c.48.759 1.298 1.207 2.334 1.207 1.823 0 3.096-1.395 3.096-3.429S12.536 6.25 10.713 6.25Zm-.262 5.731c-1.222 0-2.072-.94-2.072-2.303 0-1.362.85-2.302 2.072-2.302 1.215 0 2.053.94 2.053 2.302 0 1.363-.838 2.303-2.053 2.303Z"/>
</svg>
