<svg xmlns="http://www.w3.org/2000/svg" width="20" height="20" fill="currentColor" viewBox="0 0 20 20">
  <path fill-rule="evenodd" d="M5 2.375c-.76 0-1.375.616-1.375 1.375v12.5c0 .76.616 1.375 1.375 1.375h2.5c.76 0 1.375-.616 1.375-1.375V3.75c0-.76-.616-1.375-1.375-1.375H5Zm.125 13.75V3.875h2.25v12.25h-2.25ZM12.5 2.375c-.76 0-1.375.616-1.375 1.375v12.5c0 .76.616 1.375 1.375 1.375H15c.76 0 1.375-.616 1.375-1.375V3.75c0-.76-.616-1.375-1.375-1.375h-2.5Zm.125 13.75V3.875h2.25v12.25h-2.25Z" clip-rule="evenodd"/>
</svg>
