<svg xmlns="http://www.w3.org/2000/svg" width="20" height="20" fill="currentColor" viewBox="0 0 20 20">
  <path fill-rule="evenodd" d="M12.331 1.651c.866-.88 2.27-.855 3.122-.004l.014.014 2.31 2.455a2.182 2.182 0 0 1-.021 3.093l-2.89 2.894-8.103 8.087a.75.75 0 0 1-.53.22H1.75a.75.75 0 0 1-.75-.75v-4.4c0-.2.08-.39.22-.53L9.364 4.6l2.967-2.949Zm2.06 1.056a.701.701 0 0 0-.992-.002l-.007.007-2.436 2.42 3.379 3.38 2.37-2.374a.682.682 0 0 0-.001-.974l-.007-.007-2.306-2.45Zm-1.117 6.865L5.923 16.91H2.5v-3.338l7.393-7.38 3.381 3.381Z" clip-rule="evenodd"/>
</svg>
