<?xml version="1.0" encoding="utf-8"?>
<!DOCTYPE svg PUBLIC "-//W3C//DTD SVG 1.1//EN" "http://www.w3.org/Graphics/SVG/1.1/DTD/svg11.dtd">
<svg version="1.1" xmlns="http://www.w3.org/2000/svg" xmlns:xlink="http://www.w3.org/1999/xlink" width="16" height="16" viewBox="0 0 16 16">
  <path d="M15.61877,3.48481,12.5236.38964a1.40575,1.40575,0,0,0-1.94284,0L1.43588,9.53452a1.42849,1.42849,0,0,0-.38085.68407L.02623,14.62478A.96839.96839,0,0,0,.96616,15.8147a.993.993,0,0,0,.17724-.01611l4.519-.83055h.00049a1.66258,1.66258,0,0,0,.876-.46044l9.07994-9.07994A1.37536,1.37536,0,0,0,15.61877,3.48481ZM6.47386,12.45144,3.55719,9.53428,10.1057,2.98576l2.91692,2.91655ZM2.966,13.93817,1.9573,12.92949l.53912-2.33444.00024-.00024,2.896,2.89647-.00226.00119Z"/>
</svg>
