<svg xmlns="http://www.w3.org/2000/svg" width="12" height="12" fill="currentColor" viewBox="0 0 12 12">
  <path fill-rule="evenodd" d="M7.46 1.385a1.3 1.3 0 0 1 1.844-.003l.009.009 1.314 1.396a1.289 1.289 0 0 1-.013 1.827L4.36 10.86a.474.474 0 0 1-.335.139h-2.55A.474.474 0 0 1 1 10.526V8.023c0-.126.05-.247.14-.336l4.633-4.625L7.46 1.385Zm1.173.666a.352.352 0 0 0-.497 0l-.005.004L6.78 3.4l1.855 1.855L9.95 3.937a.34.34 0 0 0-.001-.487l-.009-.01-1.307-1.39Zm.001.002.004.004.335-.336-.11.104.106-.107M7.964 5.925l-4.135 4.127h-1.88V8.22l4.158-4.152 1.857 1.857Z" clip-rule="evenodd"/>
</svg>
