<svg xmlns="http://www.w3.org/2000/svg" width="16" height="16" fill="currentColor" viewBox="0 0 16 16">
  <path fill-rule="evenodd" d="M10.07 1.552a1.786 1.786 0 0 1 2.533-.004l.012.012 1.848 1.964a1.77 1.77 0 0 1-.018 2.51l-2.312 2.315-6.482 6.47a.625.625 0 0 1-.442.182H1.623a.625.625 0 0 1-.625-.625v-3.52c0-.165.066-.325.184-.442l6.515-6.503 2.373-2.36Zm1.648.88a.536.536 0 0 0-.758-.002l-.006.006-1.93 1.919 2.667 2.667 1.878-1.88a.52.52 0 0 0 0-.745l-.006-.006-1.845-1.96Zm-.911 5.474-2.67-2.67-5.889 5.88v2.635h2.703l5.856-5.845Z" clip-rule="evenodd"/>
</svg>
