<?xml version="1.0" encoding="utf-8"?>
<!DOCTYPE svg PUBLIC "-//W3C//DTD SVG 1.1//EN" "http://www.w3.org/Graphics/SVG/1.1/DTD/svg11.dtd">
<svg version="1.1" xmlns="http://www.w3.org/2000/svg" xmlns:xlink="http://www.w3.org/1999/xlink" width="16" height="16" viewBox="0 0 16 16">
	<path d="M15.46625,4.09451,14.30377,2.93234l1.00177-1.00177a.55662.55662,0,0,0,0-.78723L14.32526.16306a.55662.55662,0,0,0-.78723,0L7.09045,6.61057A4.78,4.78,0,0,0,4.84308,6.0314a4.84311,4.84311,0,1,0,4.84308,4.84314,4.79909,4.79909,0,0,0-.75452-2.57013l2.58258-2.58252,1.2041,1.204a.74988.74988,0,1,0,1.06049-1.06049l-1.204-1.2041.66846-.66852L14.40576,5.155a.74988.74988,0,1,0,1.06049-1.06049ZM4.84308,14.21768a3.34314,3.34314,0,1,1,3.34314-3.34314A3.3472,3.3472,0,0,1,4.84308,14.21768Z"/>
</svg>
