<svg xmlns="http://www.w3.org/2000/svg" width="20" height="21" fill="currentColor" viewBox="0 0 20 21">
  <path fill-rule="evenodd" d="M5.796 9.115a.727.727 0 0 0 .365-.513l.3-2.022c.06-.405-.266-.767-.691-.767-.779 0-1.41-.606-1.41-1.354V3.104c0-.748.631-1.354 1.41-1.354h8.46c.778 0 1.41.606 1.41 1.354V4.46c0 .748-.632 1.354-1.41 1.354-.425 0-.752.362-.692.767l.3 2.022c.033.215.172.4.366.513 1.648.958 2.342 2.424 2.634 3.49.198.723-.42 1.335-1.198 1.335h-4.86v4.53a.781.781 0 0 1-1.562 0v-4.53H4.36c-.779 0-1.396-.612-1.198-1.336.292-1.065.986-2.531 2.634-3.49Z" clip-rule="evenodd"/>
</svg>
