<svg id="Layer_1" data-name="Layer 1" xmlns="http://www.w3.org/2000/svg" width="16" height="16" viewBox="0 0 16 16">
  <title>pin filled</title>
  <path d="M12.16758,8.44024a2.648,2.648,0,0,0-1.117-.71976c-.44512-.18156-.9822-.35231-1.09382-.877A9.51781,9.51781,0,0,1,9.81261,4.7303a5.35747,5.35747,0,0,1,.26745-2.13177,1.51615,1.51615,0,0,1,.4228-.24287,1.668,1.668,0,0,0,.81569-.61785,1.15608,1.15608,0,0,0-.975-1.73516H5.53728a1.16391,1.16391,0,0,0-.80237,1.95871,2.14394,2.14394,0,0,0,.64307.3943,1.519,1.519,0,0,1,.42183.24189,5.37354,5.37354,0,0,1,.26844,2.1446A13.19086,13.19086,0,0,1,6.012,6.23921c-.01823.18639-.04027.373-.076.557-.10307.53024-.65911.74093-1.10569.92428a2.63943,2.63943,0,0,0-1.116.71977,2.38335,2.38335,0,0,0-.43166,1.61554l.03048.34415H6.46255l1.11308,5.59687h.61849l1.21141-5.59687h3.16225l.03048-.34415A2.38169,2.38169,0,0,0,12.16758,8.44024Z"/>
</svg>
