<svg xmlns="http://www.w3.org/2000/svg" width="16" height="17" fill="currentColor" viewBox="0 0 16 17">
  <path fill-rule="evenodd" d="M4.637 7.392a.581.581 0 0 0 .292-.41l.24-1.618a.545.545 0 0 0-.553-.613c-.623 0-1.128-.485-1.128-1.084V2.584c0-.599.505-1.084 1.128-1.084h6.768c.623 0 1.128.485 1.128 1.084v1.083c0 .599-.505 1.084-1.128 1.084-.34 0-.602.29-.554.613l.241 1.617c.026.172.137.32.292.41 1.319.767 1.873 1.94 2.107 2.792.159.579-.335 1.069-.958 1.069H8.625v3.623a.625.625 0 1 1-1.25 0v-3.623H3.488c-.623 0-1.117-.49-.958-1.069.234-.852.789-2.025 2.107-2.791Z" clip-rule="evenodd"/>
</svg>
