<svg xmlns="http://www.w3.org/2000/svg" width="12" height="13" fill="currentColor" viewBox="0 0 12 13">
  <path fill-rule="evenodd" d="M3.478 5.669a.436.436 0 0 0 .219-.308l.18-1.213a.409.409 0 0 0-.415-.46c-.467 0-.846-.364-.846-.813v-.812c0-.45.379-.813.846-.813h5.076c.467 0 .846.364.846.813v.812c0 .45-.379.813-.846.813a.409.409 0 0 0-.415.46l.18 1.213c.02.13.103.24.22.308.988.575 1.404 1.455 1.58 2.093.119.435-.252.802-.72.802H6.47v2.717a.469.469 0 1 1-.938 0V8.564H2.616c-.467 0-.838-.367-.719-.802.176-.638.592-1.518 1.58-2.093Z" clip-rule="evenodd"/>
</svg>
