<svg id="Layer_1" data-name="Layer 1" xmlns="http://www.w3.org/2000/svg" width="16" height="16" viewBox="0 0 16 16">
  <title>pin empty</title>
  <path d="M10.07,1.22438a.694.694,0,0,1,.47882,1.1669c-.25708.25241-.69837.3173-.9497.56806-.36356.36368-.337,2.13863-.337,2.13863s-.03367,2.04707.3203,2.376c.71344.66292,1.33241.53672,1.856,1.13846a1.83827,1.83827,0,0,1,.30278,1.18593H8.96486L7.88822,14.77564H7.8308L6.8977,9.79835h-2.772a1.83732,1.83732,0,0,1,.30278-1.18593c.52343-.60173,1.1424-.47554,1.8557-1.13846.354-.32892.3203-2.376.3203-2.376s.02671-1.77494-.337-2.13863c-.25133-.25077-.69262-.31552-.95542-.57379a.72348.72348,0,0,1-.12642-.76468.67664.67664,0,0,1,.61109-.3965H10.07m0-1.22249H5.79679A1.93528,1.93528,0,0,0,3.89832,1.6892,2.083,2.083,0,0,0,5.29768,3.79282a7.93713,7.93713,0,0,1,.0845,1.28678A10.20774,10.20774,0,0,1,5.2893,6.70833a2.43617,2.43617,0,0,1-.45681.22219,3.2125,3.2125,0,0,0-1.32633.87958,2.99,2.99,0,0,0-.598,2.09706l.09953,1.11368H5.88311l1.41044,4.97729h1.0824l1.57523-4.97729h2.90824L12.95878,9.907a2.99079,2.99079,0,0,0-.59783-2.09659,3.21369,3.21369,0,0,0-1.32673-.87989,2.43483,2.43483,0,0,1-.45695-.22223,9.94219,9.94219,0,0,1-.09286-1.59068,7.11779,7.11779,0,0,1,.0946-1.32935,2.50053,2.50053,0,0,1,.42717-.21771,2.1904,2.1904,0,0,0,.4463-.35047A1.90421,1.90421,0,0,0,10.07.00189Z"/>
</svg>
