<svg xmlns="http://www.w3.org/2000/svg" width="12" height="12" fill="currentColor" viewBox="0 0 12 12">
  <g class="pin-filled-12px">
    <path fill-rule="evenodd" d="M3.707 5.682a.412.412 0 0 0 .199-.291l.164-1.149a.381.381 0 0 0-.377-.435.77.77 0 0 1-.77-.769V2.27a.77.77 0 0 1 .77-.769h4.614a.77.77 0 0 1 .77.77v.768a.77.77 0 0 1-.77.77.381.381 0 0 0-.377.434l.164 1.148a.412.412 0 0 0 .199.292c.899.544 1.277 1.377 1.437 1.981.108.41-.229.759-.654.759H6.47v2.336a.469.469 0 1 1-.938 0V8.422H2.924c-.425 0-.762-.348-.654-.759.16-.604.538-1.437 1.437-1.981Z" class="Union" clip-rule="evenodd"/>
  </g>
</svg>
