<svg xmlns="http://www.w3.org/2000/svg" width="20" height="20" fill="currentColor" viewBox="0 0 20 20">
  <g class="pin-filled-20px">
    <path fill-rule="evenodd" d="M6.178 9.97a.687.687 0 0 0 .332-.486l.273-1.914a.635.635 0 0 0-.628-.725 1.282 1.282 0 0 1-1.282-1.281V4.282C4.873 3.574 5.447 3 6.155 3h7.69c.708 0 1.282.574 1.282 1.282v1.282c0 .707-.574 1.281-1.282 1.281a.635.635 0 0 0-.629.725l.274 1.914a.682.682 0 0 0 .332.485c1.498.907 2.129 2.295 2.394 3.303.18.684-.381 1.264-1.089 1.264h-4.346v3.894a.781.781 0 1 1-1.562 0v-3.894H4.873c-.708 0-1.27-.58-1.089-1.264.265-1.008.896-2.396 2.394-3.302Z" class="Union" clip-rule="evenodd"/>
  </g>
</svg>
