<svg xmlns="http://www.w3.org/2000/svg" width="16" height="16" fill="currentColor" viewBox="0 0 16 16">
  <g class="pin-filled">
    <path fill-rule="evenodd" d="M4.943 7.576a.55.55 0 0 0 .265-.389l.219-1.53a.508.508 0 0 0-.503-.58c-.567 0-1.026-.46-1.026-1.026V3.025C3.898 2.46 4.358 2 4.924 2h6.152c.567 0 1.026.46 1.026 1.025v1.026c0 .566-.46 1.025-1.026 1.025a.508.508 0 0 0-.503.58l.219 1.531a.55.55 0 0 0 .265.389c1.199.725 1.703 1.835 1.916 2.641.144.548-.305 1.012-.871 1.012H8.625v3.115a.625.625 0 1 1-1.25 0V11.23H3.898c-.566 0-1.015-.464-.87-1.011.212-.807.716-1.917 1.915-2.642Z" class="Union" clip-rule="evenodd"/>
  </g>
</svg>
