<svg xmlns="http://www.w3.org/2000/svg" width="20" height="21" fill="currentColor" viewBox="0 0 20 21">
  <path fill-rule="evenodd" d="M6.052 9.397a2.37 2.37 0 0 0 1.99-.395l1.776-1.333a2.31 2.31 0 0 0 .323-3.404l.89-.89 6.093 6.095-.89.89a2.31 2.31 0 0 0-3.403.322l-1.333 1.776a2.37 2.37 0 0 0-.395 1.99c.284 1.155.047 2.174-.311 2.96l-7.699-7.7c.785-.358 1.804-.595 2.959-.31Zm1.041-1.66a.79.79 0 0 1-.663.125c-1.954-.48-3.594.135-4.628.738-.702.41-.717 1.336-.142 1.91l3.566 3.567-3.124 3.124a.79.79 0 0 0 1.118 1.118l3.124-3.124 3.645 3.645c.575.575 1.502.56 1.911-.142.604-1.034 1.219-2.674.738-4.628a.79.79 0 0 1 .125-.663l1.332-1.777a.73.73 0 0 1 1.1-.078 1.473 1.473 0 0 0 2.082 0l1.042-1.041a1.472 1.472 0 0 0 0-2.083l-6.247-6.247a1.472 1.472 0 0 0-2.083 0L8.948 3.222a1.472 1.472 0 0 0 0 2.083.73.73 0 0 1-.078 1.1L7.093 7.737Z" clip-rule="evenodd"/>
</svg>
