<svg xmlns="http://www.w3.org/2000/svg" width="16" height="17" fill="currentColor" viewBox="0 0 16 17">
  <path fill-rule="evenodd" d="M4.842 7.618c.51.125 1.104.049 1.591-.317l1.422-1.065a1.849 1.849 0 0 0 .258-2.724l.711-.711L13.7 7.676l-.711.711a1.849 1.849 0 0 0-2.723.258L9.2 10.066a1.896 1.896 0 0 0-.317 1.592c.228.924.038 1.74-.249 2.368l-6.159-6.16c.629-.286 1.444-.476 2.368-.248Zm.833-1.328a.632.632 0 0 1-.531.1c-1.563-.385-2.875.107-3.702.59-.562.327-.574 1.069-.114 1.529l2.853 2.853-2.5 2.499a.632.632 0 0 0 .895.894l2.5-2.499 2.915 2.916c.46.46 1.202.448 1.53-.114.482-.827.974-2.139.59-3.702a.631.631 0 0 1 .1-.53l1.065-1.422a.584.584 0 0 1 .88-.062c.46.46 1.206.46 1.666 0l.833-.833c.46-.46.46-1.206 0-1.666L9.657 1.845a1.178 1.178 0 0 0-1.666 0l-.833.833c-.46.46-.46 1.206 0 1.666a.584.584 0 0 1-.062.88L5.675 6.29Z" clip-rule="evenodd"/>
</svg>
