<svg xmlns="http://www.w3.org/2000/svg" width="12" height="13" fill="currentColor" viewBox="0 0 12 13">
  <path fill-rule="evenodd" d="M3.631 5.838c.383.094.829.037 1.194-.237l1.066-.8a1.386 1.386 0 0 0 .193-2.042l.534-.534 3.656 3.657-.533.534a1.386 1.386 0 0 0-2.043.193l-.8 1.066a1.422 1.422 0 0 0-.236 1.194c.17.693.028 1.304-.187 1.775l-4.62-4.619a2.674 2.674 0 0 1 1.776-.187Zm.625-.996a.474.474 0 0 1-.398.075c-1.172-.288-2.156.081-2.777.443-.421.245-.43.801-.085 1.147l2.14 2.14L1.26 10.52a.474.474 0 1 0 .671.67l1.874-1.874 2.188 2.187c.345.345.9.336 1.146-.085.362-.62.731-1.605.443-2.777a.474.474 0 0 1 .075-.398l.8-1.066a.438.438 0 0 1 .66-.047.883.883 0 0 0 1.248 0l.625-.625a.883.883 0 0 0 0-1.249L7.243 1.509a.883.883 0 0 0-1.25 0l-.624.624a.883.883 0 0 0 0 1.25c.188.188.166.5-.047.66l-1.066.8Z" clip-rule="evenodd"/>
</svg>
