<svg xmlns="http://www.w3.org/2000/svg" width="16" height="16" fill="currentColor" viewBox="0 0 16 16">
  <path d="M9 13.375 14.375 8 9 2.625 3.625 8 9 13.375Z" class="secondary"/>
  <path fill-rule="evenodd" d="M9.442 2.183A.625.625 0 0 0 9 2H1.625a.625.625 0 1 0 0 1.25h5.866L3.183 7.558a.625.625 0 0 0 0 .884l4.308 4.308H1.625a.625.625 0 1 0 0 1.25H9a.625.625 0 0 0 .442-.183l5.375-5.375a.625.625 0 0 0 0-.884L9.442 2.183ZM9 12.491 13.491 8 9 3.509 4.509 8 9 12.491Z" clip-rule="evenodd"/>
</svg>
