<svg xmlns="http://www.w3.org/2000/svg" width="16" height="16" fill="currentColor" viewBox="0 0 16 16">
  <path d="M2 3.5a.5.5 0 0 1 .5-.5h3a.5.5 0 0 1 0 1h-3a.5.5 0 0 1-.5-.5ZM10 8a.5.5 0 0 1 .5-.5h3a.5.5 0 0 1 0 1h-3A.5.5 0 0 1 10 8Zm0 4.5a.5.5 0 0 1 .5-.5h3a.5.5 0 0 1 0 1h-3a.5.5 0 0 1-.5-.5Z"/>
  <path fill-rule="evenodd" d="M10.18 3.115A.498.498 0 0 1 10.5 3h3a.5.5 0 0 1 0 1h-2.706l-4.852 8.734A.5.5 0 0 1 5.5 13h-3a.5.5 0 0 1 0-1h2.706l2.04-3.672L10 4 7 7l-.002.012-1.679 1.373A.498.498 0 0 1 5 8.5H2.5a.5.5 0 0 1 0-1h2.322l5.359-4.385Z" clip-rule="evenodd"/>
</svg>
