<svg width="16" height="16" viewBox="0 0 16 16" fill="currentColor" xmlns="http://www.w3.org/2000/svg">
  <path fill="none" class="secondary" d="M13.6572 7.28223C13.1385 7.10002 12.581 7 12 7C9.43817 7 7.32705 8.92676 7.03516 11.4102L3.625 8L9 2.625L13.6572 7.28223Z"/>
  <path fill-rule="evenodd" clip-rule="evenodd" d="M9 2C9.16576 2 9.32473 2.06585 9.44194 2.18306L14.8169 7.55806C14.9389 7.68 14.9999 7.8398 15 7.99963C14.2941 7.4694 13.4433 7.12166 12.5176 7.02646L9 3.50888L4.50888 8L7.17884 10.67C7.06227 11.0935 7 11.5395 7 12C7 12.0892 7.00233 12.1778 7.00695 12.2658L3.18306 8.44194C2.93898 8.19786 2.93898 7.80214 3.18306 7.55806L7.49112 3.25H1.625C1.27982 3.25 1 2.97018 1 2.625C1 2.27982 1.27982 2 1.625 2H9ZM7.05588 12.75H1.625C1.27982 12.75 1 13.0298 1 13.375C1 13.7202 1.27982 14 1.625 14H7.41604C7.24437 13.6071 7.12174 13.1878 7.05588 12.75Z"/>
  <path d="M12 8C14.2091 8 16 9.79086 16 12C16 14.2091 14.2091 16 12 16C9.79086 16 8 14.2091 8 12C8 9.79086 9.79086 8 12 8ZM12 9.14258C10.422 9.14258 9.14258 10.422 9.14258 12C9.14258 13.578 10.422 14.8574 12 14.8574C13.578 14.8574 14.8574 13.578 14.8574 12C14.8574 10.422 13.578 9.14258 12 9.14258ZM12.624 10.5674C12.8472 10.3442 13.2095 10.3442 13.4326 10.5674C13.6558 10.7905 13.6558 11.1528 13.4326 11.376L12.8086 12L13.4326 12.624C13.6558 12.8472 13.6558 13.2095 13.4326 13.4326C13.2095 13.6558 12.8472 13.6558 12.624 13.4326L12 12.8086L11.376 13.4326C11.1528 13.6558 10.7905 13.6558 10.5674 13.4326C10.3442 13.2095 10.3442 12.8472 10.5674 12.624L11.1914 12L10.5674 11.376C10.3442 11.1528 10.3442 10.7905 10.5674 10.5674C10.7905 10.3442 11.1528 10.3442 11.376 10.5674L12 11.1914L12.624 10.5674Z"/>
</svg>
