<svg xmlns="http://www.w3.org/2000/svg" width="16" height="16" fill="currentColor" viewBox="0 0 16 16">
  <path fill="none" class="secondary" d="M4.623 8.998 4.7 9h1.6A1.7 1.7 0 0 0 8 7.3V3.625l1-1L14.375 8 9 13.375 4.623 8.998Z"/>
  <path d="M3.366 8.625 7.49 12.75H1.625a.625.625 0 1 0 0 1.25H9a.625.625 0 0 0 .442-.183l5.375-5.375a.625.625 0 0 0 0-.884L9.442 2.183A.625.625 0 0 0 9 2H8v2.509l1-1L13.491 8 9 12.491 5.509 9H4.7c-.468 0-.893-.19-1.2-.496a1.71 1.71 0 0 1-.134.12Z"/>
  <path class="tertiary" fill-rule="evenodd" d="M.7 0a.7.7 0 0 0-.7.7v6.6a.7.7 0 0 0 .7.7h1.6a.7.7 0 0 0 .7-.7V.7a.7.7 0 0 0-.7-.7H.7ZM1 7V1h1v6H1Zm3.7-7a.7.7 0 0 0-.7.7v6.6a.7.7 0 0 0 .7.7h1.6a.7.7 0 0 0 .7-.7V.7a.7.7 0 0 0-.7-.7H4.7ZM5 7V1h1v6H5Z" clip-rule="evenodd"/>
</svg>
