<svg xmlns="http://www.w3.org/2000/svg" width="20" height="20" fill="currentColor" viewBox="0 0 20 20">
  <path fill="none" class="secondary" d="M7 11.25h.875A2.125 2.125 0 0 0 10 9.125V5.75l2-2L18.25 10 12 16.25l-5-5Z"/>
  <path d="M10 4.5V3h2a.75.75 0 0 1 .53.22l6.25 6.25a.75.75 0 0 1 0 1.06l-6.25 6.25A.75.75 0 0 1 12 17H2.875a.75.75 0 0 1 0-1.5h7.314l-4.25-4.25h1.936c.06 0 .12-.002.178-.007L12 15.189 17.19 10 12 4.81l-2 2V4.69l.19-.19H10Z"/>
  <path class="tertiary" fill-rule="evenodd" d="M.875 0A.875.875 0 0 0 0 .875v8.25c0 .483.392.875.875.875h2a.875.875 0 0 0 .875-.875V.875A.875.875 0 0 0 2.875 0h-2Zm.375 8.75v-7.5H2.5v7.5H1.25ZM5.875 0A.875.875 0 0 0 5 .875v8.25c0 .483.392.875.875.875h2a.875.875 0 0 0 .875-.875V.875A.875.875 0 0 0 7.875 0h-2Zm.375 8.75v-7.5H7.5v7.5H6.25Z" clip-rule="evenodd"/>
</svg>
