<svg xmlns="http://www.w3.org/2000/svg" width="12" height="12" fill="currentColor" viewBox="0 0 12 12">
  <path fill="none" class="secondary" d="m10.5 6-.79.788a1.583 1.583 0 0 0-1.698.733L6.89 9.39 3.5 6 7 2.5 10.5 6Z"/>
  <path fill-rule="evenodd" d="M8.654 7.908a.84.84 0 0 1 1.442 0l1.8 3.002a.72.72 0 0 1-.618 1.09H7.472a.72.72 0 0 1-.618-1.09l1.8-3.002Zm.721 2.592a.375.375 0 1 0 0 .75.375.375 0 0 0 0-.75Zm0-2.25A.375.375 0 0 0 9 8.625v.75a.375.375 0 0 0 .75 0v-.75a.375.375 0 0 0-.375-.375Z" clip-rule="evenodd"/>
  <path d="M7 2a.5.5 0 0 1 .277.084l.077.062 3.5 3.5a.5.5 0 0 1 0 .708l-.64.637a1.602 1.602 0 0 0-1.218-.195L9.793 6 7 3.207 4.207 6 7 8.793l.622-.623L6.525 10H1.5a.5.5 0 0 1 0-1h4.293L3.146 6.354a.5.5 0 0 1 0-.708L5.793 3H1.5a.5.5 0 0 1 0-1H7Z"/>
</svg>
