<svg xmlns="http://www.w3.org/2000/svg" width="16" height="16" fill="currentColor" viewBox="0 0 16 16">
    <path d="M7 12.879V14H1.625a.625.625 0 1 1 0-1.25h5.504L7 12.879ZM9 2c.166 0 .325.065.442.183l4.939 4.938a2.003 2.003 0 0 0-1.64.129L9 3.509 4.509 8l3.684 3.685-.883.883-4.127-4.126a.626.626 0 0 1 0-.884L7.49 3.25H1.625a.625.625 0 1 1 0-1.25H9Z"/>
    <path class="secondary" fill-rule="evenodd" d="M14.412 8.295a1 1 0 0 0-1.414 0l-1.351 1.351L8 13.293V16h2.707l4.998-4.998a1 1 0 0 0 0-1.414l-1.293-1.293ZM14 11.293l.998-.998-1.293-1.293-.998.998L14 11.293Zm-2-.586L13.293 12l-3 3H9v-1.293l3-3Z" clip-rule="evenodd"/>
</svg>
