<svg xmlns="http://www.w3.org/2000/svg" width="20" height="20" fill="currentColor" viewBox="0 0 20 20">
  <path d="M2.5 4.375c0-.345.28-.625.625-.625h3.75a.625.625 0 1 1 0 1.25h-3.75a.625.625 0 0 1-.625-.625ZM12.5 10c0-.345.28-.625.625-.625h3.75a.625.625 0 1 1 0 1.25h-3.75A.625.625 0 0 1 12.5 10Zm0 5.625c0-.345.28-.625.625-.625h3.75a.625.625 0 1 1 0 1.25h-3.75a.625.625 0 0 1-.625-.625Z"/>
  <path fill-rule="evenodd" d="M12.726 3.894a.623.623 0 0 1 .399-.144h3.75a.625.625 0 1 1 0 1.25h-3.382L7.427 15.918a.625.625 0 0 1-.552.332h-3.75a.625.625 0 1 1 0-1.25h3.382l2.55-4.59L12.5 5 8.75 8.75l-.003.014-2.098 1.717a.622.622 0 0 1-.399.144H3.125a.625.625 0 1 1 0-1.25h2.902l6.699-5.48Z" clip-rule="evenodd"/>
</svg>
