<svg xmlns="http://www.w3.org/2000/svg" width="20" height="20" fill="currentColor" viewBox="0 0 20 20">
    <path d="M12 3a.75.75 0 0 1 .53.22l5.89 5.89a2.505 2.505 0 0 0-2.276-.155L12 4.811 6.81 10l4.02 4.019-1.061 1.06-4.55-4.549a.75.75 0 0 1 0-1.06l4.97-4.97H2.875a.75.75 0 0 1 0-1.5H12ZM9.348 15.5H2.875a.75.75 0 0 0 0 1.5H8.75v-.902l.598-.598Z"/>
    <path class="secondary" fill-rule="evenodd" d="M18.015 10.369a1.25 1.25 0 0 0-1.768 0l-1.689 1.689L10 16.616V20h3.384l6.247-6.248a1.25 1.25 0 0 0 0-1.767l-1.616-1.616Zm-.515 3.747 1.247-1.247-1.616-1.617-1.247 1.248 1.616 1.616Zm-2.5-.732L16.616 15l-3.75 3.75H11.25v-1.616l3.75-3.75Z" clip-rule="evenodd"/>
</svg>
