<svg xmlns="http://www.w3.org/2000/svg" width="20" height="20" fill="currentColor" viewBox="0 0 20 20">
  <path fill="none" class="secondary" fill-rule="evenodd" d="M7 11.25h.875A2.125 2.125 0 0 0 10 9.125V5.75l2-2L18.25 10l-.25.25a5.877 5.877 0 0 0-8.07 3.93L7 11.25Z" clip-rule="evenodd"/>
  <path fill-rule="evenodd" d="M10 3v3.812l2-2 5.135 5.133c.55.146 1.075.372 1.56.67l.085-.085a.75.75 0 0 0 0-1.06l-6.25-6.25A.751.751 0 0 0 12 3h-2Zm-.226 12.085L5.94 11.25h1.935c.06 0 .12-.003.179-.008l2.14 2.14a5.835 5.835 0 0 0-.42 1.703Zm-.023.415H2.875a.75.75 0 1 0 0 1.5h7.037a5.875 5.875 0 0 1-.162-1.375l.001-.125Zm9.917 1.8a4.376 4.376 0 1 1-8.087-3.35 4.376 4.376 0 0 1 8.087 3.35Zm-4.165-4.79a.624.624 0 0 0-.503.615v2.5a.625.625 0 0 0 1.25 0v-2.5a.624.624 0 0 0-.747-.614Zm.361 6.193a.625.625 0 1 0-.478-1.155.625.625 0 0 0 .478 1.155Z" clip-rule="evenodd"/>
  <path class="tertiary" fill-rule="evenodd" d="M.875 0A.875.875 0 0 0 0 .875v8.25c0 .483.392.875.875.875h2a.875.875 0 0 0 .875-.875V.875A.875.875 0 0 0 2.875 0h-2Zm.375 8.75v-7.5H2.5v7.5H1.25ZM5.875 0A.875.875 0 0 0 5 .875v8.25c0 .483.392.875.875.875h2a.875.875 0 0 0 .875-.875V.875A.875.875 0 0 0 7.875 0h-2Zm.375 8.75v-7.5H7.5v7.5H6.25Z" clip-rule="evenodd"/>
</svg>
