<svg width="16" height="16" viewBox="0 0 16 16" fill="currentColor" xmlns="http://www.w3.org/2000/svg">
  <path fill-rule="evenodd" clip-rule="evenodd" d="M9 2C9.16576 2 9.32473 2.06585 9.44194 2.18306L14.8169 7.55806C14.9389 7.68 14.9999 7.8398 15 7.99963C14.2941 7.4694 13.4433 7.12166 12.5176 7.02646L9 3.50888L4.50888 8L7.17884 10.67C7.06227 11.0935 7 11.5395 7 12C7 12.0892 7.00233 12.1778 7.00695 12.2658L3.18306 8.44194C2.93898 8.19786 2.93898 7.80214 3.18306 7.55806L7.49112 3.25H1.625C1.27982 3.25 1 2.97018 1 2.625C1 2.27982 1.27982 2 1.625 2H9ZM7.05588 12.75H1.625C1.27982 12.75 1 13.0298 1 13.375C1 13.7202 1.27982 14 1.625 14H7.41604C7.24437 13.6071 7.12174 13.1878 7.05588 12.75Z"/>
  <path class="secondary" d="M12 8C14.2091 8 16 9.79086 16 12C16 14.2091 14.2091 16 12 16C9.79086 16 8 14.2091 8 12C8 9.79086 9.79086 8 12 8ZM12 9C10.3431 9 9 10.3431 9 12C9 13.6569 10.3431 15 12 15C13.6569 15 15 13.6569 15 12C15 10.3431 13.6569 9 12 9ZM11.166 10.5C11.2249 10.497 11.2965 10.5416 11.4385 10.6299L13.29 11.7812C13.4075 11.8543 13.4659 11.8914 13.4863 11.9375C13.5041 11.9776 13.5041 12.0224 13.4863 12.0625C13.4659 12.1086 13.4075 12.1457 13.29 12.2188L11.4385 13.3701C11.2965 13.4584 11.2249 13.503 11.166 13.5C11.1146 13.4971 11.0672 13.4729 11.0361 13.4346C11.0005 13.3906 11 13.3109 11 13.1514V10.8486C11 10.6891 11.0005 10.6094 11.0361 10.5654C11.0672 10.5271 11.1146 10.5029 11.166 10.5Z"/>
</svg>
