<svg xmlns="http://www.w3.org/2000/svg" width="16" height="16" fill="currentColor" viewBox="0 0 16 16">
  <path fill-rule="evenodd" d="M9 2c.166 0 .325.066.442.183l5.375 5.375A.623.623 0 0 1 15 8a4.974 4.974 0 0 0-2.482-.974L9 3.51 4.509 8l2.67 2.67a5.005 5.005 0 0 0-.172 1.596L3.183 8.442a.625.625 0 0 1 0-.884L7.491 3.25H1.625a.625.625 0 1 1 0-1.25H9ZM7.056 12.75H1.625a.625.625 0 1 0 0 1.25h5.791a4.965 4.965 0 0 1-.36-1.25Z" clip-rule="evenodd"/>
  <path class="secondary" d="M11.998 13a1 1 0 1 0 0-2 1 1 0 0 0 0 2Z"/>
  <path class="secondary" fill-rule="evenodd" d="M13.12 15.676a.5.5 0 0 1-.469.324h-1.307a.5.5 0 0 1-.468-.324l-.25-.666a.5.5 0 0 0-.55-.317l-.7.116a.5.5 0 0 1-.515-.243l-.654-1.132a.5.5 0 0 1 .047-.568l.451-.548a.5.5 0 0 0 0-.636l-.451-.548a.5.5 0 0 1-.047-.568l.653-1.132a.5.5 0 0 1 .516-.243l.7.116a.5.5 0 0 0 .55-.317l.25-.666A.5.5 0 0 1 11.344 8h1.307a.5.5 0 0 1 .469.324l.249.666a.5.5 0 0 0 .55.317l.701-.116a.5.5 0 0 1 .515.243l.654 1.132a.5.5 0 0 1-.047.568l-.452.548a.5.5 0 0 0 0 .636l.452.548a.5.5 0 0 1 .047.568l-.654 1.132a.5.5 0 0 1-.515.243l-.7-.116a.5.5 0 0 0-.551.317l-.25.666ZM11.69 15h.615l.128-.34a1.5 1.5 0 0 1 1.65-.954l.36.06.306-.532-.23-.281a1.5 1.5 0 0 1 0-1.906l.23-.281-.307-.532-.359.06a1.5 1.5 0 0 1-1.65-.953L12.305 9h-.614l-.128.34a1.5 1.5 0 0 1-1.65.954l-.36-.06-.307.532.232.281a1.5 1.5 0 0 1 0 1.906l-.232.281.307.532.36-.06a1.5 1.5 0 0 1 1.65.953l.128.341Z" clip-rule="evenodd"/>
  <path fill="none" class="tertiary" fill-rule="evenodd" d="M12.309 15h-.614l-.128-.34a1.5 1.5 0 0 0-1.65-.954l-.36.06-.307-.532.231-.281a1.5 1.5 0 0 0 0-1.906l-.231-.281.307-.532.36.06a1.5 1.5 0 0 0 1.65-.953L11.695 9h.614l.127.34a1.5 1.5 0 0 0 1.651.954l.36-.06.306.532-.231.281a1.5 1.5 0 0 0 0 1.906l.231.281-.307.532-.359-.06a1.5 1.5 0 0 0-1.65.953l-.128.341Zm.693-3a1 1 0 1 1-2 0 1 1 0 0 1 2 0Z" clip-rule="evenodd"/>
</svg>
