<svg xmlns="http://www.w3.org/2000/svg" width="16" height="16" fill="currentColor" viewBox="0 0 16 16">
  <path fill="none" class="secondary" d="m14.375 8-1.134 1.133a2.12 2.12 0 0 0-2.56.896l-1.885 3.142L3.625 8 9 2.625 14.375 8Z"/>
  <path fill-rule="evenodd" d="M11.54 10.545a1.12 1.12 0 0 1 1.92 0l2.4 4A.96.96 0 0 1 15.037 16H9.961a.96.96 0 0 1-.823-1.454l2.401-4.001ZM12.5 14a.5.5 0 1 0 .001 1.001A.5.5 0 0 0 12.5 14Zm0-3a.5.5 0 0 0-.5.5v1a.5.5 0 0 0 1 0v-1a.5.5 0 0 0-.5-.5Z" clip-rule="evenodd"/>
  <path d="M9 2c.124 0 .245.037.347.105l.095.078 5.375 5.375a.626.626 0 0 1 0 .884L13.81 9.45a2.115 2.115 0 0 0-1.32-.449l1-1.001L9 3.51 4.51 8 9 12.49l.513-.513L8.3 14H1.625a.625.625 0 1 1 0-1.25H7.49L3.183 8.442a.626.626 0 0 1 0-.884L7.49 3.25H1.625a.625.625 0 1 1 0-1.25H9Z"/>
</svg>
