<svg xmlns="http://www.w3.org/2000/svg" width="16" height="16" fill="currentColor" viewBox="0 0 16 16">
  <path fill="none" class="secondary" d="M4.623 8.998 4.7 9h1.6A1.7 1.7 0 0 0 8 7.3V3.625l1-1L14.375 8l-.095.095a4.75 4.75 0 0 0-6.517 4.044l-3.14-3.141Z"/>
  <path fill-rule="evenodd" d="M7.49 12.75 3.366 8.625v-.001a1.71 1.71 0 0 0 .134-.12c.307.306.732.496 1.2.496h.809l2.375 2.375A4.745 4.745 0 0 0 7.992 14H1.625a.625.625 0 1 1 0-1.25H7.49ZM8 2v2.509l1-1 4.31 4.31a4.73 4.73 0 0 1 1.56.563.626.626 0 0 0-.053-.824L9.442 2.183A.625.625 0 0 0 9 2H8Zm8 10.5a3.5 3.5 0 1 1-7 0 3.5 3.5 0 0 1 7 0Zm-3.598-2.491A.5.5 0 0 0 12 10.5v2a.5.5 0 0 0 1 0v-2a.5.5 0 0 0-.598-.491ZM12 14.5a.5.5 0 1 0 1.001 0 .5.5 0 0 0-1 0Z" clip-rule="evenodd"/>
  <path class="tertiary" fill-rule="evenodd" d="M.7 0a.7.7 0 0 0-.7.7v6.6a.7.7 0 0 0 .7.7h1.6a.7.7 0 0 0 .7-.7V.7a.7.7 0 0 0-.7-.7H.7ZM1 7V1h1v6H1Zm3.7-7a.7.7 0 0 0-.7.7v6.6a.7.7 0 0 0 .7.7h1.6a.7.7 0 0 0 .7-.7V.7a.7.7 0 0 0-.7-.7H4.7ZM5 7V1h1v6H5Z" clip-rule="evenodd"/>
</svg>
