<svg xmlns="http://www.w3.org/2000/svg" width="20" height="20" fill="currentColor" viewBox="0 0 20 20">
  <path fill="none" class="secondary" d="m18.25 10-1.499 1.498c-1.164-.541-2.658-.195-3.399 1.04l-1.9 3.164L5.75 10 12 3.75 18.25 10Z"/>
  <path fill-rule="evenodd" d="M14.424 13.18a1.4 1.4 0 0 1 2.401 0l3.001 5.003A1.2 1.2 0 0 1 18.798 20h-6.346a1.2 1.2 0 0 1-1.03-1.817l3.002-5.002Zm1.201 4.32a.625.625 0 1 0 0 1.25.625.625 0 0 0 0-1.25Zm0-3.75a.625.625 0 0 0-.625.625v1.25a.625.625 0 0 0 1.25 0v-1.25a.625.625 0 0 0-.625-.625Z" clip-rule="evenodd"/>
  <path d="M12 3a.75.75 0 0 1 .416.126l.114.094 6.25 6.25a.75.75 0 0 1 0 1.06l-1.39 1.39a2.624 2.624 0 0 0-1.47-.652L17.19 10 12 4.81 6.81 10l5.04 5.04L10.676 17h-7.8a.75.75 0 0 1 0-1.5h7.315l-4.97-4.97a.75.75 0 0 1 0-1.06l4.97-4.97H2.875a.75.75 0 0 1 0-1.5H12Z"/>
</svg>
