<svg width="16" height="16" viewBox="0 0 16 16" fill="currentColor" xmlns="http://www.w3.org/2000/svg">
  <path fill="none" class="secondary" d="M13.6572 7.28223C13.1385 7.10002 12.581 7 12 7C9.43817 7 7.32705 8.92676 7.03516 11.4102L3.625 8L9 2.625L13.6572 7.28223Z"/>
  <path fill-rule="evenodd" clip-rule="evenodd" d="M9 2C9.16576 2 9.32473 2.06585 9.44194 2.18306L14.8169 7.55806C14.9389 7.68 14.9999 7.8398 15 7.99963C14.2941 7.4694 13.4433 7.12166 12.5176 7.02646L9 3.50888L4.50888 8L7.17884 10.67C7.06227 11.0935 7 11.5395 7 12C7 12.0892 7.00233 12.1778 7.00695 12.2658L3.18306 8.44194C2.93898 8.19786 2.93898 7.80214 3.18306 7.55806L7.49112 3.25H1.625C1.27982 3.25 1 2.97018 1 2.625C1 2.27982 1.27982 2 1.625 2H9ZM7.05588 12.75H1.625C1.27982 12.75 1 13.0298 1 13.375C1 13.7202 1.27982 14 1.625 14H7.41604C7.24437 13.6071 7.12174 13.1878 7.05588 12.75Z"/>
  <path class="tertiary" d="M12 8.00049C12.2817 8.00049 12.4922 8.24244 12.4922 8.52414V8.69225C12.4922 8.95061 12.2584 9.14307 12 9.14307C10.422 9.14307 9.14258 10.4225 9.14258 12.0005C9.14284 13.5782 10.4222 14.8569 12 14.8569C13.5778 14.8569 14.8572 13.5782 14.8574 12.0005C14.8574 11.7232 15.062 11.4702 15.3392 11.4702H15.4762C15.7553 11.4702 15.9964 11.6772 15.9997 11.9562C15.9999 11.971 16 11.9857 16 12.0005C15.9997 14.2094 14.209 16.0005 12 16.0005C9.79102 16.0005 8.00026 14.2094 8 12.0005C8 9.79135 9.79086 8.00049 12 8.00049Z" />
</svg>
