<svg xmlns="http://www.w3.org/2000/svg" width="20" height="20" fill="currentColor" viewBox="0 0 20 20">
  <path fill="none" class="secondary" fill-rule="evenodd" d="M9.93 14.18A5.877 5.877 0 0 1 18 10.25l.25-.25L12 3.75 5.75 10l4.18 4.18Z" clip-rule="evenodd"/>
  <path fill-rule="evenodd" d="M12 3a.75.75 0 0 1 .53.22l6.25 6.25a.75.75 0 0 1 0 1.06l-.085.085a5.842 5.842 0 0 0-1.56-.67L12 4.812 6.81 10l3.383 3.383a5.838 5.838 0 0 0-.419 1.702L5.22 10.53a.75.75 0 0 1 0-1.06l4.97-4.97H2.874a.75.75 0 0 1 0-1.5H12ZM9.751 15.5H2.875a.75.75 0 0 0 0 1.5h7.037a5.891 5.891 0 0 1-.16-1.5Z" clip-rule="evenodd"/>
  <path fill-rule="evenodd" d="M15.625 20a4.375 4.375 0 1 0 0-8.75 4.375 4.375 0 0 0 0 8.75ZM15 13.125a.625.625 0 1 1 1.25 0v2.5a.625.625 0 1 1-1.25 0v-2.5Zm1.25 5a.625.625 0 1 1-1.25 0 .625.625 0 0 1 1.25 0Z" clip-rule="evenodd"/>
</svg>
