<svg xmlns="http://www.w3.org/2000/svg" width="12" height="12" fill="currentColor" viewBox="0 0 12 12">
  <path fill="none" class="secondary" fill-rule="evenodd" d="m4.5 7 1.386 1.386a3.627 3.627 0 0 1 4.51-2.49L7 2.5l-.75.75v2.225C6.25 6.317 5.567 7 4.725 7H4.5Z" clip-rule="evenodd"/>
  <path fill-rule="evenodd" d="M6.25 2v1.957l.75-.75 2.547 2.547c.514.024 1 .155 1.437.372a.5.5 0 0 0-.13-.48l-3.5-3.5A.5.5 0 0 0 7 2h-.75ZM5.148 6.94c-.134.04-.276.06-.423.06h-.932L5.77 8.979c.043-.392.148-.765.305-1.11l-.928-.928.001-.001ZM1.5 9h4.27c-.034.333-.023.67.034 1H1.5a.5.5 0 1 1 0-1Zm9.731 2.231a2.626 2.626 0 1 0-3.714-3.714 2.626 2.626 0 0 0 3.714 3.715v-.001ZM9.11 7.61a.375.375 0 0 1 .64.265v1.5a.375.375 0 0 1-.75 0v-1.5c0-.1.04-.195.11-.265Zm.53 3.53a.374.374 0 0 1-.541.03.375.375 0 1 1 .541-.03Z" clip-rule="evenodd"/>
  <path class="tertiary" fill-rule="evenodd" d="M.525 0A.525.525 0 0 0 0 .525v4.95C0 5.765.235 6 .525 6h1.2c.29 0 .525-.235.525-.525V.525A.525.525 0 0 0 1.725 0h-1.2ZM.75 5.25V.75h.75v4.5H.75ZM3.525 0A.525.525 0 0 0 3 .525v4.95c0 .29.235.525.525.525h1.2c.29 0 .525-.235.525-.525V.525A.525.525 0 0 0 4.725 0h-1.2Zm.225 5.25V.75h.75v4.5h-.75Z" clip-rule="evenodd"/>
</svg>
