<svg xmlns="http://www.w3.org/2000/svg" width="12" height="12" fill="currentColor" viewBox="0 0 12 12">
  <path fill="none" class="secondary" d="M4.5 7 7 9.5 10.5 6 7 2.5l-.75.75v2.225C6.25 6.317 5.567 7 4.725 7H4.5Z"/>
  <path d="M6.25 2v1.957l.75-.75L9.793 6 7 8.793 5.148 6.94a1.55 1.55 0 0 1-.423.059h-.932l2 2H1.5a.5.5 0 0 0 0 1H7a.5.5 0 0 0 .354-.146l3.5-3.5a.5.5 0 0 0 0-.708l-3.5-3.5A.5.5 0 0 0 7 2h-.75Z"/>
  <path class="tertiary" fill-rule="evenodd" d="M.525 0A.525.525 0 0 0 0 .525v4.95C0 5.765.235 6 .525 6h1.2c.29 0 .525-.235.525-.525V.525A.525.525 0 0 0 1.725 0h-1.2ZM.75 5.25V.75h.75v4.5H.75ZM3.525 0A.525.525 0 0 0 3 .525v4.95c0 .29.235.525.525.525h1.2c.29 0 .525-.235.525-.525V.525A.525.525 0 0 0 4.725 0h-1.2Zm.225 5.25V.75h.75v4.5h-.75Z" clip-rule="evenodd"/>
</svg>
