<svg xmlns="http://www.w3.org/2000/svg" width="20" height="20" fill="currentColor" viewBox="0 0 20 20">
  <path d="M12 3a.75.75 0 0 1 .53.22l5.614 5.614a4.107 4.107 0 0 0-2.532-.411L12 4.811 6.81 10l4.183 4.182a2.874 2.874 0 0 0-.118.817V17h-8a.75.75 0 0 1 0-1.5h7.314l-4.97-4.97a.75.75 0 0 1 0-1.06l4.97-4.97H2.875a.75.75 0 0 1 0-1.5H12Z"/>
  <path fill-rule="evenodd" d="M18.75 13.75V12.5a2.5 2.5 0 0 0-5 0v1.25c-.69 0-1.25.56-1.25 1.25v3.75c0 .69.56 1.25 1.25 1.25h5c.69 0 1.25-.56 1.25-1.25V15c0-.69-.56-1.25-1.25-1.25ZM15 12.5a1.25 1.25 0 1 1 2.5 0v1.25H15V12.5Zm-1.25 6.25V15h5v3.75h-5Z" clip-rule="evenodd"/>
  <path fill="none" class="secondary" d="M13.75 15h5v3.75h-5z"/>
</svg>
