<svg xmlns="http://www.w3.org/2000/svg" width="12" height="12" fill="currentColor" viewBox="0 0 12 12">
  <path d="M1.5 2.5A.5.5 0 0 1 2 2h2a.5.5 0 0 1 0 1H2a.5.5 0 0 1-.5-.5Zm6 4A.5.5 0 0 1 8 6h2a.5.5 0 0 1 0 1H8a.5.5 0 0 1-.5-.5Zm0 3A.5.5 0 0 1 8 9h2a.5.5 0 0 1 0 1H8a.5.5 0 0 1-.5-.5Z"/>
  <path fill-rule="evenodd" d="M7.622 2.173A.499.499 0 0 1 8 2h2a.5.5 0 0 1 0 1H8.19l-.167.138L4.467 9.68A.5.5 0 0 1 4 10H2a.5.5 0 0 1 0-1h1.983l1.762-3.242L7.5 3 5.33 5.351l-.003.008L4.01 6.444a.499.499 0 0 1-.385.181H2a.5.5 0 0 1 0-1h1.431l4.191-3.452Z" clip-rule="evenodd"/>
</svg>
