<svg xmlns="http://www.w3.org/2000/svg" width="12" height="12" fill="currentColor" viewBox="0 0 12 12">
    <path d="M7 2a.5.5 0 0 1 .354.146l3.119 3.12c-.388-.05-.79.049-1.114.3L7 3.207 4.207 6l2.35 2.35L5.25 9.66V10H1.5a.5.5 0 0 1 0-1h4.293L3.146 6.354a.5.5 0 0 1 0-.708L5.793 3H1.5a.5.5 0 0 1 0-1H7Z"/>
    <path class="secondary" fill-rule="evenodd" d="M10.81 6.221a.75.75 0 0 0-1.062 0L8.735 7.235 6 9.97V12h2.03l3.749-3.748a.75.75 0 0 0 0-1.061l-.97-.97ZM10.5 8.47l.748-.749-.97-.97-.748.749.97.97ZM9 8.03l.97.97-2.25 2.25h-.97v-.97L9 8.03Z" clip-rule="evenodd"/>
</svg>
