<svg xmlns="http://www.w3.org/2000/svg" width="16" height="16" fill="currentColor" viewBox="0 0 16 16">
  <g class="merge">
    <path fill-rule="evenodd" d="M3.64 14.641c.346 0 .626-.28.626-.625v-7.45A2.63 2.63 0 0 0 6.184 4.67a5.375 5.375 0 0 1 4.804 4.804 2.626 2.626 0 1 0 1.254-.012 6.625 6.625 0 0 0-6.046-6.046 2.626 2.626 0 1 0-3.18 3.151v7.45c0 .345.28.625.625.625Zm8-1.25a1.375 1.375 0 1 1 0-2.75 1.375 1.375 0 0 1 0 2.75Zm-8-8a1.375 1.375 0 1 1 0-2.75 1.375 1.375 0 0 1 0 2.75Z" class="Icon (Stroke)" clip-rule="evenodd"/>
  </g>
</svg>
