<svg xmlns="http://www.w3.org/2000/svg" width="20" height="20" fill="currentColor" viewBox="0 0 20 20">
  <g class="merge-20px">
    <path fill-rule="evenodd" d="M4.768 18.27a.75.75 0 0 0 .75-.75V8.181a3.255 3.255 0 0 0 2.406-2.38 6.75 6.75 0 0 1 6.062 6.062 3.251 3.251 0 0 0 .782 6.405 3.25 3.25 0 0 0 .723-6.419 8.25 8.25 0 0 0-7.553-7.553 3.251 3.251 0 1 0-3.92 3.885v9.337c0 .415.336.75.75.75Zm10-1.5a1.75 1.75 0 1 1 0-3.5 1.75 1.75 0 0 1 0 3.5Zm-10-10a1.75 1.75 0 1 1 0-3.5 1.75 1.75 0 0 1 0 3.5Z" class="Icon (Stroke)" clip-rule="evenodd"/>
  </g>
</svg>
