<svg xmlns="http://www.w3.org/2000/svg" width="12" height="12" fill="currentColor" viewBox="0 0 12 12">
  <path fill-rule="evenodd" d="M9.005 1.488a.5.5 0 0 0-.5-.5l-5.006.013a.5.5 0 0 0-.499.5v1.517h-.017a2 2 0 0 0-2 2.009L1 8.94a.5.5 0 0 0 .5.498H3v.812c0 .415.336.75.75.75h4.5a.75.75 0 0 0 .75-.75v-.81h1.5a.5.5 0 0 0 .5-.502l-.016-3.927A2 2 0 0 0 9.005 3.02V1.49ZM9 8.44h.998l-.014-3.425a1 1 0 0 0-1-.996h-6a1 1 0 0 0-1 1.005l.014 3.416H3V7.001h6V8.44Zm-5 .5V8h4v2H4V8.94Zm4.005-5.92V1.99L4 2v1.018h4.005ZM8 5h1v1H8V5Z" clip-rule="evenodd"/>
</svg>
