<svg xmlns="http://www.w3.org/2000/svg" width="20" height="20" fill="currentColor" viewBox="0 0 20 20">
  <path fill-rule="evenodd" d="M5.781 2.523A.781.781 0 0 0 5 3.305v2.974h-.47A3.281 3.281 0 0 0 1.25 9.56v5.908c0 .431.35.78.781.78h3.024v1.281c0 .69.56 1.25 1.25 1.25h7.443c.69 0 1.25-.56 1.25-1.25v-1.28h2.958c.432 0 .782-.35.782-.781V9.56a3.281 3.281 0 0 0-3.282-3.281h-.458V3.305a.781.781 0 0 0-.78-.782H5.78Zm9.216 12.163h2.177V9.56c0-.95-.77-1.719-1.719-1.719H4.53c-.949 0-1.718.77-1.718 1.72v5.125h2.242V12.55h9.943v2.136ZM13.435 6.28V4.086H6.562v2.193h6.873Zm1.562 2.475h1.247V10h-1.247V8.754Zm-8.38 5.359h6.817v3.104H6.616v-3.104Z" clip-rule="evenodd"/>
</svg>
