<svg xmlns="http://www.w3.org/2000/svg" width="16" height="16" fill="currentColor" viewBox="0 0 16 16">
  <path fill-rule="evenodd" d="M4.625 2.02A.625.625 0 0 0 4 2.645v2.379h-.376A2.625 2.625 0 0 0 .999 7.649v4.726c0 .345.28.625.625.625h2.419v1.024a1 1 0 0 0 1 1h5.954a1 1 0 0 0 1-1V13h2.367c.345 0 .625-.28.625-.625V7.649a2.625 2.625 0 0 0-2.625-2.625h-.366v-2.38a.625.625 0 0 0-.625-.624H4.625Zm7.372 9.73h1.742V7.649c0-.76-.616-1.375-1.375-1.375h-8.74c-.76 0-1.375.615-1.375 1.375v4.1h1.794v-1.708h7.954v1.709Zm-1.25-6.726V3.27H5.25v1.754h5.498Zm1.25 1.98h.998V8h-.998v-.997ZM5.293 11.29h5.454v2.483H5.293V11.29Z" clip-rule="evenodd"/>
</svg>
