<svg xmlns="http://www.w3.org/2000/svg" width="12" height="12" fill="currentColor" viewBox="0 0 12 12">
  <path fill-rule="evenodd" d="m4.436 2 1.37 2H9.5a.5.5 0 0 1 .5.5v.885a3.73 3.73 0 0 1 1 .442V4.5A1.5 1.5 0 0 0 9.5 3H6.333L5.186 1.326A.75.75 0 0 0 4.568 1H2.167C1.522 1 1 1.627 1 2.4v6.2c0 .773.522 1.4 1.167 1.4h3.218a3.754 3.754 0 0 1-.135-1H2.17c-.01-.003-.03-.014-.06-.05A.552.552 0 0 1 2 8.6V2.4c0-.165.056-.285.11-.35.03-.036.05-.047.06-.05h2.266Z" clip-rule="evenodd"/>
  <path fill="none" class="tertiary" fill-rule="evenodd" d="M9.231 11.25h-.46l-.096-.256a1.125 1.125 0 0 0-1.238-.714l-.27.044-.23-.398.174-.211a1.125 1.125 0 0 0 0-1.43l-.173-.21.23-.4.27.045c.53.089 1.048-.21 1.237-.714l.096-.256h.46l.096.256c.19.503.708.803 1.238.714l.27-.044.23.398-.174.211a1.125 1.125 0 0 0 0 1.43l.174.21-.23.4-.27-.045a1.125 1.125 0 0 0-1.238.714l-.096.256ZM9.751 9a.75.75 0 1 1-1.5 0 .75.75 0 0 1 1.5 0Z" clip-rule="evenodd"/>
  <path class="secondary" d="M8.998 9.75a.75.75 0 1 0 0-1.5.75.75 0 0 0 0 1.5Z"/>
  <path class="secondary" fill-rule="evenodd" d="M9.84 11.757a.375.375 0 0 1-.351.243h-.98a.375.375 0 0 1-.352-.243l-.187-.5a.375.375 0 0 0-.413-.238l-.525.088a.375.375 0 0 1-.387-.182l-.49-.85a.375.375 0 0 1 .035-.425l.339-.412a.375.375 0 0 0 0-.476L6.19 8.35a.375.375 0 0 1-.035-.426l.49-.848a.375.375 0 0 1 .387-.183l.525.088c.177.029.35-.07.413-.239l.187-.499A.375.375 0 0 1 8.508 6h.98c.157 0 .297.097.352.243l.187.5a.375.375 0 0 0 .412.238l.526-.088a.375.375 0 0 1 .386.183l.49.848a.375.375 0 0 1-.035.426l-.338.412a.375.375 0 0 0 0 .476l.338.412c.1.12.114.29.036.425l-.49.85a.375.375 0 0 1-.387.182l-.526-.088a.375.375 0 0 0-.412.239l-.187.499Zm-1.072-.507h.46l.097-.256a1.125 1.125 0 0 1 1.238-.714l.269.044.23-.398-.173-.211a1.125 1.125 0 0 1 0-1.43l.173-.21-.23-.4-.27.045a1.125 1.125 0 0 1-1.237-.714l-.096-.256h-.46l-.097.256a1.125 1.125 0 0 1-1.238.714l-.269-.044-.23.398.173.211a1.125 1.125 0 0 1 0 1.43l-.173.21.23.4.27-.045c.53-.089 1.048.21 1.237.714l.096.256Z" clip-rule="evenodd"/>
</svg>
