<svg xmlns="http://www.w3.org/2000/svg" width="16" height="16" fill="currentColor" viewBox="0 0 16 16">
  <path fill="none" class="secondary" d="M2.633 2C1.731 2 1 2.836 1 3.867v8.266C1 13.164 1.731 14 2.633 14h10.734c.902 0 1.633-.836 1.633-1.867V6a2 2 0 0 0-2-2H8.467L6.843 2.308A1 1 0 0 0 6.122 2H2.633Z"/>
  <path fill-rule="evenodd" d="m7.934 5.25-1.919-2H2.633c-.047 0-.126.019-.214.12a.756.756 0 0 0-.169.497v8.266c0 .222.079.394.17.497.087.101.166.12.213.12h10.734c.047 0 .126-.019.214-.12a.756.756 0 0 0 .169-.497V6a.75.75 0 0 0-.75-.75H7.934ZM8.467 4H13a2 2 0 0 1 2 2v6.133C15 13.164 14.269 14 13.367 14H2.633C1.731 14 1 13.164 1 12.133V3.867C1 2.836 1.731 2 2.633 2h3.489a1 1 0 0 1 .721.308L8.467 4Z" clip-rule="evenodd"/>
</svg>
