<svg xmlns="http://www.w3.org/2000/svg" width="20" height="20" fill="currentColor" viewBox="0 0 20 20">
  <path d="M7.506 3.5 9.973 6H16.5a1 1 0 0 1 1 1v1.567a4.12 4.12 0 0 1 1.5.857V7a2.5 2.5 0 0 0-2.5-2.5h-5.9L8.5 2.372A1.25 1.25 0 0 0 7.61 2H3.1C1.94 2 1 3.045 1 4.333v10.334C1 15.955 1.94 17 3.1 17h7.775v-1.5H3.1a.498.498 0 0 1-.37-.187.964.964 0 0 1-.23-.646V4.333c0-.28.102-.504.23-.646A.498.498 0 0 1 3.1 3.5h4.406Z"/>
  <path fill-rule="evenodd" d="M18.75 13.75V12.5a2.5 2.5 0 0 0-5 0v1.25c-.69 0-1.25.56-1.25 1.25v3.75c0 .69.56 1.25 1.25 1.25h5c.69 0 1.25-.56 1.25-1.25V15c0-.69-.56-1.25-1.25-1.25ZM15 12.5a1.25 1.25 0 1 1 2.5 0v1.25H15V12.5Zm-1.25 6.25V15h5v3.75h-5Z" clip-rule="evenodd"/>
  <path fill="none" class="secondary" d="M13.75 15h5v3.75h-5z"/>
</svg>
