<svg xmlns="http://www.w3.org/2000/svg" width="16" height="16" fill="currentColor" viewBox="0 0 16 16">
  <path d="m6.015 3.25 1.919 2H13a.75.75 0 0 1 .75.75v.785c.461.107.886.31 1.25.589V6a2 2 0 0 0-2-2H8.467L6.843 2.308A1 1 0 0 0 6.122 2H2.633C1.731 2 1 2.836 1 3.867v8.266C1 13.164 1.731 14 2.633 14H8.7v-1.25H2.633c-.047 0-.126-.019-.214-.12a.755.755 0 0 1-.169-.497V3.867c0-.222.079-.394.17-.497.087-.101.166-.12.213-.12h3.382Z"/>
  <path fill-rule="evenodd" d="M15 11v-1a2 2 0 1 0-4 0v1a1 1 0 0 0-1 1v3a1 1 0 0 0 1 1h4a1 1 0 0 0 1-1v-3a1 1 0 0 0-1-1Zm-3-1a1 1 0 1 1 2 0v1h-2v-1Zm-1 5v-3h4v3h-4Z" clip-rule="evenodd"/>
  <path fill="none" class="secondary" d="M11 12h4v3h-4z"/>
</svg>
