<svg xmlns="http://www.w3.org/2000/svg" width="12" height="12" fill="currentColor" viewBox="0 0 12 12">
  <path d="m4.436 2 1.37 2H9.5a.5.5 0 0 1 .5.5v.537c.362.036.701.15 1 .326V4.5A1.5 1.5 0 0 0 9.5 3H6.333L5.186 1.326A.75.75 0 0 0 4.568 1H2.167C1.522 1 1 1.627 1 2.4v6.2c0 .773.522 1.4 1.167 1.4h4.358V9H2.17a.167.167 0 0 1-.06-.05A.552.552 0 0 1 2 8.6V2.4c0-.165.056-.285.11-.35.03-.036.05-.047.06-.05h2.266Z"/>
  <path fill-rule="evenodd" d="M11.25 8.25V7.5a1.5 1.5 0 0 0-3 0v.75A.75.75 0 0 0 7.5 9v2.25c0 .414.336.75.75.75h3a.75.75 0 0 0 .75-.75V9a.75.75 0 0 0-.75-.75ZM9 7.5a.75.75 0 0 1 1.5 0v.75H9V7.5Zm-.75 3.75V9h3v2.25h-3Z" clip-rule="evenodd"/>
  <path fill="none" class="secondary" d="M8.25 9h3v2.25h-3z"/>
</svg>
