<svg xmlns="http://www.w3.org/2000/svg" width="20" height="20" fill="currentColor" viewBox="0 0 20 20">
  <path fill-rule="evenodd" d="M7.506 3.5 9.973 6H16.5a1 1 0 0 1 1 1v2.27a6.25 6.25 0 0 1 1.5.928V7a2.5 2.5 0 0 0-2.5-2.5h-5.9L8.5 2.372A1.25 1.25 0 0 0 7.61 2H3.1C1.94 2 1 3.045 1 4.333v10.334C1 15.955 1.94 17 3.1 17h5.977a6.22 6.22 0 0 1-.307-1.5H3.1a.498.498 0 0 1-.37-.187.964.964 0 0 1-.23-.646V4.333c0-.28.102-.504.23-.646A.498.498 0 0 1 3.1 3.5h4.406Z" clip-rule="evenodd"/>
  <path class="secondary" d="M14.997 16.25a1.25 1.25 0 1 0 0-2.5 1.25 1.25 0 0 0 0 2.5Z"/>
  <path class="secondary" fill-rule="evenodd" d="M16.4 19.595a.625.625 0 0 1-.586.405H14.18a.625.625 0 0 1-.585-.405l-.312-.832a.625.625 0 0 0-.687-.397l-.877.146a.625.625 0 0 1-.643-.305l-.817-1.414a.625.625 0 0 1 .058-.71l.565-.686a.625.625 0 0 0 0-.794l-.565-.686a.625.625 0 0 1-.058-.71l.817-1.414a.625.625 0 0 1 .643-.304l.877.145a.625.625 0 0 0 .687-.397l.312-.832A.625.625 0 0 1 14.18 10h1.634c.26 0 .494.162.585.405l.312.832c.105.28.393.446.688.397l.876-.146a.625.625 0 0 1 .644.305l.817 1.414a.625.625 0 0 1-.059.71l-.564.686a.625.625 0 0 0 0 .794l.564.686a.625.625 0 0 1 .059.71l-.817 1.414a.625.625 0 0 1-.644.305l-.876-.146a.625.625 0 0 0-.688.397l-.312.831Zm-1.786-.845h.767l.16-.426a1.875 1.875 0 0 1 2.063-1.191l.449.074.384-.664-.29-.352a1.875 1.875 0 0 1 0-2.382l.29-.352-.384-.664-.449.074a1.875 1.875 0 0 1-2.063-1.19l-.16-.427h-.767l-.16.426a1.875 1.875 0 0 1-2.064 1.191l-.448-.074-.384.664.289.352c.57.692.57 1.69 0 2.382l-.29.352.385.664.448-.074a1.875 1.875 0 0 1 2.064 1.19l.16.427Z" clip-rule="evenodd"/>
  <path fill="none" class="tertiary" fill-rule="evenodd" d="M15.386 18.75h-.768l-.16-.426a1.875 1.875 0 0 0-2.063-1.191l-.449.074-.383-.664.289-.352a1.875 1.875 0 0 0 0-2.382l-.29-.352.384-.664.45.074a1.875 1.875 0 0 0 2.062-1.19l.16-.427h.768l.16.426a1.875 1.875 0 0 0 2.063 1.191l.449-.074.384.664-.29.352c-.57.692-.57 1.69 0 2.382l.29.352-.384.664-.45-.074a1.875 1.875 0 0 0-2.063 1.19l-.16.427Zm.866-3.75a1.25 1.25 0 1 1-2.5 0 1.25 1.25 0 0 1 2.5 0Z" clip-rule="evenodd"/>
</svg>
