<svg xmlns="http://www.w3.org/2000/svg" width="12" height="12" fill="currentColor" viewBox="0 0 12 12">
  <path d="M2.067 5.286c-.295 0-.546-.107-.755-.32A1.04 1.04 0 0 1 1 4.214V2.071c0-.294.105-.546.315-.756.21-.21.463-.315.758-.315h2.145c.295 0 .547.105.755.315.209.21.313.462.313.756v2.143c0 .288-.105.538-.315.752-.21.213-.463.32-.758.32H2.067Zm0 5.714c-.295 0-.546-.105-.755-.315A1.037 1.037 0 0 1 1 9.927V7.782c0-.295.105-.547.315-.755.21-.209.463-.313.758-.313h2.145c.295 0 .547.105.755.315.209.21.313.463.313.758v2.145c0 .295-.105.547-.315.755-.21.209-.463.313-.758.313H2.067Zm5.719-5.714c-.288 0-.538-.107-.752-.32a1.029 1.029 0 0 1-.32-.752V2.071c0-.294.107-.546.32-.756.214-.21.464-.315.752-.315h2.143c.294 0 .546.105.756.315.21.21.315.462.315.756v2.143c0 .288-.105.538-.315.752-.21.213-.462.32-.756.32H7.786ZM2.07 4.214h2.143V2.071H2.071v2.143Zm5.715 0h2.143V2.071H7.786v2.143ZM2.07 9.93h2.143V7.786H2.071v2.143Zm9.644-3.216L8.857 11 6 6.714h5.714Z"/>
</svg>
