<svg xmlns="http://www.w3.org/2000/svg" width="12" height="12" fill="currentColor" viewBox="0 0 12 12">
    <path d="M4.567 1a.75.75 0 0 1 .62.326L6.333 3H9.5A1.5 1.5 0 0 1 11 4.5v.937a1.503 1.503 0 0 0-1-.16V4.5a.5.5 0 0 0-.5-.5H5.807L4.436 2H2.169a.16.16 0 0 0-.059.05.555.555 0 0 0-.11.35v6.2c0 .164.057.286.11.35a.16.16 0 0 0 .06.05h3.74l-.659.66V10H2.167C1.523 10 1 9.373 1 8.6V2.4C1 1.627 1.523 1 2.167 1h2.4Z"/>
    <path class="secondary" fill-rule="evenodd" d="M10.81 6.221a.75.75 0 0 0-1.062 0L8.735 7.235 6 9.97V12h2.03l3.749-3.748a.75.75 0 0 0 0-1.061l-.97-.97ZM10.5 8.47l.748-.749-.97-.97-.748.749.97.97ZM9 8.03l.97.97-2.25 2.25h-.97v-.97L9 8.03Z" clip-rule="evenodd"/>
</svg>
