<svg xmlns="http://www.w3.org/2000/svg" width="12" height="12" fill="currentColor" viewBox="0 0 12 12">
  <path fill="none" class="secondary" fill-rule="evenodd" d="M1 2.4C1 1.627 1.522 1 2.167 1h2.4a.75.75 0 0 1 .62.326L6.332 3H9.5A1.5 1.5 0 0 1 11 4.5v1.634A3.625 3.625 0 0 0 5.804 10H2.167C1.522 10 1 9.373 1 8.6V2.4Z" clip-rule="evenodd"/>
  <path fill-rule="evenodd" d="m4.436 2 1.37 2H9.5a.5.5 0 0 1 .5.5v1.304c.354.061.69.174 1 .33V4.5A1.5 1.5 0 0 0 9.5 3H6.333L5.186 1.326A.75.75 0 0 0 4.568 1H2.167C1.522 1 1 1.627 1 2.4v6.2c0 .773.522 1.4 1.167 1.4h3.637a3.648 3.648 0 0 1-.035-1h-3.6a.167.167 0 0 1-.06-.05A.552.552 0 0 1 2 8.6V2.4c0-.165.056-.285.11-.35.03-.036.05-.047.06-.05h2.266Z" clip-rule="evenodd"/>
  <path fill-rule="evenodd" d="M9.375 12a2.625 2.625 0 1 0 0-5.25 2.625 2.625 0 0 0 0 5.25ZM9 7.875a.375.375 0 1 1 .75 0v1.5a.375.375 0 1 1-.75 0v-1.5Zm.75 3a.375.375 0 1 1-.75 0 .375.375 0 0 1 .75 0Z" clip-rule="evenodd"/>
</svg>
