<svg xmlns="http://www.w3.org/2000/svg" width="20" height="20" fill="currentColor" viewBox="0 0 20 20">
  <path fill="none" class="secondary" fill-rule="evenodd" d="M1 4.333C1 3.045 1.94 2 3.1 2h4.51c.335 0 .656.134.89.372L10.6 4.5h5.9A2.5 2.5 0 0 1 19 7v4.441A5.375 5.375 0 0 0 10.428 17H3.1C1.94 17 1 15.955 1 14.667V4.333Z" clip-rule="evenodd"/>
  <path fill-rule="evenodd" d="M7.506 3.5 9.973 6H16.5a1 1 0 0 1 1 1v3.586a5.366 5.366 0 0 1 1.5.855V7a2.5 2.5 0 0 0-2.5-2.5h-5.9L8.5 2.372A1.25 1.25 0 0 0 7.61 2H3.1C1.94 2 1 3.045 1 4.333v10.334C1 15.955 1.94 17 3.1 17h7.328a5.383 5.383 0 0 1-.177-1.5H3.1a.498.498 0 0 1-.37-.187.964.964 0 0 1-.23-.646V4.333c0-.28.102-.504.23-.646A.498.498 0 0 1 3.1 3.5h4.406Z" clip-rule="evenodd"/>
  <path fill-rule="evenodd" d="M15.625 20a4.375 4.375 0 1 0 0-8.75 4.375 4.375 0 0 0 0 8.75ZM15 13.125a.625.625 0 1 1 1.25 0v2.5a.625.625 0 1 1-1.25 0v-2.5Zm1.25 5a.625.625 0 1 1-1.25 0 .625.625 0 0 1 1.25 0Z" clip-rule="evenodd"/>
</svg>
