<svg xmlns="http://www.w3.org/2000/svg" width="16" height="16" fill="currentColor" viewBox="0 0 16 16">
  <path fill="none" class="secondary" fill-rule="evenodd" d="M1 3.867C1 2.836 1.731 2 2.633 2h3.489a1 1 0 0 1 .721.308L8.467 4H13a2 2 0 0 1 2 2v2.758A4.5 4.5 0 0 0 8.256 14H2.633C1.731 14 1 13.164 1 12.133V3.867Z" clip-rule="evenodd"/>
  <path fill-rule="evenodd" d="m6.015 3.25 1.919 2H13a.75.75 0 0 1 .75.75v2.176c.45.13.87.328 1.25.582V6a2 2 0 0 0-2-2H8.467L6.843 2.308A1 1 0 0 0 6.122 2H2.633C1.731 2 1 2.836 1 3.867v8.266C1 13.164 1.731 14 2.633 14h5.623a4.481 4.481 0 0 1-.25-1.25H2.634c-.047 0-.126-.019-.214-.12a.755.755 0 0 1-.169-.497V3.867c0-.222.079-.394.17-.497.087-.101.166-.12.213-.12h3.382Z" clip-rule="evenodd"/>
  <path fill-rule="evenodd" d="M12.5 16a3.5 3.5 0 1 0 0-7 3.5 3.5 0 0 0 0 7Zm-.5-5.5a.5.5 0 0 1 1 0v2a.5.5 0 0 1-1 0v-2Zm1 4a.5.5 0 1 1-1 0 .5.5 0 0 1 1 0Z" clip-rule="evenodd"/>
</svg>
