<svg xmlns="http://www.w3.org/2000/svg" width="20" height="20" fill="currentColor" viewBox="0 0 20 20">
  <path d="M2.93 9a1.83 1.83 0 0 1-1.358-.576 1.873 1.873 0 0 1-.563-1.353L1 2.93c0-.53.19-.985.567-1.362A1.86 1.86 0 0 1 2.931 1h4.147c.531 0 .984.189 1.36.567.374.377.562.831.562 1.362l.01 4.142c0 .518-.19.97-.568 1.353A1.845 1.845 0 0 1 7.078 9H2.931Zm-.22-1.69h4.586l-.01-4.62H2.7l.01 4.62ZM12.93 9a1.83 1.83 0 0 1-1.358-.576 1.873 1.873 0 0 1-.563-1.353L11 2.93c0-.53.19-.985.567-1.362A1.86 1.86 0 0 1 12.931 1h4.147c.532 0 .985.189 1.36.567.375.377.562.831.562 1.362l.01 4.142c0 .518-.19.97-.568 1.353A1.845 1.845 0 0 1 17.078 9h-4.147Zm-.221-1.69h4.586l-.01-4.62H12.7l.01 4.62ZM12.93 19a1.83 1.83 0 0 1-1.358-.576 1.873 1.873 0 0 1-.563-1.353L11 12.93c0-.53.19-.985.567-1.363A1.86 1.86 0 0 1 12.931 11h4.147c.532 0 .985.189 1.36.566.375.378.562.832.562 1.363l.01 4.142c0 .518-.19.97-.568 1.353a1.845 1.845 0 0 1-1.364.576h-4.147Zm-.221-1.69h4.586l-.01-4.62H12.7l.01 4.62ZM2.93 19a1.83 1.83 0 0 1-1.358-.576 1.873 1.873 0 0 1-.563-1.353L1 12.93c0-.53.19-.985.567-1.363A1.86 1.86 0 0 1 2.931 11h4.147c.531 0 .984.189 1.36.566.374.378.562.832.562 1.363l.01 4.142c0 .518-.19.97-.568 1.353A1.846 1.846 0 0 1 7.078 19H2.931Zm-.221-1.69h4.586l-.01-4.62H2.7l.01 4.62Z"/>
</svg>
