<svg xmlns="http://www.w3.org/2000/svg" width="12" height="12" fill="currentColor" viewBox="0 0 12 12">
  <g class="project-arrow-12px">
    <path fill="none" d="M1.313 4.966c.208.213.46.32.754.32h2.146c.295 0 .548-.107.758-.32.21-.214.315-.464.315-.752V2.071c0-.294-.104-.546-.313-.756A1.025 1.025 0 0 0 4.218 1H2.073c-.295 0-.548.105-.758.315-.21.21-.315.462-.315.756v2.143c0 .288.104.538.313.752Zm0 5.719c.208.21.46.315.754.315h2.146c.295 0 .548-.104.758-.313.21-.208.315-.46.315-.755V7.787c0-.295-.104-.548-.313-.758a1.024 1.024 0 0 0-.755-.315H2.073c-.295 0-.548.104-.758.313-.21.208-.315.46-.315.755v2.145c0 .295.104.548.313.758Zm5.721-5.719c.214.213.464.32.752.32h2.143c.294 0 .546-.107.756-.32.21-.214.315-.464.315-.752V2.071c0-.294-.105-.546-.315-.756A1.032 1.032 0 0 0 9.93 1H7.786c-.288 0-.538.105-.752.315-.213.21-.32.462-.32.756v2.143c0 .288.107.538.32.752Z" class="secondary"/>
    <path d="M2.067 5.286c-.295 0-.546-.107-.755-.32A1.04 1.04 0 0 1 1 4.214V2.071c0-.294.105-.546.315-.756.21-.21.463-.315.758-.315h2.145c.295 0 .547.105.755.315.209.21.313.462.313.756v2.143c0 .288-.105.538-.315.752-.21.213-.463.32-.758.32H2.067Zm0 5.714c-.295 0-.546-.105-.755-.315A1.037 1.037 0 0 1 1 9.927V7.782c0-.295.105-.547.315-.755.21-.209.463-.313.758-.313h2.145c.295 0 .547.105.755.315.209.21.313.463.313.758v2.145c0 .295-.105.547-.315.755-.21.209-.463.313-.758.313H2.067Zm5.719-5.714c-.288 0-.538-.107-.752-.32a1.029 1.029 0 0 1-.32-.752V2.071c0-.294.107-.546.32-.756.214-.21.464-.315.752-.315h2.143c.294 0 .546.105.756.315.21.21.315.462.315.756v2.143c0 .288-.105.538-.315.752-.21.213-.462.32-.756.32H7.786ZM2.07 4.214h2.143V2.071H2.071v2.143Zm5.715 0h2.143V2.071H7.786v2.143ZM2.07 9.93h2.143V7.786H2.071v2.143Zm9.644-3.216L8.857 11 6 6.714h5.714Z" class="Union"/>
  </g>
</svg>
