<svg xmlns="http://www.w3.org/2000/svg" width="16" height="16" fill="currentColor" viewBox="0 0 16 16">
  <path fill-rule="evenodd" d="m6.015 3.25 1.919 2H13a.75.75 0 0 1 .75.75v1.315c.451.168.871.4 1.25.685V6a2 2 0 0 0-2-2H8.467L6.843 2.308A1 1 0 0 0 6.122 2H2.633C1.731 2 1 2.836 1 3.867v8.266C1 13.164 1.731 14 2.633 14h4.783a4.965 4.965 0 0 1-.36-1.25H2.633c-.047 0-.126-.019-.214-.12a.755.755 0 0 1-.169-.497V3.867c0-.222.079-.394.17-.497.087-.101.166-.12.213-.12h3.382Z" clip-rule="evenodd"/>
  <path fill="none" class="tertiary" fill-rule="evenodd" d="M12.309 15h-.614l-.128-.34a1.5 1.5 0 0 0-1.65-.954l-.36.06-.307-.532.231-.281a1.5 1.5 0 0 0 0-1.906l-.231-.281.307-.532.36.06a1.5 1.5 0 0 0 1.65-.953L11.695 9h.614l.127.34a1.5 1.5 0 0 0 1.651.954l.36-.06.306.532-.231.281a1.5 1.5 0 0 0 0 1.906l.231.281-.307.532-.359-.06a1.5 1.5 0 0 0-1.65.953l-.128.341Zm.693-3a1 1 0 1 1-2 0 1 1 0 0 1 2 0Z" clip-rule="evenodd"/>
  <path class="secondary" d="M11.998 13a1 1 0 1 0 0-2 1 1 0 0 0 0 2Z"/>
  <path class="secondary" fill-rule="evenodd" d="M13.12 15.676a.5.5 0 0 1-.469.324h-1.307a.5.5 0 0 1-.468-.324l-.25-.666a.5.5 0 0 0-.55-.317l-.7.116a.5.5 0 0 1-.515-.243l-.654-1.132a.5.5 0 0 1 .047-.568l.451-.548a.5.5 0 0 0 0-.636l-.451-.548a.5.5 0 0 1-.047-.568l.653-1.132a.5.5 0 0 1 .516-.243l.7.116a.5.5 0 0 0 .55-.317l.25-.666A.5.5 0 0 1 11.344 8h1.307a.5.5 0 0 1 .469.324l.249.666a.5.5 0 0 0 .55.317l.701-.116a.5.5 0 0 1 .515.243l.654 1.132a.5.5 0 0 1-.047.568l-.452.548a.5.5 0 0 0 0 .636l.452.548a.5.5 0 0 1 .047.568l-.654 1.132a.5.5 0 0 1-.515.243l-.7-.116a.5.5 0 0 0-.551.317l-.25.666ZM11.69 15h.615l.128-.34a1.5 1.5 0 0 1 1.65-.954l.36.06.306-.532-.23-.281a1.5 1.5 0 0 1 0-1.906l.23-.281-.307-.532-.359.06a1.5 1.5 0 0 1-1.65-.953L12.305 9h-.614l-.128.34a1.5 1.5 0 0 1-1.65.954l-.36-.06-.307.532.232.281a1.5 1.5 0 0 1 0 1.906l-.232.281.307.532.36-.06a1.5 1.5 0 0 1 1.65.953l.128.341Z" clip-rule="evenodd"/>
</svg>
