<svg xmlns="http://www.w3.org/2000/svg" width="16" height="16" fill="currentColor" viewBox="0 0 16 16">
    <path d="M6.122 2a1 1 0 0 1 .722.308L8.467 4H13a2 2 0 0 1 2 2v1.48a1.99 1.99 0 0 0-1.25-.476V6a.75.75 0 0 0-.75-.75H7.934l-1.92-2h-3.38c-.048 0-.127.02-.215.12a.755.755 0 0 0-.169.496v8.268c0 .221.079.393.169.496.088.1.167.12.215.12h4.495L7 12.879V14H2.634C1.732 14 1 13.165 1 12.134V3.866C1 2.836 1.732 2 2.634 2h3.488Z"/>
    <path class="secondary" fill-rule="evenodd" d="M14.412 8.295a1 1 0 0 0-1.414 0l-1.351 1.351L8 13.293V16h2.707l4.998-4.998a1 1 0 0 0 0-1.414l-1.293-1.293ZM14 11.293l.998-.998-1.293-1.293-.998.998L14 11.293Zm-2-.586L13.293 12l-3 3H9v-1.293l3-3Z" clip-rule="evenodd"/>
</svg>
