<svg xmlns="http://www.w3.org/2000/svg" width="12" height="12" fill="currentColor" viewBox="0 0 12 12">
  <path fill="none" class="secondary" d="M2.167 1C1.522 1 1 1.627 1 2.4v6.2c0 .773.522 1.4 1.167 1.4h7.666C10.478 10 11 9.373 11 8.6V4.5A1.5 1.5 0 0 0 9.5 3H6.333L5.186 1.326A.75.75 0 0 0 4.568 1H2.167Z"/>
  <path fill-rule="evenodd" d="m5.806 4-1.37-2H2.169a.167.167 0 0 0-.06.05A.552.552 0 0 0 2 2.4v6.2c0 .165.056.285.11.35.03.036.05.047.06.05h7.66c.01-.003.03-.014.06-.05A.552.552 0 0 0 10 8.6V4.5a.5.5 0 0 0-.5-.5H5.806Zm.527-1H9.5A1.5 1.5 0 0 1 11 4.5v4.1c0 .773-.522 1.4-1.167 1.4H2.167C1.522 10 1 9.373 1 8.6V2.4C1 1.627 1.522 1 2.167 1h2.4a.75.75 0 0 1 .62.326L6.332 3Z" clip-rule="evenodd"/>
</svg>
