<svg xmlns="http://www.w3.org/2000/svg" width="20" height="20" fill="currentColor" viewBox="0 0 20 20">
    <path d="M7.506 3.5 9.973 6H16.5a1 1 0 0 1 1 1v1.78c.512.076 1.005.31 1.4.705l.1.1V7a2.5 2.5 0 0 0-2.5-2.5h-5.9L8.5 2.372A1.25 1.25 0 0 0 7.61 2H3.1C1.94 2 1 3.045 1 4.333v10.334C1 15.955 1.94 17 3.1 17h5.65v-.902l.598-.598H3.1a.498.498 0 0 1-.37-.187.964.964 0 0 1-.23-.646V4.333c0-.28.102-.504.23-.646A.498.498 0 0 1 3.1 3.5h4.406Z"/>
    <path class="secondary" fill-rule="evenodd" d="M18.015 10.369a1.25 1.25 0 0 0-1.768 0l-1.689 1.689L10 16.616V20h3.384l6.247-6.248a1.25 1.25 0 0 0 0-1.767l-1.616-1.616Zm-.515 3.747 1.247-1.247-1.616-1.617-1.247 1.248 1.616 1.616Zm-2.5-.732L16.616 15l-3.75 3.75H11.25v-1.616l3.75-3.75Z" clip-rule="evenodd"/>
</svg>
