<svg xmlns="http://www.w3.org/2000/svg" width="16" height="16" fill="currentColor" viewBox="0 0 16 16">
  <path d="M2.502 7.222c-.413 0-.765-.15-1.057-.448a1.457 1.457 0 0 1-.438-1.052L1 2.5c0-.413.147-.766.441-1.06A1.45 1.45 0 0 1 2.501 1h3.227c.413 0 .765.147 1.057.44.291.294.437.647.437 1.06l.008 3.222c0 .403-.148.754-.442 1.052a1.435 1.435 0 0 1-1.06.448H2.502Zm-.173-1.315h3.567L5.89 2.314H2.322l.007 3.593Zm7.951 1.315c-.413 0-.766-.15-1.057-.448a1.457 1.457 0 0 1-.438-1.052L8.778 2.5c0-.413.147-.766.44-1.06.295-.293.649-.44 1.062-.44h3.226c.412 0 .765.147 1.056.44.292.294.438.647.438 1.06l.007 3.222c0 .403-.147.754-.44 1.052a1.435 1.435 0 0 1-1.062.448H10.28Zm-.173-1.315h3.567l-.007-3.593h-3.568l.008 3.593ZM10.28 15c-.413 0-.766-.15-1.057-.448a1.457 1.457 0 0 1-.438-1.052l-.007-3.222c0-.413.147-.766.44-1.06.295-.293.649-.44 1.062-.44h3.226c.412 0 .765.147 1.056.44.292.294.438.647.438 1.06l.007 3.222c0 .403-.147.754-.44 1.052a1.435 1.435 0 0 1-1.062.448H10.28Zm-.173-1.315h3.567l-.007-3.593h-3.568l.008 3.593ZM2.502 15c-.413 0-.765-.15-1.057-.448a1.457 1.457 0 0 1-.438-1.052L1 10.278c0-.413.147-.766.441-1.06a1.45 1.45 0 0 1 1.06-.44h3.227c.413 0 .765.147 1.057.44.291.294.437.647.437 1.06L7.23 13.5c0 .403-.148.754-.442 1.052a1.435 1.435 0 0 1-1.06.448H2.502Zm-.173-1.315h3.567l-.007-3.593H2.322l.007 3.593Z"/>
</svg>
