<?xml version="1.0" encoding="utf-8"?>
<svg xmlns="http://www.w3.org/2000/svg" viewBox="0 0 32 32">
  <path d="M30 32H17v-4h.5c1.9 0 3.5-1.6 3.5-3.5S19.4 21 17.5 21H17v-4h6v-2.5c0-.8.7-1.5 1.5-1.5s1.5.7 1.5 1.5V17h6v13c0 1.1-.9 2-2 2zm-2-17.5c0-1.9-1.6-3.5-3.5-3.5S21 12.6 21 14.5v.5h-4V9h-2.5c-.8 0-1.5-.7-1.5-1.5S13.7 6 14.5 6H17V0h13c1.1 0 2 .9 2 2v13h-4v-.5zm-17-7c0 1.9 1.6 3.5 3.5 3.5h.5v4H9v2.5c0 .8-.7 1.5-1.5 1.5S6 18.3 6 17.5V15H0V2C0 .9.9 0 2 0h13v4h-.5C12.6 4 11 5.6 11 7.5zm-7 10C4 19.4 5.6 21 7.5 21s3.5-1.6 3.5-3.5V17h4v6h2.5c.8 0 1.5.7 1.5 1.5s-.7 1.5-1.5 1.5H15v6H2c-1.1 0-2-.9-2-2V17h4v.5z"/>
</svg>
