<svg xmlns="http://www.w3.org/2000/svg" width="16" height="16" fill="currentColor" viewBox="0 0 16 16">
  <path fill-rule="evenodd" d="M7.558.892a.625.625 0 0 1 .884 0l1.783 1.783c.421-.674.963-1.096 1.579-1.252.827-.21 1.623.104 2.146.627.524.524.838 1.32.628 2.147-.156.615-.578 1.157-1.252 1.579l1.783 1.783a.625.625 0 0 1 0 .884l-2.4 2.4a.625.625 0 0 1-1.026-.22c-.355-.93-.81-1.241-1.127-1.322-.329-.083-.687.032-.956.3-.268.268-.383.627-.3.955.081.318.392.773 1.323 1.127a.625.625 0 0 1 .22 1.026l-2.4 2.4a.625.625 0 0 1-.885 0l-1.783-1.783c-.421.675-.963 1.096-1.578 1.252-.828.21-1.624-.104-2.147-.627-.524-.524-.838-1.32-.627-2.147.156-.615.577-1.157 1.252-1.578L.892 8.443a.625.625 0 0 1 0-.884l2.4-2.4a.625.625 0 0 1 1.026.22c.354.93.81 1.24 1.127 1.321.328.084.687-.031.955-.3.268-.268.383-.626.3-.955-.081-.317-.392-.772-1.322-1.127a.625.625 0 0 1-.22-1.026l2.4-2.4Zm-.9 2.667c.676.421 1.097.963 1.253 1.578.21.828-.104 1.624-.627 2.147-.524.524-1.32.838-2.147.628-.615-.157-1.157-.578-1.578-1.253L2.217 8.001l1.958 1.958a.625.625 0 0 1-.219 1.026c-.93.354-1.241.81-1.322 1.127-.083.328.032.687.3.955.268.268.626.383.955.3.317-.08.773-.392 1.127-1.322a.625.625 0 0 1 1.026-.22L8 13.783l1.341-1.34c-.674-.422-1.096-.964-1.252-1.58-.21-.827.104-1.622.628-2.146.523-.523 1.319-.838 2.146-.627.616.156 1.158.577 1.579 1.252L13.782 8l-1.957-1.958a.625.625 0 0 1 .22-1.026c.93-.355 1.24-.81 1.321-1.128.084-.328-.031-.687-.3-.955-.268-.268-.626-.383-.955-.3-.317.081-.772.392-1.127 1.322a.625.625 0 0 1-1.026.22L8 2.218 6.66 3.559Z" clip-rule="evenodd"/>
</svg>
