<svg width="16" height="16" viewBox="0 0 16 16" xmlns="http://www.w3.org/2000/svg">
<path d="m8.62 15.66c-.15 0-.31-.06-.42-.18l-2.78-2.78c-.11.17-.16.39-.23.71-.09.44-.2.98-.65 1.43-.88.88-2.54.88-3.42 0s-.88-2.54 0-3.42c.45-.45 1-.56 1.43-.65.31-.06.54-.11.71-.23l-2.78-2.78c-.12-.11-.18-.26-.18-.42s.06-.31.18-.42l2.58-2.57c.23-.23.61-.23.85 0l.32.32c.45.45.56 1 .65 1.43.07.38.12.63.31.81.41.41 1.32.41 1.73 0s.41-1.31 0-1.73c-.19-.18-.44-.23-.83-.31-.44-.09-.98-.2-1.43-.65l-.32-.32c-.11-.11-.18-.27-.18-.43s.06-.31.18-.42l2.58-2.57c.23-.23.61-.23.85 0l2.78 2.78c.11-.17.16-.39.23-.71.09-.44.2-.98.65-1.43.88-.88 2.54-.88 3.42 0s.88 2.54 0 3.42c-.45.45-1 .56-1.43.65-.31.06-.54.11-.71.23l2.78 2.78c.11.11.18.27.18.42s-.06.31-.18.42l-2.58 2.57c-.23.23-.61.23-.85 0l-.32-.32c-.45-.45-.56-1-.65-1.43-.08-.39-.13-.64-.32-.82-.41-.41-1.32-.41-1.73 0s-.41 1.31 0 1.73c.18.18.43.24.82.32.44.09.98.2 1.43.65l.32.32c.11.11.18.27.18.42 0 .16-.06.31-.18.43l-2.58 2.57c-.1.12-.25.18-.41.18zm-6.87-8.32 2.79 2.79c.23.23.23.61 0 .85l-.32.32c-.45.45-1 .56-1.43.65-.39.08-.64.13-.82.32-.19.19-.31.51-.31.86s.11.67.31.86c.41.41 1.32.41 1.73 0 .18-.18.24-.43.32-.82.09-.44.2-.98.65-1.43l.32-.32c.23-.23.61-.23.85 0l2.79 2.79 1.72-1.72c-.17-.11-.39-.16-.71-.23-.44-.09-.98-.2-1.43-.65-.42-.42-.66-1.04-.66-1.71s.24-1.29.66-1.71c.88-.88 2.54-.88 3.42 0 .45.45.56 1 .65 1.43.06.31.11.54.23.71l1.72-1.72-2.79-2.79c-.23-.23-.23-.61 0-.85l.32-.32c.45-.45 1-.56 1.43-.65.39-.08.64-.13.82-.32.19-.19.31-.52.31-.86s-.11-.67-.31-.86c-.38-.39-1.34-.39-1.73 0-.18.18-.24.43-.32.82-.09.44-.2.98-.65 1.43l-.32.32c-.23.23-.61.23-.85 0l-2.8-2.78-1.72 1.71c.17.11.39.16.71.23.44.09.98.2 1.43.65.42.42.66 1.04.66 1.71s-.24 1.29-.66 1.71c-.84.84-2.59.84-3.42 0-.45-.45-.56-1-.65-1.43-.06-.32-.11-.54-.22-.71z"/>
</svg>