<svg xmlns="http://www.w3.org/2000/svg" width="20" height="20" fill="currentColor" viewBox="0 0 20 20">
  <path fill-rule="evenodd" d="M9.47 1.136a.75.75 0 0 1 1.06 0l2.257 2.257c.526-.858 1.205-1.39 1.975-1.585 1.022-.26 2.006.128 2.654.776.648.648 1.035 1.631.776 2.653-.196.77-.728 1.45-1.585 1.975l2.256 2.257a.75.75 0 0 1 0 1.06l-3 3a.75.75 0 0 1-1.23-.263c-.446-1.169-1.021-1.567-1.431-1.671-.423-.108-.882.041-1.224.383-.341.341-.49.8-.383 1.223.104.41.503.985 1.672 1.43a.75.75 0 0 1 .263 1.232l-3 3a.75.75 0 0 1-1.06 0l-2.257-2.257c-.526.858-1.206 1.39-1.975 1.585-1.022.26-2.006-.128-2.654-.776-.648-.648-1.036-1.631-.776-2.654.196-.77.727-1.449 1.585-1.974L1.136 10.53a.75.75 0 0 1 0-1.061l3-3a.75.75 0 0 1 1.231.263c.446 1.17 1.021 1.568 1.43 1.672.424.107.883-.041 1.225-.383.341-.342.49-.8.382-1.224-.104-.41-.502-.985-1.671-1.43a.75.75 0 0 1-.263-1.231l3-3ZM8.273 4.453c.858.526 1.39 1.206 1.585 1.975.26 1.022-.128 2.006-.776 2.654-.648.648-1.631 1.035-2.654.776-.769-.196-1.448-.728-1.974-1.585L2.727 9.999l2.47 2.47a.75.75 0 0 1-.263 1.231c-1.17.446-1.568 1.02-1.672 1.43-.108.424.041.883.383 1.224.341.342.8.49 1.224.383.41-.104.985-.502 1.43-1.671a.75.75 0 0 1 1.231-.264l2.47 2.47 1.726-1.726c-.857-.526-1.39-1.206-1.585-1.975-.26-1.022.129-2.006.776-2.654.648-.648 1.632-1.036 2.654-.776.77.195 1.45.727 1.975 1.585l1.727-1.727-2.47-2.47a.75.75 0 0 1 .263-1.23c1.17-.446 1.568-1.021 1.672-1.43.107-.424-.041-.883-.383-1.225-.342-.341-.8-.49-1.224-.383-.41.105-.985.503-1.43 1.672a.75.75 0 0 1-1.232.263L10 2.726 8.274 4.454Z" clip-rule="evenodd"/>
</svg>
