<svg xmlns="http://www.w3.org/2000/svg" width="12" height="12" fill="currentColor" viewBox="0 0 12 12">
  <path fill-rule="evenodd" d="M5.682.683a.45.45 0 0 1 .636 0l1.354 1.354c.316-.515.723-.834 1.185-.951.613-.156 1.204.077 1.592.465.389.39.622.98.466 1.593-.117.461-.437.869-.951 1.184l1.354 1.355a.45.45 0 0 1 0 .636l-1.8 1.8a.45.45 0 0 1-.739-.158c-.267-.702-.612-.94-.858-1.003-.254-.064-.53.025-.734.23-.205.205-.294.48-.23.734.063.246.301.591 1.003.858a.45.45 0 0 1 .158.739l-1.8 1.8a.45.45 0 0 1-.636 0L4.327 9.965c-.315.514-.723.834-1.184.95-.614.157-1.204-.076-1.593-.465-.388-.389-.621-.979-.465-1.592.117-.462.436-.87.95-1.185L.683 6.32a.45.45 0 0 1 0-.636l1.8-1.8a.45.45 0 0 1 .738.158c.268.701.613.94.859 1.003.253.064.529-.025.734-.23.205-.205.294-.48.23-.734-.063-.246-.302-.591-1.003-.859a.45.45 0 0 1-.158-.738l1.8-1.8Zm-.718 1.99c.514.316.834.723.95 1.185.157.613-.076 1.203-.465 1.592s-.979.622-1.592.466c-.462-.117-.87-.437-1.185-.951L1.636 6l1.482 1.482a.45.45 0 0 1-.158.738c-.702.268-.94.613-1.003.859-.064.253.025.529.23.734.205.205.48.294.734.23.246-.063.591-.302.858-1.003a.45.45 0 0 1 .739-.158L6 10.364l1.036-1.036c-.515-.315-.834-.723-.951-1.184-.156-.614.077-1.204.465-1.593.39-.388.98-.621 1.593-.465.461.117.869.436 1.184.95l1.036-1.035-1.481-1.482a.45.45 0 0 1 .158-.739c.701-.267.94-.612 1.003-.858.064-.254-.025-.53-.23-.734-.205-.205-.48-.294-.734-.23-.246.062-.591.301-.859 1.003a.45.45 0 0 1-.738.158L6 1.637 4.964 2.673Z" clip-rule="evenodd"/>
</svg>
