<svg xmlns="http://www.w3.org/2000/svg" width="20" height="20" fill="currentColor" viewBox="0 0 20 20">
  <path d="M17.014 13.085A7.752 7.752 0 0 0 17.648 10c0-1.07-.211-2.099-.634-3.085l-2.45 1.141c.253.62.38 1.268.38 1.944 0 .676-.127 1.324-.38 1.944l2.45 1.14Zm-3.93-10.1A7.751 7.751 0 0 0 10 2.353c-1.07 0-2.099.211-3.085.634l1.141 2.45A5.085 5.085 0 0 1 10 5.057c.676 0 1.338.127 1.986.38l1.098-2.45ZM2.986 6.916A7.751 7.751 0 0 0 2.352 10c0 1.07.211 2.099.634 3.085l2.45-1.141A5.085 5.085 0 0 1 5.057 10c0-.676.127-1.338.38-1.986l-2.45-1.099Zm3.93 10.1a7.752 7.752 0 0 0 3.084.633c1.07 0 2.099-.211 3.085-.634l-1.1-2.45a5.409 5.409 0 0 1-1.985.38 5.085 5.085 0 0 1-1.944-.38l-1.14 2.45ZM10 1c1.183 0 2.324.225 3.422.676A8.713 8.713 0 0 1 16.38 3.62a8.712 8.712 0 0 1 1.944 2.957c.45 1.1.676 2.24.676 3.423a9.252 9.252 0 0 1-.676 3.465 8.818 8.818 0 0 1-1.944 2.915 8.712 8.712 0 0 1-2.957 1.944A8.934 8.934 0 0 1 10 19a9.251 9.251 0 0 1-3.465-.676A8.818 8.818 0 0 1 3.62 16.38a8.819 8.819 0 0 1-1.944-2.915A9.251 9.251 0 0 1 1 10c0-1.183.225-2.324.676-3.423A8.712 8.712 0 0 1 3.62 3.62a8.819 8.819 0 0 1 2.915-1.944A9.251 9.251 0 0 1 10 1Zm0 5.408c-.986 0-1.831.353-2.535 1.057-.704.704-1.057 1.55-1.057 2.535 0 .986.353 1.831 1.057 2.535.704.704 1.55 1.056 2.535 1.056.986 0 1.831-.352 2.535-1.056.704-.704 1.056-1.55 1.056-2.535 0-.986-.352-1.831-1.056-2.535-.704-.704-1.55-1.057-2.535-1.057Z"/>
</svg>
