<svg xmlns="http://www.w3.org/2000/svg" width="12" height="12" fill="currentColor" viewBox="0 0 12 12">
  <path d="M9.897 7.714A4.306 4.306 0 0 0 10.249 6c0-.595-.117-1.166-.352-1.714l-1.362.634c.141.344.211.704.211 1.08 0 .376-.07.736-.21 1.08l1.36.634Zm-2.183-5.61A4.306 4.306 0 0 0 6 1.75a4.32 4.32 0 0 0-1.714.352l.634 1.362A2.82 2.82 0 0 1 6 3.253c.376 0 .743.07 1.103.21l.61-1.36Zm-5.61 2.182A4.306 4.306 0 0 0 1.75 6c0 .595.118 1.166.352 1.714l1.362-.634A2.825 2.825 0 0 1 3.254 6c0-.376.07-.743.21-1.103l-1.36-.61Zm2.182 5.61A4.306 4.306 0 0 0 6 10.25c.595 0 1.166-.117 1.714-.352l-.61-1.362c-.36.141-.728.211-1.104.211-.376 0-.736-.07-1.08-.21l-.634 1.36ZM6 1a4.95 4.95 0 0 1 1.901.376 4.84 4.84 0 0 1 2.723 2.723c.25.61.376 1.244.376 1.901a5.14 5.14 0 0 1-.376 1.925 4.899 4.899 0 0 1-2.723 2.7A4.986 4.986 0 0 1 6 11a5.14 5.14 0 0 1-1.925-.376c-.61-.25-1.15-.61-1.62-1.08a4.9 4.9 0 0 1-1.08-1.62A5.14 5.14 0 0 1 1 6c0-.657.125-1.291.376-1.901a4.9 4.9 0 0 1 2.7-2.723A5.14 5.14 0 0 1 6 1Zm0 3.005a1.92 1.92 0 0 0-1.408.587A1.92 1.92 0 0 0 4.005 6c0 .548.195 1.017.587 1.408.39.392.86.587 1.408.587a1.92 1.92 0 0 0 1.408-.587A1.92 1.92 0 0 0 7.995 6a1.92 1.92 0 0 0-.587-1.408A1.92 1.92 0 0 0 6 4.005Z"/>
</svg>
