<svg xmlns="http://www.w3.org/2000/svg" width="16" height="16" fill="currentColor" viewBox="0 0 16 16">
  <path d="M13.455 10.4a6.03 6.03 0 0 0 .493-2.4 6.03 6.03 0 0 0-.493-2.4l-1.906.888c.197.482.296.986.296 1.512s-.099 1.03-.296 1.512l1.906.887ZM10.4 2.544A6.03 6.03 0 0 0 8 2.052a6.03 6.03 0 0 0-2.4.493l.888 1.906A3.955 3.955 0 0 1 8 4.155c.526 0 1.04.099 1.545.296l.854-1.906ZM2.545 5.6A6.029 6.029 0 0 0 2.052 8c0 .833.164 1.632.493 2.4l1.906-.888A3.955 3.955 0 0 1 4.155 8c0-.526.099-1.04.296-1.545l-1.906-.854ZM5.6 13.455a6.03 6.03 0 0 0 2.4.493 6.03 6.03 0 0 0 2.4-.493l-.855-1.906A4.205 4.205 0 0 1 8 11.845a3.96 3.96 0 0 1-1.512-.296l-.887 1.906ZM8 1c.92 0 1.808.175 2.662.526.876.35 1.643.854 2.3 1.512a6.777 6.777 0 0 1 1.512 2.3A6.95 6.95 0 0 1 15 8a7.19 7.19 0 0 1-.526 2.695 6.858 6.858 0 0 1-1.512 2.267 6.777 6.777 0 0 1-2.3 1.512A6.95 6.95 0 0 1 8 15a7.19 7.19 0 0 1-2.695-.526 6.86 6.86 0 0 1-2.267-1.512 6.858 6.858 0 0 1-1.512-2.267A7.195 7.195 0 0 1 1 8c0-.92.175-1.808.526-2.662a6.776 6.776 0 0 1 1.512-2.3 6.859 6.859 0 0 1 2.267-1.512A7.195 7.195 0 0 1 8 1Zm0 4.207a2.69 2.69 0 0 0-1.972.821A2.69 2.69 0 0 0 5.207 8c0 .767.273 1.424.821 1.972A2.689 2.689 0 0 0 8 10.793c.767 0 1.424-.273 1.972-.821A2.689 2.689 0 0 0 10.793 8c0-.767-.273-1.424-.821-1.972A2.69 2.69 0 0 0 8 5.207Z"/>
</svg>
