<svg xmlns="http://www.w3.org/2000/svg" width="20" height="20" fill="currentColor" viewBox="0 0 20 20">
  <path fill-rule="evenodd" d="M17.5 11.424c-.07-.07-.145-.142-.224-.219a28.145 28.145 0 0 0-2.303-1.987c-1.84-1.416-4.39-2.968-6.848-2.968-1.694 0-3.02.427-4.045 1.104-1.02.673-1.7 1.566-2.15 2.436a8.6 8.6 0 0 0-.796 2.364 8.523 8.523 0 0 0-.125 1.006l-.003.066v.028c0 .001 0 .002.75.016l-.75-.014a.75.75 0 0 0 1.5.03v-.008l.001-.04a7.025 7.025 0 0 1 .102-.812 7.08 7.08 0 0 1 .654-1.946c.36-.697.883-1.372 1.643-1.874.756-.5 1.788-.856 3.219-.856 1.918 0 4.118 1.26 5.933 2.657a26.667 26.667 0 0 1 2.397 2.093H14.5a.75.75 0 0 0 0 1.5h3.75a.75.75 0 0 0 .75-.75V9.5a.75.75 0 0 0-1.5 0v1.924Z" clip-rule="evenodd"/>
</svg>
