<svg xmlns="http://www.w3.org/2000/svg" width="16" height="16" fill="currentColor" viewBox="0 0 16 16">
  <path fill-rule="evenodd" d="M13.875 8.966V7.5a.625.625 0 1 1 1.25 0v3c0 .345-.28.625-.625.625h-3a.625.625 0 1 1 0-1.25h1.516a20.578 20.578 0 0 0-1.838-1.633C9.75 7.126 8.022 6.125 6.5 6.125c-1.14 0-1.955.283-2.544.676-.593.396-.997.928-1.272 1.479a5.52 5.52 0 0 0-.49 1.542 5.512 5.512 0 0 0-.069.674v.005a.626.626 0 0 1-1.25-.001H1.5.875v-.024a3.085 3.085 0 0 1 .011-.235 6.76 6.76 0 0 1 .076-.625c.085-.51.256-1.199.604-1.896.35-.699.884-1.417 1.697-1.959.817-.544 1.878-.886 3.237-.886 1.977 0 3.998 1.249 5.448 2.383a21.84 21.84 0 0 1 1.927 1.708Z" clip-rule="evenodd"/>
</svg>
