<svg xmlns="http://www.w3.org/2000/svg" width="12" height="12" fill="currentColor" viewBox="0 0 12 12">
  <path fill-rule="evenodd" d="M10 6.213V5.25a.5.5 0 0 1 1 0V7.5a.5.5 0 0 1-.5.5H8.25a.5.5 0 0 1 0-1h1.113A13.321 13.321 0 0 0 8.16 5.817c-.97-.83-2.162-1.567-3.284-1.567-.85 0-1.454.211-1.89.502a2.78 2.78 0 0 0-.944 1.097 4.11 4.11 0 0 0-.41 1.525 2.67 2.67 0 0 0-.005.1v.023l-.001.003v.001a.5.5 0 0 1-1-.001h.5-.5v-.02a2.35 2.35 0 0 1 .009-.178A5.108 5.108 0 0 1 1.148 5.4 3.79 3.79 0 0 1 2.43 3.92c.618-.412 1.42-.67 2.445-.67 1.503 0 2.935.951 3.935 1.808.487.418.896.834 1.19 1.155Z" clip-rule="evenodd"/>
</svg>
