<svg xmlns="http://www.w3.org/2000/svg" width="12" height="12" fill="currentColor" viewBox="0 0 12 12">
  <path d="m2.885 6.02 1.489 1.383a.478.478 0 0 1 .167.36.499.499 0 0 1-.167.367.566.566 0 0 1-.775-.007L1.167 5.865A.458.458 0 0 1 1 5.515c0-.134.056-.252.167-.356L3.6 2.901a.555.555 0 0 1 .39-.155.54.54 0 0 1 .385.155c.111.1.167.22.167.358a.48.48 0 0 1-.167.362l-1.49 1.383h5.198c.807 0 1.496.264 2.064.793.57.528.854 1.167.854 1.917v1.524a.475.475 0 0 1-.156.362.546.546 0 0 1-.388.146.558.558 0 0 1-.39-.146.471.471 0 0 1-.16-.362V7.714c0-.47-.178-.87-.532-1.2a1.83 1.83 0 0 0-1.292-.494H2.884Z"/>
</svg>
