<svg xmlns="http://www.w3.org/2000/svg" width="20" height="20" fill="currentColor" viewBox="0 0 20 20">
  <path d="m5.015 9.75 2.383 2.37a.845.845 0 0 1 .268.618c0 .233-.09.443-.268.628a.872.872 0 0 1-1.24-.011l-3.89-3.872a.808.808 0 0 1-.268-.6c0-.229.09-.432.267-.61l3.891-3.87a.857.857 0 0 1 1.24 0 .849.849 0 0 1 0 1.234l-2.383 2.37h8.316c1.292 0 2.393.454 3.303 1.36.91.905 1.366 2 1.366 3.286v2.613a.843.843 0 0 1-.25.62.841.841 0 0 1-.62.25.859.859 0 0 1-.625-.25.834.834 0 0 1-.256-.62v-2.613c0-.807-.283-1.492-.85-2.057a2.821 2.821 0 0 0-2.068-.846H5.015Z"/>
</svg>
