<svg xmlns="http://www.w3.org/2000/svg" width="16" height="16" fill="currentColor" viewBox="0 0 16 16">
  <path d="m4.332 7.364 1.844 1.843a.658.658 0 0 1 .207.48.688.688 0 0 1-.687.687.658.658 0 0 1-.48-.207l-3.01-3.01A.63.63 0 0 1 2 6.69a.65.65 0 0 1 .207-.473l3.01-3.01a.662.662 0 0 1 .959 0 .662.662 0 0 1 0 .96L4.332 6.01h6.434c.999 0 1.85.352 2.555 1.056a3.48 3.48 0 0 1 1.056 2.555v2.032a.657.657 0 0 1-.193.482.65.65 0 0 1-.48.195.662.662 0 0 1-.484-.195.65.65 0 0 1-.197-.482V9.62c0-.627-.22-1.16-.658-1.599a2.177 2.177 0 0 0-1.6-.658H4.333Z"/>
</svg>
