<svg xmlns="http://www.w3.org/2000/svg" width="16" height="16" fill="currentColor" viewBox="0 0 16 16">
  <g class="reviewers-graph">
    <path fill-rule="evenodd" d="M13.688 8.875c-.33 0-.628.126-.858.326l-1.397-.537a3.445 3.445 0 0 1-.45 1.14l1.408.541A1.308 1.308 0 0 0 15 10.187c0-.724-.587-1.312-1.313-1.312Zm-5.075 3.658V11.44c-.2.035-.403.061-.613.061-.21 0-.413-.026-.612-.061v1.094A1.308 1.308 0 0 0 8 15a1.308 1.308 0 0 0 .613-2.467Zm4.2-8.033A1.312 1.312 0 1 0 11.5 3.187c0 .134.026.261.063.384L9.999 5.134c.337.237.63.53.867.867l1.564-1.564c.122.038.249.063.383.063ZM3.17 9.201c-.23-.2-.528-.326-.857-.326a1.312 1.312 0 1 0 0 2.625c.67 0 1.217-.505 1.296-1.155l1.407-.54a3.447 3.447 0 0 1-.449-1.14L3.17 9.2ZM6 5.134 3.563 2.696c.037-.123.063-.25.063-.384a1.312 1.312 0 1 0-1.313 1.313c.134 0 .261-.025.383-.063l2.44 2.439c.236-.337.529-.63.866-.867Zm4.232 1.5a2.627 2.627 0 0 0-.866-.866A2.607 2.607 0 0 0 8 5.375a2.61 2.61 0 0 0-1.366.393c-.353.217-.65.513-.866.866-.245.4-.393.864-.393 1.366 0 .116.02.227.034.34A2.618 2.618 0 0 0 8 10.625a2.617 2.617 0 0 0 2.59-2.285c.016-.113.035-.224.035-.34 0-.502-.148-.966-.393-1.366Z" class="Fill 1" clip-rule="evenodd"/>
  </g>
</svg>
