<svg xmlns="http://www.w3.org/2000/svg" viewBox="0 0 16 16"><path d="M8.65,13.17V11.6a3.51,3.51,0,0,1-.66.07,3.39,3.39,0,0,1-.64-.07v1.58a1.48,1.48,0,1,0,1.3,0Zm4.19-9.06a1.51,1.51,0,1,0-1.29-.76L10.11,5A3.7,3.7,0,0,1,11,6l1.6-1.88Zm-10.37,5a1.51,1.51,0,0,0-1-.37A1.49,1.49,0,1,0,3,10.26l1.72-.71a3.61,3.61,0,0,1-.33-1.27ZM5.92,5l-3-3A1.28,1.28,0,0,0,3,1.49,1.49,1.49,0,1,0,1.49,3,1.28,1.28,0,0,0,2,2.89l3,3a3.31,3.31,0,0,1,.41-.5A4.22,4.22,0,0,1,5.92,5Zm2.61.39a2.89,2.89,0,0,0-1.07,0,2.67,2.67,0,1,0,2.42.73A2.71,2.71,0,0,0,8.53,5.39Zm6,3.3a1.5,1.5,0,0,0-1,.36l-1.91-.79a4,4,0,0,1-.32,1.28l1.72.7a1.49,1.49,0,1,0,1.48-1.55Z"/></svg>