<svg viewBox="0 0 32 32" xmlns="http://www.w3.org/2000/svg"><g><path d="m20.16 11.13l1.636-2.122c.427.174.924.278 1.422.209 1.6-.174 2.773-1.6 2.596-3.165-.178-1.565-1.636-2.713-3.236-2.539-1.6.174-2.773 1.6-2.596 3.165.071.557.284 1.043.604 1.461l-1.636 2.122c.427.243.818.557 1.209.87"/><path d="m28.551 18.957c-.782.104-1.493.487-1.956 1.043l-4.658-2.052c-.142.452-.356.904-.604 1.322l4.693 2.087c-.036.243-.071.522-.036.8.178 1.565 1.636 2.713 3.236 2.539 1.6-.174 2.773-1.6 2.596-3.165-.213-1.635-1.671-2.748-3.271-2.574"/><path d="m18.631 28.452c-.142-1.217-1.067-2.191-2.204-2.47l-.071-3.583h-.071c-.462.035-.924.035-1.387 0l.036 3.617c-1.351.383-2.311 1.67-2.133 3.096.178 1.565 1.636 2.713 3.236 2.539 1.6-.209 2.773-1.6 2.596-3.2"/><path d="m5.547 18.539c-.604-.87-1.636-1.391-2.738-1.252-1.6.174-2.773 1.6-2.596 3.165.178 1.565 1.636 2.713 3.236 2.539 1.564-.174 2.738-1.53 2.596-3.096l3.449-1.183c-.213-.417-.391-.87-.498-1.357l-3.449 1.183"/><path d="m10.06 6.02l2.027 4.278c.427-.243.853-.452 1.351-.626l-2.062-4.243c.747-.591 1.173-1.53 1.067-2.539-.178-1.565-1.636-2.713-3.236-2.539-1.6.174-2.773 1.6-2.596 3.165.178 1.565 1.636 2.713 3.236 2.539.071 0 .142 0 .213-.035"/><ellipse cx="15.538" cy="15.896" rx="5.05" ry="4.939"/></g></svg>