<svg xmlns="http://www.w3.org/2000/svg" width="16" height="16" viewBox="0 0 16 16"><g><path d="M10.55,6.44a2.93,2.93,0,0,0-1-1h0a2.93,2.93,0,0,0-3.12,0h0a2.93,2.93,0,0,0-1,1h0A3,3,0,0,0,5,8a2.58,2.58,0,0,0,0,.39H5a3,3,0,0,0,5.92,0h0A2.58,2.58,0,0,0,11,8a3,3,0,0,0-.45-1.56ZM5.72,4.73,2.93,1.94A1.62,1.62,0,0,0,3,1.5,1.5,1.5,0,1,0,1.5,3a1.62,1.62,0,0,0,.44-.07L4.73,5.72A3.59,3.59,0,0,1,5.72,4.73ZM2.48,9.37A1.47,1.47,0,0,0,1.5,9,1.5,1.5,0,1,0,3,10.68l1.61-.62a4,4,0,0,1-.51-1.3ZM13.5,4A1.5,1.5,0,1,0,12,2.5a1.62,1.62,0,0,0,.07.44L10.28,4.73a3.59,3.59,0,0,1,1,1l1.79-1.79A1.62,1.62,0,0,0,13.5,4ZM8.7,13.18V11.93A4.05,4.05,0,0,1,8,12a4.05,4.05,0,0,1-.7-.07v1.25a1.5,1.5,0,1,0,1.4,0ZM14.5,9a1.47,1.47,0,0,0-1,.37l-1.6-.61a3.88,3.88,0,0,1-.51,1.3l1.61.62A1.5,1.5,0,1,0,14.5,9Z"/></g></svg>