<svg xmlns="http://www.w3.org/2000/svg" width="20" height="20" fill="currentColor" viewBox="0 0 20 20">
  <path fill-rule="evenodd" d="M10 17.25a7.25 7.25 0 1 0 0-14.5 7.25 7.25 0 0 0 0 14.5ZM18.75 10a8.75 8.75 0 1 1-17.5 0 8.75 8.75 0 0 1 17.5 0Z" clip-rule="evenodd"/>
  <path d="M8.125 8.08c0-.265 0-.398.071-.472a.39.39 0 0 1 .26-.108c.118-.005.26.069.545.216l3.703 1.92c.236.121.353.182.394.26a.218.218 0 0 1 0 .209c-.04.077-.158.138-.394.26l-3.703 1.919c-.285.147-.427.221-.545.216a.39.39 0 0 1-.26-.108c-.071-.074-.071-.207-.071-.473V8.081Z"/>
</svg>
