<svg xmlns="http://www.w3.org/2000/svg" width="12" height="12" fill="currentColor" viewBox="0 0 12 12">
  <path fill-rule="evenodd" d="M6 10.25a4.25 4.25 0 1 0 0-8.5 4.25 4.25 0 0 0 0 8.5ZM11.25 6A5.25 5.25 0 1 1 .75 6a5.25 5.25 0 0 1 10.5 0Z" clip-rule="evenodd"/>
  <path d="M4.875 4.848c0-.16 0-.239.043-.283a.233.233 0 0 1 .156-.065c.07-.003.156.041.327.13l2.222 1.15c.14.073.211.11.236.156a.13.13 0 0 1 0 .126c-.025.046-.095.083-.236.156L5.4 7.37c-.171.089-.256.133-.327.13a.233.233 0 0 1-.156-.065c-.043-.044-.043-.124-.043-.283V4.848Z"/>
</svg>
