<svg xmlns="http://www.w3.org/2000/svg" width="16" height="16" fill="currentColor" viewBox="0 0 16 16">
  <path fill-rule="evenodd" d="M8 13.75a5.75 5.75 0 1 0 0-11.5 5.75 5.75 0 0 0 0 11.5ZM15 8A7 7 0 1 1 1 8a7 7 0 0 1 14 0Z" clip-rule="evenodd"/>
  <path d="M6.5 6.464c0-.212 0-.319.057-.377A.311.311 0 0 1 6.765 6c.094-.004.208.055.436.173l2.963 1.535c.188.098.282.147.315.208a.174.174 0 0 1 0 .168c-.033.061-.127.11-.315.208L7.2 9.827c-.228.118-.342.177-.436.173a.311.311 0 0 1-.208-.087C6.5 9.855 6.5 9.748 6.5 9.536V6.464Z"/>
</svg>
