<?xml version="1.0" encoding="utf-8"?>
<!DOCTYPE svg PUBLIC "-//W3C//DTD SVG 1.1//EN" "http://www.w3.org/Graphics/SVG/1.1/DTD/svg11.dtd">
<svg version="1.1" xmlns="http://www.w3.org/2000/svg" xmlns:xlink="http://www.w3.org/1999/xlink" x="0px" y="0px"
	 width="32px" height="32px" viewBox="0 0 32 32" enable-background="new 0 0 32 32">
<path d="M24.934,10.868c1.187-2.238,1.779-4.814,1.779-7.725h1.608c0.157,0,0.283-0.051,0.382-0.152
	c0.104-0.101,0.153-0.229,0.153-0.386V1.536c0-0.155-0.049-0.286-0.153-0.384C28.606,1.052,28.479,1,28.321,1H3.678
	C3.521,1,3.392,1.051,3.294,1.152c-0.1,0.099-0.152,0.227-0.152,0.384v1.071c0,0.155,0.052,0.285,0.152,0.384
	c0.098,0.101,0.227,0.152,0.384,0.152h1.608c0,2.911,0.592,5.488,1.78,7.725c1.191,2.239,2.677,3.949,4.466,5.132
	c-1.785,1.182-3.273,2.893-4.462,5.131c-1.191,2.237-1.781,4.812-1.781,7.723h-1.61c-0.157,0-0.286,0.052-0.384,0.153
	c-0.1,0.1-0.152,0.23-0.152,0.389v1.067c0,0.158,0.052,0.286,0.152,0.384C3.394,30.952,3.521,31,3.678,31h24.643
	c0.157,0,0.283-0.048,0.382-0.152c0.104-0.099,0.153-0.227,0.153-0.384v-1.067c0-0.158-0.049-0.286-0.153-0.389
	c-0.099-0.101-0.225-0.15-0.382-0.15h-1.608c0-2.911-0.594-5.485-1.779-7.723c-1.191-2.242-2.676-3.952-4.464-5.134
	C22.257,14.817,23.743,13.108,24.934,10.868z M22.487,21.196c0.63,0.989,1.134,2.149,1.517,3.483
	c0.377,1.332,0.569,2.725,0.569,4.174H7.428c0-1.448,0.19-2.842,0.568-4.174c0.379-1.335,0.886-2.494,1.516-3.483
	c0.63-0.986,1.337-1.835,2.119-2.543c0.78-0.709,1.594-1.236,2.443-1.584h3.85c0.848,0.348,1.664,0.878,2.444,1.584
	C21.15,19.361,21.857,20.21,22.487,21.196z M7.58,5.286c-0.101-0.692-0.15-1.406-0.15-2.143h17.142c0,0.747-0.048,1.463-0.15,2.143
	H7.58z"/>
</svg>
