<svg width="12" height="12" viewBox="0 0 12 12" xmlns="http://www.w3.org/2000/svg">
<path d="M6 1.5C8.48528 1.5 10.5 3.51472 10.5 6C10.5 8.48528 8.48528 10.5 6 10.5C3.51472 10.5 1.5 8.48528 1.5 6C1.5 3.51472 3.51472 1.5 6 1.5Z" stroke="#6C707E" stroke-linecap="round" stroke-linejoin="round"/>
<path d="M4 7.19995C4 7.19995 4.57143 8.19995 6 8.19995C7.42857 8.19995 8 7.19995 8 7.19995" stroke="#6C707E" stroke-linecap="round" stroke-linejoin="round"/>
<path d="M4.3501 4.5C4.48817 4.5 4.6001 4.61193 4.6001 4.75C4.6001 4.88807 4.48817 5 4.3501 5C4.21203 5 4.1001 4.88807 4.1001 4.75C4.1001 4.61193 4.21203 4.5 4.3501 4.5Z" stroke="#6C707E"/>
<path d="M7.6499 4.5C7.78797 4.5 7.8999 4.61193 7.8999 4.75C7.8999 4.88807 7.78797 5 7.6499 5C7.51183 5 7.3999 4.88807 7.3999 4.75C7.3999 4.61193 7.51183 4.5 7.6499 4.5Z" stroke="#6C707E"/>
</svg>
