<svg xmlns="http://www.w3.org/2000/svg" width="99.903" height="77.807" viewBox="-346 271.454 99.903 77.806999"
     enable-background="new -346 256 100 100">
    <g>
        <path d="M-275.523 271.454c-10.806 0-20.926 6.548-25.785 14.897h4.518c8.182 0 15.035 4.732 16.771 11.047h10.256c3.906.233 11.032 2.89 11.032 11.312 0 5.621-2.754 8.438-5.065 9.812-.364.218-.767.321-1.162.321-.775 0-1.531-.398-1.956-1.113-.643-1.079-.288-2.474.789-3.117 1.915-1.137 2.846-3.067 2.846-5.903 0-6.293-6.353-6.751-6.622-6.769l-9.738.003c-.445 6.119-3.963 12.743-17.15 12.743h-14.537l-1.734 3.649c-.123.276-.184.596-.184.924 0 1.312 1.059 2.377 2.377 2.377h5.814v6.936c0 8.887 5.206 11.649 11.638 11.649h3.948v9.039h32.179v-22.82c6.869-5.401 11.29-16.041 11.29-25.457-.002-16.312-13.213-29.53-29.525-29.53zm-41.154 43.217v-28.364h15.395s-.686 1.035-1.191 2.25c-.507 1.214-.874 2.302-.874 2.302h-8.777v19.363h2.896l-2.092 4.449h-5.357zm19.677-23.855h-6.328c-.193.589-.374 1.18-.512 1.776-.569 2.463-1.215 8.9-1.215 8.9l-4.15 8.729h12.205c11.291 0 12.741-5.184 12.741-9.702 0-5.349-5.716-9.703-12.741-9.703zm1.244 14.013c-1.639 0-2.967-1.329-2.967-2.967 0-1.638 1.328-2.966 2.967-2.966 1.64 0 2.967 1.328 2.967 2.966 0 1.638-1.327 2.967-2.967 2.967z"/>
        <polygon points="-345.901,325.722 -324.995,312.457 -324.949,319.959 -318.228,304.739 -345.901,322.309"/>
        <polygon points="-345.901,339.283 -324.995,326.017 -324.949,333.521 -318.228,318.299 -345.901,335.87"/>
        <polygon
                points="-337.185,286.86 -331.493,296.918 -331.353,291.483 -323.947,297.354 -345.901,311.291 -345.901,314.705 -318.981,297.611 -329.233,289.43 -324.007,286.86"/>
    </g>
</svg>
