<svg xmlns="http://www.w3.org/2000/svg" width="100" height="73.612" viewBox="2.206 14.194 100 73.612"
     enable-background="new 2.206 14.194 100 73.612">
    <path d="M52.043 63.576l.007-.012-5.398-11.87-.001.011v-.011c0-12.272-9.949-22.222-22.222-22.222s-22.223 9.95-22.223 22.222c0 7.015 3.258 13.26 8.333 17.333v18.779h23.611v-8.333h2.778v-.002c4.602 0 8.333-3.73 8.333-8.333v-5.554l5.556-.002c.768 0 1.389-.621 1.389-1.389 0-.224-.066-.43-.163-.617zm-12.337-6.326c-1.534 0-2.778-1.244-2.778-2.778 0-1.533 1.244-2.777 2.778-2.777s2.778 1.244 2.778 2.777c0 1.534-1.244 2.778-2.778 2.778zm54.167-43.056h-33.334c-4.604 0-8.333 3.73-8.333 8.333v19.444c0 4.602 3.729 8.332 8.333 8.332l4.167.001-4.167 11.111 18.056-11.111 15.278-.001c4.604 0 8.333-3.73 8.333-8.332v-19.443c0-4.604-3.729-8.334-8.333-8.334zm-6.37 24.425l-3.928 3.928-6.369-6.369-6.369 6.369-3.928-3.928 6.369-6.369-6.369-6.37 3.928-3.928 6.369 6.369 6.369-6.369 3.928 3.928-6.369 6.37 6.369 6.369z"/>
</svg>
