<?xml version="1.0" encoding="utf-8"?>

<!DOCTYPE svg PUBLIC "-//W3C//DTD SVG 1.1//EN" "http://www.w3.org/Graphics/SVG/1.1/DTD/svg11.dtd">
<svg version="1.1" xmlns="http://www.w3.org/2000/svg" xmlns:xlink="http://www.w3.org/1999/xlink" width="16" height="16" viewBox="0 0 16 16" >
  <path d="M4356,862.625l-1.18,1.368-3.14-3.121a7.172,7.172,0,1,1,2.82-5.668,7.08,7.08,0,0,1-1.55,4.4Zm-8.75-12.83a5.409,5.409,0,1,0,3.15,9.807l-0.12-.112,1.18-1.367,0.21,0.208a5.307,5.307,0,0,0,1.02-3.127A5.428,5.428,0,0,0,4347.25,849.8Zm0,9.007a3.617,3.617,0,0,1-3.63-3.6c0-.013.01-0.025,0.01-0.037a3.118,3.118,0,0,0,.45.045,3.162,3.162,0,0,0,3.17-3.153,2.238,2.238,0,0,0-.05-0.449c0.02,0,.03,0,0.05,0A3.6,3.6,0,1,1,4347.25,858.8Z" transform="translate(-4340 -848)"/>
</svg>
