<svg xmlns="http://www.w3.org/2000/svg" width="20" height="20" viewBox="0 0 20 20">
    <path d="M10 16.4375C11.3472 16.0209 12.4688 15.2188 13.3646 14.0313C14.2604 12.8438 14.7847 11.5 14.9375 10H10V3.60419L5 5.52085V9.27085C5 9.39585 5.00694 9.51738 5.02083 9.63544C5.03472 9.75349 5.04861 9.87502 5.0625 10H10V16.4375ZM10 17.9167C9.91667 17.9167 9.83333 17.9132 9.75 17.9063C9.66667 17.8993 9.59028 17.882 9.52083 17.8542C7.70139 17.257 6.24306 16.1528 5.14583 14.5417C4.04861 12.9306 3.5 11.1736 3.5 9.27085V5.52085C3.5 5.20141 3.58681 4.91669 3.76042 4.66669C3.93403 4.41669 4.16667 4.23613 4.45833 4.12502L9.45833 2.20835C9.63889 2.13891 9.81944 2.10419 10 2.10419C10.1806 2.10419 10.3611 2.13891 10.5417 2.20835L15.5417 4.12502C15.8333 4.23613 16.066 4.41669 16.2396 4.66669C16.4132 4.91669 16.5 5.20141 16.5 5.52085V9.27085C16.5 11.1736 15.9514 12.9306 14.8542 14.5417C13.7569 16.1528 12.2986 17.257 10.4792 17.8542C10.4097 17.882 10.3333 17.8993 10.25 17.9063C10.1667 17.9132 10.0833 17.9167 10 17.9167Z"/>
</svg>