<svg xmlns="http://www.w3.org/2000/svg" width="16" height="16" viewBox="0 0 16 16">
    <path d="M7.99999 13.15C9.07776 12.8167 9.97499 12.175 10.6917 11.225C11.4083 10.275 11.8278 9.20002 11.95 8.00002H7.99999V2.88335L3.99999 4.41668V7.41668C3.99999 7.51668 4.00554 7.6139 4.01665 7.70835C4.02777 7.80279 4.03888 7.90002 4.04999 8.00002H7.99999V13.15ZM7.99999 14.3333C7.93332 14.3333 7.86665 14.3306 7.79999 14.325C7.73332 14.3195 7.67221 14.3056 7.61665 14.2833C6.1611 13.8056 4.99443 12.9222 4.11665 11.6333C3.23888 10.3445 2.79999 8.9389 2.79999 7.41668V4.41668C2.79999 4.16113 2.86943 3.93335 3.00832 3.73335C3.14721 3.53335 3.33332 3.38891 3.56665 3.30002L7.56665 1.76668C7.7111 1.71113 7.85554 1.68335 7.99999 1.68335C8.14443 1.68335 8.28888 1.71113 8.43332 1.76668L12.4333 3.30002C12.6667 3.38891 12.8528 3.53335 12.9917 3.73335C13.1305 3.93335 13.2 4.16113 13.2 4.41668V7.41668C13.2 8.9389 12.7611 10.3445 11.8833 11.6333C11.0055 12.9222 9.83888 13.8056 8.38332 14.2833C8.32777 14.3056 8.26665 14.3195 8.19999 14.325C8.13332 14.3306 8.06665 14.3333 7.99999 14.3333Z"/>
</svg>