<svg xmlns="http://www.w3.org/2000/svg" width="12" height="12" viewBox="0 0 12 12">
    <path d="M5.99998 9.86251C6.80831 9.61251 7.48123 9.13126 8.01873 8.41876C8.55623 7.70626 8.87081 6.90001 8.96248 6.00001H5.99998V2.16251L2.99998 3.31251V5.56251C2.99998 5.63751 3.00414 5.71043 3.01248 5.78126C3.02081 5.8521 3.02914 5.92501 3.03748 6.00001H5.99998V9.86251ZM5.99998 10.75C5.94998 10.75 5.89998 10.7479 5.84998 10.7438C5.79998 10.7396 5.75414 10.7292 5.71248 10.7125C4.62081 10.3542 3.74581 9.69168 3.08748 8.72501C2.42914 7.75835 2.09998 6.70418 2.09998 5.56251V3.31251C2.09998 3.12085 2.15206 2.95001 2.25623 2.80001C2.36039 2.65001 2.49998 2.54168 2.67498 2.47501L5.67498 1.32501C5.78331 1.28335 5.89164 1.26251 5.99998 1.26251C6.10831 1.26251 6.21664 1.28335 6.32498 1.32501L9.32498 2.47501C9.49998 2.54168 9.63956 2.65001 9.74373 2.80001C9.84789 2.95001 9.89998 3.12085 9.89998 3.31251V5.56251C9.89998 6.70418 9.57081 7.75835 8.91248 8.72501C8.25414 9.69168 7.37914 10.3542 6.28748 10.7125C6.24581 10.7292 6.19998 10.7396 6.14998 10.7438C6.09998 10.7479 6.04998 10.75 5.99998 10.75Z"/>
</svg>