<svg xmlns="http://www.w3.org/2000/svg" width="16" height="16" fill="currentColor" viewBox="0 0 16 16">
  <path d="M3.496 14c-.414 0-.767-.147-1.058-.442A1.456 1.456 0 0 1 2 12.496c0-.414.147-.767.442-1.059A1.456 1.456 0 0 1 3.504 11c.414 0 .767.147 1.058.442.292.294.438.649.438 1.062 0 .414-.147.767-.442 1.059A1.456 1.456 0 0 1 3.496 14Zm4.5 0c-.414 0-.767-.147-1.059-.442a1.456 1.456 0 0 1-.437-1.062c0-.414.147-.767.442-1.059A1.456 1.456 0 0 1 8.004 11c.414 0 .767.147 1.059.442.291.294.437.649.437 1.062 0 .414-.147.767-.442 1.059A1.456 1.456 0 0 1 7.996 14Zm4.5 0c-.414 0-.767-.147-1.059-.442A1.456 1.456 0 0 1 11 12.496c0-.414.147-.767.442-1.059A1.456 1.456 0 0 1 12.504 11c.414 0 .767.147 1.059.442.291.294.437.649.437 1.062 0 .414-.147.767-.442 1.059a1.456 1.456 0 0 1-1.062.437Zm-9-4.5c-.414 0-.767-.147-1.058-.442A1.456 1.456 0 0 1 2 7.996c0-.414.147-.767.442-1.059A1.456 1.456 0 0 1 3.504 6.5c.414 0 .767.147 1.058.442.292.295.438.649.438 1.062 0 .414-.147.767-.442 1.059a1.456 1.456 0 0 1-1.062.437Zm4.5 0c-.414 0-.767-.147-1.059-.442A1.456 1.456 0 0 1 6.5 7.996c0-.414.147-.767.442-1.059A1.456 1.456 0 0 1 8.004 6.5c.414 0 .767.147 1.059.442.291.295.437.649.437 1.062 0 .414-.147.767-.442 1.059a1.456 1.456 0 0 1-1.062.437Zm4.5 0c-.414 0-.767-.147-1.059-.442A1.456 1.456 0 0 1 11 7.996c0-.414.147-.767.442-1.059a1.456 1.456 0 0 1 1.062-.437c.414 0 .767.147 1.059.442.291.295.437.649.437 1.062 0 .414-.147.767-.442 1.059a1.456 1.456 0 0 1-1.062.437Zm-9-4.5c-.414 0-.767-.147-1.058-.442A1.456 1.456 0 0 1 2 3.496c0-.414.147-.767.442-1.058A1.456 1.456 0 0 1 3.504 2c.414 0 .767.147 1.058.442.292.295.438.649.438 1.062 0 .414-.147.767-.442 1.058A1.456 1.456 0 0 1 3.496 5Zm4.5 0c-.414 0-.767-.147-1.059-.442A1.456 1.456 0 0 1 6.5 3.496c0-.414.147-.767.442-1.058A1.456 1.456 0 0 1 8.004 2c.414 0 .767.147 1.059.442.291.295.437.649.437 1.062 0 .414-.147.767-.442 1.058A1.456 1.456 0 0 1 7.996 5Zm4.5 0c-.414 0-.767-.147-1.059-.442A1.456 1.456 0 0 1 11 3.496c0-.414.147-.767.442-1.058A1.456 1.456 0 0 1 12.504 2c.414 0 .767.147 1.059.442.291.295.437.649.437 1.062 0 .414-.147.767-.442 1.058A1.456 1.456 0 0 1 12.496 5Z"/>
</svg>
