<svg xmlns="http://www.w3.org/2000/svg" width="20" height="20" fill="currentColor" viewBox="0 0 20 20">
  <path d="M3.994 18a1.912 1.912 0 0 1-1.41-.59A1.942 1.942 0 0 1 2 15.995c0-.551.196-1.022.59-1.41A1.941 1.941 0 0 1 4.005 14c.552 0 1.022.196 1.41.59.39.392.584.864.584 1.416 0 .552-.196 1.022-.59 1.41A1.941 1.941 0 0 1 3.995 18Zm6 0a1.912 1.912 0 0 1-1.41-.59A1.942 1.942 0 0 1 8 15.995c0-.551.196-1.022.59-1.41A1.941 1.941 0 0 1 10.005 14c.551 0 1.022.196 1.41.59.39.392.584.864.584 1.416 0 .552-.196 1.022-.59 1.41A1.942 1.942 0 0 1 9.995 18Zm6 0a1.912 1.912 0 0 1-1.41-.59A1.942 1.942 0 0 1 14 15.995c0-.551.196-1.022.59-1.41A1.942 1.942 0 0 1 16.005 14c.552 0 1.022.196 1.41.59.39.392.584.864.584 1.416 0 .552-.196 1.022-.59 1.41a1.942 1.942 0 0 1-1.416.584Zm-12-6a1.912 1.912 0 0 1-1.41-.59A1.942 1.942 0 0 1 2 9.995c0-.552.196-1.022.59-1.41A1.941 1.941 0 0 1 4.005 8c.552 0 1.022.196 1.41.59.39.392.584.864.584 1.416 0 .551-.196 1.022-.59 1.41A1.941 1.941 0 0 1 3.995 12Zm6 0a1.912 1.912 0 0 1-1.41-.59A1.942 1.942 0 0 1 8 9.995c0-.552.196-1.022.59-1.41A1.941 1.941 0 0 1 10.005 8c.551 0 1.022.196 1.41.59.39.392.584.864.584 1.416 0 .551-.196 1.022-.59 1.41A1.942 1.942 0 0 1 9.995 12Zm6 0a1.912 1.912 0 0 1-1.41-.59A1.942 1.942 0 0 1 14 9.995c0-.552.196-1.022.59-1.41A1.942 1.942 0 0 1 16.005 8c.552 0 1.022.196 1.41.59.39.392.584.864.584 1.416 0 .551-.196 1.022-.59 1.41a1.942 1.942 0 0 1-1.416.584Zm-12-6a1.912 1.912 0 0 1-1.41-.59A1.941 1.941 0 0 1 2 3.995c0-.552.196-1.022.59-1.41A1.941 1.941 0 0 1 4.005 2c.552 0 1.022.196 1.41.59.39.392.584.864.584 1.416 0 .552-.196 1.022-.59 1.41A1.941 1.941 0 0 1 3.995 6Zm6 0a1.912 1.912 0 0 1-1.41-.59A1.941 1.941 0 0 1 8 3.995c0-.552.196-1.022.59-1.41A1.941 1.941 0 0 1 10.005 2c.551 0 1.022.196 1.41.59.39.392.584.864.584 1.416 0 .552-.196 1.022-.59 1.41A1.942 1.942 0 0 1 9.995 6Zm6 0a1.912 1.912 0 0 1-1.41-.59A1.941 1.941 0 0 1 14 3.995c0-.552.196-1.022.59-1.41A1.942 1.942 0 0 1 16.005 2c.552 0 1.022.196 1.41.59.39.392.584.864.584 1.416 0 .552-.196 1.022-.59 1.41A1.942 1.942 0 0 1 15.995 6Z"/>
</svg>
