<svg xmlns="http://www.w3.org/2000/svg" width="12" height="12" fill="currentColor" viewBox="0 0 12 12">
  <path d="M2.246 11c-.344 0-.638-.123-.881-.368A1.213 1.213 0 0 1 1 9.746c0-.344.123-.638.368-.881.246-.243.54-.365.886-.365.344 0 .638.123.881.368.243.246.365.54.365.886 0 .344-.123.638-.368.881a1.21 1.21 0 0 1-.886.365Zm3.75 0c-.344 0-.638-.123-.881-.368a1.213 1.213 0 0 1-.365-.886c0-.344.123-.638.368-.881.246-.243.54-.365.886-.365.344 0 .638.123.881.368.243.246.365.54.365.886 0 .344-.123.638-.368.881a1.21 1.21 0 0 1-.886.365Zm3.75 0c-.344 0-.638-.123-.881-.368a1.213 1.213 0 0 1-.365-.886c0-.344.123-.638.368-.881.246-.243.54-.365.886-.365.344 0 .638.123.881.368.244.246.365.54.365.886 0 .344-.123.638-.368.881a1.21 1.21 0 0 1-.886.365Zm-7.5-3.75c-.344 0-.638-.123-.881-.368A1.213 1.213 0 0 1 1 5.996c0-.344.123-.638.368-.881.246-.243.54-.365.886-.365.344 0 .638.123.881.368.243.246.365.54.365.886 0 .344-.123.638-.368.881-.246.243-.54.365-.886.365Zm3.75 0c-.344 0-.638-.123-.881-.368a1.213 1.213 0 0 1-.365-.886c0-.344.123-.638.368-.881.246-.243.54-.365.886-.365.344 0 .638.123.881.368.243.246.365.54.365.886 0 .344-.123.638-.368.881-.246.243-.54.365-.886.365Zm3.75 0c-.344 0-.638-.123-.881-.368a1.213 1.213 0 0 1-.365-.886c0-.344.123-.638.368-.881.246-.243.54-.365.886-.365.344 0 .638.123.881.368.244.246.365.54.365.886 0 .344-.123.638-.368.881-.246.243-.54.365-.886.365Zm-7.5-3.75c-.344 0-.638-.123-.881-.368A1.213 1.213 0 0 1 1 2.246c0-.344.123-.638.368-.881.246-.243.54-.365.886-.365.344 0 .638.123.881.368.243.246.365.54.365.886 0 .344-.123.638-.368.881-.246.243-.54.365-.886.365Zm3.75 0c-.344 0-.638-.123-.881-.368a1.213 1.213 0 0 1-.365-.886c0-.344.123-.638.368-.881.246-.243.54-.365.886-.365.344 0 .638.123.881.368.243.246.365.54.365.886 0 .344-.123.638-.368.881-.246.243-.54.365-.886.365Zm3.75 0c-.344 0-.638-.123-.881-.368a1.213 1.213 0 0 1-.365-.886c0-.344.123-.638.368-.881.246-.243.54-.365.886-.365.344 0 .638.123.881.368.244.246.365.54.365.886 0 .344-.123.638-.368.881-.246.243-.54.365-.886.365Z"/>
</svg>
