<svg xmlns="http://www.w3.org/2000/svg" width="12" height="12" fill="currentColor" viewBox="0 0 12 12">
  <path fill-rule="evenodd" d="M10.378 9.273a.603.603 0 0 1-.467.2L8.496 9.46a.63.63 0 0 0-.55.297l-.857-.514a1.63 1.63 0 0 1 1.417-.783l1.234.013a4.13 4.13 0 0 0 .445-.709l-.588-.932a1.552 1.552 0 0 1 0-1.662l.588-.932a4.182 4.182 0 0 0-.445-.709l-1.234.013a1.63 1.63 0 0 1-1.417-.783l-.59-.983a5.035 5.035 0 0 0-.998 0l-.59.983a1.63 1.63 0 0 1-1.417.783L2.26 3.528a4.1 4.1 0 0 0-.445.71l.588.931a1.55 1.55 0 0 1 0 1.662l-.588.932c.123.25.272.487.445.709l1.234-.013a1.63 1.63 0 0 1 1.417.783l.59.983a5.034 5.034 0 0 0 .998 0l.59-.983.858.514-.695 1.158a.586.586 0 0 1-.42.278 5.997 5.997 0 0 1-1.664 0 .586.586 0 0 1-.42-.279l-.695-1.157a.63.63 0 0 0-.549-.297l-1.414.015a.603.603 0 0 1-.468-.201A5.175 5.175 0 0 1 .788 7.92a.52.52 0 0 1 .048-.48l.722-1.144a.552.552 0 0 0 0-.594L.836 4.56a.52.52 0 0 1-.048-.48c.206-.492.489-.947.834-1.353a.603.603 0 0 1 .468-.2l1.414.014a.63.63 0 0 0 .55-.297l.694-1.157a.586.586 0 0 1 .42-.28 6.01 6.01 0 0 1 1.664 0 .586.586 0 0 1 .42.28l.695 1.157a.63.63 0 0 0 .549.297l1.415-.015a.603.603 0 0 1 .467.201c.345.406.628.861.834 1.352a.52.52 0 0 1-.048.48l-.722 1.144a.552.552 0 0 0 0 .594l.722 1.144a.52.52 0 0 1 .048.48 5.177 5.177 0 0 1-.834 1.352Z" clip-rule="evenodd"/>
  <rect width="3" height="3" x="4.5" y="4.5" rx="1.5"/>
</svg>
