<svg xmlns="http://www.w3.org/2000/svg" width="16" height="16" fill="currentColor" viewBox="0 0 16 16">
  <path fill-rule="evenodd" d="M9.67 1.449a.781.781 0 0 0-.56-.372 8.014 8.014 0 0 0-2.22 0 .781.781 0 0 0-.56.372L5.404 2.99a.84.84 0 0 1-.731.397l-1.887-.02a.804.804 0 0 0-.623.269 6.901 6.901 0 0 0-1.112 1.802.693.693 0 0 0 .064.64l.962 1.525a.736.736 0 0 1 0 .792L1.115 9.92a.693.693 0 0 0-.064.64 6.9 6.9 0 0 0 1.112 1.802c.15.177.382.271.623.269l1.887-.02a.84.84 0 0 1 .731.396l.926 1.543a.781.781 0 0 0 .56.372 8.008 8.008 0 0 0 2.22 0 .782.782 0 0 0 .56-.372l.925-1.543a.845.845 0 0 1 .732-.396l1.887.02a.804.804 0 0 0 .623-.269 6.903 6.903 0 0 0 1.112-1.802.693.693 0 0 0-.064-.64l-.962-1.525a.736.736 0 0 1 0-.792l.962-1.525a.693.693 0 0 0 .064-.64 6.901 6.901 0 0 0-1.112-1.802.804.804 0 0 0-.623-.269l-1.887.02a.84.84 0 0 1-.732-.397L9.67 1.45Zm0 0-.002.001-.02.012.02-.012.002-.001Zm-.022.013-.002.001ZM5.445 3.016l1.031.619A2.09 2.09 0 0 1 4.66 4.638L2.973 4.62a5.66 5.66 0 0 0-.648 1.035l.809 1.281a1.986 1.986 0 0 1 0 2.128l-.81 1.281c.178.366.395.712.649 1.035l1.687-.018a2.09 2.09 0 0 1 1.816 1.003l-1.072.643 1.072-.643.809 1.347a6.797 6.797 0 0 0 1.43 0l.809-1.347a2.09 2.09 0 0 1 1.816-1.003l1.687.018a5.64 5.64 0 0 0 .648-1.035l-.809-1.281a1.986 1.986 0 0 1 0-2.128l.81-1.281a5.66 5.66 0 0 0-.649-1.035l-1.687.018a2.09 2.09 0 0 1-1.816-1.003l-.809-1.347a6.788 6.788 0 0 0-1.43 0l-.809 1.347-1.031-.62Z" clip-rule="evenodd"/>
  <rect width="4" height="4" x="6" y="6" rx="2"/>
</svg>
