<svg xmlns="http://www.w3.org/2000/svg" width="20" height="20" fill="currentColor" viewBox="0 0 20 20">
  <path fill-rule="evenodd" d="M12.087 18.19a.977.977 0 0 1-.7.464 10.015 10.015 0 0 1-2.773 0 .976.976 0 0 1-.701-.465l-1.158-1.928a1.05 1.05 0 0 0-.914-.496l-2.358.025a1.005 1.005 0 0 1-.78-.336 8.625 8.625 0 0 1-1.39-2.253.866.866 0 0 1 .08-.8l1.203-1.906a.92.92 0 0 0 0-.99L1.393 7.599a.866.866 0 0 1-.08-.8 8.627 8.627 0 0 1 1.39-2.253 1.01 1.01 0 0 1 .78-.336l2.358.025c.378.004.729-.186.914-.496l1.115.67a2.35 2.35 0 0 1-2.043 1.126l-2.236-.023a7.335 7.335 0 0 0-.984 1.575L3.695 8.81c.46.73.46 1.649 0 2.378l-1.088 1.724c.258.562.59 1.091.984 1.575l2.236-.023a2.35 2.35 0 0 1 2.043 1.127l1.077 1.795a8.744 8.744 0 0 0 2.106 0l1.077-1.795a2.35 2.35 0 0 1 2.043-1.127l2.236.023a7.335 7.335 0 0 0 .984-1.574l-1.089-1.725a2.22 2.22 0 0 1 0-2.378l1.089-1.724a7.335 7.335 0 0 0-.984-1.575l-2.236.023a2.35 2.35 0 0 1-2.043-1.127l-1.078-1.795a8.736 8.736 0 0 0-2.105 0L7.87 4.408 6.755 3.74l1.158-1.928a.976.976 0 0 1 .7-.465 10.018 10.018 0 0 1 2.773 0 .977.977 0 0 1 .701.465l1.157 1.928c.186.31.537.5.915.496l2.358-.025c.302-.003.592.115.78.336a8.624 8.624 0 0 1 1.39 2.253.866.866 0 0 1-.08.8l-1.203 1.906a.92.92 0 0 0 0 .99l1.203 1.906c.153.243.19.538.08.8a8.624 8.624 0 0 1-1.39 2.253 1.01 1.01 0 0 1-.78.336l-2.358-.025a1.05 1.05 0 0 0-.915.496l-1.157 1.928Zm-9.594-5.096-.37-.232.37.233Z" clip-rule="evenodd"/>
  <path fill-rule="evenodd" d="M6.455 10a3.545 3.545 0 1 1 7.09 0 3.545 3.545 0 0 1-7.09 0ZM10 7.655a2.345 2.345 0 1 0 0 4.69 2.345 2.345 0 0 0 0-4.69Z" clip-rule="evenodd"/>
</svg>
