<svg xmlns="http://www.w3.org/2000/svg" width="20" height="20" fill="currentColor" viewBox="0 0 20 20">
  <path fill-rule="evenodd" d="M2.704 4.546a8.627 8.627 0 0 0-1.39 2.253.866.866 0 0 0 .08.8l1.202 1.906a.92.92 0 0 1 0 .99l-1.203 1.906a.866.866 0 0 0-.08.8 8.625 8.625 0 0 0 1.39 2.253c.188.22.479.339.78.336l2.358-.025c.378-.004.729.186.914.496l1.158 1.928a.976.976 0 0 0 .7.465 10.002 10.002 0 0 0 2.773 0 .977.977 0 0 0 .701-.465l1.157-1.928c.186-.31.537-.5.915-.496l2.358.025c.302.003.592-.115.78-.336a8.624 8.624 0 0 0 1.39-2.253.866.866 0 0 0-.08-.8l-1.203-1.906a.92.92 0 0 1 0-.99l1.203-1.906a.866.866 0 0 0 .08-.8 8.624 8.624 0 0 0-1.39-2.253 1.004 1.004 0 0 0-.78-.336l-2.358.025a1.05 1.05 0 0 1-.915-.496l-1.157-1.928a.977.977 0 0 0-.7-.465 10.018 10.018 0 0 0-2.773 0 .976.976 0 0 0-.701.465L6.755 3.739c-.185.31-.536.5-.914.496L3.483 4.21a1.005 1.005 0 0 0-.78.336Zm14.461 8.382-1.03-1.632 1.269-.8-1.269.8a2.42 2.42 0 0 1 0-2.592l1.03-1.632a7.131 7.131 0 0 0-.851-1.36l-2.14.023a2.55 2.55 0 0 1-2.216-1.224l-1.026-1.71a8.547 8.547 0 0 0-1.864 0L8.042 4.51a2.55 2.55 0 0 1-2.217 1.224l-2.139-.022a7.138 7.138 0 0 0-.851 1.36l1.03 1.63a2.42 2.42 0 0 1 0 2.593l-1.03 1.632c.23.481.516.937.851 1.36l2.14-.023a2.55 2.55 0 0 1 2.216 1.224l-1.287.772 1.287-.772 1.026 1.71a8.56 8.56 0 0 0 1.864 0l1.026-1.71a2.55 2.55 0 0 1 2.217-1.224l2.139.022a7.13 7.13 0 0 0 .851-1.36Z" clip-rule="evenodd"/>
  <rect width="5" height="5" x="7.5" y="7.5" rx="2.5"/>
</svg>
