<svg xmlns="http://www.w3.org/2000/svg" width="16" height="16" fill="currentColor" viewBox="0 0 16 16">
  <path d="M8 13.15c1.078-.333 1.975-.975 2.691-1.925A6.318 6.318 0 0 0 11.95 8H8V2.884L4 4.417v3c0 .1.005.197.016.292.012.094.023.191.034.291H8v5.15Zm0 1.184c-.067 0-.134-.003-.2-.009a.635.635 0 0 1-.184-.041c-1.455-.478-2.622-1.362-3.5-2.65C3.24 10.344 2.8 8.939 2.8 7.417v-3A1.17 1.17 0 0 1 3.566 3.3l4-1.533A1.2 1.2 0 0 1 8 1.684a1.2 1.2 0 0 1 .433.083l4 1.533a1.17 1.17 0 0 1 .767 1.117v3c0 1.522-.44 2.928-1.317 4.217-.878 1.288-2.044 2.172-3.5 2.65a.635.635 0 0 1-.183.041 2.431 2.431 0 0 1-.2.009Z"/>
</svg>
