<svg xmlns="http://www.w3.org/2000/svg" width="20" height="20" fill="currentColor" viewBox="0 0 20 20">
  <path d="M10 16.437c1.347-.417 2.469-1.219 3.365-2.406a7.897 7.897 0 0 0 1.572-4.032H10V3.604L5 5.52v3.75c0 .125.007.247.02.365.015.118.029.24.043.364H10v6.438Zm0 1.479c-.083 0-.167-.003-.25-.01a.789.789 0 0 1-.23-.052c-1.819-.598-3.277-1.702-4.374-3.313C4.049 12.93 3.5 11.173 3.5 9.271V5.52a1.461 1.461 0 0 1 .958-1.397l5-1.916A1.5 1.5 0 0 1 10 2.104c.18 0 .361.034.542.104l5 1.916A1.463 1.463 0 0 1 16.5 5.52v3.75c0 1.903-.549 3.66-1.646 5.271-1.097 1.611-2.555 2.715-4.375 3.313a.79.79 0 0 1-.229.052c-.083.007-.167.01-.25.01Z"/>
</svg>
