<svg xmlns="http://www.w3.org/2000/svg" width="12" height="12" fill="currentColor" viewBox="0 0 12 12">
  <path d="M6 9.862c.808-.25 1.481-.732 2.019-1.444a4.738 4.738 0 0 0 .944-2.419H6V2.162l-3 1.15v2.25c0 .075.004.148.013.218l.025.22H6v3.862Zm0 .887c-.05 0-.1-.002-.15-.006a.474.474 0 0 1-.137-.031 4.98 4.98 0 0 1-2.625-1.988A5.503 5.503 0 0 1 2.1 5.562v-2.25a.877.877 0 0 1 .575-.838l3-1.15A.9.9 0 0 1 6 1.262a.9.9 0 0 1 .325.062l3 1.15a.878.878 0 0 1 .575.838v2.25c0 1.141-.33 2.196-.987 3.162a4.98 4.98 0 0 1-2.625 1.988.474.474 0 0 1-.138.031c-.05.004-.1.006-.15.006Z"/>
</svg>
