<svg xmlns="http://www.w3.org/2000/svg" width="16" height="16" viewBox="0 0 16 16"><title>space</title><g id="Layer_1" data-name="Layer 1"><path d="M15,8A7,7,0,0,0,4.88,1.74a2.13,2.13,0,0,1,.78,1.18,5.57,5.57,0,0,1,5.89.75L10.39,4.82A7.48,7.48,0,0,0,5.69,3a2,2,0,0,1,.06.49A2.74,2.74,0,0,1,5.69,4a6.45,6.45,0,0,1,4,1.52L5.53,9.68A6.45,6.45,0,0,1,4,5.69a2.74,2.74,0,0,1-.51.06A2,2,0,0,1,3,5.69a7.48,7.48,0,0,0,1.81,4.7L3.67,11.55a5.57,5.57,0,0,1-.75-5.89L3,5.49c.09-.18.19-.35.29-.51L3.5,5A1.51,1.51,0,0,0,4,4.9,1.49,1.49,0,0,0,4.9,4,1.51,1.51,0,0,0,5,3.5a1.49,1.49,0,0,0,0-.21A1.14,1.14,0,0,0,4.92,3a1.43,1.43,0,0,0-.77-.88A1.42,1.42,0,0,0,3.5,2,1.5,1.5,0,0,0,2,3.5a1.42,1.42,0,0,0,.16.65,6,6,0,0,0-.42.73,7,7,0,0,0,9.38,9.38,2.13,2.13,0,0,1-.78-1.18,5.56,5.56,0,0,1-6-.82L5.53,11.1A7.45,7.45,0,0,0,10.31,13a2,2,0,0,1-.06-.49,2.74,2.74,0,0,1,.06-.51A6.48,6.48,0,0,1,6.24,10.4L10.4,6.24A6.48,6.48,0,0,1,12,10.31a2.74,2.74,0,0,1,.51-.06,2,2,0,0,1,.49.06A7.45,7.45,0,0,0,11.1,5.53l1.16-1.16a5.56,5.56,0,0,1,.82,6l-.08.17c-.09.18-.19.35-.29.51l-.21,0a1.51,1.51,0,0,0-.53.1,1.49,1.49,0,0,0-.87.87,1.51,1.51,0,0,0-.1.53,1.49,1.49,0,0,0,0,.21,1.14,1.14,0,0,0,.06.25,1.53,1.53,0,0,0,1.42,1A1.5,1.5,0,0,0,14,12.5a1.42,1.42,0,0,0-.16-.65,6,6,0,0,0,.42-.73A7,7,0,0,0,15,8Z"/></g></svg>