<svg xmlns="http://www.w3.org/2000/svg" width="12" height="12" fill="currentColor" viewBox="0 0 12 12">
  <path fill-rule="evenodd" d="M8.172.183c-.042-.228-.524-.228-.565 0-.43 2.36-1.314 3.244-3.674 3.674-.228.041-.228.523 0 .565 2.36.429 3.244 1.313 3.674 3.673.041.228.523.228.565 0 .429-2.36 1.313-3.244 3.673-3.673.228-.042.228-.524 0-.565-2.36-.43-3.244-1.314-3.673-3.674ZM3.264 6.878c-.052-.192-.476-.192-.528 0C2.45 7.941 1.941 8.45.878 8.736c-.192.052-.192.476 0 .528 1.063.286 1.572.795 1.858 1.858.052.193.476.193.528 0 .286-1.063.795-1.572 1.858-1.858.193-.052.193-.476 0-.528C4.06 8.45 3.55 7.941 3.264 6.878Z" clip-rule="evenodd"/>
</svg>
