<svg xmlns="http://www.w3.org/2000/svg" width="16" height="16" fill="currentColor" viewBox="0 0 16 16">
  <path fill-rule="evenodd" d="M10.895.243c-.055-.303-.698-.303-.753 0-.573 3.148-1.751 4.326-4.899 4.9-.303.054-.303.697 0 .752 3.148.573 4.326 1.752 4.9 4.899.054.304.697.304.752 0 .573-3.147 1.752-4.326 4.899-4.899.304-.055.304-.698 0-.753-3.147-.573-4.326-1.751-4.899-4.899ZM4.352 9.171c-.07-.257-.634-.257-.703 0-.382 1.417-1.06 2.096-2.478 2.478-.257.069-.257.634 0 .703 1.417.381 2.096 1.06 2.478 2.478.069.256.634.256.703 0 .381-1.418 1.06-2.097 2.478-2.478.256-.07.256-.635 0-.704-1.418-.38-2.097-1.06-2.478-2.477Z" clip-rule="evenodd"/>
</svg>
