<svg xmlns="http://www.w3.org/2000/svg" width="20" height="20" fill="currentColor" viewBox="0 0 20 20">
  <path fill-rule="evenodd" d="M13.619.304c-.07-.38-.873-.38-.942 0-.716 3.934-2.19 5.408-6.123 6.124-.38.069-.38.872 0 .941 3.934.716 5.407 2.19 6.123 6.123.07.38.873.38.942 0 .716-3.934 2.189-5.407 6.123-6.123.38-.069.38-.872 0-.941-3.934-.716-5.407-2.19-6.123-6.124Zm-8.18 11.16c-.086-.321-.793-.321-.879 0-.476 1.771-1.325 2.62-3.097 3.097-.32.086-.32.793 0 .879 1.772.476 2.62 1.325 3.097 3.097.086.32.793.32.88 0 .476-1.772 1.325-2.62 3.097-3.097.32-.086.32-.793 0-.88-1.772-.476-2.621-1.325-3.098-3.097Z" clip-rule="evenodd"/>
</svg>
