<svg xmlns="http://www.w3.org/2000/svg" width="20" height="20" fill="currentColor" viewBox="0 0 20 20">
  <path d="M8.354 18.88c.49.091.926-.282.968-.778.042-.496-.33-.926-.817-1.03a7.14 7.14 0 0 1-1.92-.705c-.439-.237-1-.149-1.29.258-.288.404-.196.97.235 1.217a8.93 8.93 0 0 0 2.824 1.039ZM19 10.016a9.018 9.018 0 0 1-5.812 8.433c-.466.177-.963-.113-1.091-.594-.129-.481.16-.97.62-1.159a7.215 7.215 0 0 0 4.482-6.68c0-3.984-3.223-7.213-7.2-7.213A7.198 7.198 0 0 0 3.58 6.745c-.225.443-.737.69-1.205.521-.467-.168-.713-.686-.5-1.135A9 9 0 0 1 10 1c4.97 0 9 4.036 9 9.016ZM3.615 13.354c.23.44.134.999-.274 1.282-.409.284-.974.184-1.216-.251a8.97 8.97 0 0 1-1.081-3.471c-.049-.495.359-.898.856-.898.496 0 .893.404.954.897.108.871.371 1.694.761 2.44Z"/>
</svg>
