<svg xmlns="http://www.w3.org/2000/svg" width="12" height="12" fill="currentColor" viewBox="0 0 12 12">
  <path d="M5.086 10.934c.272.05.514-.157.538-.433.023-.275-.183-.515-.454-.572a3.968 3.968 0 0 1-1.067-.392c-.244-.132-.556-.082-.717.143-.16.225-.108.54.13.677a4.962 4.962 0 0 0 1.57.577ZM11 6.009a5.01 5.01 0 0 1-3.229 4.685c-.258.098-.534-.063-.606-.33-.071-.268.089-.54.345-.644A4.008 4.008 0 0 0 10 6.01a4 4 0 0 0-7.566-1.817c-.126.246-.41.383-.67.29-.26-.094-.396-.382-.277-.631A5 5 0 0 1 11 6.009ZM2.453 7.863c.128.245.075.555-.152.713-.227.157-.542.102-.676-.14a4.982 4.982 0 0 1-.6-1.928.464.464 0 0 1 .475-.5c.276 0 .496.225.53.5.06.483.207.94.423 1.355Z"/>
</svg>
