<svg xmlns="http://www.w3.org/2000/svg" width="16" height="16" fill="currentColor" viewBox="0 0 16 16">
  <path d="M6.72 14.907c.38.07.72-.22.753-.605.032-.386-.256-.721-.636-.801a5.557 5.557 0 0 1-1.493-.549c-.341-.184-.778-.116-1.003.2-.224.315-.153.755.182.948.67.385 1.41.662 2.197.807ZM15 8.012a7.014 7.014 0 0 1-4.52 6.56c-.362.137-.749-.088-.85-.463-.1-.374.125-.754.484-.9a5.611 5.611 0 0 0 3.485-5.197A5.599 5.599 0 0 0 3.006 5.468c-.175.345-.572.537-.936.406-.364-.131-.555-.534-.389-.883A7 7 0 0 1 8 1c3.866 0 7 3.14 7 7.012ZM3.034 10.608c.179.343.104.777-.213.998-.318.22-.758.143-.946-.196a6.976 6.976 0 0 1-.84-2.7c-.039-.384.278-.698.665-.698.386 0 .695.315.742.698.084.678.289 1.318.592 1.898Z"/>
</svg>
