<?xml version="1.0" encoding="UTF-8"?>
<svg width="16px" height="16px" viewBox="0 0 16 16" version="1.1" xmlns="http://www.w3.org/2000/svg" xmlns:xlink="http://www.w3.org/1999/xlink">
    <!-- Generator: Sketch 57.1 (83088) - https://sketch.com -->
    <title>Fill 1</title>
    <desc>Created with Sketch.</desc>
    <g id="-" stroke="none" stroke-width="1" fill-rule="evenodd">
        <g id="Icon/stack-x3-empty" transform="translate(-4.000000, 0.000000)">
            <path d="M11.87175,1.022 C15.72575,1.022 18.84975,4.146 18.84975,8 C18.84975,11.854 15.72675,14.977 11.87275,14.978 C14.65475,14.371 17.48975,11.883 17.48975,8.001 C17.48975,4.12 14.64975,1.626 11.86475,1.023 L11.86475,1.023 Z M9.53075,1.022 C13.38475,1.022 16.50875,4.146 16.50875,8 C16.50875,11.854 13.38575,14.977 9.53275,14.978 C12.31475,14.371 15.14975,11.883 15.14975,8.001 C15.14975,4.12 12.30875,1.626 9.52475,1.023 L9.52475,1.023 Z" id="Fill-1"></path>
        </g>
    </g>
</svg>
