<svg width="16" height="16" viewBox="0 0 16 16" xmlns="http://www.w3.org/2000/svg">
<path d="m14.56 15h-13.12c-.3 0-.57-.2-.67-.49-.4-1.25-.57-2.18-.41-2.99.04-.18.15-.35.3-.45.16-.1.35-.14.53-.1l.19.04c2.07.45 3.29.64 4.37-.87.23-.32.3-1.24.17-2.25-.05-.32-.22-.68-.4-1.05-.21-.46-.46-.97-.53-1.56-.09-.84.14-1.6.67-2.2.56-.65 1.39-1.04 2.29-1.08h.11c.9.04 1.73.43 2.29 1.08.52.61.75 1.37.66 2.2-.06.59-.31 1.11-.53 1.56-.18.37-.35.73-.39 1.06-.13 1-.06 1.93.17 2.25 1.07 1.51 2.3 1.32 4.37.87l.19-.04c.18-.04.38 0 .53.1.16.1.27.26.3.45.16.8-.01 1.74-.41 2.99-.1.28-.37.48-.68.48zm-12.61-1.4h12.09c.11-.38.18-.82.22-1.07-1.77.36-3.68.51-5.16-1.57-.61-.86-.52-2.4-.41-3.24.08-.56.31-1.05.52-1.49.19-.39.36-.75.4-1.11.05-.44-.06-.82-.33-1.13-.3-.35-.78-.57-1.28-.59-.5.02-.98.24-1.28.59-.27.31-.38.69-.33 1.14.04.35.21.72.4 1.11.21.43.44.92.52 1.48.11.84.2 2.38-.41 3.24-1.48 2.08-3.39 1.92-5.16 1.57.03.25.1.69.21 1.07z"/>
</svg>