<svg xmlns="http://www.w3.org/2000/svg" viewBox="0 0 14 14"><path d="M3.234 12.93a.5.5 0 0 1-.482-.632l1.103-4.033L.62 5.609a.5.5 0 0 1 .318-.886h3.99L6.537.706a.52.52 0 0 1 .928 0L9.07 4.723h3.992a.5.5 0 0 1 .318.885l-3.236 2.674 1.078 4.018a.5.5 0 0 1-.76.548l-3.497-2.305-3.454 2.303a.502.502 0 0 1-.278.084zm3.73-3.487a.504.504 0 0 1 .275.082l2.676 1.763-.82-3.057a.502.502 0 0 1 .165-.515l2.412-1.993h-2.94a.498.498 0 0 1-.463-.315L7 2.238l-1.269 3.17a.498.498 0 0 1-.463.315H2.335L4.74 7.697a.5.5 0 0 1 .165.519l-.836 3.056 2.618-1.745a.502.502 0 0 1 .277-.084z"/></svg>