<svg xmlns="http://www.w3.org/2000/svg" width="16" height="16" fill="currentColor" viewBox="0 0 16 16">
  <path fill-rule="evenodd" d="M8 1.3c.228 0 .433.138.52.348l1.658 3.986 4.303.345a.564.564 0 0 1 .322.99l-3.278 2.808 1.001 4.199a.564.564 0 0 1-.842.612L8 12.338l-3.684 2.25a.564.564 0 0 1-.842-.612l1.001-4.199L1.197 6.97a.564.564 0 0 1 .322-.99l4.303-.345 1.657-3.986A.564.564 0 0 1 8 1.301Zm0 2.033L6.73 6.385a.564.564 0 0 1-.475.345l-3.294.265 2.51 2.15c.16.137.23.353.181.559l-.767 3.215 2.821-1.723c.18-.11.407-.11.588 0l2.82 1.723-.766-3.215a.564.564 0 0 1 .181-.56l2.51-2.15-3.294-.264a.564.564 0 0 1-.476-.345L8 3.333Z" clip-rule="evenodd"/>
</svg>
