<svg xmlns="http://www.w3.org/2000/svg" width="16" height="16" viewBox="0 0 16 16" fill="currentColor">
  <path
    d="M8,0 L5.726,5.207 L2.27373675e-13,5.729 L4.32,9.471 L3.055,15 L8,12.106 L12.945,15 L11.679,9.471 L16,5.729 L10.274,5.207 L8,0 Z M5.587,9.76 L5.762,8.999 L5.17,8.488 L3.16,6.746 L5.844,6.501 L6.609,6.431 L6.917,5.727 L8,3.247 L9.083,5.727 L9.39,6.431 L10.156,6.501 L12.839,6.746 L10.829,8.488 L10.238,8.999 L10.413,9.76 L11.007,12.361 L8.656,10.985 L8,10.6 L7.344,10.985 L4.993,12.361 L5.587,9.76 Z"/>
</svg>
