<svg xmlns="http://www.w3.org/2000/svg" width="12" height="12" fill="currentColor" viewBox="0 0 12 12">
  <path fill-rule="evenodd" d="M6 1c.163 0 .31.098.372.248l1.184 2.847 3.073.246a.403.403 0 0 1 .23.708L8.518 7.055l.715 2.999a.403.403 0 0 1-.602.437L6 8.884 3.369 10.49a.403.403 0 0 1-.602-.437l.715-3L1.141 5.05a.403.403 0 0 1 .23-.708l3.073-.246 1.184-2.847A.403.403 0 0 1 6 1Zm0 1.452-.907 2.18a.403.403 0 0 1-.34.246L2.4 5.067l1.793 1.536a.403.403 0 0 1 .13.4l-.548 2.296L5.79 8.068a.403.403 0 0 1 .42 0l2.015 1.23-.548-2.296a.403.403 0 0 1 .13-.4L9.6 5.068l-2.354-.189a.403.403 0 0 1-.34-.247L6 2.451Z" clip-rule="evenodd"/>
</svg>
