<svg id="Layer_1" data-name="Layer 1" xmlns="http://www.w3.org/2000/svg" width="14" height="14" viewBox="0 0 14 14">
  <path d="M3.23438,12.92969a.5.5,0,0,1-.48242-.63184l1.10352-4.0332L.62012,5.60938A.50016.50016,0,0,1,.9375,4.72266H4.92871L6.53613.70605a.51947.51947,0,0,1,.92773,0l1.60742,4.0166H13.0625a.50006.50006,0,0,1,.31836.88574L10.14453,8.28223l1.07813,4.01758a.5008.5008,0,0,1-.75879.54785L6.96582,10.543,3.51172,12.8457A.50209.50209,0,0,1,3.23438,12.92969ZM6.96387,9.44336a.504.504,0,0,1,.27539.082L9.915,11.28809,9.09473,8.23145a.50212.50212,0,0,1,.165-.51562l2.41211-1.99316H8.73242a.49835.49835,0,0,1-.46387-.31445L7,2.23828,5.73145,5.4082a.49835.49835,0,0,1-.46387.31445H2.335L4.74023,7.69727a.50074.50074,0,0,1,.165.51855l-.83594,3.05664L6.68652,9.52734A.50209.50209,0,0,1,6.96387,9.44336Z"/>
</svg>
