<svg xmlns="http://www.w3.org/2000/svg" width="20" height="20" fill="currentColor" viewBox="0 0 20 20">
  <path fill-rule="evenodd" d="M10 1.625c.285 0 .541.171.65.434l2.073 4.982 5.378.431a.705.705 0 0 1 .403 1.238l-4.098 3.51 1.252 5.249a.705.705 0 0 1-1.053.765L10 15.422l-4.605 2.812a.705.705 0 0 1-1.053-.765l1.252-5.249-4.098-3.51A.705.705 0 0 1 1.9 7.472l5.378-.43L9.35 2.059a.705.705 0 0 1 .65-.434Zm0 2.54L8.413 7.98a.705.705 0 0 1-.594.432l-4.118.33 3.137 2.688a.703.703 0 0 1 .227.699l-.958 4.019 3.526-2.154a.705.705 0 0 1 .734 0l3.526 2.154-.958-4.02a.705.705 0 0 1 .227-.698l3.137-2.688-4.118-.33a.705.705 0 0 1-.594-.432L10 4.166Z" clip-rule="evenodd"/>
</svg>
