<svg xmlns="http://www.w3.org/2000/svg" width="16" height="16" fill="currentColor" viewBox="0 0 16 16">
  <path fill-rule="evenodd" d="M13.75 8a5.75 5.75 0 1 1-11.5 0 5.75 5.75 0 0 1 11.5 0ZM8 15A7 7 0 1 0 8 1a7 7 0 0 0 0 14ZM6.32 4.575h-.021c-.178 0-.347 0-.49.012a1.34 1.34 0 0 0-.51.132c-.25.127-.453.33-.58.58a1.34 1.34 0 0 0-.133.51c-.011.143-.011.312-.011.49V9.7c0 .179 0 .348.011.49.013.156.043.334.133.511.127.25.33.452.58.58.177.09.355.12.51.132.143.012.312.012.49.012H9.7c.179 0 .348 0 .49-.012a1.34 1.34 0 0 0 .511-.133c.25-.127.452-.33.58-.579.09-.177.12-.355.132-.51.012-.143.012-.312.012-.49V6.3c0-.179 0-.348-.012-.49a1.341 1.341 0 0 0-.133-.512 1.325 1.325 0 0 0-.579-.579 1.34 1.34 0 0 0-.51-.132 6.39 6.39 0 0 0-.49-.012H6.32Zm-.481 1.281a.075.075 0 0 1 .017-.017.584.584 0 0 1 .055-.007c.085-.007.202-.007.409-.007h3.36c.206 0 .323 0 .409.007a.583.583 0 0 1 .054.007c.007.005.013.01.018.017.001.01.004.027.006.055.007.085.008.203.008.409v3.36c0 .206 0 .323-.008.409a.557.557 0 0 1-.006.055.075.075 0 0 1-.018.017.58.58 0 0 1-.054.007 5.754 5.754 0 0 1-.41.007H6.32c-.206 0-.323 0-.408-.008a.58.58 0 0 1-.055-.006.075.075 0 0 1-.017-.017.58.58 0 0 1-.007-.055 5.772 5.772 0 0 1-.007-.41V6.32c0-.206 0-.324.007-.409a.58.58 0 0 1 .007-.055Z" clip-rule="evenodd"/>
</svg>
