<svg xmlns="http://www.w3.org/2000/svg" width="20" height="20" fill="currentColor" viewBox="0 0 20 20">
  <path fill-rule="evenodd" d="M17.5 10a7.5 7.5 0 1 1-15 0 7.5 7.5 0 0 1 15 0ZM10 19a9 9 0 1 0 0-18 9 9 0 0 0 0 18ZM7.84 5.65h-.026c-.23 0-.446 0-.627.015a1.67 1.67 0 0 0-.636.165 1.65 1.65 0 0 0-.722.72 1.69 1.69 0 0 0-.165.638c-.014.18-.014.396-.014.627v4.37c0 .23 0 .446.014.627.016.197.054.417.165.637.159.31.411.563.722.721.22.112.44.15.636.165.181.015.397.015.627.015h4.371c.23 0 .446 0 .627-.015.196-.016.417-.053.637-.165.31-.158.563-.41.72-.721.113-.22.15-.44.166-.637.015-.18.015-.396.015-.627v-4.37c0-.23 0-.446-.015-.627a1.672 1.672 0 0 0-.165-.637 1.65 1.65 0 0 0-.721-.721 1.67 1.67 0 0 0-.637-.165c-.181-.015-.397-.015-.627-.015H7.84Zm-.67 1.573a.15.15 0 0 1 .053-.052.666.666 0 0 1 .087-.011c.112-.01.265-.01.53-.01h4.32c.264 0 .417 0 .53.01.05.004.075.009.086.011a.15.15 0 0 1 .053.052c.002.011.007.037.01.087.01.112.01.266.01.53v4.32c0 .264 0 .418-.01.53a.657.657 0 0 1-.01.087.148.148 0 0 1-.053.052.657.657 0 0 1-.086.011c-.113.01-.266.01-.53.01H7.84c-.265 0-.418 0-.53-.01a.657.657 0 0 1-.087-.011.15.15 0 0 1-.052-.052.666.666 0 0 1-.012-.087 7.465 7.465 0 0 1-.01-.53V7.84c0-.264.001-.418.01-.53a.666.666 0 0 1 .012-.087Z" clip-rule="evenodd"/>
</svg>
