<svg xmlns="http://www.w3.org/2000/svg" width="12" height="12" fill="currentColor" viewBox="0 0 12 12">
  <path fill-rule="evenodd" d="M10 6a4 4 0 1 1-8 0 4 4 0 0 1 8 0Zm-4 5A5 5 0 1 0 6 1a5 5 0 0 0 0 10ZM4.8 3.5h-.016c-.126 0-.25 0-.353.008a1.01 1.01 0 0 0-.385.101 1 1 0 0 0-.437.437.987.987 0 0 0-.1.385 4.589 4.589 0 0 0-.01.353v2.432c0 .126 0 .249.01.353.009.114.03.25.1.385a1 1 0 0 0 .437.437c.136.07.27.091.385.1.104.009.227.009.353.009h2.432c.126 0 .249 0 .353-.009a.987.987 0 0 0 .385-.1 1 1 0 0 0 .437-.437c.069-.136.091-.27.1-.385a4.59 4.59 0 0 0 .009-.353V4.784c0-.126 0-.25-.009-.353a1.01 1.01 0 0 0-.1-.385 1 1 0 0 0-.437-.437 1.01 1.01 0 0 0-.385-.1c-.104-.01-.227-.009-.353-.009H4.8Zm-.295 1.012v-.006h.007A4.09 4.09 0 0 1 4.8 4.5h2.4c.148 0 .23 0 .287.005h.007v.007c.005.059.006.14.006.288v2.4c0 .148 0 .23-.005.288v.006h-.008A4.09 4.09 0 0 1 7.2 7.5H4.8c-.148 0-.23 0-.288-.005h-.006l-.001-.007A4.096 4.096 0 0 1 4.5 7.2V4.8c0-.148 0-.23.005-.288Z" clip-rule="evenodd"/>
</svg>
