<svg xmlns="http://www.w3.org/2000/svg" width="16" height="16" fill="currentColor" viewBox="0 0 16 16">
  <path fill-rule="evenodd" d="M6.245 3.25h3.53v1.625h-3.53V3.25Zm-1.25 1.625V3.25H3a.75.75 0 0 0-.75.75v.875h2.745ZM2.25 6.125h2.745v6.625H3a.75.75 0 0 1-.75-.75V6.125Zm3.995 0h3.53v6.625h-3.53V6.125Zm4.78 0v6.625H13a.75.75 0 0 0 .75-.75V6.125h-2.725Zm2.725-1.25V4a.75.75 0 0 0-.75-.75h-1.975v1.625h2.725ZM1 4a2 2 0 0 1 2-2h10a2 2 0 0 1 2 2v8a2 2 0 0 1-2 2H3a2 2 0 0 1-2-2V4Z" clip-rule="evenodd"/>
</svg>
