<svg xmlns="http://www.w3.org/2000/svg" width="20" height="20" fill="currentColor" viewBox="0 0 20 20">
  <path fill-rule="evenodd" d="M7.503 4.5h5.009v1.75h-5.01V4.5Zm-1.5 1.75V4.5H3.5a1 1 0 0 0-1 1v.75h3.503ZM2.5 7.75h3.503v8.75H3.5a1 1 0 0 1-1-1V7.75Zm5.003 0h5.009v8.75h-5.01V7.75Zm6.509 0v8.75H16.5a1 1 0 0 0 1-1V7.75h-3.488Zm3.488-1.5V5.5a1 1 0 0 0-1-1h-2.488v1.75H17.5ZM1 5.5A2.5 2.5 0 0 1 3.5 3h13A2.5 2.5 0 0 1 19 5.5v10a2.5 2.5 0 0 1-2.5 2.5h-13A2.5 2.5 0 0 1 1 15.5v-10Z" clip-rule="evenodd"/>
</svg>
