<svg xmlns="http://www.w3.org/2000/svg" width="20" height="20" fill="currentColor" viewBox="0 0 20 20">
  <path fill-rule="evenodd" d="m2.368 11.466 6.156 6.156 8.726-8.726V2.74h-6.156l-8.726 8.726Zm6.242 6.241Zm1.459-16.063L1.222 10.49a1.38 1.38 0 0 0 0 1.951l6.327 6.327a1.38 1.38 0 0 0 1.95 0l8.847-8.846a1.38 1.38 0 0 0 .404-.976V2.62a1.38 1.38 0 0 0-1.38-1.38h-6.326a1.38 1.38 0 0 0-.976.404Z" clip-rule="evenodd"/>
  <path fill-rule="evenodd" d="M13.43 8.18a1.584 1.584 0 1 0 0-3.168 1.584 1.584 0 0 0 0 3.167Z" clip-rule="evenodd"/>
</svg>
