<svg xmlns="http://www.w3.org/2000/svg" width="20" height="20" fill="currentColor" viewBox="0 0 20 20">
  <g class="task-20px">
    <path fill-rule="evenodd" d="M13.428 3.5H6.571c-.824 0-1.353.001-1.754.034-.384.031-.517.084-.576.114a1.36 1.36 0 0 0-.593.593c-.03.059-.083.192-.114.576-.033.401-.034.93-.034 1.754v6.857c0 .825.001 1.354.034 1.755.031.384.084.517.114.576.13.255.338.463.593.593.059.03.192.083.576.114.401.033.93.034 1.754.034h6.857c.825 0 1.354-.001 1.755-.034.384-.031.517-.084.576-.114a1.36 1.36 0 0 0 .593-.593c.03-.059.083-.192.114-.576.033-.401.034-.93.034-1.755V6.571c0-.824-.001-1.353-.034-1.754-.031-.384-.084-.517-.114-.576a1.357 1.357 0 0 0-.593-.593c-.059-.03-.192-.083-.576-.114-.401-.033-.93-.034-1.755-.034Zm-11.117.06C2 4.171 2 4.971 2 6.571v6.857c0 1.6 0 2.4.311 3.012.274.537.711.975 1.249 1.248C4.171 18 4.971 18 6.571 18h6.857c1.6 0 2.4 0 3.012-.311a2.857 2.857 0 0 0 1.248-1.25c.312-.61.312-1.41.312-3.01V6.57c0-1.6 0-2.4-.311-3.011a2.857 2.857 0 0 0-1.25-1.249C15.83 2 15.03 2 13.43 2H6.57c-1.6 0-2.4 0-3.011.311A2.857 2.857 0 0 0 2.311 3.56Z" class="Icon" clip-rule="evenodd"/>
    <path fill-rule="evenodd" d="M13.885 5.919a.75.75 0 0 1 .175 1.046l-4.17 5.853a.75.75 0 0 1-1.146.09l-2.712-2.772a.75.75 0 0 1 1.072-1.05l2.085 2.132 3.65-5.123a.75.75 0 0 1 1.046-.176Z" class="Icon (Stroke)" clip-rule="evenodd"/>
  </g>
</svg>
