<svg xmlns="http://www.w3.org/2000/svg" width="12" height="12" fill="currentColor" viewBox="0 0 12 12">
  <g class="task-12px">
    <path fill-rule="evenodd" d="M8.257 2H3.743c-.497 0-.809 0-1.045.02-.224.018-.29.048-.308.058a.714.714 0 0 0-.312.312c-.01.019-.04.084-.058.308C2 2.934 2 3.246 2 3.743v4.514c0 .497 0 .809.02 1.045.018.224.048.29.058.308a.714.714 0 0 0 .312.312c.019.01.084.04.308.058.236.02.548.02 1.045.02h4.514c.497 0 .809 0 1.045-.02.224-.018.29-.048.308-.058a.714.714 0 0 0 .312-.312c.01-.019.04-.084.058-.308.02-.236.02-.548.02-1.045V3.743c0-.497 0-.809-.02-1.045-.018-.224-.048-.29-.058-.308a.714.714 0 0 0-.312-.312c-.019-.01-.084-.04-.308-.058C9.066 2 8.754 2 8.257 2Zm-7.07-.064C1 2.303 1 2.783 1 3.743v4.514c0 .96 0 1.44.187 1.807.164.322.426.585.749.75.367.186.847.186 1.807.186h4.514c.96 0 1.44 0 1.807-.187.322-.164.585-.427.75-.749C11 9.697 11 9.217 11 8.257V3.743c0-.96 0-1.44-.187-1.807a1.715 1.715 0 0 0-.749-.75C9.697 1 9.217 1 8.257 1H3.743c-.96 0-1.44 0-1.807.187a1.714 1.714 0 0 0-.75.749Z" class="Icon" clip-rule="evenodd"/>
    <path fill-rule="evenodd" d="M8.282 3.587a.5.5 0 0 1 .13.695l-2.418 3.54a.5.5 0 0 1-.77.068L3.596 6.227a.5.5 0 1 1 .715-.7l1.2 1.228 2.076-3.037a.5.5 0 0 1 .695-.13Z" class="Icon (Stroke)" clip-rule="evenodd"/>
  </g>
</svg>
