<svg xmlns="http://www.w3.org/2000/svg" width="12" height="12" fill="currentColor" viewBox="0 0 12 12">
  <path fill-rule="evenodd" d="m2.026 5.936 3.91-3.91a.09.09 0 0 1 .128 0l3.235 3.236c.616.048 1.19.246 1.686.556a1.085 1.085 0 0 0-.304-.589l-3.91-3.91a1.09 1.09 0 0 0-1.542 0l-3.91 3.91a1.09 1.09 0 0 0 0 1.542l3.91 3.91c.166.166.373.267.589.304a3.728 3.728 0 0 1-.556-1.686L2.026 6.064a.09.09 0 0 1 0-.128Z" clip-rule="evenodd"/>
  <path d="M5.636 8.255a.447.447 0 0 0 .357.145c.158 0 .279-.048.362-.145a.584.584 0 0 0 .126-.396V4.958h.965a.412.412 0 0 0 .29-.102.36.36 0 0 0 .11-.28.354.354 0 0 0-.11-.275.412.412 0 0 0-.29-.101H4.56a.412.412 0 0 0-.29.101.354.354 0 0 0-.11.276c0 .119.037.212.11.28.075.067.171.1.29.1h.95V7.86a.6.6 0 0 0 .126.396Z"/>
  <path class="secondary" d="M8.998 9.75a.75.75 0 1 0 0-1.5.75.75 0 0 0 0 1.5Z"/>
  <path class="secondary" fill-rule="evenodd" d="M9.84 11.757a.375.375 0 0 1-.352.243h-.98a.375.375 0 0 1-.35-.243l-.188-.5a.375.375 0 0 0-.413-.238l-.525.088a.375.375 0 0 1-.387-.182l-.49-.85a.375.375 0 0 1 .035-.425l.339-.412a.375.375 0 0 0 0-.476L6.19 8.35a.375.375 0 0 1-.035-.426l.49-.848a.375.375 0 0 1 .387-.183l.525.088c.177.029.35-.07.413-.239l.187-.499A.375.375 0 0 1 8.508 6h.98c.157 0 .297.097.352.243l.187.5a.375.375 0 0 0 .412.238l.526-.088a.375.375 0 0 1 .386.183l.49.848a.375.375 0 0 1-.035.426l-.338.412a.375.375 0 0 0 0 .476l.338.412c.1.12.114.29.036.425l-.49.85a.375.375 0 0 1-.387.182l-.526-.088a.375.375 0 0 0-.412.239l-.187.499Zm-1.072-.507h.46l.096-.256a1.125 1.125 0 0 1 1.239-.714l.269.044.23-.398-.173-.211a1.125 1.125 0 0 1 0-1.43l.173-.21-.23-.4-.27.045a1.125 1.125 0 0 1-1.238-.714L9.23 6.75h-.46l-.097.256a1.125 1.125 0 0 1-1.238.714l-.27-.044-.23.398.174.211a1.125 1.125 0 0 1 0 1.43l-.173.21.23.4.27-.045c.53-.089 1.048.21 1.237.714l.096.256Z" clip-rule="evenodd"/>
  <path fill="none" class="tertiary" fill-rule="evenodd" d="M9.231 11.25h-.46l-.096-.256a1.125 1.125 0 0 0-1.238-.714l-.27.044-.23-.398.174-.211a1.125 1.125 0 0 0 0-1.43l-.173-.21.23-.4.27.045c.53.089 1.048-.21 1.237-.714l.096-.256h.46l.096.256c.19.503.708.803 1.238.714l.27-.044.23.398-.174.211a1.125 1.125 0 0 0 0 1.43l.174.21-.23.4-.27-.045a1.125 1.125 0 0 0-1.238.714l-.096.256ZM9.751 9a.75.75 0 1 1-1.5 0 .75.75 0 0 1 1.5 0Z" clip-rule="evenodd"/>
</svg>
