<svg xmlns="http://www.w3.org/2000/svg" width="12" height="12" fill="currentColor" viewBox="0 0 12 12">
    <path d="M5.23 1.32a1.09 1.09 0 0 1 1.54 0l3.91 3.91c.035.033.065.07.094.107a1.5 1.5 0 0 0-1.269.13l-3.441-3.44a.09.09 0 0 0-.127 0l-3.91 3.91a.09.09 0 0 0 0 .126l3.409 3.41-.186.186v1.04l-.02-.019-3.91-3.91a1.09 1.09 0 0 1-.076-1.459l.075-.082 3.91-3.91Z"/>
    <path d="M5.636 8.255a.447.447 0 0 0 .357.145c.158 0 .279-.048.362-.145a.584.584 0 0 0 .126-.396V4.958h.965a.412.412 0 0 0 .29-.102.36.36 0 0 0 .11-.28.354.354 0 0 0-.11-.275.412.412 0 0 0-.29-.101H4.56a.412.412 0 0 0-.29.101.354.354 0 0 0-.11.276c0 .119.037.212.11.28.075.067.171.1.29.1h.95V7.86a.6.6 0 0 0 .126.396Z"/>
    <path class="secondary" fill-rule="evenodd" d="M10.81 6.221a.75.75 0 0 0-1.062 0L8.735 7.235 6 9.97V12h2.03l3.749-3.748a.75.75 0 0 0 0-1.061l-.97-.97ZM10.5 8.47l.748-.749-.97-.97-.748.749.97.97ZM9 8.03l.97.97-2.25 2.25h-.97v-.97L9 8.03Z" clip-rule="evenodd"/>
</svg>
