<svg xmlns="http://www.w3.org/2000/svg" width="16" height="16" fill="currentColor" viewBox="0 0 16 16">
  <path fill-rule="evenodd" d="M3.49 15c-.815 0-1.434-.208-1.86-.623-.42-.415-.63-1.03-.63-1.844V3.475c0-.814.21-1.43.63-1.844C2.056 1.21 2.675 1 3.49 1h9.02c.82 0 1.44.21 1.86.63.42.421.63 1.036.63 1.845V9h-1.576V3.625c0-.352-.089-.615-.268-.788-.178-.174-.433-.26-.764-.26H3.608c-.331 0-.586.086-.764.26-.174.173-.26.436-.26.788v8.758c0 .352.086.615.26.788.178.174.433.26.764.26H9.08L10.124 15H3.49Zm9.934-5H16l-4 6-.667-1h-.008l-1.043-1.569h.005l-1.6-2.402-.001.002-.645-.97L8 10h5.424Zm-4.64-4.191V9H7.2V5.809H5.648a.674.674 0 0 1-.472-.166.588.588 0 0 1-.182-.457c0-.19.06-.34.182-.45a.674.674 0 0 1 .472-.165h4.712c.194 0 .351.055.472.165.121.11.181.26.181.45 0 .194-.06.347-.18.457a.674.674 0 0 1-.473.166H8.784Zm-1.379 5.384a.944.944 0 0 1-.204-.588l.526.79a.653.653 0 0 1-.322-.202Z" clip-rule="evenodd"/>
</svg>
