<svg xmlns="http://www.w3.org/2000/svg" width="12" height="12" fill="currentColor" viewBox="0 0 12 12">
  <path fill-rule="evenodd" d="M2.778 11c-.581 0-1.024-.148-1.328-.445C1.15 10.26 1 9.82 1 9.238v-6.47c0-.582.15-1.021.45-1.318.304-.3.747-.45 1.328-.45h6.444c.585 0 1.028.15 1.328.45.3.3.45.74.45 1.318V6.75H9.875V2.875c0-.252-.064-.44-.192-.563-.127-.124-.31-.186-.546-.186H2.863c-.237 0-.419.062-.546.186-.124.124-.186.312-.186.563v6.256c0 .251.062.439.186.563.127.124.31.185.546.185h3.819L7.427 11H2.778Zm7.097-3.5H12L9 12l-.667-1h-.006l-.745-1.12h.004L6.47 8.203v.001l-.439-.658L6 7.5h3.875ZM6.56 4.435V6.75H5.429V4.435H4.32a.481.481 0 0 1-.337-.119.42.42 0 0 1-.13-.326c0-.135.043-.242.13-.321a.481.481 0 0 1 .337-.118h3.365c.14 0 .252.04.338.118.086.079.13.186.13.32a.42.42 0 0 1-.13.327.481.481 0 0 1-.338.119H6.56ZM5.575 8.28a.603.603 0 0 1-.123-.25l.225.338a.46.46 0 0 1-.102-.088Z" clip-rule="evenodd"/>
</svg>
