<svg xmlns="http://www.w3.org/2000/svg" width="12" height="12" fill="currentColor" viewBox="0 0 12 12">
  <path d="M5.636 8.255a.447.447 0 0 0 .357.145c.158 0 .279-.048.362-.145a.584.584 0 0 0 .126-.396V4.958h.965a.412.412 0 0 0 .29-.102.36.36 0 0 0 .11-.28.354.354 0 0 0-.11-.275.412.412 0 0 0-.29-.101H4.56a.412.412 0 0 0-.29.101.354.354 0 0 0-.11.276c0 .119.037.212.11.28.075.067.171.1.29.1h.95V7.86a.6.6 0 0 0 .126.396Z"/>
  <path fill-rule="evenodd" d="m5.936 2.026-3.91 3.91a.09.09 0 0 0 0 .128l3.91 3.91a.09.09 0 0 0 .128 0l3.91-3.91a.09.09 0 0 0 0-.128l-3.91-3.91a.09.09 0 0 0-.128 0ZM1.32 5.23a1.09 1.09 0 0 0 0 1.542l3.91 3.91a1.09 1.09 0 0 0 1.542 0l3.91-3.91a1.09 1.09 0 0 0 0-1.542l-3.91-3.91a1.09 1.09 0 0 0-1.542 0L1.32 5.23Z" clip-rule="evenodd"/>
</svg>
