<svg xmlns="http://www.w3.org/2000/svg" width="20" height="20" fill="currentColor" viewBox="0 0 20 20">
  <path fill-rule="evenodd" d="M2.87 9.711 9.71 2.87c.16-.16.418-.16.578 0l6.017 6.017A6.222 6.222 0 0 1 18.75 10c0-.489-.186-.977-.559-1.35L11.35 1.81a1.908 1.908 0 0 0-2.698 0L1.809 8.65a1.908 1.908 0 0 0 0 2.698l6.842 6.842c.372.373.86.559 1.349.559a6.222 6.222 0 0 1-1.113-2.444L2.87 10.289a.408.408 0 0 1 0-.578Z" clip-rule="evenodd"/>
  <path d="M9.394 13.759c.14.16.338.241.595.241.263 0 .464-.08.603-.241.14-.161.21-.381.21-.66V8.263h1.607c.199 0 .36-.056.483-.169.123-.112.185-.268.185-.466a.59.59 0 0 0-.185-.459A.687.687 0 0 0 12.41 7H7.6a.687.687 0 0 0-.482.169.59.59 0 0 0-.185.459c0 .198.062.354.185.466a.687.687 0 0 0 .483.17h1.584v4.835c0 .273.07.493.209.66Z"/>
  <path fill="none" class="tertiary" fill-rule="evenodd" d="M15.386 18.75h-.768l-.16-.426a1.875 1.875 0 0 0-2.063-1.191l-.449.074-.383-.664.289-.352a1.875 1.875 0 0 0 0-2.382l-.29-.352.384-.664.45.074a1.875 1.875 0 0 0 2.062-1.19l.16-.427h.768l.16.426a1.875 1.875 0 0 0 2.063 1.191l.449-.074.384.664-.29.352c-.57.692-.57 1.69 0 2.382l.29.352-.384.664-.45-.074a1.875 1.875 0 0 0-2.063 1.19l-.16.427Zm.866-3.75a1.25 1.25 0 1 1-2.5 0 1.25 1.25 0 0 1 2.5 0Z" clip-rule="evenodd"/>
  <path class="secondary" d="M14.997 16.25a1.25 1.25 0 1 0 0-2.5 1.25 1.25 0 0 0 0 2.5Z"/>
  <path class="secondary" fill-rule="evenodd" d="M16.4 19.595a.625.625 0 0 1-.586.405h-1.633a.625.625 0 0 1-.586-.405l-.312-.832a.625.625 0 0 0-.687-.397l-.877.146a.625.625 0 0 1-.643-.305l-.817-1.414a.625.625 0 0 1 .058-.71l.565-.686a.625.625 0 0 0 0-.794l-.565-.686a.625.625 0 0 1-.058-.71l.817-1.414a.625.625 0 0 1 .643-.304l.877.145a.625.625 0 0 0 .687-.397l.312-.832A.625.625 0 0 1 14.18 10h1.634c.26 0 .494.162.585.405l.312.832c.105.28.393.446.688.397l.876-.146a.625.625 0 0 1 .644.305l.817 1.414a.625.625 0 0 1-.059.71l-.564.686a.625.625 0 0 0 0 .794l.564.686a.625.625 0 0 1 .059.71l-.817 1.414a.625.625 0 0 1-.644.305l-.876-.146a.625.625 0 0 0-.688.397l-.312.831Zm-1.786-.845h.767l.16-.426a1.875 1.875 0 0 1 2.063-1.191l.449.074.384-.664-.29-.352a1.875 1.875 0 0 1 0-2.382l.29-.352-.384-.664-.449.074a1.875 1.875 0 0 1-2.063-1.19l-.16-.427h-.767l-.16.426a1.875 1.875 0 0 1-2.064 1.191l-.448-.074-.384.664.289.352c.57.692.57 1.69 0 2.382l-.29.352.385.664.448-.074a1.875 1.875 0 0 1 2.064 1.19l.16.427Z" clip-rule="evenodd"/>
</svg>
