<svg xmlns="http://www.w3.org/2000/svg" width="20" height="20" fill="currentColor" viewBox="0 0 20 20">
  <g class="template-20px">
    <path fill="none" d="M1.81 18.2c.547.533 1.344.8 2.39.8h11.6c1.053 0 1.85-.27 2.39-.81.54-.535.81-1.322.81-2.362V4.182c0-1.04-.27-1.83-.81-2.371C17.65 1.27 16.853 1 15.8 1H4.2c-1.046 0-1.843.27-2.39.81C1.27 2.346 1 3.136 1 4.183v11.646c0 1.047.27 1.838.81 2.371Z" class="secondary"/>
    <path d="M4.2 19c-1.046 0-1.843-.267-2.39-.8-.54-.534-.81-1.325-.81-2.372V4.182c0-1.047.27-1.837.81-2.371C2.357 1.27 3.154 1 4.2 1h11.6c1.053 0 1.85.27 2.39.81.54.541.81 1.332.81 2.372v11.646c0 1.04-.27 1.827-.81 2.361-.54.54-1.337.811-2.39.811H4.2Zm.125-1.709 11.494.029c.425 0 .951-.097 1.181-.32.23-.223.299-.759.299-1.211V10.13l-.07-6.133c0-.453-.251-.784-.48-1.007-.23-.223-.676-.285-1.102-.285H10l-6.054-.039c-.425 0-.753.112-.982.335-.223.222-.334.56-.334 1.013l.056 5.991v5.63c0 .453.091 1.142.314 1.365.23.223.9.291 1.325.291Zm5.66-2.882c-.324 0-.574-.102-.75-.304-.175-.21-.263-.487-.263-.831V7.182H6.976c-.25 0-.452-.07-.607-.212-.156-.142-.233-.338-.233-.588 0-.243.077-.436.233-.578.155-.142.358-.213.607-.213h6.058c.25 0 .452.071.607.213.156.142.233.335.233.578 0 .25-.077.446-.232.588-.156.141-.358.212-.608.212h-2.026v6.092c0 .351-.088.628-.263.83-.176.203-.43.305-.76.305Z" class="Icon"/>
  </g>
</svg>
