<svg xmlns="http://www.w3.org/2000/svg" width="16" height="16" fill="currentColor" viewBox="0 0 16 16">
  <path fill-rule="evenodd" d="M7.748 2.354 2.354 7.748a.356.356 0 0 0 0 .504l5.394 5.394c.14.139.365.139.504 0l5.394-5.394a.356.356 0 0 0 0-.504L8.252 2.354a.356.356 0 0 0-.504 0ZM1.47 6.864a1.606 1.606 0 0 0 0 2.272l5.394 5.394a1.606 1.606 0 0 0 2.272 0l5.394-5.394a1.606 1.606 0 0 0 0-2.272L9.136 1.47a1.606 1.606 0 0 0-2.272 0L1.47 6.864Z" clip-rule="evenodd"/>
  <path d="M7.515 11.007c.112.129.27.193.476.193.21 0 .371-.064.483-.193.111-.129.167-.305.167-.528V6.611h1.287a.55.55 0 0 0 .385-.136.48.48 0 0 0 .148-.373.472.472 0 0 0-.148-.367.55.55 0 0 0-.385-.135H6.08a.55.55 0 0 0-.386.135.472.472 0 0 0-.148.367c0 .159.049.283.148.373a.55.55 0 0 0 .386.136h1.267v3.868c0 .219.056.395.167.528Z"/>
</svg>
