<svg xmlns="http://www.w3.org/2000/svg" width="20" height="20" fill="currentColor" viewBox="0 0 20 20">
  <path fill-rule="evenodd" d="M4.2 19c-1.046 0-1.843-.267-2.39-.8-.54-.534-.81-1.325-.81-2.372V4.182c0-1.047.27-1.837.81-2.371C2.357 1.27 3.154 1 4.2 1h11.6c1.053 0 1.85.27 2.39.81.54.541.81 1.332.81 2.372v7.068h-1.701v-1.12l-.07-6.133c0-.453-.251-.784-.48-1.007-.23-.223-.676-.285-1.102-.285H10l-6.054-.039c-.425 0-.753.112-.982.335-.223.222-.334.56-.334 1.013l.056 5.991v5.63c0 .453.091 1.142.314 1.365.23.223.9.291 1.325.291l7.372.019L12.821 19h-8.62Zm13.1-6.5H20L15 20l-.667-1h-.01L13.2 17.313h.008l-2.307-3.46-.001.002-.85-1.279L10 12.5h7.298Zm-6.291-5.318v4.068H8.972V7.182H6.976c-.25 0-.452-.07-.607-.212-.156-.142-.233-.338-.233-.588 0-.243.077-.436.233-.578.155-.142.358-.213.607-.213h6.058c.25 0 .452.071.607.213.156.142.233.335.233.578 0 .25-.077.446-.232.588-.156.141-.358.212-.608.212h-2.026Zm-2.036 6.092v-.063l.784 1.179a.863.863 0 0 1-.52-.285c-.176-.21-.264-.487-.264-.831Z" clip-rule="evenodd"/>
</svg>
