<svg xmlns="http://www.w3.org/2000/svg" width="20" height="20" fill="currentColor" viewBox="0 0 20 20">
  <path fill-rule="evenodd" d="M9.711 2.87 2.87 9.71a.408.408 0 0 0 0 .578l6.84 6.842a.41.41 0 0 0 .578 0l6.842-6.842a.408.408 0 0 0 0-.578l-6.841-6.84a.408.408 0 0 0-.578 0ZM1.81 8.65a1.908 1.908 0 0 0 0 2.7l6.84 6.84a1.908 1.908 0 0 0 2.698 0l6.842-6.842a1.908 1.908 0 0 0 0-2.698l-6.84-6.841a1.908 1.908 0 0 0-2.698 0L1.809 8.65Z" clip-rule="evenodd"/>
  <path d="M9.394 13.759c.14.16.338.241.595.241.263 0 .464-.08.603-.241.14-.161.21-.381.21-.66V8.263h1.607c.199 0 .36-.056.483-.169.123-.112.185-.268.185-.466a.59.59 0 0 0-.185-.459A.687.687 0 0 0 12.41 7H7.6a.687.687 0 0 0-.482.169.59.59 0 0 0-.185.459c0 .198.062.354.185.466a.687.687 0 0 0 .483.17h1.584v4.835c0 .274.07.493.209.66Z"/>
</svg>
