<svg xmlns="http://www.w3.org/2000/svg" width="20" height="20" fill="currentColor" viewBox="0 0 20 20">
  <path fill-rule="evenodd" d="M16.5 3.563h-13a.937.937 0 0 0-.938.937v11c0 .518.42.938.938.938h13c.518 0 .938-.42.938-.938v-11a.937.937 0 0 0-.938-.938ZM3.5 2A2.5 2.5 0 0 0 1 4.5v11A2.5 2.5 0 0 0 3.5 18h13a2.5 2.5 0 0 0 2.5-2.5v-11A2.5 2.5 0 0 0 16.5 2h-13Zm5.04 11.197a.78.78 0 0 1 .78-.781h3.858a.781.781 0 1 1 0 1.562H9.321a.781.781 0 0 1-.781-.781ZM6.025 5.993a.777.777 0 0 0-1.102 0 .786.786 0 0 0 0 1.107l1.994 2.004-1.994 2.004a.786.786 0 0 0 0 1.107.777.777 0 0 0 1.102 0l2.546-2.557a.786.786 0 0 0 0-1.108L6.025 5.993Z" clip-rule="evenodd"/>
</svg>
