<svg width="16" height="16" viewBox="0 0 16 16"  xmlns="http://www.w3.org/2000/svg"><path d="M0 4.60002C0 3.385 0.984974 2.40002 2.2 2.40002H13.8C15.015 2.40002 16 3.385 16 4.60002V12.2C16 13.4151 15.015 14.4 13.8 14.4H2.2C0.984973 14.4 0 13.4151 0 12.2V4.60002ZM3 6.42914L3.79625 5.60004L5.83841 7.68597C6.05386 7.91644 6.05386 8.28363 5.83841 8.5141L3.79625 10.6L3.03747 9.77094L4.63934 8.09515L3 6.42914ZM11 10H7V8.40002H11V10ZM2.7 3.9C2.03726 3.9 1.5 4.43726 1.5 5.1V11.7C1.5 12.3627 2.03726 12.9 2.7 12.9H13.3C13.9627 12.9 14.5 12.3627 14.5 11.7V5.1C14.5 4.43726 13.9627 3.9 13.3 3.9H2.7Z" /></svg>
