<svg xmlns="http://www.w3.org/2000/svg" width="16" height="16" fill="currentColor" viewBox="0 0 16 16">
  <path fill-rule="evenodd" d="M13 3.25H3a.75.75 0 0 0-.75.75v8c0 .414.336.75.75.75h10a.75.75 0 0 0 .75-.75V4a.75.75 0 0 0-.75-.75ZM3 2a2 2 0 0 0-2 2v8a2 2 0 0 0 2 2h10a2 2 0 0 0 2-2V4a2 2 0 0 0-2-2H3Z" clip-rule="evenodd"/>
  <path fill-rule="evenodd" d="M6.875 10.5c0-.345.28-.625.625-.625h3a.625.625 0 1 1 0 1.25h-3a.625.625 0 0 1-.625-.625ZM4.038 5.078a.625.625 0 0 1 .884 0l1.98 1.98a.625.625 0 0 1 0 .884l-1.98 1.98a.625.625 0 0 1-.884-.884L5.576 7.5 4.038 5.962a.625.625 0 0 1 0-.884Z" clip-rule="evenodd"/>
</svg>
