<svg xmlns="http://www.w3.org/2000/svg" width="12" height="12" fill="currentColor" viewBox="0 0 12 12">
  <path fill-rule="evenodd" d="M9.5 3h-7a.5.5 0 0 0-.5.5v5a.5.5 0 0 0 .5.5h7a.5.5 0 0 0 .5-.5v-5a.5.5 0 0 0-.5-.5Zm-7-1A1.5 1.5 0 0 0 1 3.5v5A1.5 1.5 0 0 0 2.5 10h7A1.5 1.5 0 0 0 11 8.5v-5A1.5 1.5 0 0 0 9.5 2h-7Zm2.643 5.5a.5.5 0 0 1 .5-.5h2.143a.5.5 0 1 1 0 1H5.643a.5.5 0 0 1-.5-.5ZM3.85 4.006a.543.543 0 0 0-.73 0 .46.46 0 0 0 0 .682l1.048.979-1.049.978a.46.46 0 0 0 0 .683c.202.188.53.188.731 0l1.414-1.32a.46.46 0 0 0 0-.682L3.85 4.006Z" clip-rule="evenodd"/>
</svg>
