<?xml version="1.0" encoding="utf-8"?>
<!DOCTYPE svg PUBLIC "-//W3C//DTD SVG 1.1//EN" "http://www.w3.org/Graphics/SVG/1.1/DTD/svg11.dtd">
<svg version="1.1" xmlns="http://www.w3.org/2000/svg" xmlns:xlink="http://www.w3.org/1999/xlink" x="0px" y="0px"
	   width="32px" height="32px" viewBox="0 0 32 32" enable-background="new 0 0 32 32">
  <g>
	  <path d="M31.76 25.875l-2.063-2.063c-0.169-0.169-0.443-0.169-0.611 0s-0.169 0.443 0 0.611l1.758 1.758-1.758 1.758c-0.169 0.169-0.169 0.443 0 0.611 0.085 0.085 0.196 0.126 0.306 0.126s0.22-0.042 0.306-0.126l2.063-2.063c0.169-0.169 0.169-0.443 0-0.611v0z"/>
    <path d="M13.532 26.405h15.681c0.238 0 0.431-0.115 0.431-0.354s-0.194-0.354-0.431-0.354h-11.922c4.108-1.563 7.035-5.54 7.035-10.19 0-6.011-4.89-10.9-10.9-10.9-0.067 0-0.129 0.019-0.185 0.044-0.054-0.025-0.113-0.042-0.176-0.043l1.328-1.328c0.169-0.169 0.169-0.443 0-0.611s-0.443-0.169-0.611 0l-2.015 2.015c-5.405 0.641-9.611 5.248-9.611 10.821 0 4.65 2.927 8.626 7.035 10.19h-8.758c-0.238 0-0.431 0.115-0.431 0.354s0.194 0.354 0.431 0.354h12.515c0.035 0.001 0.070 0.003 0.106 0.003 0.004 0 0.008-0.003 0.015-0.003h0.342c0.004 0 0.008 0.003 0.015 0.003 0.037 0.001 0.070-0.003 0.106-0.003v0zM3.018 15.508c0-5.148 3.896-9.4 8.893-9.969l1.869 1.869c0.085 0.085 0.196 0.126 0.306 0.126s0.22-0.042 0.306-0.126c0.169-0.169 0.169-0.443 0-0.611l-1.328-1.328c0.063-0.001 0.122-0.017 0.176-0.043 0.056 0.028 0.118 0.044 0.185 0.044 5.534 0 10.036 4.503 10.036 10.036s-4.503 10.036-10.036 10.036c-0.067 0-0.129 0.019-0.185 0.044-0.056-0.028-0.118-0.044-0.185-0.044-5.534 0.001-10.036-4.502-10.036-10.036v0z"/>
  </g>
</svg>
