<svg xmlns="http://www.w3.org/2000/svg" width="16" height="16" fill="currentColor" viewBox="0 0 16 16">
  <path fill-rule="evenodd" d="M7 1.756h2a.75.75 0 0 1 .75.75v.25h-3.5v-.25a.75.75 0 0 1 .75-.75Zm-2 .75a2 2 0 0 1 2-2h2a2 2 0 0 1 2 2v.512h2a1 1 0 0 1 1 1v2.485h-1v6.37a2 2 0 0 1-2 2H5a2 2 0 0 1-2-2v-6.37H2V4.018a1 1 0 0 1 1-1h2v-.512Zm8 1.512H3v1.234h10V4.018Zm-8.75 8.854V6.503h7.5v6.37a.75.75 0 0 1-.75.75H5a.75.75 0 0 1-.75-.75Zm2.25-5.42a.5.5 0 0 0-.5.5v3.551a.5.5 0 0 0 1 0v-3.55a.5.5 0 0 0-.5-.5Zm2.5.5a.5.5 0 1 1 1 0v3.551a.5.5 0 0 1-1 0v-3.55Z" clip-rule="evenodd"/>
</svg>
