<?xml version="1.0" encoding="UTF-8" standalone="no"?>
<svg width="12px" height="14px" viewBox="0 0 12 14" version="1.1" xmlns="http://www.w3.org/2000/svg" xmlns:xlink="http://www.w3.org/1999/xlink">
    <title>trash</title>
    <g stroke="none" stroke-width="1">
        <g>
            <g>
                <path d="M1.88958222,13.0062401 C1.95056428,13.5550785 2.44797753,14 3.00005525,14 L8.99994475,14 C9.55226,14 10.0494195,13.5552247 10.1104178,13.0062401 L11,5 L1,5 L1.88958222,13.0062401 L1.88958222,13.0062401 Z M3,2 L3.75,0 L8.25,0 L9,2 L11,2 C12,2 12,4 12,4 L6,4 L0,4 C0,4 0,2 1,2 L3,2 L3,2 Z M4,2 L8,2 L7.5,1 L4.5,1 L4,2 L4,2 Z"></path>
            </g>
        </g>
    </g>
</svg>