<svg xmlns="http://www.w3.org/2000/svg" width="12" height="12" fill="currentColor" viewBox="0 0 12 12">
  <path fill-rule="evenodd" d="M5.25 1.316h1.5c.31 0 .563.252.563.563v.187H4.688V1.88c0-.31.251-.563.562-.563Zm-1.5.563a1.5 1.5 0 0 1 1.5-1.5h1.5a1.5 1.5 0 0 1 1.5 1.5v.384h1.5a.75.75 0 0 1 .75.75v1.864h-.75v4.777a1.5 1.5 0 0 1-1.5 1.5h-4.5a1.5 1.5 0 0 1-1.5-1.5V4.877H1.5V3.013a.75.75 0 0 1 .75-.75h1.5v-.384Zm6 1.134h-7.5v.926h7.5v-.926Zm-6.563 6.64V4.878h5.626v4.777c0 .31-.252.562-.563.562h-4.5a.562.562 0 0 1-.563-.562ZM4.875 5.59a.375.375 0 0 0-.375.375v2.663a.375.375 0 1 0 .75 0V5.964a.375.375 0 0 0-.375-.375Zm1.875.375a.375.375 0 1 1 .75 0v2.663a.375.375 0 1 1-.75 0V5.964Z" clip-rule="evenodd"/>
</svg>
