<svg xmlns="http://www.w3.org/2000/svg" width="20" height="20" fill="currentColor" viewBox="0 0 20 20">
  <path fill-rule="evenodd" d="M8.75 2.5h2.5a1 1 0 0 1 1 1v.375h-4.5V3.5a1 1 0 0 1 1-1Zm-2.5 1A2.5 2.5 0 0 1 8.75 1h2.5a2.5 2.5 0 0 1 2.5 2.5v.64h2.5c.69 0 1.25.56 1.25 1.25v3.107h-1.25v7.961a2.5 2.5 0 0 1-2.5 2.5h-7.5a2.5 2.5 0 0 1-2.5-2.5V8.497H2.5V5.39c0-.69.56-1.25 1.25-1.25h2.5V3.5Zm10 1.89H3.75v1.543h12.5V5.39Zm-11 11.068V8.497h9.5v7.961a1 1 0 0 1-1 1h-7.5a1 1 0 0 1-1-1Zm2.875-6.775a.625.625 0 0 0-.625.625v4.438a.625.625 0 1 0 1.25 0v-4.438a.625.625 0 0 0-.625-.625Zm3.125.625a.625.625 0 1 1 1.25 0v4.438a.625.625 0 1 1-1.25 0v-4.438Z" clip-rule="evenodd"/>
</svg>
