<svg xmlns="http://www.w3.org/2000/svg" viewBox="0 0 16 16"><path d="M9.88,7.16a1.82,1.82,0,0,0-1-1.38,1.73,1.73,0,0,0-1.66-.11,1.87,1.87,0,0,0-.85.75,1.85,1.85,0,0,0-.29,1.09,1.79,1.79,0,0,0,.65,1.31,1.85,1.85,0,0,0,1.4.47,1.8,1.8,0,0,0,1.28-.71A1.86,1.86,0,0,0,9.88,7.16ZM9,7.28a.9.9,0,0,0-.48-.69.85.85,0,0,0-.83-.06.88.88,0,0,0-.43.38.9.9,0,0,0-.15.55.92.92,0,0,0,.33.66.88.88,0,0,0,.7.23A.9.9,0,0,0,8.74,8,1,1,0,0,0,9,7.28ZM11.89,3a1.27,1.27,0,0,0-.47-.37,2.27,2.27,0,0,0-.49-.19l-.59-.1a14.2,14.2,0,0,0-4.78,0L5,2.45a1.84,1.84,0,0,0-.47.19A1.36,1.36,0,0,0,4.12,3a2,2,0,0,0,.64.39,3.73,3.73,0,0,0,.62.18l.74.1a15.43,15.43,0,0,0,3.78,0l.75-.1a3.91,3.91,0,0,0,.61-.19A1.54,1.54,0,0,0,11.89,3Zm0,10.67a1.38,1.38,0,0,1-.49.47,6.39,6.39,0,0,1-1.6.61,7.18,7.18,0,0,1-1.7.18,12.47,12.47,0,0,1-1.7-.15c-.26,0-.49-.1-.69-.16a5.43,5.43,0,0,1-.64-.22A2.55,2.55,0,0,1,4.45,14,2,2,0,0,1,4,13.51q-.21-.81-.48-2.46c0-.12.13-.17.21-.21A7.45,7.45,0,0,0,8,12a7.52,7.52,0,0,0,4.28-1.14.23.23,0,0,1,.2.19.76.76,0,0,1,0,.38C12.4,11.57,12,13.46,11.89,13.67Zm2-10Q13.68,5,13,9.15a1,1,0,0,1-.22.47,2.25,2.25,0,0,1-.37.34l-.46.26A9.26,9.26,0,0,1,6.77,11,6.51,6.51,0,0,1,3.45,9.79a1.58,1.58,0,0,1-.22-.23,1.57,1.57,0,0,1-.14-.29A1.48,1.48,0,0,1,3,9,2.54,2.54,0,0,1,3,8.65a2.17,2.17,0,0,0,0-.3c0-.28-.13-.7-.22-1.26L2.46,5.73c-.06-.35-.13-.76-.2-1.24s-.13-.93-.18-1.34a.84.84,0,0,1,.14-.4,1.24,1.24,0,0,1,.27-.32,1.47,1.47,0,0,1,.38-.25A2.69,2.69,0,0,1,3.26,2a3.65,3.65,0,0,1,.4-.16A10.53,10.53,0,0,1,6.3,1.29a15,15,0,0,1,5.7.42,3.54,3.54,0,0,1,1.81,1,.74.74,0,0,1,.14.43A2.09,2.09,0,0,1,13.9,3.63Z"/></svg>