<svg id="Layer_1" data-name="Layer 1" xmlns="http://www.w3.org/2000/svg" viewBox="0 0 12 12"><title>depend_test</title><path d="M11.36,8.89,7.71,5.25,10.47,2.5a.54.54,0,0,0,0-.76l-.08-.1a5.22,5.22,0,0,0-6.79-.49L2.76.3a.58.58,0,0,0-.84,0,.59.59,0,0,0,0,.85L2.75,2A5.2,5.2,0,0,0,3,9l.08.07a.57.57,0,0,0,.38.15.54.54,0,0,0,.39-.16l3-3,3.64,3.64a.55.55,0,0,1,.16.38.55.55,0,0,1-.16.39.57.57,0,0,1-.77,0,.59.59,0,0,0-.85,0,.61.61,0,0,0,0,.85,1.75,1.75,0,0,0,2.47-2.47Zm-7.87-1A4.13,4.13,0,0,1,6.72,1.21a4,4,0,0,1,2.57.91Z"/></svg>