<svg xmlns="http://www.w3.org/2000/svg" width="12" height="12" fill="currentColor" viewBox="0 0 12 12">
  <path fill-rule="evenodd" d="M9.9 6c0 2.679-2.875 4.208-3.688 4.586a.496.496 0 0 1-.424 0C4.975 10.208 2.1 8.68 2.1 6V3.276c0-.24.146-.454.368-.543l3.315-1.326a.585.585 0 0 1 .434 0l3.315 1.326a.585.585 0 0 1 .368.543V6Zm-6.866-.124.005-2.079c0-.242.15-.46.377-.545l2.382-.903a.585.585 0 0 1 .415 0l2.38.902a.585.585 0 0 1 .377.548l-.004 2.077c0 1.21-.757 2.18-1.658 2.9a8.03 8.03 0 0 1-1.22.8.189.189 0 0 1-.176 0 8.03 8.03 0 0 1-1.22-.8c-.902-.72-1.658-1.69-1.658-2.9Z" clip-rule="evenodd"/>
  <path d="M6.327 8.199a.47.47 0 0 1-.347.141.47.47 0 0 1-.346-.141.47.47 0 0 1-.141-.347.47.47 0 0 1 .141-.346.47.47 0 0 1 .346-.141.47.47 0 0 1 .347.141.47.47 0 0 1 .14.346.47.47 0 0 1-.14.347Zm.136-3.72a.628.628 0 0 0-.424-.156.762.762 0 0 0-.336.078.715.715 0 0 0-.269.224.388.388 0 0 1-.526.117.288.288 0 0 1-.132-.2.352.352 0 0 1 .044-.248 1.09 1.09 0 0 1 .512-.478 1.66 1.66 0 0 1 .707-.156c.357 0 .671.106.94.317.27.211.405.482.405.814 0 .208-.053.396-.16.565a2.5 2.5 0 0 1-.386.468c-.104.098-.201.2-.292.308a.783.783 0 0 0-.176.365.45.45 0 0 1-.131.244.347.347 0 0 1-.249.097.345.345 0 0 1-.239-.092.297.297 0 0 1-.102-.23c0-.194.057-.37.17-.526.114-.156.246-.299.395-.429.11-.097.21-.201.298-.312a.594.594 0 0 0 .131-.38.494.494 0 0 0-.18-.39Z"/>
</svg>
