<svg xmlns="http://www.w3.org/2000/svg" width="12" height="12" fill="currentColor" viewBox="0 0 12 12">
  <path d="M7.53 8.97c-.172 0-.862-.398-1.11-.593-.082-.06-.277-.3-.375-.33-.075-.015-.232.18-.307.18-.068 0-.383-.202-.458-.18-.097.03-1.29.945-1.462.945-.788 0-1.56-.952-1.56-.952-.045 2.152 1.95 3.382 2.295 3.645.285.21 2.077.21 2.362 0 .353-.263 2.003-2.138 2.115-3.698-.315.683-.72.983-1.5.983ZM4.935 5.28c2.205-.015 4.245-.368 4.268-1.448.022-.862-.48-1.875-.93-2.557-.3-.465-.713-.96-1.268-.833-.525.12-.892.653-1.432.743-.465.09-.66-.263-1.035-.458-.33-.165-.668-.12-.93.165-.39.405-.623.975-.803 1.53-.165.495-.502 1.148-.442 1.695.082.705 1.807 1.17 2.572 1.163ZM9.69 3.487c1.215 2.235-2.887 2.715-4.755 2.678-1.35-.03-4.012-1.298-3.105-1.928-.742-.037-1.35.21-1.47.848-.157.84.3 1.335 1.215 1.755 1.133.54 2.543.525 3.833.562 1.582.053 3.255-.037 4.642-.682.788-.36 1.56-.975 1.53-1.748-.03-.757-.952-1.485-1.89-1.485Z"/>
</svg>
