<svg xmlns="http://www.w3.org/2000/svg" width="20" height="20" fill="currentColor" viewBox="0 0 20 20">
  <path fill-rule="evenodd" d="M17.167 10c0 5.152-5.53 8.092-7.093 8.82a.953.953 0 0 1-.815 0c-1.564-.728-7.093-3.668-7.092-8.82V4.762c0-.46.28-.874.707-1.045l6.375-2.55c.268-.107.567-.107.835 0l6.375 2.55c.428.171.708.585.708 1.045V10Zm-13.5 0V5.777c0-.46.28-.873.707-1.044l4.875-1.95c.268-.108.567-.108.835 0l4.875 1.95c.428.17.708.584.708 1.044V10c0 2.328-1.455 4.193-3.187 5.579a15.515 15.515 0 0 1-2.347 1.535.99.99 0 0 1-.932 0 15.416 15.416 0 0 1-2.347-1.535C5.12 14.193 3.667 12.328 3.667 10Z" clip-rule="evenodd"/>
  <path d="M10.295 14.228a.905.905 0 0 1-.666.272.905.905 0 0 1-.666-.272.905.905 0 0 1-.271-.665c0-.263.09-.485.271-.666a.905.905 0 0 1 .666-.272c.263 0 .484.09.666.272a.905.905 0 0 1 .271.665c0 .263-.09.485-.271.666Zm.262-7.153c-.231-.2-.503-.3-.815-.3-.225 0-.441.05-.647.15-.207.1-.378.244-.516.431a.747.747 0 0 1-1.012.225.554.554 0 0 1-.254-.384.676.676 0 0 1 .085-.478c.225-.413.553-.719.984-.919.431-.2.885-.3 1.36-.3.687 0 1.29.203 1.809.61.519.406.778.928.778 1.565 0 .4-.103.763-.31 1.088a4.811 4.811 0 0 1-.74.9c-.2.187-.387.384-.563.59a1.5 1.5 0 0 0-.337.703.864.864 0 0 1-.253.469.668.668 0 0 1-.478.188.663.663 0 0 1-.46-.179.57.57 0 0 1-.196-.44c0-.375.109-.713.328-1.013.218-.3.472-.575.759-.825.212-.187.403-.387.572-.6a1.14 1.14 0 0 0 .253-.731c0-.3-.116-.55-.347-.75Z"/>
</svg>
