<svg xmlns="http://www.w3.org/2000/svg" width="16" height="16" fill="currentColor" viewBox="0 0 16 16">
  <path fill-rule="evenodd" d="M13.833 8c0 4.007-4.3 6.293-5.516 6.86a.741.741 0 0 1-.634 0C6.467 14.293 2.167 12.007 2.167 8V3.926c0-.358.218-.68.55-.813L7.675 1.13a.875.875 0 0 1 .65 0l4.958 1.983c.333.133.55.455.55.813V8Zm-10.27-.185.008-3.11c0-.363.225-.687.565-.816l3.562-1.35c.2-.076.42-.076.62 0l3.56 1.349c.34.13.566.456.565.82l-.007 3.107c0 1.81-1.132 3.26-2.48 4.338a11.91 11.91 0 0 1-1.825 1.195.282.282 0 0 1-.263 0 12.004 12.004 0 0 1-1.825-1.195c-1.348-1.077-2.48-2.528-2.48-4.338Z" clip-rule="evenodd"/>
  <path d="M8.489 11.289a.704.704 0 0 1-.518.211.704.704 0 0 1-.518-.211.704.704 0 0 1-.211-.518c0-.204.07-.377.211-.518a.704.704 0 0 1 .518-.211c.204 0 .377.07.518.211a.704.704 0 0 1 .211.518c0 .204-.07.377-.211.518Zm.204-5.564a.939.939 0 0 0-.635-.233 1.14 1.14 0 0 0-.503.116 1.07 1.07 0 0 0-.4.336.58.58 0 0 1-.788.175.431.431 0 0 1-.197-.3.526.526 0 0 1 .065-.371c.175-.32.43-.56.766-.715A2.484 2.484 0 0 1 8.058 4.5a2.22 2.22 0 0 1 1.408.474c.403.316.605.722.605 1.218 0 .31-.08.593-.24.845a3.74 3.74 0 0 1-.577.7 5.561 5.561 0 0 0-.437.46 1.17 1.17 0 0 0-.263.547.672.672 0 0 1-.197.364.52.52 0 0 1-.372.146.516.516 0 0 1-.357-.138.444.444 0 0 1-.153-.343c0-.292.085-.554.255-.788a3.88 3.88 0 0 1 .59-.641c.166-.146.314-.302.446-.467a.89.89 0 0 0 .197-.569.74.74 0 0 0-.27-.583Z"/>
</svg>
