<svg xmlns="http://www.w3.org/2000/svg" width="20" height="20" fill="currentColor" viewBox="0 0 20 20">
  <path d="M12.55 14.95c-.288 0-1.438-.663-1.85-.988-.138-.1-.463-.5-.625-.55-.125-.025-.388.3-.513.3-.112 0-.637-.338-.762-.3-.163.05-2.15 1.575-2.438 1.575-1.312 0-2.6-1.588-2.6-1.588-.075 3.588 3.25 5.638 3.825 6.075.475.35 3.463.35 3.938 0 .587-.437 3.337-3.562 3.525-6.162-.525 1.138-1.2 1.638-2.5 1.638ZM8.225 8.8c3.675-.025 7.075-.613 7.112-2.413.038-1.437-.8-3.125-1.55-4.262-.5-.775-1.187-1.6-2.112-1.388-.875.2-1.488 1.088-2.388 1.238-.775.15-1.1-.438-1.725-.763-.55-.275-1.112-.2-1.55.275-.65.675-1.037 1.625-1.337 2.55-.275.825-.838 1.913-.738 2.825.138 1.175 3.013 1.95 4.288 1.938Zm7.925-2.988c2.025 3.725-4.813 4.525-7.925 4.462-2.25-.05-6.688-2.162-5.175-3.212C1.812 7 .8 7.412.6 8.475c-.263 1.4.5 2.225 2.025 2.925 1.887.9 4.237.874 6.387.937 2.638.088 5.425-.063 7.738-1.137 1.312-.6 2.6-1.625 2.55-2.913-.05-1.262-1.588-2.475-3.15-2.475Z"/>
</svg>
