<svg enable-background="new 0 0 16 16" viewBox="0 0 16 16" width="16" height="16" xmlns="http://www.w3.org/2000/svg"><path d="m10.04 11.96c-.23 0-1.15-.53-1.48-.79-.11-.08-.37-.4-.5-.44-.1-.02-.31.24-.41.24-.09 0-.51-.27-.61-.24-.13.04-1.72 1.26-1.95 1.26-1.05 0-2.08-1.27-2.08-1.27-.06 2.87 2.6 4.51 3.06 4.86.38.28 2.77.28 3.15 0 .47-.35 2.67-2.85 2.82-4.93-.42.91-.96 1.31-2 1.31zm-3.46-4.92c2.94-.02 5.66-.49 5.69-1.93.03-1.15-.64-2.5-1.24-3.41-.4-.62-.95-1.28-1.69-1.11-.7.16-1.19.87-1.91.99-.62.12-.88-.35-1.38-.61-.44-.22-.89-.16-1.24.22-.52.54-.83 1.3-1.07 2.04-.22.66-.67 1.53-.59 2.26.11.94 2.41 1.56 3.43 1.55zm6.34-2.39c1.62 2.98-3.85 3.62-6.34 3.57-1.8-.04-5.35-1.73-4.14-2.57-.99-.05-1.8.28-1.96 1.13-.21 1.12.4 1.78 1.62 2.34 1.51.72 3.39.7 5.11.75 2.11.07 4.34-.05 6.19-.91 1.05-.48 2.08-1.3 2.04-2.33-.04-1.01-1.27-1.98-2.52-1.98z"/></svg>