<svg xmlns="http://www.w3.org/2000/svg" width="12" height="12" fill="currentColor" viewBox="0 0 12 12">
  <path fill-rule="evenodd" d="M2.007 6.212V5.25a.5.5 0 1 0-1 0V7.5a.5.5 0 0 0 .5.5h2.25a.5.5 0 1 0 0-1H2.643a12.799 12.799 0 0 1 1.202-1.183c.968-.83 2.159-1.567 3.28-1.567.85 0 1.454.211 1.89.502.44.293.74.687.944 1.097a4.112 4.112 0 0 1 .415 1.626l.001.022v.004a.5.5 0 0 0 1-.001h-.5.5v-.02a4.051 4.051 0 0 0-.065-.65 5.108 5.108 0 0 0-.456-1.43A3.79 3.79 0 0 0 9.57 3.92c-.618-.412-1.42-.67-2.445-.67-1.503 0-2.934.951-3.931 1.808-.486.417-.893.833-1.187 1.154Z" clip-rule="evenodd"/>
</svg>
