<svg xmlns="http://www.w3.org/2000/svg" width="20" height="20" fill="currentColor" viewBox="0 0 20 20">
  <path fill-rule="evenodd" d="M2.656 11.208V9.375a.781.781 0 0 0-1.562 0v3.75c0 .431.35.781.781.781h3.75a.781.781 0 1 0 0-1.562H3.73l.167-.165a25.732 25.732 0 0 1 2.131-1.876c1.783-1.395 3.944-2.647 5.847-2.647 1.426 0 2.443.354 3.18.846.742.494 1.246 1.159 1.59 1.847a6.9 6.9 0 0 1 .612 1.928 6.865 6.865 0 0 1 .086.804v.045a.782.782 0 0 0 1.563-.001h-.781.781v-.031a4.604 4.604 0 0 0-.014-.293 8.452 8.452 0 0 0-.094-.781 8.46 8.46 0 0 0-.755-2.37c-.437-.873-1.105-1.771-2.121-2.448-1.021-.681-2.348-1.108-4.047-1.108-2.471 0-4.998 1.56-6.81 2.978a27.284 27.284 0 0 0-2.409 2.136Z" clip-rule="evenodd"/>
</svg>
