<svg xmlns="http://www.w3.org/2000/svg" width="16" height="16" fill="currentColor" viewBox="0 0 16 16">
  <path fill-rule="evenodd" d="M2.125 8.966V7.5a.625.625 0 1 0-1.25 0v3c0 .345.28.625.625.625h3a.625.625 0 1 0 0-1.25H2.984a20.438 20.438 0 0 1 1.839-1.633C6.249 7.126 7.977 6.125 9.5 6.125c1.14 0 1.955.283 2.544.676.593.396.997.928 1.272 1.479a5.53 5.53 0 0 1 .49 1.542 5.517 5.517 0 0 1 .069.674v.005a.626.626 0 0 0 1.25-.001H14.5h.625v-.024c0-.013 0-.031-.002-.053a6.745 6.745 0 0 0-.085-.807 6.769 6.769 0 0 0-.604-1.896c-.35-.699-.884-1.417-1.697-1.959-.816-.544-1.878-.886-3.237-.886-1.977 0-3.998 1.249-5.448 2.383a21.83 21.83 0 0 0-1.927 1.708Z" clip-rule="evenodd"/>
</svg>
