<svg id="Layer_1" data-name="Layer 1" xmlns="http://www.w3.org/2000/svg" width="16" height="16" viewBox="0 0 16 16">
  <title>Agent</title>
  <g>
    <path d="M15,12V1H1V12H7.25v1.25H4v1.5h8v-1.5H8.75V12ZM2.125,10.93093V2.069h11.75v8.86192Z"/>
    <rect x="7.34861" y="8.5625" width="1.27782" height="1.23511"/>
    <path d="M9.59906,3.493A2.852,2.852,0,0,0,7.88483,3a2.39572,2.39572,0,0,0-1.32391.34692A2.1303,2.1303,0,0,0,5.6524,5.19128H6.9718a1.35693,1.35693,0,0,1,.22064-.73041.81574.81574,0,0,1,.74945-.35156.85017.85017,0,0,1,.7403.28534,1.06979,1.06979,0,0,1,.20239.63226.9228.9228,0,0,1-.18182.55243,1.177,1.177,0,0,1-.264.26935l-.33246.26019A1.8813,1.8813,0,0,0,7.496,6.7868a3.61189,3.61189,0,0,0-.14532,1.066H8.58789a2.02159,2.02159,0,0,1,.05933-.5387A.97956.97956,0,0,1,8.998,6.83478l.32263-.2511a3.41591,3.41591,0,0,0,.665-.63,1.65377,1.65377,0,0,0,.296-.99976A1.6863,1.6863,0,0,0,9.59906,3.493Z"/>
  </g>
</svg>
