<svg xmlns="http://www.w3.org/2000/svg" width="12" height="12" fill="currentColor" viewBox="0 0 12 12">
  <path d="M2.427 10c-.466 0-.82-.122-1.065-.365C1.121 9.392 1 9.04 1 8.58V6.322h1v2.101c0 .195.048.34.143.437.098.093.24.14.425.14h3.116v1H2.427Zm3.901 0V9h3.17a.536.536 0 0 0 .355-.14c.098-.096.147-.188.147-.383V6.322h1V8.58c0 .46-.12.813-.362 1.056-.241.243-.595.365-1.06.365h-3.25ZM10 5.678V3.58c0-.195-.05-.34-.147-.437C9.754 3.048 9.614 3 9.432 3H6.328V2h3.25c.465 0 .819.122 1.06.365.241.243.362.596.362 1.06v2.253h-1Zm-9 0V3.425c0-.466.12-.82.362-1.06C1.606 2.122 1.961 2 2.427 2h3.257v1H2.568c-.185 0-.327.048-.425.144-.095.096-.143.242-.143.437v2.097H1Zm4.916 1.14c-.298 0-.446-.128-.446-.385V6.39c0-.18.047-.33.143-.45a1.69 1.69 0 0 1 .366-.33c.174-.125.304-.228.391-.31a.406.406 0 0 0 .135-.314.41.41 0 0 0-.147-.322.538.538 0 0 0-.379-.132.602.602 0 0 0-.4.149.84.84 0 0 0-.156.182l-.059.077a.433.433 0 0 1-.151.135.445.445 0 0 1-.21.047.368.368 0 0 1-.253-.098.341.341 0 0 1-.105-.263c0-.04.003-.077.008-.114.009-.037.02-.075.034-.115.07-.2.224-.372.463-.513.238-.141.537-.212.896-.212.258 0 .493.045.703.136.213.09.385.22.514.39a.956.956 0 0 1 .193.602c0 .244-.06.437-.18.581a2.16 2.16 0 0 1-.493.416 1.854 1.854 0 0 0-.312.25.436.436 0 0 0-.126.272.117.117 0 0 1-.004.025v.026a.34.34 0 0 1-.13.225.464.464 0 0 1-.295.089Zm-.009 1.324a.545.545 0 0 1-.37-.136.446.446 0 0 1-.151-.347c0-.142.05-.258.151-.348a.535.535 0 0 1 .37-.136.53.53 0 0 1 .37.136c.102.09.152.206.152.348 0 .14-.05.257-.151.347a.535.535 0 0 1-.37.136Z"/>
</svg>
