<svg xmlns="http://www.w3.org/2000/svg" width="16" height="16" fill="currentColor" viewBox="0 0 16 16">
  <path d="M2.997 14c-.652 0-1.149-.182-1.49-.547C1.169 13.088 1 12.56 1 11.868V8.484h1.308v3.232c0 .293.067.51.2.655.138.14.336.21.596.21h4.454V14h-4.56Zm5.463 0v-1.419h4.436c.256 0 .452-.07.59-.21.137-.144.206-.363.206-.655V8.484H15v3.384c0 .692-.169 1.22-.507 1.585-.338.365-.832.547-1.485.547H8.46Zm5.232-6.484V4.284c0-.292-.069-.51-.206-.655-.138-.144-.334-.216-.59-.216H8.46V2h4.548c.653 0 1.147.182 1.485.547.338.365.507.895.507 1.59v3.38h-1.308ZM1 7.516V4.138c0-.7.169-1.23.507-1.59.341-.366.838-.548 1.49-.548h4.561v1.413H3.104c-.26 0-.458.072-.596.216-.133.144-.2.363-.2.655v3.232H1Zm6.882 1.712c-.416 0-.624-.193-.624-.579v-.064c0-.271.066-.496.2-.674.133-.178.304-.344.513-.496.243-.187.426-.342.548-.465a.63.63 0 0 0 .188-.47.63.63 0 0 0-.206-.484.723.723 0 0 0-.53-.197.793.793 0 0 0-.301.057.858.858 0 0 0-.26.165 1.24 1.24 0 0 0-.217.274l-.083.114a.622.622 0 0 1-.212.204.589.589 0 0 1-.294.07.497.497 0 0 1-.354-.146.531.531 0 0 1-.147-.395c0-.06.004-.117.011-.172.012-.055.028-.112.048-.171.098-.302.314-.558.648-.77.334-.212.752-.319 1.255-.319.361 0 .69.068.984.204.298.136.538.331.719.585.18.25.27.552.27.904 0 .365-.084.655-.253.872a3.09 3.09 0 0 1-.689.623c-.185.132-.33.257-.436.376a.676.676 0 0 0-.177.407.187.187 0 0 1-.006.038v.038a.52.52 0 0 1-.182.337.62.62 0 0 1-.413.134Zm-.012 1.985a.734.734 0 0 1-.518-.204.691.691 0 0 1-.212-.521.69.69 0 0 1 .212-.522.72.72 0 0 1 .518-.204.72.72 0 0 1 .519.204c.141.136.212.31.212.522 0 .212-.07.386-.212.521a.72.72 0 0 1-.519.204Z"/>
</svg>
