<svg xmlns="http://www.w3.org/2000/svg" viewBox="0 0 16 16"><path d="M15 12V1H1v11h6.25v1.25H4v1.5h8v-1.5H8.75V12zM2.125 10.93V2.07h11.75v8.862z"/><path d="M7.349 8.563h1.278v1.235H7.349zM9.6 3.493A2.852 2.852 0 0 0 7.884 3a2.396 2.396 0 0 0-1.324.347 2.13 2.13 0 0 0-.909 1.844h1.32a1.357 1.357 0 0 1 .22-.73.816.816 0 0 1 .75-.352.85.85 0 0 1 .74.286 1.07 1.07 0 0 1 .203.632.923.923 0 0 1-.182.552 1.177 1.177 0 0 1-.264.27l-.333.26a1.881 1.881 0 0 0-.61.678 3.612 3.612 0 0 0-.145 1.066h1.237a2.022 2.022 0 0 1 .06-.539.98.98 0 0 1 .35-.48l.323-.25a3.416 3.416 0 0 0 .665-.63 1.654 1.654 0 0 0 .296-1 1.686 1.686 0 0 0-.683-1.461z"/></svg>