<svg xmlns="http://www.w3.org/2000/svg" width="20" height="20" fill="currentColor" viewBox="0 0 20 20">
  <path d="M3.568 18c-.838 0-1.477-.243-1.916-.73C1.217 16.784 1 16.08 1 15.158v-4.513l1.507-.01v4.702c0 .39.086.681.257.874.177.186.432.28.766.28l5.902.009V18H3.568Zm7.023 0v-1.5l5.886.008c.328 0 .58-.093.757-.28.177-.192.265-.484.265-.874v-4.701L19 10.645v4.513c0 .922-.217 1.626-.651 2.112-.435.487-1.071.73-1.91.73h-5.848Zm6.886-8.645V4.646c0-.39-.089-.681-.266-.874-.176-.192-.429-.288-.757-.288l-5.863-.04V2h5.848c.839 0 1.475.243 1.91.73.434.486.651 1.193.651 2.12v4.505h-1.523ZM1 9.355V4.85c0-.933.217-1.64.652-2.12C2.09 2.243 2.73 2 3.568 2h5.864v1.443L3.53 3.5c-.334 0-.589.096-.766.288-.171.193-.257.484-.257.874v4.693H1Zm8.848 2.282c-.535 0-.803-.257-.803-.772v-.084c0-.363.086-.662.258-.9.172-.237.391-.458.66-.661.312-.25.547-.456.704-.62a.857.857 0 0 0 .242-.628.855.855 0 0 0-.265-.644c-.172-.176-.4-.263-.682-.263a.988.988 0 0 0-.386.076c-.121.05-.233.124-.334.22a1.644 1.644 0 0 0-.28.365l-.106.153a.814.814 0 0 1-.273.272.735.735 0 0 1-.378.093.627.627 0 0 1-.455-.195c-.126-.13-.19-.306-.19-.526 0-.08.006-.156.016-.23a2.25 2.25 0 0 1 .06-.228c.127-.402.404-.744.834-1.027.429-.283.967-.424 1.613-.424.465 0 .887.09 1.265.271.384.181.692.442.925.781.232.334.348.735.348 1.205 0 .486-.108.873-.325 1.162-.213.283-.508.56-.887.831a3.427 3.427 0 0 0-.56.5.918.918 0 0 0-.228.544.253.253 0 0 1-.007.05v.051a.701.701 0 0 1-.235.45.779.779 0 0 1-.53.178Zm-.015 2.647a.925.925 0 0 1-.666-.271.94.94 0 0 1-.273-.696.94.94 0 0 1 .273-.696.909.909 0 0 1 .666-.271c.263 0 .485.09.667.271a.94.94 0 0 1 .273.696.94.94 0 0 1-.273.696.909.909 0 0 1-.667.271Z"/>
</svg>
