<svg xmlns="http://www.w3.org/2000/svg" width="16" height="16" viewBox="0 0 16 16"><title>unknown-os</title><g id="Layer_1" data-name="Layer 1"><path d="M7.35,9.8H8.63V8.56H7.35ZM9.6,3.49h0A2.9,2.9,0,0,0,7.88,3a2.38,2.38,0,0,0-1.32.35,2.13,2.13,0,0,0-.91,1.84H7a1.36,1.36,0,0,1,.22-.73.83.83,0,0,1,.75-.35.85.85,0,0,1,.74.28,1.06,1.06,0,0,1,.2.64.91.91,0,0,1-.18.55,1.33,1.33,0,0,1-.26.27l-.34.26a1.91,1.91,0,0,0-.61.68,3.43,3.43,0,0,0-.14,1.06H8.59a1.66,1.66,0,0,1,.06-.54A.93.93,0,0,1,9,6.83l.32-.25A3.29,3.29,0,0,0,10,6a1.62,1.62,0,0,0,.3-1A1.67,1.67,0,0,0,9.6,3.49ZM15,12V1H1V12H7.3v1.1H4v1.8h8V13.1H8.7V12ZM2.4,10.6V2.4H13.6v8.2Z"/></g></svg>
