<svg xmlns="http://www.w3.org/2000/svg" width="12" height="12" fill="currentColor" viewBox="0 0 12 12">
  <path fill-rule="evenodd" d="M5 3.207v5.586L3.588 7.38l-.018-.018a1.397 1.397 0 0 0-.255-.216 1 1 0 0 0-.289-.12C2.91 7 2.79 7 2.694 7H2.3a4.088 4.088 0 0 1-.294-.006v-.006A4.096 4.096 0 0 1 2 6.7V5.3a4.096 4.096 0 0 1 .006-.294h.006C2.071 5 2.152 5 2.3 5h.394c.095 0 .215 0 .332-.028a1 1 0 0 0 .29-.12c.103-.063.187-.147.254-.215l.018-.018L5 3.207Zm.191-1.351a.75.75 0 0 1 .63.26c.139.164.161.36.17.456.009.107.009.24.009.375v6.106c0 .135 0 .268-.01.375a.793.793 0 0 1-.17.455.75.75 0 0 1-.629.261.793.793 0 0 1-.442-.202 4.586 4.586 0 0 1-.272-.258L2.88 8.088A3.11 3.11 0 0 0 2.79 8a3.106 3.106 0 0 0-.121 0h-.385c-.126 0-.249 0-.353-.009a1.01 1.01 0 0 1-.385-.1 1 1 0 0 1-.437-.437 1.01 1.01 0 0 1-.1-.385C1 6.965 1 6.842 1 6.716V5.284c0-.126 0-.25.008-.353.01-.114.032-.25.101-.385a1 1 0 0 1 .437-.437.987.987 0 0 1 .385-.1c.104-.01.227-.01.353-.009h.385l.122-.001h.001l.002-.002.087-.085L4.464 2.33l.013-.013c.095-.096.19-.19.272-.258a.793.793 0 0 1 .442-.202Zm4.39.238a.5.5 0 0 1 .699.114A6.473 6.473 0 0 1 11.5 6a6.473 6.473 0 0 1-1.22 3.792.5.5 0 0 1-.812-.584A5.473 5.473 0 0 0 10.5 6a5.473 5.473 0 0 0-1.032-3.208.5.5 0 0 1 .114-.698ZM7.588 3.59a.5.5 0 0 1 .696.124C8.735 4.362 9 5.15 9 6c0 .85-.265 1.638-.717 2.286a.5.5 0 0 1-.82-.572A2.984 2.984 0 0 0 8 6a2.99 2.99 0 0 0-.537-1.714.5.5 0 0 1 .124-.696Z" clip-rule="evenodd"/>
</svg>
