<svg xmlns="http://www.w3.org/2000/svg" width="16" height="16" fill="currentColor" viewBox="0 0 16 16">
  <path fill-rule="evenodd" d="M6.803 4.044v7.91L4.737 9.887l-.024-.023a1.802 1.802 0 0 0-.327-.278 1.267 1.267 0 0 0-.367-.152 1.802 1.802 0 0 0-.427-.035H2.47a5.5 5.5 0 0 1-.39-.007.56.56 0 0 1-.05-.006.067.067 0 0 1-.014-.014.565.565 0 0 1-.006-.05 5.493 5.493 0 0 1-.007-.39V7.066c0-.197 0-.308.007-.39a.566.566 0 0 1 .006-.05.067.067 0 0 1 .014-.014.566.566 0 0 1 .05-.006 5.5 5.5 0 0 1 .39-.007h1.122c.127 0 .279 0 .427-.035.13-.031.253-.082.367-.152.13-.08.237-.187.327-.277l.024-.024 2.066-2.067Zm.534-1.456a.94.94 0 0 1 .443.276c.171.201.2.444.21.57.013.14.013.314.013.496v8.138c0 .182 0 .356-.012.496-.011.126-.04.369-.211.57a.94.94 0 0 1-.443.276c-.122.037-.268.06-.41.048-.264-.02-.456-.172-.553-.254-.107-.09-.23-.213-.359-.341l-2.127-2.127a4.184 4.184 0 0 0-.133-.13.062.062 0 0 0-.012-.004l-.02-.001a4.21 4.21 0 0 0-.165-.002H2.45c-.17 0-.33 0-.467-.011a1.283 1.283 0 0 1-.488-.127 1.267 1.267 0 0 1-.554-.554 1.282 1.282 0 0 1-.127-.488 6.084 6.084 0 0 1-.01-.467V7.046c0-.17 0-.331.01-.467.012-.148.04-.318.127-.488.122-.239.316-.432.554-.554.17-.087.34-.115.488-.127.136-.011.298-.011.467-.011h1.108a4.142 4.142 0 0 0 .185-.003.067.067 0 0 0 .012-.005 4.175 4.175 0 0 0 .133-.129l2.11-2.11.017-.017c.128-.128.252-.251.36-.341.096-.081.288-.233.552-.254a1.14 1.14 0 0 1 .41.048Zm5.4.263a.6.6 0 0 1 .838.136 8.563 8.563 0 0 1 1.615 5.017 8.563 8.563 0 0 1-1.615 5.017.6.6 0 0 1-.974-.7 7.364 7.364 0 0 0 1.389-4.317 7.364 7.364 0 0 0-1.39-4.316.6.6 0 0 1 .137-.837Zm-2.495 2.024a.6.6 0 0 1 .835.15c.595.853.944 1.891.944 3.01a5.251 5.251 0 0 1-.944 3.01.6.6 0 0 1-.984-.687 4.05 4.05 0 0 0 .728-2.324c0-.865-.269-1.665-.728-2.323a.6.6 0 0 1 .149-.836Z" clip-rule="evenodd"/>
</svg>
