<svg xmlns="http://www.w3.org/2000/svg" width="20" height="20" fill="currentColor" viewBox="0 0 20 20">
  <path fill-rule="evenodd" d="M8.504 5.056v9.887L5.92 12.36l-.03-.03c-.113-.113-.246-.248-.41-.347a1.584 1.584 0 0 0-.457-.19c-.186-.045-.375-.044-.535-.044h-1.4c-.246 0-.386 0-.487-.009a.692.692 0 0 1-.063-.007.083.083 0 0 1-.018-.017.711.711 0 0 1-.007-.064 6.87 6.87 0 0 1-.01-.486V8.833c0-.246.001-.385.01-.487a.706.706 0 0 1 .007-.063.083.083 0 0 1 .018-.017.702.702 0 0 1 .063-.008c.101-.008.24-.009.486-.009H4.49c.16 0 .35.001.535-.043.162-.04.316-.103.458-.19.163-.1.296-.234.41-.347l.029-.03 2.583-2.583Zm.667-1.82c.135.041.373.134.553.345.215.25.25.555.264.712.016.175.016.393.016.62v10.172c0 .228 0 .446-.016.62-.013.158-.05.462-.264.713-.18.21-.418.304-.553.345a1.426 1.426 0 0 1-.513.06c-.329-.026-.57-.216-.69-.317a7.605 7.605 0 0 1-.45-.427L4.86 13.42a5.338 5.338 0 0 0-.166-.161.077.077 0 0 0-.015-.006 5.228 5.228 0 0 0-.232-.004H3.063c-.212 0-.413 0-.583-.014a1.6 1.6 0 0 1-.61-.158 1.583 1.583 0 0 1-.693-.692 1.603 1.603 0 0 1-.158-.61c-.014-.17-.014-.372-.014-.584V8.808c0-.212 0-.414.014-.584a1.6 1.6 0 0 1 .158-.61 1.59 1.59 0 0 1 .692-.692c.213-.108.425-.144.61-.159.17-.014.373-.014.584-.014h1.385a5.188 5.188 0 0 0 .232-.003.083.083 0 0 0 .015-.006 5.215 5.215 0 0 0 .166-.161L7.498 3.94l.02-.02c.161-.16.315-.315.45-.427.12-.102.361-.292.69-.318.178-.014.36.015.513.06Zm6.751.328a.75.75 0 0 1 1.047.17 10.704 10.704 0 0 1 2.018 6.272 10.7 10.7 0 0 1-2.018 6.271.75.75 0 0 1-1.218-.876 9.205 9.205 0 0 0 1.736-5.395 9.205 9.205 0 0 0-1.735-5.396.75.75 0 0 1 .17-1.046Zm-3.12 2.53a.75.75 0 0 1 1.044.187 6.557 6.557 0 0 1 1.18 3.762 6.556 6.556 0 0 1-1.18 3.763.75.75 0 0 1-1.23-.858c.574-.824.91-1.824.91-2.905a5.057 5.057 0 0 0-.91-2.904.75.75 0 0 1 .186-1.044Z" clip-rule="evenodd"/>
</svg>
