<svg xmlns="http://www.w3.org/2000/svg" width="16" height="16" fill="currentColor" viewBox="0 0 16 16">
  <path fill-rule="evenodd" d="M6.61 1.01a7.157 7.157 0 0 1 2.78 0 .625.625 0 0 1-.243 1.227 5.906 5.906 0 0 0-2.294 0A.625.625 0 0 1 6.61 1.01ZM4.908 2.248a.625.625 0 0 1-.172.867 5.91 5.91 0 0 0-1.622 1.622.625.625 0 0 1-1.039-.695 7.16 7.16 0 0 1 1.966-1.966.625.625 0 0 1 .867.172Zm6.184 0a.625.625 0 0 1 .867-.172 7.16 7.16 0 0 1 1.966 1.966.625.625 0 1 1-1.04.695 5.911 5.911 0 0 0-1.621-1.622.625.625 0 0 1-.172-.867Zm-9.347 3.87a.625.625 0 0 1 .492.735 5.906 5.906 0 0 0 0 2.294.625.625 0 0 1-1.226.243 7.157 7.157 0 0 1 0-2.78.625.625 0 0 1 .734-.492Zm12.51 0a.625.625 0 0 1 .734.492 7.159 7.159 0 0 1 0 2.78.625.625 0 0 1-1.226-.243 5.907 5.907 0 0 0 0-2.294.625.625 0 0 1 .492-.735ZM2.247 11.092a.625.625 0 0 1 .867.172c.43.64.981 1.193 1.622 1.622a.625.625 0 0 1-.695 1.039 7.16 7.16 0 0 1-1.966-1.966.625.625 0 0 1 .172-.867Zm11.506 0c.287.192.364.58.171.867a7.161 7.161 0 0 1-1.965 1.966.625.625 0 1 1-.695-1.04 5.912 5.912 0 0 0 1.622-1.621.625.625 0 0 1 .867-.172Zm-7.635 3.163a.625.625 0 0 1 .735-.492 5.907 5.907 0 0 0 2.294 0 .625.625 0 1 1 .243 1.226 7.159 7.159 0 0 1-2.78 0 .625.625 0 0 1-.492-.734Z" clip-rule="evenodd"/>
</svg>
