<svg xmlns="http://www.w3.org/2000/svg" width="12" height="12" fill="currentColor" viewBox="0 0 12 12">
  <path fill-rule="evenodd" d="M4.952.727a5.399 5.399 0 0 1 2.096 0 .5.5 0 0 1-.194.981 4.4 4.4 0 0 0-1.708 0 .5.5 0 1 1-.194-.98Zm3.341.941a.5.5 0 0 1 .694-.137c.586.392 1.09.896 1.482 1.482a.5.5 0 0 1-.83.557A4.402 4.402 0 0 0 8.43 2.362a.5.5 0 0 1-.137-.694Zm-4.586 0a.5.5 0 0 1-.137.694c-.478.32-.889.73-1.208 1.208a.5.5 0 1 1-.831-.557 5.402 5.402 0 0 1 1.482-1.482.5.5 0 0 1 .694.137Zm-2.392 2.89a.5.5 0 0 1 .393.588 4.4 4.4 0 0 0 0 1.708.5.5 0 1 1-.98.194 5.399 5.399 0 0 1 0-2.096.5.5 0 0 1 .587-.394Zm9.37 0a.5.5 0 0 1 .588.394 5.396 5.396 0 0 1 0 2.096.5.5 0 1 1-.981-.194 4.398 4.398 0 0 0 0-1.708.5.5 0 0 1 .393-.588Zm-.353 3.735a.5.5 0 0 1 .137.694 5.403 5.403 0 0 1-1.482 1.482.5.5 0 0 1-.557-.83c.478-.32.889-.731 1.208-1.209a.5.5 0 0 1 .694-.137Zm-8.664 0a.5.5 0 0 1 .694.137c.32.478.73.889 1.208 1.208a.5.5 0 1 1-.557.831 5.402 5.402 0 0 1-1.482-1.482.5.5 0 0 1 .137-.694Zm2.89 2.392a.5.5 0 0 1 .588-.393 4.398 4.398 0 0 0 1.708 0 .5.5 0 0 1 .194.98 5.396 5.396 0 0 1-2.096 0 .5.5 0 0 1-.394-.587Z" clip-rule="evenodd"/>
</svg>
