<svg xmlns="http://www.w3.org/2000/svg" width="20" height="20" fill="currentColor" viewBox="0 0 20 20">
  <path fill-rule="evenodd" d="M8.269 1.294a8.915 8.915 0 0 1 3.462 0 .75.75 0 1 1-.29 1.471 7.414 7.414 0 0 0-2.881 0 .75.75 0 1 1-.291-1.471Zm-2.16 1.532a.75.75 0 0 1-.206 1.04 7.42 7.42 0 0 0-2.036 2.037.75.75 0 0 1-1.247-.835A8.92 8.92 0 0 1 5.068 2.62a.75.75 0 0 1 1.04.206Zm7.782 0a.75.75 0 0 1 1.04-.206 8.92 8.92 0 0 1 2.449 2.448.75.75 0 0 1-1.247.835 7.418 7.418 0 0 0-2.036-2.036.75.75 0 0 1-.206-1.04ZM2.175 7.68a.75.75 0 0 1 .59.88 7.415 7.415 0 0 0 0 2.881.75.75 0 1 1-1.471.291 8.914 8.914 0 0 1 0-3.462.75.75 0 0 1 .881-.59Zm15.65 0a.75.75 0 0 1 .881.59 8.914 8.914 0 0 1 0 3.462.75.75 0 1 1-1.471-.29 7.416 7.416 0 0 0 0-2.881.75.75 0 0 1 .59-.881ZM2.826 13.89a.75.75 0 0 1 1.04.206 7.418 7.418 0 0 0 2.037 2.036.75.75 0 0 1-.835 1.247 8.92 8.92 0 0 1-2.448-2.448.75.75 0 0 1 .206-1.04Zm14.348 0a.75.75 0 0 1 .206 1.04 8.92 8.92 0 0 1-2.448 2.449.75.75 0 0 1-.835-1.247 7.418 7.418 0 0 0 2.036-2.036.75.75 0 0 1 1.04-.206Zm-9.495 3.934a.75.75 0 0 1 .88-.59 7.417 7.417 0 0 0 2.881 0 .75.75 0 0 1 .291 1.471 8.913 8.913 0 0 1-3.462 0 .75.75 0 0 1-.59-.881Z" clip-rule="evenodd"/>
</svg>
