<svg xmlns="http://www.w3.org/2000/svg" width="20" height="20" fill="currentColor" viewBox="0 0 20 20">
  <path fill-rule="evenodd" d="M5.343 8.88 4.266 9.957a5.734 5.734 0 0 1 8.861-4.765.75.75 0 0 0 .82-1.256 7.234 7.234 0 0 0-11.18 6.022L1.687 8.88a.75.75 0 1 0-1.06 1.061l2.357 2.358a.75.75 0 0 0 1.06 0L6.405 9.94a.75.75 0 1 0-1.06-1.06Zm1.53 5.927a5.734 5.734 0 0 0 8.861-4.765l-1.078 1.077a.75.75 0 0 1-1.06-1.06L15.953 7.7a.75.75 0 0 1 1.061 0l2.358 2.358a.75.75 0 1 1-1.06 1.06l-1.078-1.077a7.234 7.234 0 0 1-11.18 6.022.75.75 0 1 1 .819-1.257Z" clip-rule="evenodd"/>
</svg>
