<svg xmlns="http://www.w3.org/2000/svg" width="12" height="12" fill="currentColor" viewBox="0 0 12 12">
  <path fill-rule="evenodd" d="m3.17 5.293-.557.557a3.39 3.39 0 0 1 5.236-2.693.5.5 0 1 0 .546-.837 4.39 4.39 0 0 0-6.783 3.536l-.564-.563A.5.5 0 1 0 .341 6l1.415 1.414a.5.5 0 0 0 .707 0L3.878 6a.5.5 0 0 0-.707-.707Zm.981 3.55A3.39 3.39 0 0 0 9.387 6.15l-.558.557A.5.5 0 1 1 8.122 6l1.415-1.415a.5.5 0 0 1 .707 0L11.659 6a.5.5 0 1 1-.707.707l-.564-.563A4.39 4.39 0 0 1 3.605 9.68a.5.5 0 0 1 .546-.838Z" clip-rule="evenodd"/>
</svg>
