<svg xmlns="http://www.w3.org/2000/svg" width="100" height="100" viewBox="0 0 100 100">
  <g>
    <path d="M80.55548,41.66668V80.55555H19.44442V41.66668H80.55548m8.33334-8.33334H11.11108V88.8889H88.88882V33.33334Z"/>
    <polygon points="83.333 27.778 16.667 27.778 22.222 22.222 77.778 22.222 83.333 27.778"/>
    <polygon points="72.222 16.667 27.778 16.667 33.333 11.111 66.667 11.111 72.222 16.667"/>
    <polygon points="33.333 61.111 44.444 50.202 44.444 50 39.098 50 33.67 55.25 27.778 61.111 38.889 72.222 44.444 72.222 44.444 71.792 33.333 61.111"/>
    <polygon points="66.667 61.111 55.556 50.202 55.556 50 60.902 50 66.33 55.25 72.222 61.111 61.111 72.222 55.556 72.222 55.556 71.792 66.667 61.111"/>
  </g>
</svg>
