<svg xmlns="http://www.w3.org/2000/svg" viewBox="0 0 100 100">
  <path d="M8.32587,76.123A15.64182,15.64182,0,0,1,5.55556,67.2838a16.12462,16.12462,0,0,1,.29772-3.07753,44.15709,44.15709,0,0,0,4.8818.80566l.02848.00373a49.06306,49.06306,0,0,0,5.268.28415q1.32141,0,2.6079-.06816c.18005-.00983.35265-.03018.53134-.04171.6741-.04272,1.34616-.08918,2.00263-.15835.16547-.01729.32281-.0451.48692-.06409.66359-.077,1.32345-.159,1.96567-.26245.1041-.01662.20209-.03967.30551-.057.69512-.11664,1.38109-.24312,2.04739-.38927.04578-.00983.0885-.02265.13428-.03289.71818-.16,1.42076-.33468,2.102-.5266l.01255-.00373a30.5768,30.5768,0,0,0,5.83564-2.27424l.00034-.00034c.039.09833.09732.04747.16717-.09393,4.34435-2.31764,6.9085-6.00891,6.88036-9.47537-.01255-1.50282-.14208-5.07914,0-12.65428,0-3.08634-5.92617-12.68514-5.92617-18.20984C35.18507,12.46474,41.8179,5.55556,50,5.55556s14.81493,6.90918,14.81493,15.43206c0,5.53555-5.92617,15.12349-5.92617,18.20984.14106,7.57887-.01221,11.13349,0,12.65428.02848,3.43085,2.5923,7.09127,6.89528,9.40179.07256.14716.13258.19769.17327.09664a30.74437,30.74437,0,0,0,5.88616,2.31018l.02916.00882c.67885.1926,1.378.36757,2.09283.52829.05968.01356.11631.03018.17632.0434.667.14682,1.35261.27466,2.04739.39232.11258.019.21973.04374.333.06205.64426.1041,1.30547.18751,1.97076.2655.1709.02.33569.04849.50795.06646.66766.07087,1.34989.11936,2.03518.16276.17429.01085.34281.0312.51846.04035q1.295.06816,2.62553.06951a49.1009,49.1009,0,0,0,5.16764-.27161l.00339-.00034a44.14534,44.14534,0,0,0,4.80008-.77481,16.089,16.089,0,0,1,.29331,3.03073A15.64182,15.64182,0,0,1,91.67413,76.123Zm1.97381,3.90049a1.94088,1.94088,0,0,0-.29975,1.14916v3.08668a4.55314,4.55314,0,0,0,4.44438,4.62952H85.55569a4.55314,4.55314,0,0,0,4.44438-4.62952V81.17269a1.93842,1.93842,0,0,0-.29975-1.14916Z"/>
</svg>
