<svg xmlns="http://www.w3.org/2000/svg" width="100" height="100" viewBox="0 0 100 100">
  <path d="M88.88889,19.44444A13.88905,13.88905,0,1,0,70.83333,32.62668V55.09576c0,10.94293-17.61169,17.63373-33.0329,20.06327a13.878,13.878,0,0,0-8.63376-7.78571V32.62668a13.88905,13.88905,0,1,0-8.33333,0V67.37332A13.85086,13.85086,0,1,0,38.72816,82.14857c19.27762-3.07549,40.4385-12.07547,40.4385-26.87073V32.62668A13.84161,13.84161,0,0,0,88.88889,19.44444ZM25,86.11111a5.56279,5.56279,0,0,1-5.55556-5.55556,5.47078,5.47078,0,0,1,1.38889-3.56988h0a5.837,5.837,0,0,1,1.76561-1.3855c.0312-.01526.05358-.04272.08511-.05764A5.22906,5.22906,0,0,1,25,75a5.56279,5.56279,0,0,1,5.55556,5.55556,5.40225,5.40225,0,0,1-.33841,1.67067,7.02451,7.02451,0,0,1-.40927.9491A5.499,5.499,0,0,1,25,86.11111ZM75,25a5.55556,5.55556,0,1,1,5.55556-5.55556A5.56279,5.56279,0,0,1,75,25Z"/>
</svg>
