<svg xmlns="http://www.w3.org/2000/svg" width="12" height="12" fill="currentColor" viewBox="0 0 12 12">
  <g class="user-hourglass-12 px">
    <path fill-rule="evenodd" d="M7.8 6.8v.411a.857.857 0 0 0 .054.05l.017.015.652.6a.8.8 0 0 1 0 1.178l-.653.6-.016.015a3.367 3.367 0 0 0-.054.05v.411h2.387v-.41a.992.992 0 0 0-.053-.05l-.018-.016-.652-.6a.8.8 0 0 1 0-1.178l.653-.6.016-.015a3.632 3.632 0 0 0 .054-.05V6.8H7.8Zm3.062.847a1.15 1.15 0 0 1-.188.203l-.016.015-.652.6.652.6.016.015c.063.057.135.123.188.203.047.07.081.146.102.226a.995.995 0 0 1 .023.266v.467c0 .05 0 .108-.004.158a.538.538 0 0 1-.063.218.6.6 0 0 1-.272.25.666.666 0 0 1-.237.058c-.054.004-.117.004-.172.004h-2.49c-.056 0-.118 0-.173-.004a.666.666 0 0 1-.237-.058m0 0a.599.599 0 0 1-.271-.25.538.538 0 0 1-.064-.218C7 10.35 7 10.293 7 10.242v-.466c0-.082 0-.175.024-.267a.748.748 0 0 1 .101-.226c.054-.08.126-.146.188-.203l.016-.015.653-.6-.653-.6-.016-.015a1.151 1.151 0 0 1-.188-.203.748.748 0 0 1-.101-.226C7 7.329 7 7.236 7 7.155v-.467c0-.05 0-.108.004-.158a.538.538 0 0 1 .064-.218.598.598 0 0 1 .271-.25.669.669 0 0 1 .237-.058C7.631 6 7.693 6 7.748 6h2.491c.055 0 .118 0 .172.004a.669.669 0 0 1 .237.058.6.6 0 0 1 .272.25.54.54 0 0 1 .063.218c.004.05.004.108.004.158v.466c0 .082 0 .175-.023.267a.748.748 0 0 1-.102.226" class="secondary" clip-rule="evenodd"/>
    <path fill-rule="evenodd" d="M6 6.39c-.36 0-.692.027-.998.08-2.59.44-3.316 2.587-3.519 3.755-.072.417.264.76.687.76H6v-1H2.557c.129-.492.357-1.053.754-1.521C3.789 7.9 4.579 7.389 6 7.389v-1ZM3.702 3.324A2.299 2.299 0 0 0 6 5.623a2.299 2.299 0 1 0-2.298-2.298Zm3.596 0a1.298 1.298 0 1 1-2.596 0 1.298 1.298 0 0 1 2.596 0Z" class="Subtract" clip-rule="evenodd"/>
  </g>
</svg>
