<svg xmlns="http://www.w3.org/2000/svg" width="16" height="16" fill="currentColor" viewBox="0 0 16 16">
  <path fill-rule="evenodd" d="M3.527 12.77h8.947c-.164-.647-.461-1.394-.988-2.015C10.864 10.02 9.838 9.359 8 9.359c-1.837 0-2.863.661-3.486 1.396-.526.62-.823 1.368-.987 2.015Zm-1.336.273c.292-1.68 1.424-4.934 5.81-4.934 4.385 0 5.516 3.254 5.808 4.934.093.536-.34.977-.883.977H3.074c-.544 0-.977-.441-.884-.977ZM8 5.742a1.75 1.75 0 1 0 0-3.5 1.75 1.75 0 0 0 0 3.5Zm0 1.25a3 3 0 1 0 0-6 3 3 0 0 0 0 6Z" clip-rule="evenodd"/>
</svg>
