<svg xmlns="http://www.w3.org/2000/svg" viewBox="0 0 16 16"><path class="secondary" d="M15.816 15.04l-4.764-7.968a.643.643 0 0 0-1.103 0L5.185 15.04a.634.634 0 0 0 .545.96h9.542a.634.634 0 0 0 .544-.96zm-5.259-.33a.624.624 0 1 1 .624-.623.624.624 0 0 1-.624.623zm.63-4.89l-.166 2.257a.479.479 0 0 1-.95 0L9.904 9.82a.619.619 0 0 1 .597-.645.631.631 0 0 1 .687.561.625.625 0 0 1 0 .084z"/><path d="M6.562.875a3.69 3.69 0 1 0 0 7.382 3.651 3.651 0 0 0 1.807-.492l.722-1.206a1.624 1.624 0 0 1 .922-.72A3.662 3.662 0 0 0 6.562.875zM0 13.647A2.388 2.388 0 0 0 .028 14h4.614l2.733-4.572H4.218A4.23 4.23 0 0 0 0 13.647z"/></svg>