<svg xmlns="http://www.w3.org/2000/svg" width="16" height="16" viewBox="0 0 16 16"><g><path d="M7,0A3.93,3.93,0,0,0,6,7.72,6,6,0,0,1,10.77,5a3.8,3.8,0,0,0,.17-1.07A3.93,3.93,0,0,0,7,0ZM5.3,9.12H4.5A4.52,4.52,0,0,0,0,13.62,2.34,2.34,0,0,0,0,14H5.81A6,6,0,0,1,5,11,6.17,6.17,0,0,1,5.3,9.12Z"/><path class="secondary" d="M14.54,7.46a5,5,0,1,0,0,7.08A5,5,0,0,0,14.54,7.46Zm-.71,6.37a4,4,0,1,1,0-5.66A4,4,0,0,1,13.83,13.83ZM12.89,8.2,11,10.09,9.11,8.2l-.91.91L10.09,11,8.2,12.89l.91.91L11,11.91l1.89,1.89.91-.91L11.91,11,13.8,9.11Z"/></g></svg>