<svg xmlns="http://www.w3.org/2000/svg" width="12" height="12" fill="currentColor" viewBox="0 0 12 12">
  <g class="user-filled-warning-12px">
    <path fill-rule="evenodd" d="M8.336 5.788c.131.059.212.16.26.229.049.067.099.154.15.241l.006.012 2.063 3.563c.051.088.101.175.136.25a.648.648 0 0 1 .068.341.625.625 0 0 1-.254.44.647.647 0 0 1-.329.113c-.082.007-.183.007-.284.007h-4.14c-.101 0-.202 0-.284-.007a.647.647 0 0 1-.33-.112.625.625 0 0 1-.254-.44.647.647 0 0 1 .068-.342c.035-.075.086-.162.137-.25l.006-.012 2.056-3.55.007-.013a3.03 3.03 0 0 1 .149-.241.647.647 0 0 1 .261-.229.625.625 0 0 1 .508 0ZM8.082 7.36c.207 0 .375.168.375.375v1a.375.375 0 0 1-.75 0v-1c0-.207.168-.375.375-.375Zm-.375 2.375c0-.208.168-.375.375-.375h.002a.375.375 0 1 1 0 .75h-.002a.375.375 0 0 1-.375-.375Z" class="secondary" clip-rule="evenodd"/>
    <path fill-rule="evenodd" d="M6 6.39c-.36 0-.692.027-.998.08-2.59.44-3.316 2.587-3.519 3.755-.072.417.264.76.687.76h1.341l.582-1H2.557c.129-.492.357-1.053.754-1.521.43-.508 1.114-.973 2.283-1.06l.588-1.012A6.728 6.728 0 0 0 6 6.389ZM3.702 3.324A2.299 2.299 0 0 0 6 5.623a2.299 2.299 0 1 0-2.298-2.298Zm3.596 0a1.298 1.298 0 1 1-2.596 0 1.298 1.298 0 0 1 2.596 0Z" class="Subtract" clip-rule="evenodd"/>
  </g>
</svg>
