<svg xmlns="http://www.w3.org/2000/svg" width="12" height="12" fill="currentColor" viewBox="0 0 12 12">
  <path class="secondary" fill-rule="evenodd" d="M8.39 6.516a1.875 1.875 0 1 0 0 3.75 1.875 1.875 0 0 0 0-3.75ZM5.763 8.39a2.625 2.625 0 1 1 5.25 0 2.625 2.625 0 0 1-5.25 0Zm1.685-.94a.375.375 0 0 1 .53 0l.41.41.41-.41a.375.375 0 1 1 .53.53l-.41.41.41.41a.375.375 0 0 1-.53.53l-.41-.41-.41.41a.375.375 0 1 1-.53-.53l.41-.41-.41-.41a.375.375 0 0 1 0-.53Z" clip-rule="evenodd"/>
  <path fill-rule="evenodd" d="M6.183 10.982a3.512 3.512 0 0 1-.785-1h-2.84c.128-.492.356-1.053.753-1.52.368-.435.921-.838 1.805-1 .102-.385.267-.743.484-1.064-3.08.19-3.9 2.571-4.117 3.824-.072.417.264.76.687.76h4.013ZM6 4.623a1.298 1.298 0 1 0 0-2.596 1.298 1.298 0 0 0 0 2.596Zm0 1a2.298 2.298 0 1 0 0-4.596 2.298 2.298 0 0 0 0 4.596Z" clip-rule="evenodd"/>
</svg>
