<svg xmlns="http://www.w3.org/2000/svg" width="20" height="20" fill="currentColor" viewBox="0 0 20 20">
  <g class="user-hourglass-20 px">
    <path fill-rule="evenodd" d="M10 10.189c-.414 0-.806.021-1.177.063-4.857.54-6.18 4.418-6.54 6.49-.124.713.45 1.3 1.173 1.3H11v-1.5H3.853c.21-.918.618-2.028 1.393-2.943.859-1.013 2.267-1.91 4.754-1.91.355 0 .688.018 1 .052v-1.507a10.84 10.84 0 0 0-1-.045ZM6.074 4.954a3.928 3.928 0 0 0 4.991 3.78A3.928 3.928 0 0 0 10 1.027a3.926 3.926 0 0 0-3.926 3.927Zm6.352 0a2.426 2.426 0 1 1-4.852 0 2.426 2.426 0 0 1 4.852 0Z" class="Subtract" clip-rule="evenodd"/>
    <path fill-rule="evenodd" d="m13.15 10.333.008 1.277v.153l.026.028.068.073.03.033 1.187 1.236c.289.307.41.41.41.863 0 .454-.121.662-.41.969l-1.182 1.237-.028.03a7.74 7.74 0 0 0-.095.102v.155l-.008 1.261 4.606.008-.02-1.288v-.153a2.092 2.092 0 0 0-.026-.029c-.02-.02-.04-.042-.068-.073l-.03-.032-1.184-1.242c-.29-.307-.399-.487-.399-.941 0-.454.121-.556.41-.863l1.194-1.245.028-.03a5.886 5.886 0 0 0 .095-.102v-.156l.002-1.26-4.615-.01Zm5.63 2.008c-.094.163-.22.296-.33.412l-.028.03L17.277 14l1.145 1.217.028.03c.11.116.236.25.33.412.082.142.142.297.179.459.042.186.041.375.04.54v.946c0 .103 0 .22-.007.321a1.225 1.225 0 0 1-.111.442 1.127 1.127 0 0 1-.476.507 1.045 1.045 0 0 1-.416.118c-.096.008-.206.008-.303.008h-4.372c-.097 0-.207 0-.303-.008a1.06 1.06 0 0 1-.416-.118m0 0a1.127 1.127 0 0 1-.476-.507 1.225 1.225 0 0 1-.111-.442 4.35 4.35 0 0 1-.008-.321v-.947c0-.164 0-.354.041-.54a1.64 1.64 0 0 1 .179-.458c.094-.163.22-.296.33-.412l.028-.03L13.723 14l-1.145-1.217-.028-.03a2.24 2.24 0 0 1-.33-.412 1.64 1.64 0 0 1-.179-.459c-.042-.185-.041-.375-.041-.54v-.946c0-.103 0-.22.008-.321a1.132 1.132 0 0 1 .587-.949c.156-.084.307-.108.416-.118.096-.008.206-.008.303-.008h4.372c.097 0 .207 0 .303.008.11.01.26.034.416.118.205.111.371.289.476.507.08.166.102.325.111.442.008.102.008.218.008.321v.946c0 .165 0 .354-.041.54a1.64 1.64 0 0 1-.179.459" class="secondary" clip-rule="evenodd"/>
  </g>
</svg>
