<svg id="Layer_1" data-name="Layer 1" xmlns="http://www.w3.org/2000/svg" viewBox="0 0 16 16"><title>User_Cancelled</title><path d="M11.19,7a3.64,3.64,0,1,0,3.64,3.64A3.64,3.64,0,0,0,11.19,7Zm2.22,5.11-.74.75L11.19,11.4,9.71,12.88,9,12.13l1.48-1.47L9,9.18l.74-.74,1.48,1.48,1.48-1.48.74.74-1.48,1.48Z"/><path d="M6.56.88a3.69,3.69,0,0,0,0,7.38,3.68,3.68,0,0,0,.58-.06A4.73,4.73,0,0,1,9.91,6.1a3.76,3.76,0,0,0,.34-1.53A3.69,3.69,0,0,0,6.56.88Zm.05,8.55H4.22A4.23,4.23,0,0,0,0,13.65,2,2,0,0,0,0,14H7.81a4.74,4.74,0,0,1-1.38-3.34A4.94,4.94,0,0,1,6.61,9.43Z"/></svg>