<svg xmlns="http://www.w3.org/2000/svg" width="16" height="16" fill="currentColor" viewBox="0 0 16 16">
  <g class="user-filled-warning">
    <path fill-rule="evenodd" d="M11.439 8.072a.862.862 0 0 1 .348.304c.063.09.13.206.198.323l.01.016 2.75 4.75c.067.117.135.233.18.334a.862.862 0 0 1 .092.454.833.833 0 0 1-.34.588.863.863 0 0 1-.438.149 4.5 4.5 0 0 1-.38.01H8.341c-.136 0-.27 0-.38-.01a.863.863 0 0 1-.439-.15.833.833 0 0 1-.339-.587.863.863 0 0 1 .091-.454c.047-.1.114-.217.182-.334l.009-.016 2.74-4.734.01-.016c.068-.117.135-.233.198-.323a.863.863 0 0 1 .348-.304.833.833 0 0 1 .678 0Zm-.339 2.096a.5.5 0 0 1 .5.5V12a.5.5 0 1 1-1 0v-1.333a.5.5 0 0 1 .5-.5Zm-.5 3.166a.5.5 0 0 1 .5-.5h.003a.5.5 0 0 1 0 1H11.1a.5.5 0 0 1-.5-.5Z" class="secondary" clip-rule="evenodd"/>
    <path fill-rule="evenodd" d="M9.75 3.992a1.75 1.75 0 1 1-3.5 0 1.75 1.75 0 0 1 3.5 0Zm1.25 0a3 3 0 1 1-6 0 3 3 0 0 1 6 0ZM8 8.11c.481 0 .923.04 1.328.111l-.675 1.17A6.881 6.881 0 0 0 8 9.36c-1.837 0-2.863.66-3.486 1.395-.526.62-.823 1.368-.987 2.015h3.175l-.722 1.25H3.075c-.544 0-.977-.441-.884-.977.292-1.68 1.424-4.934 5.81-4.934Z" class="Union" clip-rule="evenodd"/>
  </g>
</svg>
