<svg xmlns="http://www.w3.org/2000/svg" width="12" height="12" fill="currentColor" viewBox="0 0 12 12">
  <path fill-rule="evenodd" d="M5.002 6.47c.306-.053.638-.08.998-.08s.692.027.998.08c2.59.44 3.316 2.587 3.519 3.755.072.417-.264.76-.687.76H2.17c-.423 0-.76-.343-.687-.76.203-1.168.928-3.315 3.519-3.756Zm.105-1.027a2.299 2.299 0 1 1 .893.18 2.29 2.29 0 0 1-.893-.18ZM6 4.623a1.298 1.298 0 1 0 0-2.596 1.298 1.298 0 0 0 0 2.596ZM2.557 9.985h6.885c-.128-.492-.356-1.053-.753-1.521C8.211 7.9 7.421 7.389 6 7.389c-1.42 0-2.21.51-2.688 1.075-.397.468-.625 1.029-.754 1.52Z" clip-rule="evenodd"/>
</svg>
