<svg id="Layer_1" data-name="Layer 1" xmlns="http://www.w3.org/2000/svg" viewBox="0 0 16 16"><title>User_Successful</title><path class="secondary" d="M11.19,7a3.64,3.64,0,1,0,3.64,3.64A3.64,3.64,0,0,0,11.19,7Zm-.7,5.82L8.31,10.65l.75-.75,1.43,1.43,2.77-2.77.75.75Z"/><path d="M6.56.88a3.69,3.69,0,0,0,0,7.38,3.68,3.68,0,0,0,.58-.06A4.73,4.73,0,0,1,9.91,6.1a3.76,3.76,0,0,0,.34-1.53A3.69,3.69,0,0,0,6.56.88Zm.05,8.55H4.22A4.23,4.23,0,0,0,0,13.65,2,2,0,0,0,0,14H7.81a4.74,4.74,0,0,1-1.38-3.34A4.94,4.94,0,0,1,6.61,9.43Z"/></svg>