<svg xmlns="http://www.w3.org/2000/svg" width="20" height="20" fill="currentColor" viewBox="0 0 20 20">
  <path fill-rule="evenodd" d="M9.74 10.146c-.415 0-.807.021-1.178.063-4.857.54-6.18 4.418-6.54 6.49-.124.713.45 1.3 1.174 1.3h6.746a5.743 5.743 0 0 1-.85-1.5h-5.5c.21-.918.618-2.028 1.393-2.943.824-.971 2.153-1.836 4.453-1.906a5.776 5.776 0 0 1 1.171-1.47 10.946 10.946 0 0 0-.87-.034ZM5.812 4.91a3.928 3.928 0 0 0 3.926 3.926 3.928 3.928 0 0 0 0-7.852A3.926 3.926 0 0 0 5.813 4.91Zm6.352 0a2.426 2.426 0 1 1-4.852 0 2.426 2.426 0 0 1 4.852 0Z" clip-rule="evenodd"/>
  <path class="secondary" fill-rule="evenodd" d="M10 14.494A4.494 4.494 0 0 1 14.494 10a.75.75 0 0 1 0 1.5 2.994 2.994 0 1 0 2.994 2.994.75.75 0 0 1 1.5 0 4.494 4.494 0 0 1-8.988 0Z" clip-rule="evenodd"/>
</svg>
