<svg xmlns="http://www.w3.org/2000/svg" width="16" height="16" fill="currentColor" viewBox="0 0 16 16">
  <g class="user-hourglass">
    <path fill-rule="evenodd" d="M8 5.742a1.75 1.75 0 1 0 0-3.5 1.75 1.75 0 0 0 0 3.5Zm0 1.25a3 3 0 1 0 0-6 3 3 0 0 0 0 6Z" class="Ellipse 619 (Stroke)" clip-rule="evenodd"/>
    <path fill-rule="evenodd" d="M9.001 8.151a7.904 7.904 0 0 0-1-.061c-4.386 0-5.518 3.254-5.81 4.933-.093.536.34.977.884.977h5.926v-1.25H3.527c.164-.647.46-1.394.987-2.015C5.137 10.001 6.163 9.34 8 9.34c.365 0 .697.026 1.001.073V8.151Z" class="Subtract" clip-rule="evenodd"/>
    <path fill-rule="evenodd" d="M11.003 9.136v.583a1.05 1.05 0 0 0 .067.07l.022.023.818.852c.206.215.324.518.324.836 0 .318-.118.62-.324.836l-.819.853-.02.02a2.965 2.965 0 0 0-.067.072v.583h2.993v-.583a1.206 1.206 0 0 0-.067-.07l-.022-.023-.818-.852a1.21 1.21 0 0 1-.324-.836c0-.318.118-.62.324-.836l.819-.853.02-.02a3.506 3.506 0 0 0 .067-.072v-.583h-2.993Zm3.84 1.202a1.571 1.571 0 0 1-.236.29l-.02.02-.818.852.818.852.02.02c.079.082.169.175.236.29.058.099.101.207.127.32.03.13.03.263.03.378v.663c0 .072 0 .154-.006.225a.795.795 0 0 1-.42.664.758.758 0 0 1-.296.082c-.069.006-.147.006-.216.006h-3.123c-.07 0-.148 0-.217-.006a.758.758 0 0 1-.297-.082m0 0a.795.795 0 0 1-.42-.664C10 14.177 10 14.095 10 14.023v-.663c0-.115 0-.248.03-.378.026-.113.069-.221.127-.32.067-.115.157-.208.236-.29l.02-.02.818-.852-.818-.852-.02-.02a1.571 1.571 0 0 1-.236-.29 1.136 1.136 0 0 1-.127-.32C10 9.888 10 9.755 10 9.64v-.663c0-.072 0-.153.006-.225a.795.795 0 0 1 .42-.664.76.76 0 0 1 .296-.082C10.791 8 10.87 8 10.938 8h3.123c.07 0 .148 0 .217.006a.76.76 0 0 1 .637.437.842.842 0 0 1 .08.31c.005.07.005.152.005.224v.663c0 .115 0 .248-.03.378a1.138 1.138 0 0 1-.127.32" class="secondary" clip-rule="evenodd"/>
  </g>
</svg>
