<svg xmlns="http://www.w3.org/2000/svg" width="16" height="16" viewBox="0 0 16 16"><title> user-hourglass</title><g id="Layer_1" data-name="Layer 1"><path d="M8.87,9.12H4.5A4.52,4.52,0,0,0,0,13.62,2.34,2.34,0,0,0,0,14H8.65a4.13,4.13,0,0,1,1.48-3A4.21,4.21,0,0,1,8.87,9.12ZM7,7.88a4,4,0,0,0,1.62-.36V5h2.16a4.12,4.12,0,0,0,.16-1.06A3.94,3.94,0,1,0,7,7.88Z"/><path class="secondary" d="M12.81,11A3.21,3.21,0,0,0,9.62,14.2V16H16V14.2A3.2,3.2,0,0,0,12.81,11ZM15,15H10.62v-.8a2.19,2.19,0,0,1,4.38,0ZM9.62,6v1.8c0,.06,0,.12,0,.18h0a3.16,3.16,0,0,0,.6,1.68h0a3,3,0,0,0,.37.43l.07.06a2.88,2.88,0,0,0,.39.3l.18.1a3.65,3.65,0,0,0,.34.18l.32.1.26.08a3.36,3.36,0,0,0,.63.06h0a3.21,3.21,0,0,0,.63-.06l.26-.08.32-.1a3.84,3.84,0,0,0,.35-.18,1,1,0,0,0,.17-.1,2.88,2.88,0,0,0,.39-.3l.07-.06a3.08,3.08,0,0,0,.38-.43h0A3.16,3.16,0,0,0,16,8h0c0-.06,0-.12,0-.18V6ZM15,7.82A1.1,1.1,0,0,1,15,8H10.64c0-.06,0-.12,0-.18V7H15Z"/></g></svg>