<svg id="Layer_1" data-name="Layer 1" xmlns="http://www.w3.org/2000/svg" width="16" height="16" viewBox="0 0 16 16">
  <title>User Waiting</title>
  <path d="M6.56158.875a3.6909,3.6909,0,1,0,1.48,7.06824A.98613.98613,0,0,1,7.9295,7.4986V6.03748a1,1,0,0,1,1-1H10.205a3.641,3.641,0,0,0,.04755-.47162A3.69089,3.69089,0,0,0,6.56158.875ZM4.21814,9.42847A4.23059,4.23059,0,0,0,0,13.64667,2.38777,2.38777,0,0,0,.02789,14H8.4375v-.32239l.00616-.00586v-.68555a2.67379,2.67379,0,0,1,.88025-1.96411,2.698,2.698,0,0,1-.8407-1.59363Z"/>
  <path d="M15.86166,6.03748H8.9295v1.4611h.51417V9.05835A1.82523,1.82523,0,0,0,10.506,10.64247l.71807.37978-.71843.38a1.82517,1.82517,0,0,0-1.062,1.58395v1.55983H8.9295V16h7.08V14.54606h-.51411V12.98622a1.82521,1.82521,0,0,0-1.06244-1.58413l-.71807-.37984.71843-.38a1.824,1.824,0,0,0,1.06208-1.58611V7.49858h.51411V6.03748ZM14.1714,12.985v1.561H10.76756V12.98622a.75007.75007,0,0,1,.44412-.64333l1.25786-.66335,1.25762.66227A.75.75,0,0,1,14.1714,12.985ZM10.76756,8.34375V7.49858H14.1714v.84517Z"/>
</svg>
