<svg xmlns="http://www.w3.org/2000/svg" width="16" height="16" fill="currentColor" viewBox="0 0 16 16">
  <g class="user-filled-alert">
    <path fill-rule="evenodd" d="M8 11.5a3.5 3.5 0 1 1 7 0 3.5 3.5 0 0 1-7 0Zm3.5-1.7a.5.5 0 0 1 .5.5v1.2a.5.5 0 0 1-1 0v-1.2a.5.5 0 0 1 .5-.5Zm-.5 2.9a.5.5 0 0 1 .5-.5h.003a.5.5 0 0 1 0 1H11.5a.5.5 0 0 1-.5-.5Z" class="secondary" clip-rule="evenodd"/>
    <path fill-rule="evenodd" d="M8 8.106a7.8 7.8 0 0 0-1.204.09c-3.396.536-4.341 3.33-4.605 4.844-.093.536.34.977.884.977h4.7a4.48 4.48 0 0 1-.582-1.25H3.527c.164-.647.46-1.394.987-2.015.571-.674 1.482-1.286 3.047-1.382a4.52 4.52 0 0 1 .998-1.245A8.317 8.317 0 0 0 8 8.106Zm-2.955-3.94A2.956 2.956 0 0 0 8 7.121a2.956 2.956 0 1 0-2.955-2.955Zm4.66 0a1.705 1.705 0 1 1-3.41 0 1.705 1.705 0 0 1 3.41 0Z" class="Subtract" clip-rule="evenodd"/>
  </g>
</svg>
