<svg xmlns="http://www.w3.org/2000/svg" width="12" height="12" fill="currentColor" viewBox="0 0 12 12">
  <g class="user-loading-12px">
    <path fill-rule="evenodd" d="M5.9 8.592A2.592 2.592 0 0 1 8.492 6a.4.4 0 0 1 0 .8 1.792 1.792 0 1 0 1.792 1.792.4.4 0 0 1 .8 0 2.592 2.592 0 1 1-5.184 0Z" class="secondary" clip-rule="evenodd"/>
    <path fill-rule="evenodd" d="M7.298 3.325a1.298 1.298 0 1 1-2.596 0 1.298 1.298 0 0 1 2.596 0Zm1 0a2.298 2.298 0 1 1-4.596 0 2.298 2.298 0 0 1 4.596 0Zm-2.9 6.657c.2.38.466.719.785 1H2.17c-.423 0-.76-.343-.687-.76C1.701 8.97 2.52 6.588 5.6 6.398c-.217.321-.382.68-.484 1.064-.884.162-1.437.565-1.805 1-.397.467-.625 1.028-.754 1.52h2.841Z" class="Union" clip-rule="evenodd"/>
  </g>
</svg>
