<svg xmlns="http://www.w3.org/2000/svg" width="16" height="16" viewBox="0 0 16 16"><title>user-warning</title><g id="Layer_1" data-name="Layer 1"><path class="secondary" d="M15.88,14.78,11.08,6.7a.66.66,0,0,0-1.14,0L5.11,14.83c-.26.44-.05,1.17.46,1.17h9.88C16,16,16.14,15.22,15.88,14.78Zm-4.8.25H9.91V13.86h1.17Zm0-2.44H9.92l-.1-4.15h1.35Z"/><path d="M4.5,9.12A4.52,4.52,0,0,0,0,13.62,2.34,2.34,0,0,0,0,14H4.44l2.9-4.88ZM7,7.88a4,4,0,0,0,1.2-.21l.88-1.48a1.64,1.64,0,0,1,1.43-.81h.14A3.93,3.93,0,1,0,3.06,3.94,4,4,0,0,0,7,7.88Z"/></g></svg>
