<svg id="Layer_1" data-name="Layer 1" xmlns="http://www.w3.org/2000/svg" width="16" height="16" viewBox="0 0 16 16">
  <title>User Color</title>
  <path d="M6.56158.875a3.69089,3.69089,0,1,0,0,7.38177,3.66387,3.66387,0,0,0,.5766-.05817A4.73826,4.73826,0,0,1,9.91,6.09918,3.675,3.675,0,0,0,6.56158.875Zm.05334,8.55347H4.21814A4.23059,4.23059,0,0,0,0,13.64667,2.38777,2.38777,0,0,0,.02789,14H7.809a4.6219,4.6219,0,0,1-1.194-4.57153Z"/>
  <circle class="secondary" cx="11.18985" cy="10.6588" r="3.63954"/>
</svg>
