<svg xmlns="http://www.w3.org/2000/svg" viewBox="0 0 16 16"><path d="M6.562.875a3.69 3.69 0 1 0 1.48 7.068.986.986 0 0 1-.112-.444V6.037a1 1 0 0 1 1-1h1.275a3.641 3.641 0 0 0 .048-.471A3.69 3.69 0 0 0 6.562.875zM4.218 9.428A4.23 4.23 0 0 0 0 13.647 2.388 2.388 0 0 0 .028 14h8.41v-.322l.006-.006v-.686a2.674 2.674 0 0 1 .88-1.964 2.698 2.698 0 0 1-.84-1.594z"/><path class="secondary" d="M15.862 6.037H8.93V7.5h.514v1.56a1.825 1.825 0 0 0 1.062 1.583l.718.38-.718.38a1.825 1.825 0 0 0-1.062 1.584v1.56H8.93V16h7.08v-1.454h-.515v-1.56a1.825 1.825 0 0 0-1.062-1.584l-.718-.38.718-.38a1.824 1.824 0 0 0 1.062-1.586V7.5h.515V6.037zm-1.69 6.948v1.561h-3.404v-1.56a.75.75 0 0 1 .444-.643l1.258-.663 1.257.662a.75.75 0 0 1 .444.643zm-3.404-4.641v-.845h3.403v.845z"/></svg>