<svg xmlns="http://www.w3.org/2000/svg" width="16" height="16" fill="currentColor" viewBox="0 0 16 16">
  <path class="secondary" fill-rule="evenodd" d="M11.5 9a2.5 2.5 0 1 0 0 5 2.5 2.5 0 0 0 0-5ZM8 11.5a3.5 3.5 0 1 1 7 0 3.5 3.5 0 0 1-7 0Zm5.204-1.254a.5.5 0 0 1 0 .708l-1.8 1.8a.5.5 0 0 1-.708 0l-.9-.9a.5.5 0 0 1 .708-.708l.546.547 1.446-1.447a.5.5 0 0 1 .708 0Z" clip-rule="evenodd"/>
  <path fill-rule="evenodd" d="M8.559 8.108a8.316 8.316 0 0 0-1.763.072c-3.396.536-4.341 3.33-4.605 4.843-.093.536.34.977.884.977h4.7a4.48 4.48 0 0 1-.582-1.25H3.527c.164-.647.46-1.394.987-2.015.571-.674 1.482-1.285 3.047-1.382a4.52 4.52 0 0 1 .998-1.245ZM8 5.742a1.75 1.75 0 1 0 0-3.5 1.75 1.75 0 0 0 0 3.5Zm0 1.25a3 3 0 1 0 0-6 3 3 0 0 0 0 6Z" clip-rule="evenodd"/>
</svg>
