<svg xmlns="http://www.w3.org/2000/svg" width="20" height="20" fill="currentColor" viewBox="0 0 20 20">
  <g class="user-filled-warning-20px">
    <path fill-rule="evenodd" d="M14.539 10.332c.218.097.353.266.435.38.08.113.163.257.247.404l.012.02 3.438 5.938c.085.146.169.291.227.416.059.129.138.33.113.569-.03.293-.185.56-.423.734a1.079 1.079 0 0 1-.549.187c-.138.012-.305.012-.474.012h-6.9c-.169 0-.336 0-.473-.012a1.079 1.079 0 0 1-.549-.187 1.041 1.041 0 0 1-.423-.734c-.025-.24.054-.44.113-.569a5.54 5.54 0 0 1 .227-.416l.011-.02 3.427-5.918.011-.02c.085-.147.168-.291.248-.403a1.08 1.08 0 0 1 .435-.381c.27-.12.577-.12.847 0Zm-.426 2.913c.345 0 .625.28.625.625l.002 1.373a.625.625 0 0 1-1.25 0l-.002-1.373c0-.346.28-.625.625-.625Zm-.623 3.664c0-.345.28-.625.625-.625h.004a.625.625 0 1 1 0 1.25h-.004a.625.625 0 0 1-.625-.625Z" class="secondary" clip-rule="evenodd"/>
    <path fill-rule="evenodd" d="M10 10.189c-.414 0-.806.021-1.177.063-4.857.54-6.18 4.418-6.54 6.49-.124.713.45 1.3 1.173 1.3h3.815l.866-1.5H3.853c.21-.918.618-2.028 1.393-2.943.859-1.013 2.267-1.91 4.754-1.91.322 0 .626.015.914.043l.81-1.403a9.355 9.355 0 0 0-.547-.077A10.649 10.649 0 0 0 10 10.189ZM6.074 4.954A3.928 3.928 0 0 0 10 8.88a3.928 3.928 0 0 0 0-7.852 3.926 3.926 0 0 0-3.926 3.926Zm6.352 0a2.426 2.426 0 1 1-4.852 0 2.426 2.426 0 0 1 4.852 0Z" class="Subtract" clip-rule="evenodd"/>
  </g>
</svg>
