<svg xmlns="http://www.w3.org/2000/svg" width="16" height="16" viewBox="0 0 16 16"><g><path d="M5.3,9.12H4.5A4.52,4.52,0,0,0,0,13.62,2.34,2.34,0,0,0,0,14H5.81A6,6,0,0,1,5,11,6.17,6.17,0,0,1,5.3,9.12ZM7,0A3.93,3.93,0,0,0,6,7.72,6,6,0,0,1,10.77,5a3.8,3.8,0,0,0,.17-1.07A3.93,3.93,0,0,0,7,0Z"/><path class="secondary" d="M15.62,12.91a4.32,4.32,0,0,0,.16-.51c0-.14.09-.27.12-.42a4.59,4.59,0,0,0,.1-1h0a4.59,4.59,0,0,0-.1-1c0-.15-.08-.28-.12-.42a4.32,4.32,0,0,0-.16-.51,3.5,3.5,0,0,0-.25-.47c-.07-.13-.13-.27-.21-.39a4.57,4.57,0,0,0-.62-.76h0a5,5,0,0,0-.76-.62c-.12-.08-.26-.14-.39-.21a3.5,3.5,0,0,0-.47-.25,4.32,4.32,0,0,0-.51-.16c-.14,0-.27-.09-.42-.12a4.85,4.85,0,0,0-2,0c-.15,0-.28.08-.42.12a4.32,4.32,0,0,0-.51.16,3.5,3.5,0,0,0-.47.25c-.13.07-.27.13-.39.21a5,5,0,0,0-.76.62h0a4.57,4.57,0,0,0-.62.76c-.08.12-.14.26-.21.39a5.19,5.19,0,0,0-.25.47,2.88,2.88,0,0,0-.15.5A3.52,3.52,0,0,0,6.1,10,4.59,4.59,0,0,0,6,11H6a4.59,4.59,0,0,0,.1,1,3.52,3.52,0,0,0,.13.43,4.13,4.13,0,0,0,.15.5c.07.17.17.32.25.48s.13.26.21.38a5.11,5.11,0,0,0,1.39,1.39c.12.08.26.14.38.21s.31.18.48.25a4.13,4.13,0,0,0,.5.15,3.52,3.52,0,0,0,.43.13,4.85,4.85,0,0,0,2,0,3.52,3.52,0,0,0,.43-.13,4.13,4.13,0,0,0,.5-.15c.17-.07.32-.17.48-.25s.26-.13.38-.21a5.11,5.11,0,0,0,1.39-1.39c.08-.12.14-.26.21-.39A5.19,5.19,0,0,0,15.62,12.91Zm-.69-1.18a1.94,1.94,0,0,0,0,.2,3.27,3.27,0,0,1-.17.53,1,1,0,0,1-.09.21,2.94,2.94,0,0,1-.25.46l-.09.15a4,4,0,0,1-1.66,1.37l-.07,0a5.44,5.44,0,0,1-.61.19l-.14,0A4,4,0,0,1,11,15h0a4,4,0,0,1-.78-.08l-.14,0a5.44,5.44,0,0,1-.61-.19l-.07,0A4,4,0,0,1,8,13.56c-.09-.11-.19-.22-.27-.34s-.13-.24-.2-.36a2.59,2.59,0,0,1-.17-.33c0-.12-.08-.24-.12-.36a2.85,2.85,0,0,1-.11-.39c0-.15,0-.3,0-.44s0-.45,0-.67,0-.3,0-.45a2.85,2.85,0,0,1,.11-.39c0-.12.07-.24.12-.36a2.59,2.59,0,0,1,.17-.33,2.53,2.53,0,0,1,.2-.36A3,3,0,0,1,8,8.45,4,4,0,0,1,9.4,7.34l0,0a4.44,4.44,0,0,1,.62-.19l.13,0a4,4,0,0,1,1.6,0l.13,0a4.44,4.44,0,0,1,.62.19l0,0A4,4,0,0,1,14,8.41l-3.31,3.31-1.42-1.6L8.34,11l2.33,2.59,4-4.05a3.09,3.09,0,0,1,.18.59c0,.09,0,.18,0,.27a3.27,3.27,0,0,1,0,.44,2.81,2.81,0,0,1,0,.29A6,6,0,0,1,14.93,11.73Z"/></g></svg>