<svg id="Layer_1" data-name="Layer 1" xmlns="http://www.w3.org/2000/svg" viewBox="0 0 16 16"><title>User_Failed</title><path d="M6.56.88a3.69,3.69,0,0,0,0,7.38,3.68,3.68,0,0,0,.58-.06A4.73,4.73,0,0,1,9.91,6.1a3.76,3.76,0,0,0,.34-1.53A3.69,3.69,0,0,0,6.56.88Zm.05,8.55H4.22A4.23,4.23,0,0,0,0,13.65,2,2,0,0,0,0,14H7.81a4.74,4.74,0,0,1-1.38-3.34A4.94,4.94,0,0,1,6.61,9.43Z"/><path d="M11.19,7a3.64,3.64,0,1,0,3.64,3.64A3.64,3.64,0,0,0,11.19,7Zm0,6.34a.65.65,0,1,1,.64-.64A.64.64,0,0,1,11.2,13.36Zm.74-4.7-.2,2.5a.56.56,0,0,1-1.11,0l-.19-2.5a.7.7,0,0,1,.7-.72.74.74,0,0,1,.8.63Z"/></svg>