<svg xmlns="http://www.w3.org/2000/svg" width="20" height="20" viewBox="0 0 20 20"><g><path class="secondary" d="M12,7.52V9.77c0,.08,0,.15,0,.23h0a4,4,0,0,0,.75,2.1h0a4.78,4.78,0,0,0,.47.54l.09.07a3.48,3.48,0,0,0,.48.38,2.39,2.39,0,0,0,.22.12,3.55,3.55,0,0,0,.43.23,3.1,3.1,0,0,0,.4.13l.33.1a4.07,4.07,0,0,0,.79.08h0a4,4,0,0,0,.78-.08l.33-.1a3.1,3.1,0,0,0,.4-.13,3.55,3.55,0,0,0,.43-.23,2.39,2.39,0,0,0,.22-.12,4.3,4.3,0,0,0,.49-.38l.08-.07a4,4,0,0,0,.47-.54h0A4,4,0,0,0,20,10h0c0-.08,0-.15,0-.23V7.52Zm6.72,2.25c0,.08,0,.15,0,.23H13.3c0-.08,0-.15,0-.23v-1h5.47Zm-2.73,4a4,4,0,0,0-4,4V20h8V17.75A4,4,0,0,0,16,13.77Zm2.73,5H13.28v-1a2.74,2.74,0,0,1,5.47,0Z"/><path d="M12.59,13.37a4.76,4.76,0,0,1-.55-.62h0l0-.05a4.89,4.89,0,0,1-.42-.69H6.87A5.73,5.73,0,0,0,1,17.54,2.38,2.38,0,0,0,1,18H11v-.25a5,5,0,0,1,2-4,4.26,4.26,0,0,1-.35-.28ZM10,0a5,5,0,0,0,0,10,5.1,5.1,0,0,0,1-.11s0-.08,0-.12V6.52h3.71A5.1,5.1,0,0,0,15,5,5,5,0,0,0,10,0Z"/></g></svg>