<svg id="Layer_1" data-name="Layer 1" xmlns="http://www.w3.org/2000/svg" width="16" height="16" viewBox="0 0 16 16">
  <title>User Warning</title>
  <path class="secondary" d="M15.81623,15.04l-4.76382-7.9678a.64287.64287,0,0,0-1.10356,0L5.185,15.04a.63447.63447,0,0,0,.54458.96h9.54207A.63445.63445,0,0,0,15.81623,15.04Zm-5.25909-.32961a.62372.62372,0,1,1,.62375-.6237A.62373.62373,0,0,1,10.55714,14.71035Zm.63048-4.89011L11.021,12.07741a.479.479,0,0,1-.95,0L9.90447,9.82024a.61867.61867,0,0,1,.597-.64571.63142.63142,0,0,1,.68615.56181A.62458.62458,0,0,1,11.18762,9.82024Z"/>
  <path d="M6.56158.875a3.69089,3.69089,0,1,0,0,7.38177,3.6514,3.6514,0,0,0,1.80774-.49146L9.09058,6.559a1.6238,1.6238,0,0,1,.92249-.71954A3.66183,3.66183,0,0,0,6.56158.875ZM0,13.64667A2.38777,2.38777,0,0,0,.02789,14H4.64172L7.37494,9.42847H4.21814A4.23059,4.23059,0,0,0,0,13.64667Z"/>
</svg>
