<svg xmlns="http://www.w3.org/2000/svg" width="20" height="20" fill="currentColor" viewBox="0 0 20 20">
  <g class="user-alert-20 px">
    <path fill-rule="evenodd" d="M14.6 11.504a3.125 3.125 0 1 0 0 6.25 3.125 3.125 0 0 0 0-6.25Zm-4.374 3.125a4.375 4.375 0 1 1 8.75 0 4.375 4.375 0 0 1-8.75 0Zm4.375-2.125c.345 0 .625.28.625.625v1.5a.625.625 0 1 1-1.25 0v-1.5c0-.345.28-.625.625-.625Zm-.625 3.625c0-.345.28-.625.625-.625h.003a.625.625 0 1 1 0 1.25h-.003a.625.625 0 0 1-.625-.625Z" class="secondary" clip-rule="evenodd"/>
    <path fill-rule="evenodd" d="M9.74 10.165c-.415 0-.807.022-1.178.063-4.857.54-6.18 4.419-6.54 6.491-.124.712.45 1.299 1.174 1.299h6.746a5.741 5.741 0 0 1-.85-1.5h-5.5c.21-.918.618-2.028 1.393-2.942.824-.972 2.153-1.837 4.453-1.906a5.776 5.776 0 0 1 1.171-1.471 10.946 10.946 0 0 0-.87-.034ZM5.812 4.93a3.928 3.928 0 0 0 3.926 3.926 3.928 3.928 0 0 0 0-7.852A3.926 3.926 0 0 0 5.813 4.93Zm6.352 0a2.426 2.426 0 1 1-4.852 0 2.426 2.426 0 0 1 4.852 0Z" class="Subtract" clip-rule="evenodd"/>
  </g>
</svg>
