<svg xmlns="http://www.w3.org/2000/svg" width="20" height="20" fill="currentColor" viewBox="0 0 20 20">
  <path fill-rule="evenodd" d="M8.823 10.252c.37-.042.763-.063 1.177-.063.414 0 .806.021 1.177.063 4.858.54 6.18 4.418 6.54 6.49.125.713-.45 1.3-1.173 1.3H3.456c-.722 0-1.297-.587-1.174-1.3.36-2.072 1.684-5.95 6.54-6.49Zm.112-1.518A3.928 3.928 0 0 1 10 1.027a3.926 3.926 0 0 1 0 7.853 3.93 3.93 0 0 1-1.065-.146ZM10 7.38a2.426 2.426 0 1 0 0-4.853 2.426 2.426 0 0 0 0 4.853Zm-6.147 9.16h12.295c-.21-.917-.618-2.027-1.394-2.942-.858-1.013-2.267-1.91-4.754-1.91-2.487 0-3.895.897-4.754 1.91-.775.915-1.184 2.025-1.393 2.942Z" clip-rule="evenodd"/>
</svg>
