<svg xmlns="http://www.w3.org/2000/svg" width="16" height="16" fill="currentColor" viewBox="0 0 16 16">
  <path fill-rule="evenodd" d="M3.49 15c-.815 0-1.434-.208-1.86-.623-.42-.415-.63-1.03-.63-1.844V3.475c0-.814.21-1.43.63-1.844C2.056 1.21 2.675 1 3.49 1h9.02c.82 0 1.44.21 1.86.63.42.421.63 1.036.63 1.845V9h-1.576V3.625c0-.352-.089-.615-.268-.788-.178-.174-.433-.26-.764-.26H3.608c-.331 0-.586.086-.764.26-.174.173-.26.436-.26.788v8.758c0 .352.086.615.26.788.178.174.433.26.764.26H9.08L10.124 15H3.49Zm9.934-5h2.556L15 11.473l-2.042 3.071L11.99 16 8 10h5.424Zm-2.418-4.389L9.756 9H8.293l1.231-3.838c.064-.236.155-.407.276-.512.121-.11.29-.166.504-.166.232 0 .418.069.56.205.147.132.22.302.22.513 0 .126-.026.262-.078.41Zm-4.523-.449L7.708 9H6.246l-1.26-3.389a1.476 1.476 0 0 1-.063-.402c0-.215.071-.388.213-.52a.772.772 0 0 1 .56-.205c.215 0 .383.053.504.158.12.105.215.278.283.52Zm.347 5.408-.44-1.188 1.372 2.064a1.033 1.033 0 0 1-.506-.19c-.173-.142-.315-.37-.425-.686Z" clip-rule="evenodd"/>
</svg>
