<svg xmlns="http://www.w3.org/2000/svg" width="12" height="12" fill="currentColor" viewBox="0 0 12 12">
  <path fill-rule="evenodd" d="M2.778 11c-.581 0-1.024-.148-1.328-.445C1.15 10.26 1 9.82 1 9.238v-6.47c0-.582.15-1.021.45-1.318.304-.3.747-.45 1.328-.45h6.444c.585 0 1.028.15 1.328.45.3.3.45.74.45 1.318V6.75H9.875V2.875c0-.252-.064-.44-.192-.563-.127-.124-.31-.186-.546-.186H2.863c-.237 0-.419.062-.546.186-.124.124-.186.312-.186.563v6.256c0 .251.062.439.186.563.127.124.31.185.546.185h3.819L7.427 11H2.778Zm7.097-3.5h2.109L8.992 12 6 7.5h3.874ZM8.147 4.294 7.24 6.75H6.198l.89-2.777c.046-.169.112-.29.198-.366a.514.514 0 0 1 .36-.118c.165 0 .298.049.4.146a.468.468 0 0 1 .157.366c0 .09-.019.188-.056.293Zm-3.23-.321.886 2.777H4.76l-.913-2.456c-.03-.105-.046-.2-.046-.287 0-.154.051-.278.152-.372a.552.552 0 0 1 .4-.146.53.53 0 0 1 .36.112c.086.075.154.2.203.372Zm.247 3.863-.2-.54.762 1.147a.677.677 0 0 1-.258-.118c-.124-.1-.225-.264-.304-.49Z" clip-rule="evenodd"/>
</svg>
