<svg xmlns="http://www.w3.org/2000/svg" width="16" height="16" fill="currentColor" viewBox="0 0 16 16">
  <path d="M3.49 15c-.815 0-1.434-.208-1.86-.623-.42-.415-.63-1.03-.63-1.844V3.475c0-.814.21-1.43.63-1.844C2.056 1.21 2.675 1 3.49 1h9.02c.82 0 1.44.21 1.86.63.42.421.63 1.036.63 1.845v9.058c0 .809-.21 1.421-.63 1.836-.42.42-1.04.631-1.86.631H3.49Zm.118-1.569h8.784c.331 0 .586-.086.764-.26.179-.173.268-.436.268-.788V3.625c0-.352-.089-.615-.268-.788-.178-.174-.433-.26-.764-.26H3.608c-.331 0-.586.086-.764.26-.174.173-.26.436-.26.788v8.758c0 .352.086.615.26.788.178.174.433.26.764.26Zm4.388-1.97c-.315 0-.562-.069-.74-.205-.174-.142-.316-.37-.426-.686L4.986 5.61a1.476 1.476 0 0 1-.063-.402c0-.215.071-.388.213-.52a.772.772 0 0 1 .56-.205c.215 0 .383.053.504.158.12.105.215.278.283.52l1.49 4.667h.055l1.496-4.667c.064-.236.155-.407.276-.512.121-.11.29-.166.504-.166.232 0 .418.069.56.205.147.132.22.302.22.513 0 .126-.026.262-.078.41l-1.82 4.934c-.11.31-.26.542-.45.694-.183.147-.43.22-.74.22Z"/>
</svg>
