<svg xmlns="http://www.w3.org/2000/svg" width="20" height="20" fill="currentColor" viewBox="0 0 20 20">
  <g class="vcs-root-20px">
    <path fill="none" d="M1.81 18.2c.547.533 1.344.8 2.39.8h11.6c1.053 0 1.85-.27 2.39-.81.54-.535.81-1.322.81-2.362V4.182c0-1.04-.27-1.83-.81-2.371C17.65 1.27 16.853 1 15.8 1H4.2c-1.046 0-1.843.27-2.39.81C1.27 2.346 1 3.136 1 4.183v11.646c0 1.047.27 1.838.81 2.371Z" class="secondary"/>
    <g class="Icon">
      <path d="M4.2 19c-1.046 0-1.843-.267-2.39-.8-.54-.534-.81-1.325-.81-2.372V4.182c0-1.047.27-1.837.81-2.371C2.357 1.27 3.154 1 4.2 1h11.6c1.053 0 1.85.27 2.39.81.54.541.81 1.332.81 2.372v11.646c0 1.04-.27 1.827-.81 2.361-.54.54-1.337.811-2.39.811H4.2Zm.125-1.709 11.494.029c.425 0 .951-.097 1.181-.32.23-.223.299-.759.299-1.211V10.13l-.07-6.133c0-.453-.251-.784-.48-1.007-.23-.223-.676-.285-1.102-.285H10l-6.054-.039c-.425 0-.753.112-.982.335-.223.222-.334.56-.334 1.013l.056 5.991v5.63c0 .453.091 1.142.314 1.365.23.223.9.291 1.325.291Z"/>
      <path d="M9.07 14.07c.223.17.531.256.925.256.388 0 .696-.092.926-.276.236-.19.423-.48.561-.867l2.275-6.169c.066-.184.098-.354.098-.512a.819.819 0 0 0-.275-.64c-.178-.171-.41-.257-.7-.257-.269 0-.479.07-.63.207-.15.132-.266.345-.344.64l-1.872 5.834h-.068L8.104 6.453c-.085-.302-.203-.52-.354-.65-.151-.132-.361-.198-.63-.198-.29 0-.522.086-.7.256a.845.845 0 0 0-.266.65c0 .152.027.32.08.503l2.304 6.198c.137.394.315.68.531.857Z"/>
    </g>
  </g>
</svg>
