<svg xmlns="http://www.w3.org/2000/svg" width="12" height="12" fill="currentColor" viewBox="0 0 12 12">
  <path d="M2.778 11c-.581 0-1.024-.148-1.328-.445C1.15 10.26 1 9.82 1 9.238v-6.47c0-.582.15-1.021.45-1.318.304-.3.747-.45 1.328-.45h6.444c.585 0 1.028.15 1.328.45.3.3.45.74.45 1.318v6.47c0 .578-.15 1.015-.45 1.312-.3.3-.743.45-1.328.45H2.778Zm.085-1.12h6.274c.237 0 .419-.062.546-.186.128-.124.192-.312.192-.563V2.875c0-.252-.064-.44-.192-.563-.127-.124-.31-.186-.546-.186H2.863c-.237 0-.419.062-.546.186-.124.124-.186.312-.186.563v6.256c0 .251.062.439.186.563.127.124.31.185.546.185Zm3.134-1.408c-.225 0-.401-.049-.529-.147-.124-.1-.225-.264-.304-.49l-1.316-3.54c-.03-.105-.046-.2-.046-.287 0-.154.051-.278.152-.372a.552.552 0 0 1 .4-.146.53.53 0 0 1 .36.112c.086.075.154.2.203.372L5.98 7.306h.04l1.069-3.333c.045-.169.11-.29.197-.366a.514.514 0 0 1 .36-.118c.165 0 .298.049.4.146a.468.468 0 0 1 .157.366c0 .09-.019.188-.056.293l-1.3 3.525c-.079.221-.186.386-.32.495-.132.105-.308.158-.53.158Z"/>
</svg>
