<svg xmlns="http://www.w3.org/2000/svg" width="20" height="20" fill="currentColor" viewBox="0 0 20 20">
  <path fill-rule="evenodd" d="M4.2 19c-1.046 0-1.843-.267-2.39-.8-.54-.534-.81-1.325-.81-2.372V4.182c0-1.047.27-1.837.81-2.371C2.357 1.27 3.154 1 4.2 1h11.6c1.053 0 1.85.27 2.39.81.54.541.81 1.332.81 2.372v7.068h-1.701v-1.12l-.07-6.133c0-.453-.251-.784-.48-1.007-.23-.223-.676-.285-1.102-.285H10l-6.054-.039c-.425 0-.753.112-.982.335-.223.222-.334.56-.334 1.013l.056 5.991v5.63c0 .453.091 1.142.314 1.365.23.223.9.291 1.325.291l7.372.019L12.821 19h-8.62Zm13.1-6.5H20L15 20l-.667-1h-.01L13.2 17.313h.008l-2.217-3.325-.002.002-.94-1.414L10 12.5h7.3Zm-3.542-5.486-1.562 4.236h-1.828l1.539-4.797c.078-.296.193-.51.344-.64.151-.139.361-.208.63-.208.29 0 .522.086.7.256a.819.819 0 0 1 .275.641c0 .158-.032.328-.098.512Zm-5.653-.561 1.531 4.797H7.808L6.233 7.014a1.845 1.845 0 0 1-.079-.502c0-.27.089-.486.266-.65.178-.171.41-.257.7-.257.269 0 .479.066.63.197.15.132.269.349.354.65Zm.434 6.76-.552-1.485 1.715 2.58a1.292 1.292 0 0 1-.632-.239c-.216-.177-.394-.463-.531-.857Z" clip-rule="evenodd"/>
</svg>
