<svg width="20" height="20" viewBox="0 0 20 20" xmlns="http://www.w3.org/2000/svg">
<path d="M10 1.75C14.5563 1.75 18.25 5.44365 18.25 10C18.25 14.5563 14.5563 18.25 10 18.25C5.44365 18.25 1.75 14.5563 1.75 10C1.75 5.44365 5.44365 1.75 10 1.75Z" stroke="#6C707E" stroke-width="1.5"/>
<path d="M14.7354 11.75C14.8174 11.75 14.8734 11.787 14.8983 11.8185C14.9098 11.8329 14.912 11.8424 14.9124 11.8448C14.9124 11.8448 14.9145 11.8519 14.907 11.8713C14.1527 13.848 12.2392 15.25 10.0001 15.25C7.76108 15.25 5.8476 13.848 5.09326 11.8713C5.08601 11.8523 5.08792 11.8448 5.08792 11.8448C5.08834 11.8424 5.09054 11.8329 5.10199 11.8185C5.12692 11.787 5.18288 11.75 5.26486 11.75H14.7354Z" stroke="#6C707E" stroke-width="1.5"/>
<path d="M8.5 7.75C8.5 7.75 8.25 6.75 7 6.75C5.75 6.75 5.5 7.75 5.5 7.75" stroke="#6C707E" stroke-width="1.5" stroke-linecap="round"/>
<path d="M14.5 7.75C14.5 7.75 14.25 6.75 13 6.75C11.75 6.75 11.5 7.75 11.5 7.75" stroke="#6C707E" stroke-width="1.5" stroke-linecap="round"/>
</svg>
