<svg width="12" height="12" viewBox="0 0 12 12" xmlns="http://www.w3.org/2000/svg">
<path d="M6 1.5C8.48528 1.5 10.5 3.51472 10.5 6C10.5 8.48528 8.48528 10.5 6 10.5C3.51472 10.5 1.5 8.48528 1.5 6C1.5 3.51472 3.51472 1.5 6 1.5Z" stroke="#6C707E"/>
<path d="M8.29617 7C8.33599 7 8.36319 7.01797 8.37529 7.03327C8.38087 7.04027 8.38194 7.04488 8.38214 7.04605C8.38214 7.04605 8.38316 7.04949 8.37951 7.05892C8.01314 8.01903 7.08373 8.7 5.99616 8.7C4.90863 8.7 3.97923 8.01903 3.61284 7.05892C3.60931 7.04969 3.61024 7.04605 3.61024 7.04605C3.61045 7.04488 3.61151 7.04027 3.61708 7.03327C3.62918 7.01797 3.65637 7 3.69618 7H8.29617Z" stroke="#6C707E"/>
<path d="M5.1999 4.64999C5.1999 4.64999 5.0499 4.04999 4.2999 4.04999C3.5499 4.04999 3.3999 4.64999 3.3999 4.64999" stroke="#6C707E" stroke-linecap="round"/>
<path d="M8.60005 4.64999C8.60005 4.64999 8.45005 4.04999 7.70005 4.04999C6.95005 4.04999 6.80005 4.64999 6.80005 4.64999" stroke="#6C707E" stroke-linecap="round"/>
</svg>
