<svg width="16" height="16" viewBox="0 0 16 16" xmlns="http://www.w3.org/2000/svg">
<path d="M8 1.625C11.5208 1.625 14.375 4.47918 14.375 8C14.375 11.5208 11.5208 14.375 8 14.375C4.47918 14.375 1.625 11.5208 1.625 8C1.625 4.47918 4.47918 1.625 8 1.625Z" stroke="#6C707E" stroke-width="1.25"/>
<path d="M4.3999 5.80005C4.3999 5.80005 4.5999 6.60005 5.5999 6.60005C6.5999 6.60005 6.7999 5.80005 6.7999 5.80005" stroke="#6C707E" stroke-width="1.25" stroke-linecap="round"/>
<path d="M9.19995 5.80005C9.19995 5.80005 9.39995 6.60005 10.4 6.60005C11.4 6.60005 11.6 5.80005 11.6 5.80005" stroke="#6C707E" stroke-width="1.25" stroke-linecap="round"/>
<path d="M10.8 11C10.8 11 9.99995 9.40002 7.99995 9.40002C5.99995 9.40002 5.19995 11 5.19995 11" stroke="#6C707E" stroke-width="1.25" stroke-linecap="round" stroke-linejoin="round"/>
</svg>
