<svg width="20" height="20" viewBox="0 0 20 20" xmlns="http://www.w3.org/2000/svg">
<path d="M10 1.75C14.5563 1.75 18.25 5.44365 18.25 10C18.25 14.5563 14.5563 18.25 10 18.25C5.44365 18.25 1.75 14.5563 1.75 10C1.75 5.44365 5.44365 1.75 10 1.75Z" stroke="#6C707E" stroke-width="1.5"/>
<path d="M5.5 7.25C5.5 7.25 5.75 8.25 7 8.25C8.25 8.25 8.5 7.25 8.5 7.25" stroke="#6C707E" stroke-width="1.5" stroke-linecap="round"/>
<path d="M11.5 7.25C11.5 7.25 11.75 8.25 13 8.25C14.25 8.25 14.5 7.25 14.5 7.25" stroke="#6C707E" stroke-width="1.5" stroke-linecap="round"/>
<path d="M13.5 13.75C13.5 13.75 12.5 11.75 10 11.75C7.5 11.75 6.5 13.75 6.5 13.75" stroke="#6C707E" stroke-width="1.5" stroke-linecap="round" stroke-linejoin="round"/>
</svg>
