<svg width="16" height="16" viewBox="0 0 16 16" xmlns="http://www.w3.org/2000/svg">
<path d="M8 1.625C11.5208 1.625 14.375 4.47918 14.375 8C14.375 11.5208 11.5208 14.375 8 14.375C4.47918 14.375 1.625 11.5208 1.625 8C1.625 4.47918 4.47918 1.625 8 1.625Z" stroke="#6C707E" stroke-width="1.25"/>
<path d="M11.8557 9C11.9224 9 11.968 9.03171 11.9883 9.05871C11.9977 9.07106 11.9995 9.0792 11.9998 9.08126C11.9998 9.08126 12.0015 9.08734 11.9954 9.10397C11.3812 10.7983 9.82314 12 7.99996 12C6.17684 12 4.61879 10.7983 4.00457 9.10397C3.99867 9.08769 4.00022 9.08126 4.00022 9.08126C4.00057 9.0792 4.00236 9.07106 4.01168 9.05871C4.03198 9.03171 4.07755 9 4.1443 9H11.8557Z" stroke="#6C707E" stroke-width="1.25"/>
<path d="M6.7999 6.20002C6.7999 6.20002 6.5999 5.40002 5.5999 5.40002C4.5999 5.40002 4.3999 6.20002 4.3999 6.20002" stroke="#6C707E" stroke-width="1.25" stroke-linecap="round"/>
<path d="M11.6 6.20002C11.6 6.20002 11.4 5.40002 10.4 5.40002C9.39995 5.40002 9.19995 6.20002 9.19995 6.20002" stroke="#6C707E" stroke-width="1.25" stroke-linecap="round"/>
</svg>
