<svg width="12" height="12" viewBox="0 0 12 12" xmlns="http://www.w3.org/2000/svg">
<path d="M6 1.5C8.48528 1.5 10.5 3.51472 10.5 6C10.5 8.48528 8.48528 10.5 6 10.5C3.51472 10.5 1.5 8.48528 1.5 6C1.5 3.51472 3.51472 1.5 6 1.5Z" stroke="#6C707E"/>
<path d="M3.5 4.34998C3.5 4.34998 3.63333 4.94998 4.3 4.94998C4.96667 4.94998 5.1 4.34998 5.1 4.34998" stroke="#6C707E" stroke-linecap="round"/>
<path d="M6.8999 4.34998C6.8999 4.34998 7.03324 4.94998 7.6999 4.94998C8.36657 4.94998 8.4999 4.34998 8.4999 4.34998" stroke="#6C707E" stroke-linecap="round"/>
<path d="M8 8C8 8 7.42857 7 6 7C4.57143 7 4 8 4 8" stroke="#6C707E" stroke-linecap="round" stroke-linejoin="round"/>
</svg>
