<svg xmlns="http://www.w3.org/2000/svg" width="12" height="12" viewBox="0 0 12 12">
  <path d="M5.36621 10.4932C4.78622 10.4343 4.33307 9.94413 4.33301 9.34863L4.33301 7.68652L3 7.68652C1.8956 7.68636 1.00006 6.79094 1 5.68652L1 4.57129L1.00977 4.375C1.05448 3.92075 1.25366 3.4926 1.57715 3.16504L2.63477 2.09473L2.78223 1.95996C3.08823 1.70645 3.46302 1.54943 3.8584 1.50977L4.05762 1.5L8.5 1.5L8.5 1.51562C8.55439 1.50647 8.61 1.5 8.66699 1.5L9 1.5C10.1045 1.5 11 2.39546 11 3.5L11 5.68652C11 6.72217 10.2128 7.57352 9.2041 7.67578L9 7.68652L8.66699 7.68652C8.61005 7.68652 8.55435 7.68102 8.5 7.67187L8.5 7.68652L6.34277 10.1133C6.12453 10.3585 5.8117 10.499 5.4834 10.499L5.36621 10.4932ZM9 6.68652C9.55229 6.68652 10 6.23881 10 5.68652L10 3.5C9.99997 2.94774 9.55226 2.5 9 2.5L8.66699 2.5L8.66699 6.68652L9 6.68652ZM5.4834 9.49902C5.52623 9.49902 5.56721 9.48022 5.5957 9.44824L7.5 7.30762L7.5 2.5L4.05762 2.5C3.79057 2.50014 3.53442 2.60695 3.34668 2.79687L2.28906 3.86816C2.10426 4.05532 2 4.30826 2 4.57129L2 5.68652C2.00006 6.23866 2.44789 6.68636 3 6.68652L5.33301 6.68652L5.33301 9.34863C5.33307 9.43141 5.40065 9.49886 5.4834 9.49902Z"/>
</svg>