<svg xmlns="http://www.w3.org/2000/svg" width="16" height="16" viewBox="0 0 16 16">
  <path fill-rule="evenodd" clip-rule="evenodd" d="M9.05612 5.381V6.631H10.3061H12.9592C13.3734 6.631 13.7092 6.96679 13.7092 7.381V9.9812C13.7092 10.1801 13.6302 10.3709 13.4896 10.5115L11.5591 12.442C11.4184 12.5827 11.2276 12.6617 11.0287 12.6617H5.73975V5.86067L8.42912 2.87248C8.49733 2.79669 8.5945 2.75342 8.69646 2.75342C8.8951 2.75342 9.05612 2.91445 9.05612 3.11308V5.381ZM4.6674 13.9117H5.73975H11.0287C11.5592 13.9117 12.0679 13.701 12.4429 13.3259L14.3734 11.3954C14.7485 11.0203 14.9592 10.5116 14.9592 9.9812V7.381C14.9592 6.27643 14.0638 5.381 12.9592 5.381H11.5561H10.3061V4.131V3.11308C10.3061 2.22409 9.58545 1.50342 8.69646 1.50342C8.24014 1.50342 7.80526 1.6971 7.5 2.03627L4.48975 5.381V5.3811H3C1.89543 5.3811 1 6.27653 1 7.3811V11.9118C1 13.0164 1.89543 13.9118 3 13.9118H4.6531C4.65788 13.9118 4.66264 13.9118 4.6674 13.9117ZM3 6.6311H4.4031V12.6618H3C2.58579 12.6618 2.25 12.326 2.25 11.9118V7.3811C2.25 6.96689 2.58579 6.6311 3 6.6311Z"/>
</svg>