<svg xmlns="http://www.w3.org/2000/svg" width="16" height="16" viewBox="0 0 16 16">
  <path d="M7.09863 13.9028C6.2872 13.8203 5.65347 13.1354 5.65332 12.3022L5.65332 10.0337L3 10.0337C1.89577 10.0333 1 9.13802 1 8.03369L1 5.43408L1.00977 5.23584C1.05526 4.77833 1.25811 4.34807 1.58594 4.02002L3.5166 2.08935C3.84475 1.7612 4.27561 1.55867 4.7334 1.51318L4.93067 1.50342L12.96 1.50342L13.1641 1.51318C14.1727 1.61541 14.9598 2.46786 14.96 3.50342L14.96 8.03369C14.96 9.13826 14.0645 10.0337 12.96 10.0337L11.4697 10.0337L8.45898 13.3784C8.15374 13.7174 7.71888 13.9116 7.2627 13.9116L7.09863 13.9028ZM12.96 8.78369C13.3742 8.78369 13.71 8.4479 13.71 8.03369L13.71 3.50342C13.7098 3.08932 13.3741 2.75342 12.96 2.75342L11.5566 2.75342L11.5566 8.78369L12.96 8.78369ZM7.2627 12.6616C7.36455 12.6616 7.46208 12.6181 7.53027 12.5425L10.2197 9.55518L10.2197 2.75342L4.93067 2.75342C4.73196 2.75357 4.54091 2.83263 4.40039 2.97314L2.46973 4.90381C2.32938 5.04441 2.25 5.2354 2.25 5.43408L2.25 8.03369C2.25 8.44766 2.58612 8.78329 3 8.78369L6.90332 8.78369L6.90332 12.3022C6.90348 12.5005 7.06453 12.6612 7.2627 12.6616Z"/>
</svg>