<svg xmlns="http://www.w3.org/2000/svg" width="20" height="20" viewBox="0 0 20 20">
  <path d="M10.8701 2.19995C11.9747 2.19995 12.8828 3.09538 12.8828 4.19995V7.04663H16.6992C17.8036 7.04673 18.6991 7.9422 18.6992 9.04663V13.0046C18.6991 13.5349 18.4882 14.0437 18.1133 14.4187L15.4072 17.1248C15.0322 17.4997 14.5235 17.7097 13.9932 17.7097H3.25C2.14543 17.7097 1.25 16.8143 1.25 15.7097V9.04663C1.25015 8.01112 2.03732 7.15963 3.0459 7.05737L3.25 7.04663H5.6123L9.37891 2.86206C9.75809 2.44078 10.3033 2.20008 10.8701 2.19995ZM3.25 8.54663C2.97396 8.54663 2.75016 8.77063 2.75 9.04663V15.7097C2.75 15.9859 2.97386 16.2097 3.25 16.2097H5.56641V8.54663H3.25Z"/>
</svg>