<svg xmlns="http://www.w3.org/2000/svg" width="12" height="12" viewBox="0 0 12 12">
  <path d="M5.4834 10.499C4.84833 10.4989 4.33398 9.98374 4.33398 9.34863L4.33398 7.68652L3 7.68652C1.89556 7.68636 1 6.79099 1 5.68652L1 4.57129C1 4.04513 1.2074 3.53938 1.57715 3.16504L2.63477 2.09473C3.01052 1.7143 3.52389 1.5 4.05859 1.5L8.5 1.5L8.5 1.51562C8.55439 1.50647 8.61 1.5 8.66699 1.5L9 1.5C10.1045 1.5 11 2.39546 11 3.5L11 5.68652C11 6.72217 10.2128 7.57352 9.2041 7.67578L9 7.68652L8.66699 7.68652C8.61005 7.68652 8.55435 7.68102 8.5 7.67187L8.5 7.68652L6.34375 10.1133C6.12549 10.3588 5.81191 10.499 5.4834 10.499ZM9 6.68652C9.55229 6.68652 10 6.23881 10 5.68652L10 3.5C9.99997 2.94774 9.55226 2.5 9 2.5L8.66699 2.5L8.66699 6.68652L9 6.68652Z"/>
</svg>