<svg xmlns="http://www.w3.org/2000/svg" width="16" height="16" viewBox="0 0 16 16"><g><path d="M1,15h1.8V6H1Zm12.6-9.38H10L10.64,4a3.31,3.31,0,0,0,.21-1.76A2.72,2.72,0,0,0,10.21.87,2.77,2.77,0,0,0,9.54.31,1.17,1.17,0,0,0,8.65,0,1,1,0,0,0,8,.66c-.11.29-.22.59-.34.88l-.57,1.4L4,6v9h7.11a1.82,1.82,0,0,0,1.61-1l1.94-3.68A3,3,0,0,0,15,8.94V7.07A1.42,1.42,0,0,0,13.61,5.62Zm0,3.32a1.58,1.58,0,0,1-.18.73l-1.93,3.68a.46.46,0,0,1-.38.25H5.4v-7L8.07,3.93a1.37,1.37,0,0,0,.3-.45c.13-.29.44-1,.72-1.76a1.46,1.46,0,0,1,.26,1.7L8,7l5.6.05Z"/></g></svg>