<svg xmlns="http://www.w3.org/2000/svg" width="12" height="12" viewBox="0 0 12 12">
  <path d="M6.63379 1.50586C7.21378 1.5647 7.66693 2.05489 7.66699 2.65039V4.3125H9C10.1044 4.31266 10.9999 5.20808 11 6.3125V7.42773L10.9902 7.62402C10.9455 8.07828 10.7463 8.50642 10.4229 8.83398L9.36523 9.9043L9.21777 10.0391C8.91178 10.2926 8.53698 10.4496 8.1416 10.4893L7.94238 10.499H3.5V10.4834C3.44561 10.4926 3.39 10.499 3.33301 10.499H3C1.89545 10.499 1.00003 9.60356 1 8.49902V6.3125C1 5.27685 1.78723 4.42551 2.7959 4.32324L3 4.3125H3.33301C3.38995 4.3125 3.44565 4.318 3.5 4.32715V4.3125L5.65723 1.88574C5.87547 1.64051 6.1883 1.5 6.5166 1.5L6.63379 1.50586ZM3 5.3125C2.44771 5.3125 2 5.76022 2 6.3125V8.49902C2.00003 9.05128 2.44774 9.49902 3 9.49902H3.33301V5.3125H3ZM6.5166 2.5C6.47377 2.5 6.43279 2.5188 6.4043 2.55078L4.5 4.69141V9.49902H7.94238C8.20943 9.49889 8.46558 9.39207 8.65332 9.20215L9.71094 8.13086C9.89574 7.9437 10 7.69076 10 7.42773V6.3125C9.99994 5.76037 9.55211 5.31266 9 5.3125H6.66699V2.65039C6.66693 2.56762 6.59935 2.50017 6.5166 2.5Z"/>
</svg>