<svg xmlns="http://www.w3.org/2000/svg" width="20" height="20" viewBox="0 0 20 20">
  <path d="M11.0752 2.21069C12.085 2.31314 12.8828 3.16444 12.8828 4.19995V7.04663H16.6992C17.8036 7.04673 18.6991 7.94226 18.6992 9.04663V13.0046L18.6895 13.2019C18.644 13.6597 18.4415 14.0905 18.1133 14.4187L15.4072 17.1248L15.2607 17.2576C14.9556 17.5076 14.583 17.662 14.1904 17.7009L13.9932 17.7107H5.6123V17.7097H3.25C2.14543 17.7097 1.25 16.8143 1.25 15.7097V9.04663C1.25015 8.01112 2.03732 7.15963 3.0459 7.05737L3.25 7.04663H5.6123L9.37891 2.86206C9.75819 2.44068 10.3042 2.19995 10.8711 2.19995L11.0752 2.21069ZM10.8711 3.69995C10.7253 3.69995 10.5861 3.76312 10.4941 3.86499L7.1123 7.6228V16.2107H13.9932C14.1256 16.2107 14.253 16.1578 14.3467 16.0642L17.0527 13.3582C17.1464 13.2645 17.1991 13.1371 17.1992 13.0046V9.04663C17.1991 8.77069 16.9752 8.54673 16.6992 8.54663H11.3828V4.19995C11.3828 3.9357 11.1588 3.70024 10.8711 3.69995ZM3.25 8.54663C2.97396 8.54663 2.75016 8.77063 2.75 9.04663V15.7097C2.75 15.9859 2.97386 16.2097 3.25 16.2097H5.56641V8.54663H3.25Z"/>
</svg>