<svg xmlns="http://www.w3.org/2000/svg" width="16" height="16" viewBox="0 0 16 16">
  <path d="M7.26294 13.9117C6.37404 13.9117 5.65372 13.1912 5.65356 12.3024L5.65356 10.0338L3.00024 10.0338C1.89568 10.0338 1.00024 9.13838 1.00024 8.03381L1.00024 5.4342C1.00024 4.90377 1.21111 4.39521 1.58618 4.02014L3.51587 2.08948C3.89094 1.7144 4.40048 1.50354 4.93091 1.50354L12.9592 1.50354L13.1633 1.51331C14.172 1.61553 14.9591 2.46798 14.9592 3.50354L14.9592 8.03381C14.9592 9.13838 14.0638 10.0338 12.9592 10.0338L11.469 10.0338L8.45923 13.3785C8.15401 13.7177 7.7192 13.9117 7.26294 13.9117ZM12.9592 8.78381C13.3734 8.78381 13.7092 8.44803 13.7092 8.03381L13.7092 3.50354C13.7091 3.08944 13.3734 2.75354 12.9592 2.75354L11.5559 2.75354L11.5559 8.78381L12.9592 8.78381Z"/>
</svg>