<svg xmlns="http://www.w3.org/2000/svg" width="20" height="20" viewBox="0 0 20 20">
  <path d="M9.07837 17.7097C7.97384 17.7097 7.06665 16.8143 7.06665 15.7097L7.06665 12.863L3.25024 12.863C2.14568 12.863 1.25024 11.9676 1.25024 10.863L1.25025 6.906C1.25025 6.37557 1.46111 5.86702 1.83618 5.49194L4.54224 2.78589C4.9173 2.41085 5.4259 2.19995 5.9563 2.19995L16.6995 2.19995C17.8038 2.20018 18.6995 3.09552 18.6995 4.19995L18.6995 10.863C18.6995 11.8985 17.912 12.7498 16.9036 12.8523L16.6995 12.863L14.3372 12.863L10.5706 17.0476C10.1913 17.469 9.64534 17.7097 9.07837 17.7097ZM16.6995 11.613C17.1135 11.6128 17.4495 11.2771 17.4495 10.863L17.4495 4.19995C17.4495 3.78588 17.1135 3.45018 16.6995 3.44995L14.3372 3.44995L14.3372 11.613L16.6995 11.613Z"/>
</svg>