<svg xmlns="http://www.w3.org/2000/svg" width="16" height="16" viewBox="0 0 16 16">
  <path d="M8.69629 1.50342C9.58519 1.50342 10.3055 2.22393 10.3057 3.11279V5.38135H12.959C14.0636 5.38135 14.959 6.27678 14.959 7.38135V9.98096C14.959 10.5114 14.7481 11.0199 14.373 11.395L12.4434 13.3257C12.0683 13.7008 11.5588 13.9116 11.0283 13.9116H3L2.7959 13.9019C1.78727 13.7996 1.00012 12.9472 1 11.9116V7.38135C1 6.27678 1.89543 5.38135 3 5.38135H4.49023L7.5 2.03662C7.80522 1.69748 8.24003 1.50347 8.69629 1.50342ZM3 6.63135C2.58579 6.63135 2.25 6.96713 2.25 7.38135V11.9116C2.25013 12.3257 2.58587 12.6616 3 12.6616H4.40332V6.63135H3Z"/>
</svg>