<svg xmlns="http://www.w3.org/2000/svg" width="12" height="12" viewBox="0 0 12 12">
  <path d="M6.5166 1.5C7.15167 1.50017 7.66602 2.01528 7.66602 2.65039V4.3125H9C10.1044 4.31266 11 5.20803 11 6.3125V7.42773C11 7.95389 10.7926 8.45965 10.4229 8.83398L9.36523 9.9043C8.98948 10.2847 8.47612 10.499 7.94141 10.499H3.5V10.4834C3.44561 10.4926 3.39 10.499 3.33301 10.499H3C1.89545 10.499 1.00003 9.60356 1 8.49902V6.3125C1 5.27685 1.78723 4.42551 2.7959 4.32324L3 4.3125H3.33301C3.38995 4.3125 3.44565 4.318 3.5 4.32715V4.3125L5.65625 1.88574C5.87451 1.64022 6.18809 1.5 6.5166 1.5ZM3 5.3125C2.44771 5.3125 2 5.76022 2 6.3125V8.49902C2.00003 9.05128 2.44774 9.49902 3 9.49902H3.33301V5.3125H3Z"/>
</svg>