<svg xmlns="http://www.w3.org/2000/svg" width="20" height="20" viewBox="0 0 20 20">
  <path d="M8.875 17.7C7.86512 17.5976 7.06738 16.7463 7.06738 15.7107L7.06738 12.864L3.25098 12.864C2.14654 12.864 1.25114 11.9684 1.25098 10.864L1.25098 6.906L1.26074 6.70874C1.30626 6.25101 1.5088 5.82006 1.83692 5.49194L4.54297 2.78589L4.68945 2.65307C4.99456 2.40319 5.3673 2.2486 5.75977 2.20972L5.95703 2.19995L14.3379 2.20093L16.7002 2.20093C17.8047 2.20106 18.7002 3.09644 18.7002 4.20093L18.7002 10.864C18.7002 11.8996 17.9128 12.7509 16.9043 12.8533L16.7002 12.864L14.3379 12.864L10.5713 17.0486C10.192 17.4699 9.646 17.7107 9.0791 17.7107L8.875 17.7ZM9.0791 16.4607C9.29526 16.4607 9.50276 16.368 9.64258 16.2126L13.0547 12.4226C12.947 12.263 12.8838 12.071 12.8838 11.864L12.8838 3.44995L5.95703 3.44995C5.75833 3.44996 5.56736 3.5293 5.42676 3.66968L2.7207 6.37573C2.58022 6.51621 2.50117 6.70735 2.50098 6.906L2.50098 10.864C2.50114 11.2781 2.83689 11.614 3.25098 11.614L8.31738 11.614L8.31738 15.7107C8.31738 16.115 8.65526 16.4605 9.0791 16.4607ZM16.7002 11.614C17.1143 11.6139 17.4502 11.2781 17.4502 10.864L17.4502 4.20093C17.4502 3.7868 17.1143 3.45106 16.7002 3.45093L14.3379 3.45093L14.3379 11.614L16.7002 11.614Z"/>
</svg>