<svg xmlns="http://www.w3.org/2000/svg" width="20" height="20" fill="currentColor" viewBox="0 0 20 20">
  <path fill-rule="evenodd" d="M2.126 17.803c.362.215.788.322 1.279.322h13.091c.492 0 .915-.107 1.27-.322a2.24 2.24 0 0 0 .839-.864c.197-.36.296-.762.296-1.202a2.395 2.395 0 0 0-.338-1.228L12.008 3.086a2.272 2.272 0 0 0-.897-.906 2.36 2.36 0 0 0-1.16-.305c-.407 0-.796.102-1.169.305a2.219 2.219 0 0 0-.89.906L1.34 14.509c-.226.39-.339.799-.339 1.228 0 .44.096.841.288 1.202.198.362.477.65.838.864Zm7.833-5.538c-.491 0-.745-.248-.762-.745l-.119-4.115a.759.759 0 0 1 .23-.61.876.876 0 0 1 .634-.237c.26 0 .474.082.644.245.17.158.248.359.237.602l-.136 4.115c-.01.497-.254.745-.728.745Zm0 2.811c-.277 0-.514-.087-.711-.262a.882.882 0 0 1-.288-.669c0-.265.096-.485.288-.66.197-.181.434-.271.711-.271.271 0 .502.087.694.262a.854.854 0 0 1 .297.67c0 .27-.099.493-.296.668-.198.175-.43.262-.695.262Z" clip-rule="evenodd"/>
</svg>
