<svg xmlns="http://www.w3.org/2000/svg" width="12" height="12" fill="currentColor" viewBox="0 0 12 12">
  <path fill-rule="evenodd" d="M1.192 10.788c.222.131.484.197.786.197h8.044c.302 0 .562-.066.78-.197.223-.132.395-.31.516-.531.121-.222.182-.468.182-.739a1.47 1.47 0 0 0-.208-.755L7.264 1.744A1.45 1.45 0 0 0 6 1c-.25 0-.49.062-.718.187-.229.125-.411.31-.546.557L.708 8.764a1.55 1.55 0 0 0-.031 1.493c.121.222.293.399.515.53Zm4.783-3.429c-.294 0-.447-.149-.457-.447l-.071-2.47a.455.455 0 0 1 .137-.365.526.526 0 0 1 .381-.142c.156 0 .285.049.386.147a.442.442 0 0 1 .143.36l-.082 2.47c-.006.298-.152.447-.437.447Zm0 1.687a.622.622 0 0 1-.426-.158.53.53 0 0 1-.173-.401.51.51 0 0 1 .173-.396.61.61 0 0 1 .426-.163c.163 0 .302.053.417.158a.512.512 0 0 1 .178.401c0 .163-.06.296-.178.401a.608.608 0 0 1-.417.158Z" clip-rule="evenodd"/>
</svg>
