<svg xmlns="http://www.w3.org/2000/svg" width="20" height="20" fill="currentColor" viewBox="0 0 20 20">
  <path fill-rule="evenodd" d="M2.126 17.803c.362.215.788.322 1.279.322h13.091c.492 0 .915-.107 1.27-.322a2.24 2.24 0 0 0 .839-.864c.197-.36.296-.762.296-1.202a2.395 2.395 0 0 0-.338-1.228L12.008 3.086a2.272 2.272 0 0 0-.897-.906 2.36 2.36 0 0 0-1.16-.305c-.407 0-.796.102-1.169.305a2.219 2.219 0 0 0-.89.906L1.34 14.509c-.226.39-.339.799-.339 1.228 0 .44.096.841.288 1.202.198.362.477.65.838.864Zm14.218-1.278H3.557c-.265 0-.474-.088-.626-.263a.9.9 0 0 1-.229-.61 1.213 1.213 0 0 1 .11-.49l6.41-11.195a.708.708 0 0 1 .314-.305.918.918 0 0 1 .415-.102c.14 0 .276.034.406.102.13.062.237.163.322.305l6.402 11.211c.079.153.118.31.118.474a.9.9 0 0 1-.228.61c-.153.175-.362.263-.627.263ZM10.75 7a.75.75 0 0 0-1.5 0v3.5a.75.75 0 0 0 1.5 0V7ZM10 13.25a.75.75 0 0 0 0 1.5h.009a.75.75 0 1 0 0-1.5H10Z" clip-rule="evenodd"/>
</svg>
