<svg xmlns="http://www.w3.org/2000/svg" width="12" height="12" fill="currentColor" viewBox="0 0 12 12">
  <path d="M1.978 10.985a1.51 1.51 0 0 1-.786-.197 1.376 1.376 0 0 1-.515-.531 1.55 1.55 0 0 1 .031-1.494l4.028-7.019c.135-.246.317-.432.546-.557A1.48 1.48 0 0 1 6 1a1.45 1.45 0 0 1 1.264.744l4.028 7.02a1.5 1.5 0 0 1 .208.754c0 .27-.06.517-.182.739a1.375 1.375 0 0 1-.515.53 1.483 1.483 0 0 1-.78.198H1.977Zm.093-.983H9.93a.484.484 0 0 0 .385-.161.553.553 0 0 0 .14-.375c0-.1-.024-.198-.073-.291l-3.934-6.89a.465.465 0 0 0-.197-.187.533.533 0 0 0-.505 0 .435.435 0 0 0-.192.187l-3.94 6.88a.746.746 0 0 0-.068.302c0 .141.048.266.141.374a.484.484 0 0 0 .385.16Zm3.934-2.617c-.302 0-.458-.153-.468-.458l-.073-2.53a.466.466 0 0 1 .14-.374.54.54 0 0 1 .39-.146c.16 0 .292.05.396.151.104.098.153.22.146.37l-.083 2.529c-.007.305-.156.458-.448.458Zm0 1.727a.637.637 0 0 1-.437-.161.542.542 0 0 1-.177-.411c0-.163.06-.299.177-.406a.625.625 0 0 1 .437-.167.61.61 0 0 1 .427.162.525.525 0 0 1 .182.41c0 .167-.06.304-.182.412a.623.623 0 0 1-.427.161Z"/>
</svg>
