<svg xmlns="http://www.w3.org/2000/svg" width="16" height="16" fill="currentColor" viewBox="0 0 16 16">
  <path d="M2.724 14.5c-.393 0-.734-.086-1.023-.257a1.792 1.792 0 0 1-.67-.691 2.018 2.018 0 0 1 .04-1.945L6.314 2.47c.176-.32.413-.563.711-.725.299-.163.61-.244.935-.244.325 0 .635.081.928.244.294.158.533.4.718.725l5.244 9.138a1.947 1.947 0 0 1 .27.983c0 .352-.078.673-.236.962a1.786 1.786 0 0 1-.671.69c-.284.172-.623.258-1.016.258H2.724Zm.122-1.28h10.229a.63.63 0 0 0 .501-.21.72.72 0 0 0 .183-.488.815.815 0 0 0-.095-.38L8.543 3.174a.605.605 0 0 0-.258-.244.694.694 0 0 0-.657 0 .567.567 0 0 0-.25.244L2.25 12.13a.971.971 0 0 0-.088.393.72.72 0 0 0 .182.488.63.63 0 0 0 .502.21Zm5.121-3.408c-.393 0-.596-.199-.61-.596l-.094-3.292a.607.607 0 0 1 .182-.488.7.7 0 0 1 .509-.19.71.71 0 0 1 .514.197.59.59 0 0 1 .19.48L8.55 9.217c-.01.397-.204.596-.583.596Zm0 2.25a.829.829 0 0 1-.569-.21.706.706 0 0 1-.23-.536c0-.212.076-.388.23-.528a.814.814 0 0 1 .57-.217c.216 0 .401.07.555.21.158.14.237.318.237.535a.683.683 0 0 1-.237.535.811.811 0 0 1-.556.21Z"/>
</svg>
