<svg id="Layer_1" data-name="Layer 1" xmlns="http://www.w3.org/2000/svg" width="19" height="16" viewBox="0 0 19 16">
  <path d="M18.84027,14.33777,10.4696.54279a1.13834,1.13834,0,0,0-1.93915,0L.15973,14.33777A1.09844,1.09844,0,0,0,1.11664,16H17.88342A1.09843,1.09843,0,0,0,18.84027,14.33777ZM9.58124,3.125a1.25634,1.25634,0,0,1,1.31549,1.20612,1.50174,1.50174,0,0,1,0,.18005l-.3194,4.84595a.91078.91078,0,0,1-1.82129,0l-.3194-4.84595A1.27857,1.27857,0,0,1,9.58124,3.125ZM9.6875,14.14374a1.22812,1.22812,0,1,1,1.22815-1.22815A1.2281,1.2281,0,0,1,9.6875,14.14374Z"/>
</svg>
