<svg xmlns="http://www.w3.org/2000/svg" width="16" height="16" fill="currentColor" viewBox="0 0 16 16">
  <path fill-rule="evenodd" d="M1.7 14.243c.29.171.63.257 1.024.257h10.473c.393 0 .732-.086 1.016-.257.29-.172.513-.402.67-.691.159-.29.238-.61.238-.962a1.917 1.917 0 0 0-.271-.983L9.606 2.47a1.818 1.818 0 0 0-.718-.725A1.888 1.888 0 0 0 7.96 1.5c-.325 0-.636.081-.935.244a1.775 1.775 0 0 0-.71.725L1.07 11.607a2.018 2.018 0 0 0-.04 1.944c.157.29.38.52.67.692Zm6.267-4.43c-.393 0-.596-.2-.61-.597l-.094-3.292a.607.607 0 0 1 .182-.488.7.7 0 0 1 .509-.19.71.71 0 0 1 .514.197.59.59 0 0 1 .19.48L8.55 9.217c-.01.397-.204.596-.583.596Zm0 2.248a.829.829 0 0 1-.569-.21.706.706 0 0 1-.23-.535c0-.212.077-.388.23-.528a.814.814 0 0 1 .57-.217c.216 0 .401.07.555.21.158.14.237.318.237.535a.683.683 0 0 1-.237.535.811.811 0 0 1-.556.21Z" clip-rule="evenodd"/>
</svg>
